%TF.GenerationSoftware,KiCad,Pcbnew,(5.1.9)-1*%
%TF.CreationDate,2021-03-10T14:32:31-04:00*%
%TF.ProjectId,placa_manutencao_preventiva,706c6163-615f-46d6-916e-7574656e6361,rev?*%
%TF.SameCoordinates,Original*%
%TF.FileFunction,Copper,L1,Top*%
%TF.FilePolarity,Positive*%
%FSLAX46Y46*%
G04 Gerber Fmt 4.6, Leading zero omitted, Abs format (unit mm)*
G04 Created by KiCad (PCBNEW (5.1.9)-1) date 2021-03-10 14:32:31*
%MOMM*%
%LPD*%
G01*
G04 APERTURE LIST*
%TA.AperFunction,Profile*%
%ADD10C,0.050000*%
%TD*%
%TA.AperFunction,ComponentPad*%
%ADD11R,1.700000X1.700000*%
%TD*%
%TA.AperFunction,ComponentPad*%
%ADD12O,1.700000X1.700000*%
%TD*%
%TA.AperFunction,ComponentPad*%
%ADD13O,2.200000X2.200000*%
%TD*%
%TA.AperFunction,ComponentPad*%
%ADD14R,2.200000X2.200000*%
%TD*%
%TA.AperFunction,ComponentPad*%
%ADD15O,3.600000X1.800000*%
%TD*%
%TA.AperFunction,ComponentPad*%
%ADD16O,3.048000X1.524000*%
%TD*%
%TA.AperFunction,ComponentPad*%
%ADD17O,1.600000X1.600000*%
%TD*%
%TA.AperFunction,ComponentPad*%
%ADD18C,1.600000*%
%TD*%
%TA.AperFunction,ComponentPad*%
%ADD19C,1.524000*%
%TD*%
%TA.AperFunction,ComponentPad*%
%ADD20C,1.400000*%
%TD*%
%TA.AperFunction,ComponentPad*%
%ADD21R,1.600000X1.600000*%
%TD*%
%TA.AperFunction,ComponentPad*%
%ADD22R,2.000000X1.905000*%
%TD*%
%TA.AperFunction,ComponentPad*%
%ADD23O,2.000000X1.905000*%
%TD*%
%TA.AperFunction,ComponentPad*%
%ADD24R,1.000000X1.000000*%
%TD*%
%TA.AperFunction,ComponentPad*%
%ADD25O,1.000000X1.000000*%
%TD*%
%TA.AperFunction,ComponentPad*%
%ADD26C,1.800000*%
%TD*%
%TA.AperFunction,ViaPad*%
%ADD27C,1.700000*%
%TD*%
%TA.AperFunction,ViaPad*%
%ADD28C,1.600000*%
%TD*%
%TA.AperFunction,ViaPad*%
%ADD29C,0.800000*%
%TD*%
%TA.AperFunction,Conductor*%
%ADD30C,0.250000*%
%TD*%
%TA.AperFunction,Conductor*%
%ADD31C,1.270000*%
%TD*%
%TA.AperFunction,Conductor*%
%ADD32C,0.254000*%
%TD*%
%TA.AperFunction,Conductor*%
%ADD33C,0.100000*%
%TD*%
G04 APERTURE END LIST*
D10*
X77800200Y-14986000D02*
X136220200Y-14986000D01*
X77800200Y-14986000D02*
X77800200Y-135001000D01*
X136220200Y-135001000D02*
X136220200Y-14986000D01*
X77800200Y-135001000D02*
X136220200Y-135001000D01*
D11*
%TO.P,J6,1*%
%TO.N,+3V3*%
X133045200Y-48641000D03*
D12*
%TO.P,J6,2*%
%TO.N,GND*%
X133045200Y-46101000D03*
%TO.P,J6,3*%
%TO.N,I2C_SCL*%
X133045200Y-43561000D03*
%TO.P,J6,4*%
%TO.N,I2C_SDA*%
X133045200Y-41021000D03*
%TO.P,J6,5*%
%TO.N,Net-(J6-Pad5)*%
X133045200Y-38481000D03*
%TO.P,J6,6*%
%TO.N,Net-(J6-Pad6)*%
X133045200Y-35941000D03*
%TO.P,J6,7*%
%TO.N,Net-(J6-Pad7)*%
X133045200Y-33401000D03*
%TO.P,J6,8*%
%TO.N,Net-(J6-Pad8)*%
X133045200Y-30861000D03*
%TD*%
D13*
%TO.P,D2,2*%
%TO.N,Net-(D2-Pad2)*%
X89865200Y-91186000D03*
D14*
%TO.P,D2,1*%
%TO.N,Net-(C1-Pad1)*%
X89865200Y-81026000D03*
%TD*%
%TO.P,J1,1*%
%TO.N,Net-(J1-Pad1)*%
%TA.AperFunction,ComponentPad*%
G36*
G01*
X85065200Y-43826000D02*
X81965200Y-43826000D01*
G75*
G02*
X81715200Y-43576000I0J250000D01*
G01*
X81715200Y-42276000D01*
G75*
G02*
X81965200Y-42026000I250000J0D01*
G01*
X85065200Y-42026000D01*
G75*
G02*
X85315200Y-42276000I0J-250000D01*
G01*
X85315200Y-43576000D01*
G75*
G02*
X85065200Y-43826000I-250000J0D01*
G01*
G37*
%TD.AperFunction*%
D15*
%TO.P,J1,2*%
%TO.N,GND*%
X83515200Y-37846000D03*
%TD*%
D11*
%TO.P,J2,1*%
%TO.N,+5V*%
X82245200Y-17475200D03*
D12*
%TO.P,J2,2*%
%TO.N,+3V3*%
X84785200Y-17475200D03*
%TO.P,J2,3*%
%TO.N,GND*%
X87325200Y-17475200D03*
%TD*%
D11*
%TO.P,J5,1*%
%TO.N,VBAT*%
X105105200Y-86106000D03*
D12*
%TO.P,J5,2*%
%TO.N,GND*%
X107645200Y-86106000D03*
%TD*%
D11*
%TO.P,J7,1*%
%TO.N,+3V3*%
X133045200Y-64516000D03*
D12*
%TO.P,J7,2*%
%TO.N,GND*%
X133045200Y-61976000D03*
%TO.P,J7,3*%
%TO.N,I2C_SCL*%
X133045200Y-59436000D03*
%TO.P,J7,4*%
%TO.N,I2C_SDA*%
X133045200Y-56896000D03*
%TD*%
D16*
%TO.P,Q2,1*%
%TO.N,Net-(J1-Pad1)*%
X80975200Y-49276000D03*
%TO.P,Q2,2*%
%TO.N,ENT_DIGITAL*%
X80975200Y-51816000D03*
%TO.P,Q2,3*%
%TO.N,GND*%
X80975200Y-54356000D03*
%TD*%
D17*
%TO.P,R2,2*%
%TO.N,GND*%
X80975200Y-69596000D03*
D18*
%TO.P,R2,1*%
%TO.N,Net-(J1-Pad1)*%
X80975200Y-59436000D03*
%TD*%
%TO.P,R3,1*%
%TO.N,+3V3*%
X84785200Y-69596000D03*
D17*
%TO.P,R3,2*%
%TO.N,ENT_DIGITAL*%
X84785200Y-59436000D03*
%TD*%
%TO.P,R4,2*%
%TO.N,ADC_BAT*%
X101295200Y-72136000D03*
D18*
%TO.P,R4,1*%
%TO.N,VBAT*%
X101295200Y-82296000D03*
%TD*%
%TO.P,R5,1*%
%TO.N,ADC_BAT*%
X98120200Y-72136000D03*
D17*
%TO.P,R5,2*%
%TO.N,GND*%
X98120200Y-82296000D03*
%TD*%
D19*
%TO.P,U1,1*%
%TO.N,GND*%
X91135200Y-20066000D03*
%TO.P,U1,2*%
%TO.N,+5V*%
X91135200Y-22606000D03*
%TO.P,U1,3*%
%TO.N,+3V3*%
X91135200Y-25146000D03*
%TO.P,U1,4*%
%TO.N,GND*%
X91135200Y-27686000D03*
%TO.P,U1,5*%
%TO.N,Net-(U1-Pad5)*%
X91135200Y-30226000D03*
%TO.P,U1,6*%
%TO.N,Net-(U1-Pad6)*%
X91135200Y-32766000D03*
%TO.P,U1,7*%
%TO.N,Net-(U1-Pad7)*%
X91135200Y-35306000D03*
%TO.P,U1,8*%
%TO.N,Net-(U1-Pad8)*%
X91135200Y-37846000D03*
%TO.P,U1,9*%
%TO.N,Net-(U1-Pad9)*%
X91135200Y-40386000D03*
%TO.P,U1,10*%
%TO.N,Net-(U1-Pad10)*%
X91135200Y-42926000D03*
%TO.P,U1,11*%
%TO.N,Net-(U1-Pad11)*%
X91135200Y-45466000D03*
%TO.P,U1,12*%
%TO.N,Net-(J12-Pad1)*%
X91135200Y-48006000D03*
%TO.P,U1,13*%
%TO.N,Net-(J13-Pad1)*%
X91135200Y-50546000D03*
%TO.P,U1,14*%
%TO.N,I2C_SCL*%
X91135200Y-53086000D03*
%TO.P,U1,15*%
%TO.N,Net-(J15-Pad1)*%
X91135200Y-55626000D03*
%TO.P,U1,16*%
%TO.N,I2C_SDA*%
X91135200Y-58166000D03*
%TO.P,U1,17*%
%TO.N,Net-(J17-Pad1)*%
X91135200Y-60706000D03*
%TO.P,U1,18*%
%TO.N,Net-(J18-Pad1)*%
X91135200Y-63246000D03*
%TO.P,U1,19*%
%TO.N,Net-(J19-Pad1)*%
X115074700Y-63246000D03*
%TO.P,U1,20*%
%TO.N,ADC_BAT*%
X115074700Y-60706000D03*
%TO.P,U1,21*%
%TO.N,Net-(J21-Pad1)*%
X115074700Y-58166000D03*
%TO.P,U1,22*%
%TO.N,Net-(J22-Pad1)*%
X115074700Y-55626000D03*
%TO.P,U1,23*%
%TO.N,Net-(J23-Pad1)*%
X115074700Y-53086000D03*
%TO.P,U1,24*%
%TO.N,Net-(J24-Pad1)*%
X115074700Y-50546000D03*
%TO.P,U1,25*%
%TO.N,Net-(J25-Pad1)*%
X115074700Y-48006000D03*
%TO.P,U1,26*%
%TO.N,Net-(U1-Pad26)*%
X115074700Y-45466000D03*
%TO.P,U1,27*%
%TO.N,Net-(U1-Pad27)*%
X115074700Y-42926000D03*
%TO.P,U1,28*%
%TO.N,Net-(U1-Pad28)*%
X115074700Y-40322500D03*
%TO.P,U1,29*%
%TO.N,ENT_DIGITAL*%
X115074700Y-37782500D03*
%TO.P,U1,30*%
%TO.N,Net-(U1-Pad30)*%
X115074700Y-35242500D03*
%TO.P,U1,31*%
%TO.N,Net-(U1-Pad31)*%
X115074700Y-32702500D03*
%TO.P,U1,32*%
%TO.N,Net-(U1-Pad32)*%
X115074700Y-30162500D03*
%TO.P,U1,33*%
%TO.N,Net-(U1-Pad33)*%
X115074700Y-27622500D03*
%TO.P,U1,34*%
%TO.N,+3V3*%
X115074700Y-25082500D03*
%TO.P,U1,35*%
%TO.N,+5V*%
X115074700Y-22606000D03*
%TO.P,U1,36*%
%TO.N,GND*%
X115074700Y-20066000D03*
%TD*%
D20*
%TO.P,J3,1*%
%TO.N,+3V3*%
X132410200Y-84201000D03*
%TO.P,J3,2*%
%TO.N,GND*%
X132410200Y-86741000D03*
%TD*%
D21*
%TO.P,C1,1*%
%TO.N,Net-(C1-Pad1)*%
X98120200Y-87376000D03*
D18*
%TO.P,C1,2*%
%TO.N,GND*%
X100120200Y-87376000D03*
%TD*%
D14*
%TO.P,D1,1*%
%TO.N,Net-(C1-Pad1)*%
X93675200Y-81026000D03*
D13*
%TO.P,D1,2*%
%TO.N,Net-(D1-Pad2)*%
X93675200Y-91186000D03*
%TD*%
D14*
%TO.P,D3,1*%
%TO.N,Net-(C1-Pad1)*%
X86055200Y-81026000D03*
D13*
%TO.P,D3,2*%
%TO.N,Net-(D3-Pad2)*%
X86055200Y-91186000D03*
%TD*%
D12*
%TO.P,J8,4*%
%TO.N,GND*%
X80975200Y-94996000D03*
%TO.P,J8,3*%
%TO.N,Net-(D3-Pad2)*%
X80975200Y-92456000D03*
%TO.P,J8,2*%
%TO.N,Net-(D2-Pad2)*%
X80975200Y-89916000D03*
D11*
%TO.P,J8,1*%
%TO.N,Net-(D1-Pad2)*%
X80975200Y-87376000D03*
%TD*%
D22*
%TO.P,U2,1*%
%TO.N,Net-(C1-Pad1)*%
X80975200Y-75996800D03*
D23*
%TO.P,U2,2*%
%TO.N,GND*%
X80975200Y-78536800D03*
%TO.P,U2,3*%
%TO.N,+5V*%
X80975200Y-81076800D03*
%TD*%
D24*
%TO.P,J4,1*%
%TO.N,VBAT*%
X105740200Y-91186000D03*
D25*
%TO.P,J4,2*%
%TO.N,GND*%
X107010200Y-91186000D03*
%TD*%
D18*
%TO.P,C2,1*%
%TO.N,+5V*%
X93675200Y-72136000D03*
%TO.P,C2,2*%
%TO.N,GND*%
X93675200Y-77136000D03*
%TD*%
%TO.P,C4,2*%
%TO.N,GND*%
X81055200Y-28956000D03*
%TO.P,C4,1*%
%TO.N,+3V3*%
X86055200Y-28956000D03*
%TD*%
%TO.P,C5,1*%
%TO.N,+3V3*%
X120980200Y-25066000D03*
%TO.P,C5,2*%
%TO.N,GND*%
X120980200Y-20066000D03*
%TD*%
%TO.P,C6,2*%
%TO.N,GND*%
X125425200Y-20146000D03*
%TO.P,C6,1*%
%TO.N,+5V*%
X125425200Y-25146000D03*
%TD*%
%TO.P,C7,1*%
%TO.N,+5V*%
X86055200Y-32766000D03*
%TO.P,C7,2*%
%TO.N,GND*%
X81055200Y-32766000D03*
%TD*%
D26*
%TO.P,J12,1*%
%TO.N,Net-(J12-Pad1)*%
X84785200Y-96266000D03*
%TD*%
%TO.P,J13,1*%
%TO.N,Net-(J13-Pad1)*%
X88595200Y-96266000D03*
%TD*%
%TO.P,J14,1*%
%TO.N,I2C_SCL*%
X92405200Y-96266000D03*
%TD*%
%TO.P,J15,1*%
%TO.N,Net-(J15-Pad1)*%
X96215200Y-96266000D03*
%TD*%
%TO.P,J16,1*%
%TO.N,I2C_SDA*%
X100025200Y-96266000D03*
%TD*%
%TO.P,J17,1*%
%TO.N,Net-(J17-Pad1)*%
X103835200Y-96266000D03*
%TD*%
%TO.P,J18,1*%
%TO.N,Net-(J18-Pad1)*%
X107645200Y-96266000D03*
%TD*%
%TO.P,J19,1*%
%TO.N,Net-(J19-Pad1)*%
X111455200Y-96266000D03*
%TD*%
%TO.P,J20,1*%
%TO.N,ADC_BAT*%
X115265200Y-96266000D03*
%TD*%
%TO.P,J21,1*%
%TO.N,Net-(J21-Pad1)*%
X119075200Y-96266000D03*
%TD*%
%TO.P,J22,1*%
%TO.N,Net-(J22-Pad1)*%
X122885200Y-96266000D03*
%TD*%
%TO.P,J23,1*%
%TO.N,Net-(J23-Pad1)*%
X126695200Y-96266000D03*
%TD*%
%TO.P,J24,1*%
%TO.N,Net-(J24-Pad1)*%
X130505200Y-96266000D03*
%TD*%
%TO.P,J25,1*%
%TO.N,Net-(J25-Pad1)*%
X134315200Y-96266000D03*
%TD*%
D27*
%TO.N,*%
X80975200Y-133096000D03*
X134315200Y-133096000D03*
D28*
X96215200Y-100076000D03*
X91135200Y-100076000D03*
X108915200Y-100076000D03*
X129235200Y-100076000D03*
X116535200Y-100076000D03*
X124155200Y-100076000D03*
X88595200Y-100076000D03*
X126695200Y-100076000D03*
X86055200Y-100076000D03*
X106375200Y-100076000D03*
X131775200Y-100076000D03*
X93675200Y-100076000D03*
D27*
X134315200Y-100076000D03*
D28*
X98755200Y-100076000D03*
X113995200Y-100076000D03*
X101295200Y-100076000D03*
X121615200Y-100076000D03*
X103835200Y-100076000D03*
X119075200Y-100076000D03*
X111455200Y-100076000D03*
D27*
X80975200Y-100076000D03*
D28*
X83515200Y-100076000D03*
X91135200Y-105156000D03*
X116535200Y-105156000D03*
X126695200Y-105156000D03*
X106375200Y-105156000D03*
X96215200Y-102616000D03*
X91135200Y-102616000D03*
X108915200Y-102616000D03*
X129235200Y-102616000D03*
X116535200Y-102616000D03*
X124155200Y-102616000D03*
X88595200Y-102616000D03*
X126695200Y-102616000D03*
X96215200Y-105156000D03*
X86055200Y-102616000D03*
X106375200Y-102616000D03*
X131775200Y-102616000D03*
X93675200Y-102616000D03*
D27*
X134315200Y-102616000D03*
D28*
X98755200Y-102616000D03*
X129235200Y-105156000D03*
X88595200Y-105156000D03*
X113995200Y-102616000D03*
X131775200Y-105156000D03*
D27*
X134315200Y-105156000D03*
D28*
X98755200Y-105156000D03*
X113995200Y-105156000D03*
X101295200Y-105156000D03*
X111455200Y-105156000D03*
X86055200Y-105156000D03*
D27*
X80975200Y-105156000D03*
D28*
X83515200Y-105156000D03*
X124155200Y-105156000D03*
X101295200Y-102616000D03*
X108915200Y-105156000D03*
X119075200Y-105156000D03*
X96215200Y-107696000D03*
X121615200Y-105156000D03*
X91135200Y-107696000D03*
X108915200Y-107696000D03*
X121615200Y-102616000D03*
X93675200Y-105156000D03*
X103835200Y-105156000D03*
X103835200Y-102616000D03*
X119075200Y-102616000D03*
X129235200Y-107696000D03*
X111455200Y-102616000D03*
X93675200Y-107696000D03*
X119075200Y-107696000D03*
D27*
X80975200Y-107696000D03*
D28*
X116535200Y-107696000D03*
X113995200Y-107696000D03*
X126695200Y-107696000D03*
X98755200Y-107696000D03*
X101295200Y-107696000D03*
X103835200Y-107696000D03*
X121615200Y-107696000D03*
X83515200Y-107696000D03*
D27*
X134315200Y-107696000D03*
D28*
X124155200Y-107696000D03*
X106375200Y-107696000D03*
X88595200Y-107696000D03*
X111455200Y-107696000D03*
X131775200Y-107696000D03*
X86055200Y-107696000D03*
D27*
X80975200Y-102616000D03*
D28*
X83515200Y-102616000D03*
X91135200Y-112776000D03*
X116535200Y-112776000D03*
X126695200Y-112776000D03*
X106375200Y-112776000D03*
X96215200Y-110236000D03*
X91135200Y-110236000D03*
X108915200Y-110236000D03*
X129235200Y-110236000D03*
X116535200Y-110236000D03*
X124155200Y-110236000D03*
X88595200Y-110236000D03*
X126695200Y-110236000D03*
X96215200Y-112776000D03*
X86055200Y-110236000D03*
X106375200Y-110236000D03*
X131775200Y-110236000D03*
X93675200Y-110236000D03*
D27*
X134315200Y-110236000D03*
D28*
X98755200Y-110236000D03*
X129235200Y-112776000D03*
X88595200Y-112776000D03*
X113995200Y-110236000D03*
X131775200Y-112776000D03*
D27*
X134315200Y-112776000D03*
D28*
X98755200Y-112776000D03*
X113995200Y-112776000D03*
X101295200Y-112776000D03*
X111455200Y-112776000D03*
X86055200Y-112776000D03*
D27*
X80975200Y-112776000D03*
D28*
X83515200Y-112776000D03*
X124155200Y-112776000D03*
X101295200Y-110236000D03*
X108915200Y-112776000D03*
X119075200Y-112776000D03*
X96215200Y-115316000D03*
X121615200Y-112776000D03*
X91135200Y-115316000D03*
X108915200Y-115316000D03*
X121615200Y-110236000D03*
X93675200Y-112776000D03*
X103835200Y-112776000D03*
X103835200Y-110236000D03*
X119075200Y-110236000D03*
X129235200Y-115316000D03*
X111455200Y-110236000D03*
X93675200Y-115316000D03*
X119075200Y-115316000D03*
D27*
X80975200Y-115316000D03*
D28*
X116535200Y-115316000D03*
X113995200Y-115316000D03*
X126695200Y-115316000D03*
X98755200Y-115316000D03*
X101295200Y-115316000D03*
X103835200Y-115316000D03*
X121615200Y-115316000D03*
X83515200Y-115316000D03*
D27*
X134315200Y-115316000D03*
D28*
X124155200Y-115316000D03*
X106375200Y-115316000D03*
X88595200Y-115316000D03*
X111455200Y-115316000D03*
X131775200Y-115316000D03*
X86055200Y-115316000D03*
D27*
X80975200Y-110236000D03*
D28*
X83515200Y-110236000D03*
X91135200Y-120396000D03*
X116535200Y-120396000D03*
X126695200Y-120396000D03*
X106375200Y-120396000D03*
X96215200Y-117856000D03*
X91135200Y-117856000D03*
X108915200Y-117856000D03*
X129235200Y-117856000D03*
X116535200Y-117856000D03*
X124155200Y-117856000D03*
X88595200Y-117856000D03*
X126695200Y-117856000D03*
X96215200Y-120396000D03*
X86055200Y-117856000D03*
X106375200Y-117856000D03*
X131775200Y-117856000D03*
X93675200Y-117856000D03*
D27*
X134315200Y-117856000D03*
D28*
X98755200Y-117856000D03*
X129235200Y-120396000D03*
X88595200Y-120396000D03*
X113995200Y-117856000D03*
X131775200Y-120396000D03*
D27*
X134315200Y-120396000D03*
D28*
X98755200Y-120396000D03*
X113995200Y-120396000D03*
X101295200Y-120396000D03*
X111455200Y-120396000D03*
X86055200Y-120396000D03*
D27*
X80975200Y-120396000D03*
D28*
X83515200Y-120396000D03*
X124155200Y-120396000D03*
X101295200Y-117856000D03*
X108915200Y-120396000D03*
X119075200Y-120396000D03*
X96215200Y-122936000D03*
X121615200Y-120396000D03*
X91135200Y-122936000D03*
X108915200Y-122936000D03*
X121615200Y-117856000D03*
X93675200Y-120396000D03*
X103835200Y-120396000D03*
X103835200Y-117856000D03*
X119075200Y-117856000D03*
X129235200Y-122936000D03*
X111455200Y-117856000D03*
X93675200Y-122936000D03*
X119075200Y-122936000D03*
D27*
X80975200Y-122936000D03*
D28*
X116535200Y-122936000D03*
X113995200Y-122936000D03*
X126695200Y-122936000D03*
X98755200Y-122936000D03*
X101295200Y-122936000D03*
X103835200Y-122936000D03*
X121615200Y-122936000D03*
X83515200Y-122936000D03*
D27*
X134315200Y-122936000D03*
D28*
X124155200Y-122936000D03*
X106375200Y-122936000D03*
X88595200Y-122936000D03*
X111455200Y-122936000D03*
X131775200Y-122936000D03*
X86055200Y-122936000D03*
D27*
X80975200Y-117856000D03*
D28*
X83515200Y-117856000D03*
X91135200Y-128016000D03*
X116535200Y-128016000D03*
X126695200Y-128016000D03*
X106375200Y-128016000D03*
X96215200Y-125476000D03*
X91135200Y-125476000D03*
X108915200Y-125476000D03*
X129235200Y-125476000D03*
X116535200Y-125476000D03*
X124155200Y-125476000D03*
X88595200Y-125476000D03*
X126695200Y-125476000D03*
X96215200Y-128016000D03*
X86055200Y-125476000D03*
X106375200Y-125476000D03*
X131775200Y-125476000D03*
X93675200Y-125476000D03*
D27*
X134315200Y-125476000D03*
D28*
X98755200Y-125476000D03*
X129235200Y-128016000D03*
X88595200Y-128016000D03*
X113995200Y-125476000D03*
X131775200Y-128016000D03*
D27*
X134315200Y-128016000D03*
D28*
X98755200Y-128016000D03*
X113995200Y-128016000D03*
X101295200Y-128016000D03*
X111455200Y-128016000D03*
X86055200Y-128016000D03*
D27*
X80975200Y-128016000D03*
D28*
X83515200Y-128016000D03*
X124155200Y-128016000D03*
X101295200Y-125476000D03*
X108915200Y-128016000D03*
X119075200Y-128016000D03*
X96215200Y-130556000D03*
X121615200Y-128016000D03*
X91135200Y-130556000D03*
X108915200Y-130556000D03*
X121615200Y-125476000D03*
X93675200Y-128016000D03*
X103835200Y-128016000D03*
X103835200Y-125476000D03*
X119075200Y-125476000D03*
X129235200Y-130556000D03*
X111455200Y-125476000D03*
X93675200Y-130556000D03*
X119075200Y-130556000D03*
D27*
X80975200Y-130556000D03*
D28*
X116535200Y-130556000D03*
X113995200Y-130556000D03*
X126695200Y-130556000D03*
X98755200Y-130556000D03*
X101295200Y-130556000D03*
X103835200Y-130556000D03*
X121615200Y-130556000D03*
X83515200Y-130556000D03*
D27*
X134315200Y-130556000D03*
D28*
X124155200Y-130556000D03*
X106375200Y-130556000D03*
X88595200Y-130556000D03*
X111455200Y-130556000D03*
X131775200Y-130556000D03*
X86055200Y-130556000D03*
D27*
X80975200Y-125476000D03*
D28*
X83515200Y-125476000D03*
D27*
X83515200Y-133096000D03*
X86055200Y-133096000D03*
X88595200Y-133096000D03*
X91135200Y-133096000D03*
X93675200Y-133096000D03*
X98755200Y-133096000D03*
X96215200Y-133096000D03*
X101295200Y-133096000D03*
X103835200Y-133096000D03*
X108915200Y-133096000D03*
X106375200Y-133096000D03*
X111455200Y-133096000D03*
X113995200Y-133096000D03*
X119075200Y-133096000D03*
X116535200Y-133096000D03*
X121615200Y-133096000D03*
X124155200Y-133096000D03*
X129235200Y-133096000D03*
X126695200Y-133096000D03*
X131775200Y-133096000D03*
D29*
%TO.N,ENT_DIGITAL*%
X88595200Y-40386000D03*
%TD*%
D30*
%TO.N,Net-(J1-Pad1)*%
X80975200Y-45466000D02*
X80975200Y-49276000D01*
X83515200Y-42926000D02*
X80975200Y-45466000D01*
D31*
%TO.N,GND*%
X91135200Y-20066000D02*
X115074700Y-20066000D01*
D30*
%TO.N,+5V*%
X82042000Y-17475200D02*
X82753200Y-17475200D01*
X82245200Y-18161000D02*
X82245200Y-17475200D01*
D31*
%TO.N,+3V3*%
X133045200Y-48641000D02*
X134950200Y-50546000D01*
X134950200Y-62611000D02*
X133045200Y-64516000D01*
X134950200Y-50546000D02*
X134950200Y-62611000D01*
X89865200Y-25146000D02*
X86055200Y-28956000D01*
X91135200Y-25146000D02*
X89865200Y-25146000D01*
D30*
%TO.N,I2C_SCL*%
X90730189Y-94590989D02*
X92405200Y-96266000D01*
X85650188Y-94590988D02*
X90730189Y-94590989D01*
X83515200Y-92456000D02*
X85650188Y-94590988D01*
X83515200Y-59040998D02*
X83515200Y-92456000D01*
X89470198Y-53086000D02*
X83515200Y-59040998D01*
X91135200Y-53086000D02*
X89470198Y-53086000D01*
%TO.N,I2C_SDA*%
X100025200Y-96266000D02*
X100025200Y-95250000D01*
X100025200Y-95250000D02*
X92151200Y-87376000D01*
X92151200Y-87376000D02*
X92151200Y-73152000D01*
X92151200Y-73152000D02*
X87579200Y-68580000D01*
X87579200Y-61722000D02*
X91135200Y-58166000D01*
X87579200Y-68580000D02*
X87579200Y-61722000D01*
%TO.N,ENT_DIGITAL*%
X88595200Y-40386000D02*
X79705200Y-40386000D01*
X79705200Y-40386000D02*
X78435200Y-41656000D01*
X78435200Y-41656000D02*
X78435200Y-50546000D01*
X79705200Y-51816000D02*
X80975200Y-51816000D01*
X78435200Y-50546000D02*
X79705200Y-51816000D01*
%TO.N,Net-(C1-Pad1)*%
X81683100Y-75793600D02*
X81635600Y-75793600D01*
X86055200Y-81026000D02*
X86004400Y-81026000D01*
%TO.N,Net-(J12-Pad1)*%
X82880200Y-95633792D02*
X83512408Y-96266000D01*
X82880200Y-95631000D02*
X82880200Y-95633792D01*
X82300210Y-95051010D02*
X82880200Y-95631000D01*
X82300201Y-78007630D02*
X82300210Y-78007639D01*
X82300201Y-55570999D02*
X82300201Y-78007630D01*
X82300210Y-78007639D02*
X82300210Y-95051010D01*
X82824210Y-48696990D02*
X82824210Y-55046990D01*
X83512408Y-96266000D02*
X84785200Y-96266000D01*
X83515200Y-48006000D02*
X82824210Y-48696990D01*
X82824210Y-55046990D02*
X82300201Y-55570999D01*
X91135200Y-48006000D02*
X83515200Y-48006000D01*
%TO.N,Net-(J13-Pad1)*%
X87370199Y-95040999D02*
X88595200Y-96266000D01*
X84195199Y-95040999D02*
X87370199Y-95040999D01*
X83007200Y-93853000D02*
X84195199Y-95040999D01*
X83007200Y-58674000D02*
X83007200Y-93853000D01*
X91135200Y-50546000D02*
X83007200Y-58674000D01*
%TO.N,Net-(J15-Pad1)*%
X91389200Y-73660000D02*
X86690200Y-68961000D01*
X91389200Y-91440000D02*
X91389200Y-73660000D01*
X86690200Y-60071000D02*
X91135200Y-55626000D01*
X86690200Y-68961000D02*
X86690200Y-60071000D01*
X96215200Y-96266000D02*
X91389200Y-91440000D01*
%TO.N,Net-(J17-Pad1)*%
X91135200Y-60706000D02*
X88849200Y-62992000D01*
X88849200Y-62992000D02*
X88849200Y-65024000D01*
X88849200Y-65024000D02*
X95199200Y-71374000D01*
X95199200Y-87630000D02*
X103835200Y-96266000D01*
X95199200Y-71374000D02*
X95199200Y-87630000D01*
%TO.N,Net-(J18-Pad1)*%
X95649210Y-87064010D02*
X103327200Y-94742000D01*
X95649210Y-67760010D02*
X95649210Y-87064010D01*
X91135200Y-63246000D02*
X95649210Y-67760010D01*
X106121200Y-94742000D02*
X107645200Y-96266000D01*
X103327200Y-94742000D02*
X106121200Y-94742000D01*
%TO.N,Net-(J19-Pad1)*%
X111455200Y-66865500D02*
X115074700Y-63246000D01*
X111455200Y-96266000D02*
X111455200Y-66865500D01*
%TO.N,Net-(J21-Pad1)*%
X119075200Y-62166500D02*
X115074700Y-58166000D01*
X119075200Y-96266000D02*
X119075200Y-62166500D01*
%TO.N,Net-(J22-Pad1)*%
X122885200Y-63436500D02*
X115074700Y-55626000D01*
X122885200Y-96266000D02*
X122885200Y-63436500D01*
%TO.N,Net-(J23-Pad1)*%
X126695200Y-64706500D02*
X115074700Y-53086000D01*
X126695200Y-96266000D02*
X126695200Y-64706500D01*
%TO.N,Net-(J24-Pad1)*%
X127965200Y-63436500D02*
X115074700Y-50546000D01*
X127965200Y-93726000D02*
X127965200Y-63436500D01*
X130505200Y-96266000D02*
X127965200Y-93726000D01*
%TO.N,Net-(J25-Pad1)*%
X134315200Y-96266000D02*
X129235200Y-91186000D01*
X129235200Y-62166500D02*
X115074700Y-48006000D01*
X129235200Y-91186000D02*
X129235200Y-62166500D01*
%TD*%
D32*
%TO.N,GND*%
X78829002Y-52014604D02*
X78836414Y-52089860D01*
X78916296Y-52353195D01*
X79046017Y-52595887D01*
X79220592Y-52808608D01*
X79433313Y-52983183D01*
X79627613Y-53087038D01*
X79561258Y-53113941D01*
X79331471Y-53264994D01*
X79135568Y-53457974D01*
X78981078Y-53685465D01*
X78873938Y-53938724D01*
X78858980Y-54012930D01*
X78981480Y-54229000D01*
X80848200Y-54229000D01*
X80848200Y-54209000D01*
X81102200Y-54209000D01*
X81102200Y-54229000D01*
X81122200Y-54229000D01*
X81122200Y-54483000D01*
X81102200Y-54483000D01*
X81102200Y-55753000D01*
X81540201Y-55753000D01*
X81540201Y-58116799D01*
X81393774Y-58056147D01*
X81116535Y-58001000D01*
X80833865Y-58001000D01*
X80556626Y-58056147D01*
X80295473Y-58164320D01*
X80060441Y-58321363D01*
X79860563Y-58521241D01*
X79703520Y-58756273D01*
X79595347Y-59017426D01*
X79540200Y-59294665D01*
X79540200Y-59577335D01*
X79595347Y-59854574D01*
X79703520Y-60115727D01*
X79860563Y-60350759D01*
X80060441Y-60550637D01*
X80295473Y-60707680D01*
X80556626Y-60815853D01*
X80833865Y-60871000D01*
X81116535Y-60871000D01*
X81393774Y-60815853D01*
X81540201Y-60755201D01*
X81540202Y-68283470D01*
X81458287Y-68244754D01*
X81324239Y-68204096D01*
X81102200Y-68326085D01*
X81102200Y-69469000D01*
X81122200Y-69469000D01*
X81122200Y-69723000D01*
X81102200Y-69723000D01*
X81102200Y-70865915D01*
X81324239Y-70987904D01*
X81458287Y-70947246D01*
X81540202Y-70908530D01*
X81540202Y-74406228D01*
X79975200Y-74406228D01*
X79850718Y-74418488D01*
X79731020Y-74454798D01*
X79620706Y-74513763D01*
X79524015Y-74593115D01*
X79444663Y-74689806D01*
X79385698Y-74800120D01*
X79349388Y-74919818D01*
X79337128Y-75044300D01*
X79337128Y-76949300D01*
X79349388Y-77073782D01*
X79385698Y-77193480D01*
X79444663Y-77303794D01*
X79524015Y-77400485D01*
X79620706Y-77479837D01*
X79712419Y-77528859D01*
X79599231Y-77669877D01*
X79455629Y-77945706D01*
X79384637Y-78163820D01*
X79504606Y-78409800D01*
X80848200Y-78409800D01*
X80848200Y-78389800D01*
X81102200Y-78389800D01*
X81102200Y-78409800D01*
X81122200Y-78409800D01*
X81122200Y-78663800D01*
X81102200Y-78663800D01*
X81102200Y-78683800D01*
X80848200Y-78683800D01*
X80848200Y-78663800D01*
X79504606Y-78663800D01*
X79384637Y-78909780D01*
X79455629Y-79127894D01*
X79599231Y-79403723D01*
X79793885Y-79646237D01*
X79979099Y-79801637D01*
X79799737Y-79948837D01*
X79601355Y-80190565D01*
X79453945Y-80466351D01*
X79363170Y-80765596D01*
X79332519Y-81076800D01*
X79363170Y-81388004D01*
X79453945Y-81687249D01*
X79601355Y-81963035D01*
X79799737Y-82204763D01*
X80041465Y-82403145D01*
X80317251Y-82550555D01*
X80616496Y-82641330D01*
X80849714Y-82664300D01*
X81100686Y-82664300D01*
X81333904Y-82641330D01*
X81540210Y-82578748D01*
X81540210Y-85887928D01*
X80125200Y-85887928D01*
X80000718Y-85900188D01*
X79881020Y-85936498D01*
X79770706Y-85995463D01*
X79674015Y-86074815D01*
X79594663Y-86171506D01*
X79535698Y-86281820D01*
X79499388Y-86401518D01*
X79487128Y-86526000D01*
X79487128Y-88226000D01*
X79499388Y-88350482D01*
X79535698Y-88470180D01*
X79594663Y-88580494D01*
X79674015Y-88677185D01*
X79770706Y-88756537D01*
X79881020Y-88815502D01*
X79953580Y-88837513D01*
X79821725Y-88969368D01*
X79659210Y-89212589D01*
X79547268Y-89482842D01*
X79490200Y-89769740D01*
X79490200Y-90062260D01*
X79547268Y-90349158D01*
X79659210Y-90619411D01*
X79821725Y-90862632D01*
X80028568Y-91069475D01*
X80202960Y-91186000D01*
X80028568Y-91302525D01*
X79821725Y-91509368D01*
X79659210Y-91752589D01*
X79547268Y-92022842D01*
X79490200Y-92309740D01*
X79490200Y-92602260D01*
X79547268Y-92889158D01*
X79659210Y-93159411D01*
X79821725Y-93402632D01*
X80028568Y-93609475D01*
X80210734Y-93731195D01*
X80093845Y-93800822D01*
X79877612Y-93995731D01*
X79703559Y-94229080D01*
X79578375Y-94491901D01*
X79533724Y-94639110D01*
X79655045Y-94869000D01*
X80848200Y-94869000D01*
X80848200Y-94849000D01*
X81102200Y-94849000D01*
X81102200Y-94869000D01*
X81122200Y-94869000D01*
X81122200Y-95123000D01*
X81102200Y-95123000D01*
X81102200Y-96316814D01*
X81332091Y-96437481D01*
X81606452Y-96340157D01*
X81856555Y-96191178D01*
X82072788Y-95996269D01*
X82114605Y-95940206D01*
X82303623Y-96129224D01*
X82340199Y-96173793D01*
X82369201Y-96197594D01*
X82948608Y-96777002D01*
X82972407Y-96806001D01*
X83001405Y-96829799D01*
X83088131Y-96900974D01*
X83220159Y-96971545D01*
X83220161Y-96971546D01*
X83363422Y-97015003D01*
X83444902Y-97023028D01*
X83592888Y-97244505D01*
X83806695Y-97458312D01*
X84058105Y-97626299D01*
X84337457Y-97742011D01*
X84634016Y-97801000D01*
X84936384Y-97801000D01*
X85232943Y-97742011D01*
X85512295Y-97626299D01*
X85763705Y-97458312D01*
X85977512Y-97244505D01*
X86145499Y-96993095D01*
X86261211Y-96713743D01*
X86320200Y-96417184D01*
X86320200Y-96114816D01*
X86261211Y-95818257D01*
X86254062Y-95800999D01*
X87055398Y-95800999D01*
X87111469Y-95857070D01*
X87060200Y-96114816D01*
X87060200Y-96417184D01*
X87119189Y-96713743D01*
X87234901Y-96993095D01*
X87402888Y-97244505D01*
X87616695Y-97458312D01*
X87868105Y-97626299D01*
X88147457Y-97742011D01*
X88444016Y-97801000D01*
X88746384Y-97801000D01*
X89042943Y-97742011D01*
X89322295Y-97626299D01*
X89573705Y-97458312D01*
X89787512Y-97244505D01*
X89955499Y-96993095D01*
X90071211Y-96713743D01*
X90130200Y-96417184D01*
X90130200Y-96114816D01*
X90071211Y-95818257D01*
X89955499Y-95538905D01*
X89829937Y-95350989D01*
X90415388Y-95350989D01*
X90921469Y-95857070D01*
X90870200Y-96114816D01*
X90870200Y-96417184D01*
X90929189Y-96713743D01*
X91044901Y-96993095D01*
X91212888Y-97244505D01*
X91426695Y-97458312D01*
X91678105Y-97626299D01*
X91957457Y-97742011D01*
X92254016Y-97801000D01*
X92556384Y-97801000D01*
X92852943Y-97742011D01*
X93132295Y-97626299D01*
X93383705Y-97458312D01*
X93597512Y-97244505D01*
X93765499Y-96993095D01*
X93881211Y-96713743D01*
X93940200Y-96417184D01*
X93940200Y-96114816D01*
X93881211Y-95818257D01*
X93765499Y-95538905D01*
X93597512Y-95287495D01*
X93383705Y-95073688D01*
X93132295Y-94905701D01*
X92852943Y-94789989D01*
X92556384Y-94731000D01*
X92254016Y-94731000D01*
X91996270Y-94782269D01*
X91293986Y-94079985D01*
X91270190Y-94050989D01*
X91210480Y-94001986D01*
X91154465Y-93956015D01*
X91022435Y-93885443D01*
X90922631Y-93855169D01*
X90879175Y-93841987D01*
X90767522Y-93830990D01*
X90730189Y-93827313D01*
X90692857Y-93830990D01*
X85964990Y-93830988D01*
X84275200Y-92141199D01*
X84275200Y-91015117D01*
X84320200Y-91015117D01*
X84320200Y-91356883D01*
X84386875Y-91692081D01*
X84517663Y-92007831D01*
X84707537Y-92291998D01*
X84949202Y-92533663D01*
X85233369Y-92723537D01*
X85549119Y-92854325D01*
X85884317Y-92921000D01*
X86226083Y-92921000D01*
X86561281Y-92854325D01*
X86877031Y-92723537D01*
X87161198Y-92533663D01*
X87402863Y-92291998D01*
X87592737Y-92007831D01*
X87723525Y-91692081D01*
X87790200Y-91356883D01*
X87790200Y-91015117D01*
X87723525Y-90679919D01*
X87592737Y-90364169D01*
X87402863Y-90080002D01*
X87161198Y-89838337D01*
X86877031Y-89648463D01*
X86561281Y-89517675D01*
X86226083Y-89451000D01*
X85884317Y-89451000D01*
X85549119Y-89517675D01*
X85233369Y-89648463D01*
X84949202Y-89838337D01*
X84707537Y-90080002D01*
X84517663Y-90364169D01*
X84386875Y-90679919D01*
X84320200Y-91015117D01*
X84275200Y-91015117D01*
X84275200Y-79926000D01*
X84317128Y-79926000D01*
X84317128Y-82126000D01*
X84329388Y-82250482D01*
X84365698Y-82370180D01*
X84424663Y-82480494D01*
X84504015Y-82577185D01*
X84600706Y-82656537D01*
X84711020Y-82715502D01*
X84830718Y-82751812D01*
X84955200Y-82764072D01*
X87155200Y-82764072D01*
X87279682Y-82751812D01*
X87399380Y-82715502D01*
X87509694Y-82656537D01*
X87606385Y-82577185D01*
X87685737Y-82480494D01*
X87744702Y-82370180D01*
X87781012Y-82250482D01*
X87793272Y-82126000D01*
X87793272Y-79926000D01*
X87781012Y-79801518D01*
X87744702Y-79681820D01*
X87685737Y-79571506D01*
X87606385Y-79474815D01*
X87509694Y-79395463D01*
X87399380Y-79336498D01*
X87279682Y-79300188D01*
X87155200Y-79287928D01*
X84955200Y-79287928D01*
X84830718Y-79300188D01*
X84711020Y-79336498D01*
X84600706Y-79395463D01*
X84504015Y-79474815D01*
X84424663Y-79571506D01*
X84365698Y-79681820D01*
X84329388Y-79801518D01*
X84317128Y-79926000D01*
X84275200Y-79926000D01*
X84275200Y-70937983D01*
X84366626Y-70975853D01*
X84643865Y-71031000D01*
X84926535Y-71031000D01*
X85203774Y-70975853D01*
X85464927Y-70867680D01*
X85699959Y-70710637D01*
X85899837Y-70510759D01*
X86056880Y-70275727D01*
X86165053Y-70014574D01*
X86220200Y-69737335D01*
X86220200Y-69565801D01*
X90629201Y-73974803D01*
X90629201Y-74488357D01*
X90426230Y-73998342D01*
X90073075Y-73469807D01*
X89623593Y-73020325D01*
X89095058Y-72667170D01*
X88507781Y-72423912D01*
X87884332Y-72299900D01*
X87248668Y-72299900D01*
X86625219Y-72423912D01*
X86037942Y-72667170D01*
X85509407Y-73020325D01*
X85059925Y-73469807D01*
X84706770Y-73998342D01*
X84463512Y-74585619D01*
X84339500Y-75209068D01*
X84339500Y-75844732D01*
X84463512Y-76468181D01*
X84706770Y-77055458D01*
X85059925Y-77583993D01*
X85509407Y-78033475D01*
X86037942Y-78386630D01*
X86625219Y-78629888D01*
X87248668Y-78753900D01*
X87884332Y-78753900D01*
X88507781Y-78629888D01*
X89095058Y-78386630D01*
X89623593Y-78033475D01*
X90073075Y-77583993D01*
X90426230Y-77055458D01*
X90629201Y-76565443D01*
X90629201Y-79287928D01*
X88765200Y-79287928D01*
X88640718Y-79300188D01*
X88521020Y-79336498D01*
X88410706Y-79395463D01*
X88314015Y-79474815D01*
X88234663Y-79571506D01*
X88175698Y-79681820D01*
X88139388Y-79801518D01*
X88127128Y-79926000D01*
X88127128Y-82126000D01*
X88139388Y-82250482D01*
X88175698Y-82370180D01*
X88234663Y-82480494D01*
X88314015Y-82577185D01*
X88410706Y-82656537D01*
X88521020Y-82715502D01*
X88640718Y-82751812D01*
X88765200Y-82764072D01*
X90629200Y-82764072D01*
X90629200Y-89624509D01*
X90371281Y-89517675D01*
X90036083Y-89451000D01*
X89694317Y-89451000D01*
X89359119Y-89517675D01*
X89043369Y-89648463D01*
X88759202Y-89838337D01*
X88517537Y-90080002D01*
X88327663Y-90364169D01*
X88196875Y-90679919D01*
X88130200Y-91015117D01*
X88130200Y-91356883D01*
X88196875Y-91692081D01*
X88327663Y-92007831D01*
X88517537Y-92291998D01*
X88759202Y-92533663D01*
X89043369Y-92723537D01*
X89359119Y-92854325D01*
X89694317Y-92921000D01*
X90036083Y-92921000D01*
X90371281Y-92854325D01*
X90687031Y-92723537D01*
X90971198Y-92533663D01*
X91189630Y-92315231D01*
X94731469Y-95857070D01*
X94680200Y-96114816D01*
X94680200Y-96417184D01*
X94739189Y-96713743D01*
X94854901Y-96993095D01*
X95022888Y-97244505D01*
X95236695Y-97458312D01*
X95488105Y-97626299D01*
X95767457Y-97742011D01*
X96064016Y-97801000D01*
X96366384Y-97801000D01*
X96662943Y-97742011D01*
X96942295Y-97626299D01*
X97193705Y-97458312D01*
X97407512Y-97244505D01*
X97575499Y-96993095D01*
X97691211Y-96713743D01*
X97750200Y-96417184D01*
X97750200Y-96114816D01*
X97691211Y-95818257D01*
X97575499Y-95538905D01*
X97407512Y-95287495D01*
X97193705Y-95073688D01*
X96942295Y-94905701D01*
X96662943Y-94789989D01*
X96366384Y-94731000D01*
X96064016Y-94731000D01*
X95806270Y-94782269D01*
X93928590Y-92904588D01*
X94181281Y-92854325D01*
X94497031Y-92723537D01*
X94781198Y-92533663D01*
X95022863Y-92291998D01*
X95212737Y-92007831D01*
X95343525Y-91692081D01*
X95351647Y-91651249D01*
X98910391Y-95209992D01*
X98832888Y-95287495D01*
X98664901Y-95538905D01*
X98549189Y-95818257D01*
X98490200Y-96114816D01*
X98490200Y-96417184D01*
X98549189Y-96713743D01*
X98664901Y-96993095D01*
X98832888Y-97244505D01*
X99046695Y-97458312D01*
X99298105Y-97626299D01*
X99577457Y-97742011D01*
X99874016Y-97801000D01*
X100176384Y-97801000D01*
X100472943Y-97742011D01*
X100752295Y-97626299D01*
X101003705Y-97458312D01*
X101217512Y-97244505D01*
X101385499Y-96993095D01*
X101501211Y-96713743D01*
X101560200Y-96417184D01*
X101560200Y-96114816D01*
X101501211Y-95818257D01*
X101385499Y-95538905D01*
X101217512Y-95287495D01*
X101003705Y-95073688D01*
X100752295Y-94905701D01*
X100688884Y-94879435D01*
X100660174Y-94825724D01*
X100597005Y-94748752D01*
X100565201Y-94709999D01*
X100536203Y-94686201D01*
X92911200Y-87061199D01*
X92911200Y-82764072D01*
X94439201Y-82764072D01*
X94439201Y-87592667D01*
X94435524Y-87630000D01*
X94450198Y-87778985D01*
X94493654Y-87922246D01*
X94564226Y-88054276D01*
X94616125Y-88117514D01*
X94659200Y-88170001D01*
X94688198Y-88193799D01*
X102351469Y-95857070D01*
X102300200Y-96114816D01*
X102300200Y-96417184D01*
X102359189Y-96713743D01*
X102474901Y-96993095D01*
X102642888Y-97244505D01*
X102856695Y-97458312D01*
X103108105Y-97626299D01*
X103387457Y-97742011D01*
X103684016Y-97801000D01*
X103986384Y-97801000D01*
X104282943Y-97742011D01*
X104562295Y-97626299D01*
X104813705Y-97458312D01*
X105027512Y-97244505D01*
X105195499Y-96993095D01*
X105311211Y-96713743D01*
X105370200Y-96417184D01*
X105370200Y-96114816D01*
X105311211Y-95818257D01*
X105195499Y-95538905D01*
X105170840Y-95502000D01*
X105806399Y-95502000D01*
X106161469Y-95857070D01*
X106110200Y-96114816D01*
X106110200Y-96417184D01*
X106169189Y-96713743D01*
X106284901Y-96993095D01*
X106452888Y-97244505D01*
X106666695Y-97458312D01*
X106918105Y-97626299D01*
X107197457Y-97742011D01*
X107494016Y-97801000D01*
X107796384Y-97801000D01*
X108092943Y-97742011D01*
X108372295Y-97626299D01*
X108623705Y-97458312D01*
X108837512Y-97244505D01*
X109005499Y-96993095D01*
X109121211Y-96713743D01*
X109180200Y-96417184D01*
X109180200Y-96114816D01*
X109121211Y-95818257D01*
X109005499Y-95538905D01*
X108837512Y-95287495D01*
X108623705Y-95073688D01*
X108372295Y-94905701D01*
X108092943Y-94789989D01*
X107796384Y-94731000D01*
X107494016Y-94731000D01*
X107236270Y-94782269D01*
X106685003Y-94231002D01*
X106661201Y-94201999D01*
X106545476Y-94107026D01*
X106413447Y-94036454D01*
X106270186Y-93992997D01*
X106158533Y-93982000D01*
X106158522Y-93982000D01*
X106121200Y-93978324D01*
X106083878Y-93982000D01*
X103642002Y-93982000D01*
X100346002Y-90686000D01*
X104602128Y-90686000D01*
X104602128Y-91686000D01*
X104614388Y-91810482D01*
X104650698Y-91930180D01*
X104709663Y-92040494D01*
X104789015Y-92137185D01*
X104885706Y-92216537D01*
X104996020Y-92275502D01*
X105115718Y-92311812D01*
X105240200Y-92324072D01*
X106240200Y-92324072D01*
X106364682Y-92311812D01*
X106484380Y-92275502D01*
X106573380Y-92227930D01*
X106653336Y-92263446D01*
X106708326Y-92280119D01*
X106883200Y-92153954D01*
X106883200Y-91313000D01*
X107137200Y-91313000D01*
X107137200Y-92153954D01*
X107312074Y-92280119D01*
X107367064Y-92263446D01*
X107570406Y-92173123D01*
X107752220Y-92044865D01*
X107905518Y-91883601D01*
X108024410Y-91695529D01*
X108104326Y-91487876D01*
X107979329Y-91313000D01*
X107137200Y-91313000D01*
X106883200Y-91313000D01*
X106878272Y-91313000D01*
X106878272Y-91059000D01*
X106883200Y-91059000D01*
X106883200Y-90218046D01*
X107137200Y-90218046D01*
X107137200Y-91059000D01*
X107979329Y-91059000D01*
X108104326Y-90884124D01*
X108024410Y-90676471D01*
X107905518Y-90488399D01*
X107752220Y-90327135D01*
X107570406Y-90198877D01*
X107367064Y-90108554D01*
X107312074Y-90091881D01*
X107137200Y-90218046D01*
X106883200Y-90218046D01*
X106708326Y-90091881D01*
X106653336Y-90108554D01*
X106573380Y-90144070D01*
X106484380Y-90096498D01*
X106364682Y-90060188D01*
X106240200Y-90047928D01*
X105240200Y-90047928D01*
X105115718Y-90060188D01*
X104996020Y-90096498D01*
X104885706Y-90155463D01*
X104789015Y-90234815D01*
X104709663Y-90331506D01*
X104650698Y-90441820D01*
X104614388Y-90561518D01*
X104602128Y-90686000D01*
X100346002Y-90686000D01*
X98474073Y-88814072D01*
X98920200Y-88814072D01*
X99044682Y-88801812D01*
X99164380Y-88765502D01*
X99274694Y-88706537D01*
X99371385Y-88627185D01*
X99382007Y-88614242D01*
X99634196Y-88733571D01*
X99908384Y-88802300D01*
X100190712Y-88816217D01*
X100470330Y-88774787D01*
X100736492Y-88679603D01*
X100861714Y-88612671D01*
X100933297Y-88368702D01*
X100120200Y-87555605D01*
X100106058Y-87569748D01*
X99926453Y-87390143D01*
X99940595Y-87376000D01*
X100299805Y-87376000D01*
X101112902Y-88189097D01*
X101356871Y-88117514D01*
X101477771Y-87862004D01*
X101546500Y-87587816D01*
X101560417Y-87305488D01*
X101518987Y-87025870D01*
X101423803Y-86759708D01*
X101356871Y-86634486D01*
X101112902Y-86562903D01*
X100299805Y-87376000D01*
X99940595Y-87376000D01*
X99926453Y-87361858D01*
X100106058Y-87182253D01*
X100120200Y-87196395D01*
X100933297Y-86383298D01*
X100861714Y-86139329D01*
X100606204Y-86018429D01*
X100332016Y-85949700D01*
X100049688Y-85935783D01*
X99770070Y-85977213D01*
X99503908Y-86072397D01*
X99381891Y-86137616D01*
X99371385Y-86124815D01*
X99274694Y-86045463D01*
X99164380Y-85986498D01*
X99044682Y-85950188D01*
X98920200Y-85937928D01*
X97320200Y-85937928D01*
X97195718Y-85950188D01*
X97076020Y-85986498D01*
X96965706Y-86045463D01*
X96869015Y-86124815D01*
X96789663Y-86221506D01*
X96730698Y-86331820D01*
X96694388Y-86451518D01*
X96682128Y-86576000D01*
X96682128Y-87022127D01*
X96409210Y-86749209D01*
X96409210Y-85256000D01*
X103617128Y-85256000D01*
X103617128Y-86956000D01*
X103629388Y-87080482D01*
X103665698Y-87200180D01*
X103724663Y-87310494D01*
X103804015Y-87407185D01*
X103900706Y-87486537D01*
X104011020Y-87545502D01*
X104130718Y-87581812D01*
X104255200Y-87594072D01*
X105955200Y-87594072D01*
X106079682Y-87581812D01*
X106199380Y-87545502D01*
X106309694Y-87486537D01*
X106406385Y-87407185D01*
X106485737Y-87310494D01*
X106544702Y-87200180D01*
X106569166Y-87119534D01*
X106644931Y-87203588D01*
X106878280Y-87377641D01*
X107141101Y-87502825D01*
X107288310Y-87547476D01*
X107518200Y-87426155D01*
X107518200Y-86233000D01*
X107772200Y-86233000D01*
X107772200Y-87426155D01*
X108002090Y-87547476D01*
X108149299Y-87502825D01*
X108412120Y-87377641D01*
X108645469Y-87203588D01*
X108840378Y-86987355D01*
X108989357Y-86737252D01*
X109086681Y-86462891D01*
X108966014Y-86233000D01*
X107772200Y-86233000D01*
X107518200Y-86233000D01*
X107498200Y-86233000D01*
X107498200Y-85979000D01*
X107518200Y-85979000D01*
X107518200Y-84785845D01*
X107772200Y-84785845D01*
X107772200Y-85979000D01*
X108966014Y-85979000D01*
X109086681Y-85749109D01*
X108989357Y-85474748D01*
X108840378Y-85224645D01*
X108645469Y-85008412D01*
X108412120Y-84834359D01*
X108149299Y-84709175D01*
X108002090Y-84664524D01*
X107772200Y-84785845D01*
X107518200Y-84785845D01*
X107288310Y-84664524D01*
X107141101Y-84709175D01*
X106878280Y-84834359D01*
X106644931Y-85008412D01*
X106569166Y-85092466D01*
X106544702Y-85011820D01*
X106485737Y-84901506D01*
X106406385Y-84804815D01*
X106309694Y-84725463D01*
X106199380Y-84666498D01*
X106079682Y-84630188D01*
X105955200Y-84617928D01*
X104255200Y-84617928D01*
X104130718Y-84630188D01*
X104011020Y-84666498D01*
X103900706Y-84725463D01*
X103804015Y-84804815D01*
X103724663Y-84901506D01*
X103665698Y-85011820D01*
X103629388Y-85131518D01*
X103617128Y-85256000D01*
X96409210Y-85256000D01*
X96409210Y-82645040D01*
X96728291Y-82645040D01*
X96823130Y-82909881D01*
X96967815Y-83151131D01*
X97156786Y-83359519D01*
X97382780Y-83527037D01*
X97637113Y-83647246D01*
X97771161Y-83687904D01*
X97993200Y-83565915D01*
X97993200Y-82423000D01*
X98247200Y-82423000D01*
X98247200Y-83565915D01*
X98469239Y-83687904D01*
X98603287Y-83647246D01*
X98857620Y-83527037D01*
X99083614Y-83359519D01*
X99272585Y-83151131D01*
X99417270Y-82909881D01*
X99512109Y-82645040D01*
X99390824Y-82423000D01*
X98247200Y-82423000D01*
X97993200Y-82423000D01*
X96849576Y-82423000D01*
X96728291Y-82645040D01*
X96409210Y-82645040D01*
X96409210Y-81946960D01*
X96728291Y-81946960D01*
X96849576Y-82169000D01*
X97993200Y-82169000D01*
X97993200Y-81026085D01*
X98247200Y-81026085D01*
X98247200Y-82169000D01*
X99390824Y-82169000D01*
X99398654Y-82154665D01*
X99860200Y-82154665D01*
X99860200Y-82437335D01*
X99915347Y-82714574D01*
X100023520Y-82975727D01*
X100180563Y-83210759D01*
X100380441Y-83410637D01*
X100615473Y-83567680D01*
X100876626Y-83675853D01*
X101153865Y-83731000D01*
X101436535Y-83731000D01*
X101713774Y-83675853D01*
X101974927Y-83567680D01*
X102209959Y-83410637D01*
X102409837Y-83210759D01*
X102566880Y-82975727D01*
X102675053Y-82714574D01*
X102730200Y-82437335D01*
X102730200Y-82154665D01*
X102675053Y-81877426D01*
X102566880Y-81616273D01*
X102409837Y-81381241D01*
X102209959Y-81181363D01*
X101974927Y-81024320D01*
X101713774Y-80916147D01*
X101436535Y-80861000D01*
X101153865Y-80861000D01*
X100876626Y-80916147D01*
X100615473Y-81024320D01*
X100380441Y-81181363D01*
X100180563Y-81381241D01*
X100023520Y-81616273D01*
X99915347Y-81877426D01*
X99860200Y-82154665D01*
X99398654Y-82154665D01*
X99512109Y-81946960D01*
X99417270Y-81682119D01*
X99272585Y-81440869D01*
X99083614Y-81232481D01*
X98857620Y-81064963D01*
X98603287Y-80944754D01*
X98469239Y-80904096D01*
X98247200Y-81026085D01*
X97993200Y-81026085D01*
X97771161Y-80904096D01*
X97637113Y-80944754D01*
X97382780Y-81064963D01*
X97156786Y-81232481D01*
X96967815Y-81440869D01*
X96823130Y-81682119D01*
X96728291Y-81946960D01*
X96409210Y-81946960D01*
X96409210Y-70993000D01*
X97247889Y-70993000D01*
X97205441Y-71021363D01*
X97005563Y-71221241D01*
X96848520Y-71456273D01*
X96740347Y-71717426D01*
X96685200Y-71994665D01*
X96685200Y-72277335D01*
X96740347Y-72554574D01*
X96848520Y-72815727D01*
X97005563Y-73050759D01*
X97205441Y-73250637D01*
X97440473Y-73407680D01*
X97701626Y-73515853D01*
X97978865Y-73571000D01*
X98261535Y-73571000D01*
X98538774Y-73515853D01*
X98799927Y-73407680D01*
X99034959Y-73250637D01*
X99234837Y-73050759D01*
X99391880Y-72815727D01*
X99500053Y-72554574D01*
X99555200Y-72277335D01*
X99555200Y-71994665D01*
X99500053Y-71717426D01*
X99391880Y-71456273D01*
X99234837Y-71221241D01*
X99034959Y-71021363D01*
X98992511Y-70993000D01*
X100422889Y-70993000D01*
X100380441Y-71021363D01*
X100180563Y-71221241D01*
X100023520Y-71456273D01*
X99915347Y-71717426D01*
X99860200Y-71994665D01*
X99860200Y-72277335D01*
X99915347Y-72554574D01*
X100023520Y-72815727D01*
X100180563Y-73050759D01*
X100380441Y-73250637D01*
X100615473Y-73407680D01*
X100876626Y-73515853D01*
X101153865Y-73571000D01*
X101436535Y-73571000D01*
X101713774Y-73515853D01*
X101974927Y-73407680D01*
X102209959Y-73250637D01*
X102409837Y-73050759D01*
X102566880Y-72815727D01*
X102675053Y-72554574D01*
X102730200Y-72277335D01*
X102730200Y-71994665D01*
X102675053Y-71717426D01*
X102566880Y-71456273D01*
X102409837Y-71221241D01*
X102209959Y-71021363D01*
X102167511Y-70993000D01*
X110695201Y-70993000D01*
X110695200Y-94927687D01*
X110476695Y-95073688D01*
X110262888Y-95287495D01*
X110094901Y-95538905D01*
X109979189Y-95818257D01*
X109920200Y-96114816D01*
X109920200Y-96417184D01*
X109979189Y-96713743D01*
X110094901Y-96993095D01*
X110262888Y-97244505D01*
X110476695Y-97458312D01*
X110728105Y-97626299D01*
X111007457Y-97742011D01*
X111304016Y-97801000D01*
X111606384Y-97801000D01*
X111902943Y-97742011D01*
X112182295Y-97626299D01*
X112433705Y-97458312D01*
X112647512Y-97244505D01*
X112815499Y-96993095D01*
X112931211Y-96713743D01*
X112990200Y-96417184D01*
X112990200Y-96114816D01*
X113730200Y-96114816D01*
X113730200Y-96417184D01*
X113789189Y-96713743D01*
X113904901Y-96993095D01*
X114072888Y-97244505D01*
X114286695Y-97458312D01*
X114538105Y-97626299D01*
X114817457Y-97742011D01*
X115114016Y-97801000D01*
X115416384Y-97801000D01*
X115712943Y-97742011D01*
X115992295Y-97626299D01*
X116243705Y-97458312D01*
X116457512Y-97244505D01*
X116625499Y-96993095D01*
X116741211Y-96713743D01*
X116800200Y-96417184D01*
X116800200Y-96114816D01*
X116741211Y-95818257D01*
X116625499Y-95538905D01*
X116457512Y-95287495D01*
X116243705Y-95073688D01*
X115992295Y-94905701D01*
X115712943Y-94789989D01*
X115416384Y-94731000D01*
X115114016Y-94731000D01*
X114817457Y-94789989D01*
X114538105Y-94905701D01*
X114286695Y-95073688D01*
X114072888Y-95287495D01*
X113904901Y-95538905D01*
X113789189Y-95818257D01*
X113730200Y-96114816D01*
X112990200Y-96114816D01*
X112931211Y-95818257D01*
X112815499Y-95538905D01*
X112647512Y-95287495D01*
X112433705Y-95073688D01*
X112215200Y-94927687D01*
X112215200Y-69978500D01*
X113436400Y-69062600D01*
X113454757Y-69045782D01*
X113469480Y-69025706D01*
X113480004Y-69003143D01*
X113485924Y-68978961D01*
X113487200Y-68961000D01*
X113487200Y-65908301D01*
X114783130Y-64612372D01*
X114937108Y-64643000D01*
X115212292Y-64643000D01*
X115482190Y-64589314D01*
X115736427Y-64484005D01*
X115965235Y-64331120D01*
X116159820Y-64136535D01*
X116312705Y-63907727D01*
X116418014Y-63653490D01*
X116471700Y-63383592D01*
X116471700Y-63108408D01*
X116418014Y-62838510D01*
X116312705Y-62584273D01*
X116159820Y-62355465D01*
X115965235Y-62160880D01*
X115736427Y-62007995D01*
X115659185Y-61976000D01*
X115736427Y-61944005D01*
X115965235Y-61791120D01*
X116159820Y-61596535D01*
X116312705Y-61367727D01*
X116418014Y-61113490D01*
X116471700Y-60843592D01*
X116471700Y-60637801D01*
X118315201Y-62481303D01*
X118315201Y-73921971D01*
X118013075Y-73469807D01*
X117563593Y-73020325D01*
X117035058Y-72667170D01*
X116447781Y-72423912D01*
X115824332Y-72299900D01*
X115188668Y-72299900D01*
X114565219Y-72423912D01*
X113977942Y-72667170D01*
X113449407Y-73020325D01*
X112999925Y-73469807D01*
X112646770Y-73998342D01*
X112403512Y-74585619D01*
X112279500Y-75209068D01*
X112279500Y-75844732D01*
X112403512Y-76468181D01*
X112646770Y-77055458D01*
X112999925Y-77583993D01*
X113449407Y-78033475D01*
X113977942Y-78386630D01*
X114565219Y-78629888D01*
X115188668Y-78753900D01*
X115824332Y-78753900D01*
X116447781Y-78629888D01*
X117035058Y-78386630D01*
X117563593Y-78033475D01*
X118013075Y-77583993D01*
X118315201Y-77131829D01*
X118315200Y-94927687D01*
X118096695Y-95073688D01*
X117882888Y-95287495D01*
X117714901Y-95538905D01*
X117599189Y-95818257D01*
X117540200Y-96114816D01*
X117540200Y-96417184D01*
X117599189Y-96713743D01*
X117714901Y-96993095D01*
X117882888Y-97244505D01*
X118096695Y-97458312D01*
X118348105Y-97626299D01*
X118627457Y-97742011D01*
X118924016Y-97801000D01*
X119226384Y-97801000D01*
X119522943Y-97742011D01*
X119802295Y-97626299D01*
X120053705Y-97458312D01*
X120267512Y-97244505D01*
X120435499Y-96993095D01*
X120551211Y-96713743D01*
X120610200Y-96417184D01*
X120610200Y-96114816D01*
X120551211Y-95818257D01*
X120435499Y-95538905D01*
X120267512Y-95287495D01*
X120053705Y-95073688D01*
X119835200Y-94927687D01*
X119835200Y-62203822D01*
X119838876Y-62166499D01*
X119835200Y-62129176D01*
X119835200Y-62129167D01*
X119824203Y-62017514D01*
X119780746Y-61874253D01*
X119710174Y-61742224D01*
X119615201Y-61626499D01*
X119586203Y-61602701D01*
X116441072Y-58457571D01*
X116471700Y-58303592D01*
X116471700Y-58097801D01*
X122125201Y-63751303D01*
X122125200Y-94927687D01*
X121906695Y-95073688D01*
X121692888Y-95287495D01*
X121524901Y-95538905D01*
X121409189Y-95818257D01*
X121350200Y-96114816D01*
X121350200Y-96417184D01*
X121409189Y-96713743D01*
X121524901Y-96993095D01*
X121692888Y-97244505D01*
X121906695Y-97458312D01*
X122158105Y-97626299D01*
X122437457Y-97742011D01*
X122734016Y-97801000D01*
X123036384Y-97801000D01*
X123332943Y-97742011D01*
X123612295Y-97626299D01*
X123863705Y-97458312D01*
X124077512Y-97244505D01*
X124245499Y-96993095D01*
X124361211Y-96713743D01*
X124420200Y-96417184D01*
X124420200Y-96114816D01*
X124361211Y-95818257D01*
X124245499Y-95538905D01*
X124077512Y-95287495D01*
X123863705Y-95073688D01*
X123645200Y-94927687D01*
X123645200Y-63473822D01*
X123648876Y-63436499D01*
X123645200Y-63399176D01*
X123645200Y-63399167D01*
X123634203Y-63287514D01*
X123590746Y-63144253D01*
X123566749Y-63099359D01*
X123520174Y-63012223D01*
X123448999Y-62925497D01*
X123425201Y-62896499D01*
X123396203Y-62872701D01*
X116441072Y-55917571D01*
X116471700Y-55763592D01*
X116471700Y-55557801D01*
X125935201Y-65021303D01*
X125935200Y-94927687D01*
X125716695Y-95073688D01*
X125502888Y-95287495D01*
X125334901Y-95538905D01*
X125219189Y-95818257D01*
X125160200Y-96114816D01*
X125160200Y-96417184D01*
X125219189Y-96713743D01*
X125334901Y-96993095D01*
X125502888Y-97244505D01*
X125716695Y-97458312D01*
X125968105Y-97626299D01*
X126247457Y-97742011D01*
X126544016Y-97801000D01*
X126846384Y-97801000D01*
X127142943Y-97742011D01*
X127422295Y-97626299D01*
X127673705Y-97458312D01*
X127887512Y-97244505D01*
X128055499Y-96993095D01*
X128171211Y-96713743D01*
X128230200Y-96417184D01*
X128230200Y-96114816D01*
X128171211Y-95818257D01*
X128055499Y-95538905D01*
X127887512Y-95287495D01*
X127673705Y-95073688D01*
X127455200Y-94927687D01*
X127455200Y-94290801D01*
X129021468Y-95857071D01*
X128970200Y-96114816D01*
X128970200Y-96417184D01*
X129029189Y-96713743D01*
X129144901Y-96993095D01*
X129312888Y-97244505D01*
X129526695Y-97458312D01*
X129778105Y-97626299D01*
X130057457Y-97742011D01*
X130354016Y-97801000D01*
X130656384Y-97801000D01*
X130952943Y-97742011D01*
X131232295Y-97626299D01*
X131483705Y-97458312D01*
X131697512Y-97244505D01*
X131865499Y-96993095D01*
X131981211Y-96713743D01*
X132040200Y-96417184D01*
X132040200Y-96114816D01*
X131981211Y-95818257D01*
X131865499Y-95538905D01*
X131697512Y-95287495D01*
X131483705Y-95073688D01*
X131232295Y-94905701D01*
X130952943Y-94789989D01*
X130656384Y-94731000D01*
X130354016Y-94731000D01*
X130096271Y-94782268D01*
X128725200Y-93411199D01*
X128725200Y-91750801D01*
X132831469Y-95857070D01*
X132780200Y-96114816D01*
X132780200Y-96417184D01*
X132839189Y-96713743D01*
X132954901Y-96993095D01*
X133122888Y-97244505D01*
X133336695Y-97458312D01*
X133588105Y-97626299D01*
X133867457Y-97742011D01*
X134164016Y-97801000D01*
X134466384Y-97801000D01*
X134762943Y-97742011D01*
X135042295Y-97626299D01*
X135293705Y-97458312D01*
X135458200Y-97293817D01*
X135458200Y-98044000D01*
X78562200Y-98044000D01*
X78562200Y-95352890D01*
X79533724Y-95352890D01*
X79578375Y-95500099D01*
X79703559Y-95762920D01*
X79877612Y-95996269D01*
X80093845Y-96191178D01*
X80343948Y-96340157D01*
X80618309Y-96437481D01*
X80848200Y-96316814D01*
X80848200Y-95123000D01*
X79655045Y-95123000D01*
X79533724Y-95352890D01*
X78562200Y-95352890D01*
X78562200Y-69945040D01*
X79583291Y-69945040D01*
X79678130Y-70209881D01*
X79822815Y-70451131D01*
X80011786Y-70659519D01*
X80237780Y-70827037D01*
X80492113Y-70947246D01*
X80626161Y-70987904D01*
X80848200Y-70865915D01*
X80848200Y-69723000D01*
X79704576Y-69723000D01*
X79583291Y-69945040D01*
X78562200Y-69945040D01*
X78562200Y-69246960D01*
X79583291Y-69246960D01*
X79704576Y-69469000D01*
X80848200Y-69469000D01*
X80848200Y-68326085D01*
X80626161Y-68204096D01*
X80492113Y-68244754D01*
X80237780Y-68364963D01*
X80011786Y-68532481D01*
X79822815Y-68740869D01*
X79678130Y-68982119D01*
X79583291Y-69246960D01*
X78562200Y-69246960D01*
X78562200Y-54699070D01*
X78858980Y-54699070D01*
X78873938Y-54773276D01*
X78981078Y-55026535D01*
X79135568Y-55254026D01*
X79331471Y-55447006D01*
X79561258Y-55598059D01*
X79816099Y-55701381D01*
X80086200Y-55753000D01*
X80848200Y-55753000D01*
X80848200Y-54483000D01*
X78981480Y-54483000D01*
X78858980Y-54699070D01*
X78562200Y-54699070D01*
X78562200Y-51747801D01*
X78829002Y-52014604D01*
%TA.AperFunction,Conductor*%
D33*
G36*
X78829002Y-52014604D02*
G01*
X78836414Y-52089860D01*
X78916296Y-52353195D01*
X79046017Y-52595887D01*
X79220592Y-52808608D01*
X79433313Y-52983183D01*
X79627613Y-53087038D01*
X79561258Y-53113941D01*
X79331471Y-53264994D01*
X79135568Y-53457974D01*
X78981078Y-53685465D01*
X78873938Y-53938724D01*
X78858980Y-54012930D01*
X78981480Y-54229000D01*
X80848200Y-54229000D01*
X80848200Y-54209000D01*
X81102200Y-54209000D01*
X81102200Y-54229000D01*
X81122200Y-54229000D01*
X81122200Y-54483000D01*
X81102200Y-54483000D01*
X81102200Y-55753000D01*
X81540201Y-55753000D01*
X81540201Y-58116799D01*
X81393774Y-58056147D01*
X81116535Y-58001000D01*
X80833865Y-58001000D01*
X80556626Y-58056147D01*
X80295473Y-58164320D01*
X80060441Y-58321363D01*
X79860563Y-58521241D01*
X79703520Y-58756273D01*
X79595347Y-59017426D01*
X79540200Y-59294665D01*
X79540200Y-59577335D01*
X79595347Y-59854574D01*
X79703520Y-60115727D01*
X79860563Y-60350759D01*
X80060441Y-60550637D01*
X80295473Y-60707680D01*
X80556626Y-60815853D01*
X80833865Y-60871000D01*
X81116535Y-60871000D01*
X81393774Y-60815853D01*
X81540201Y-60755201D01*
X81540202Y-68283470D01*
X81458287Y-68244754D01*
X81324239Y-68204096D01*
X81102200Y-68326085D01*
X81102200Y-69469000D01*
X81122200Y-69469000D01*
X81122200Y-69723000D01*
X81102200Y-69723000D01*
X81102200Y-70865915D01*
X81324239Y-70987904D01*
X81458287Y-70947246D01*
X81540202Y-70908530D01*
X81540202Y-74406228D01*
X79975200Y-74406228D01*
X79850718Y-74418488D01*
X79731020Y-74454798D01*
X79620706Y-74513763D01*
X79524015Y-74593115D01*
X79444663Y-74689806D01*
X79385698Y-74800120D01*
X79349388Y-74919818D01*
X79337128Y-75044300D01*
X79337128Y-76949300D01*
X79349388Y-77073782D01*
X79385698Y-77193480D01*
X79444663Y-77303794D01*
X79524015Y-77400485D01*
X79620706Y-77479837D01*
X79712419Y-77528859D01*
X79599231Y-77669877D01*
X79455629Y-77945706D01*
X79384637Y-78163820D01*
X79504606Y-78409800D01*
X80848200Y-78409800D01*
X80848200Y-78389800D01*
X81102200Y-78389800D01*
X81102200Y-78409800D01*
X81122200Y-78409800D01*
X81122200Y-78663800D01*
X81102200Y-78663800D01*
X81102200Y-78683800D01*
X80848200Y-78683800D01*
X80848200Y-78663800D01*
X79504606Y-78663800D01*
X79384637Y-78909780D01*
X79455629Y-79127894D01*
X79599231Y-79403723D01*
X79793885Y-79646237D01*
X79979099Y-79801637D01*
X79799737Y-79948837D01*
X79601355Y-80190565D01*
X79453945Y-80466351D01*
X79363170Y-80765596D01*
X79332519Y-81076800D01*
X79363170Y-81388004D01*
X79453945Y-81687249D01*
X79601355Y-81963035D01*
X79799737Y-82204763D01*
X80041465Y-82403145D01*
X80317251Y-82550555D01*
X80616496Y-82641330D01*
X80849714Y-82664300D01*
X81100686Y-82664300D01*
X81333904Y-82641330D01*
X81540210Y-82578748D01*
X81540210Y-85887928D01*
X80125200Y-85887928D01*
X80000718Y-85900188D01*
X79881020Y-85936498D01*
X79770706Y-85995463D01*
X79674015Y-86074815D01*
X79594663Y-86171506D01*
X79535698Y-86281820D01*
X79499388Y-86401518D01*
X79487128Y-86526000D01*
X79487128Y-88226000D01*
X79499388Y-88350482D01*
X79535698Y-88470180D01*
X79594663Y-88580494D01*
X79674015Y-88677185D01*
X79770706Y-88756537D01*
X79881020Y-88815502D01*
X79953580Y-88837513D01*
X79821725Y-88969368D01*
X79659210Y-89212589D01*
X79547268Y-89482842D01*
X79490200Y-89769740D01*
X79490200Y-90062260D01*
X79547268Y-90349158D01*
X79659210Y-90619411D01*
X79821725Y-90862632D01*
X80028568Y-91069475D01*
X80202960Y-91186000D01*
X80028568Y-91302525D01*
X79821725Y-91509368D01*
X79659210Y-91752589D01*
X79547268Y-92022842D01*
X79490200Y-92309740D01*
X79490200Y-92602260D01*
X79547268Y-92889158D01*
X79659210Y-93159411D01*
X79821725Y-93402632D01*
X80028568Y-93609475D01*
X80210734Y-93731195D01*
X80093845Y-93800822D01*
X79877612Y-93995731D01*
X79703559Y-94229080D01*
X79578375Y-94491901D01*
X79533724Y-94639110D01*
X79655045Y-94869000D01*
X80848200Y-94869000D01*
X80848200Y-94849000D01*
X81102200Y-94849000D01*
X81102200Y-94869000D01*
X81122200Y-94869000D01*
X81122200Y-95123000D01*
X81102200Y-95123000D01*
X81102200Y-96316814D01*
X81332091Y-96437481D01*
X81606452Y-96340157D01*
X81856555Y-96191178D01*
X82072788Y-95996269D01*
X82114605Y-95940206D01*
X82303623Y-96129224D01*
X82340199Y-96173793D01*
X82369201Y-96197594D01*
X82948608Y-96777002D01*
X82972407Y-96806001D01*
X83001405Y-96829799D01*
X83088131Y-96900974D01*
X83220159Y-96971545D01*
X83220161Y-96971546D01*
X83363422Y-97015003D01*
X83444902Y-97023028D01*
X83592888Y-97244505D01*
X83806695Y-97458312D01*
X84058105Y-97626299D01*
X84337457Y-97742011D01*
X84634016Y-97801000D01*
X84936384Y-97801000D01*
X85232943Y-97742011D01*
X85512295Y-97626299D01*
X85763705Y-97458312D01*
X85977512Y-97244505D01*
X86145499Y-96993095D01*
X86261211Y-96713743D01*
X86320200Y-96417184D01*
X86320200Y-96114816D01*
X86261211Y-95818257D01*
X86254062Y-95800999D01*
X87055398Y-95800999D01*
X87111469Y-95857070D01*
X87060200Y-96114816D01*
X87060200Y-96417184D01*
X87119189Y-96713743D01*
X87234901Y-96993095D01*
X87402888Y-97244505D01*
X87616695Y-97458312D01*
X87868105Y-97626299D01*
X88147457Y-97742011D01*
X88444016Y-97801000D01*
X88746384Y-97801000D01*
X89042943Y-97742011D01*
X89322295Y-97626299D01*
X89573705Y-97458312D01*
X89787512Y-97244505D01*
X89955499Y-96993095D01*
X90071211Y-96713743D01*
X90130200Y-96417184D01*
X90130200Y-96114816D01*
X90071211Y-95818257D01*
X89955499Y-95538905D01*
X89829937Y-95350989D01*
X90415388Y-95350989D01*
X90921469Y-95857070D01*
X90870200Y-96114816D01*
X90870200Y-96417184D01*
X90929189Y-96713743D01*
X91044901Y-96993095D01*
X91212888Y-97244505D01*
X91426695Y-97458312D01*
X91678105Y-97626299D01*
X91957457Y-97742011D01*
X92254016Y-97801000D01*
X92556384Y-97801000D01*
X92852943Y-97742011D01*
X93132295Y-97626299D01*
X93383705Y-97458312D01*
X93597512Y-97244505D01*
X93765499Y-96993095D01*
X93881211Y-96713743D01*
X93940200Y-96417184D01*
X93940200Y-96114816D01*
X93881211Y-95818257D01*
X93765499Y-95538905D01*
X93597512Y-95287495D01*
X93383705Y-95073688D01*
X93132295Y-94905701D01*
X92852943Y-94789989D01*
X92556384Y-94731000D01*
X92254016Y-94731000D01*
X91996270Y-94782269D01*
X91293986Y-94079985D01*
X91270190Y-94050989D01*
X91210480Y-94001986D01*
X91154465Y-93956015D01*
X91022435Y-93885443D01*
X90922631Y-93855169D01*
X90879175Y-93841987D01*
X90767522Y-93830990D01*
X90730189Y-93827313D01*
X90692857Y-93830990D01*
X85964990Y-93830988D01*
X84275200Y-92141199D01*
X84275200Y-91015117D01*
X84320200Y-91015117D01*
X84320200Y-91356883D01*
X84386875Y-91692081D01*
X84517663Y-92007831D01*
X84707537Y-92291998D01*
X84949202Y-92533663D01*
X85233369Y-92723537D01*
X85549119Y-92854325D01*
X85884317Y-92921000D01*
X86226083Y-92921000D01*
X86561281Y-92854325D01*
X86877031Y-92723537D01*
X87161198Y-92533663D01*
X87402863Y-92291998D01*
X87592737Y-92007831D01*
X87723525Y-91692081D01*
X87790200Y-91356883D01*
X87790200Y-91015117D01*
X87723525Y-90679919D01*
X87592737Y-90364169D01*
X87402863Y-90080002D01*
X87161198Y-89838337D01*
X86877031Y-89648463D01*
X86561281Y-89517675D01*
X86226083Y-89451000D01*
X85884317Y-89451000D01*
X85549119Y-89517675D01*
X85233369Y-89648463D01*
X84949202Y-89838337D01*
X84707537Y-90080002D01*
X84517663Y-90364169D01*
X84386875Y-90679919D01*
X84320200Y-91015117D01*
X84275200Y-91015117D01*
X84275200Y-79926000D01*
X84317128Y-79926000D01*
X84317128Y-82126000D01*
X84329388Y-82250482D01*
X84365698Y-82370180D01*
X84424663Y-82480494D01*
X84504015Y-82577185D01*
X84600706Y-82656537D01*
X84711020Y-82715502D01*
X84830718Y-82751812D01*
X84955200Y-82764072D01*
X87155200Y-82764072D01*
X87279682Y-82751812D01*
X87399380Y-82715502D01*
X87509694Y-82656537D01*
X87606385Y-82577185D01*
X87685737Y-82480494D01*
X87744702Y-82370180D01*
X87781012Y-82250482D01*
X87793272Y-82126000D01*
X87793272Y-79926000D01*
X87781012Y-79801518D01*
X87744702Y-79681820D01*
X87685737Y-79571506D01*
X87606385Y-79474815D01*
X87509694Y-79395463D01*
X87399380Y-79336498D01*
X87279682Y-79300188D01*
X87155200Y-79287928D01*
X84955200Y-79287928D01*
X84830718Y-79300188D01*
X84711020Y-79336498D01*
X84600706Y-79395463D01*
X84504015Y-79474815D01*
X84424663Y-79571506D01*
X84365698Y-79681820D01*
X84329388Y-79801518D01*
X84317128Y-79926000D01*
X84275200Y-79926000D01*
X84275200Y-70937983D01*
X84366626Y-70975853D01*
X84643865Y-71031000D01*
X84926535Y-71031000D01*
X85203774Y-70975853D01*
X85464927Y-70867680D01*
X85699959Y-70710637D01*
X85899837Y-70510759D01*
X86056880Y-70275727D01*
X86165053Y-70014574D01*
X86220200Y-69737335D01*
X86220200Y-69565801D01*
X90629201Y-73974803D01*
X90629201Y-74488357D01*
X90426230Y-73998342D01*
X90073075Y-73469807D01*
X89623593Y-73020325D01*
X89095058Y-72667170D01*
X88507781Y-72423912D01*
X87884332Y-72299900D01*
X87248668Y-72299900D01*
X86625219Y-72423912D01*
X86037942Y-72667170D01*
X85509407Y-73020325D01*
X85059925Y-73469807D01*
X84706770Y-73998342D01*
X84463512Y-74585619D01*
X84339500Y-75209068D01*
X84339500Y-75844732D01*
X84463512Y-76468181D01*
X84706770Y-77055458D01*
X85059925Y-77583993D01*
X85509407Y-78033475D01*
X86037942Y-78386630D01*
X86625219Y-78629888D01*
X87248668Y-78753900D01*
X87884332Y-78753900D01*
X88507781Y-78629888D01*
X89095058Y-78386630D01*
X89623593Y-78033475D01*
X90073075Y-77583993D01*
X90426230Y-77055458D01*
X90629201Y-76565443D01*
X90629201Y-79287928D01*
X88765200Y-79287928D01*
X88640718Y-79300188D01*
X88521020Y-79336498D01*
X88410706Y-79395463D01*
X88314015Y-79474815D01*
X88234663Y-79571506D01*
X88175698Y-79681820D01*
X88139388Y-79801518D01*
X88127128Y-79926000D01*
X88127128Y-82126000D01*
X88139388Y-82250482D01*
X88175698Y-82370180D01*
X88234663Y-82480494D01*
X88314015Y-82577185D01*
X88410706Y-82656537D01*
X88521020Y-82715502D01*
X88640718Y-82751812D01*
X88765200Y-82764072D01*
X90629200Y-82764072D01*
X90629200Y-89624509D01*
X90371281Y-89517675D01*
X90036083Y-89451000D01*
X89694317Y-89451000D01*
X89359119Y-89517675D01*
X89043369Y-89648463D01*
X88759202Y-89838337D01*
X88517537Y-90080002D01*
X88327663Y-90364169D01*
X88196875Y-90679919D01*
X88130200Y-91015117D01*
X88130200Y-91356883D01*
X88196875Y-91692081D01*
X88327663Y-92007831D01*
X88517537Y-92291998D01*
X88759202Y-92533663D01*
X89043369Y-92723537D01*
X89359119Y-92854325D01*
X89694317Y-92921000D01*
X90036083Y-92921000D01*
X90371281Y-92854325D01*
X90687031Y-92723537D01*
X90971198Y-92533663D01*
X91189630Y-92315231D01*
X94731469Y-95857070D01*
X94680200Y-96114816D01*
X94680200Y-96417184D01*
X94739189Y-96713743D01*
X94854901Y-96993095D01*
X95022888Y-97244505D01*
X95236695Y-97458312D01*
X95488105Y-97626299D01*
X95767457Y-97742011D01*
X96064016Y-97801000D01*
X96366384Y-97801000D01*
X96662943Y-97742011D01*
X96942295Y-97626299D01*
X97193705Y-97458312D01*
X97407512Y-97244505D01*
X97575499Y-96993095D01*
X97691211Y-96713743D01*
X97750200Y-96417184D01*
X97750200Y-96114816D01*
X97691211Y-95818257D01*
X97575499Y-95538905D01*
X97407512Y-95287495D01*
X97193705Y-95073688D01*
X96942295Y-94905701D01*
X96662943Y-94789989D01*
X96366384Y-94731000D01*
X96064016Y-94731000D01*
X95806270Y-94782269D01*
X93928590Y-92904588D01*
X94181281Y-92854325D01*
X94497031Y-92723537D01*
X94781198Y-92533663D01*
X95022863Y-92291998D01*
X95212737Y-92007831D01*
X95343525Y-91692081D01*
X95351647Y-91651249D01*
X98910391Y-95209992D01*
X98832888Y-95287495D01*
X98664901Y-95538905D01*
X98549189Y-95818257D01*
X98490200Y-96114816D01*
X98490200Y-96417184D01*
X98549189Y-96713743D01*
X98664901Y-96993095D01*
X98832888Y-97244505D01*
X99046695Y-97458312D01*
X99298105Y-97626299D01*
X99577457Y-97742011D01*
X99874016Y-97801000D01*
X100176384Y-97801000D01*
X100472943Y-97742011D01*
X100752295Y-97626299D01*
X101003705Y-97458312D01*
X101217512Y-97244505D01*
X101385499Y-96993095D01*
X101501211Y-96713743D01*
X101560200Y-96417184D01*
X101560200Y-96114816D01*
X101501211Y-95818257D01*
X101385499Y-95538905D01*
X101217512Y-95287495D01*
X101003705Y-95073688D01*
X100752295Y-94905701D01*
X100688884Y-94879435D01*
X100660174Y-94825724D01*
X100597005Y-94748752D01*
X100565201Y-94709999D01*
X100536203Y-94686201D01*
X92911200Y-87061199D01*
X92911200Y-82764072D01*
X94439201Y-82764072D01*
X94439201Y-87592667D01*
X94435524Y-87630000D01*
X94450198Y-87778985D01*
X94493654Y-87922246D01*
X94564226Y-88054276D01*
X94616125Y-88117514D01*
X94659200Y-88170001D01*
X94688198Y-88193799D01*
X102351469Y-95857070D01*
X102300200Y-96114816D01*
X102300200Y-96417184D01*
X102359189Y-96713743D01*
X102474901Y-96993095D01*
X102642888Y-97244505D01*
X102856695Y-97458312D01*
X103108105Y-97626299D01*
X103387457Y-97742011D01*
X103684016Y-97801000D01*
X103986384Y-97801000D01*
X104282943Y-97742011D01*
X104562295Y-97626299D01*
X104813705Y-97458312D01*
X105027512Y-97244505D01*
X105195499Y-96993095D01*
X105311211Y-96713743D01*
X105370200Y-96417184D01*
X105370200Y-96114816D01*
X105311211Y-95818257D01*
X105195499Y-95538905D01*
X105170840Y-95502000D01*
X105806399Y-95502000D01*
X106161469Y-95857070D01*
X106110200Y-96114816D01*
X106110200Y-96417184D01*
X106169189Y-96713743D01*
X106284901Y-96993095D01*
X106452888Y-97244505D01*
X106666695Y-97458312D01*
X106918105Y-97626299D01*
X107197457Y-97742011D01*
X107494016Y-97801000D01*
X107796384Y-97801000D01*
X108092943Y-97742011D01*
X108372295Y-97626299D01*
X108623705Y-97458312D01*
X108837512Y-97244505D01*
X109005499Y-96993095D01*
X109121211Y-96713743D01*
X109180200Y-96417184D01*
X109180200Y-96114816D01*
X109121211Y-95818257D01*
X109005499Y-95538905D01*
X108837512Y-95287495D01*
X108623705Y-95073688D01*
X108372295Y-94905701D01*
X108092943Y-94789989D01*
X107796384Y-94731000D01*
X107494016Y-94731000D01*
X107236270Y-94782269D01*
X106685003Y-94231002D01*
X106661201Y-94201999D01*
X106545476Y-94107026D01*
X106413447Y-94036454D01*
X106270186Y-93992997D01*
X106158533Y-93982000D01*
X106158522Y-93982000D01*
X106121200Y-93978324D01*
X106083878Y-93982000D01*
X103642002Y-93982000D01*
X100346002Y-90686000D01*
X104602128Y-90686000D01*
X104602128Y-91686000D01*
X104614388Y-91810482D01*
X104650698Y-91930180D01*
X104709663Y-92040494D01*
X104789015Y-92137185D01*
X104885706Y-92216537D01*
X104996020Y-92275502D01*
X105115718Y-92311812D01*
X105240200Y-92324072D01*
X106240200Y-92324072D01*
X106364682Y-92311812D01*
X106484380Y-92275502D01*
X106573380Y-92227930D01*
X106653336Y-92263446D01*
X106708326Y-92280119D01*
X106883200Y-92153954D01*
X106883200Y-91313000D01*
X107137200Y-91313000D01*
X107137200Y-92153954D01*
X107312074Y-92280119D01*
X107367064Y-92263446D01*
X107570406Y-92173123D01*
X107752220Y-92044865D01*
X107905518Y-91883601D01*
X108024410Y-91695529D01*
X108104326Y-91487876D01*
X107979329Y-91313000D01*
X107137200Y-91313000D01*
X106883200Y-91313000D01*
X106878272Y-91313000D01*
X106878272Y-91059000D01*
X106883200Y-91059000D01*
X106883200Y-90218046D01*
X107137200Y-90218046D01*
X107137200Y-91059000D01*
X107979329Y-91059000D01*
X108104326Y-90884124D01*
X108024410Y-90676471D01*
X107905518Y-90488399D01*
X107752220Y-90327135D01*
X107570406Y-90198877D01*
X107367064Y-90108554D01*
X107312074Y-90091881D01*
X107137200Y-90218046D01*
X106883200Y-90218046D01*
X106708326Y-90091881D01*
X106653336Y-90108554D01*
X106573380Y-90144070D01*
X106484380Y-90096498D01*
X106364682Y-90060188D01*
X106240200Y-90047928D01*
X105240200Y-90047928D01*
X105115718Y-90060188D01*
X104996020Y-90096498D01*
X104885706Y-90155463D01*
X104789015Y-90234815D01*
X104709663Y-90331506D01*
X104650698Y-90441820D01*
X104614388Y-90561518D01*
X104602128Y-90686000D01*
X100346002Y-90686000D01*
X98474073Y-88814072D01*
X98920200Y-88814072D01*
X99044682Y-88801812D01*
X99164380Y-88765502D01*
X99274694Y-88706537D01*
X99371385Y-88627185D01*
X99382007Y-88614242D01*
X99634196Y-88733571D01*
X99908384Y-88802300D01*
X100190712Y-88816217D01*
X100470330Y-88774787D01*
X100736492Y-88679603D01*
X100861714Y-88612671D01*
X100933297Y-88368702D01*
X100120200Y-87555605D01*
X100106058Y-87569748D01*
X99926453Y-87390143D01*
X99940595Y-87376000D01*
X100299805Y-87376000D01*
X101112902Y-88189097D01*
X101356871Y-88117514D01*
X101477771Y-87862004D01*
X101546500Y-87587816D01*
X101560417Y-87305488D01*
X101518987Y-87025870D01*
X101423803Y-86759708D01*
X101356871Y-86634486D01*
X101112902Y-86562903D01*
X100299805Y-87376000D01*
X99940595Y-87376000D01*
X99926453Y-87361858D01*
X100106058Y-87182253D01*
X100120200Y-87196395D01*
X100933297Y-86383298D01*
X100861714Y-86139329D01*
X100606204Y-86018429D01*
X100332016Y-85949700D01*
X100049688Y-85935783D01*
X99770070Y-85977213D01*
X99503908Y-86072397D01*
X99381891Y-86137616D01*
X99371385Y-86124815D01*
X99274694Y-86045463D01*
X99164380Y-85986498D01*
X99044682Y-85950188D01*
X98920200Y-85937928D01*
X97320200Y-85937928D01*
X97195718Y-85950188D01*
X97076020Y-85986498D01*
X96965706Y-86045463D01*
X96869015Y-86124815D01*
X96789663Y-86221506D01*
X96730698Y-86331820D01*
X96694388Y-86451518D01*
X96682128Y-86576000D01*
X96682128Y-87022127D01*
X96409210Y-86749209D01*
X96409210Y-85256000D01*
X103617128Y-85256000D01*
X103617128Y-86956000D01*
X103629388Y-87080482D01*
X103665698Y-87200180D01*
X103724663Y-87310494D01*
X103804015Y-87407185D01*
X103900706Y-87486537D01*
X104011020Y-87545502D01*
X104130718Y-87581812D01*
X104255200Y-87594072D01*
X105955200Y-87594072D01*
X106079682Y-87581812D01*
X106199380Y-87545502D01*
X106309694Y-87486537D01*
X106406385Y-87407185D01*
X106485737Y-87310494D01*
X106544702Y-87200180D01*
X106569166Y-87119534D01*
X106644931Y-87203588D01*
X106878280Y-87377641D01*
X107141101Y-87502825D01*
X107288310Y-87547476D01*
X107518200Y-87426155D01*
X107518200Y-86233000D01*
X107772200Y-86233000D01*
X107772200Y-87426155D01*
X108002090Y-87547476D01*
X108149299Y-87502825D01*
X108412120Y-87377641D01*
X108645469Y-87203588D01*
X108840378Y-86987355D01*
X108989357Y-86737252D01*
X109086681Y-86462891D01*
X108966014Y-86233000D01*
X107772200Y-86233000D01*
X107518200Y-86233000D01*
X107498200Y-86233000D01*
X107498200Y-85979000D01*
X107518200Y-85979000D01*
X107518200Y-84785845D01*
X107772200Y-84785845D01*
X107772200Y-85979000D01*
X108966014Y-85979000D01*
X109086681Y-85749109D01*
X108989357Y-85474748D01*
X108840378Y-85224645D01*
X108645469Y-85008412D01*
X108412120Y-84834359D01*
X108149299Y-84709175D01*
X108002090Y-84664524D01*
X107772200Y-84785845D01*
X107518200Y-84785845D01*
X107288310Y-84664524D01*
X107141101Y-84709175D01*
X106878280Y-84834359D01*
X106644931Y-85008412D01*
X106569166Y-85092466D01*
X106544702Y-85011820D01*
X106485737Y-84901506D01*
X106406385Y-84804815D01*
X106309694Y-84725463D01*
X106199380Y-84666498D01*
X106079682Y-84630188D01*
X105955200Y-84617928D01*
X104255200Y-84617928D01*
X104130718Y-84630188D01*
X104011020Y-84666498D01*
X103900706Y-84725463D01*
X103804015Y-84804815D01*
X103724663Y-84901506D01*
X103665698Y-85011820D01*
X103629388Y-85131518D01*
X103617128Y-85256000D01*
X96409210Y-85256000D01*
X96409210Y-82645040D01*
X96728291Y-82645040D01*
X96823130Y-82909881D01*
X96967815Y-83151131D01*
X97156786Y-83359519D01*
X97382780Y-83527037D01*
X97637113Y-83647246D01*
X97771161Y-83687904D01*
X97993200Y-83565915D01*
X97993200Y-82423000D01*
X98247200Y-82423000D01*
X98247200Y-83565915D01*
X98469239Y-83687904D01*
X98603287Y-83647246D01*
X98857620Y-83527037D01*
X99083614Y-83359519D01*
X99272585Y-83151131D01*
X99417270Y-82909881D01*
X99512109Y-82645040D01*
X99390824Y-82423000D01*
X98247200Y-82423000D01*
X97993200Y-82423000D01*
X96849576Y-82423000D01*
X96728291Y-82645040D01*
X96409210Y-82645040D01*
X96409210Y-81946960D01*
X96728291Y-81946960D01*
X96849576Y-82169000D01*
X97993200Y-82169000D01*
X97993200Y-81026085D01*
X98247200Y-81026085D01*
X98247200Y-82169000D01*
X99390824Y-82169000D01*
X99398654Y-82154665D01*
X99860200Y-82154665D01*
X99860200Y-82437335D01*
X99915347Y-82714574D01*
X100023520Y-82975727D01*
X100180563Y-83210759D01*
X100380441Y-83410637D01*
X100615473Y-83567680D01*
X100876626Y-83675853D01*
X101153865Y-83731000D01*
X101436535Y-83731000D01*
X101713774Y-83675853D01*
X101974927Y-83567680D01*
X102209959Y-83410637D01*
X102409837Y-83210759D01*
X102566880Y-82975727D01*
X102675053Y-82714574D01*
X102730200Y-82437335D01*
X102730200Y-82154665D01*
X102675053Y-81877426D01*
X102566880Y-81616273D01*
X102409837Y-81381241D01*
X102209959Y-81181363D01*
X101974927Y-81024320D01*
X101713774Y-80916147D01*
X101436535Y-80861000D01*
X101153865Y-80861000D01*
X100876626Y-80916147D01*
X100615473Y-81024320D01*
X100380441Y-81181363D01*
X100180563Y-81381241D01*
X100023520Y-81616273D01*
X99915347Y-81877426D01*
X99860200Y-82154665D01*
X99398654Y-82154665D01*
X99512109Y-81946960D01*
X99417270Y-81682119D01*
X99272585Y-81440869D01*
X99083614Y-81232481D01*
X98857620Y-81064963D01*
X98603287Y-80944754D01*
X98469239Y-80904096D01*
X98247200Y-81026085D01*
X97993200Y-81026085D01*
X97771161Y-80904096D01*
X97637113Y-80944754D01*
X97382780Y-81064963D01*
X97156786Y-81232481D01*
X96967815Y-81440869D01*
X96823130Y-81682119D01*
X96728291Y-81946960D01*
X96409210Y-81946960D01*
X96409210Y-70993000D01*
X97247889Y-70993000D01*
X97205441Y-71021363D01*
X97005563Y-71221241D01*
X96848520Y-71456273D01*
X96740347Y-71717426D01*
X96685200Y-71994665D01*
X96685200Y-72277335D01*
X96740347Y-72554574D01*
X96848520Y-72815727D01*
X97005563Y-73050759D01*
X97205441Y-73250637D01*
X97440473Y-73407680D01*
X97701626Y-73515853D01*
X97978865Y-73571000D01*
X98261535Y-73571000D01*
X98538774Y-73515853D01*
X98799927Y-73407680D01*
X99034959Y-73250637D01*
X99234837Y-73050759D01*
X99391880Y-72815727D01*
X99500053Y-72554574D01*
X99555200Y-72277335D01*
X99555200Y-71994665D01*
X99500053Y-71717426D01*
X99391880Y-71456273D01*
X99234837Y-71221241D01*
X99034959Y-71021363D01*
X98992511Y-70993000D01*
X100422889Y-70993000D01*
X100380441Y-71021363D01*
X100180563Y-71221241D01*
X100023520Y-71456273D01*
X99915347Y-71717426D01*
X99860200Y-71994665D01*
X99860200Y-72277335D01*
X99915347Y-72554574D01*
X100023520Y-72815727D01*
X100180563Y-73050759D01*
X100380441Y-73250637D01*
X100615473Y-73407680D01*
X100876626Y-73515853D01*
X101153865Y-73571000D01*
X101436535Y-73571000D01*
X101713774Y-73515853D01*
X101974927Y-73407680D01*
X102209959Y-73250637D01*
X102409837Y-73050759D01*
X102566880Y-72815727D01*
X102675053Y-72554574D01*
X102730200Y-72277335D01*
X102730200Y-71994665D01*
X102675053Y-71717426D01*
X102566880Y-71456273D01*
X102409837Y-71221241D01*
X102209959Y-71021363D01*
X102167511Y-70993000D01*
X110695201Y-70993000D01*
X110695200Y-94927687D01*
X110476695Y-95073688D01*
X110262888Y-95287495D01*
X110094901Y-95538905D01*
X109979189Y-95818257D01*
X109920200Y-96114816D01*
X109920200Y-96417184D01*
X109979189Y-96713743D01*
X110094901Y-96993095D01*
X110262888Y-97244505D01*
X110476695Y-97458312D01*
X110728105Y-97626299D01*
X111007457Y-97742011D01*
X111304016Y-97801000D01*
X111606384Y-97801000D01*
X111902943Y-97742011D01*
X112182295Y-97626299D01*
X112433705Y-97458312D01*
X112647512Y-97244505D01*
X112815499Y-96993095D01*
X112931211Y-96713743D01*
X112990200Y-96417184D01*
X112990200Y-96114816D01*
X113730200Y-96114816D01*
X113730200Y-96417184D01*
X113789189Y-96713743D01*
X113904901Y-96993095D01*
X114072888Y-97244505D01*
X114286695Y-97458312D01*
X114538105Y-97626299D01*
X114817457Y-97742011D01*
X115114016Y-97801000D01*
X115416384Y-97801000D01*
X115712943Y-97742011D01*
X115992295Y-97626299D01*
X116243705Y-97458312D01*
X116457512Y-97244505D01*
X116625499Y-96993095D01*
X116741211Y-96713743D01*
X116800200Y-96417184D01*
X116800200Y-96114816D01*
X116741211Y-95818257D01*
X116625499Y-95538905D01*
X116457512Y-95287495D01*
X116243705Y-95073688D01*
X115992295Y-94905701D01*
X115712943Y-94789989D01*
X115416384Y-94731000D01*
X115114016Y-94731000D01*
X114817457Y-94789989D01*
X114538105Y-94905701D01*
X114286695Y-95073688D01*
X114072888Y-95287495D01*
X113904901Y-95538905D01*
X113789189Y-95818257D01*
X113730200Y-96114816D01*
X112990200Y-96114816D01*
X112931211Y-95818257D01*
X112815499Y-95538905D01*
X112647512Y-95287495D01*
X112433705Y-95073688D01*
X112215200Y-94927687D01*
X112215200Y-69978500D01*
X113436400Y-69062600D01*
X113454757Y-69045782D01*
X113469480Y-69025706D01*
X113480004Y-69003143D01*
X113485924Y-68978961D01*
X113487200Y-68961000D01*
X113487200Y-65908301D01*
X114783130Y-64612372D01*
X114937108Y-64643000D01*
X115212292Y-64643000D01*
X115482190Y-64589314D01*
X115736427Y-64484005D01*
X115965235Y-64331120D01*
X116159820Y-64136535D01*
X116312705Y-63907727D01*
X116418014Y-63653490D01*
X116471700Y-63383592D01*
X116471700Y-63108408D01*
X116418014Y-62838510D01*
X116312705Y-62584273D01*
X116159820Y-62355465D01*
X115965235Y-62160880D01*
X115736427Y-62007995D01*
X115659185Y-61976000D01*
X115736427Y-61944005D01*
X115965235Y-61791120D01*
X116159820Y-61596535D01*
X116312705Y-61367727D01*
X116418014Y-61113490D01*
X116471700Y-60843592D01*
X116471700Y-60637801D01*
X118315201Y-62481303D01*
X118315201Y-73921971D01*
X118013075Y-73469807D01*
X117563593Y-73020325D01*
X117035058Y-72667170D01*
X116447781Y-72423912D01*
X115824332Y-72299900D01*
X115188668Y-72299900D01*
X114565219Y-72423912D01*
X113977942Y-72667170D01*
X113449407Y-73020325D01*
X112999925Y-73469807D01*
X112646770Y-73998342D01*
X112403512Y-74585619D01*
X112279500Y-75209068D01*
X112279500Y-75844732D01*
X112403512Y-76468181D01*
X112646770Y-77055458D01*
X112999925Y-77583993D01*
X113449407Y-78033475D01*
X113977942Y-78386630D01*
X114565219Y-78629888D01*
X115188668Y-78753900D01*
X115824332Y-78753900D01*
X116447781Y-78629888D01*
X117035058Y-78386630D01*
X117563593Y-78033475D01*
X118013075Y-77583993D01*
X118315201Y-77131829D01*
X118315200Y-94927687D01*
X118096695Y-95073688D01*
X117882888Y-95287495D01*
X117714901Y-95538905D01*
X117599189Y-95818257D01*
X117540200Y-96114816D01*
X117540200Y-96417184D01*
X117599189Y-96713743D01*
X117714901Y-96993095D01*
X117882888Y-97244505D01*
X118096695Y-97458312D01*
X118348105Y-97626299D01*
X118627457Y-97742011D01*
X118924016Y-97801000D01*
X119226384Y-97801000D01*
X119522943Y-97742011D01*
X119802295Y-97626299D01*
X120053705Y-97458312D01*
X120267512Y-97244505D01*
X120435499Y-96993095D01*
X120551211Y-96713743D01*
X120610200Y-96417184D01*
X120610200Y-96114816D01*
X120551211Y-95818257D01*
X120435499Y-95538905D01*
X120267512Y-95287495D01*
X120053705Y-95073688D01*
X119835200Y-94927687D01*
X119835200Y-62203822D01*
X119838876Y-62166499D01*
X119835200Y-62129176D01*
X119835200Y-62129167D01*
X119824203Y-62017514D01*
X119780746Y-61874253D01*
X119710174Y-61742224D01*
X119615201Y-61626499D01*
X119586203Y-61602701D01*
X116441072Y-58457571D01*
X116471700Y-58303592D01*
X116471700Y-58097801D01*
X122125201Y-63751303D01*
X122125200Y-94927687D01*
X121906695Y-95073688D01*
X121692888Y-95287495D01*
X121524901Y-95538905D01*
X121409189Y-95818257D01*
X121350200Y-96114816D01*
X121350200Y-96417184D01*
X121409189Y-96713743D01*
X121524901Y-96993095D01*
X121692888Y-97244505D01*
X121906695Y-97458312D01*
X122158105Y-97626299D01*
X122437457Y-97742011D01*
X122734016Y-97801000D01*
X123036384Y-97801000D01*
X123332943Y-97742011D01*
X123612295Y-97626299D01*
X123863705Y-97458312D01*
X124077512Y-97244505D01*
X124245499Y-96993095D01*
X124361211Y-96713743D01*
X124420200Y-96417184D01*
X124420200Y-96114816D01*
X124361211Y-95818257D01*
X124245499Y-95538905D01*
X124077512Y-95287495D01*
X123863705Y-95073688D01*
X123645200Y-94927687D01*
X123645200Y-63473822D01*
X123648876Y-63436499D01*
X123645200Y-63399176D01*
X123645200Y-63399167D01*
X123634203Y-63287514D01*
X123590746Y-63144253D01*
X123566749Y-63099359D01*
X123520174Y-63012223D01*
X123448999Y-62925497D01*
X123425201Y-62896499D01*
X123396203Y-62872701D01*
X116441072Y-55917571D01*
X116471700Y-55763592D01*
X116471700Y-55557801D01*
X125935201Y-65021303D01*
X125935200Y-94927687D01*
X125716695Y-95073688D01*
X125502888Y-95287495D01*
X125334901Y-95538905D01*
X125219189Y-95818257D01*
X125160200Y-96114816D01*
X125160200Y-96417184D01*
X125219189Y-96713743D01*
X125334901Y-96993095D01*
X125502888Y-97244505D01*
X125716695Y-97458312D01*
X125968105Y-97626299D01*
X126247457Y-97742011D01*
X126544016Y-97801000D01*
X126846384Y-97801000D01*
X127142943Y-97742011D01*
X127422295Y-97626299D01*
X127673705Y-97458312D01*
X127887512Y-97244505D01*
X128055499Y-96993095D01*
X128171211Y-96713743D01*
X128230200Y-96417184D01*
X128230200Y-96114816D01*
X128171211Y-95818257D01*
X128055499Y-95538905D01*
X127887512Y-95287495D01*
X127673705Y-95073688D01*
X127455200Y-94927687D01*
X127455200Y-94290801D01*
X129021468Y-95857071D01*
X128970200Y-96114816D01*
X128970200Y-96417184D01*
X129029189Y-96713743D01*
X129144901Y-96993095D01*
X129312888Y-97244505D01*
X129526695Y-97458312D01*
X129778105Y-97626299D01*
X130057457Y-97742011D01*
X130354016Y-97801000D01*
X130656384Y-97801000D01*
X130952943Y-97742011D01*
X131232295Y-97626299D01*
X131483705Y-97458312D01*
X131697512Y-97244505D01*
X131865499Y-96993095D01*
X131981211Y-96713743D01*
X132040200Y-96417184D01*
X132040200Y-96114816D01*
X131981211Y-95818257D01*
X131865499Y-95538905D01*
X131697512Y-95287495D01*
X131483705Y-95073688D01*
X131232295Y-94905701D01*
X130952943Y-94789989D01*
X130656384Y-94731000D01*
X130354016Y-94731000D01*
X130096271Y-94782268D01*
X128725200Y-93411199D01*
X128725200Y-91750801D01*
X132831469Y-95857070D01*
X132780200Y-96114816D01*
X132780200Y-96417184D01*
X132839189Y-96713743D01*
X132954901Y-96993095D01*
X133122888Y-97244505D01*
X133336695Y-97458312D01*
X133588105Y-97626299D01*
X133867457Y-97742011D01*
X134164016Y-97801000D01*
X134466384Y-97801000D01*
X134762943Y-97742011D01*
X135042295Y-97626299D01*
X135293705Y-97458312D01*
X135458200Y-97293817D01*
X135458200Y-98044000D01*
X78562200Y-98044000D01*
X78562200Y-95352890D01*
X79533724Y-95352890D01*
X79578375Y-95500099D01*
X79703559Y-95762920D01*
X79877612Y-95996269D01*
X80093845Y-96191178D01*
X80343948Y-96340157D01*
X80618309Y-96437481D01*
X80848200Y-96316814D01*
X80848200Y-95123000D01*
X79655045Y-95123000D01*
X79533724Y-95352890D01*
X78562200Y-95352890D01*
X78562200Y-69945040D01*
X79583291Y-69945040D01*
X79678130Y-70209881D01*
X79822815Y-70451131D01*
X80011786Y-70659519D01*
X80237780Y-70827037D01*
X80492113Y-70947246D01*
X80626161Y-70987904D01*
X80848200Y-70865915D01*
X80848200Y-69723000D01*
X79704576Y-69723000D01*
X79583291Y-69945040D01*
X78562200Y-69945040D01*
X78562200Y-69246960D01*
X79583291Y-69246960D01*
X79704576Y-69469000D01*
X80848200Y-69469000D01*
X80848200Y-68326085D01*
X80626161Y-68204096D01*
X80492113Y-68244754D01*
X80237780Y-68364963D01*
X80011786Y-68532481D01*
X79822815Y-68740869D01*
X79678130Y-68982119D01*
X79583291Y-69246960D01*
X78562200Y-69246960D01*
X78562200Y-54699070D01*
X78858980Y-54699070D01*
X78873938Y-54773276D01*
X78981078Y-55026535D01*
X79135568Y-55254026D01*
X79331471Y-55447006D01*
X79561258Y-55598059D01*
X79816099Y-55701381D01*
X80086200Y-55753000D01*
X80848200Y-55753000D01*
X80848200Y-54483000D01*
X78981480Y-54483000D01*
X78858980Y-54699070D01*
X78562200Y-54699070D01*
X78562200Y-51747801D01*
X78829002Y-52014604D01*
G37*
%TD.AperFunction*%
D32*
X135458200Y-49257948D02*
X134533272Y-48333021D01*
X134533272Y-47791000D01*
X134521012Y-47666518D01*
X134484702Y-47546820D01*
X134425737Y-47436506D01*
X134346385Y-47339815D01*
X134249694Y-47260463D01*
X134139380Y-47201498D01*
X134058734Y-47177034D01*
X134142788Y-47101269D01*
X134316841Y-46867920D01*
X134442025Y-46605099D01*
X134486676Y-46457890D01*
X134365355Y-46228000D01*
X133172200Y-46228000D01*
X133172200Y-46248000D01*
X132918200Y-46248000D01*
X132918200Y-46228000D01*
X131725045Y-46228000D01*
X131603724Y-46457890D01*
X131648375Y-46605099D01*
X131773559Y-46867920D01*
X131947612Y-47101269D01*
X132031666Y-47177034D01*
X131951020Y-47201498D01*
X131840706Y-47260463D01*
X131744015Y-47339815D01*
X131664663Y-47436506D01*
X131605698Y-47546820D01*
X131569388Y-47666518D01*
X131557128Y-47791000D01*
X131557128Y-49491000D01*
X131569388Y-49615482D01*
X131605698Y-49735180D01*
X131664663Y-49845494D01*
X131744015Y-49942185D01*
X131840706Y-50021537D01*
X131951020Y-50080502D01*
X132070718Y-50116812D01*
X132195200Y-50129072D01*
X132737221Y-50129072D01*
X133680200Y-51072052D01*
X133680200Y-55551674D01*
X133478358Y-55468068D01*
X133191460Y-55411000D01*
X132898940Y-55411000D01*
X132612042Y-55468068D01*
X132341789Y-55580010D01*
X132098568Y-55742525D01*
X131891725Y-55949368D01*
X131729210Y-56192589D01*
X131617268Y-56462842D01*
X131560200Y-56749740D01*
X131560200Y-57042260D01*
X131617268Y-57329158D01*
X131729210Y-57599411D01*
X131891725Y-57842632D01*
X132098568Y-58049475D01*
X132272960Y-58166000D01*
X132098568Y-58282525D01*
X131891725Y-58489368D01*
X131729210Y-58732589D01*
X131617268Y-59002842D01*
X131560200Y-59289740D01*
X131560200Y-59582260D01*
X131617268Y-59869158D01*
X131729210Y-60139411D01*
X131891725Y-60382632D01*
X132098568Y-60589475D01*
X132280734Y-60711195D01*
X132163845Y-60780822D01*
X131947612Y-60975731D01*
X131773559Y-61209080D01*
X131648375Y-61471901D01*
X131603724Y-61619110D01*
X131725045Y-61849000D01*
X132918200Y-61849000D01*
X132918200Y-61829000D01*
X133172200Y-61829000D01*
X133172200Y-61849000D01*
X133192200Y-61849000D01*
X133192200Y-62103000D01*
X133172200Y-62103000D01*
X133172200Y-62123000D01*
X132918200Y-62123000D01*
X132918200Y-62103000D01*
X131725045Y-62103000D01*
X131603724Y-62332890D01*
X131648375Y-62480099D01*
X131773559Y-62742920D01*
X131947612Y-62976269D01*
X132031666Y-63052034D01*
X131951020Y-63076498D01*
X131840706Y-63135463D01*
X131744015Y-63214815D01*
X131664663Y-63311506D01*
X131605698Y-63421820D01*
X131569388Y-63541518D01*
X131557128Y-63666000D01*
X131557128Y-65366000D01*
X131569388Y-65490482D01*
X131605698Y-65610180D01*
X131664663Y-65720494D01*
X131744015Y-65817185D01*
X131840706Y-65896537D01*
X131951020Y-65955502D01*
X132070718Y-65991812D01*
X132195200Y-66004072D01*
X133895200Y-66004072D01*
X134019682Y-65991812D01*
X134139380Y-65955502D01*
X134249694Y-65896537D01*
X134346385Y-65817185D01*
X134425737Y-65720494D01*
X134484702Y-65610180D01*
X134521012Y-65490482D01*
X134533272Y-65366000D01*
X134533272Y-64823979D01*
X135458200Y-63899052D01*
X135458200Y-95238183D01*
X135293705Y-95073688D01*
X135042295Y-94905701D01*
X134762943Y-94789989D01*
X134466384Y-94731000D01*
X134164016Y-94731000D01*
X133906270Y-94782269D01*
X129995200Y-90871199D01*
X129995200Y-87662269D01*
X131668536Y-87662269D01*
X131727997Y-87896037D01*
X131966442Y-88006934D01*
X132221940Y-88069183D01*
X132484673Y-88080390D01*
X132744544Y-88040125D01*
X132991566Y-87949935D01*
X133092403Y-87896037D01*
X133151864Y-87662269D01*
X132410200Y-86920605D01*
X131668536Y-87662269D01*
X129995200Y-87662269D01*
X129995200Y-86815473D01*
X131070810Y-86815473D01*
X131111075Y-87075344D01*
X131201265Y-87322366D01*
X131255163Y-87423203D01*
X131488931Y-87482664D01*
X132230595Y-86741000D01*
X132589805Y-86741000D01*
X133331469Y-87482664D01*
X133565237Y-87423203D01*
X133676134Y-87184758D01*
X133738383Y-86929260D01*
X133749590Y-86666527D01*
X133709325Y-86406656D01*
X133619135Y-86159634D01*
X133565237Y-86058797D01*
X133331469Y-85999336D01*
X132589805Y-86741000D01*
X132230595Y-86741000D01*
X131488931Y-85999336D01*
X131255163Y-86058797D01*
X131144266Y-86297242D01*
X131082017Y-86552740D01*
X131070810Y-86815473D01*
X129995200Y-86815473D01*
X129995200Y-84069514D01*
X131075200Y-84069514D01*
X131075200Y-84332486D01*
X131126504Y-84590405D01*
X131227139Y-84833359D01*
X131373238Y-85052013D01*
X131559187Y-85237962D01*
X131777841Y-85384061D01*
X131991644Y-85472621D01*
X131828834Y-85532065D01*
X131727997Y-85585963D01*
X131668536Y-85819731D01*
X132410200Y-86561395D01*
X133151864Y-85819731D01*
X133092403Y-85585963D01*
X132853958Y-85475066D01*
X132834373Y-85470294D01*
X133042559Y-85384061D01*
X133261213Y-85237962D01*
X133447162Y-85052013D01*
X133593261Y-84833359D01*
X133693896Y-84590405D01*
X133745200Y-84332486D01*
X133745200Y-84069514D01*
X133693896Y-83811595D01*
X133593261Y-83568641D01*
X133447162Y-83349987D01*
X133261213Y-83164038D01*
X133042559Y-83017939D01*
X132799605Y-82917304D01*
X132541686Y-82866000D01*
X132278714Y-82866000D01*
X132020795Y-82917304D01*
X131777841Y-83017939D01*
X131559187Y-83164038D01*
X131373238Y-83349987D01*
X131227139Y-83568641D01*
X131126504Y-83811595D01*
X131075200Y-84069514D01*
X129995200Y-84069514D01*
X129995200Y-62203822D01*
X129998876Y-62166499D01*
X129995200Y-62129176D01*
X129995200Y-62129167D01*
X129984203Y-62017514D01*
X129940746Y-61874253D01*
X129896310Y-61791120D01*
X129870174Y-61742223D01*
X129798999Y-61655497D01*
X129775201Y-61626499D01*
X129746203Y-61602701D01*
X116441072Y-48297571D01*
X116471700Y-48143592D01*
X116471700Y-47868408D01*
X116418014Y-47598510D01*
X116312705Y-47344273D01*
X116159820Y-47115465D01*
X115965235Y-46920880D01*
X115736427Y-46767995D01*
X115659185Y-46736000D01*
X115736427Y-46704005D01*
X115965235Y-46551120D01*
X116159820Y-46356535D01*
X116312705Y-46127727D01*
X116418014Y-45873490D01*
X116471700Y-45603592D01*
X116471700Y-45328408D01*
X116418014Y-45058510D01*
X116312705Y-44804273D01*
X116159820Y-44575465D01*
X115965235Y-44380880D01*
X115736427Y-44227995D01*
X115659185Y-44196000D01*
X115736427Y-44164005D01*
X115965235Y-44011120D01*
X116159820Y-43816535D01*
X116312705Y-43587727D01*
X116418014Y-43333490D01*
X116471700Y-43063592D01*
X116471700Y-42788408D01*
X116418014Y-42518510D01*
X116312705Y-42264273D01*
X116159820Y-42035465D01*
X115965235Y-41840880D01*
X115736427Y-41687995D01*
X115582534Y-41624250D01*
X115736427Y-41560505D01*
X115965235Y-41407620D01*
X116159820Y-41213035D01*
X116312705Y-40984227D01*
X116418014Y-40729990D01*
X116471700Y-40460092D01*
X116471700Y-40184908D01*
X116418014Y-39915010D01*
X116312705Y-39660773D01*
X116159820Y-39431965D01*
X115965235Y-39237380D01*
X115736427Y-39084495D01*
X115659185Y-39052500D01*
X115736427Y-39020505D01*
X115965235Y-38867620D01*
X116159820Y-38673035D01*
X116312705Y-38444227D01*
X116418014Y-38189990D01*
X116471700Y-37920092D01*
X116471700Y-37644908D01*
X116418014Y-37375010D01*
X116312705Y-37120773D01*
X116159820Y-36891965D01*
X115965235Y-36697380D01*
X115736427Y-36544495D01*
X115659185Y-36512500D01*
X115736427Y-36480505D01*
X115965235Y-36327620D01*
X116159820Y-36133035D01*
X116312705Y-35904227D01*
X116418014Y-35649990D01*
X116471700Y-35380092D01*
X116471700Y-35104908D01*
X116418014Y-34835010D01*
X116312705Y-34580773D01*
X116159820Y-34351965D01*
X115965235Y-34157380D01*
X115736427Y-34004495D01*
X115659185Y-33972500D01*
X115736427Y-33940505D01*
X115965235Y-33787620D01*
X116159820Y-33593035D01*
X116312705Y-33364227D01*
X116418014Y-33109990D01*
X116471700Y-32840092D01*
X116471700Y-32564908D01*
X116418014Y-32295010D01*
X116312705Y-32040773D01*
X116159820Y-31811965D01*
X115965235Y-31617380D01*
X115736427Y-31464495D01*
X115659185Y-31432500D01*
X115736427Y-31400505D01*
X115965235Y-31247620D01*
X116159820Y-31053035D01*
X116312705Y-30824227D01*
X116358056Y-30714740D01*
X131560200Y-30714740D01*
X131560200Y-31007260D01*
X131617268Y-31294158D01*
X131729210Y-31564411D01*
X131891725Y-31807632D01*
X132098568Y-32014475D01*
X132272960Y-32131000D01*
X132098568Y-32247525D01*
X131891725Y-32454368D01*
X131729210Y-32697589D01*
X131617268Y-32967842D01*
X131560200Y-33254740D01*
X131560200Y-33547260D01*
X131617268Y-33834158D01*
X131729210Y-34104411D01*
X131891725Y-34347632D01*
X132098568Y-34554475D01*
X132272960Y-34671000D01*
X132098568Y-34787525D01*
X131891725Y-34994368D01*
X131729210Y-35237589D01*
X131617268Y-35507842D01*
X131560200Y-35794740D01*
X131560200Y-36087260D01*
X131617268Y-36374158D01*
X131729210Y-36644411D01*
X131891725Y-36887632D01*
X132098568Y-37094475D01*
X132272960Y-37211000D01*
X132098568Y-37327525D01*
X131891725Y-37534368D01*
X131729210Y-37777589D01*
X131617268Y-38047842D01*
X131560200Y-38334740D01*
X131560200Y-38627260D01*
X131617268Y-38914158D01*
X131729210Y-39184411D01*
X131891725Y-39427632D01*
X132098568Y-39634475D01*
X132272960Y-39751000D01*
X132098568Y-39867525D01*
X131891725Y-40074368D01*
X131729210Y-40317589D01*
X131617268Y-40587842D01*
X131560200Y-40874740D01*
X131560200Y-41167260D01*
X131617268Y-41454158D01*
X131729210Y-41724411D01*
X131891725Y-41967632D01*
X132098568Y-42174475D01*
X132272960Y-42291000D01*
X132098568Y-42407525D01*
X131891725Y-42614368D01*
X131729210Y-42857589D01*
X131617268Y-43127842D01*
X131560200Y-43414740D01*
X131560200Y-43707260D01*
X131617268Y-43994158D01*
X131729210Y-44264411D01*
X131891725Y-44507632D01*
X132098568Y-44714475D01*
X132280734Y-44836195D01*
X132163845Y-44905822D01*
X131947612Y-45100731D01*
X131773559Y-45334080D01*
X131648375Y-45596901D01*
X131603724Y-45744110D01*
X131725045Y-45974000D01*
X132918200Y-45974000D01*
X132918200Y-45954000D01*
X133172200Y-45954000D01*
X133172200Y-45974000D01*
X134365355Y-45974000D01*
X134486676Y-45744110D01*
X134442025Y-45596901D01*
X134316841Y-45334080D01*
X134142788Y-45100731D01*
X133926555Y-44905822D01*
X133809666Y-44836195D01*
X133991832Y-44714475D01*
X134198675Y-44507632D01*
X134361190Y-44264411D01*
X134473132Y-43994158D01*
X134530200Y-43707260D01*
X134530200Y-43414740D01*
X134473132Y-43127842D01*
X134361190Y-42857589D01*
X134198675Y-42614368D01*
X133991832Y-42407525D01*
X133817440Y-42291000D01*
X133991832Y-42174475D01*
X134198675Y-41967632D01*
X134361190Y-41724411D01*
X134473132Y-41454158D01*
X134530200Y-41167260D01*
X134530200Y-40874740D01*
X134473132Y-40587842D01*
X134361190Y-40317589D01*
X134198675Y-40074368D01*
X133991832Y-39867525D01*
X133817440Y-39751000D01*
X133991832Y-39634475D01*
X134198675Y-39427632D01*
X134361190Y-39184411D01*
X134473132Y-38914158D01*
X134530200Y-38627260D01*
X134530200Y-38334740D01*
X134473132Y-38047842D01*
X134361190Y-37777589D01*
X134198675Y-37534368D01*
X133991832Y-37327525D01*
X133817440Y-37211000D01*
X133991832Y-37094475D01*
X134198675Y-36887632D01*
X134361190Y-36644411D01*
X134473132Y-36374158D01*
X134530200Y-36087260D01*
X134530200Y-35794740D01*
X134473132Y-35507842D01*
X134361190Y-35237589D01*
X134198675Y-34994368D01*
X133991832Y-34787525D01*
X133817440Y-34671000D01*
X133991832Y-34554475D01*
X134198675Y-34347632D01*
X134361190Y-34104411D01*
X134473132Y-33834158D01*
X134530200Y-33547260D01*
X134530200Y-33254740D01*
X134473132Y-32967842D01*
X134361190Y-32697589D01*
X134198675Y-32454368D01*
X133991832Y-32247525D01*
X133817440Y-32131000D01*
X133991832Y-32014475D01*
X134198675Y-31807632D01*
X134361190Y-31564411D01*
X134473132Y-31294158D01*
X134530200Y-31007260D01*
X134530200Y-30714740D01*
X134473132Y-30427842D01*
X134361190Y-30157589D01*
X134198675Y-29914368D01*
X133991832Y-29707525D01*
X133748611Y-29545010D01*
X133478358Y-29433068D01*
X133191460Y-29376000D01*
X132898940Y-29376000D01*
X132612042Y-29433068D01*
X132341789Y-29545010D01*
X132098568Y-29707525D01*
X131891725Y-29914368D01*
X131729210Y-30157589D01*
X131617268Y-30427842D01*
X131560200Y-30714740D01*
X116358056Y-30714740D01*
X116418014Y-30569990D01*
X116471700Y-30300092D01*
X116471700Y-30024908D01*
X116418014Y-29755010D01*
X116312705Y-29500773D01*
X116159820Y-29271965D01*
X115965235Y-29077380D01*
X115736427Y-28924495D01*
X115659185Y-28892500D01*
X115736427Y-28860505D01*
X115965235Y-28707620D01*
X116159820Y-28513035D01*
X116312705Y-28284227D01*
X116418014Y-28029990D01*
X116471700Y-27760092D01*
X116471700Y-27484908D01*
X116418014Y-27215010D01*
X116312705Y-26960773D01*
X116159820Y-26731965D01*
X115965235Y-26537380D01*
X115736427Y-26384495D01*
X115659185Y-26352500D01*
X115736427Y-26320505D01*
X115965235Y-26167620D01*
X116159820Y-25973035D01*
X116312705Y-25744227D01*
X116418014Y-25489990D01*
X116471700Y-25220092D01*
X116471700Y-24944908D01*
X116467674Y-24924665D01*
X119545200Y-24924665D01*
X119545200Y-25207335D01*
X119600347Y-25484574D01*
X119708520Y-25745727D01*
X119865563Y-25980759D01*
X120065441Y-26180637D01*
X120300473Y-26337680D01*
X120561626Y-26445853D01*
X120838865Y-26501000D01*
X121121535Y-26501000D01*
X121398774Y-26445853D01*
X121659927Y-26337680D01*
X121894959Y-26180637D01*
X122094837Y-25980759D01*
X122251880Y-25745727D01*
X122360053Y-25484574D01*
X122415200Y-25207335D01*
X122415200Y-25004665D01*
X123990200Y-25004665D01*
X123990200Y-25287335D01*
X124045347Y-25564574D01*
X124153520Y-25825727D01*
X124310563Y-26060759D01*
X124510441Y-26260637D01*
X124745473Y-26417680D01*
X125006626Y-26525853D01*
X125283865Y-26581000D01*
X125566535Y-26581000D01*
X125843774Y-26525853D01*
X126104927Y-26417680D01*
X126339959Y-26260637D01*
X126539837Y-26060759D01*
X126696880Y-25825727D01*
X126805053Y-25564574D01*
X126860200Y-25287335D01*
X126860200Y-25004665D01*
X126805053Y-24727426D01*
X126696880Y-24466273D01*
X126658657Y-24409068D01*
X127519500Y-24409068D01*
X127519500Y-25044732D01*
X127643512Y-25668181D01*
X127886770Y-26255458D01*
X128239925Y-26783993D01*
X128689407Y-27233475D01*
X129217942Y-27586630D01*
X129805219Y-27829888D01*
X130428668Y-27953900D01*
X131064332Y-27953900D01*
X131687781Y-27829888D01*
X132275058Y-27586630D01*
X132803593Y-27233475D01*
X133253075Y-26783993D01*
X133606230Y-26255458D01*
X133849488Y-25668181D01*
X133973500Y-25044732D01*
X133973500Y-24409068D01*
X133849488Y-23785619D01*
X133606230Y-23198342D01*
X133253075Y-22669807D01*
X132803593Y-22220325D01*
X132275058Y-21867170D01*
X131687781Y-21623912D01*
X131064332Y-21499900D01*
X130428668Y-21499900D01*
X129805219Y-21623912D01*
X129217942Y-21867170D01*
X128689407Y-22220325D01*
X128239925Y-22669807D01*
X127886770Y-23198342D01*
X127643512Y-23785619D01*
X127519500Y-24409068D01*
X126658657Y-24409068D01*
X126539837Y-24231241D01*
X126339959Y-24031363D01*
X126104927Y-23874320D01*
X125843774Y-23766147D01*
X125566535Y-23711000D01*
X125283865Y-23711000D01*
X125006626Y-23766147D01*
X124745473Y-23874320D01*
X124510441Y-24031363D01*
X124310563Y-24231241D01*
X124153520Y-24466273D01*
X124045347Y-24727426D01*
X123990200Y-25004665D01*
X122415200Y-25004665D01*
X122415200Y-24924665D01*
X122360053Y-24647426D01*
X122251880Y-24386273D01*
X122094837Y-24151241D01*
X121894959Y-23951363D01*
X121659927Y-23794320D01*
X121398774Y-23686147D01*
X121121535Y-23631000D01*
X120838865Y-23631000D01*
X120561626Y-23686147D01*
X120300473Y-23794320D01*
X120065441Y-23951363D01*
X119865563Y-24151241D01*
X119708520Y-24386273D01*
X119600347Y-24647426D01*
X119545200Y-24924665D01*
X116467674Y-24924665D01*
X116418014Y-24675010D01*
X116312705Y-24420773D01*
X116159820Y-24191965D01*
X115965235Y-23997380D01*
X115736427Y-23844495D01*
X115735836Y-23844250D01*
X115736427Y-23844005D01*
X115965235Y-23691120D01*
X116159820Y-23496535D01*
X116312705Y-23267727D01*
X116418014Y-23013490D01*
X116471700Y-22743592D01*
X116471700Y-22468408D01*
X116418014Y-22198510D01*
X116312705Y-21944273D01*
X116159820Y-21715465D01*
X115965235Y-21520880D01*
X115736427Y-21367995D01*
X115664757Y-21338308D01*
X115677723Y-21333636D01*
X115793680Y-21271656D01*
X115853089Y-21058702D01*
X120167103Y-21058702D01*
X120238686Y-21302671D01*
X120494196Y-21423571D01*
X120768384Y-21492300D01*
X121050712Y-21506217D01*
X121330330Y-21464787D01*
X121596492Y-21369603D01*
X121721714Y-21302671D01*
X121769824Y-21138702D01*
X124612103Y-21138702D01*
X124683686Y-21382671D01*
X124939196Y-21503571D01*
X125213384Y-21572300D01*
X125495712Y-21586217D01*
X125775330Y-21544787D01*
X126041492Y-21449603D01*
X126166714Y-21382671D01*
X126238297Y-21138702D01*
X125425200Y-20325605D01*
X124612103Y-21138702D01*
X121769824Y-21138702D01*
X121793297Y-21058702D01*
X120980200Y-20245605D01*
X120167103Y-21058702D01*
X115853089Y-21058702D01*
X115860660Y-21031565D01*
X115074700Y-20245605D01*
X114288740Y-21031565D01*
X114355720Y-21271656D01*
X114491460Y-21335485D01*
X114412973Y-21367995D01*
X114184165Y-21520880D01*
X113989580Y-21715465D01*
X113836695Y-21944273D01*
X113731386Y-22198510D01*
X113677700Y-22468408D01*
X113677700Y-22743592D01*
X113731386Y-23013490D01*
X113836695Y-23267727D01*
X113989580Y-23496535D01*
X114184165Y-23691120D01*
X114412973Y-23844005D01*
X114413564Y-23844250D01*
X114412973Y-23844495D01*
X114184165Y-23997380D01*
X113989580Y-24191965D01*
X113836695Y-24420773D01*
X113731386Y-24675010D01*
X113677700Y-24944908D01*
X113677700Y-25220092D01*
X113731386Y-25489990D01*
X113836695Y-25744227D01*
X113989580Y-25973035D01*
X114184165Y-26167620D01*
X114412973Y-26320505D01*
X114490215Y-26352500D01*
X114412973Y-26384495D01*
X114184165Y-26537380D01*
X113989580Y-26731965D01*
X113836695Y-26960773D01*
X113731386Y-27215010D01*
X113677700Y-27484908D01*
X113677700Y-27760092D01*
X113731386Y-28029990D01*
X113836695Y-28284227D01*
X113989580Y-28513035D01*
X114184165Y-28707620D01*
X114412973Y-28860505D01*
X114490215Y-28892500D01*
X114412973Y-28924495D01*
X114184165Y-29077380D01*
X113989580Y-29271965D01*
X113836695Y-29500773D01*
X113731386Y-29755010D01*
X113677700Y-30024908D01*
X113677700Y-30300092D01*
X113731386Y-30569990D01*
X113836695Y-30824227D01*
X113989580Y-31053035D01*
X114184165Y-31247620D01*
X114412973Y-31400505D01*
X114490215Y-31432500D01*
X114412973Y-31464495D01*
X114184165Y-31617380D01*
X113989580Y-31811965D01*
X113836695Y-32040773D01*
X113731386Y-32295010D01*
X113677700Y-32564908D01*
X113677700Y-32840092D01*
X113731386Y-33109990D01*
X113836695Y-33364227D01*
X113989580Y-33593035D01*
X114184165Y-33787620D01*
X114412973Y-33940505D01*
X114490215Y-33972500D01*
X114412973Y-34004495D01*
X114184165Y-34157380D01*
X113989580Y-34351965D01*
X113836695Y-34580773D01*
X113731386Y-34835010D01*
X113677700Y-35104908D01*
X113677700Y-35380092D01*
X113731386Y-35649990D01*
X113836695Y-35904227D01*
X113989580Y-36133035D01*
X114184165Y-36327620D01*
X114412973Y-36480505D01*
X114490215Y-36512500D01*
X114412973Y-36544495D01*
X114184165Y-36697380D01*
X113989580Y-36891965D01*
X113836695Y-37120773D01*
X113731386Y-37375010D01*
X113677700Y-37644908D01*
X113677700Y-37920092D01*
X113731386Y-38189990D01*
X113836695Y-38444227D01*
X113989580Y-38673035D01*
X114184165Y-38867620D01*
X114412973Y-39020505D01*
X114490215Y-39052500D01*
X114412973Y-39084495D01*
X114184165Y-39237380D01*
X113989580Y-39431965D01*
X113836695Y-39660773D01*
X113731386Y-39915010D01*
X113677700Y-40184908D01*
X113677700Y-40460092D01*
X113731386Y-40729990D01*
X113836695Y-40984227D01*
X113989580Y-41213035D01*
X114184165Y-41407620D01*
X114412973Y-41560505D01*
X114566866Y-41624250D01*
X114412973Y-41687995D01*
X114184165Y-41840880D01*
X113989580Y-42035465D01*
X113836695Y-42264273D01*
X113731386Y-42518510D01*
X113677700Y-42788408D01*
X113677700Y-43063592D01*
X113731386Y-43333490D01*
X113836695Y-43587727D01*
X113989580Y-43816535D01*
X114184165Y-44011120D01*
X114412973Y-44164005D01*
X114490215Y-44196000D01*
X114412973Y-44227995D01*
X114184165Y-44380880D01*
X113989580Y-44575465D01*
X113836695Y-44804273D01*
X113731386Y-45058510D01*
X113677700Y-45328408D01*
X113677700Y-45603592D01*
X113731386Y-45873490D01*
X113836695Y-46127727D01*
X113989580Y-46356535D01*
X114184165Y-46551120D01*
X114412973Y-46704005D01*
X114490215Y-46736000D01*
X114412973Y-46767995D01*
X114184165Y-46920880D01*
X113989580Y-47115465D01*
X113836695Y-47344273D01*
X113731386Y-47598510D01*
X113677700Y-47868408D01*
X113677700Y-48143592D01*
X113731386Y-48413490D01*
X113836695Y-48667727D01*
X113989580Y-48896535D01*
X114184165Y-49091120D01*
X114412973Y-49244005D01*
X114490215Y-49276000D01*
X114412973Y-49307995D01*
X114184165Y-49460880D01*
X113989580Y-49655465D01*
X113836695Y-49884273D01*
X113731386Y-50138510D01*
X113677700Y-50408408D01*
X113677700Y-50683592D01*
X113731386Y-50953490D01*
X113836695Y-51207727D01*
X113989580Y-51436535D01*
X114184165Y-51631120D01*
X114412973Y-51784005D01*
X114490215Y-51816000D01*
X114412973Y-51847995D01*
X114184165Y-52000880D01*
X113989580Y-52195465D01*
X113836695Y-52424273D01*
X113731386Y-52678510D01*
X113677700Y-52948408D01*
X113677700Y-53223592D01*
X113731386Y-53493490D01*
X113836695Y-53747727D01*
X113989580Y-53976535D01*
X114184165Y-54171120D01*
X114412973Y-54324005D01*
X114490215Y-54356000D01*
X114412973Y-54387995D01*
X114184165Y-54540880D01*
X113989580Y-54735465D01*
X113836695Y-54964273D01*
X113731386Y-55218510D01*
X113677700Y-55488408D01*
X113677700Y-55763592D01*
X113731386Y-56033490D01*
X113836695Y-56287727D01*
X113989580Y-56516535D01*
X114184165Y-56711120D01*
X114412973Y-56864005D01*
X114490215Y-56896000D01*
X114412973Y-56927995D01*
X114184165Y-57080880D01*
X113989580Y-57275465D01*
X113836695Y-57504273D01*
X113731386Y-57758510D01*
X113677700Y-58028408D01*
X113677700Y-58303592D01*
X113731386Y-58573490D01*
X113836695Y-58827727D01*
X113989580Y-59056535D01*
X114184165Y-59251120D01*
X114412973Y-59404005D01*
X114490215Y-59436000D01*
X114412973Y-59467995D01*
X114184165Y-59620880D01*
X113989580Y-59815465D01*
X113836695Y-60044273D01*
X113731386Y-60298510D01*
X113677700Y-60568408D01*
X113677700Y-60843592D01*
X113731386Y-61113490D01*
X113836695Y-61367727D01*
X113989580Y-61596535D01*
X114184165Y-61791120D01*
X114412973Y-61944005D01*
X114490215Y-61976000D01*
X114412973Y-62007995D01*
X114184165Y-62160880D01*
X113989580Y-62355465D01*
X113836695Y-62584273D01*
X113731386Y-62838510D01*
X113677700Y-63108408D01*
X113677700Y-63383592D01*
X113708328Y-63537570D01*
X113487200Y-63758698D01*
X113487200Y-20138017D01*
X113672790Y-20138017D01*
X113713778Y-20410133D01*
X113807064Y-20669023D01*
X113869044Y-20784980D01*
X114109135Y-20851960D01*
X114895095Y-20066000D01*
X115254305Y-20066000D01*
X116040265Y-20851960D01*
X116280356Y-20784980D01*
X116397456Y-20535952D01*
X116463723Y-20268865D01*
X116469927Y-20136512D01*
X119539983Y-20136512D01*
X119581413Y-20416130D01*
X119676597Y-20682292D01*
X119743529Y-20807514D01*
X119987498Y-20879097D01*
X120800595Y-20066000D01*
X121159805Y-20066000D01*
X121972902Y-20879097D01*
X122216871Y-20807514D01*
X122337771Y-20552004D01*
X122406500Y-20277816D01*
X122409521Y-20216512D01*
X123984983Y-20216512D01*
X124026413Y-20496130D01*
X124121597Y-20762292D01*
X124188529Y-20887514D01*
X124432498Y-20959097D01*
X125245595Y-20146000D01*
X125604805Y-20146000D01*
X126417902Y-20959097D01*
X126661871Y-20887514D01*
X126782771Y-20632004D01*
X126851500Y-20357816D01*
X126865417Y-20075488D01*
X126823987Y-19795870D01*
X126728803Y-19529708D01*
X126661871Y-19404486D01*
X126417902Y-19332903D01*
X125604805Y-20146000D01*
X125245595Y-20146000D01*
X124432498Y-19332903D01*
X124188529Y-19404486D01*
X124067629Y-19659996D01*
X123998900Y-19934184D01*
X123984983Y-20216512D01*
X122409521Y-20216512D01*
X122420417Y-19995488D01*
X122378987Y-19715870D01*
X122283803Y-19449708D01*
X122216871Y-19324486D01*
X121972902Y-19252903D01*
X121159805Y-20066000D01*
X120800595Y-20066000D01*
X119987498Y-19252903D01*
X119743529Y-19324486D01*
X119622629Y-19579996D01*
X119553900Y-19854184D01*
X119539983Y-20136512D01*
X116469927Y-20136512D01*
X116476610Y-19993983D01*
X116435622Y-19721867D01*
X116342336Y-19462977D01*
X116280356Y-19347020D01*
X116040265Y-19280040D01*
X115254305Y-20066000D01*
X114895095Y-20066000D01*
X114109135Y-19280040D01*
X113869044Y-19347020D01*
X113751944Y-19596048D01*
X113685677Y-19863135D01*
X113672790Y-20138017D01*
X113487200Y-20138017D01*
X113487200Y-19100435D01*
X114288740Y-19100435D01*
X115074700Y-19886395D01*
X115860660Y-19100435D01*
X115853090Y-19073298D01*
X120167103Y-19073298D01*
X120980200Y-19886395D01*
X121713297Y-19153298D01*
X124612103Y-19153298D01*
X125425200Y-19966395D01*
X126238297Y-19153298D01*
X126166714Y-18909329D01*
X125911204Y-18788429D01*
X125637016Y-18719700D01*
X125354688Y-18705783D01*
X125075070Y-18747213D01*
X124808908Y-18842397D01*
X124683686Y-18909329D01*
X124612103Y-19153298D01*
X121713297Y-19153298D01*
X121793297Y-19073298D01*
X121721714Y-18829329D01*
X121466204Y-18708429D01*
X121192016Y-18639700D01*
X120909688Y-18625783D01*
X120630070Y-18667213D01*
X120363908Y-18762397D01*
X120238686Y-18829329D01*
X120167103Y-19073298D01*
X115853090Y-19073298D01*
X115793680Y-18860344D01*
X115544652Y-18743244D01*
X115277565Y-18676977D01*
X115002683Y-18664090D01*
X114730567Y-18705078D01*
X114471677Y-18798364D01*
X114355720Y-18860344D01*
X114288740Y-19100435D01*
X113487200Y-19100435D01*
X113487200Y-15748000D01*
X135458200Y-15748000D01*
X135458200Y-49257948D01*
%TA.AperFunction,Conductor*%
D33*
G36*
X135458200Y-49257948D02*
G01*
X134533272Y-48333021D01*
X134533272Y-47791000D01*
X134521012Y-47666518D01*
X134484702Y-47546820D01*
X134425737Y-47436506D01*
X134346385Y-47339815D01*
X134249694Y-47260463D01*
X134139380Y-47201498D01*
X134058734Y-47177034D01*
X134142788Y-47101269D01*
X134316841Y-46867920D01*
X134442025Y-46605099D01*
X134486676Y-46457890D01*
X134365355Y-46228000D01*
X133172200Y-46228000D01*
X133172200Y-46248000D01*
X132918200Y-46248000D01*
X132918200Y-46228000D01*
X131725045Y-46228000D01*
X131603724Y-46457890D01*
X131648375Y-46605099D01*
X131773559Y-46867920D01*
X131947612Y-47101269D01*
X132031666Y-47177034D01*
X131951020Y-47201498D01*
X131840706Y-47260463D01*
X131744015Y-47339815D01*
X131664663Y-47436506D01*
X131605698Y-47546820D01*
X131569388Y-47666518D01*
X131557128Y-47791000D01*
X131557128Y-49491000D01*
X131569388Y-49615482D01*
X131605698Y-49735180D01*
X131664663Y-49845494D01*
X131744015Y-49942185D01*
X131840706Y-50021537D01*
X131951020Y-50080502D01*
X132070718Y-50116812D01*
X132195200Y-50129072D01*
X132737221Y-50129072D01*
X133680200Y-51072052D01*
X133680200Y-55551674D01*
X133478358Y-55468068D01*
X133191460Y-55411000D01*
X132898940Y-55411000D01*
X132612042Y-55468068D01*
X132341789Y-55580010D01*
X132098568Y-55742525D01*
X131891725Y-55949368D01*
X131729210Y-56192589D01*
X131617268Y-56462842D01*
X131560200Y-56749740D01*
X131560200Y-57042260D01*
X131617268Y-57329158D01*
X131729210Y-57599411D01*
X131891725Y-57842632D01*
X132098568Y-58049475D01*
X132272960Y-58166000D01*
X132098568Y-58282525D01*
X131891725Y-58489368D01*
X131729210Y-58732589D01*
X131617268Y-59002842D01*
X131560200Y-59289740D01*
X131560200Y-59582260D01*
X131617268Y-59869158D01*
X131729210Y-60139411D01*
X131891725Y-60382632D01*
X132098568Y-60589475D01*
X132280734Y-60711195D01*
X132163845Y-60780822D01*
X131947612Y-60975731D01*
X131773559Y-61209080D01*
X131648375Y-61471901D01*
X131603724Y-61619110D01*
X131725045Y-61849000D01*
X132918200Y-61849000D01*
X132918200Y-61829000D01*
X133172200Y-61829000D01*
X133172200Y-61849000D01*
X133192200Y-61849000D01*
X133192200Y-62103000D01*
X133172200Y-62103000D01*
X133172200Y-62123000D01*
X132918200Y-62123000D01*
X132918200Y-62103000D01*
X131725045Y-62103000D01*
X131603724Y-62332890D01*
X131648375Y-62480099D01*
X131773559Y-62742920D01*
X131947612Y-62976269D01*
X132031666Y-63052034D01*
X131951020Y-63076498D01*
X131840706Y-63135463D01*
X131744015Y-63214815D01*
X131664663Y-63311506D01*
X131605698Y-63421820D01*
X131569388Y-63541518D01*
X131557128Y-63666000D01*
X131557128Y-65366000D01*
X131569388Y-65490482D01*
X131605698Y-65610180D01*
X131664663Y-65720494D01*
X131744015Y-65817185D01*
X131840706Y-65896537D01*
X131951020Y-65955502D01*
X132070718Y-65991812D01*
X132195200Y-66004072D01*
X133895200Y-66004072D01*
X134019682Y-65991812D01*
X134139380Y-65955502D01*
X134249694Y-65896537D01*
X134346385Y-65817185D01*
X134425737Y-65720494D01*
X134484702Y-65610180D01*
X134521012Y-65490482D01*
X134533272Y-65366000D01*
X134533272Y-64823979D01*
X135458200Y-63899052D01*
X135458200Y-95238183D01*
X135293705Y-95073688D01*
X135042295Y-94905701D01*
X134762943Y-94789989D01*
X134466384Y-94731000D01*
X134164016Y-94731000D01*
X133906270Y-94782269D01*
X129995200Y-90871199D01*
X129995200Y-87662269D01*
X131668536Y-87662269D01*
X131727997Y-87896037D01*
X131966442Y-88006934D01*
X132221940Y-88069183D01*
X132484673Y-88080390D01*
X132744544Y-88040125D01*
X132991566Y-87949935D01*
X133092403Y-87896037D01*
X133151864Y-87662269D01*
X132410200Y-86920605D01*
X131668536Y-87662269D01*
X129995200Y-87662269D01*
X129995200Y-86815473D01*
X131070810Y-86815473D01*
X131111075Y-87075344D01*
X131201265Y-87322366D01*
X131255163Y-87423203D01*
X131488931Y-87482664D01*
X132230595Y-86741000D01*
X132589805Y-86741000D01*
X133331469Y-87482664D01*
X133565237Y-87423203D01*
X133676134Y-87184758D01*
X133738383Y-86929260D01*
X133749590Y-86666527D01*
X133709325Y-86406656D01*
X133619135Y-86159634D01*
X133565237Y-86058797D01*
X133331469Y-85999336D01*
X132589805Y-86741000D01*
X132230595Y-86741000D01*
X131488931Y-85999336D01*
X131255163Y-86058797D01*
X131144266Y-86297242D01*
X131082017Y-86552740D01*
X131070810Y-86815473D01*
X129995200Y-86815473D01*
X129995200Y-84069514D01*
X131075200Y-84069514D01*
X131075200Y-84332486D01*
X131126504Y-84590405D01*
X131227139Y-84833359D01*
X131373238Y-85052013D01*
X131559187Y-85237962D01*
X131777841Y-85384061D01*
X131991644Y-85472621D01*
X131828834Y-85532065D01*
X131727997Y-85585963D01*
X131668536Y-85819731D01*
X132410200Y-86561395D01*
X133151864Y-85819731D01*
X133092403Y-85585963D01*
X132853958Y-85475066D01*
X132834373Y-85470294D01*
X133042559Y-85384061D01*
X133261213Y-85237962D01*
X133447162Y-85052013D01*
X133593261Y-84833359D01*
X133693896Y-84590405D01*
X133745200Y-84332486D01*
X133745200Y-84069514D01*
X133693896Y-83811595D01*
X133593261Y-83568641D01*
X133447162Y-83349987D01*
X133261213Y-83164038D01*
X133042559Y-83017939D01*
X132799605Y-82917304D01*
X132541686Y-82866000D01*
X132278714Y-82866000D01*
X132020795Y-82917304D01*
X131777841Y-83017939D01*
X131559187Y-83164038D01*
X131373238Y-83349987D01*
X131227139Y-83568641D01*
X131126504Y-83811595D01*
X131075200Y-84069514D01*
X129995200Y-84069514D01*
X129995200Y-62203822D01*
X129998876Y-62166499D01*
X129995200Y-62129176D01*
X129995200Y-62129167D01*
X129984203Y-62017514D01*
X129940746Y-61874253D01*
X129896310Y-61791120D01*
X129870174Y-61742223D01*
X129798999Y-61655497D01*
X129775201Y-61626499D01*
X129746203Y-61602701D01*
X116441072Y-48297571D01*
X116471700Y-48143592D01*
X116471700Y-47868408D01*
X116418014Y-47598510D01*
X116312705Y-47344273D01*
X116159820Y-47115465D01*
X115965235Y-46920880D01*
X115736427Y-46767995D01*
X115659185Y-46736000D01*
X115736427Y-46704005D01*
X115965235Y-46551120D01*
X116159820Y-46356535D01*
X116312705Y-46127727D01*
X116418014Y-45873490D01*
X116471700Y-45603592D01*
X116471700Y-45328408D01*
X116418014Y-45058510D01*
X116312705Y-44804273D01*
X116159820Y-44575465D01*
X115965235Y-44380880D01*
X115736427Y-44227995D01*
X115659185Y-44196000D01*
X115736427Y-44164005D01*
X115965235Y-44011120D01*
X116159820Y-43816535D01*
X116312705Y-43587727D01*
X116418014Y-43333490D01*
X116471700Y-43063592D01*
X116471700Y-42788408D01*
X116418014Y-42518510D01*
X116312705Y-42264273D01*
X116159820Y-42035465D01*
X115965235Y-41840880D01*
X115736427Y-41687995D01*
X115582534Y-41624250D01*
X115736427Y-41560505D01*
X115965235Y-41407620D01*
X116159820Y-41213035D01*
X116312705Y-40984227D01*
X116418014Y-40729990D01*
X116471700Y-40460092D01*
X116471700Y-40184908D01*
X116418014Y-39915010D01*
X116312705Y-39660773D01*
X116159820Y-39431965D01*
X115965235Y-39237380D01*
X115736427Y-39084495D01*
X115659185Y-39052500D01*
X115736427Y-39020505D01*
X115965235Y-38867620D01*
X116159820Y-38673035D01*
X116312705Y-38444227D01*
X116418014Y-38189990D01*
X116471700Y-37920092D01*
X116471700Y-37644908D01*
X116418014Y-37375010D01*
X116312705Y-37120773D01*
X116159820Y-36891965D01*
X115965235Y-36697380D01*
X115736427Y-36544495D01*
X115659185Y-36512500D01*
X115736427Y-36480505D01*
X115965235Y-36327620D01*
X116159820Y-36133035D01*
X116312705Y-35904227D01*
X116418014Y-35649990D01*
X116471700Y-35380092D01*
X116471700Y-35104908D01*
X116418014Y-34835010D01*
X116312705Y-34580773D01*
X116159820Y-34351965D01*
X115965235Y-34157380D01*
X115736427Y-34004495D01*
X115659185Y-33972500D01*
X115736427Y-33940505D01*
X115965235Y-33787620D01*
X116159820Y-33593035D01*
X116312705Y-33364227D01*
X116418014Y-33109990D01*
X116471700Y-32840092D01*
X116471700Y-32564908D01*
X116418014Y-32295010D01*
X116312705Y-32040773D01*
X116159820Y-31811965D01*
X115965235Y-31617380D01*
X115736427Y-31464495D01*
X115659185Y-31432500D01*
X115736427Y-31400505D01*
X115965235Y-31247620D01*
X116159820Y-31053035D01*
X116312705Y-30824227D01*
X116358056Y-30714740D01*
X131560200Y-30714740D01*
X131560200Y-31007260D01*
X131617268Y-31294158D01*
X131729210Y-31564411D01*
X131891725Y-31807632D01*
X132098568Y-32014475D01*
X132272960Y-32131000D01*
X132098568Y-32247525D01*
X131891725Y-32454368D01*
X131729210Y-32697589D01*
X131617268Y-32967842D01*
X131560200Y-33254740D01*
X131560200Y-33547260D01*
X131617268Y-33834158D01*
X131729210Y-34104411D01*
X131891725Y-34347632D01*
X132098568Y-34554475D01*
X132272960Y-34671000D01*
X132098568Y-34787525D01*
X131891725Y-34994368D01*
X131729210Y-35237589D01*
X131617268Y-35507842D01*
X131560200Y-35794740D01*
X131560200Y-36087260D01*
X131617268Y-36374158D01*
X131729210Y-36644411D01*
X131891725Y-36887632D01*
X132098568Y-37094475D01*
X132272960Y-37211000D01*
X132098568Y-37327525D01*
X131891725Y-37534368D01*
X131729210Y-37777589D01*
X131617268Y-38047842D01*
X131560200Y-38334740D01*
X131560200Y-38627260D01*
X131617268Y-38914158D01*
X131729210Y-39184411D01*
X131891725Y-39427632D01*
X132098568Y-39634475D01*
X132272960Y-39751000D01*
X132098568Y-39867525D01*
X131891725Y-40074368D01*
X131729210Y-40317589D01*
X131617268Y-40587842D01*
X131560200Y-40874740D01*
X131560200Y-41167260D01*
X131617268Y-41454158D01*
X131729210Y-41724411D01*
X131891725Y-41967632D01*
X132098568Y-42174475D01*
X132272960Y-42291000D01*
X132098568Y-42407525D01*
X131891725Y-42614368D01*
X131729210Y-42857589D01*
X131617268Y-43127842D01*
X131560200Y-43414740D01*
X131560200Y-43707260D01*
X131617268Y-43994158D01*
X131729210Y-44264411D01*
X131891725Y-44507632D01*
X132098568Y-44714475D01*
X132280734Y-44836195D01*
X132163845Y-44905822D01*
X131947612Y-45100731D01*
X131773559Y-45334080D01*
X131648375Y-45596901D01*
X131603724Y-45744110D01*
X131725045Y-45974000D01*
X132918200Y-45974000D01*
X132918200Y-45954000D01*
X133172200Y-45954000D01*
X133172200Y-45974000D01*
X134365355Y-45974000D01*
X134486676Y-45744110D01*
X134442025Y-45596901D01*
X134316841Y-45334080D01*
X134142788Y-45100731D01*
X133926555Y-44905822D01*
X133809666Y-44836195D01*
X133991832Y-44714475D01*
X134198675Y-44507632D01*
X134361190Y-44264411D01*
X134473132Y-43994158D01*
X134530200Y-43707260D01*
X134530200Y-43414740D01*
X134473132Y-43127842D01*
X134361190Y-42857589D01*
X134198675Y-42614368D01*
X133991832Y-42407525D01*
X133817440Y-42291000D01*
X133991832Y-42174475D01*
X134198675Y-41967632D01*
X134361190Y-41724411D01*
X134473132Y-41454158D01*
X134530200Y-41167260D01*
X134530200Y-40874740D01*
X134473132Y-40587842D01*
X134361190Y-40317589D01*
X134198675Y-40074368D01*
X133991832Y-39867525D01*
X133817440Y-39751000D01*
X133991832Y-39634475D01*
X134198675Y-39427632D01*
X134361190Y-39184411D01*
X134473132Y-38914158D01*
X134530200Y-38627260D01*
X134530200Y-38334740D01*
X134473132Y-38047842D01*
X134361190Y-37777589D01*
X134198675Y-37534368D01*
X133991832Y-37327525D01*
X133817440Y-37211000D01*
X133991832Y-37094475D01*
X134198675Y-36887632D01*
X134361190Y-36644411D01*
X134473132Y-36374158D01*
X134530200Y-36087260D01*
X134530200Y-35794740D01*
X134473132Y-35507842D01*
X134361190Y-35237589D01*
X134198675Y-34994368D01*
X133991832Y-34787525D01*
X133817440Y-34671000D01*
X133991832Y-34554475D01*
X134198675Y-34347632D01*
X134361190Y-34104411D01*
X134473132Y-33834158D01*
X134530200Y-33547260D01*
X134530200Y-33254740D01*
X134473132Y-32967842D01*
X134361190Y-32697589D01*
X134198675Y-32454368D01*
X133991832Y-32247525D01*
X133817440Y-32131000D01*
X133991832Y-32014475D01*
X134198675Y-31807632D01*
X134361190Y-31564411D01*
X134473132Y-31294158D01*
X134530200Y-31007260D01*
X134530200Y-30714740D01*
X134473132Y-30427842D01*
X134361190Y-30157589D01*
X134198675Y-29914368D01*
X133991832Y-29707525D01*
X133748611Y-29545010D01*
X133478358Y-29433068D01*
X133191460Y-29376000D01*
X132898940Y-29376000D01*
X132612042Y-29433068D01*
X132341789Y-29545010D01*
X132098568Y-29707525D01*
X131891725Y-29914368D01*
X131729210Y-30157589D01*
X131617268Y-30427842D01*
X131560200Y-30714740D01*
X116358056Y-30714740D01*
X116418014Y-30569990D01*
X116471700Y-30300092D01*
X116471700Y-30024908D01*
X116418014Y-29755010D01*
X116312705Y-29500773D01*
X116159820Y-29271965D01*
X115965235Y-29077380D01*
X115736427Y-28924495D01*
X115659185Y-28892500D01*
X115736427Y-28860505D01*
X115965235Y-28707620D01*
X116159820Y-28513035D01*
X116312705Y-28284227D01*
X116418014Y-28029990D01*
X116471700Y-27760092D01*
X116471700Y-27484908D01*
X116418014Y-27215010D01*
X116312705Y-26960773D01*
X116159820Y-26731965D01*
X115965235Y-26537380D01*
X115736427Y-26384495D01*
X115659185Y-26352500D01*
X115736427Y-26320505D01*
X115965235Y-26167620D01*
X116159820Y-25973035D01*
X116312705Y-25744227D01*
X116418014Y-25489990D01*
X116471700Y-25220092D01*
X116471700Y-24944908D01*
X116467674Y-24924665D01*
X119545200Y-24924665D01*
X119545200Y-25207335D01*
X119600347Y-25484574D01*
X119708520Y-25745727D01*
X119865563Y-25980759D01*
X120065441Y-26180637D01*
X120300473Y-26337680D01*
X120561626Y-26445853D01*
X120838865Y-26501000D01*
X121121535Y-26501000D01*
X121398774Y-26445853D01*
X121659927Y-26337680D01*
X121894959Y-26180637D01*
X122094837Y-25980759D01*
X122251880Y-25745727D01*
X122360053Y-25484574D01*
X122415200Y-25207335D01*
X122415200Y-25004665D01*
X123990200Y-25004665D01*
X123990200Y-25287335D01*
X124045347Y-25564574D01*
X124153520Y-25825727D01*
X124310563Y-26060759D01*
X124510441Y-26260637D01*
X124745473Y-26417680D01*
X125006626Y-26525853D01*
X125283865Y-26581000D01*
X125566535Y-26581000D01*
X125843774Y-26525853D01*
X126104927Y-26417680D01*
X126339959Y-26260637D01*
X126539837Y-26060759D01*
X126696880Y-25825727D01*
X126805053Y-25564574D01*
X126860200Y-25287335D01*
X126860200Y-25004665D01*
X126805053Y-24727426D01*
X126696880Y-24466273D01*
X126658657Y-24409068D01*
X127519500Y-24409068D01*
X127519500Y-25044732D01*
X127643512Y-25668181D01*
X127886770Y-26255458D01*
X128239925Y-26783993D01*
X128689407Y-27233475D01*
X129217942Y-27586630D01*
X129805219Y-27829888D01*
X130428668Y-27953900D01*
X131064332Y-27953900D01*
X131687781Y-27829888D01*
X132275058Y-27586630D01*
X132803593Y-27233475D01*
X133253075Y-26783993D01*
X133606230Y-26255458D01*
X133849488Y-25668181D01*
X133973500Y-25044732D01*
X133973500Y-24409068D01*
X133849488Y-23785619D01*
X133606230Y-23198342D01*
X133253075Y-22669807D01*
X132803593Y-22220325D01*
X132275058Y-21867170D01*
X131687781Y-21623912D01*
X131064332Y-21499900D01*
X130428668Y-21499900D01*
X129805219Y-21623912D01*
X129217942Y-21867170D01*
X128689407Y-22220325D01*
X128239925Y-22669807D01*
X127886770Y-23198342D01*
X127643512Y-23785619D01*
X127519500Y-24409068D01*
X126658657Y-24409068D01*
X126539837Y-24231241D01*
X126339959Y-24031363D01*
X126104927Y-23874320D01*
X125843774Y-23766147D01*
X125566535Y-23711000D01*
X125283865Y-23711000D01*
X125006626Y-23766147D01*
X124745473Y-23874320D01*
X124510441Y-24031363D01*
X124310563Y-24231241D01*
X124153520Y-24466273D01*
X124045347Y-24727426D01*
X123990200Y-25004665D01*
X122415200Y-25004665D01*
X122415200Y-24924665D01*
X122360053Y-24647426D01*
X122251880Y-24386273D01*
X122094837Y-24151241D01*
X121894959Y-23951363D01*
X121659927Y-23794320D01*
X121398774Y-23686147D01*
X121121535Y-23631000D01*
X120838865Y-23631000D01*
X120561626Y-23686147D01*
X120300473Y-23794320D01*
X120065441Y-23951363D01*
X119865563Y-24151241D01*
X119708520Y-24386273D01*
X119600347Y-24647426D01*
X119545200Y-24924665D01*
X116467674Y-24924665D01*
X116418014Y-24675010D01*
X116312705Y-24420773D01*
X116159820Y-24191965D01*
X115965235Y-23997380D01*
X115736427Y-23844495D01*
X115735836Y-23844250D01*
X115736427Y-23844005D01*
X115965235Y-23691120D01*
X116159820Y-23496535D01*
X116312705Y-23267727D01*
X116418014Y-23013490D01*
X116471700Y-22743592D01*
X116471700Y-22468408D01*
X116418014Y-22198510D01*
X116312705Y-21944273D01*
X116159820Y-21715465D01*
X115965235Y-21520880D01*
X115736427Y-21367995D01*
X115664757Y-21338308D01*
X115677723Y-21333636D01*
X115793680Y-21271656D01*
X115853089Y-21058702D01*
X120167103Y-21058702D01*
X120238686Y-21302671D01*
X120494196Y-21423571D01*
X120768384Y-21492300D01*
X121050712Y-21506217D01*
X121330330Y-21464787D01*
X121596492Y-21369603D01*
X121721714Y-21302671D01*
X121769824Y-21138702D01*
X124612103Y-21138702D01*
X124683686Y-21382671D01*
X124939196Y-21503571D01*
X125213384Y-21572300D01*
X125495712Y-21586217D01*
X125775330Y-21544787D01*
X126041492Y-21449603D01*
X126166714Y-21382671D01*
X126238297Y-21138702D01*
X125425200Y-20325605D01*
X124612103Y-21138702D01*
X121769824Y-21138702D01*
X121793297Y-21058702D01*
X120980200Y-20245605D01*
X120167103Y-21058702D01*
X115853089Y-21058702D01*
X115860660Y-21031565D01*
X115074700Y-20245605D01*
X114288740Y-21031565D01*
X114355720Y-21271656D01*
X114491460Y-21335485D01*
X114412973Y-21367995D01*
X114184165Y-21520880D01*
X113989580Y-21715465D01*
X113836695Y-21944273D01*
X113731386Y-22198510D01*
X113677700Y-22468408D01*
X113677700Y-22743592D01*
X113731386Y-23013490D01*
X113836695Y-23267727D01*
X113989580Y-23496535D01*
X114184165Y-23691120D01*
X114412973Y-23844005D01*
X114413564Y-23844250D01*
X114412973Y-23844495D01*
X114184165Y-23997380D01*
X113989580Y-24191965D01*
X113836695Y-24420773D01*
X113731386Y-24675010D01*
X113677700Y-24944908D01*
X113677700Y-25220092D01*
X113731386Y-25489990D01*
X113836695Y-25744227D01*
X113989580Y-25973035D01*
X114184165Y-26167620D01*
X114412973Y-26320505D01*
X114490215Y-26352500D01*
X114412973Y-26384495D01*
X114184165Y-26537380D01*
X113989580Y-26731965D01*
X113836695Y-26960773D01*
X113731386Y-27215010D01*
X113677700Y-27484908D01*
X113677700Y-27760092D01*
X113731386Y-28029990D01*
X113836695Y-28284227D01*
X113989580Y-28513035D01*
X114184165Y-28707620D01*
X114412973Y-28860505D01*
X114490215Y-28892500D01*
X114412973Y-28924495D01*
X114184165Y-29077380D01*
X113989580Y-29271965D01*
X113836695Y-29500773D01*
X113731386Y-29755010D01*
X113677700Y-30024908D01*
X113677700Y-30300092D01*
X113731386Y-30569990D01*
X113836695Y-30824227D01*
X113989580Y-31053035D01*
X114184165Y-31247620D01*
X114412973Y-31400505D01*
X114490215Y-31432500D01*
X114412973Y-31464495D01*
X114184165Y-31617380D01*
X113989580Y-31811965D01*
X113836695Y-32040773D01*
X113731386Y-32295010D01*
X113677700Y-32564908D01*
X113677700Y-32840092D01*
X113731386Y-33109990D01*
X113836695Y-33364227D01*
X113989580Y-33593035D01*
X114184165Y-33787620D01*
X114412973Y-33940505D01*
X114490215Y-33972500D01*
X114412973Y-34004495D01*
X114184165Y-34157380D01*
X113989580Y-34351965D01*
X113836695Y-34580773D01*
X113731386Y-34835010D01*
X113677700Y-35104908D01*
X113677700Y-35380092D01*
X113731386Y-35649990D01*
X113836695Y-35904227D01*
X113989580Y-36133035D01*
X114184165Y-36327620D01*
X114412973Y-36480505D01*
X114490215Y-36512500D01*
X114412973Y-36544495D01*
X114184165Y-36697380D01*
X113989580Y-36891965D01*
X113836695Y-37120773D01*
X113731386Y-37375010D01*
X113677700Y-37644908D01*
X113677700Y-37920092D01*
X113731386Y-38189990D01*
X113836695Y-38444227D01*
X113989580Y-38673035D01*
X114184165Y-38867620D01*
X114412973Y-39020505D01*
X114490215Y-39052500D01*
X114412973Y-39084495D01*
X114184165Y-39237380D01*
X113989580Y-39431965D01*
X113836695Y-39660773D01*
X113731386Y-39915010D01*
X113677700Y-40184908D01*
X113677700Y-40460092D01*
X113731386Y-40729990D01*
X113836695Y-40984227D01*
X113989580Y-41213035D01*
X114184165Y-41407620D01*
X114412973Y-41560505D01*
X114566866Y-41624250D01*
X114412973Y-41687995D01*
X114184165Y-41840880D01*
X113989580Y-42035465D01*
X113836695Y-42264273D01*
X113731386Y-42518510D01*
X113677700Y-42788408D01*
X113677700Y-43063592D01*
X113731386Y-43333490D01*
X113836695Y-43587727D01*
X113989580Y-43816535D01*
X114184165Y-44011120D01*
X114412973Y-44164005D01*
X114490215Y-44196000D01*
X114412973Y-44227995D01*
X114184165Y-44380880D01*
X113989580Y-44575465D01*
X113836695Y-44804273D01*
X113731386Y-45058510D01*
X113677700Y-45328408D01*
X113677700Y-45603592D01*
X113731386Y-45873490D01*
X113836695Y-46127727D01*
X113989580Y-46356535D01*
X114184165Y-46551120D01*
X114412973Y-46704005D01*
X114490215Y-46736000D01*
X114412973Y-46767995D01*
X114184165Y-46920880D01*
X113989580Y-47115465D01*
X113836695Y-47344273D01*
X113731386Y-47598510D01*
X113677700Y-47868408D01*
X113677700Y-48143592D01*
X113731386Y-48413490D01*
X113836695Y-48667727D01*
X113989580Y-48896535D01*
X114184165Y-49091120D01*
X114412973Y-49244005D01*
X114490215Y-49276000D01*
X114412973Y-49307995D01*
X114184165Y-49460880D01*
X113989580Y-49655465D01*
X113836695Y-49884273D01*
X113731386Y-50138510D01*
X113677700Y-50408408D01*
X113677700Y-50683592D01*
X113731386Y-50953490D01*
X113836695Y-51207727D01*
X113989580Y-51436535D01*
X114184165Y-51631120D01*
X114412973Y-51784005D01*
X114490215Y-51816000D01*
X114412973Y-51847995D01*
X114184165Y-52000880D01*
X113989580Y-52195465D01*
X113836695Y-52424273D01*
X113731386Y-52678510D01*
X113677700Y-52948408D01*
X113677700Y-53223592D01*
X113731386Y-53493490D01*
X113836695Y-53747727D01*
X113989580Y-53976535D01*
X114184165Y-54171120D01*
X114412973Y-54324005D01*
X114490215Y-54356000D01*
X114412973Y-54387995D01*
X114184165Y-54540880D01*
X113989580Y-54735465D01*
X113836695Y-54964273D01*
X113731386Y-55218510D01*
X113677700Y-55488408D01*
X113677700Y-55763592D01*
X113731386Y-56033490D01*
X113836695Y-56287727D01*
X113989580Y-56516535D01*
X114184165Y-56711120D01*
X114412973Y-56864005D01*
X114490215Y-56896000D01*
X114412973Y-56927995D01*
X114184165Y-57080880D01*
X113989580Y-57275465D01*
X113836695Y-57504273D01*
X113731386Y-57758510D01*
X113677700Y-58028408D01*
X113677700Y-58303592D01*
X113731386Y-58573490D01*
X113836695Y-58827727D01*
X113989580Y-59056535D01*
X114184165Y-59251120D01*
X114412973Y-59404005D01*
X114490215Y-59436000D01*
X114412973Y-59467995D01*
X114184165Y-59620880D01*
X113989580Y-59815465D01*
X113836695Y-60044273D01*
X113731386Y-60298510D01*
X113677700Y-60568408D01*
X113677700Y-60843592D01*
X113731386Y-61113490D01*
X113836695Y-61367727D01*
X113989580Y-61596535D01*
X114184165Y-61791120D01*
X114412973Y-61944005D01*
X114490215Y-61976000D01*
X114412973Y-62007995D01*
X114184165Y-62160880D01*
X113989580Y-62355465D01*
X113836695Y-62584273D01*
X113731386Y-62838510D01*
X113677700Y-63108408D01*
X113677700Y-63383592D01*
X113708328Y-63537570D01*
X113487200Y-63758698D01*
X113487200Y-20138017D01*
X113672790Y-20138017D01*
X113713778Y-20410133D01*
X113807064Y-20669023D01*
X113869044Y-20784980D01*
X114109135Y-20851960D01*
X114895095Y-20066000D01*
X115254305Y-20066000D01*
X116040265Y-20851960D01*
X116280356Y-20784980D01*
X116397456Y-20535952D01*
X116463723Y-20268865D01*
X116469927Y-20136512D01*
X119539983Y-20136512D01*
X119581413Y-20416130D01*
X119676597Y-20682292D01*
X119743529Y-20807514D01*
X119987498Y-20879097D01*
X120800595Y-20066000D01*
X121159805Y-20066000D01*
X121972902Y-20879097D01*
X122216871Y-20807514D01*
X122337771Y-20552004D01*
X122406500Y-20277816D01*
X122409521Y-20216512D01*
X123984983Y-20216512D01*
X124026413Y-20496130D01*
X124121597Y-20762292D01*
X124188529Y-20887514D01*
X124432498Y-20959097D01*
X125245595Y-20146000D01*
X125604805Y-20146000D01*
X126417902Y-20959097D01*
X126661871Y-20887514D01*
X126782771Y-20632004D01*
X126851500Y-20357816D01*
X126865417Y-20075488D01*
X126823987Y-19795870D01*
X126728803Y-19529708D01*
X126661871Y-19404486D01*
X126417902Y-19332903D01*
X125604805Y-20146000D01*
X125245595Y-20146000D01*
X124432498Y-19332903D01*
X124188529Y-19404486D01*
X124067629Y-19659996D01*
X123998900Y-19934184D01*
X123984983Y-20216512D01*
X122409521Y-20216512D01*
X122420417Y-19995488D01*
X122378987Y-19715870D01*
X122283803Y-19449708D01*
X122216871Y-19324486D01*
X121972902Y-19252903D01*
X121159805Y-20066000D01*
X120800595Y-20066000D01*
X119987498Y-19252903D01*
X119743529Y-19324486D01*
X119622629Y-19579996D01*
X119553900Y-19854184D01*
X119539983Y-20136512D01*
X116469927Y-20136512D01*
X116476610Y-19993983D01*
X116435622Y-19721867D01*
X116342336Y-19462977D01*
X116280356Y-19347020D01*
X116040265Y-19280040D01*
X115254305Y-20066000D01*
X114895095Y-20066000D01*
X114109135Y-19280040D01*
X113869044Y-19347020D01*
X113751944Y-19596048D01*
X113685677Y-19863135D01*
X113672790Y-20138017D01*
X113487200Y-20138017D01*
X113487200Y-19100435D01*
X114288740Y-19100435D01*
X115074700Y-19886395D01*
X115860660Y-19100435D01*
X115853090Y-19073298D01*
X120167103Y-19073298D01*
X120980200Y-19886395D01*
X121713297Y-19153298D01*
X124612103Y-19153298D01*
X125425200Y-19966395D01*
X126238297Y-19153298D01*
X126166714Y-18909329D01*
X125911204Y-18788429D01*
X125637016Y-18719700D01*
X125354688Y-18705783D01*
X125075070Y-18747213D01*
X124808908Y-18842397D01*
X124683686Y-18909329D01*
X124612103Y-19153298D01*
X121713297Y-19153298D01*
X121793297Y-19073298D01*
X121721714Y-18829329D01*
X121466204Y-18708429D01*
X121192016Y-18639700D01*
X120909688Y-18625783D01*
X120630070Y-18667213D01*
X120363908Y-18762397D01*
X120238686Y-18829329D01*
X120167103Y-19073298D01*
X115853090Y-19073298D01*
X115793680Y-18860344D01*
X115544652Y-18743244D01*
X115277565Y-18676977D01*
X115002683Y-18664090D01*
X114730567Y-18705078D01*
X114471677Y-18798364D01*
X114355720Y-18860344D01*
X114288740Y-19100435D01*
X113487200Y-19100435D01*
X113487200Y-15748000D01*
X135458200Y-15748000D01*
X135458200Y-49257948D01*
G37*
%TD.AperFunction*%
D32*
X93868948Y-77121858D02*
X93854805Y-77136000D01*
X93868948Y-77150143D01*
X93689343Y-77329748D01*
X93675200Y-77315605D01*
X93661058Y-77329748D01*
X93481453Y-77150143D01*
X93495595Y-77136000D01*
X93481453Y-77121858D01*
X93661058Y-76942253D01*
X93675200Y-76956395D01*
X93689343Y-76942253D01*
X93868948Y-77121858D01*
%TA.AperFunction,Conductor*%
D33*
G36*
X93868948Y-77121858D02*
G01*
X93854805Y-77136000D01*
X93868948Y-77150143D01*
X93689343Y-77329748D01*
X93675200Y-77315605D01*
X93661058Y-77329748D01*
X93481453Y-77150143D01*
X93495595Y-77136000D01*
X93481453Y-77121858D01*
X93661058Y-76942253D01*
X93675200Y-76956395D01*
X93689343Y-76942253D01*
X93868948Y-77121858D01*
G37*
%TD.AperFunction*%
D32*
X92278200Y-19329540D02*
X92100765Y-19280040D01*
X91314805Y-20066000D01*
X92100765Y-20851960D01*
X92278200Y-20802460D01*
X92278200Y-21802088D01*
X92220320Y-21715465D01*
X92025735Y-21520880D01*
X91796927Y-21367995D01*
X91725257Y-21338308D01*
X91738223Y-21333636D01*
X91854180Y-21271656D01*
X91921160Y-21031565D01*
X91135200Y-20245605D01*
X90349240Y-21031565D01*
X90416220Y-21271656D01*
X90551960Y-21335485D01*
X90473473Y-21367995D01*
X90244665Y-21520880D01*
X90050080Y-21715465D01*
X89897195Y-21944273D01*
X89791886Y-22198510D01*
X89738200Y-22468408D01*
X89738200Y-22743592D01*
X89791886Y-23013490D01*
X89897195Y-23267727D01*
X90050080Y-23496535D01*
X90244665Y-23691120D01*
X90473473Y-23844005D01*
X90550715Y-23876000D01*
X89927580Y-23876000D01*
X89865200Y-23869856D01*
X89802820Y-23876000D01*
X89616237Y-23894377D01*
X89376841Y-23966997D01*
X89156212Y-24084925D01*
X89075406Y-24151241D01*
X89011283Y-24203865D01*
X89011280Y-24203868D01*
X88962830Y-24243630D01*
X88923068Y-24292080D01*
X85639593Y-27575557D01*
X85636626Y-27576147D01*
X85375473Y-27684320D01*
X85140441Y-27841363D01*
X84940563Y-28041241D01*
X84783520Y-28276273D01*
X84675347Y-28537426D01*
X84620200Y-28814665D01*
X84620200Y-29097335D01*
X84675347Y-29374574D01*
X84783520Y-29635727D01*
X84940563Y-29870759D01*
X85140441Y-30070637D01*
X85375473Y-30227680D01*
X85636626Y-30335853D01*
X85913865Y-30391000D01*
X86196535Y-30391000D01*
X86473774Y-30335853D01*
X86734927Y-30227680D01*
X86969959Y-30070637D01*
X87169837Y-29870759D01*
X87326880Y-29635727D01*
X87435053Y-29374574D01*
X87435643Y-29371607D01*
X89049234Y-27758017D01*
X89733290Y-27758017D01*
X89774278Y-28030133D01*
X89867564Y-28289023D01*
X89929544Y-28404980D01*
X90169635Y-28471960D01*
X90955595Y-27686000D01*
X90169635Y-26900040D01*
X89929544Y-26967020D01*
X89812444Y-27216048D01*
X89746177Y-27483135D01*
X89733290Y-27758017D01*
X89049234Y-27758017D01*
X90391252Y-26416000D01*
X90538738Y-26416000D01*
X90532177Y-26418364D01*
X90416220Y-26480344D01*
X90349240Y-26720435D01*
X91135200Y-27506395D01*
X91921160Y-26720435D01*
X91854180Y-26480344D01*
X91718440Y-26416515D01*
X91796927Y-26384005D01*
X92025735Y-26231120D01*
X92220320Y-26036535D01*
X92278200Y-25949912D01*
X92278200Y-26949540D01*
X92100765Y-26900040D01*
X91314805Y-27686000D01*
X92100765Y-28471960D01*
X92278200Y-28422460D01*
X92278200Y-29422088D01*
X92220320Y-29335465D01*
X92025735Y-29140880D01*
X91796927Y-28987995D01*
X91725257Y-28958308D01*
X91738223Y-28953636D01*
X91854180Y-28891656D01*
X91921160Y-28651565D01*
X91135200Y-27865605D01*
X90349240Y-28651565D01*
X90416220Y-28891656D01*
X90551960Y-28955485D01*
X90473473Y-28987995D01*
X90244665Y-29140880D01*
X90050080Y-29335465D01*
X89897195Y-29564273D01*
X89791886Y-29818510D01*
X89738200Y-30088408D01*
X89738200Y-30363592D01*
X89791886Y-30633490D01*
X89897195Y-30887727D01*
X90050080Y-31116535D01*
X90244665Y-31311120D01*
X90473473Y-31464005D01*
X90550715Y-31496000D01*
X90473473Y-31527995D01*
X90244665Y-31680880D01*
X90050080Y-31875465D01*
X89897195Y-32104273D01*
X89791886Y-32358510D01*
X89738200Y-32628408D01*
X89738200Y-32903592D01*
X89791886Y-33173490D01*
X89897195Y-33427727D01*
X90050080Y-33656535D01*
X90244665Y-33851120D01*
X90473473Y-34004005D01*
X90550715Y-34036000D01*
X90473473Y-34067995D01*
X90244665Y-34220880D01*
X90050080Y-34415465D01*
X89897195Y-34644273D01*
X89791886Y-34898510D01*
X89738200Y-35168408D01*
X89738200Y-35443592D01*
X89791886Y-35713490D01*
X89897195Y-35967727D01*
X90050080Y-36196535D01*
X90244665Y-36391120D01*
X90473473Y-36544005D01*
X90550715Y-36576000D01*
X90473473Y-36607995D01*
X90244665Y-36760880D01*
X90050080Y-36955465D01*
X89897195Y-37184273D01*
X89791886Y-37438510D01*
X89738200Y-37708408D01*
X89738200Y-37983592D01*
X89791886Y-38253490D01*
X89897195Y-38507727D01*
X90050080Y-38736535D01*
X90244665Y-38931120D01*
X90473473Y-39084005D01*
X90550715Y-39116000D01*
X90473473Y-39147995D01*
X90244665Y-39300880D01*
X90050080Y-39495465D01*
X89897195Y-39724273D01*
X89791886Y-39978510D01*
X89738200Y-40248408D01*
X89738200Y-40523592D01*
X89791886Y-40793490D01*
X89897195Y-41047727D01*
X90050080Y-41276535D01*
X90244665Y-41471120D01*
X90473473Y-41624005D01*
X90550715Y-41656000D01*
X90473473Y-41687995D01*
X90244665Y-41840880D01*
X90050080Y-42035465D01*
X89897195Y-42264273D01*
X89791886Y-42518510D01*
X89738200Y-42788408D01*
X89738200Y-43063592D01*
X89791886Y-43333490D01*
X89897195Y-43587727D01*
X90050080Y-43816535D01*
X90244665Y-44011120D01*
X90473473Y-44164005D01*
X90550715Y-44196000D01*
X90473473Y-44227995D01*
X90244665Y-44380880D01*
X90050080Y-44575465D01*
X89897195Y-44804273D01*
X89791886Y-45058510D01*
X89738200Y-45328408D01*
X89738200Y-45603592D01*
X89791886Y-45873490D01*
X89897195Y-46127727D01*
X90050080Y-46356535D01*
X90244665Y-46551120D01*
X90473473Y-46704005D01*
X90550715Y-46736000D01*
X90473473Y-46767995D01*
X90244665Y-46920880D01*
X90050080Y-47115465D01*
X89962859Y-47246000D01*
X83552522Y-47246000D01*
X83515199Y-47242324D01*
X83477876Y-47246000D01*
X83477867Y-47246000D01*
X83366214Y-47256997D01*
X83222953Y-47300454D01*
X83090924Y-47371026D01*
X83090922Y-47371027D01*
X83090923Y-47371027D01*
X83004196Y-47442201D01*
X83004192Y-47442205D01*
X82975199Y-47465999D01*
X82951405Y-47494992D01*
X82400108Y-48046291D01*
X82274395Y-47979096D01*
X82011060Y-47899214D01*
X81805825Y-47879000D01*
X81735200Y-47879000D01*
X81735200Y-45780801D01*
X83051930Y-44464072D01*
X85065200Y-44464072D01*
X85238454Y-44447008D01*
X85405050Y-44396472D01*
X85558586Y-44314405D01*
X85693162Y-44203962D01*
X85803605Y-44069386D01*
X85885672Y-43915850D01*
X85936208Y-43749254D01*
X85953272Y-43576000D01*
X85953272Y-42276000D01*
X85936208Y-42102746D01*
X85885672Y-41936150D01*
X85803605Y-41782614D01*
X85693162Y-41648038D01*
X85558586Y-41537595D01*
X85405050Y-41455528D01*
X85238454Y-41404992D01*
X85065200Y-41387928D01*
X81965200Y-41387928D01*
X81791946Y-41404992D01*
X81625350Y-41455528D01*
X81471814Y-41537595D01*
X81337238Y-41648038D01*
X81226795Y-41782614D01*
X81144728Y-41936150D01*
X81094192Y-42102746D01*
X81077128Y-42276000D01*
X81077128Y-43576000D01*
X81094192Y-43749254D01*
X81144728Y-43915850D01*
X81226795Y-44069386D01*
X81258446Y-44107953D01*
X80464203Y-44902196D01*
X80435199Y-44925999D01*
X80383552Y-44988932D01*
X80340226Y-45041724D01*
X80331254Y-45058510D01*
X80269654Y-45173754D01*
X80226197Y-45317015D01*
X80215200Y-45428668D01*
X80215200Y-45428678D01*
X80211524Y-45466000D01*
X80215200Y-45503323D01*
X80215201Y-47879000D01*
X80144575Y-47879000D01*
X79939340Y-47899214D01*
X79676005Y-47979096D01*
X79433313Y-48108817D01*
X79220592Y-48283392D01*
X79195200Y-48314332D01*
X79195200Y-41970801D01*
X80020002Y-41146000D01*
X87891489Y-41146000D01*
X87935426Y-41189937D01*
X88104944Y-41303205D01*
X88293302Y-41381226D01*
X88493261Y-41421000D01*
X88697139Y-41421000D01*
X88897098Y-41381226D01*
X89085456Y-41303205D01*
X89254974Y-41189937D01*
X89399137Y-41045774D01*
X89512405Y-40876256D01*
X89590426Y-40687898D01*
X89630200Y-40487939D01*
X89630200Y-40284061D01*
X89590426Y-40084102D01*
X89512405Y-39895744D01*
X89399137Y-39726226D01*
X89254974Y-39582063D01*
X89085456Y-39468795D01*
X88897098Y-39390774D01*
X88697139Y-39351000D01*
X88493261Y-39351000D01*
X88293302Y-39390774D01*
X88104944Y-39468795D01*
X87935426Y-39582063D01*
X87891489Y-39626000D01*
X79742522Y-39626000D01*
X79705199Y-39622324D01*
X79667876Y-39626000D01*
X79667867Y-39626000D01*
X79556214Y-39636997D01*
X79412953Y-39680454D01*
X79280924Y-39751026D01*
X79165199Y-39845999D01*
X79141401Y-39874997D01*
X78562200Y-40454199D01*
X78562200Y-38210740D01*
X81124164Y-38210740D01*
X81148445Y-38316087D01*
X81268338Y-38593204D01*
X81439990Y-38841606D01*
X81656804Y-39051748D01*
X81910449Y-39215554D01*
X82191177Y-39326729D01*
X82488200Y-39381000D01*
X83388200Y-39381000D01*
X83388200Y-37973000D01*
X83642200Y-37973000D01*
X83642200Y-39381000D01*
X84542200Y-39381000D01*
X84839223Y-39326729D01*
X85119951Y-39215554D01*
X85373596Y-39051748D01*
X85590410Y-38841606D01*
X85762062Y-38593204D01*
X85881955Y-38316087D01*
X85906236Y-38210740D01*
X85785578Y-37973000D01*
X83642200Y-37973000D01*
X83388200Y-37973000D01*
X81244822Y-37973000D01*
X81124164Y-38210740D01*
X78562200Y-38210740D01*
X78562200Y-37481260D01*
X81124164Y-37481260D01*
X81244822Y-37719000D01*
X83388200Y-37719000D01*
X83388200Y-36311000D01*
X83642200Y-36311000D01*
X83642200Y-37719000D01*
X85785578Y-37719000D01*
X85906236Y-37481260D01*
X85881955Y-37375913D01*
X85762062Y-37098796D01*
X85590410Y-36850394D01*
X85373596Y-36640252D01*
X85119951Y-36476446D01*
X84839223Y-36365271D01*
X84542200Y-36311000D01*
X83642200Y-36311000D01*
X83388200Y-36311000D01*
X82488200Y-36311000D01*
X82191177Y-36365271D01*
X81910449Y-36476446D01*
X81656804Y-36640252D01*
X81439990Y-36850394D01*
X81268338Y-37098796D01*
X81148445Y-37375913D01*
X81124164Y-37481260D01*
X78562200Y-37481260D01*
X78562200Y-33758702D01*
X80242103Y-33758702D01*
X80313686Y-34002671D01*
X80569196Y-34123571D01*
X80843384Y-34192300D01*
X81125712Y-34206217D01*
X81405330Y-34164787D01*
X81671492Y-34069603D01*
X81796714Y-34002671D01*
X81868297Y-33758702D01*
X81055200Y-32945605D01*
X80242103Y-33758702D01*
X78562200Y-33758702D01*
X78562200Y-32836512D01*
X79614983Y-32836512D01*
X79656413Y-33116130D01*
X79751597Y-33382292D01*
X79818529Y-33507514D01*
X80062498Y-33579097D01*
X80875595Y-32766000D01*
X81234805Y-32766000D01*
X82047902Y-33579097D01*
X82291871Y-33507514D01*
X82412771Y-33252004D01*
X82481500Y-32977816D01*
X82495417Y-32695488D01*
X82484924Y-32624665D01*
X84620200Y-32624665D01*
X84620200Y-32907335D01*
X84675347Y-33184574D01*
X84783520Y-33445727D01*
X84940563Y-33680759D01*
X85140441Y-33880637D01*
X85375473Y-34037680D01*
X85636626Y-34145853D01*
X85913865Y-34201000D01*
X86196535Y-34201000D01*
X86473774Y-34145853D01*
X86734927Y-34037680D01*
X86969959Y-33880637D01*
X87169837Y-33680759D01*
X87326880Y-33445727D01*
X87435053Y-33184574D01*
X87490200Y-32907335D01*
X87490200Y-32624665D01*
X87435053Y-32347426D01*
X87326880Y-32086273D01*
X87169837Y-31851241D01*
X86969959Y-31651363D01*
X86734927Y-31494320D01*
X86473774Y-31386147D01*
X86196535Y-31331000D01*
X85913865Y-31331000D01*
X85636626Y-31386147D01*
X85375473Y-31494320D01*
X85140441Y-31651363D01*
X84940563Y-31851241D01*
X84783520Y-32086273D01*
X84675347Y-32347426D01*
X84620200Y-32624665D01*
X82484924Y-32624665D01*
X82453987Y-32415870D01*
X82358803Y-32149708D01*
X82291871Y-32024486D01*
X82047902Y-31952903D01*
X81234805Y-32766000D01*
X80875595Y-32766000D01*
X80062498Y-31952903D01*
X79818529Y-32024486D01*
X79697629Y-32279996D01*
X79628900Y-32554184D01*
X79614983Y-32836512D01*
X78562200Y-32836512D01*
X78562200Y-31773298D01*
X80242103Y-31773298D01*
X81055200Y-32586395D01*
X81868297Y-31773298D01*
X81796714Y-31529329D01*
X81541204Y-31408429D01*
X81267016Y-31339700D01*
X80984688Y-31325783D01*
X80705070Y-31367213D01*
X80438908Y-31462397D01*
X80313686Y-31529329D01*
X80242103Y-31773298D01*
X78562200Y-31773298D01*
X78562200Y-29948702D01*
X80242103Y-29948702D01*
X80313686Y-30192671D01*
X80569196Y-30313571D01*
X80843384Y-30382300D01*
X81125712Y-30396217D01*
X81405330Y-30354787D01*
X81671492Y-30259603D01*
X81796714Y-30192671D01*
X81868297Y-29948702D01*
X81055200Y-29135605D01*
X80242103Y-29948702D01*
X78562200Y-29948702D01*
X78562200Y-29026512D01*
X79614983Y-29026512D01*
X79656413Y-29306130D01*
X79751597Y-29572292D01*
X79818529Y-29697514D01*
X80062498Y-29769097D01*
X80875595Y-28956000D01*
X81234805Y-28956000D01*
X82047902Y-29769097D01*
X82291871Y-29697514D01*
X82412771Y-29442004D01*
X82481500Y-29167816D01*
X82495417Y-28885488D01*
X82453987Y-28605870D01*
X82358803Y-28339708D01*
X82291871Y-28214486D01*
X82047902Y-28142903D01*
X81234805Y-28956000D01*
X80875595Y-28956000D01*
X80062498Y-28142903D01*
X79818529Y-28214486D01*
X79697629Y-28469996D01*
X79628900Y-28744184D01*
X79614983Y-29026512D01*
X78562200Y-29026512D01*
X78562200Y-27963298D01*
X80242103Y-27963298D01*
X81055200Y-28776395D01*
X81868297Y-27963298D01*
X81796714Y-27719329D01*
X81541204Y-27598429D01*
X81267016Y-27529700D01*
X80984688Y-27515783D01*
X80705070Y-27557213D01*
X80438908Y-27652397D01*
X80313686Y-27719329D01*
X80242103Y-27963298D01*
X78562200Y-27963298D01*
X78562200Y-23139068D01*
X79259500Y-23139068D01*
X79259500Y-23774732D01*
X79383512Y-24398181D01*
X79626770Y-24985458D01*
X79979925Y-25513993D01*
X80429407Y-25963475D01*
X80957942Y-26316630D01*
X81545219Y-26559888D01*
X82168668Y-26683900D01*
X82804332Y-26683900D01*
X83427781Y-26559888D01*
X84015058Y-26316630D01*
X84543593Y-25963475D01*
X84993075Y-25513993D01*
X85346230Y-24985458D01*
X85589488Y-24398181D01*
X85713500Y-23774732D01*
X85713500Y-23139068D01*
X85589488Y-22515619D01*
X85346230Y-21928342D01*
X84993075Y-21399807D01*
X84543593Y-20950325D01*
X84015058Y-20597170D01*
X83427781Y-20353912D01*
X82804332Y-20229900D01*
X82168668Y-20229900D01*
X81545219Y-20353912D01*
X80957942Y-20597170D01*
X80429407Y-20950325D01*
X79979925Y-21399807D01*
X79626770Y-21928342D01*
X79383512Y-22515619D01*
X79259500Y-23139068D01*
X78562200Y-23139068D01*
X78562200Y-20138017D01*
X89733290Y-20138017D01*
X89774278Y-20410133D01*
X89867564Y-20669023D01*
X89929544Y-20784980D01*
X90169635Y-20851960D01*
X90955595Y-20066000D01*
X90169635Y-19280040D01*
X89929544Y-19347020D01*
X89812444Y-19596048D01*
X89746177Y-19863135D01*
X89733290Y-20138017D01*
X78562200Y-20138017D01*
X78562200Y-19100435D01*
X90349240Y-19100435D01*
X91135200Y-19886395D01*
X91921160Y-19100435D01*
X91854180Y-18860344D01*
X91605152Y-18743244D01*
X91338065Y-18676977D01*
X91063183Y-18664090D01*
X90791067Y-18705078D01*
X90532177Y-18798364D01*
X90416220Y-18860344D01*
X90349240Y-19100435D01*
X78562200Y-19100435D01*
X78562200Y-16625200D01*
X80757128Y-16625200D01*
X80757128Y-18325200D01*
X80769388Y-18449682D01*
X80805698Y-18569380D01*
X80864663Y-18679694D01*
X80944015Y-18776385D01*
X81040706Y-18855737D01*
X81151020Y-18914702D01*
X81270718Y-18951012D01*
X81395200Y-18963272D01*
X83095200Y-18963272D01*
X83219682Y-18951012D01*
X83339380Y-18914702D01*
X83449694Y-18855737D01*
X83546385Y-18776385D01*
X83625737Y-18679694D01*
X83684702Y-18569380D01*
X83706713Y-18496820D01*
X83838568Y-18628675D01*
X84081789Y-18791190D01*
X84352042Y-18903132D01*
X84638940Y-18960200D01*
X84931460Y-18960200D01*
X85218358Y-18903132D01*
X85488611Y-18791190D01*
X85731832Y-18628675D01*
X85938675Y-18421832D01*
X86060395Y-18239666D01*
X86130022Y-18356555D01*
X86324931Y-18572788D01*
X86558280Y-18746841D01*
X86821101Y-18872025D01*
X86968310Y-18916676D01*
X87198200Y-18795355D01*
X87198200Y-17602200D01*
X87452200Y-17602200D01*
X87452200Y-18795355D01*
X87682090Y-18916676D01*
X87829299Y-18872025D01*
X88092120Y-18746841D01*
X88325469Y-18572788D01*
X88520378Y-18356555D01*
X88669357Y-18106452D01*
X88766681Y-17832091D01*
X88646014Y-17602200D01*
X87452200Y-17602200D01*
X87198200Y-17602200D01*
X87178200Y-17602200D01*
X87178200Y-17348200D01*
X87198200Y-17348200D01*
X87198200Y-16155045D01*
X87452200Y-16155045D01*
X87452200Y-17348200D01*
X88646014Y-17348200D01*
X88766681Y-17118309D01*
X88669357Y-16843948D01*
X88520378Y-16593845D01*
X88325469Y-16377612D01*
X88092120Y-16203559D01*
X87829299Y-16078375D01*
X87682090Y-16033724D01*
X87452200Y-16155045D01*
X87198200Y-16155045D01*
X86968310Y-16033724D01*
X86821101Y-16078375D01*
X86558280Y-16203559D01*
X86324931Y-16377612D01*
X86130022Y-16593845D01*
X86060395Y-16710734D01*
X85938675Y-16528568D01*
X85731832Y-16321725D01*
X85488611Y-16159210D01*
X85218358Y-16047268D01*
X84931460Y-15990200D01*
X84638940Y-15990200D01*
X84352042Y-16047268D01*
X84081789Y-16159210D01*
X83838568Y-16321725D01*
X83706713Y-16453580D01*
X83684702Y-16381020D01*
X83625737Y-16270706D01*
X83546385Y-16174015D01*
X83449694Y-16094663D01*
X83339380Y-16035698D01*
X83219682Y-15999388D01*
X83095200Y-15987128D01*
X81395200Y-15987128D01*
X81270718Y-15999388D01*
X81151020Y-16035698D01*
X81040706Y-16094663D01*
X80944015Y-16174015D01*
X80864663Y-16270706D01*
X80805698Y-16381020D01*
X80769388Y-16500718D01*
X80757128Y-16625200D01*
X78562200Y-16625200D01*
X78562200Y-15748000D01*
X92278200Y-15748000D01*
X92278200Y-19329540D01*
%TA.AperFunction,Conductor*%
D33*
G36*
X92278200Y-19329540D02*
G01*
X92100765Y-19280040D01*
X91314805Y-20066000D01*
X92100765Y-20851960D01*
X92278200Y-20802460D01*
X92278200Y-21802088D01*
X92220320Y-21715465D01*
X92025735Y-21520880D01*
X91796927Y-21367995D01*
X91725257Y-21338308D01*
X91738223Y-21333636D01*
X91854180Y-21271656D01*
X91921160Y-21031565D01*
X91135200Y-20245605D01*
X90349240Y-21031565D01*
X90416220Y-21271656D01*
X90551960Y-21335485D01*
X90473473Y-21367995D01*
X90244665Y-21520880D01*
X90050080Y-21715465D01*
X89897195Y-21944273D01*
X89791886Y-22198510D01*
X89738200Y-22468408D01*
X89738200Y-22743592D01*
X89791886Y-23013490D01*
X89897195Y-23267727D01*
X90050080Y-23496535D01*
X90244665Y-23691120D01*
X90473473Y-23844005D01*
X90550715Y-23876000D01*
X89927580Y-23876000D01*
X89865200Y-23869856D01*
X89802820Y-23876000D01*
X89616237Y-23894377D01*
X89376841Y-23966997D01*
X89156212Y-24084925D01*
X89075406Y-24151241D01*
X89011283Y-24203865D01*
X89011280Y-24203868D01*
X88962830Y-24243630D01*
X88923068Y-24292080D01*
X85639593Y-27575557D01*
X85636626Y-27576147D01*
X85375473Y-27684320D01*
X85140441Y-27841363D01*
X84940563Y-28041241D01*
X84783520Y-28276273D01*
X84675347Y-28537426D01*
X84620200Y-28814665D01*
X84620200Y-29097335D01*
X84675347Y-29374574D01*
X84783520Y-29635727D01*
X84940563Y-29870759D01*
X85140441Y-30070637D01*
X85375473Y-30227680D01*
X85636626Y-30335853D01*
X85913865Y-30391000D01*
X86196535Y-30391000D01*
X86473774Y-30335853D01*
X86734927Y-30227680D01*
X86969959Y-30070637D01*
X87169837Y-29870759D01*
X87326880Y-29635727D01*
X87435053Y-29374574D01*
X87435643Y-29371607D01*
X89049234Y-27758017D01*
X89733290Y-27758017D01*
X89774278Y-28030133D01*
X89867564Y-28289023D01*
X89929544Y-28404980D01*
X90169635Y-28471960D01*
X90955595Y-27686000D01*
X90169635Y-26900040D01*
X89929544Y-26967020D01*
X89812444Y-27216048D01*
X89746177Y-27483135D01*
X89733290Y-27758017D01*
X89049234Y-27758017D01*
X90391252Y-26416000D01*
X90538738Y-26416000D01*
X90532177Y-26418364D01*
X90416220Y-26480344D01*
X90349240Y-26720435D01*
X91135200Y-27506395D01*
X91921160Y-26720435D01*
X91854180Y-26480344D01*
X91718440Y-26416515D01*
X91796927Y-26384005D01*
X92025735Y-26231120D01*
X92220320Y-26036535D01*
X92278200Y-25949912D01*
X92278200Y-26949540D01*
X92100765Y-26900040D01*
X91314805Y-27686000D01*
X92100765Y-28471960D01*
X92278200Y-28422460D01*
X92278200Y-29422088D01*
X92220320Y-29335465D01*
X92025735Y-29140880D01*
X91796927Y-28987995D01*
X91725257Y-28958308D01*
X91738223Y-28953636D01*
X91854180Y-28891656D01*
X91921160Y-28651565D01*
X91135200Y-27865605D01*
X90349240Y-28651565D01*
X90416220Y-28891656D01*
X90551960Y-28955485D01*
X90473473Y-28987995D01*
X90244665Y-29140880D01*
X90050080Y-29335465D01*
X89897195Y-29564273D01*
X89791886Y-29818510D01*
X89738200Y-30088408D01*
X89738200Y-30363592D01*
X89791886Y-30633490D01*
X89897195Y-30887727D01*
X90050080Y-31116535D01*
X90244665Y-31311120D01*
X90473473Y-31464005D01*
X90550715Y-31496000D01*
X90473473Y-31527995D01*
X90244665Y-31680880D01*
X90050080Y-31875465D01*
X89897195Y-32104273D01*
X89791886Y-32358510D01*
X89738200Y-32628408D01*
X89738200Y-32903592D01*
X89791886Y-33173490D01*
X89897195Y-33427727D01*
X90050080Y-33656535D01*
X90244665Y-33851120D01*
X90473473Y-34004005D01*
X90550715Y-34036000D01*
X90473473Y-34067995D01*
X90244665Y-34220880D01*
X90050080Y-34415465D01*
X89897195Y-34644273D01*
X89791886Y-34898510D01*
X89738200Y-35168408D01*
X89738200Y-35443592D01*
X89791886Y-35713490D01*
X89897195Y-35967727D01*
X90050080Y-36196535D01*
X90244665Y-36391120D01*
X90473473Y-36544005D01*
X90550715Y-36576000D01*
X90473473Y-36607995D01*
X90244665Y-36760880D01*
X90050080Y-36955465D01*
X89897195Y-37184273D01*
X89791886Y-37438510D01*
X89738200Y-37708408D01*
X89738200Y-37983592D01*
X89791886Y-38253490D01*
X89897195Y-38507727D01*
X90050080Y-38736535D01*
X90244665Y-38931120D01*
X90473473Y-39084005D01*
X90550715Y-39116000D01*
X90473473Y-39147995D01*
X90244665Y-39300880D01*
X90050080Y-39495465D01*
X89897195Y-39724273D01*
X89791886Y-39978510D01*
X89738200Y-40248408D01*
X89738200Y-40523592D01*
X89791886Y-40793490D01*
X89897195Y-41047727D01*
X90050080Y-41276535D01*
X90244665Y-41471120D01*
X90473473Y-41624005D01*
X90550715Y-41656000D01*
X90473473Y-41687995D01*
X90244665Y-41840880D01*
X90050080Y-42035465D01*
X89897195Y-42264273D01*
X89791886Y-42518510D01*
X89738200Y-42788408D01*
X89738200Y-43063592D01*
X89791886Y-43333490D01*
X89897195Y-43587727D01*
X90050080Y-43816535D01*
X90244665Y-44011120D01*
X90473473Y-44164005D01*
X90550715Y-44196000D01*
X90473473Y-44227995D01*
X90244665Y-44380880D01*
X90050080Y-44575465D01*
X89897195Y-44804273D01*
X89791886Y-45058510D01*
X89738200Y-45328408D01*
X89738200Y-45603592D01*
X89791886Y-45873490D01*
X89897195Y-46127727D01*
X90050080Y-46356535D01*
X90244665Y-46551120D01*
X90473473Y-46704005D01*
X90550715Y-46736000D01*
X90473473Y-46767995D01*
X90244665Y-46920880D01*
X90050080Y-47115465D01*
X89962859Y-47246000D01*
X83552522Y-47246000D01*
X83515199Y-47242324D01*
X83477876Y-47246000D01*
X83477867Y-47246000D01*
X83366214Y-47256997D01*
X83222953Y-47300454D01*
X83090924Y-47371026D01*
X83090922Y-47371027D01*
X83090923Y-47371027D01*
X83004196Y-47442201D01*
X83004192Y-47442205D01*
X82975199Y-47465999D01*
X82951405Y-47494992D01*
X82400108Y-48046291D01*
X82274395Y-47979096D01*
X82011060Y-47899214D01*
X81805825Y-47879000D01*
X81735200Y-47879000D01*
X81735200Y-45780801D01*
X83051930Y-44464072D01*
X85065200Y-44464072D01*
X85238454Y-44447008D01*
X85405050Y-44396472D01*
X85558586Y-44314405D01*
X85693162Y-44203962D01*
X85803605Y-44069386D01*
X85885672Y-43915850D01*
X85936208Y-43749254D01*
X85953272Y-43576000D01*
X85953272Y-42276000D01*
X85936208Y-42102746D01*
X85885672Y-41936150D01*
X85803605Y-41782614D01*
X85693162Y-41648038D01*
X85558586Y-41537595D01*
X85405050Y-41455528D01*
X85238454Y-41404992D01*
X85065200Y-41387928D01*
X81965200Y-41387928D01*
X81791946Y-41404992D01*
X81625350Y-41455528D01*
X81471814Y-41537595D01*
X81337238Y-41648038D01*
X81226795Y-41782614D01*
X81144728Y-41936150D01*
X81094192Y-42102746D01*
X81077128Y-42276000D01*
X81077128Y-43576000D01*
X81094192Y-43749254D01*
X81144728Y-43915850D01*
X81226795Y-44069386D01*
X81258446Y-44107953D01*
X80464203Y-44902196D01*
X80435199Y-44925999D01*
X80383552Y-44988932D01*
X80340226Y-45041724D01*
X80331254Y-45058510D01*
X80269654Y-45173754D01*
X80226197Y-45317015D01*
X80215200Y-45428668D01*
X80215200Y-45428678D01*
X80211524Y-45466000D01*
X80215200Y-45503323D01*
X80215201Y-47879000D01*
X80144575Y-47879000D01*
X79939340Y-47899214D01*
X79676005Y-47979096D01*
X79433313Y-48108817D01*
X79220592Y-48283392D01*
X79195200Y-48314332D01*
X79195200Y-41970801D01*
X80020002Y-41146000D01*
X87891489Y-41146000D01*
X87935426Y-41189937D01*
X88104944Y-41303205D01*
X88293302Y-41381226D01*
X88493261Y-41421000D01*
X88697139Y-41421000D01*
X88897098Y-41381226D01*
X89085456Y-41303205D01*
X89254974Y-41189937D01*
X89399137Y-41045774D01*
X89512405Y-40876256D01*
X89590426Y-40687898D01*
X89630200Y-40487939D01*
X89630200Y-40284061D01*
X89590426Y-40084102D01*
X89512405Y-39895744D01*
X89399137Y-39726226D01*
X89254974Y-39582063D01*
X89085456Y-39468795D01*
X88897098Y-39390774D01*
X88697139Y-39351000D01*
X88493261Y-39351000D01*
X88293302Y-39390774D01*
X88104944Y-39468795D01*
X87935426Y-39582063D01*
X87891489Y-39626000D01*
X79742522Y-39626000D01*
X79705199Y-39622324D01*
X79667876Y-39626000D01*
X79667867Y-39626000D01*
X79556214Y-39636997D01*
X79412953Y-39680454D01*
X79280924Y-39751026D01*
X79165199Y-39845999D01*
X79141401Y-39874997D01*
X78562200Y-40454199D01*
X78562200Y-38210740D01*
X81124164Y-38210740D01*
X81148445Y-38316087D01*
X81268338Y-38593204D01*
X81439990Y-38841606D01*
X81656804Y-39051748D01*
X81910449Y-39215554D01*
X82191177Y-39326729D01*
X82488200Y-39381000D01*
X83388200Y-39381000D01*
X83388200Y-37973000D01*
X83642200Y-37973000D01*
X83642200Y-39381000D01*
X84542200Y-39381000D01*
X84839223Y-39326729D01*
X85119951Y-39215554D01*
X85373596Y-39051748D01*
X85590410Y-38841606D01*
X85762062Y-38593204D01*
X85881955Y-38316087D01*
X85906236Y-38210740D01*
X85785578Y-37973000D01*
X83642200Y-37973000D01*
X83388200Y-37973000D01*
X81244822Y-37973000D01*
X81124164Y-38210740D01*
X78562200Y-38210740D01*
X78562200Y-37481260D01*
X81124164Y-37481260D01*
X81244822Y-37719000D01*
X83388200Y-37719000D01*
X83388200Y-36311000D01*
X83642200Y-36311000D01*
X83642200Y-37719000D01*
X85785578Y-37719000D01*
X85906236Y-37481260D01*
X85881955Y-37375913D01*
X85762062Y-37098796D01*
X85590410Y-36850394D01*
X85373596Y-36640252D01*
X85119951Y-36476446D01*
X84839223Y-36365271D01*
X84542200Y-36311000D01*
X83642200Y-36311000D01*
X83388200Y-36311000D01*
X82488200Y-36311000D01*
X82191177Y-36365271D01*
X81910449Y-36476446D01*
X81656804Y-36640252D01*
X81439990Y-36850394D01*
X81268338Y-37098796D01*
X81148445Y-37375913D01*
X81124164Y-37481260D01*
X78562200Y-37481260D01*
X78562200Y-33758702D01*
X80242103Y-33758702D01*
X80313686Y-34002671D01*
X80569196Y-34123571D01*
X80843384Y-34192300D01*
X81125712Y-34206217D01*
X81405330Y-34164787D01*
X81671492Y-34069603D01*
X81796714Y-34002671D01*
X81868297Y-33758702D01*
X81055200Y-32945605D01*
X80242103Y-33758702D01*
X78562200Y-33758702D01*
X78562200Y-32836512D01*
X79614983Y-32836512D01*
X79656413Y-33116130D01*
X79751597Y-33382292D01*
X79818529Y-33507514D01*
X80062498Y-33579097D01*
X80875595Y-32766000D01*
X81234805Y-32766000D01*
X82047902Y-33579097D01*
X82291871Y-33507514D01*
X82412771Y-33252004D01*
X82481500Y-32977816D01*
X82495417Y-32695488D01*
X82484924Y-32624665D01*
X84620200Y-32624665D01*
X84620200Y-32907335D01*
X84675347Y-33184574D01*
X84783520Y-33445727D01*
X84940563Y-33680759D01*
X85140441Y-33880637D01*
X85375473Y-34037680D01*
X85636626Y-34145853D01*
X85913865Y-34201000D01*
X86196535Y-34201000D01*
X86473774Y-34145853D01*
X86734927Y-34037680D01*
X86969959Y-33880637D01*
X87169837Y-33680759D01*
X87326880Y-33445727D01*
X87435053Y-33184574D01*
X87490200Y-32907335D01*
X87490200Y-32624665D01*
X87435053Y-32347426D01*
X87326880Y-32086273D01*
X87169837Y-31851241D01*
X86969959Y-31651363D01*
X86734927Y-31494320D01*
X86473774Y-31386147D01*
X86196535Y-31331000D01*
X85913865Y-31331000D01*
X85636626Y-31386147D01*
X85375473Y-31494320D01*
X85140441Y-31651363D01*
X84940563Y-31851241D01*
X84783520Y-32086273D01*
X84675347Y-32347426D01*
X84620200Y-32624665D01*
X82484924Y-32624665D01*
X82453987Y-32415870D01*
X82358803Y-32149708D01*
X82291871Y-32024486D01*
X82047902Y-31952903D01*
X81234805Y-32766000D01*
X80875595Y-32766000D01*
X80062498Y-31952903D01*
X79818529Y-32024486D01*
X79697629Y-32279996D01*
X79628900Y-32554184D01*
X79614983Y-32836512D01*
X78562200Y-32836512D01*
X78562200Y-31773298D01*
X80242103Y-31773298D01*
X81055200Y-32586395D01*
X81868297Y-31773298D01*
X81796714Y-31529329D01*
X81541204Y-31408429D01*
X81267016Y-31339700D01*
X80984688Y-31325783D01*
X80705070Y-31367213D01*
X80438908Y-31462397D01*
X80313686Y-31529329D01*
X80242103Y-31773298D01*
X78562200Y-31773298D01*
X78562200Y-29948702D01*
X80242103Y-29948702D01*
X80313686Y-30192671D01*
X80569196Y-30313571D01*
X80843384Y-30382300D01*
X81125712Y-30396217D01*
X81405330Y-30354787D01*
X81671492Y-30259603D01*
X81796714Y-30192671D01*
X81868297Y-29948702D01*
X81055200Y-29135605D01*
X80242103Y-29948702D01*
X78562200Y-29948702D01*
X78562200Y-29026512D01*
X79614983Y-29026512D01*
X79656413Y-29306130D01*
X79751597Y-29572292D01*
X79818529Y-29697514D01*
X80062498Y-29769097D01*
X80875595Y-28956000D01*
X81234805Y-28956000D01*
X82047902Y-29769097D01*
X82291871Y-29697514D01*
X82412771Y-29442004D01*
X82481500Y-29167816D01*
X82495417Y-28885488D01*
X82453987Y-28605870D01*
X82358803Y-28339708D01*
X82291871Y-28214486D01*
X82047902Y-28142903D01*
X81234805Y-28956000D01*
X80875595Y-28956000D01*
X80062498Y-28142903D01*
X79818529Y-28214486D01*
X79697629Y-28469996D01*
X79628900Y-28744184D01*
X79614983Y-29026512D01*
X78562200Y-29026512D01*
X78562200Y-27963298D01*
X80242103Y-27963298D01*
X81055200Y-28776395D01*
X81868297Y-27963298D01*
X81796714Y-27719329D01*
X81541204Y-27598429D01*
X81267016Y-27529700D01*
X80984688Y-27515783D01*
X80705070Y-27557213D01*
X80438908Y-27652397D01*
X80313686Y-27719329D01*
X80242103Y-27963298D01*
X78562200Y-27963298D01*
X78562200Y-23139068D01*
X79259500Y-23139068D01*
X79259500Y-23774732D01*
X79383512Y-24398181D01*
X79626770Y-24985458D01*
X79979925Y-25513993D01*
X80429407Y-25963475D01*
X80957942Y-26316630D01*
X81545219Y-26559888D01*
X82168668Y-26683900D01*
X82804332Y-26683900D01*
X83427781Y-26559888D01*
X84015058Y-26316630D01*
X84543593Y-25963475D01*
X84993075Y-25513993D01*
X85346230Y-24985458D01*
X85589488Y-24398181D01*
X85713500Y-23774732D01*
X85713500Y-23139068D01*
X85589488Y-22515619D01*
X85346230Y-21928342D01*
X84993075Y-21399807D01*
X84543593Y-20950325D01*
X84015058Y-20597170D01*
X83427781Y-20353912D01*
X82804332Y-20229900D01*
X82168668Y-20229900D01*
X81545219Y-20353912D01*
X80957942Y-20597170D01*
X80429407Y-20950325D01*
X79979925Y-21399807D01*
X79626770Y-21928342D01*
X79383512Y-22515619D01*
X79259500Y-23139068D01*
X78562200Y-23139068D01*
X78562200Y-20138017D01*
X89733290Y-20138017D01*
X89774278Y-20410133D01*
X89867564Y-20669023D01*
X89929544Y-20784980D01*
X90169635Y-20851960D01*
X90955595Y-20066000D01*
X90169635Y-19280040D01*
X89929544Y-19347020D01*
X89812444Y-19596048D01*
X89746177Y-19863135D01*
X89733290Y-20138017D01*
X78562200Y-20138017D01*
X78562200Y-19100435D01*
X90349240Y-19100435D01*
X91135200Y-19886395D01*
X91921160Y-19100435D01*
X91854180Y-18860344D01*
X91605152Y-18743244D01*
X91338065Y-18676977D01*
X91063183Y-18664090D01*
X90791067Y-18705078D01*
X90532177Y-18798364D01*
X90416220Y-18860344D01*
X90349240Y-19100435D01*
X78562200Y-19100435D01*
X78562200Y-16625200D01*
X80757128Y-16625200D01*
X80757128Y-18325200D01*
X80769388Y-18449682D01*
X80805698Y-18569380D01*
X80864663Y-18679694D01*
X80944015Y-18776385D01*
X81040706Y-18855737D01*
X81151020Y-18914702D01*
X81270718Y-18951012D01*
X81395200Y-18963272D01*
X83095200Y-18963272D01*
X83219682Y-18951012D01*
X83339380Y-18914702D01*
X83449694Y-18855737D01*
X83546385Y-18776385D01*
X83625737Y-18679694D01*
X83684702Y-18569380D01*
X83706713Y-18496820D01*
X83838568Y-18628675D01*
X84081789Y-18791190D01*
X84352042Y-18903132D01*
X84638940Y-18960200D01*
X84931460Y-18960200D01*
X85218358Y-18903132D01*
X85488611Y-18791190D01*
X85731832Y-18628675D01*
X85938675Y-18421832D01*
X86060395Y-18239666D01*
X86130022Y-18356555D01*
X86324931Y-18572788D01*
X86558280Y-18746841D01*
X86821101Y-18872025D01*
X86968310Y-18916676D01*
X87198200Y-18795355D01*
X87198200Y-17602200D01*
X87452200Y-17602200D01*
X87452200Y-18795355D01*
X87682090Y-18916676D01*
X87829299Y-18872025D01*
X88092120Y-18746841D01*
X88325469Y-18572788D01*
X88520378Y-18356555D01*
X88669357Y-18106452D01*
X88766681Y-17832091D01*
X88646014Y-17602200D01*
X87452200Y-17602200D01*
X87198200Y-17602200D01*
X87178200Y-17602200D01*
X87178200Y-17348200D01*
X87198200Y-17348200D01*
X87198200Y-16155045D01*
X87452200Y-16155045D01*
X87452200Y-17348200D01*
X88646014Y-17348200D01*
X88766681Y-17118309D01*
X88669357Y-16843948D01*
X88520378Y-16593845D01*
X88325469Y-16377612D01*
X88092120Y-16203559D01*
X87829299Y-16078375D01*
X87682090Y-16033724D01*
X87452200Y-16155045D01*
X87198200Y-16155045D01*
X86968310Y-16033724D01*
X86821101Y-16078375D01*
X86558280Y-16203559D01*
X86324931Y-16377612D01*
X86130022Y-16593845D01*
X86060395Y-16710734D01*
X85938675Y-16528568D01*
X85731832Y-16321725D01*
X85488611Y-16159210D01*
X85218358Y-16047268D01*
X84931460Y-15990200D01*
X84638940Y-15990200D01*
X84352042Y-16047268D01*
X84081789Y-16159210D01*
X83838568Y-16321725D01*
X83706713Y-16453580D01*
X83684702Y-16381020D01*
X83625737Y-16270706D01*
X83546385Y-16174015D01*
X83449694Y-16094663D01*
X83339380Y-16035698D01*
X83219682Y-15999388D01*
X83095200Y-15987128D01*
X81395200Y-15987128D01*
X81270718Y-15999388D01*
X81151020Y-16035698D01*
X81040706Y-16094663D01*
X80944015Y-16174015D01*
X80864663Y-16270706D01*
X80805698Y-16381020D01*
X80769388Y-16500718D01*
X80757128Y-16625200D01*
X78562200Y-16625200D01*
X78562200Y-15748000D01*
X92278200Y-15748000D01*
X92278200Y-19329540D01*
G37*
%TD.AperFunction*%
%TD*%
M02*
