%TF.GenerationSoftware,KiCad,Pcbnew,(5.1.9)-1*%
%TF.CreationDate,2021-03-10T14:32:31-04:00*%
%TF.ProjectId,placa_manutencao_preventiva,706c6163-615f-46d6-916e-7574656e6361,rev?*%
%TF.SameCoordinates,Original*%
%TF.FileFunction,Legend,Top*%
%TF.FilePolarity,Positive*%
%FSLAX46Y46*%
G04 Gerber Fmt 4.6, Leading zero omitted, Abs format (unit mm)*
G04 Created by KiCad (PCBNEW (5.1.9)-1) date 2021-03-10 14:32:31*
%MOMM*%
%LPD*%
G01*
G04 APERTURE LIST*
%ADD10C,0.120000*%
%ADD11C,0.150000*%
%TA.AperFunction,Profile*%
%ADD12C,0.050000*%
%TD*%
%ADD13C,0.070000*%
%ADD14C,0.080000*%
%ADD15C,0.010000*%
%ADD16C,0.127000*%
%ADD17C,0.015000*%
G04 APERTURE END LIST*
D10*
X131775200Y-70231000D02*
X131775200Y-77851000D01*
X127965200Y-70231000D02*
X131140200Y-70231000D01*
X127965200Y-77851000D02*
X127965200Y-70231000D01*
X131140200Y-77851000D02*
X127965200Y-77851000D01*
D11*
X129497580Y-76636238D02*
X128497580Y-76636238D01*
X129211866Y-76302904D01*
X128497580Y-75969571D01*
X129497580Y-75969571D01*
X129497580Y-75064809D02*
X128973771Y-75064809D01*
X128878533Y-75112428D01*
X128830914Y-75207666D01*
X128830914Y-75398142D01*
X128878533Y-75493380D01*
X129449961Y-75064809D02*
X129497580Y-75160047D01*
X129497580Y-75398142D01*
X129449961Y-75493380D01*
X129354723Y-75541000D01*
X129259485Y-75541000D01*
X129164247Y-75493380D01*
X129116628Y-75398142D01*
X129116628Y-75160047D01*
X129069009Y-75064809D01*
X128830914Y-74588619D02*
X129497580Y-74588619D01*
X128926152Y-74588619D02*
X128878533Y-74541000D01*
X128830914Y-74445761D01*
X128830914Y-74302904D01*
X128878533Y-74207666D01*
X128973771Y-74160047D01*
X129497580Y-74160047D01*
X128830914Y-73255285D02*
X129497580Y-73255285D01*
X128830914Y-73683857D02*
X129354723Y-73683857D01*
X129449961Y-73636238D01*
X129497580Y-73541000D01*
X129497580Y-73398142D01*
X129449961Y-73302904D01*
X129402342Y-73255285D01*
X128830914Y-72921952D02*
X128830914Y-72541000D01*
X128497580Y-72779095D02*
X129354723Y-72779095D01*
X129449961Y-72731476D01*
X129497580Y-72636238D01*
X129497580Y-72541000D01*
X129402342Y-72207666D02*
X129449961Y-72160047D01*
X129497580Y-72207666D01*
X129449961Y-72255285D01*
X129402342Y-72207666D01*
X129497580Y-72207666D01*
X131147580Y-76826714D02*
X130147580Y-76826714D01*
X130147580Y-76445761D01*
X130195200Y-76350523D01*
X130242819Y-76302904D01*
X130338057Y-76255285D01*
X130480914Y-76255285D01*
X130576152Y-76302904D01*
X130623771Y-76350523D01*
X130671390Y-76445761D01*
X130671390Y-76826714D01*
X131147580Y-75826714D02*
X130480914Y-75826714D01*
X130671390Y-75826714D02*
X130576152Y-75779095D01*
X130528533Y-75731476D01*
X130480914Y-75636238D01*
X130480914Y-75541000D01*
X131099961Y-74826714D02*
X131147580Y-74921952D01*
X131147580Y-75112428D01*
X131099961Y-75207666D01*
X131004723Y-75255285D01*
X130623771Y-75255285D01*
X130528533Y-75207666D01*
X130480914Y-75112428D01*
X130480914Y-74921952D01*
X130528533Y-74826714D01*
X130623771Y-74779095D01*
X130719009Y-74779095D01*
X130814247Y-75255285D01*
X130480914Y-74445761D02*
X131147580Y-74207666D01*
X130480914Y-73969571D01*
X131099961Y-73207666D02*
X131147580Y-73302904D01*
X131147580Y-73493380D01*
X131099961Y-73588619D01*
X131004723Y-73636238D01*
X130623771Y-73636238D01*
X130528533Y-73588619D01*
X130480914Y-73493380D01*
X130480914Y-73302904D01*
X130528533Y-73207666D01*
X130623771Y-73160047D01*
X130719009Y-73160047D01*
X130814247Y-73636238D01*
X130480914Y-72731476D02*
X131147580Y-72731476D01*
X130576152Y-72731476D02*
X130528533Y-72683857D01*
X130480914Y-72588619D01*
X130480914Y-72445761D01*
X130528533Y-72350523D01*
X130623771Y-72302904D01*
X131147580Y-72302904D01*
X130480914Y-71969571D02*
X130480914Y-71588619D01*
X130147580Y-71826714D02*
X131004723Y-71826714D01*
X131099961Y-71779095D01*
X131147580Y-71683857D01*
X131147580Y-71588619D01*
X131052342Y-71255285D02*
X131099961Y-71207666D01*
X131147580Y-71255285D01*
X131099961Y-71302904D01*
X131052342Y-71255285D01*
X131147580Y-71255285D01*
D12*
X77800200Y-14986000D02*
X136220200Y-14986000D01*
D10*
X134950200Y-77851000D02*
X131140200Y-77851000D01*
X134950200Y-70231000D02*
X134950200Y-77851000D01*
X131140200Y-70231000D02*
X134950200Y-70231000D01*
D11*
X133497580Y-76350523D02*
X133021390Y-76683857D01*
X133497580Y-76921952D02*
X132497580Y-76921952D01*
X132497580Y-76541000D01*
X132545200Y-76445761D01*
X132592819Y-76398142D01*
X132688057Y-76350523D01*
X132830914Y-76350523D01*
X132926152Y-76398142D01*
X132973771Y-76445761D01*
X133021390Y-76541000D01*
X133021390Y-76921952D01*
X133449961Y-75541000D02*
X133497580Y-75636238D01*
X133497580Y-75826714D01*
X133449961Y-75921952D01*
X133354723Y-75969571D01*
X132973771Y-75969571D01*
X132878533Y-75921952D01*
X132830914Y-75826714D01*
X132830914Y-75636238D01*
X132878533Y-75541000D01*
X132973771Y-75493380D01*
X133069009Y-75493380D01*
X133164247Y-75969571D01*
X132830914Y-75160047D02*
X133497580Y-74921952D01*
X132830914Y-74683857D01*
X133402342Y-74302904D02*
X133449961Y-74255285D01*
X133497580Y-74302904D01*
X133449961Y-74350523D01*
X133402342Y-74302904D01*
X133497580Y-74302904D01*
X133497580Y-72541000D02*
X133497580Y-73112428D01*
X133497580Y-72826714D02*
X132497580Y-72826714D01*
X132640438Y-72921952D01*
X132735676Y-73017190D01*
X132783295Y-73112428D01*
X133402342Y-72112428D02*
X133449961Y-72064809D01*
X133497580Y-72112428D01*
X133449961Y-72160047D01*
X133402342Y-72112428D01*
X133497580Y-72112428D01*
X133497580Y-71112428D02*
X133497580Y-71683857D01*
X133497580Y-71398142D02*
X132497580Y-71398142D01*
X132640438Y-71493380D01*
X132735676Y-71588619D01*
X132783295Y-71683857D01*
D12*
X77800200Y-14986000D02*
X77800200Y-135001000D01*
X136220200Y-135001000D02*
X136220200Y-14986000D01*
X77800200Y-135001000D02*
X136220200Y-135001000D01*
D13*
X80529600Y-19912800D02*
X81062933Y-19912800D01*
X80796266Y-20179466D02*
X80796266Y-19646133D01*
X81729600Y-19479466D02*
X81396266Y-19479466D01*
X81362933Y-19812800D01*
X81396266Y-19779466D01*
X81462933Y-19746133D01*
X81629600Y-19746133D01*
X81696266Y-19779466D01*
X81729600Y-19812800D01*
X81762933Y-19879466D01*
X81762933Y-20046133D01*
X81729600Y-20112800D01*
X81696266Y-20146133D01*
X81629600Y-20179466D01*
X81462933Y-20179466D01*
X81396266Y-20146133D01*
X81362933Y-20112800D01*
X81962933Y-19479466D02*
X82196266Y-20179466D01*
X82429600Y-19479466D01*
X83196266Y-19912800D02*
X83729600Y-19912800D01*
X83462933Y-20179466D02*
X83462933Y-19646133D01*
X83996266Y-19479466D02*
X84429600Y-19479466D01*
X84196266Y-19746133D01*
X84296266Y-19746133D01*
X84362933Y-19779466D01*
X84396266Y-19812800D01*
X84429600Y-19879466D01*
X84429600Y-20046133D01*
X84396266Y-20112800D01*
X84362933Y-20146133D01*
X84296266Y-20179466D01*
X84096266Y-20179466D01*
X84029600Y-20146133D01*
X83996266Y-20112800D01*
X84629600Y-19479466D02*
X84862933Y-20179466D01*
X85096266Y-19479466D01*
X85262933Y-19479466D02*
X85696266Y-19479466D01*
X85462933Y-19746133D01*
X85562933Y-19746133D01*
X85629600Y-19779466D01*
X85662933Y-19812800D01*
X85696266Y-19879466D01*
X85696266Y-20046133D01*
X85662933Y-20112800D01*
X85629600Y-20146133D01*
X85562933Y-20179466D01*
X85362933Y-20179466D01*
X85296266Y-20146133D01*
X85262933Y-20112800D01*
X86896266Y-19512800D02*
X86829600Y-19479466D01*
X86729600Y-19479466D01*
X86629600Y-19512800D01*
X86562933Y-19579466D01*
X86529600Y-19646133D01*
X86496266Y-19779466D01*
X86496266Y-19879466D01*
X86529600Y-20012800D01*
X86562933Y-20079466D01*
X86629600Y-20146133D01*
X86729600Y-20179466D01*
X86796266Y-20179466D01*
X86896266Y-20146133D01*
X86929600Y-20112800D01*
X86929600Y-19879466D01*
X86796266Y-19879466D01*
X87229600Y-20179466D02*
X87229600Y-19479466D01*
X87629600Y-20179466D01*
X87629600Y-19479466D01*
X87962933Y-20179466D02*
X87962933Y-19479466D01*
X88129600Y-19479466D01*
X88229600Y-19512800D01*
X88296266Y-19579466D01*
X88329600Y-19646133D01*
X88362933Y-19779466D01*
X88362933Y-19879466D01*
X88329600Y-20012800D01*
X88296266Y-20079466D01*
X88229600Y-20146133D01*
X88129600Y-20179466D01*
X87962933Y-20179466D01*
D11*
X96739295Y-88666628D02*
X97501200Y-88666628D01*
X99501200Y-88666628D02*
X100263104Y-88666628D01*
X99882152Y-89047580D02*
X99882152Y-88285676D01*
D14*
X134600200Y-87237666D02*
X134566866Y-87304333D01*
X134566866Y-87404333D01*
X134600200Y-87504333D01*
X134666866Y-87571000D01*
X134733533Y-87604333D01*
X134866866Y-87637666D01*
X134966866Y-87637666D01*
X135100200Y-87604333D01*
X135166866Y-87571000D01*
X135233533Y-87504333D01*
X135266866Y-87404333D01*
X135266866Y-87337666D01*
X135233533Y-87237666D01*
X135200200Y-87204333D01*
X134966866Y-87204333D01*
X134966866Y-87337666D01*
X135266866Y-86904333D02*
X134566866Y-86904333D01*
X135266866Y-86504333D01*
X134566866Y-86504333D01*
X135266866Y-86171000D02*
X134566866Y-86171000D01*
X134566866Y-86004333D01*
X134600200Y-85904333D01*
X134666866Y-85837666D01*
X134733533Y-85804333D01*
X134866866Y-85771000D01*
X134966866Y-85771000D01*
X135100200Y-85804333D01*
X135166866Y-85837666D01*
X135233533Y-85904333D01*
X135266866Y-86004333D01*
X135266866Y-86171000D01*
X134566866Y-85004333D02*
X134566866Y-84571000D01*
X134833533Y-84804333D01*
X134833533Y-84704333D01*
X134866866Y-84637666D01*
X134900200Y-84604333D01*
X134966866Y-84571000D01*
X135133533Y-84571000D01*
X135200200Y-84604333D01*
X135233533Y-84637666D01*
X135266866Y-84704333D01*
X135266866Y-84904333D01*
X135233533Y-84971000D01*
X135200200Y-85004333D01*
X134566866Y-84371000D02*
X135266866Y-84137666D01*
X134566866Y-83904333D01*
X134566866Y-83737666D02*
X134566866Y-83304333D01*
X134833533Y-83537666D01*
X134833533Y-83437666D01*
X134866866Y-83371000D01*
X134900200Y-83337666D01*
X134966866Y-83304333D01*
X135133533Y-83304333D01*
X135200200Y-83337666D01*
X135233533Y-83371000D01*
X135266866Y-83437666D01*
X135266866Y-83637666D01*
X135233533Y-83704333D01*
X135200200Y-83737666D01*
X88017342Y-47789571D02*
X88017342Y-47180047D01*
X88322104Y-47484809D02*
X87712580Y-47484809D01*
X87522104Y-46875285D02*
X87522104Y-46380047D01*
X87826866Y-46646714D01*
X87826866Y-46532428D01*
X87864961Y-46456238D01*
X87903057Y-46418142D01*
X87979247Y-46380047D01*
X88169723Y-46380047D01*
X88245914Y-46418142D01*
X88284009Y-46456238D01*
X88322104Y-46532428D01*
X88322104Y-46761000D01*
X88284009Y-46837190D01*
X88245914Y-46875285D01*
X88245914Y-46037190D02*
X88284009Y-45999095D01*
X88322104Y-46037190D01*
X88284009Y-46075285D01*
X88245914Y-46037190D01*
X88322104Y-46037190D01*
X87522104Y-45732428D02*
X87522104Y-45237190D01*
X87826866Y-45503857D01*
X87826866Y-45389571D01*
X87864961Y-45313380D01*
X87903057Y-45275285D01*
X87979247Y-45237190D01*
X88169723Y-45237190D01*
X88245914Y-45275285D01*
X88284009Y-45313380D01*
X88322104Y-45389571D01*
X88322104Y-45618142D01*
X88284009Y-45694333D01*
X88245914Y-45732428D01*
X87522104Y-45008619D02*
X88322104Y-44741952D01*
X87522104Y-44475285D01*
X87484009Y-43027666D02*
X88512580Y-43713380D01*
X88017342Y-42151476D02*
X88017342Y-41541952D01*
X88322104Y-41846714D02*
X87712580Y-41846714D01*
X88322104Y-40741952D02*
X88322104Y-41199095D01*
X88322104Y-40970523D02*
X87522104Y-40970523D01*
X87636390Y-41046714D01*
X87712580Y-41122904D01*
X87750676Y-41199095D01*
X87598295Y-40437190D02*
X87560200Y-40399095D01*
X87522104Y-40322904D01*
X87522104Y-40132428D01*
X87560200Y-40056238D01*
X87598295Y-40018142D01*
X87674485Y-39980047D01*
X87750676Y-39980047D01*
X87864961Y-40018142D01*
X88322104Y-40475285D01*
X88322104Y-39980047D01*
X87522104Y-39751476D02*
X88322104Y-39484809D01*
X87522104Y-39218142D01*
D10*
%TO.C,J6*%
X134375200Y-47371000D02*
X131715200Y-47371000D01*
X134375200Y-47371000D02*
X134375200Y-29531000D01*
X134375200Y-29531000D02*
X131715200Y-29531000D01*
X131715200Y-47371000D02*
X131715200Y-29531000D01*
X131715200Y-49971000D02*
X131715200Y-48641000D01*
X133045200Y-49971000D02*
X131715200Y-49971000D01*
%TO.C,D2*%
X91335200Y-84166000D02*
X88395200Y-84166000D01*
X91335200Y-84406000D02*
X88395200Y-84406000D01*
X91335200Y-84286000D02*
X88395200Y-84286000D01*
X89865200Y-89846000D02*
X89865200Y-88826000D01*
X89865200Y-82366000D02*
X89865200Y-83386000D01*
X91335200Y-88826000D02*
X91335200Y-83386000D01*
X88395200Y-88826000D02*
X91335200Y-88826000D01*
X88395200Y-83386000D02*
X88395200Y-88826000D01*
X91335200Y-83386000D02*
X88395200Y-83386000D01*
D15*
%TO.C,G\u002A\u002A\u002A*%
G36*
X120351020Y-43361153D02*
G01*
X120480667Y-43315467D01*
X120613451Y-43365076D01*
X120650000Y-43527134D01*
X120610313Y-43693115D01*
X120480667Y-43738800D01*
X120347882Y-43689192D01*
X120311333Y-43527134D01*
X120351020Y-43361153D01*
G37*
X120351020Y-43361153D02*
X120480667Y-43315467D01*
X120613451Y-43365076D01*
X120650000Y-43527134D01*
X120610313Y-43693115D01*
X120480667Y-43738800D01*
X120347882Y-43689192D01*
X120311333Y-43527134D01*
X120351020Y-43361153D01*
G36*
X120853510Y-28565321D02*
G01*
X120990762Y-28255752D01*
X121236154Y-28039597D01*
X121561949Y-27941737D01*
X121923891Y-27981963D01*
X122239011Y-28154091D01*
X122438466Y-28425302D01*
X122507362Y-28758599D01*
X122430805Y-29116979D01*
X122403916Y-29174465D01*
X122186816Y-29428124D01*
X121868548Y-29559796D01*
X121578661Y-29567002D01*
X121578661Y-29159270D01*
X121825770Y-29134568D01*
X121985828Y-29044333D01*
X122138842Y-28908617D01*
X122163232Y-28765431D01*
X122120119Y-28626239D01*
X121977370Y-28456777D01*
X121755412Y-28384194D01*
X121511565Y-28405205D01*
X121303149Y-28516521D01*
X121196823Y-28679195D01*
X121192191Y-28862506D01*
X121325957Y-29022712D01*
X121578661Y-29159270D01*
X121578661Y-29567002D01*
X121553595Y-29567626D01*
X121196714Y-29462885D01*
X120963229Y-29244105D01*
X120852133Y-28943424D01*
X120853510Y-28565321D01*
G37*
X120853510Y-28565321D02*
X120990762Y-28255752D01*
X121236154Y-28039597D01*
X121561949Y-27941737D01*
X121923891Y-27981963D01*
X122239011Y-28154091D01*
X122438466Y-28425302D01*
X122507362Y-28758599D01*
X122430805Y-29116979D01*
X122403916Y-29174465D01*
X122186816Y-29428124D01*
X121868548Y-29559796D01*
X121578661Y-29567002D01*
X121578661Y-29159270D01*
X121825770Y-29134568D01*
X121985828Y-29044333D01*
X122138842Y-28908617D01*
X122163232Y-28765431D01*
X122120119Y-28626239D01*
X121977370Y-28456777D01*
X121755412Y-28384194D01*
X121511565Y-28405205D01*
X121303149Y-28516521D01*
X121196823Y-28679195D01*
X121192191Y-28862506D01*
X121325957Y-29022712D01*
X121578661Y-29159270D01*
X121578661Y-29567002D01*
X121553595Y-29567626D01*
X121196714Y-29462885D01*
X120963229Y-29244105D01*
X120852133Y-28943424D01*
X120853510Y-28565321D01*
G36*
X120385033Y-30121711D02*
G01*
X120562559Y-30107470D01*
X120565333Y-30107467D01*
X120751253Y-30080857D01*
X120816713Y-29981845D01*
X120819333Y-29938134D01*
X120879202Y-29796630D01*
X120988667Y-29768800D01*
X121130171Y-29828669D01*
X121158000Y-29938134D01*
X121177871Y-30035347D01*
X121264060Y-30086362D01*
X121456425Y-30105430D01*
X121631593Y-30107467D01*
X121909123Y-30098738D01*
X122061754Y-30062753D01*
X122133454Y-29984819D01*
X122150540Y-29934034D01*
X122237943Y-29801669D01*
X122359545Y-29800171D01*
X122463534Y-29914544D01*
X122496096Y-30034047D01*
X122465662Y-30255614D01*
X122384216Y-30393156D01*
X122227381Y-30480163D01*
X121957733Y-30523263D01*
X121702286Y-30530800D01*
X121417096Y-30542883D01*
X121222106Y-30574830D01*
X121158000Y-30615467D01*
X121087087Y-30684257D01*
X120988667Y-30700134D01*
X120851086Y-30664678D01*
X120819333Y-30615467D01*
X120748553Y-30546272D01*
X120652979Y-30530800D01*
X120492544Y-30461330D01*
X120356766Y-30302554D01*
X120311333Y-30155367D01*
X120385033Y-30121711D01*
G37*
X120385033Y-30121711D02*
X120562559Y-30107470D01*
X120565333Y-30107467D01*
X120751253Y-30080857D01*
X120816713Y-29981845D01*
X120819333Y-29938134D01*
X120879202Y-29796630D01*
X120988667Y-29768800D01*
X121130171Y-29828669D01*
X121158000Y-29938134D01*
X121177871Y-30035347D01*
X121264060Y-30086362D01*
X121456425Y-30105430D01*
X121631593Y-30107467D01*
X121909123Y-30098738D01*
X122061754Y-30062753D01*
X122133454Y-29984819D01*
X122150540Y-29934034D01*
X122237943Y-29801669D01*
X122359545Y-29800171D01*
X122463534Y-29914544D01*
X122496096Y-30034047D01*
X122465662Y-30255614D01*
X122384216Y-30393156D01*
X122227381Y-30480163D01*
X121957733Y-30523263D01*
X121702286Y-30530800D01*
X121417096Y-30542883D01*
X121222106Y-30574830D01*
X121158000Y-30615467D01*
X121087087Y-30684257D01*
X120988667Y-30700134D01*
X120851086Y-30664678D01*
X120819333Y-30615467D01*
X120748553Y-30546272D01*
X120652979Y-30530800D01*
X120492544Y-30461330D01*
X120356766Y-30302554D01*
X120311333Y-30155367D01*
X120385033Y-30121711D01*
G36*
X120864777Y-32094538D02*
G01*
X120951134Y-32054800D01*
X121035605Y-32039496D01*
X121015723Y-31963611D01*
X120951134Y-31866628D01*
X120830923Y-31575424D01*
X120869270Y-31294934D01*
X120988666Y-31123467D01*
X121105112Y-31035359D01*
X121265135Y-30983592D01*
X121512310Y-30959449D01*
X121835333Y-30954134D01*
X122171300Y-30956483D01*
X122372475Y-30970600D01*
X122473397Y-31007088D01*
X122508605Y-31076553D01*
X122512667Y-31162091D01*
X122502656Y-31270357D01*
X122448331Y-31334781D01*
X122313249Y-31369390D01*
X122060968Y-31388208D01*
X121907703Y-31394925D01*
X121560472Y-31419835D01*
X121346401Y-31465418D01*
X121229735Y-31540468D01*
X121210639Y-31566379D01*
X121172079Y-31742618D01*
X121291195Y-31884099D01*
X121558828Y-31985052D01*
X121961277Y-32039417D01*
X122258062Y-32063007D01*
X122423571Y-32096882D01*
X122495756Y-32157348D01*
X122512568Y-32260711D01*
X122512667Y-32276330D01*
X122506382Y-32367920D01*
X122466924Y-32426515D01*
X122363386Y-32459484D01*
X122164859Y-32474192D01*
X121840436Y-32478008D01*
X121666000Y-32478134D01*
X120819333Y-32478134D01*
X120819333Y-32266467D01*
X120864777Y-32094538D01*
G37*
X120864777Y-32094538D02*
X120951134Y-32054800D01*
X121035605Y-32039496D01*
X121015723Y-31963611D01*
X120951134Y-31866628D01*
X120830923Y-31575424D01*
X120869270Y-31294934D01*
X120988666Y-31123467D01*
X121105112Y-31035359D01*
X121265135Y-30983592D01*
X121512310Y-30959449D01*
X121835333Y-30954134D01*
X122171300Y-30956483D01*
X122372475Y-30970600D01*
X122473397Y-31007088D01*
X122508605Y-31076553D01*
X122512667Y-31162091D01*
X122502656Y-31270357D01*
X122448331Y-31334781D01*
X122313249Y-31369390D01*
X122060968Y-31388208D01*
X121907703Y-31394925D01*
X121560472Y-31419835D01*
X121346401Y-31465418D01*
X121229735Y-31540468D01*
X121210639Y-31566379D01*
X121172079Y-31742618D01*
X121291195Y-31884099D01*
X121558828Y-31985052D01*
X121961277Y-32039417D01*
X122258062Y-32063007D01*
X122423571Y-32096882D01*
X122495756Y-32157348D01*
X122512568Y-32260711D01*
X122512667Y-32276330D01*
X122506382Y-32367920D01*
X122466924Y-32426515D01*
X122363386Y-32459484D01*
X122164859Y-32474192D01*
X121840436Y-32478008D01*
X121666000Y-32478134D01*
X120819333Y-32478134D01*
X120819333Y-32266467D01*
X120864777Y-32094538D01*
G36*
X120998714Y-33138788D02*
G01*
X121066820Y-33064288D01*
X121298451Y-32890109D01*
X121520357Y-32817094D01*
X121532487Y-32816800D01*
X121652829Y-32826606D01*
X121718096Y-32882416D01*
X121745098Y-33023824D01*
X121750644Y-33290420D01*
X121750667Y-33330689D01*
X121755139Y-33613541D01*
X121778204Y-33764255D01*
X121834330Y-33819976D01*
X121937987Y-33817851D01*
X121940302Y-33817522D01*
X122108368Y-33727217D01*
X122160639Y-33555844D01*
X122082549Y-33358082D01*
X122067615Y-33339668D01*
X121986608Y-33124713D01*
X122000522Y-32986134D01*
X122054656Y-32774467D01*
X122283661Y-33003452D01*
X122474137Y-33299806D01*
X122509060Y-33628927D01*
X122387589Y-33954748D01*
X122308331Y-34060913D01*
X122156188Y-34206932D01*
X121984706Y-34277573D01*
X121725487Y-34298133D01*
X121666000Y-34298467D01*
X121384393Y-34284072D01*
X121367009Y-34278333D01*
X121367009Y-33832800D01*
X121461093Y-33773563D01*
X121495906Y-33579902D01*
X121496667Y-33529412D01*
X121472583Y-33317936D01*
X121403436Y-33257486D01*
X121396882Y-33259284D01*
X121249229Y-33369723D01*
X121180166Y-33538323D01*
X121192721Y-33706949D01*
X121289923Y-33817464D01*
X121367009Y-33832800D01*
X121367009Y-34278333D01*
X121202493Y-34224021D01*
X121051904Y-34093020D01*
X121023669Y-34060913D01*
X120847600Y-33752313D01*
X120839474Y-33440490D01*
X120998714Y-33138788D01*
G37*
X120998714Y-33138788D02*
X121066820Y-33064288D01*
X121298451Y-32890109D01*
X121520357Y-32817094D01*
X121532487Y-32816800D01*
X121652829Y-32826606D01*
X121718096Y-32882416D01*
X121745098Y-33023824D01*
X121750644Y-33290420D01*
X121750667Y-33330689D01*
X121755139Y-33613541D01*
X121778204Y-33764255D01*
X121834330Y-33819976D01*
X121937987Y-33817851D01*
X121940302Y-33817522D01*
X122108368Y-33727217D01*
X122160639Y-33555844D01*
X122082549Y-33358082D01*
X122067615Y-33339668D01*
X121986608Y-33124713D01*
X122000522Y-32986134D01*
X122054656Y-32774467D01*
X122283661Y-33003452D01*
X122474137Y-33299806D01*
X122509060Y-33628927D01*
X122387589Y-33954748D01*
X122308331Y-34060913D01*
X122156188Y-34206932D01*
X121984706Y-34277573D01*
X121725487Y-34298133D01*
X121666000Y-34298467D01*
X121384393Y-34284072D01*
X121367009Y-34278333D01*
X121367009Y-33832800D01*
X121461093Y-33773563D01*
X121495906Y-33579902D01*
X121496667Y-33529412D01*
X121472583Y-33317936D01*
X121403436Y-33257486D01*
X121396882Y-33259284D01*
X121249229Y-33369723D01*
X121180166Y-33538323D01*
X121192721Y-33706949D01*
X121289923Y-33817464D01*
X121367009Y-33832800D01*
X121367009Y-34278333D01*
X121202493Y-34224021D01*
X121051904Y-34093020D01*
X121023669Y-34060913D01*
X120847600Y-33752313D01*
X120839474Y-33440490D01*
X120998714Y-33138788D01*
G36*
X120863088Y-36653046D02*
G01*
X120916141Y-36608642D01*
X120970605Y-36542524D01*
X120916141Y-36395486D01*
X120826047Y-36112044D01*
X120868232Y-35875153D01*
X120944777Y-35781425D01*
X121025247Y-35685144D01*
X120993477Y-35571939D01*
X120944777Y-35498219D01*
X120829525Y-35210877D01*
X120871844Y-34930520D01*
X120988666Y-34764134D01*
X121105112Y-34676026D01*
X121265135Y-34624258D01*
X121512310Y-34600116D01*
X121835333Y-34594800D01*
X122171263Y-34597056D01*
X122372410Y-34611021D01*
X122473325Y-34647491D01*
X122508557Y-34717263D01*
X122512667Y-34806467D01*
X122502848Y-34920803D01*
X122447733Y-34984182D01*
X122308828Y-35011597D01*
X122047643Y-35018041D01*
X121969258Y-35018134D01*
X121581805Y-35028425D01*
X121335662Y-35065090D01*
X121203729Y-35136816D01*
X121158908Y-35252290D01*
X121158000Y-35278213D01*
X121224816Y-35446369D01*
X121431163Y-35554259D01*
X121785887Y-35605382D01*
X121999100Y-35610800D01*
X122282550Y-35615169D01*
X122436253Y-35639143D01*
X122499765Y-35699024D01*
X122512639Y-35811116D01*
X122512667Y-35822467D01*
X122504799Y-35929955D01*
X122457468Y-35993050D01*
X122335077Y-36023569D01*
X122102031Y-36033327D01*
X121875009Y-36034134D01*
X121526200Y-36042559D01*
X121314719Y-36071733D01*
X121209220Y-36127500D01*
X121188204Y-36162212D01*
X121180503Y-36341503D01*
X121321109Y-36462660D01*
X121614781Y-36528119D01*
X121930367Y-36542134D01*
X122236666Y-36545380D01*
X122410863Y-36564138D01*
X122490174Y-36611937D01*
X122511818Y-36702306D01*
X122512667Y-36753800D01*
X122512667Y-36965467D01*
X121666000Y-36965467D01*
X121280051Y-36962921D01*
X121032908Y-36951385D01*
X120894073Y-36925015D01*
X120833048Y-36877964D01*
X120819335Y-36804387D01*
X120819333Y-36803189D01*
X120863088Y-36653046D01*
G37*
X120863088Y-36653046D02*
X120916141Y-36608642D01*
X120970605Y-36542524D01*
X120916141Y-36395486D01*
X120826047Y-36112044D01*
X120868232Y-35875153D01*
X120944777Y-35781425D01*
X121025247Y-35685144D01*
X120993477Y-35571939D01*
X120944777Y-35498219D01*
X120829525Y-35210877D01*
X120871844Y-34930520D01*
X120988666Y-34764134D01*
X121105112Y-34676026D01*
X121265135Y-34624258D01*
X121512310Y-34600116D01*
X121835333Y-34594800D01*
X122171263Y-34597056D01*
X122372410Y-34611021D01*
X122473325Y-34647491D01*
X122508557Y-34717263D01*
X122512667Y-34806467D01*
X122502848Y-34920803D01*
X122447733Y-34984182D01*
X122308828Y-35011597D01*
X122047643Y-35018041D01*
X121969258Y-35018134D01*
X121581805Y-35028425D01*
X121335662Y-35065090D01*
X121203729Y-35136816D01*
X121158908Y-35252290D01*
X121158000Y-35278213D01*
X121224816Y-35446369D01*
X121431163Y-35554259D01*
X121785887Y-35605382D01*
X121999100Y-35610800D01*
X122282550Y-35615169D01*
X122436253Y-35639143D01*
X122499765Y-35699024D01*
X122512639Y-35811116D01*
X122512667Y-35822467D01*
X122504799Y-35929955D01*
X122457468Y-35993050D01*
X122335077Y-36023569D01*
X122102031Y-36033327D01*
X121875009Y-36034134D01*
X121526200Y-36042559D01*
X121314719Y-36071733D01*
X121209220Y-36127500D01*
X121188204Y-36162212D01*
X121180503Y-36341503D01*
X121321109Y-36462660D01*
X121614781Y-36528119D01*
X121930367Y-36542134D01*
X122236666Y-36545380D01*
X122410863Y-36564138D01*
X122490174Y-36611937D01*
X122511818Y-36702306D01*
X122512667Y-36753800D01*
X122512667Y-36965467D01*
X121666000Y-36965467D01*
X121280051Y-36962921D01*
X121032908Y-36951385D01*
X120894073Y-36925015D01*
X120833048Y-36877964D01*
X120819335Y-36804387D01*
X120819333Y-36803189D01*
X120863088Y-36653046D01*
G36*
X120900624Y-37663335D02*
G01*
X120946786Y-37583181D01*
X121031935Y-37491792D01*
X121157895Y-37433661D01*
X121364263Y-37399001D01*
X121690638Y-37378021D01*
X121793650Y-37373842D01*
X122142088Y-37362775D01*
X122354801Y-37367160D01*
X122465212Y-37394577D01*
X122506747Y-37452607D01*
X122512864Y-37536967D01*
X122479705Y-37685642D01*
X122425021Y-37727467D01*
X122380621Y-37779295D01*
X122425021Y-37891234D01*
X122508288Y-38213149D01*
X122440323Y-38537145D01*
X122380866Y-38639962D01*
X122189735Y-38791921D01*
X122052100Y-38806495D01*
X122052100Y-38379330D01*
X122085624Y-38364759D01*
X122165512Y-38230463D01*
X122149918Y-38042966D01*
X122072400Y-37913734D01*
X121908230Y-37816905D01*
X121788627Y-37865817D01*
X121750667Y-38013434D01*
X121799394Y-38208403D01*
X121915107Y-38346348D01*
X122052100Y-38379330D01*
X122052100Y-38806495D01*
X121959648Y-38816285D01*
X121755776Y-38707941D01*
X121739867Y-38690238D01*
X121644623Y-38520858D01*
X121554100Y-38273702D01*
X121536462Y-38209615D01*
X121459212Y-37987924D01*
X121371856Y-37849369D01*
X121346007Y-37832469D01*
X121235995Y-37861275D01*
X121179332Y-37993626D01*
X121193519Y-38167570D01*
X121229304Y-38245534D01*
X121312135Y-38450441D01*
X121315870Y-38632780D01*
X121243245Y-38736224D01*
X121205134Y-38743467D01*
X121036191Y-38668369D01*
X120910617Y-38474967D01*
X120839063Y-38211102D01*
X120832182Y-37924611D01*
X120900624Y-37663335D01*
G37*
X120900624Y-37663335D02*
X120946786Y-37583181D01*
X121031935Y-37491792D01*
X121157895Y-37433661D01*
X121364263Y-37399001D01*
X121690638Y-37378021D01*
X121793650Y-37373842D01*
X122142088Y-37362775D01*
X122354801Y-37367160D01*
X122465212Y-37394577D01*
X122506747Y-37452607D01*
X122512864Y-37536967D01*
X122479705Y-37685642D01*
X122425021Y-37727467D01*
X122380621Y-37779295D01*
X122425021Y-37891234D01*
X122508288Y-38213149D01*
X122440323Y-38537145D01*
X122380866Y-38639962D01*
X122189735Y-38791921D01*
X122052100Y-38806495D01*
X122052100Y-38379330D01*
X122085624Y-38364759D01*
X122165512Y-38230463D01*
X122149918Y-38042966D01*
X122072400Y-37913734D01*
X121908230Y-37816905D01*
X121788627Y-37865817D01*
X121750667Y-38013434D01*
X121799394Y-38208403D01*
X121915107Y-38346348D01*
X122052100Y-38379330D01*
X122052100Y-38806495D01*
X121959648Y-38816285D01*
X121755776Y-38707941D01*
X121739867Y-38690238D01*
X121644623Y-38520858D01*
X121554100Y-38273702D01*
X121536462Y-38209615D01*
X121459212Y-37987924D01*
X121371856Y-37849369D01*
X121346007Y-37832469D01*
X121235995Y-37861275D01*
X121179332Y-37993626D01*
X121193519Y-38167570D01*
X121229304Y-38245534D01*
X121312135Y-38450441D01*
X121315870Y-38632780D01*
X121243245Y-38736224D01*
X121205134Y-38743467D01*
X121036191Y-38668369D01*
X120910617Y-38474967D01*
X120839063Y-38211102D01*
X120832182Y-37924611D01*
X120900624Y-37663335D01*
G36*
X120867485Y-39612988D02*
G01*
X120925167Y-39565439D01*
X120988542Y-39508903D01*
X120925167Y-39414450D01*
X120849518Y-39270454D01*
X120821224Y-39092997D01*
X120844209Y-38952186D01*
X120897075Y-38912800D01*
X121120429Y-38975154D01*
X121235058Y-39140823D01*
X121242667Y-39209134D01*
X121271371Y-39352671D01*
X121376704Y-39442447D01*
X121587492Y-39489572D01*
X121932564Y-39505155D01*
X122011591Y-39505467D01*
X122290742Y-39510096D01*
X122440623Y-39535252D01*
X122501256Y-39597844D01*
X122512665Y-39714779D01*
X122512667Y-39717134D01*
X122512667Y-39928800D01*
X121666000Y-39928800D01*
X121280051Y-39926254D01*
X121032908Y-39914719D01*
X120894073Y-39888348D01*
X120833048Y-39841297D01*
X120819335Y-39767721D01*
X120819333Y-39766523D01*
X120867485Y-39612988D01*
G37*
X120867485Y-39612988D02*
X120925167Y-39565439D01*
X120988542Y-39508903D01*
X120925167Y-39414450D01*
X120849518Y-39270454D01*
X120821224Y-39092997D01*
X120844209Y-38952186D01*
X120897075Y-38912800D01*
X121120429Y-38975154D01*
X121235058Y-39140823D01*
X121242667Y-39209134D01*
X121271371Y-39352671D01*
X121376704Y-39442447D01*
X121587492Y-39489572D01*
X121932564Y-39505155D01*
X122011591Y-39505467D01*
X122290742Y-39510096D01*
X122440623Y-39535252D01*
X122501256Y-39597844D01*
X122512665Y-39714779D01*
X122512667Y-39717134D01*
X122512667Y-39928800D01*
X121666000Y-39928800D01*
X121280051Y-39926254D01*
X121032908Y-39914719D01*
X120894073Y-39888348D01*
X120833048Y-39841297D01*
X120819335Y-39767721D01*
X120819333Y-39766523D01*
X120867485Y-39612988D01*
G36*
X120880730Y-40808761D02*
G01*
X121033725Y-40520814D01*
X121083878Y-40469591D01*
X121326506Y-40345759D01*
X121644069Y-40302497D01*
X121966334Y-40338715D01*
X122223063Y-40453324D01*
X122262705Y-40487876D01*
X122416385Y-40745190D01*
X122480830Y-41076226D01*
X122447188Y-41405671D01*
X122387752Y-41551774D01*
X122169851Y-41784876D01*
X121874511Y-41905536D01*
X121677890Y-41911598D01*
X121677890Y-41481501D01*
X121905177Y-41422845D01*
X122082304Y-41292727D01*
X122159840Y-41107159D01*
X122154681Y-41034015D01*
X122068761Y-40906461D01*
X121898234Y-40778377D01*
X121714136Y-40696177D01*
X121564055Y-40713087D01*
X121433766Y-40778377D01*
X121225835Y-40948777D01*
X121183744Y-41140378D01*
X121270568Y-41320383D01*
X121449877Y-41452684D01*
X121677890Y-41481501D01*
X121677890Y-41911598D01*
X121549270Y-41915564D01*
X121241669Y-41816771D01*
X120999248Y-41610970D01*
X120929802Y-41496224D01*
X120842996Y-41154505D01*
X120880730Y-40808761D01*
G37*
X120880730Y-40808761D02*
X121033725Y-40520814D01*
X121083878Y-40469591D01*
X121326506Y-40345759D01*
X121644069Y-40302497D01*
X121966334Y-40338715D01*
X122223063Y-40453324D01*
X122262705Y-40487876D01*
X122416385Y-40745190D01*
X122480830Y-41076226D01*
X122447188Y-41405671D01*
X122387752Y-41551774D01*
X122169851Y-41784876D01*
X121874511Y-41905536D01*
X121677890Y-41911598D01*
X121677890Y-41481501D01*
X121905177Y-41422845D01*
X122082304Y-41292727D01*
X122159840Y-41107159D01*
X122154681Y-41034015D01*
X122068761Y-40906461D01*
X121898234Y-40778377D01*
X121714136Y-40696177D01*
X121564055Y-40713087D01*
X121433766Y-40778377D01*
X121225835Y-40948777D01*
X121183744Y-41140378D01*
X121270568Y-41320383D01*
X121449877Y-41452684D01*
X121677890Y-41481501D01*
X121677890Y-41911598D01*
X121549270Y-41915564D01*
X121241669Y-41816771D01*
X120999248Y-41610970D01*
X120929802Y-41496224D01*
X120842996Y-41154505D01*
X120880730Y-40808761D01*
G36*
X120385033Y-42483044D02*
G01*
X120562559Y-42468803D01*
X120565333Y-42468800D01*
X120751253Y-42442190D01*
X120816713Y-42343179D01*
X120819333Y-42299467D01*
X120879202Y-42157963D01*
X120988667Y-42130134D01*
X121130171Y-42190002D01*
X121158000Y-42299467D01*
X121177871Y-42396680D01*
X121264060Y-42447695D01*
X121456425Y-42466763D01*
X121631593Y-42468800D01*
X121909123Y-42460071D01*
X122061754Y-42424086D01*
X122133454Y-42346153D01*
X122150540Y-42295367D01*
X122237943Y-42163003D01*
X122359545Y-42161505D01*
X122463534Y-42275877D01*
X122496096Y-42395380D01*
X122465662Y-42616947D01*
X122384216Y-42754490D01*
X122227381Y-42841496D01*
X121957733Y-42884596D01*
X121702286Y-42892134D01*
X121417096Y-42904216D01*
X121222106Y-42936164D01*
X121158000Y-42976800D01*
X121087087Y-43045591D01*
X120988667Y-43061467D01*
X120851086Y-43026011D01*
X120819333Y-42976800D01*
X120748553Y-42907606D01*
X120652979Y-42892134D01*
X120492544Y-42822664D01*
X120356766Y-42663888D01*
X120311333Y-42516700D01*
X120385033Y-42483044D01*
G37*
X120385033Y-42483044D02*
X120562559Y-42468803D01*
X120565333Y-42468800D01*
X120751253Y-42442190D01*
X120816713Y-42343179D01*
X120819333Y-42299467D01*
X120879202Y-42157963D01*
X120988667Y-42130134D01*
X121130171Y-42190002D01*
X121158000Y-42299467D01*
X121177871Y-42396680D01*
X121264060Y-42447695D01*
X121456425Y-42466763D01*
X121631593Y-42468800D01*
X121909123Y-42460071D01*
X122061754Y-42424086D01*
X122133454Y-42346153D01*
X122150540Y-42295367D01*
X122237943Y-42163003D01*
X122359545Y-42161505D01*
X122463534Y-42275877D01*
X122496096Y-42395380D01*
X122465662Y-42616947D01*
X122384216Y-42754490D01*
X122227381Y-42841496D01*
X121957733Y-42884596D01*
X121702286Y-42892134D01*
X121417096Y-42904216D01*
X121222106Y-42936164D01*
X121158000Y-42976800D01*
X121087087Y-43045591D01*
X120988667Y-43061467D01*
X120851086Y-43026011D01*
X120819333Y-42976800D01*
X120748553Y-42907606D01*
X120652979Y-42892134D01*
X120492544Y-42822664D01*
X120356766Y-42663888D01*
X120311333Y-42516700D01*
X120385033Y-42483044D01*
G36*
X122512667Y-43315467D02*
G01*
X122512667Y-43738800D01*
X120819333Y-43738800D01*
X120819333Y-43315467D01*
X122512667Y-43315467D01*
G37*
X122512667Y-43315467D02*
X122512667Y-43738800D01*
X120819333Y-43738800D01*
X120819333Y-43315467D01*
X122512667Y-43315467D01*
G36*
X120862218Y-45306030D02*
G01*
X120942395Y-45262800D01*
X121014599Y-45240864D01*
X120994846Y-45147725D01*
X120929099Y-45025209D01*
X120837956Y-44740582D01*
X120878550Y-44478731D01*
X121039195Y-44286616D01*
X121123543Y-44243806D01*
X121317866Y-44201848D01*
X121614718Y-44172379D01*
X121925512Y-44162134D01*
X122233377Y-44165317D01*
X122408988Y-44183773D01*
X122489411Y-44230866D01*
X122511714Y-44319959D01*
X122512667Y-44373800D01*
X122500385Y-44495570D01*
X122435760Y-44558647D01*
X122277123Y-44582201D01*
X122052512Y-44585467D01*
X121606887Y-44615103D01*
X121311374Y-44702945D01*
X121170260Y-44847395D01*
X121158000Y-44919059D01*
X121220485Y-45091137D01*
X121415640Y-45201755D01*
X121755017Y-45255635D01*
X121999100Y-45262800D01*
X122282550Y-45267169D01*
X122436253Y-45291143D01*
X122499765Y-45351024D01*
X122512639Y-45463116D01*
X122512667Y-45474467D01*
X122512667Y-45686134D01*
X120819333Y-45686134D01*
X120819333Y-45474467D01*
X120862218Y-45306030D01*
G37*
X120862218Y-45306030D02*
X120942395Y-45262800D01*
X121014599Y-45240864D01*
X120994846Y-45147725D01*
X120929099Y-45025209D01*
X120837956Y-44740582D01*
X120878550Y-44478731D01*
X121039195Y-44286616D01*
X121123543Y-44243806D01*
X121317866Y-44201848D01*
X121614718Y-44172379D01*
X121925512Y-44162134D01*
X122233377Y-44165317D01*
X122408988Y-44183773D01*
X122489411Y-44230866D01*
X122511714Y-44319959D01*
X122512667Y-44373800D01*
X122500385Y-44495570D01*
X122435760Y-44558647D01*
X122277123Y-44582201D01*
X122052512Y-44585467D01*
X121606887Y-44615103D01*
X121311374Y-44702945D01*
X121170260Y-44847395D01*
X121158000Y-44919059D01*
X121220485Y-45091137D01*
X121415640Y-45201755D01*
X121755017Y-45255635D01*
X121999100Y-45262800D01*
X122282550Y-45267169D01*
X122436253Y-45291143D01*
X122499765Y-45351024D01*
X122512639Y-45463116D01*
X122512667Y-45474467D01*
X122512667Y-45686134D01*
X120819333Y-45686134D01*
X120819333Y-45474467D01*
X120862218Y-45306030D01*
G36*
X120930117Y-46422699D02*
G01*
X121145494Y-46185432D01*
X121459344Y-46046529D01*
X121666000Y-46024800D01*
X122014235Y-46096729D01*
X122286922Y-46288201D01*
X122461948Y-46562749D01*
X122517199Y-46883904D01*
X122430563Y-47215195D01*
X122410405Y-47252467D01*
X122229674Y-47479020D01*
X121986333Y-47597012D01*
X121731491Y-47622774D01*
X121731491Y-47196445D01*
X121962112Y-47128850D01*
X122126683Y-46995100D01*
X122174000Y-46850920D01*
X122121856Y-46720961D01*
X122033878Y-46602967D01*
X121812950Y-46471840D01*
X121547960Y-46467859D01*
X121312833Y-46588256D01*
X121174305Y-46779428D01*
X121202030Y-46965643D01*
X121291047Y-47077086D01*
X121489556Y-47183864D01*
X121731491Y-47196445D01*
X121731491Y-47622774D01*
X121652359Y-47630774D01*
X121384561Y-47614596D01*
X121205966Y-47539571D01*
X121038526Y-47372971D01*
X120860264Y-47051640D01*
X120829584Y-46723159D01*
X120930117Y-46422699D01*
G37*
X120930117Y-46422699D02*
X121145494Y-46185432D01*
X121459344Y-46046529D01*
X121666000Y-46024800D01*
X122014235Y-46096729D01*
X122286922Y-46288201D01*
X122461948Y-46562749D01*
X122517199Y-46883904D01*
X122430563Y-47215195D01*
X122410405Y-47252467D01*
X122229674Y-47479020D01*
X121986333Y-47597012D01*
X121731491Y-47622774D01*
X121731491Y-47196445D01*
X121962112Y-47128850D01*
X122126683Y-46995100D01*
X122174000Y-46850920D01*
X122121856Y-46720961D01*
X122033878Y-46602967D01*
X121812950Y-46471840D01*
X121547960Y-46467859D01*
X121312833Y-46588256D01*
X121174305Y-46779428D01*
X121202030Y-46965643D01*
X121291047Y-47077086D01*
X121489556Y-47183864D01*
X121731491Y-47196445D01*
X121731491Y-47622774D01*
X121652359Y-47630774D01*
X121384561Y-47614596D01*
X121205966Y-47539571D01*
X121038526Y-47372971D01*
X120860264Y-47051640D01*
X120829584Y-46723159D01*
X120930117Y-46422699D01*
G36*
X126319290Y-41050002D02*
G01*
X126365453Y-40969847D01*
X126450602Y-40878459D01*
X126576562Y-40820328D01*
X126782930Y-40785667D01*
X127109305Y-40764688D01*
X127212317Y-40760508D01*
X127560755Y-40749442D01*
X127773468Y-40753827D01*
X127883879Y-40781243D01*
X127925413Y-40839273D01*
X127931531Y-40923634D01*
X127898371Y-41072309D01*
X127843688Y-41114134D01*
X127799288Y-41165962D01*
X127843688Y-41277901D01*
X127926955Y-41599816D01*
X127858990Y-41923811D01*
X127799532Y-42026628D01*
X127608401Y-42178588D01*
X127470766Y-42193162D01*
X127470766Y-41765997D01*
X127504291Y-41751426D01*
X127584178Y-41617130D01*
X127568585Y-41429633D01*
X127491067Y-41300400D01*
X127326897Y-41203572D01*
X127207294Y-41252484D01*
X127169333Y-41400100D01*
X127218061Y-41595070D01*
X127333774Y-41733015D01*
X127470766Y-41765997D01*
X127470766Y-42193162D01*
X127378314Y-42202952D01*
X127174442Y-42094608D01*
X127158533Y-42076905D01*
X127063289Y-41907525D01*
X126972767Y-41660368D01*
X126955129Y-41596281D01*
X126877879Y-41374590D01*
X126790523Y-41236036D01*
X126764673Y-41219136D01*
X126654662Y-41247942D01*
X126597999Y-41380293D01*
X126612186Y-41554236D01*
X126647971Y-41632200D01*
X126730801Y-41837108D01*
X126734537Y-42019447D01*
X126661911Y-42122891D01*
X126623801Y-42130134D01*
X126454858Y-42055036D01*
X126329284Y-41861634D01*
X126257730Y-41597768D01*
X126250848Y-41311278D01*
X126319290Y-41050002D01*
G37*
X126319290Y-41050002D02*
X126365453Y-40969847D01*
X126450602Y-40878459D01*
X126576562Y-40820328D01*
X126782930Y-40785667D01*
X127109305Y-40764688D01*
X127212317Y-40760508D01*
X127560755Y-40749442D01*
X127773468Y-40753827D01*
X127883879Y-40781243D01*
X127925413Y-40839273D01*
X127931531Y-40923634D01*
X127898371Y-41072309D01*
X127843688Y-41114134D01*
X127799288Y-41165962D01*
X127843688Y-41277901D01*
X127926955Y-41599816D01*
X127858990Y-41923811D01*
X127799532Y-42026628D01*
X127608401Y-42178588D01*
X127470766Y-42193162D01*
X127470766Y-41765997D01*
X127504291Y-41751426D01*
X127584178Y-41617130D01*
X127568585Y-41429633D01*
X127491067Y-41300400D01*
X127326897Y-41203572D01*
X127207294Y-41252484D01*
X127169333Y-41400100D01*
X127218061Y-41595070D01*
X127333774Y-41733015D01*
X127470766Y-41765997D01*
X127470766Y-42193162D01*
X127378314Y-42202952D01*
X127174442Y-42094608D01*
X127158533Y-42076905D01*
X127063289Y-41907525D01*
X126972767Y-41660368D01*
X126955129Y-41596281D01*
X126877879Y-41374590D01*
X126790523Y-41236036D01*
X126764673Y-41219136D01*
X126654662Y-41247942D01*
X126597999Y-41380293D01*
X126612186Y-41554236D01*
X126647971Y-41632200D01*
X126730801Y-41837108D01*
X126734537Y-42019447D01*
X126661911Y-42122891D01*
X126623801Y-42130134D01*
X126454858Y-42055036D01*
X126329284Y-41861634D01*
X126257730Y-41597768D01*
X126250848Y-41311278D01*
X126319290Y-41050002D01*
G36*
X125665816Y-43217985D02*
G01*
X125735418Y-42889161D01*
X125866367Y-42683257D01*
X126070892Y-42579099D01*
X126301500Y-42554764D01*
X126536878Y-42604621D01*
X126753512Y-42729559D01*
X126892846Y-42889442D01*
X126915333Y-42975501D01*
X126975762Y-42971523D01*
X127134288Y-42881258D01*
X127356770Y-42724185D01*
X127359833Y-42721865D01*
X127595896Y-42549643D01*
X127779565Y-42428045D01*
X127867833Y-42384498D01*
X127912711Y-42457781D01*
X127931333Y-42634066D01*
X127903137Y-42802764D01*
X127796047Y-42951829D01*
X127576307Y-43125207D01*
X127529167Y-43157645D01*
X127253536Y-43353896D01*
X127093639Y-43497999D01*
X127019530Y-43624126D01*
X127001296Y-43759967D01*
X127028166Y-43846652D01*
X127135992Y-43891761D01*
X127362673Y-43907386D01*
X127465667Y-43908134D01*
X127732364Y-43913628D01*
X127871230Y-43942669D01*
X127923704Y-44014090D01*
X127931333Y-44119800D01*
X127931333Y-44331467D01*
X126360575Y-44331467D01*
X126360575Y-43908134D01*
X126556401Y-43897161D01*
X126640992Y-43830917D01*
X126660969Y-43659410D01*
X126661333Y-43585649D01*
X126632694Y-43331214D01*
X126562491Y-43130049D01*
X126549904Y-43110776D01*
X126393835Y-43001006D01*
X126274737Y-42989553D01*
X126173697Y-43041027D01*
X126116798Y-43174221D01*
X126087446Y-43430756D01*
X126085409Y-43464427D01*
X126059817Y-43908134D01*
X126360575Y-43908134D01*
X126360575Y-44331467D01*
X125645333Y-44331467D01*
X125645333Y-43690901D01*
X125665816Y-43217985D01*
G37*
X125665816Y-43217985D02*
X125735418Y-42889161D01*
X125866367Y-42683257D01*
X126070892Y-42579099D01*
X126301500Y-42554764D01*
X126536878Y-42604621D01*
X126753512Y-42729559D01*
X126892846Y-42889442D01*
X126915333Y-42975501D01*
X126975762Y-42971523D01*
X127134288Y-42881258D01*
X127356770Y-42724185D01*
X127359833Y-42721865D01*
X127595896Y-42549643D01*
X127779565Y-42428045D01*
X127867833Y-42384498D01*
X127912711Y-42457781D01*
X127931333Y-42634066D01*
X127903137Y-42802764D01*
X127796047Y-42951829D01*
X127576307Y-43125207D01*
X127529167Y-43157645D01*
X127253536Y-43353896D01*
X127093639Y-43497999D01*
X127019530Y-43624126D01*
X127001296Y-43759967D01*
X127028166Y-43846652D01*
X127135992Y-43891761D01*
X127362673Y-43907386D01*
X127465667Y-43908134D01*
X127732364Y-43913628D01*
X127871230Y-43942669D01*
X127923704Y-44014090D01*
X127931333Y-44119800D01*
X127931333Y-44331467D01*
X126360575Y-44331467D01*
X126360575Y-43908134D01*
X126556401Y-43897161D01*
X126640992Y-43830917D01*
X126660969Y-43659410D01*
X126661333Y-43585649D01*
X126632694Y-43331214D01*
X126562491Y-43130049D01*
X126549904Y-43110776D01*
X126393835Y-43001006D01*
X126274737Y-42989553D01*
X126173697Y-43041027D01*
X126116798Y-43174221D01*
X126087446Y-43430756D01*
X126085409Y-43464427D01*
X126059817Y-43908134D01*
X126360575Y-43908134D01*
X126360575Y-44331467D01*
X125645333Y-44331467D01*
X125645333Y-43690901D01*
X125665816Y-43217985D01*
G36*
X126272177Y-45329321D02*
G01*
X126409429Y-45019752D01*
X126654820Y-44803597D01*
X126980616Y-44705737D01*
X127342558Y-44745963D01*
X127657678Y-44918091D01*
X127857132Y-45189302D01*
X127926028Y-45522599D01*
X127849472Y-45880979D01*
X127822583Y-45938465D01*
X127605483Y-46192124D01*
X127287215Y-46323796D01*
X126997327Y-46331002D01*
X126997327Y-45923270D01*
X127244437Y-45898568D01*
X127404494Y-45808333D01*
X127557508Y-45672617D01*
X127581899Y-45529431D01*
X127538786Y-45390239D01*
X127396037Y-45220777D01*
X127174079Y-45148194D01*
X126930232Y-45169205D01*
X126721816Y-45280521D01*
X126615489Y-45443195D01*
X126610858Y-45626506D01*
X126744624Y-45786712D01*
X126997327Y-45923270D01*
X126997327Y-46331002D01*
X126972262Y-46331626D01*
X126615380Y-46226885D01*
X126381896Y-46008105D01*
X126270799Y-45707424D01*
X126272177Y-45329321D01*
G37*
X126272177Y-45329321D02*
X126409429Y-45019752D01*
X126654820Y-44803597D01*
X126980616Y-44705737D01*
X127342558Y-44745963D01*
X127657678Y-44918091D01*
X127857132Y-45189302D01*
X127926028Y-45522599D01*
X127849472Y-45880979D01*
X127822583Y-45938465D01*
X127605483Y-46192124D01*
X127287215Y-46323796D01*
X126997327Y-46331002D01*
X126997327Y-45923270D01*
X127244437Y-45898568D01*
X127404494Y-45808333D01*
X127557508Y-45672617D01*
X127581899Y-45529431D01*
X127538786Y-45390239D01*
X127396037Y-45220777D01*
X127174079Y-45148194D01*
X126930232Y-45169205D01*
X126721816Y-45280521D01*
X126615489Y-45443195D01*
X126610858Y-45626506D01*
X126744624Y-45786712D01*
X126997327Y-45923270D01*
X126997327Y-46331002D01*
X126972262Y-46331626D01*
X126615380Y-46226885D01*
X126381896Y-46008105D01*
X126270799Y-45707424D01*
X126272177Y-45329321D01*
G36*
X127508000Y-47718134D02*
G01*
X127508000Y-47167800D01*
X127511711Y-46871965D01*
X127532655Y-46707188D01*
X127585546Y-46635213D01*
X127685096Y-46617785D01*
X127719667Y-46617467D01*
X127819866Y-46623535D01*
X127882079Y-46663461D01*
X127915359Y-46769831D01*
X127928757Y-46975230D01*
X127931323Y-47312244D01*
X127931333Y-47379467D01*
X127931333Y-48141467D01*
X125645333Y-48141467D01*
X125645333Y-47718134D01*
X127508000Y-47718134D01*
G37*
X127508000Y-47718134D02*
X127508000Y-47167800D01*
X127511711Y-46871965D01*
X127532655Y-46707188D01*
X127585546Y-46635213D01*
X127685096Y-46617785D01*
X127719667Y-46617467D01*
X127819866Y-46623535D01*
X127882079Y-46663461D01*
X127915359Y-46769831D01*
X127928757Y-46975230D01*
X127931323Y-47312244D01*
X127931333Y-47379467D01*
X127931333Y-48141467D01*
X125645333Y-48141467D01*
X125645333Y-47718134D01*
X127508000Y-47718134D01*
G36*
X126368111Y-30570538D02*
G01*
X126454467Y-30530800D01*
X126538938Y-30515496D01*
X126519056Y-30439611D01*
X126454467Y-30342628D01*
X126334256Y-30051424D01*
X126372603Y-29770934D01*
X126492000Y-29599467D01*
X126608446Y-29511359D01*
X126768468Y-29459592D01*
X127015643Y-29435449D01*
X127338667Y-29430134D01*
X127674633Y-29432483D01*
X127875808Y-29446600D01*
X127976731Y-29483088D01*
X128011939Y-29552553D01*
X128016000Y-29638091D01*
X128005990Y-29746357D01*
X127951664Y-29810781D01*
X127816582Y-29845390D01*
X127564302Y-29864208D01*
X127411037Y-29870925D01*
X127063805Y-29895835D01*
X126849734Y-29941418D01*
X126733069Y-30016468D01*
X126713972Y-30042379D01*
X126675412Y-30218618D01*
X126794528Y-30360099D01*
X127062162Y-30461052D01*
X127464610Y-30515417D01*
X127761395Y-30539007D01*
X127926904Y-30572882D01*
X127999089Y-30633348D01*
X128015901Y-30736711D01*
X128016000Y-30752330D01*
X128009716Y-30843920D01*
X127970258Y-30902515D01*
X127866719Y-30935484D01*
X127668192Y-30950192D01*
X127343769Y-30954008D01*
X127169333Y-30954134D01*
X126322667Y-30954134D01*
X126322667Y-30742467D01*
X126368111Y-30570538D01*
G37*
X126368111Y-30570538D02*
X126454467Y-30530800D01*
X126538938Y-30515496D01*
X126519056Y-30439611D01*
X126454467Y-30342628D01*
X126334256Y-30051424D01*
X126372603Y-29770934D01*
X126492000Y-29599467D01*
X126608446Y-29511359D01*
X126768468Y-29459592D01*
X127015643Y-29435449D01*
X127338667Y-29430134D01*
X127674633Y-29432483D01*
X127875808Y-29446600D01*
X127976731Y-29483088D01*
X128011939Y-29552553D01*
X128016000Y-29638091D01*
X128005990Y-29746357D01*
X127951664Y-29810781D01*
X127816582Y-29845390D01*
X127564302Y-29864208D01*
X127411037Y-29870925D01*
X127063805Y-29895835D01*
X126849734Y-29941418D01*
X126733069Y-30016468D01*
X126713972Y-30042379D01*
X126675412Y-30218618D01*
X126794528Y-30360099D01*
X127062162Y-30461052D01*
X127464610Y-30515417D01*
X127761395Y-30539007D01*
X127926904Y-30572882D01*
X127999089Y-30633348D01*
X128015901Y-30736711D01*
X128016000Y-30752330D01*
X128009716Y-30843920D01*
X127970258Y-30902515D01*
X127866719Y-30935484D01*
X127668192Y-30950192D01*
X127343769Y-30954008D01*
X127169333Y-30954134D01*
X126322667Y-30954134D01*
X126322667Y-30742467D01*
X126368111Y-30570538D01*
G36*
X126360702Y-31696121D02*
G01*
X126470833Y-31528464D01*
X126657717Y-31445569D01*
X126995520Y-31383486D01*
X127317500Y-31354015D01*
X127659428Y-31333703D01*
X127866321Y-31332354D01*
X127972099Y-31357664D01*
X128010684Y-31417328D01*
X128016000Y-31512473D01*
X127984935Y-31667700D01*
X127928354Y-31716134D01*
X127883954Y-31767962D01*
X127928354Y-31879901D01*
X128009821Y-32162856D01*
X127977257Y-32440094D01*
X127878380Y-32603659D01*
X127672572Y-32705026D01*
X127509613Y-32713750D01*
X127509613Y-32308800D01*
X127643285Y-32248127D01*
X127686553Y-32106239D01*
X127642160Y-31943337D01*
X127512844Y-31819622D01*
X127486833Y-31808369D01*
X127321485Y-31781096D01*
X127258688Y-31873540D01*
X127289302Y-32099259D01*
X127289680Y-32100767D01*
X127393948Y-32272961D01*
X127509613Y-32308800D01*
X127509613Y-32713750D01*
X127476213Y-32715539D01*
X127313096Y-32681527D01*
X127206427Y-32590122D01*
X127116801Y-32397590D01*
X127071583Y-32266467D01*
X126965440Y-32014376D01*
X126852192Y-31850697D01*
X126796416Y-31815759D01*
X126692455Y-31856378D01*
X126661492Y-32000728D01*
X126707429Y-32197942D01*
X126759362Y-32298734D01*
X126813176Y-32496263D01*
X126795489Y-32615085D01*
X126744746Y-32707505D01*
X126675462Y-32692504D01*
X126546460Y-32558044D01*
X126528127Y-32536913D01*
X126377295Y-32271990D01*
X126320354Y-31971800D01*
X126360702Y-31696121D01*
G37*
X126360702Y-31696121D02*
X126470833Y-31528464D01*
X126657717Y-31445569D01*
X126995520Y-31383486D01*
X127317500Y-31354015D01*
X127659428Y-31333703D01*
X127866321Y-31332354D01*
X127972099Y-31357664D01*
X128010684Y-31417328D01*
X128016000Y-31512473D01*
X127984935Y-31667700D01*
X127928354Y-31716134D01*
X127883954Y-31767962D01*
X127928354Y-31879901D01*
X128009821Y-32162856D01*
X127977257Y-32440094D01*
X127878380Y-32603659D01*
X127672572Y-32705026D01*
X127509613Y-32713750D01*
X127509613Y-32308800D01*
X127643285Y-32248127D01*
X127686553Y-32106239D01*
X127642160Y-31943337D01*
X127512844Y-31819622D01*
X127486833Y-31808369D01*
X127321485Y-31781096D01*
X127258688Y-31873540D01*
X127289302Y-32099259D01*
X127289680Y-32100767D01*
X127393948Y-32272961D01*
X127509613Y-32308800D01*
X127509613Y-32713750D01*
X127476213Y-32715539D01*
X127313096Y-32681527D01*
X127206427Y-32590122D01*
X127116801Y-32397590D01*
X127071583Y-32266467D01*
X126965440Y-32014376D01*
X126852192Y-31850697D01*
X126796416Y-31815759D01*
X126692455Y-31856378D01*
X126661492Y-32000728D01*
X126707429Y-32197942D01*
X126759362Y-32298734D01*
X126813176Y-32496263D01*
X126795489Y-32615085D01*
X126744746Y-32707505D01*
X126675462Y-32692504D01*
X126546460Y-32558044D01*
X126528127Y-32536913D01*
X126377295Y-32271990D01*
X126320354Y-31971800D01*
X126360702Y-31696121D01*
G36*
X119236383Y-49819720D02*
G01*
X119379172Y-49667059D01*
X119658352Y-49513575D01*
X120074078Y-49344601D01*
X120626507Y-49145475D01*
X121262970Y-48920416D01*
X123272940Y-48202827D01*
X123294970Y-44434544D01*
X123317000Y-40666260D01*
X123994333Y-40376118D01*
X124351151Y-40229269D01*
X124806473Y-40050509D01*
X125298875Y-39863581D01*
X125719790Y-39709131D01*
X126119772Y-39563622D01*
X126466464Y-39434328D01*
X126726256Y-39334010D01*
X126865536Y-39275430D01*
X126874518Y-39270709D01*
X126872422Y-39226897D01*
X126787155Y-39133846D01*
X126610455Y-38985485D01*
X126334059Y-38775740D01*
X125949704Y-38498539D01*
X125449128Y-38147808D01*
X124824070Y-37717474D01*
X124066265Y-37201465D01*
X123976270Y-37140447D01*
X123654511Y-36917244D01*
X123449905Y-36756428D01*
X123336322Y-36630145D01*
X123287629Y-36510541D01*
X123277770Y-36395919D01*
X123284877Y-36267968D01*
X123322212Y-36159369D01*
X123408976Y-36059161D01*
X123564373Y-35956381D01*
X123807605Y-35840067D01*
X124157877Y-35699257D01*
X124634390Y-35522988D01*
X125098506Y-35356524D01*
X125578125Y-35184974D01*
X126017052Y-35026972D01*
X126384314Y-34893746D01*
X126648939Y-34796522D01*
X126769125Y-34750940D01*
X126860401Y-34710087D01*
X126898627Y-34665355D01*
X126867331Y-34599109D01*
X126750041Y-34493717D01*
X126530283Y-34331544D01*
X126191587Y-34094956D01*
X126091792Y-34025850D01*
X125635081Y-33712056D01*
X125109210Y-33354441D01*
X124586591Y-33002086D01*
X124227167Y-32762060D01*
X123274667Y-32129720D01*
X123274667Y-26636134D01*
X123952000Y-26636134D01*
X123954928Y-29197300D01*
X123957855Y-31758467D01*
X125993947Y-33145668D01*
X126515655Y-33504235D01*
X126991281Y-33837113D01*
X127402773Y-34131188D01*
X127732076Y-34373348D01*
X127961137Y-34550480D01*
X128071902Y-34649469D01*
X128078827Y-34660010D01*
X128080124Y-34837590D01*
X128048250Y-34912971D01*
X128017388Y-34955149D01*
X127969585Y-34996745D01*
X127887177Y-35044847D01*
X127752500Y-35106542D01*
X127547889Y-35188918D01*
X127255681Y-35299062D01*
X126858211Y-35444063D01*
X126337815Y-35631009D01*
X125676830Y-35866986D01*
X125621212Y-35886817D01*
X124115424Y-36423700D01*
X126086879Y-37775412D01*
X126706345Y-38203009D01*
X127195599Y-38548996D01*
X127566267Y-38824257D01*
X127829977Y-39039674D01*
X127998358Y-39206132D01*
X128083037Y-39334513D01*
X128095641Y-39435701D01*
X128047798Y-39520580D01*
X127998919Y-39565059D01*
X127891235Y-39616673D01*
X127646932Y-39715500D01*
X127289196Y-39852754D01*
X126841212Y-40019646D01*
X126326167Y-40207388D01*
X125920500Y-40352792D01*
X123952000Y-41053419D01*
X123952000Y-48652207D01*
X123676833Y-48773309D01*
X123509163Y-48840001D01*
X123213011Y-48950630D01*
X122819901Y-49093709D01*
X122361357Y-49257751D01*
X121925675Y-49411402D01*
X121450776Y-49578931D01*
X121027910Y-49730349D01*
X120684395Y-49855693D01*
X120447546Y-49945001D01*
X120346156Y-49987430D01*
X120380564Y-50051943D01*
X120547428Y-50200262D01*
X120836702Y-50424716D01*
X121238343Y-50717635D01*
X121742307Y-51071347D01*
X121975649Y-51231800D01*
X122460624Y-51565572D01*
X122903582Y-51874341D01*
X123283761Y-52143321D01*
X123580400Y-52357723D01*
X123772737Y-52502762D01*
X123835340Y-52556331D01*
X123925353Y-52768913D01*
X123935838Y-53103050D01*
X123909667Y-53510571D01*
X122301000Y-54086910D01*
X121795549Y-54269144D01*
X121332000Y-54438414D01*
X120938813Y-54584156D01*
X120644448Y-54695810D01*
X120477365Y-54762813D01*
X120466120Y-54767858D01*
X120392544Y-54806504D01*
X120359348Y-54849656D01*
X120381751Y-54911181D01*
X120474969Y-55004947D01*
X120654219Y-55144823D01*
X120934717Y-55344677D01*
X121331681Y-55618377D01*
X121602807Y-55803800D01*
X122066698Y-56125393D01*
X122518884Y-56447149D01*
X122926281Y-56744920D01*
X123255808Y-56994563D01*
X123458847Y-57158467D01*
X123951988Y-57581800D01*
X123952000Y-58724800D01*
X123274667Y-58724800D01*
X123268811Y-57751134D01*
X121235101Y-56365562D01*
X120562815Y-55909897D01*
X120025985Y-55541394D01*
X119624772Y-55245388D01*
X119359335Y-55007212D01*
X119229836Y-54812200D01*
X119236436Y-54645686D01*
X119379296Y-54493004D01*
X119658576Y-54339486D01*
X120074438Y-54170468D01*
X120627042Y-53971282D01*
X121263833Y-53746107D01*
X121811491Y-53548590D01*
X122302149Y-53367803D01*
X122714533Y-53211899D01*
X123027366Y-53089031D01*
X123219374Y-53007351D01*
X123271739Y-52976672D01*
X123203732Y-52917721D01*
X123012906Y-52776278D01*
X122716737Y-52564674D01*
X122332699Y-52295240D01*
X121878268Y-51980307D01*
X121370919Y-51632206D01*
X121235101Y-51539562D01*
X120562826Y-51083901D01*
X120026005Y-50715401D01*
X119624795Y-50419396D01*
X119359350Y-50181224D01*
X119229827Y-49986220D01*
X119236383Y-49819720D01*
G37*
X119236383Y-49819720D02*
X119379172Y-49667059D01*
X119658352Y-49513575D01*
X120074078Y-49344601D01*
X120626507Y-49145475D01*
X121262970Y-48920416D01*
X123272940Y-48202827D01*
X123294970Y-44434544D01*
X123317000Y-40666260D01*
X123994333Y-40376118D01*
X124351151Y-40229269D01*
X124806473Y-40050509D01*
X125298875Y-39863581D01*
X125719790Y-39709131D01*
X126119772Y-39563622D01*
X126466464Y-39434328D01*
X126726256Y-39334010D01*
X126865536Y-39275430D01*
X126874518Y-39270709D01*
X126872422Y-39226897D01*
X126787155Y-39133846D01*
X126610455Y-38985485D01*
X126334059Y-38775740D01*
X125949704Y-38498539D01*
X125449128Y-38147808D01*
X124824070Y-37717474D01*
X124066265Y-37201465D01*
X123976270Y-37140447D01*
X123654511Y-36917244D01*
X123449905Y-36756428D01*
X123336322Y-36630145D01*
X123287629Y-36510541D01*
X123277770Y-36395919D01*
X123284877Y-36267968D01*
X123322212Y-36159369D01*
X123408976Y-36059161D01*
X123564373Y-35956381D01*
X123807605Y-35840067D01*
X124157877Y-35699257D01*
X124634390Y-35522988D01*
X125098506Y-35356524D01*
X125578125Y-35184974D01*
X126017052Y-35026972D01*
X126384314Y-34893746D01*
X126648939Y-34796522D01*
X126769125Y-34750940D01*
X126860401Y-34710087D01*
X126898627Y-34665355D01*
X126867331Y-34599109D01*
X126750041Y-34493717D01*
X126530283Y-34331544D01*
X126191587Y-34094956D01*
X126091792Y-34025850D01*
X125635081Y-33712056D01*
X125109210Y-33354441D01*
X124586591Y-33002086D01*
X124227167Y-32762060D01*
X123274667Y-32129720D01*
X123274667Y-26636134D01*
X123952000Y-26636134D01*
X123954928Y-29197300D01*
X123957855Y-31758467D01*
X125993947Y-33145668D01*
X126515655Y-33504235D01*
X126991281Y-33837113D01*
X127402773Y-34131188D01*
X127732076Y-34373348D01*
X127961137Y-34550480D01*
X128071902Y-34649469D01*
X128078827Y-34660010D01*
X128080124Y-34837590D01*
X128048250Y-34912971D01*
X128017388Y-34955149D01*
X127969585Y-34996745D01*
X127887177Y-35044847D01*
X127752500Y-35106542D01*
X127547889Y-35188918D01*
X127255681Y-35299062D01*
X126858211Y-35444063D01*
X126337815Y-35631009D01*
X125676830Y-35866986D01*
X125621212Y-35886817D01*
X124115424Y-36423700D01*
X126086879Y-37775412D01*
X126706345Y-38203009D01*
X127195599Y-38548996D01*
X127566267Y-38824257D01*
X127829977Y-39039674D01*
X127998358Y-39206132D01*
X128083037Y-39334513D01*
X128095641Y-39435701D01*
X128047798Y-39520580D01*
X127998919Y-39565059D01*
X127891235Y-39616673D01*
X127646932Y-39715500D01*
X127289196Y-39852754D01*
X126841212Y-40019646D01*
X126326167Y-40207388D01*
X125920500Y-40352792D01*
X123952000Y-41053419D01*
X123952000Y-48652207D01*
X123676833Y-48773309D01*
X123509163Y-48840001D01*
X123213011Y-48950630D01*
X122819901Y-49093709D01*
X122361357Y-49257751D01*
X121925675Y-49411402D01*
X121450776Y-49578931D01*
X121027910Y-49730349D01*
X120684395Y-49855693D01*
X120447546Y-49945001D01*
X120346156Y-49987430D01*
X120380564Y-50051943D01*
X120547428Y-50200262D01*
X120836702Y-50424716D01*
X121238343Y-50717635D01*
X121742307Y-51071347D01*
X121975649Y-51231800D01*
X122460624Y-51565572D01*
X122903582Y-51874341D01*
X123283761Y-52143321D01*
X123580400Y-52357723D01*
X123772737Y-52502762D01*
X123835340Y-52556331D01*
X123925353Y-52768913D01*
X123935838Y-53103050D01*
X123909667Y-53510571D01*
X122301000Y-54086910D01*
X121795549Y-54269144D01*
X121332000Y-54438414D01*
X120938813Y-54584156D01*
X120644448Y-54695810D01*
X120477365Y-54762813D01*
X120466120Y-54767858D01*
X120392544Y-54806504D01*
X120359348Y-54849656D01*
X120381751Y-54911181D01*
X120474969Y-55004947D01*
X120654219Y-55144823D01*
X120934717Y-55344677D01*
X121331681Y-55618377D01*
X121602807Y-55803800D01*
X122066698Y-56125393D01*
X122518884Y-56447149D01*
X122926281Y-56744920D01*
X123255808Y-56994563D01*
X123458847Y-57158467D01*
X123951988Y-57581800D01*
X123952000Y-58724800D01*
X123274667Y-58724800D01*
X123268811Y-57751134D01*
X121235101Y-56365562D01*
X120562815Y-55909897D01*
X120025985Y-55541394D01*
X119624772Y-55245388D01*
X119359335Y-55007212D01*
X119229836Y-54812200D01*
X119236436Y-54645686D01*
X119379296Y-54493004D01*
X119658576Y-54339486D01*
X120074438Y-54170468D01*
X120627042Y-53971282D01*
X121263833Y-53746107D01*
X121811491Y-53548590D01*
X122302149Y-53367803D01*
X122714533Y-53211899D01*
X123027366Y-53089031D01*
X123219374Y-53007351D01*
X123271739Y-52976672D01*
X123203732Y-52917721D01*
X123012906Y-52776278D01*
X122716737Y-52564674D01*
X122332699Y-52295240D01*
X121878268Y-51980307D01*
X121370919Y-51632206D01*
X121235101Y-51539562D01*
X120562826Y-51083901D01*
X120026005Y-50715401D01*
X119624795Y-50419396D01*
X119359350Y-50181224D01*
X119229827Y-49986220D01*
X119236383Y-49819720D01*
D10*
%TO.C,J1*%
X79055200Y-45576000D02*
X86525200Y-45576000D01*
X86525200Y-45576000D02*
X86525200Y-35196000D01*
X86525200Y-35196000D02*
X79055200Y-35196000D01*
X79055200Y-35196000D02*
X79055200Y-45576000D01*
X85665200Y-43676000D02*
X85665200Y-44426000D01*
X85665200Y-44426000D02*
X81365200Y-44426000D01*
X81365200Y-44426000D02*
X81365200Y-43676000D01*
X81365200Y-43676000D02*
X81015200Y-43676000D01*
X81015200Y-43676000D02*
X81015200Y-44176000D01*
X81015200Y-44176000D02*
X80015200Y-44426000D01*
X80015200Y-44426000D02*
X80015200Y-41426000D01*
X80015200Y-41426000D02*
X81015200Y-41676000D01*
X81015200Y-41676000D02*
X81015200Y-42176000D01*
X81015200Y-42176000D02*
X81365200Y-42176000D01*
X81365200Y-42176000D02*
X81365200Y-41426000D01*
X81365200Y-41426000D02*
X85665200Y-41426000D01*
X85665200Y-41426000D02*
X85665200Y-42176000D01*
X85665200Y-38596000D02*
X85665200Y-39346000D01*
X85665200Y-39346000D02*
X81365200Y-39346000D01*
X81365200Y-39346000D02*
X81365200Y-38596000D01*
X81365200Y-38596000D02*
X81015200Y-38596000D01*
X81015200Y-38596000D02*
X81015200Y-39096000D01*
X81015200Y-39096000D02*
X80015200Y-39346000D01*
X80015200Y-39346000D02*
X80015200Y-36346000D01*
X80015200Y-36346000D02*
X81015200Y-36596000D01*
X81015200Y-36596000D02*
X81015200Y-37096000D01*
X81015200Y-37096000D02*
X81365200Y-37096000D01*
X81365200Y-37096000D02*
X81365200Y-36346000D01*
X81365200Y-36346000D02*
X85665200Y-36346000D01*
X85665200Y-36346000D02*
X85665200Y-37096000D01*
X79915200Y-45966000D02*
X78665200Y-45966000D01*
X78665200Y-45966000D02*
X78665200Y-43966000D01*
X85665045Y-42176353D02*
G75*
G03*
X85665200Y-43676000I1700155J-749647D01*
G01*
X85665045Y-37096353D02*
G75*
G03*
X85665200Y-38596000I1700155J-749647D01*
G01*
%TO.C,J2*%
X88655200Y-18805200D02*
X88655200Y-16145200D01*
X83515200Y-18805200D02*
X88655200Y-18805200D01*
X83515200Y-16145200D02*
X88655200Y-16145200D01*
X83515200Y-18805200D02*
X83515200Y-16145200D01*
X82245200Y-18805200D02*
X80915200Y-18805200D01*
X80915200Y-18805200D02*
X80915200Y-17475200D01*
%TO.C,J5*%
X103775200Y-84666000D02*
X108975200Y-84666000D01*
X108975200Y-84666000D02*
X108975200Y-82006000D01*
X108975200Y-82006000D02*
X103775200Y-82006000D01*
X103775200Y-82006000D02*
X103775200Y-84666000D01*
X104725200Y-82006000D02*
X104725200Y-76006000D01*
X104725200Y-76006000D02*
X105485200Y-76006000D01*
X105485200Y-76006000D02*
X105485200Y-82006000D01*
X104785200Y-82006000D02*
X104785200Y-76006000D01*
X104905200Y-82006000D02*
X104905200Y-76006000D01*
X105025200Y-82006000D02*
X105025200Y-76006000D01*
X105145200Y-82006000D02*
X105145200Y-76006000D01*
X105265200Y-82006000D02*
X105265200Y-76006000D01*
X105385200Y-82006000D02*
X105385200Y-76006000D01*
X104725200Y-84996000D02*
X104725200Y-84666000D01*
X105485200Y-84996000D02*
X105485200Y-84666000D01*
X106375200Y-84666000D02*
X106375200Y-82006000D01*
X107265200Y-82006000D02*
X107265200Y-76006000D01*
X107265200Y-76006000D02*
X108025200Y-76006000D01*
X108025200Y-76006000D02*
X108025200Y-82006000D01*
X107265200Y-85063071D02*
X107265200Y-84666000D01*
X108025200Y-85063071D02*
X108025200Y-84666000D01*
X105105200Y-87376000D02*
X103835200Y-87376000D01*
X103835200Y-87376000D02*
X103835200Y-86106000D01*
%TO.C,J7*%
X134375200Y-63246000D02*
X131715200Y-63246000D01*
X134375200Y-63246000D02*
X134375200Y-55566000D01*
X134375200Y-55566000D02*
X131715200Y-55566000D01*
X131715200Y-63246000D02*
X131715200Y-55566000D01*
X131715200Y-65846000D02*
X131715200Y-64516000D01*
X133045200Y-65846000D02*
X131715200Y-65846000D01*
D16*
%TO.C,Q2*%
X82372200Y-56896000D02*
X79451200Y-56769000D01*
X79197200Y-56515000D02*
X79451200Y-56769000D01*
X79197200Y-56515000D02*
X79197200Y-47117000D01*
X79451200Y-46863000D02*
X79197200Y-47117000D01*
X79451200Y-46863000D02*
X82372200Y-46736000D01*
X80060800Y-47320200D02*
G75*
G03*
X80060800Y-47320200I-254000J0D01*
G01*
D15*
G36*
X83515200Y-46475560D02*
G01*
X83515200Y-57150000D01*
X82752281Y-57150000D01*
X82752281Y-46475560D01*
X83515200Y-46475560D01*
G37*
X83515200Y-46475560D02*
X83515200Y-57150000D01*
X82752281Y-57150000D01*
X82752281Y-46475560D01*
X83515200Y-46475560D01*
G36*
X82753200Y-46479280D02*
G01*
X82753200Y-48387000D01*
X82244550Y-48387000D01*
X82244550Y-46479280D01*
X82753200Y-46479280D01*
G37*
X82753200Y-46479280D02*
X82753200Y-48387000D01*
X82244550Y-48387000D01*
X82244550Y-46479280D01*
X82753200Y-46479280D01*
G36*
X82753200Y-50162460D02*
G01*
X82753200Y-50927000D01*
X82243240Y-50927000D01*
X82243240Y-50162460D01*
X82753200Y-50162460D01*
G37*
X82753200Y-50162460D02*
X82753200Y-50927000D01*
X82243240Y-50927000D01*
X82243240Y-50162460D01*
X82753200Y-50162460D01*
G36*
X82753200Y-52705697D02*
G01*
X82753200Y-53467000D01*
X82244200Y-53467000D01*
X82244200Y-52705697D01*
X82753200Y-52705697D01*
G37*
X82753200Y-52705697D02*
X82753200Y-53467000D01*
X82244200Y-53467000D01*
X82244200Y-52705697D01*
X82753200Y-52705697D01*
G36*
X82753200Y-55247580D02*
G01*
X82753200Y-57150000D01*
X82244240Y-57150000D01*
X82244240Y-55247580D01*
X82753200Y-55247580D01*
G37*
X82753200Y-55247580D02*
X82753200Y-57150000D01*
X82244240Y-57150000D01*
X82244240Y-55247580D01*
X82753200Y-55247580D01*
D10*
%TO.C,R2*%
X80975200Y-68556000D02*
X80975200Y-67786000D01*
X80975200Y-60476000D02*
X80975200Y-61246000D01*
X82345200Y-67786000D02*
X82345200Y-61246000D01*
X79605200Y-67786000D02*
X82345200Y-67786000D01*
X79605200Y-61246000D02*
X79605200Y-67786000D01*
X82345200Y-61246000D02*
X79605200Y-61246000D01*
%TO.C,R3*%
X83415200Y-67786000D02*
X86155200Y-67786000D01*
X86155200Y-67786000D02*
X86155200Y-61246000D01*
X86155200Y-61246000D02*
X83415200Y-61246000D01*
X83415200Y-61246000D02*
X83415200Y-67786000D01*
X84785200Y-68556000D02*
X84785200Y-67786000D01*
X84785200Y-60476000D02*
X84785200Y-61246000D01*
%TO.C,R4*%
X101295200Y-73176000D02*
X101295200Y-73946000D01*
X101295200Y-81256000D02*
X101295200Y-80486000D01*
X99925200Y-73946000D02*
X99925200Y-80486000D01*
X102665200Y-73946000D02*
X99925200Y-73946000D01*
X102665200Y-80486000D02*
X102665200Y-73946000D01*
X99925200Y-80486000D02*
X102665200Y-80486000D01*
%TO.C,R5*%
X99490200Y-73946000D02*
X96750200Y-73946000D01*
X96750200Y-73946000D02*
X96750200Y-80486000D01*
X96750200Y-80486000D02*
X99490200Y-80486000D01*
X99490200Y-80486000D02*
X99490200Y-73946000D01*
X98120200Y-73176000D02*
X98120200Y-73946000D01*
X98120200Y-81256000D02*
X98120200Y-80486000D01*
%TO.C,U1*%
X115074700Y-63246000D02*
X115074700Y-17526000D01*
X91135200Y-17526000D02*
X91135200Y-63246000D01*
X91135200Y-17526000D02*
X115011200Y-17526000D01*
X115074700Y-68199000D02*
X115074700Y-63119000D01*
X95580200Y-70866000D02*
X110820200Y-70866000D01*
X91135200Y-63246000D02*
X91135200Y-68326000D01*
X115074700Y-68199000D02*
X110820200Y-70866000D01*
X95580200Y-70866000D02*
X91135200Y-68326000D01*
D11*
%TO.C,J3*%
X133310200Y-83671000D02*
X133310200Y-87271000D01*
X133310200Y-87271000D02*
X132810200Y-87771000D01*
X132810200Y-87771000D02*
X132010200Y-87771000D01*
X132010200Y-87771000D02*
X131510200Y-87271000D01*
X131510200Y-87271000D02*
X131510200Y-83671000D01*
X131510200Y-83671000D02*
X132010200Y-83171000D01*
X132010200Y-83171000D02*
X132810200Y-83171000D01*
X132810200Y-83171000D02*
X133310200Y-83671000D01*
D10*
%TO.C,C1*%
X101740200Y-87376000D02*
G75*
G03*
X101740200Y-87376000I-2620000J0D01*
G01*
X99120200Y-88416000D02*
X99120200Y-89956000D01*
X99120200Y-84796000D02*
X99120200Y-86336000D01*
X99160200Y-88416000D02*
X99160200Y-89956000D01*
X99160200Y-84796000D02*
X99160200Y-86336000D01*
X99200200Y-84797000D02*
X99200200Y-86336000D01*
X99200200Y-88416000D02*
X99200200Y-89955000D01*
X99240200Y-84798000D02*
X99240200Y-86336000D01*
X99240200Y-88416000D02*
X99240200Y-89954000D01*
X99280200Y-84800000D02*
X99280200Y-86336000D01*
X99280200Y-88416000D02*
X99280200Y-89952000D01*
X99320200Y-84803000D02*
X99320200Y-86336000D01*
X99320200Y-88416000D02*
X99320200Y-89949000D01*
X99360200Y-84807000D02*
X99360200Y-86336000D01*
X99360200Y-88416000D02*
X99360200Y-89945000D01*
X99400200Y-84811000D02*
X99400200Y-86336000D01*
X99400200Y-88416000D02*
X99400200Y-89941000D01*
X99440200Y-84815000D02*
X99440200Y-86336000D01*
X99440200Y-88416000D02*
X99440200Y-89937000D01*
X99480200Y-84820000D02*
X99480200Y-86336000D01*
X99480200Y-88416000D02*
X99480200Y-89932000D01*
X99520200Y-84826000D02*
X99520200Y-86336000D01*
X99520200Y-88416000D02*
X99520200Y-89926000D01*
X99560200Y-84833000D02*
X99560200Y-86336000D01*
X99560200Y-88416000D02*
X99560200Y-89919000D01*
X99600200Y-84840000D02*
X99600200Y-86336000D01*
X99600200Y-88416000D02*
X99600200Y-89912000D01*
X99640200Y-84848000D02*
X99640200Y-86336000D01*
X99640200Y-88416000D02*
X99640200Y-89904000D01*
X99680200Y-84856000D02*
X99680200Y-86336000D01*
X99680200Y-88416000D02*
X99680200Y-89896000D01*
X99720200Y-84865000D02*
X99720200Y-86336000D01*
X99720200Y-88416000D02*
X99720200Y-89887000D01*
X99760200Y-84875000D02*
X99760200Y-86336000D01*
X99760200Y-88416000D02*
X99760200Y-89877000D01*
X99800200Y-84885000D02*
X99800200Y-86336000D01*
X99800200Y-88416000D02*
X99800200Y-89867000D01*
X99841200Y-84896000D02*
X99841200Y-86336000D01*
X99841200Y-88416000D02*
X99841200Y-89856000D01*
X99881200Y-84908000D02*
X99881200Y-86336000D01*
X99881200Y-88416000D02*
X99881200Y-89844000D01*
X99921200Y-84921000D02*
X99921200Y-86336000D01*
X99921200Y-88416000D02*
X99921200Y-89831000D01*
X99961200Y-84934000D02*
X99961200Y-86336000D01*
X99961200Y-88416000D02*
X99961200Y-89818000D01*
X100001200Y-84948000D02*
X100001200Y-86336000D01*
X100001200Y-88416000D02*
X100001200Y-89804000D01*
X100041200Y-84962000D02*
X100041200Y-86336000D01*
X100041200Y-88416000D02*
X100041200Y-89790000D01*
X100081200Y-84978000D02*
X100081200Y-86336000D01*
X100081200Y-88416000D02*
X100081200Y-89774000D01*
X100121200Y-84994000D02*
X100121200Y-86336000D01*
X100121200Y-88416000D02*
X100121200Y-89758000D01*
X100161200Y-85011000D02*
X100161200Y-86336000D01*
X100161200Y-88416000D02*
X100161200Y-89741000D01*
X100201200Y-85028000D02*
X100201200Y-86336000D01*
X100201200Y-88416000D02*
X100201200Y-89724000D01*
X100241200Y-85047000D02*
X100241200Y-86336000D01*
X100241200Y-88416000D02*
X100241200Y-89705000D01*
X100281200Y-85066000D02*
X100281200Y-86336000D01*
X100281200Y-88416000D02*
X100281200Y-89686000D01*
X100321200Y-85086000D02*
X100321200Y-86336000D01*
X100321200Y-88416000D02*
X100321200Y-89666000D01*
X100361200Y-85108000D02*
X100361200Y-86336000D01*
X100361200Y-88416000D02*
X100361200Y-89644000D01*
X100401200Y-85129000D02*
X100401200Y-86336000D01*
X100401200Y-88416000D02*
X100401200Y-89623000D01*
X100441200Y-85152000D02*
X100441200Y-86336000D01*
X100441200Y-88416000D02*
X100441200Y-89600000D01*
X100481200Y-85176000D02*
X100481200Y-86336000D01*
X100481200Y-88416000D02*
X100481200Y-89576000D01*
X100521200Y-85201000D02*
X100521200Y-86336000D01*
X100521200Y-88416000D02*
X100521200Y-89551000D01*
X100561200Y-85227000D02*
X100561200Y-86336000D01*
X100561200Y-88416000D02*
X100561200Y-89525000D01*
X100601200Y-85254000D02*
X100601200Y-86336000D01*
X100601200Y-88416000D02*
X100601200Y-89498000D01*
X100641200Y-85281000D02*
X100641200Y-86336000D01*
X100641200Y-88416000D02*
X100641200Y-89471000D01*
X100681200Y-85311000D02*
X100681200Y-86336000D01*
X100681200Y-88416000D02*
X100681200Y-89441000D01*
X100721200Y-85341000D02*
X100721200Y-86336000D01*
X100721200Y-88416000D02*
X100721200Y-89411000D01*
X100761200Y-85372000D02*
X100761200Y-86336000D01*
X100761200Y-88416000D02*
X100761200Y-89380000D01*
X100801200Y-85405000D02*
X100801200Y-86336000D01*
X100801200Y-88416000D02*
X100801200Y-89347000D01*
X100841200Y-85439000D02*
X100841200Y-86336000D01*
X100841200Y-88416000D02*
X100841200Y-89313000D01*
X100881200Y-85475000D02*
X100881200Y-86336000D01*
X100881200Y-88416000D02*
X100881200Y-89277000D01*
X100921200Y-85512000D02*
X100921200Y-86336000D01*
X100921200Y-88416000D02*
X100921200Y-89240000D01*
X100961200Y-85550000D02*
X100961200Y-86336000D01*
X100961200Y-88416000D02*
X100961200Y-89202000D01*
X101001200Y-85591000D02*
X101001200Y-86336000D01*
X101001200Y-88416000D02*
X101001200Y-89161000D01*
X101041200Y-85633000D02*
X101041200Y-86336000D01*
X101041200Y-88416000D02*
X101041200Y-89119000D01*
X101081200Y-85677000D02*
X101081200Y-86336000D01*
X101081200Y-88416000D02*
X101081200Y-89075000D01*
X101121200Y-85723000D02*
X101121200Y-86336000D01*
X101121200Y-88416000D02*
X101121200Y-89029000D01*
X101161200Y-85771000D02*
X101161200Y-88981000D01*
X101201200Y-85822000D02*
X101201200Y-88930000D01*
X101241200Y-85876000D02*
X101241200Y-88876000D01*
X101281200Y-85933000D02*
X101281200Y-88819000D01*
X101321200Y-85993000D02*
X101321200Y-88759000D01*
X101361200Y-86057000D02*
X101361200Y-88695000D01*
X101401200Y-86125000D02*
X101401200Y-88627000D01*
X101441200Y-86198000D02*
X101441200Y-88554000D01*
X101481200Y-86278000D02*
X101481200Y-88474000D01*
X101521200Y-86365000D02*
X101521200Y-88387000D01*
X101561200Y-86461000D02*
X101561200Y-88291000D01*
X101601200Y-86571000D02*
X101601200Y-88181000D01*
X101641200Y-86699000D02*
X101641200Y-88053000D01*
X101681200Y-86858000D02*
X101681200Y-87894000D01*
X101721200Y-87092000D02*
X101721200Y-87660000D01*
X96315425Y-85901000D02*
X96815425Y-85901000D01*
X96565425Y-85651000D02*
X96565425Y-86151000D01*
%TO.C,D1*%
X95145200Y-83386000D02*
X92205200Y-83386000D01*
X92205200Y-83386000D02*
X92205200Y-88826000D01*
X92205200Y-88826000D02*
X95145200Y-88826000D01*
X95145200Y-88826000D02*
X95145200Y-83386000D01*
X93675200Y-82366000D02*
X93675200Y-83386000D01*
X93675200Y-89846000D02*
X93675200Y-88826000D01*
X95145200Y-84286000D02*
X92205200Y-84286000D01*
X95145200Y-84406000D02*
X92205200Y-84406000D01*
X95145200Y-84166000D02*
X92205200Y-84166000D01*
%TO.C,D3*%
X87525200Y-83386000D02*
X84585200Y-83386000D01*
X84585200Y-83386000D02*
X84585200Y-88826000D01*
X84585200Y-88826000D02*
X87525200Y-88826000D01*
X87525200Y-88826000D02*
X87525200Y-83386000D01*
X86055200Y-82366000D02*
X86055200Y-83386000D01*
X86055200Y-89846000D02*
X86055200Y-88826000D01*
X87525200Y-84286000D02*
X84585200Y-84286000D01*
X87525200Y-84406000D02*
X84585200Y-84406000D01*
X87525200Y-84166000D02*
X84585200Y-84166000D01*
%TO.C,J8*%
X79645200Y-86046000D02*
X80975200Y-86046000D01*
X79645200Y-87376000D02*
X79645200Y-86046000D01*
X79645200Y-88646000D02*
X82305200Y-88646000D01*
X82305200Y-88646000D02*
X82305200Y-96326000D01*
X79645200Y-88646000D02*
X79645200Y-96326000D01*
X79645200Y-96326000D02*
X82305200Y-96326000D01*
%TO.C,U2*%
X84245200Y-73416800D02*
X84245200Y-83656800D01*
X79604200Y-73416800D02*
X79604200Y-83656800D01*
X84245200Y-73416800D02*
X79604200Y-73416800D01*
X84245200Y-83656800D02*
X79604200Y-83656800D01*
X82735200Y-73416800D02*
X82735200Y-83656800D01*
X84245200Y-76686800D02*
X82735200Y-76686800D01*
X84245200Y-80387800D02*
X82735200Y-80387800D01*
%TO.C,J4*%
X107705200Y-92296000D02*
X107705200Y-91493530D01*
X107705200Y-90878470D02*
X107705200Y-90076000D01*
X106500200Y-92296000D02*
X107705200Y-92296000D01*
X106500200Y-90076000D02*
X107705200Y-90076000D01*
X106500200Y-92296000D02*
X106500200Y-91749471D01*
X106500200Y-90622529D02*
X106500200Y-90076000D01*
X105740200Y-92296000D02*
X104980200Y-92296000D01*
X104980200Y-92296000D02*
X104980200Y-91186000D01*
%TO.C,C2*%
X95396200Y-71966000D02*
X95396200Y-77306000D01*
X91954200Y-71966000D02*
X91954200Y-77306000D01*
X95396200Y-71966000D02*
X94730200Y-71966000D01*
X92620200Y-71966000D02*
X91954200Y-71966000D01*
X95396200Y-77306000D02*
X94730200Y-77306000D01*
X92620200Y-77306000D02*
X91954200Y-77306000D01*
%TO.C,C4*%
X80885200Y-27901000D02*
X80885200Y-27235000D01*
X80885200Y-30677000D02*
X80885200Y-30011000D01*
X86225200Y-27901000D02*
X86225200Y-27235000D01*
X86225200Y-30677000D02*
X86225200Y-30011000D01*
X86225200Y-27235000D02*
X80885200Y-27235000D01*
X86225200Y-30677000D02*
X80885200Y-30677000D01*
%TO.C,C5*%
X122035200Y-19896000D02*
X122701200Y-19896000D01*
X119259200Y-19896000D02*
X119925200Y-19896000D01*
X122035200Y-25236000D02*
X122701200Y-25236000D01*
X119259200Y-25236000D02*
X119925200Y-25236000D01*
X122701200Y-25236000D02*
X122701200Y-19896000D01*
X119259200Y-25236000D02*
X119259200Y-19896000D01*
%TO.C,C6*%
X123704200Y-25316000D02*
X123704200Y-19976000D01*
X127146200Y-25316000D02*
X127146200Y-19976000D01*
X123704200Y-25316000D02*
X124370200Y-25316000D01*
X126480200Y-25316000D02*
X127146200Y-25316000D01*
X123704200Y-19976000D02*
X124370200Y-19976000D01*
X126480200Y-19976000D02*
X127146200Y-19976000D01*
%TO.C,C7*%
X80885200Y-31711000D02*
X80885200Y-31045000D01*
X80885200Y-34487000D02*
X80885200Y-33821000D01*
X86225200Y-31711000D02*
X86225200Y-31045000D01*
X86225200Y-34487000D02*
X86225200Y-33821000D01*
X86225200Y-31045000D02*
X80885200Y-31045000D01*
X86225200Y-34487000D02*
X80885200Y-34487000D01*
%TO.C,J12*%
X86085200Y-95166000D02*
X83485200Y-95166000D01*
X86085200Y-97366000D02*
X86085200Y-95166000D01*
X83485200Y-97366000D02*
X86085200Y-97366000D01*
X83485200Y-96866000D02*
X83485200Y-97366000D01*
X83485200Y-95166000D02*
X83485200Y-96866000D01*
%TO.C,J13*%
X87295200Y-95166000D02*
X87295200Y-96866000D01*
X87295200Y-96866000D02*
X87295200Y-97366000D01*
X87295200Y-97366000D02*
X89895200Y-97366000D01*
X89895200Y-97366000D02*
X89895200Y-95166000D01*
X89895200Y-95166000D02*
X87295200Y-95166000D01*
%TO.C,J14*%
X91105200Y-95166000D02*
X91105200Y-96866000D01*
X91105200Y-96866000D02*
X91105200Y-97366000D01*
X91105200Y-97366000D02*
X93705200Y-97366000D01*
X93705200Y-97366000D02*
X93705200Y-95166000D01*
X93705200Y-95166000D02*
X91105200Y-95166000D01*
%TO.C,J15*%
X97515200Y-95166000D02*
X94915200Y-95166000D01*
X97515200Y-97366000D02*
X97515200Y-95166000D01*
X94915200Y-97366000D02*
X97515200Y-97366000D01*
X94915200Y-96866000D02*
X94915200Y-97366000D01*
X94915200Y-95166000D02*
X94915200Y-96866000D01*
%TO.C,J16*%
X98725200Y-95166000D02*
X98725200Y-96866000D01*
X98725200Y-96866000D02*
X98725200Y-97366000D01*
X98725200Y-97366000D02*
X101325200Y-97366000D01*
X101325200Y-97366000D02*
X101325200Y-95166000D01*
X101325200Y-95166000D02*
X98725200Y-95166000D01*
%TO.C,J17*%
X105135200Y-95166000D02*
X102535200Y-95166000D01*
X105135200Y-97366000D02*
X105135200Y-95166000D01*
X102535200Y-97366000D02*
X105135200Y-97366000D01*
X102535200Y-96866000D02*
X102535200Y-97366000D01*
X102535200Y-95166000D02*
X102535200Y-96866000D01*
%TO.C,J18*%
X106345200Y-95166000D02*
X106345200Y-96866000D01*
X106345200Y-96866000D02*
X106345200Y-97366000D01*
X106345200Y-97366000D02*
X108945200Y-97366000D01*
X108945200Y-97366000D02*
X108945200Y-95166000D01*
X108945200Y-95166000D02*
X106345200Y-95166000D01*
%TO.C,J19*%
X110155200Y-95166000D02*
X110155200Y-96866000D01*
X110155200Y-96866000D02*
X110155200Y-97366000D01*
X110155200Y-97366000D02*
X112755200Y-97366000D01*
X112755200Y-97366000D02*
X112755200Y-95166000D01*
X112755200Y-95166000D02*
X110155200Y-95166000D01*
%TO.C,J20*%
X116565200Y-95166000D02*
X113965200Y-95166000D01*
X116565200Y-97366000D02*
X116565200Y-95166000D01*
X113965200Y-97366000D02*
X116565200Y-97366000D01*
X113965200Y-96866000D02*
X113965200Y-97366000D01*
X113965200Y-95166000D02*
X113965200Y-96866000D01*
%TO.C,J21*%
X117775200Y-95166000D02*
X117775200Y-96866000D01*
X117775200Y-96866000D02*
X117775200Y-97366000D01*
X117775200Y-97366000D02*
X120375200Y-97366000D01*
X120375200Y-97366000D02*
X120375200Y-95166000D01*
X120375200Y-95166000D02*
X117775200Y-95166000D01*
%TO.C,J22*%
X124185200Y-95166000D02*
X121585200Y-95166000D01*
X124185200Y-97366000D02*
X124185200Y-95166000D01*
X121585200Y-97366000D02*
X124185200Y-97366000D01*
X121585200Y-96866000D02*
X121585200Y-97366000D01*
X121585200Y-95166000D02*
X121585200Y-96866000D01*
%TO.C,J23*%
X125395200Y-95166000D02*
X125395200Y-96866000D01*
X125395200Y-96866000D02*
X125395200Y-97366000D01*
X125395200Y-97366000D02*
X127995200Y-97366000D01*
X127995200Y-97366000D02*
X127995200Y-95166000D01*
X127995200Y-95166000D02*
X125395200Y-95166000D01*
%TO.C,J24*%
X131805200Y-95166000D02*
X129205200Y-95166000D01*
X131805200Y-97366000D02*
X131805200Y-95166000D01*
X129205200Y-97366000D02*
X131805200Y-97366000D01*
X129205200Y-96866000D02*
X129205200Y-97366000D01*
X129205200Y-95166000D02*
X129205200Y-96866000D01*
%TO.C,J25*%
X135615200Y-95166000D02*
X133015200Y-95166000D01*
X135615200Y-97366000D02*
X135615200Y-95166000D01*
X133015200Y-97366000D02*
X135615200Y-97366000D01*
X133015200Y-96866000D02*
X133015200Y-97366000D01*
X133015200Y-95166000D02*
X133015200Y-96866000D01*
%TD*%
%TO.C,J6*%
D11*
X132711866Y-50863380D02*
X132711866Y-51577666D01*
X132664247Y-51720523D01*
X132569009Y-51815761D01*
X132426152Y-51863380D01*
X132330914Y-51863380D01*
X133616628Y-50863380D02*
X133426152Y-50863380D01*
X133330914Y-50911000D01*
X133283295Y-50958619D01*
X133188057Y-51101476D01*
X133140438Y-51291952D01*
X133140438Y-51672904D01*
X133188057Y-51768142D01*
X133235676Y-51815761D01*
X133330914Y-51863380D01*
X133521390Y-51863380D01*
X133616628Y-51815761D01*
X133664247Y-51768142D01*
X133711866Y-51672904D01*
X133711866Y-51434809D01*
X133664247Y-51339571D01*
X133616628Y-51291952D01*
X133521390Y-51244333D01*
X133330914Y-51244333D01*
X133235676Y-51291952D01*
X133188057Y-51339571D01*
X133140438Y-51434809D01*
%TO.C,D2*%
X90317580Y-94464095D02*
X89317580Y-94464095D01*
X89317580Y-94226000D01*
X89365200Y-94083142D01*
X89460438Y-93987904D01*
X89555676Y-93940285D01*
X89746152Y-93892666D01*
X89889009Y-93892666D01*
X90079485Y-93940285D01*
X90174723Y-93987904D01*
X90269961Y-94083142D01*
X90317580Y-94226000D01*
X90317580Y-94464095D01*
X89412819Y-93511714D02*
X89365200Y-93464095D01*
X89317580Y-93368857D01*
X89317580Y-93130761D01*
X89365200Y-93035523D01*
X89412819Y-92987904D01*
X89508057Y-92940285D01*
X89603295Y-92940285D01*
X89746152Y-92987904D01*
X90317580Y-93559333D01*
X90317580Y-92940285D01*
X92451180Y-80678304D02*
X91451180Y-80678304D01*
X92451180Y-80106876D02*
X91879752Y-80535447D01*
X91451180Y-80106876D02*
X92022609Y-80678304D01*
%TO.C, *%
%TO.C,J1*%
X84451866Y-51268380D02*
X84451866Y-51982666D01*
X84404247Y-52125523D01*
X84309009Y-52220761D01*
X84166152Y-52268380D01*
X84070914Y-52268380D01*
X85451866Y-52268380D02*
X84880438Y-52268380D01*
X85166152Y-52268380D02*
X85166152Y-51268380D01*
X85070914Y-51411238D01*
X84975676Y-51506476D01*
X84880438Y-51554095D01*
%TO.C,J2*%
X79067066Y-18299180D02*
X79067066Y-19013466D01*
X79019447Y-19156323D01*
X78924209Y-19251561D01*
X78781352Y-19299180D01*
X78686114Y-19299180D01*
X79495638Y-18394419D02*
X79543257Y-18346800D01*
X79638495Y-18299180D01*
X79876590Y-18299180D01*
X79971828Y-18346800D01*
X80019447Y-18394419D01*
X80067066Y-18489657D01*
X80067066Y-18584895D01*
X80019447Y-18727752D01*
X79448019Y-19299180D01*
X80067066Y-19299180D01*
%TO.C,J5*%
X105940266Y-87945980D02*
X105940266Y-88660266D01*
X105892647Y-88803123D01*
X105797409Y-88898361D01*
X105654552Y-88945980D01*
X105559314Y-88945980D01*
X106892647Y-87945980D02*
X106416457Y-87945980D01*
X106368838Y-88422171D01*
X106416457Y-88374552D01*
X106511695Y-88326933D01*
X106749790Y-88326933D01*
X106845028Y-88374552D01*
X106892647Y-88422171D01*
X106940266Y-88517409D01*
X106940266Y-88755504D01*
X106892647Y-88850742D01*
X106845028Y-88898361D01*
X106749790Y-88945980D01*
X106511695Y-88945980D01*
X106416457Y-88898361D01*
X106368838Y-88850742D01*
%TO.C,J7*%
X132711866Y-66738380D02*
X132711866Y-67452666D01*
X132664247Y-67595523D01*
X132569009Y-67690761D01*
X132426152Y-67738380D01*
X132330914Y-67738380D01*
X133092819Y-66738380D02*
X133759485Y-66738380D01*
X133330914Y-67738380D01*
%TO.C,Q2*%
D17*
X86755417Y-53841672D02*
X86707781Y-53936945D01*
X86612508Y-54032217D01*
X86469599Y-54175126D01*
X86421963Y-54270399D01*
X86421963Y-54365671D01*
X86660144Y-54318035D02*
X86612508Y-54413308D01*
X86517235Y-54508580D01*
X86326690Y-54556216D01*
X85993236Y-54556216D01*
X85802691Y-54508580D01*
X85707419Y-54413308D01*
X85659782Y-54318035D01*
X85659782Y-54127490D01*
X85707419Y-54032217D01*
X85802691Y-53936945D01*
X85993236Y-53889308D01*
X86326690Y-53889308D01*
X86517235Y-53936945D01*
X86612508Y-54032217D01*
X86660144Y-54127490D01*
X86660144Y-54318035D01*
X85755055Y-53508218D02*
X85707419Y-53460582D01*
X85659782Y-53365309D01*
X85659782Y-53127128D01*
X85707419Y-53031855D01*
X85755055Y-52984219D01*
X85850327Y-52936583D01*
X85945600Y-52936583D01*
X86088509Y-52984219D01*
X86660144Y-53555854D01*
X86660144Y-52936583D01*
%TO.C,R2*%
D11*
X79014580Y-64682666D02*
X78538390Y-65016000D01*
X79014580Y-65254095D02*
X78014580Y-65254095D01*
X78014580Y-64873142D01*
X78062200Y-64777904D01*
X78109819Y-64730285D01*
X78205057Y-64682666D01*
X78347914Y-64682666D01*
X78443152Y-64730285D01*
X78490771Y-64777904D01*
X78538390Y-64873142D01*
X78538390Y-65254095D01*
X78109819Y-64301714D02*
X78062200Y-64254095D01*
X78014580Y-64158857D01*
X78014580Y-63920761D01*
X78062200Y-63825523D01*
X78109819Y-63777904D01*
X78205057Y-63730285D01*
X78300295Y-63730285D01*
X78443152Y-63777904D01*
X79014580Y-64349333D01*
X79014580Y-63730285D01*
%TO.C,R3*%
X87777580Y-64682666D02*
X87301390Y-65016000D01*
X87777580Y-65254095D02*
X86777580Y-65254095D01*
X86777580Y-64873142D01*
X86825200Y-64777904D01*
X86872819Y-64730285D01*
X86968057Y-64682666D01*
X87110914Y-64682666D01*
X87206152Y-64730285D01*
X87253771Y-64777904D01*
X87301390Y-64873142D01*
X87301390Y-65254095D01*
X86777580Y-64349333D02*
X86777580Y-63730285D01*
X87158533Y-64063619D01*
X87158533Y-63920761D01*
X87206152Y-63825523D01*
X87253771Y-63777904D01*
X87349009Y-63730285D01*
X87587104Y-63730285D01*
X87682342Y-63777904D01*
X87729961Y-63825523D01*
X87777580Y-63920761D01*
X87777580Y-64206476D01*
X87729961Y-64301714D01*
X87682342Y-64349333D01*
%TO.C,R4*%
X102382580Y-85002666D02*
X101906390Y-85336000D01*
X102382580Y-85574095D02*
X101382580Y-85574095D01*
X101382580Y-85193142D01*
X101430200Y-85097904D01*
X101477819Y-85050285D01*
X101573057Y-85002666D01*
X101715914Y-85002666D01*
X101811152Y-85050285D01*
X101858771Y-85097904D01*
X101906390Y-85193142D01*
X101906390Y-85574095D01*
X101715914Y-84145523D02*
X102382580Y-84145523D01*
X101334961Y-84383619D02*
X102049247Y-84621714D01*
X102049247Y-84002666D01*
%TO.C,R5*%
X96667580Y-84367666D02*
X96191390Y-84701000D01*
X96667580Y-84939095D02*
X95667580Y-84939095D01*
X95667580Y-84558142D01*
X95715200Y-84462904D01*
X95762819Y-84415285D01*
X95858057Y-84367666D01*
X96000914Y-84367666D01*
X96096152Y-84415285D01*
X96143771Y-84462904D01*
X96191390Y-84558142D01*
X96191390Y-84939095D01*
X95667580Y-83462904D02*
X95667580Y-83939095D01*
X96143771Y-83986714D01*
X96096152Y-83939095D01*
X96048533Y-83843857D01*
X96048533Y-83605761D01*
X96096152Y-83510523D01*
X96143771Y-83462904D01*
X96239009Y-83415285D01*
X96477104Y-83415285D01*
X96572342Y-83462904D01*
X96619961Y-83510523D01*
X96667580Y-83605761D01*
X96667580Y-83843857D01*
X96619961Y-83939095D01*
X96572342Y-83986714D01*
%TO.C,U1*%
X108153295Y-71588380D02*
X108153295Y-72397904D01*
X108200914Y-72493142D01*
X108248533Y-72540761D01*
X108343771Y-72588380D01*
X108534247Y-72588380D01*
X108629485Y-72540761D01*
X108677104Y-72493142D01*
X108724723Y-72397904D01*
X108724723Y-71588380D01*
X109724723Y-72588380D02*
X109153295Y-72588380D01*
X109439009Y-72588380D02*
X109439009Y-71588380D01*
X109343771Y-71731238D01*
X109248533Y-71826476D01*
X109153295Y-71874095D01*
X92989476Y-19666000D02*
X92913285Y-19627904D01*
X92799000Y-19627904D01*
X92684714Y-19666000D01*
X92608523Y-19742190D01*
X92570428Y-19818380D01*
X92532333Y-19970761D01*
X92532333Y-20085047D01*
X92570428Y-20237428D01*
X92608523Y-20313619D01*
X92684714Y-20389809D01*
X92799000Y-20427904D01*
X92875190Y-20427904D01*
X92989476Y-20389809D01*
X93027571Y-20351714D01*
X93027571Y-20085047D01*
X92875190Y-20085047D01*
X93370428Y-20427904D02*
X93370428Y-19627904D01*
X93827571Y-20427904D01*
X93827571Y-19627904D01*
X94208523Y-20427904D02*
X94208523Y-19627904D01*
X94399000Y-19627904D01*
X94513285Y-19666000D01*
X94589476Y-19742190D01*
X94627571Y-19818380D01*
X94665666Y-19970761D01*
X94665666Y-20085047D01*
X94627571Y-20237428D01*
X94589476Y-20313619D01*
X94513285Y-20389809D01*
X94399000Y-20427904D01*
X94208523Y-20427904D01*
X92481523Y-24707904D02*
X92976761Y-24707904D01*
X92710095Y-25012666D01*
X92824380Y-25012666D01*
X92900571Y-25050761D01*
X92938666Y-25088857D01*
X92976761Y-25165047D01*
X92976761Y-25355523D01*
X92938666Y-25431714D01*
X92900571Y-25469809D01*
X92824380Y-25507904D01*
X92595809Y-25507904D01*
X92519619Y-25469809D01*
X92481523Y-25431714D01*
X93205333Y-24707904D02*
X93472000Y-25507904D01*
X93738666Y-24707904D01*
X93929142Y-24707904D02*
X94424380Y-24707904D01*
X94157714Y-25012666D01*
X94272000Y-25012666D01*
X94348190Y-25050761D01*
X94386285Y-25088857D01*
X94424380Y-25165047D01*
X94424380Y-25355523D01*
X94386285Y-25431714D01*
X94348190Y-25469809D01*
X94272000Y-25507904D01*
X94043428Y-25507904D01*
X93967238Y-25469809D01*
X93929142Y-25431714D01*
X92938619Y-22167904D02*
X92557666Y-22167904D01*
X92519571Y-22548857D01*
X92557666Y-22510761D01*
X92633857Y-22472666D01*
X92824333Y-22472666D01*
X92900523Y-22510761D01*
X92938619Y-22548857D01*
X92976714Y-22625047D01*
X92976714Y-22815523D01*
X92938619Y-22891714D01*
X92900523Y-22929809D01*
X92824333Y-22967904D01*
X92633857Y-22967904D01*
X92557666Y-22929809D01*
X92519571Y-22891714D01*
X93205285Y-22167904D02*
X93471952Y-22967904D01*
X93738619Y-22167904D01*
X92989476Y-27286000D02*
X92913285Y-27247904D01*
X92799000Y-27247904D01*
X92684714Y-27286000D01*
X92608523Y-27362190D01*
X92570428Y-27438380D01*
X92532333Y-27590761D01*
X92532333Y-27705047D01*
X92570428Y-27857428D01*
X92608523Y-27933619D01*
X92684714Y-28009809D01*
X92799000Y-28047904D01*
X92875190Y-28047904D01*
X92989476Y-28009809D01*
X93027571Y-27971714D01*
X93027571Y-27705047D01*
X92875190Y-27705047D01*
X93370428Y-28047904D02*
X93370428Y-27247904D01*
X93827571Y-28047904D01*
X93827571Y-27247904D01*
X94208523Y-28047904D02*
X94208523Y-27247904D01*
X94399000Y-27247904D01*
X94513285Y-27286000D01*
X94589476Y-27362190D01*
X94627571Y-27438380D01*
X94665666Y-27590761D01*
X94665666Y-27705047D01*
X94627571Y-27857428D01*
X94589476Y-27933619D01*
X94513285Y-28009809D01*
X94399000Y-28047904D01*
X94208523Y-28047904D01*
X92926047Y-29826000D02*
X92849857Y-29787904D01*
X92735571Y-29787904D01*
X92621285Y-29826000D01*
X92545095Y-29902190D01*
X92507000Y-29978380D01*
X92468904Y-30130761D01*
X92468904Y-30245047D01*
X92507000Y-30397428D01*
X92545095Y-30473619D01*
X92621285Y-30549809D01*
X92735571Y-30587904D01*
X92811761Y-30587904D01*
X92926047Y-30549809D01*
X92964142Y-30511714D01*
X92964142Y-30245047D01*
X92811761Y-30245047D01*
X93307000Y-30587904D02*
X93307000Y-29787904D01*
X93611761Y-29787904D01*
X93687952Y-29826000D01*
X93726047Y-29864095D01*
X93764142Y-29940285D01*
X93764142Y-30054571D01*
X93726047Y-30130761D01*
X93687952Y-30168857D01*
X93611761Y-30206952D01*
X93307000Y-30206952D01*
X94107000Y-30587904D02*
X94107000Y-29787904D01*
X94640333Y-29787904D02*
X94792714Y-29787904D01*
X94868904Y-29826000D01*
X94945095Y-29902190D01*
X94983190Y-30054571D01*
X94983190Y-30321238D01*
X94945095Y-30473619D01*
X94868904Y-30549809D01*
X94792714Y-30587904D01*
X94640333Y-30587904D01*
X94564142Y-30549809D01*
X94487952Y-30473619D01*
X94449857Y-30321238D01*
X94449857Y-30054571D01*
X94487952Y-29902190D01*
X94564142Y-29826000D01*
X94640333Y-29787904D01*
X95249857Y-29787904D02*
X95745095Y-29787904D01*
X95478428Y-30092666D01*
X95592714Y-30092666D01*
X95668904Y-30130761D01*
X95707000Y-30168857D01*
X95745095Y-30245047D01*
X95745095Y-30435523D01*
X95707000Y-30511714D01*
X95668904Y-30549809D01*
X95592714Y-30587904D01*
X95364142Y-30587904D01*
X95287952Y-30549809D01*
X95249857Y-30511714D01*
X92926047Y-32366000D02*
X92849857Y-32327904D01*
X92735571Y-32327904D01*
X92621285Y-32366000D01*
X92545095Y-32442190D01*
X92507000Y-32518380D01*
X92468904Y-32670761D01*
X92468904Y-32785047D01*
X92507000Y-32937428D01*
X92545095Y-33013619D01*
X92621285Y-33089809D01*
X92735571Y-33127904D01*
X92811761Y-33127904D01*
X92926047Y-33089809D01*
X92964142Y-33051714D01*
X92964142Y-32785047D01*
X92811761Y-32785047D01*
X93307000Y-33127904D02*
X93307000Y-32327904D01*
X93611761Y-32327904D01*
X93687952Y-32366000D01*
X93726047Y-32404095D01*
X93764142Y-32480285D01*
X93764142Y-32594571D01*
X93726047Y-32670761D01*
X93687952Y-32708857D01*
X93611761Y-32746952D01*
X93307000Y-32746952D01*
X94107000Y-33127904D02*
X94107000Y-32327904D01*
X94640333Y-32327904D02*
X94792714Y-32327904D01*
X94868904Y-32366000D01*
X94945095Y-32442190D01*
X94983190Y-32594571D01*
X94983190Y-32861238D01*
X94945095Y-33013619D01*
X94868904Y-33089809D01*
X94792714Y-33127904D01*
X94640333Y-33127904D01*
X94564142Y-33089809D01*
X94487952Y-33013619D01*
X94449857Y-32861238D01*
X94449857Y-32594571D01*
X94487952Y-32442190D01*
X94564142Y-32366000D01*
X94640333Y-32327904D01*
X95745095Y-33127904D02*
X95287952Y-33127904D01*
X95516523Y-33127904D02*
X95516523Y-32327904D01*
X95440333Y-32442190D01*
X95364142Y-32518380D01*
X95287952Y-32556476D01*
X93033904Y-35667904D02*
X92767238Y-35286952D01*
X92576761Y-35667904D02*
X92576761Y-34867904D01*
X92881523Y-34867904D01*
X92957714Y-34906000D01*
X92995809Y-34944095D01*
X93033904Y-35020285D01*
X93033904Y-35134571D01*
X92995809Y-35210761D01*
X92957714Y-35248857D01*
X92881523Y-35286952D01*
X92576761Y-35286952D01*
X93338666Y-35629809D02*
X93452952Y-35667904D01*
X93643428Y-35667904D01*
X93719619Y-35629809D01*
X93757714Y-35591714D01*
X93795809Y-35515523D01*
X93795809Y-35439333D01*
X93757714Y-35363142D01*
X93719619Y-35325047D01*
X93643428Y-35286952D01*
X93491047Y-35248857D01*
X93414857Y-35210761D01*
X93376761Y-35172666D01*
X93338666Y-35096476D01*
X93338666Y-35020285D01*
X93376761Y-34944095D01*
X93414857Y-34906000D01*
X93491047Y-34867904D01*
X93681523Y-34867904D01*
X93795809Y-34906000D01*
X94024380Y-34867904D02*
X94481523Y-34867904D01*
X94252952Y-35667904D02*
X94252952Y-34867904D01*
X92926047Y-37446000D02*
X92849857Y-37407904D01*
X92735571Y-37407904D01*
X92621285Y-37446000D01*
X92545095Y-37522190D01*
X92507000Y-37598380D01*
X92468904Y-37750761D01*
X92468904Y-37865047D01*
X92507000Y-38017428D01*
X92545095Y-38093619D01*
X92621285Y-38169809D01*
X92735571Y-38207904D01*
X92811761Y-38207904D01*
X92926047Y-38169809D01*
X92964142Y-38131714D01*
X92964142Y-37865047D01*
X92811761Y-37865047D01*
X93307000Y-38207904D02*
X93307000Y-37407904D01*
X93611761Y-37407904D01*
X93687952Y-37446000D01*
X93726047Y-37484095D01*
X93764142Y-37560285D01*
X93764142Y-37674571D01*
X93726047Y-37750761D01*
X93687952Y-37788857D01*
X93611761Y-37826952D01*
X93307000Y-37826952D01*
X94107000Y-38207904D02*
X94107000Y-37407904D01*
X94640333Y-37407904D02*
X94792714Y-37407904D01*
X94868904Y-37446000D01*
X94945095Y-37522190D01*
X94983190Y-37674571D01*
X94983190Y-37941238D01*
X94945095Y-38093619D01*
X94868904Y-38169809D01*
X94792714Y-38207904D01*
X94640333Y-38207904D01*
X94564142Y-38169809D01*
X94487952Y-38093619D01*
X94449857Y-37941238D01*
X94449857Y-37674571D01*
X94487952Y-37522190D01*
X94564142Y-37446000D01*
X94640333Y-37407904D01*
X95478428Y-37407904D02*
X95554619Y-37407904D01*
X95630809Y-37446000D01*
X95668904Y-37484095D01*
X95707000Y-37560285D01*
X95745095Y-37712666D01*
X95745095Y-37903142D01*
X95707000Y-38055523D01*
X95668904Y-38131714D01*
X95630809Y-38169809D01*
X95554619Y-38207904D01*
X95478428Y-38207904D01*
X95402238Y-38169809D01*
X95364142Y-38131714D01*
X95326047Y-38055523D01*
X95287952Y-37903142D01*
X95287952Y-37712666D01*
X95326047Y-37560285D01*
X95364142Y-37484095D01*
X95402238Y-37446000D01*
X95478428Y-37407904D01*
X92926095Y-39986000D02*
X92849904Y-39947904D01*
X92735619Y-39947904D01*
X92621333Y-39986000D01*
X92545142Y-40062190D01*
X92507047Y-40138380D01*
X92468952Y-40290761D01*
X92468952Y-40405047D01*
X92507047Y-40557428D01*
X92545142Y-40633619D01*
X92621333Y-40709809D01*
X92735619Y-40747904D01*
X92811809Y-40747904D01*
X92926095Y-40709809D01*
X92964190Y-40671714D01*
X92964190Y-40405047D01*
X92811809Y-40405047D01*
X93307047Y-40747904D02*
X93307047Y-39947904D01*
X93611809Y-39947904D01*
X93688000Y-39986000D01*
X93726095Y-40024095D01*
X93764190Y-40100285D01*
X93764190Y-40214571D01*
X93726095Y-40290761D01*
X93688000Y-40328857D01*
X93611809Y-40366952D01*
X93307047Y-40366952D01*
X94107047Y-40747904D02*
X94107047Y-39947904D01*
X94640380Y-39947904D02*
X94792761Y-39947904D01*
X94868952Y-39986000D01*
X94945142Y-40062190D01*
X94983238Y-40214571D01*
X94983238Y-40481238D01*
X94945142Y-40633619D01*
X94868952Y-40709809D01*
X94792761Y-40747904D01*
X94640380Y-40747904D01*
X94564190Y-40709809D01*
X94488000Y-40633619D01*
X94449904Y-40481238D01*
X94449904Y-40214571D01*
X94488000Y-40062190D01*
X94564190Y-39986000D01*
X94640380Y-39947904D01*
X95288000Y-40024095D02*
X95326095Y-39986000D01*
X95402285Y-39947904D01*
X95592761Y-39947904D01*
X95668952Y-39986000D01*
X95707047Y-40024095D01*
X95745142Y-40100285D01*
X95745142Y-40176476D01*
X95707047Y-40290761D01*
X95249904Y-40747904D01*
X95745142Y-40747904D01*
X96049904Y-40024095D02*
X96088000Y-39986000D01*
X96164190Y-39947904D01*
X96354666Y-39947904D01*
X96430857Y-39986000D01*
X96468952Y-40024095D01*
X96507047Y-40100285D01*
X96507047Y-40176476D01*
X96468952Y-40290761D01*
X96011809Y-40747904D01*
X96507047Y-40747904D01*
X92926095Y-42526000D02*
X92849904Y-42487904D01*
X92735619Y-42487904D01*
X92621333Y-42526000D01*
X92545142Y-42602190D01*
X92507047Y-42678380D01*
X92468952Y-42830761D01*
X92468952Y-42945047D01*
X92507047Y-43097428D01*
X92545142Y-43173619D01*
X92621333Y-43249809D01*
X92735619Y-43287904D01*
X92811809Y-43287904D01*
X92926095Y-43249809D01*
X92964190Y-43211714D01*
X92964190Y-42945047D01*
X92811809Y-42945047D01*
X93307047Y-43287904D02*
X93307047Y-42487904D01*
X93611809Y-42487904D01*
X93688000Y-42526000D01*
X93726095Y-42564095D01*
X93764190Y-42640285D01*
X93764190Y-42754571D01*
X93726095Y-42830761D01*
X93688000Y-42868857D01*
X93611809Y-42906952D01*
X93307047Y-42906952D01*
X94107047Y-43287904D02*
X94107047Y-42487904D01*
X94640380Y-42487904D02*
X94792761Y-42487904D01*
X94868952Y-42526000D01*
X94945142Y-42602190D01*
X94983238Y-42754571D01*
X94983238Y-43021238D01*
X94945142Y-43173619D01*
X94868952Y-43249809D01*
X94792761Y-43287904D01*
X94640380Y-43287904D01*
X94564190Y-43249809D01*
X94488000Y-43173619D01*
X94449904Y-43021238D01*
X94449904Y-42754571D01*
X94488000Y-42602190D01*
X94564190Y-42526000D01*
X94640380Y-42487904D01*
X95745142Y-43287904D02*
X95288000Y-43287904D01*
X95516571Y-43287904D02*
X95516571Y-42487904D01*
X95440380Y-42602190D01*
X95364190Y-42678380D01*
X95288000Y-42716476D01*
X96126095Y-43287904D02*
X96278476Y-43287904D01*
X96354666Y-43249809D01*
X96392761Y-43211714D01*
X96468952Y-43097428D01*
X96507047Y-42945047D01*
X96507047Y-42640285D01*
X96468952Y-42564095D01*
X96430857Y-42526000D01*
X96354666Y-42487904D01*
X96202285Y-42487904D01*
X96126095Y-42526000D01*
X96088000Y-42564095D01*
X96049904Y-42640285D01*
X96049904Y-42830761D01*
X96088000Y-42906952D01*
X96126095Y-42945047D01*
X96202285Y-42983142D01*
X96354666Y-42983142D01*
X96430857Y-42945047D01*
X96468952Y-42906952D01*
X96507047Y-42830761D01*
X92926095Y-45066000D02*
X92849904Y-45027904D01*
X92735619Y-45027904D01*
X92621333Y-45066000D01*
X92545142Y-45142190D01*
X92507047Y-45218380D01*
X92468952Y-45370761D01*
X92468952Y-45485047D01*
X92507047Y-45637428D01*
X92545142Y-45713619D01*
X92621333Y-45789809D01*
X92735619Y-45827904D01*
X92811809Y-45827904D01*
X92926095Y-45789809D01*
X92964190Y-45751714D01*
X92964190Y-45485047D01*
X92811809Y-45485047D01*
X93307047Y-45827904D02*
X93307047Y-45027904D01*
X93611809Y-45027904D01*
X93688000Y-45066000D01*
X93726095Y-45104095D01*
X93764190Y-45180285D01*
X93764190Y-45294571D01*
X93726095Y-45370761D01*
X93688000Y-45408857D01*
X93611809Y-45446952D01*
X93307047Y-45446952D01*
X94107047Y-45827904D02*
X94107047Y-45027904D01*
X94640380Y-45027904D02*
X94792761Y-45027904D01*
X94868952Y-45066000D01*
X94945142Y-45142190D01*
X94983238Y-45294571D01*
X94983238Y-45561238D01*
X94945142Y-45713619D01*
X94868952Y-45789809D01*
X94792761Y-45827904D01*
X94640380Y-45827904D01*
X94564190Y-45789809D01*
X94488000Y-45713619D01*
X94449904Y-45561238D01*
X94449904Y-45294571D01*
X94488000Y-45142190D01*
X94564190Y-45066000D01*
X94640380Y-45027904D01*
X95288000Y-45104095D02*
X95326095Y-45066000D01*
X95402285Y-45027904D01*
X95592761Y-45027904D01*
X95668952Y-45066000D01*
X95707047Y-45104095D01*
X95745142Y-45180285D01*
X95745142Y-45256476D01*
X95707047Y-45370761D01*
X95249904Y-45827904D01*
X95745142Y-45827904D01*
X96011809Y-45027904D02*
X96507047Y-45027904D01*
X96240380Y-45332666D01*
X96354666Y-45332666D01*
X96430857Y-45370761D01*
X96468952Y-45408857D01*
X96507047Y-45485047D01*
X96507047Y-45675523D01*
X96468952Y-45751714D01*
X96430857Y-45789809D01*
X96354666Y-45827904D01*
X96126095Y-45827904D01*
X96049904Y-45789809D01*
X96011809Y-45751714D01*
X92926095Y-47606000D02*
X92849904Y-47567904D01*
X92735619Y-47567904D01*
X92621333Y-47606000D01*
X92545142Y-47682190D01*
X92507047Y-47758380D01*
X92468952Y-47910761D01*
X92468952Y-48025047D01*
X92507047Y-48177428D01*
X92545142Y-48253619D01*
X92621333Y-48329809D01*
X92735619Y-48367904D01*
X92811809Y-48367904D01*
X92926095Y-48329809D01*
X92964190Y-48291714D01*
X92964190Y-48025047D01*
X92811809Y-48025047D01*
X93307047Y-48367904D02*
X93307047Y-47567904D01*
X93611809Y-47567904D01*
X93688000Y-47606000D01*
X93726095Y-47644095D01*
X93764190Y-47720285D01*
X93764190Y-47834571D01*
X93726095Y-47910761D01*
X93688000Y-47948857D01*
X93611809Y-47986952D01*
X93307047Y-47986952D01*
X94107047Y-48367904D02*
X94107047Y-47567904D01*
X94640380Y-47567904D02*
X94792761Y-47567904D01*
X94868952Y-47606000D01*
X94945142Y-47682190D01*
X94983238Y-47834571D01*
X94983238Y-48101238D01*
X94945142Y-48253619D01*
X94868952Y-48329809D01*
X94792761Y-48367904D01*
X94640380Y-48367904D01*
X94564190Y-48329809D01*
X94488000Y-48253619D01*
X94449904Y-48101238D01*
X94449904Y-47834571D01*
X94488000Y-47682190D01*
X94564190Y-47606000D01*
X94640380Y-47567904D01*
X95745142Y-48367904D02*
X95288000Y-48367904D01*
X95516571Y-48367904D02*
X95516571Y-47567904D01*
X95440380Y-47682190D01*
X95364190Y-47758380D01*
X95288000Y-47796476D01*
X96202285Y-47910761D02*
X96126095Y-47872666D01*
X96088000Y-47834571D01*
X96049904Y-47758380D01*
X96049904Y-47720285D01*
X96088000Y-47644095D01*
X96126095Y-47606000D01*
X96202285Y-47567904D01*
X96354666Y-47567904D01*
X96430857Y-47606000D01*
X96468952Y-47644095D01*
X96507047Y-47720285D01*
X96507047Y-47758380D01*
X96468952Y-47834571D01*
X96430857Y-47872666D01*
X96354666Y-47910761D01*
X96202285Y-47910761D01*
X96126095Y-47948857D01*
X96088000Y-47986952D01*
X96049904Y-48063142D01*
X96049904Y-48215523D01*
X96088000Y-48291714D01*
X96126095Y-48329809D01*
X96202285Y-48367904D01*
X96354666Y-48367904D01*
X96430857Y-48329809D01*
X96468952Y-48291714D01*
X96507047Y-48215523D01*
X96507047Y-48063142D01*
X96468952Y-47986952D01*
X96430857Y-47948857D01*
X96354666Y-47910761D01*
X92926047Y-50146000D02*
X92849857Y-50107904D01*
X92735571Y-50107904D01*
X92621285Y-50146000D01*
X92545095Y-50222190D01*
X92507000Y-50298380D01*
X92468904Y-50450761D01*
X92468904Y-50565047D01*
X92507000Y-50717428D01*
X92545095Y-50793619D01*
X92621285Y-50869809D01*
X92735571Y-50907904D01*
X92811761Y-50907904D01*
X92926047Y-50869809D01*
X92964142Y-50831714D01*
X92964142Y-50565047D01*
X92811761Y-50565047D01*
X93307000Y-50907904D02*
X93307000Y-50107904D01*
X93611761Y-50107904D01*
X93687952Y-50146000D01*
X93726047Y-50184095D01*
X93764142Y-50260285D01*
X93764142Y-50374571D01*
X93726047Y-50450761D01*
X93687952Y-50488857D01*
X93611761Y-50526952D01*
X93307000Y-50526952D01*
X94107000Y-50907904D02*
X94107000Y-50107904D01*
X94640333Y-50107904D02*
X94792714Y-50107904D01*
X94868904Y-50146000D01*
X94945095Y-50222190D01*
X94983190Y-50374571D01*
X94983190Y-50641238D01*
X94945095Y-50793619D01*
X94868904Y-50869809D01*
X94792714Y-50907904D01*
X94640333Y-50907904D01*
X94564142Y-50869809D01*
X94487952Y-50793619D01*
X94449857Y-50641238D01*
X94449857Y-50374571D01*
X94487952Y-50222190D01*
X94564142Y-50146000D01*
X94640333Y-50107904D01*
X95707000Y-50107904D02*
X95326047Y-50107904D01*
X95287952Y-50488857D01*
X95326047Y-50450761D01*
X95402238Y-50412666D01*
X95592714Y-50412666D01*
X95668904Y-50450761D01*
X95707000Y-50488857D01*
X95745095Y-50565047D01*
X95745095Y-50755523D01*
X95707000Y-50831714D01*
X95668904Y-50869809D01*
X95592714Y-50907904D01*
X95402238Y-50907904D01*
X95326047Y-50869809D01*
X95287952Y-50831714D01*
X92926095Y-52686000D02*
X92849904Y-52647904D01*
X92735619Y-52647904D01*
X92621333Y-52686000D01*
X92545142Y-52762190D01*
X92507047Y-52838380D01*
X92468952Y-52990761D01*
X92468952Y-53105047D01*
X92507047Y-53257428D01*
X92545142Y-53333619D01*
X92621333Y-53409809D01*
X92735619Y-53447904D01*
X92811809Y-53447904D01*
X92926095Y-53409809D01*
X92964190Y-53371714D01*
X92964190Y-53105047D01*
X92811809Y-53105047D01*
X93307047Y-53447904D02*
X93307047Y-52647904D01*
X93611809Y-52647904D01*
X93688000Y-52686000D01*
X93726095Y-52724095D01*
X93764190Y-52800285D01*
X93764190Y-52914571D01*
X93726095Y-52990761D01*
X93688000Y-53028857D01*
X93611809Y-53066952D01*
X93307047Y-53066952D01*
X94107047Y-53447904D02*
X94107047Y-52647904D01*
X94640380Y-52647904D02*
X94792761Y-52647904D01*
X94868952Y-52686000D01*
X94945142Y-52762190D01*
X94983238Y-52914571D01*
X94983238Y-53181238D01*
X94945142Y-53333619D01*
X94868952Y-53409809D01*
X94792761Y-53447904D01*
X94640380Y-53447904D01*
X94564190Y-53409809D01*
X94488000Y-53333619D01*
X94449904Y-53181238D01*
X94449904Y-52914571D01*
X94488000Y-52762190D01*
X94564190Y-52686000D01*
X94640380Y-52647904D01*
X95745142Y-53447904D02*
X95288000Y-53447904D01*
X95516571Y-53447904D02*
X95516571Y-52647904D01*
X95440380Y-52762190D01*
X95364190Y-52838380D01*
X95288000Y-52876476D01*
X96468952Y-52647904D02*
X96088000Y-52647904D01*
X96049904Y-53028857D01*
X96088000Y-52990761D01*
X96164190Y-52952666D01*
X96354666Y-52952666D01*
X96430857Y-52990761D01*
X96468952Y-53028857D01*
X96507047Y-53105047D01*
X96507047Y-53295523D01*
X96468952Y-53371714D01*
X96430857Y-53409809D01*
X96354666Y-53447904D01*
X96164190Y-53447904D01*
X96088000Y-53409809D01*
X96049904Y-53371714D01*
X92926047Y-55226000D02*
X92849857Y-55187904D01*
X92735571Y-55187904D01*
X92621285Y-55226000D01*
X92545095Y-55302190D01*
X92507000Y-55378380D01*
X92468904Y-55530761D01*
X92468904Y-55645047D01*
X92507000Y-55797428D01*
X92545095Y-55873619D01*
X92621285Y-55949809D01*
X92735571Y-55987904D01*
X92811761Y-55987904D01*
X92926047Y-55949809D01*
X92964142Y-55911714D01*
X92964142Y-55645047D01*
X92811761Y-55645047D01*
X93307000Y-55987904D02*
X93307000Y-55187904D01*
X93611761Y-55187904D01*
X93687952Y-55226000D01*
X93726047Y-55264095D01*
X93764142Y-55340285D01*
X93764142Y-55454571D01*
X93726047Y-55530761D01*
X93687952Y-55568857D01*
X93611761Y-55606952D01*
X93307000Y-55606952D01*
X94107000Y-55987904D02*
X94107000Y-55187904D01*
X94640333Y-55187904D02*
X94792714Y-55187904D01*
X94868904Y-55226000D01*
X94945095Y-55302190D01*
X94983190Y-55454571D01*
X94983190Y-55721238D01*
X94945095Y-55873619D01*
X94868904Y-55949809D01*
X94792714Y-55987904D01*
X94640333Y-55987904D01*
X94564142Y-55949809D01*
X94487952Y-55873619D01*
X94449857Y-55721238D01*
X94449857Y-55454571D01*
X94487952Y-55302190D01*
X94564142Y-55226000D01*
X94640333Y-55187904D01*
X95287952Y-55264095D02*
X95326047Y-55226000D01*
X95402238Y-55187904D01*
X95592714Y-55187904D01*
X95668904Y-55226000D01*
X95707000Y-55264095D01*
X95745095Y-55340285D01*
X95745095Y-55416476D01*
X95707000Y-55530761D01*
X95249857Y-55987904D01*
X95745095Y-55987904D01*
X92926047Y-57893000D02*
X92849857Y-57854904D01*
X92735571Y-57854904D01*
X92621285Y-57893000D01*
X92545095Y-57969190D01*
X92507000Y-58045380D01*
X92468904Y-58197761D01*
X92468904Y-58312047D01*
X92507000Y-58464428D01*
X92545095Y-58540619D01*
X92621285Y-58616809D01*
X92735571Y-58654904D01*
X92811761Y-58654904D01*
X92926047Y-58616809D01*
X92964142Y-58578714D01*
X92964142Y-58312047D01*
X92811761Y-58312047D01*
X93307000Y-58654904D02*
X93307000Y-57854904D01*
X93611761Y-57854904D01*
X93687952Y-57893000D01*
X93726047Y-57931095D01*
X93764142Y-58007285D01*
X93764142Y-58121571D01*
X93726047Y-58197761D01*
X93687952Y-58235857D01*
X93611761Y-58273952D01*
X93307000Y-58273952D01*
X94107000Y-58654904D02*
X94107000Y-57854904D01*
X94640333Y-57854904D02*
X94792714Y-57854904D01*
X94868904Y-57893000D01*
X94945095Y-57969190D01*
X94983190Y-58121571D01*
X94983190Y-58388238D01*
X94945095Y-58540619D01*
X94868904Y-58616809D01*
X94792714Y-58654904D01*
X94640333Y-58654904D01*
X94564142Y-58616809D01*
X94487952Y-58540619D01*
X94449857Y-58388238D01*
X94449857Y-58121571D01*
X94487952Y-57969190D01*
X94564142Y-57893000D01*
X94640333Y-57854904D01*
X95668904Y-58121571D02*
X95668904Y-58654904D01*
X95478428Y-57816809D02*
X95287952Y-58388238D01*
X95783190Y-58388238D01*
X92926095Y-60306000D02*
X92849904Y-60267904D01*
X92735619Y-60267904D01*
X92621333Y-60306000D01*
X92545142Y-60382190D01*
X92507047Y-60458380D01*
X92468952Y-60610761D01*
X92468952Y-60725047D01*
X92507047Y-60877428D01*
X92545142Y-60953619D01*
X92621333Y-61029809D01*
X92735619Y-61067904D01*
X92811809Y-61067904D01*
X92926095Y-61029809D01*
X92964190Y-60991714D01*
X92964190Y-60725047D01*
X92811809Y-60725047D01*
X93307047Y-61067904D02*
X93307047Y-60267904D01*
X93611809Y-60267904D01*
X93688000Y-60306000D01*
X93726095Y-60344095D01*
X93764190Y-60420285D01*
X93764190Y-60534571D01*
X93726095Y-60610761D01*
X93688000Y-60648857D01*
X93611809Y-60686952D01*
X93307047Y-60686952D01*
X94107047Y-61067904D02*
X94107047Y-60267904D01*
X94640380Y-60267904D02*
X94792761Y-60267904D01*
X94868952Y-60306000D01*
X94945142Y-60382190D01*
X94983238Y-60534571D01*
X94983238Y-60801238D01*
X94945142Y-60953619D01*
X94868952Y-61029809D01*
X94792761Y-61067904D01*
X94640380Y-61067904D01*
X94564190Y-61029809D01*
X94488000Y-60953619D01*
X94449904Y-60801238D01*
X94449904Y-60534571D01*
X94488000Y-60382190D01*
X94564190Y-60306000D01*
X94640380Y-60267904D01*
X95745142Y-61067904D02*
X95288000Y-61067904D01*
X95516571Y-61067904D02*
X95516571Y-60267904D01*
X95440380Y-60382190D01*
X95364190Y-60458380D01*
X95288000Y-60496476D01*
X96011809Y-60267904D02*
X96545142Y-60267904D01*
X96202285Y-61067904D01*
X92926095Y-62846000D02*
X92849904Y-62807904D01*
X92735619Y-62807904D01*
X92621333Y-62846000D01*
X92545142Y-62922190D01*
X92507047Y-62998380D01*
X92468952Y-63150761D01*
X92468952Y-63265047D01*
X92507047Y-63417428D01*
X92545142Y-63493619D01*
X92621333Y-63569809D01*
X92735619Y-63607904D01*
X92811809Y-63607904D01*
X92926095Y-63569809D01*
X92964190Y-63531714D01*
X92964190Y-63265047D01*
X92811809Y-63265047D01*
X93307047Y-63607904D02*
X93307047Y-62807904D01*
X93611809Y-62807904D01*
X93688000Y-62846000D01*
X93726095Y-62884095D01*
X93764190Y-62960285D01*
X93764190Y-63074571D01*
X93726095Y-63150761D01*
X93688000Y-63188857D01*
X93611809Y-63226952D01*
X93307047Y-63226952D01*
X94107047Y-63607904D02*
X94107047Y-62807904D01*
X94640380Y-62807904D02*
X94792761Y-62807904D01*
X94868952Y-62846000D01*
X94945142Y-62922190D01*
X94983238Y-63074571D01*
X94983238Y-63341238D01*
X94945142Y-63493619D01*
X94868952Y-63569809D01*
X94792761Y-63607904D01*
X94640380Y-63607904D01*
X94564190Y-63569809D01*
X94488000Y-63493619D01*
X94449904Y-63341238D01*
X94449904Y-63074571D01*
X94488000Y-62922190D01*
X94564190Y-62846000D01*
X94640380Y-62807904D01*
X95745142Y-63607904D02*
X95288000Y-63607904D01*
X95516571Y-63607904D02*
X95516571Y-62807904D01*
X95440380Y-62922190D01*
X95364190Y-62998380D01*
X95288000Y-63036476D01*
X96430857Y-62807904D02*
X96278476Y-62807904D01*
X96202285Y-62846000D01*
X96164190Y-62884095D01*
X96088000Y-62998380D01*
X96049904Y-63150761D01*
X96049904Y-63455523D01*
X96088000Y-63531714D01*
X96126095Y-63569809D01*
X96202285Y-63607904D01*
X96354666Y-63607904D01*
X96430857Y-63569809D01*
X96468952Y-63531714D01*
X96507047Y-63455523D01*
X96507047Y-63265047D01*
X96468952Y-63188857D01*
X96430857Y-63150761D01*
X96354666Y-63112666D01*
X96202285Y-63112666D01*
X96126095Y-63150761D01*
X96088000Y-63188857D01*
X96049904Y-63265047D01*
X109880476Y-19793000D02*
X109804285Y-19754904D01*
X109690000Y-19754904D01*
X109575714Y-19793000D01*
X109499523Y-19869190D01*
X109461428Y-19945380D01*
X109423333Y-20097761D01*
X109423333Y-20212047D01*
X109461428Y-20364428D01*
X109499523Y-20440619D01*
X109575714Y-20516809D01*
X109690000Y-20554904D01*
X109766190Y-20554904D01*
X109880476Y-20516809D01*
X109918571Y-20478714D01*
X109918571Y-20212047D01*
X109766190Y-20212047D01*
X110261428Y-20554904D02*
X110261428Y-19754904D01*
X110718571Y-20554904D01*
X110718571Y-19754904D01*
X111099523Y-20554904D02*
X111099523Y-19754904D01*
X111290000Y-19754904D01*
X111404285Y-19793000D01*
X111480476Y-19869190D01*
X111518571Y-19945380D01*
X111556666Y-20097761D01*
X111556666Y-20212047D01*
X111518571Y-20364428D01*
X111480476Y-20440619D01*
X111404285Y-20516809D01*
X111290000Y-20554904D01*
X111099523Y-20554904D01*
X109829619Y-22104404D02*
X109448666Y-22104404D01*
X109410571Y-22485357D01*
X109448666Y-22447261D01*
X109524857Y-22409166D01*
X109715333Y-22409166D01*
X109791523Y-22447261D01*
X109829619Y-22485357D01*
X109867714Y-22561547D01*
X109867714Y-22752023D01*
X109829619Y-22828214D01*
X109791523Y-22866309D01*
X109715333Y-22904404D01*
X109524857Y-22904404D01*
X109448666Y-22866309D01*
X109410571Y-22828214D01*
X110096285Y-22104404D02*
X110362952Y-22904404D01*
X110629619Y-22104404D01*
X109499523Y-24644404D02*
X109994761Y-24644404D01*
X109728095Y-24949166D01*
X109842380Y-24949166D01*
X109918571Y-24987261D01*
X109956666Y-25025357D01*
X109994761Y-25101547D01*
X109994761Y-25292023D01*
X109956666Y-25368214D01*
X109918571Y-25406309D01*
X109842380Y-25444404D01*
X109613809Y-25444404D01*
X109537619Y-25406309D01*
X109499523Y-25368214D01*
X110223333Y-24644404D02*
X110490000Y-25444404D01*
X110756666Y-24644404D01*
X110947142Y-24644404D02*
X111442380Y-24644404D01*
X111175714Y-24949166D01*
X111290000Y-24949166D01*
X111366190Y-24987261D01*
X111404285Y-25025357D01*
X111442380Y-25101547D01*
X111442380Y-25292023D01*
X111404285Y-25368214D01*
X111366190Y-25406309D01*
X111290000Y-25444404D01*
X111061428Y-25444404D01*
X110985238Y-25406309D01*
X110947142Y-25368214D01*
X109944095Y-27286000D02*
X109867904Y-27247904D01*
X109753619Y-27247904D01*
X109639333Y-27286000D01*
X109563142Y-27362190D01*
X109525047Y-27438380D01*
X109486952Y-27590761D01*
X109486952Y-27705047D01*
X109525047Y-27857428D01*
X109563142Y-27933619D01*
X109639333Y-28009809D01*
X109753619Y-28047904D01*
X109829809Y-28047904D01*
X109944095Y-28009809D01*
X109982190Y-27971714D01*
X109982190Y-27705047D01*
X109829809Y-27705047D01*
X110325047Y-28047904D02*
X110325047Y-27247904D01*
X110629809Y-27247904D01*
X110706000Y-27286000D01*
X110744095Y-27324095D01*
X110782190Y-27400285D01*
X110782190Y-27514571D01*
X110744095Y-27590761D01*
X110706000Y-27628857D01*
X110629809Y-27666952D01*
X110325047Y-27666952D01*
X111125047Y-28047904D02*
X111125047Y-27247904D01*
X111658380Y-27247904D02*
X111810761Y-27247904D01*
X111886952Y-27286000D01*
X111963142Y-27362190D01*
X112001238Y-27514571D01*
X112001238Y-27781238D01*
X111963142Y-27933619D01*
X111886952Y-28009809D01*
X111810761Y-28047904D01*
X111658380Y-28047904D01*
X111582190Y-28009809D01*
X111506000Y-27933619D01*
X111467904Y-27781238D01*
X111467904Y-27514571D01*
X111506000Y-27362190D01*
X111582190Y-27286000D01*
X111658380Y-27247904D01*
X112267904Y-27247904D02*
X112763142Y-27247904D01*
X112496476Y-27552666D01*
X112610761Y-27552666D01*
X112686952Y-27590761D01*
X112725047Y-27628857D01*
X112763142Y-27705047D01*
X112763142Y-27895523D01*
X112725047Y-27971714D01*
X112686952Y-28009809D01*
X112610761Y-28047904D01*
X112382190Y-28047904D01*
X112306000Y-28009809D01*
X112267904Y-27971714D01*
X113448857Y-27247904D02*
X113296476Y-27247904D01*
X113220285Y-27286000D01*
X113182190Y-27324095D01*
X113106000Y-27438380D01*
X113067904Y-27590761D01*
X113067904Y-27895523D01*
X113106000Y-27971714D01*
X113144095Y-28009809D01*
X113220285Y-28047904D01*
X113372666Y-28047904D01*
X113448857Y-28009809D01*
X113486952Y-27971714D01*
X113525047Y-27895523D01*
X113525047Y-27705047D01*
X113486952Y-27628857D01*
X113448857Y-27590761D01*
X113372666Y-27552666D01*
X113220285Y-27552666D01*
X113144095Y-27590761D01*
X113106000Y-27628857D01*
X113067904Y-27705047D01*
X109944095Y-29826000D02*
X109867904Y-29787904D01*
X109753619Y-29787904D01*
X109639333Y-29826000D01*
X109563142Y-29902190D01*
X109525047Y-29978380D01*
X109486952Y-30130761D01*
X109486952Y-30245047D01*
X109525047Y-30397428D01*
X109563142Y-30473619D01*
X109639333Y-30549809D01*
X109753619Y-30587904D01*
X109829809Y-30587904D01*
X109944095Y-30549809D01*
X109982190Y-30511714D01*
X109982190Y-30245047D01*
X109829809Y-30245047D01*
X110325047Y-30587904D02*
X110325047Y-29787904D01*
X110629809Y-29787904D01*
X110706000Y-29826000D01*
X110744095Y-29864095D01*
X110782190Y-29940285D01*
X110782190Y-30054571D01*
X110744095Y-30130761D01*
X110706000Y-30168857D01*
X110629809Y-30206952D01*
X110325047Y-30206952D01*
X111125047Y-30587904D02*
X111125047Y-29787904D01*
X111658380Y-29787904D02*
X111810761Y-29787904D01*
X111886952Y-29826000D01*
X111963142Y-29902190D01*
X112001238Y-30054571D01*
X112001238Y-30321238D01*
X111963142Y-30473619D01*
X111886952Y-30549809D01*
X111810761Y-30587904D01*
X111658380Y-30587904D01*
X111582190Y-30549809D01*
X111506000Y-30473619D01*
X111467904Y-30321238D01*
X111467904Y-30054571D01*
X111506000Y-29902190D01*
X111582190Y-29826000D01*
X111658380Y-29787904D01*
X112267904Y-29787904D02*
X112763142Y-29787904D01*
X112496476Y-30092666D01*
X112610761Y-30092666D01*
X112686952Y-30130761D01*
X112725047Y-30168857D01*
X112763142Y-30245047D01*
X112763142Y-30435523D01*
X112725047Y-30511714D01*
X112686952Y-30549809D01*
X112610761Y-30587904D01*
X112382190Y-30587904D01*
X112306000Y-30549809D01*
X112267904Y-30511714D01*
X113029809Y-29787904D02*
X113563142Y-29787904D01*
X113220285Y-30587904D01*
X109944095Y-32366000D02*
X109867904Y-32327904D01*
X109753619Y-32327904D01*
X109639333Y-32366000D01*
X109563142Y-32442190D01*
X109525047Y-32518380D01*
X109486952Y-32670761D01*
X109486952Y-32785047D01*
X109525047Y-32937428D01*
X109563142Y-33013619D01*
X109639333Y-33089809D01*
X109753619Y-33127904D01*
X109829809Y-33127904D01*
X109944095Y-33089809D01*
X109982190Y-33051714D01*
X109982190Y-32785047D01*
X109829809Y-32785047D01*
X110325047Y-33127904D02*
X110325047Y-32327904D01*
X110629809Y-32327904D01*
X110706000Y-32366000D01*
X110744095Y-32404095D01*
X110782190Y-32480285D01*
X110782190Y-32594571D01*
X110744095Y-32670761D01*
X110706000Y-32708857D01*
X110629809Y-32746952D01*
X110325047Y-32746952D01*
X111125047Y-33127904D02*
X111125047Y-32327904D01*
X111658380Y-32327904D02*
X111810761Y-32327904D01*
X111886952Y-32366000D01*
X111963142Y-32442190D01*
X112001238Y-32594571D01*
X112001238Y-32861238D01*
X111963142Y-33013619D01*
X111886952Y-33089809D01*
X111810761Y-33127904D01*
X111658380Y-33127904D01*
X111582190Y-33089809D01*
X111506000Y-33013619D01*
X111467904Y-32861238D01*
X111467904Y-32594571D01*
X111506000Y-32442190D01*
X111582190Y-32366000D01*
X111658380Y-32327904D01*
X112267904Y-32327904D02*
X112763142Y-32327904D01*
X112496476Y-32632666D01*
X112610761Y-32632666D01*
X112686952Y-32670761D01*
X112725047Y-32708857D01*
X112763142Y-32785047D01*
X112763142Y-32975523D01*
X112725047Y-33051714D01*
X112686952Y-33089809D01*
X112610761Y-33127904D01*
X112382190Y-33127904D01*
X112306000Y-33089809D01*
X112267904Y-33051714D01*
X113220285Y-32670761D02*
X113144095Y-32632666D01*
X113106000Y-32594571D01*
X113067904Y-32518380D01*
X113067904Y-32480285D01*
X113106000Y-32404095D01*
X113144095Y-32366000D01*
X113220285Y-32327904D01*
X113372666Y-32327904D01*
X113448857Y-32366000D01*
X113486952Y-32404095D01*
X113525047Y-32480285D01*
X113525047Y-32518380D01*
X113486952Y-32594571D01*
X113448857Y-32632666D01*
X113372666Y-32670761D01*
X113220285Y-32670761D01*
X113144095Y-32708857D01*
X113106000Y-32746952D01*
X113067904Y-32823142D01*
X113067904Y-32975523D01*
X113106000Y-33051714D01*
X113144095Y-33089809D01*
X113220285Y-33127904D01*
X113372666Y-33127904D01*
X113448857Y-33089809D01*
X113486952Y-33051714D01*
X113525047Y-32975523D01*
X113525047Y-32823142D01*
X113486952Y-32746952D01*
X113448857Y-32708857D01*
X113372666Y-32670761D01*
X109944095Y-34906000D02*
X109867904Y-34867904D01*
X109753619Y-34867904D01*
X109639333Y-34906000D01*
X109563142Y-34982190D01*
X109525047Y-35058380D01*
X109486952Y-35210761D01*
X109486952Y-35325047D01*
X109525047Y-35477428D01*
X109563142Y-35553619D01*
X109639333Y-35629809D01*
X109753619Y-35667904D01*
X109829809Y-35667904D01*
X109944095Y-35629809D01*
X109982190Y-35591714D01*
X109982190Y-35325047D01*
X109829809Y-35325047D01*
X110325047Y-35667904D02*
X110325047Y-34867904D01*
X110629809Y-34867904D01*
X110706000Y-34906000D01*
X110744095Y-34944095D01*
X110782190Y-35020285D01*
X110782190Y-35134571D01*
X110744095Y-35210761D01*
X110706000Y-35248857D01*
X110629809Y-35286952D01*
X110325047Y-35286952D01*
X111125047Y-35667904D02*
X111125047Y-34867904D01*
X111658380Y-34867904D02*
X111810761Y-34867904D01*
X111886952Y-34906000D01*
X111963142Y-34982190D01*
X112001238Y-35134571D01*
X112001238Y-35401238D01*
X111963142Y-35553619D01*
X111886952Y-35629809D01*
X111810761Y-35667904D01*
X111658380Y-35667904D01*
X111582190Y-35629809D01*
X111506000Y-35553619D01*
X111467904Y-35401238D01*
X111467904Y-35134571D01*
X111506000Y-34982190D01*
X111582190Y-34906000D01*
X111658380Y-34867904D01*
X112267904Y-34867904D02*
X112763142Y-34867904D01*
X112496476Y-35172666D01*
X112610761Y-35172666D01*
X112686952Y-35210761D01*
X112725047Y-35248857D01*
X112763142Y-35325047D01*
X112763142Y-35515523D01*
X112725047Y-35591714D01*
X112686952Y-35629809D01*
X112610761Y-35667904D01*
X112382190Y-35667904D01*
X112306000Y-35629809D01*
X112267904Y-35591714D01*
X113144095Y-35667904D02*
X113296476Y-35667904D01*
X113372666Y-35629809D01*
X113410761Y-35591714D01*
X113486952Y-35477428D01*
X113525047Y-35325047D01*
X113525047Y-35020285D01*
X113486952Y-34944095D01*
X113448857Y-34906000D01*
X113372666Y-34867904D01*
X113220285Y-34867904D01*
X113144095Y-34906000D01*
X113106000Y-34944095D01*
X113067904Y-35020285D01*
X113067904Y-35210761D01*
X113106000Y-35286952D01*
X113144095Y-35325047D01*
X113220285Y-35363142D01*
X113372666Y-35363142D01*
X113448857Y-35325047D01*
X113486952Y-35286952D01*
X113525047Y-35210761D01*
X109944095Y-37446000D02*
X109867904Y-37407904D01*
X109753619Y-37407904D01*
X109639333Y-37446000D01*
X109563142Y-37522190D01*
X109525047Y-37598380D01*
X109486952Y-37750761D01*
X109486952Y-37865047D01*
X109525047Y-38017428D01*
X109563142Y-38093619D01*
X109639333Y-38169809D01*
X109753619Y-38207904D01*
X109829809Y-38207904D01*
X109944095Y-38169809D01*
X109982190Y-38131714D01*
X109982190Y-37865047D01*
X109829809Y-37865047D01*
X110325047Y-38207904D02*
X110325047Y-37407904D01*
X110629809Y-37407904D01*
X110706000Y-37446000D01*
X110744095Y-37484095D01*
X110782190Y-37560285D01*
X110782190Y-37674571D01*
X110744095Y-37750761D01*
X110706000Y-37788857D01*
X110629809Y-37826952D01*
X110325047Y-37826952D01*
X111125047Y-38207904D02*
X111125047Y-37407904D01*
X111658380Y-37407904D02*
X111810761Y-37407904D01*
X111886952Y-37446000D01*
X111963142Y-37522190D01*
X112001238Y-37674571D01*
X112001238Y-37941238D01*
X111963142Y-38093619D01*
X111886952Y-38169809D01*
X111810761Y-38207904D01*
X111658380Y-38207904D01*
X111582190Y-38169809D01*
X111506000Y-38093619D01*
X111467904Y-37941238D01*
X111467904Y-37674571D01*
X111506000Y-37522190D01*
X111582190Y-37446000D01*
X111658380Y-37407904D01*
X112267904Y-37407904D02*
X112763142Y-37407904D01*
X112496476Y-37712666D01*
X112610761Y-37712666D01*
X112686952Y-37750761D01*
X112725047Y-37788857D01*
X112763142Y-37865047D01*
X112763142Y-38055523D01*
X112725047Y-38131714D01*
X112686952Y-38169809D01*
X112610761Y-38207904D01*
X112382190Y-38207904D01*
X112306000Y-38169809D01*
X112267904Y-38131714D01*
X113448857Y-37674571D02*
X113448857Y-38207904D01*
X113258380Y-37369809D02*
X113067904Y-37941238D01*
X113563142Y-37941238D01*
X109944095Y-39986000D02*
X109867904Y-39947904D01*
X109753619Y-39947904D01*
X109639333Y-39986000D01*
X109563142Y-40062190D01*
X109525047Y-40138380D01*
X109486952Y-40290761D01*
X109486952Y-40405047D01*
X109525047Y-40557428D01*
X109563142Y-40633619D01*
X109639333Y-40709809D01*
X109753619Y-40747904D01*
X109829809Y-40747904D01*
X109944095Y-40709809D01*
X109982190Y-40671714D01*
X109982190Y-40405047D01*
X109829809Y-40405047D01*
X110325047Y-40747904D02*
X110325047Y-39947904D01*
X110629809Y-39947904D01*
X110706000Y-39986000D01*
X110744095Y-40024095D01*
X110782190Y-40100285D01*
X110782190Y-40214571D01*
X110744095Y-40290761D01*
X110706000Y-40328857D01*
X110629809Y-40366952D01*
X110325047Y-40366952D01*
X111125047Y-40747904D02*
X111125047Y-39947904D01*
X111658380Y-39947904D02*
X111810761Y-39947904D01*
X111886952Y-39986000D01*
X111963142Y-40062190D01*
X112001238Y-40214571D01*
X112001238Y-40481238D01*
X111963142Y-40633619D01*
X111886952Y-40709809D01*
X111810761Y-40747904D01*
X111658380Y-40747904D01*
X111582190Y-40709809D01*
X111506000Y-40633619D01*
X111467904Y-40481238D01*
X111467904Y-40214571D01*
X111506000Y-40062190D01*
X111582190Y-39986000D01*
X111658380Y-39947904D01*
X112267904Y-39947904D02*
X112763142Y-39947904D01*
X112496476Y-40252666D01*
X112610761Y-40252666D01*
X112686952Y-40290761D01*
X112725047Y-40328857D01*
X112763142Y-40405047D01*
X112763142Y-40595523D01*
X112725047Y-40671714D01*
X112686952Y-40709809D01*
X112610761Y-40747904D01*
X112382190Y-40747904D01*
X112306000Y-40709809D01*
X112267904Y-40671714D01*
X113486952Y-39947904D02*
X113106000Y-39947904D01*
X113067904Y-40328857D01*
X113106000Y-40290761D01*
X113182190Y-40252666D01*
X113372666Y-40252666D01*
X113448857Y-40290761D01*
X113486952Y-40328857D01*
X113525047Y-40405047D01*
X113525047Y-40595523D01*
X113486952Y-40671714D01*
X113448857Y-40709809D01*
X113372666Y-40747904D01*
X113182190Y-40747904D01*
X113106000Y-40709809D01*
X113067904Y-40671714D01*
X109944095Y-42526000D02*
X109867904Y-42487904D01*
X109753619Y-42487904D01*
X109639333Y-42526000D01*
X109563142Y-42602190D01*
X109525047Y-42678380D01*
X109486952Y-42830761D01*
X109486952Y-42945047D01*
X109525047Y-43097428D01*
X109563142Y-43173619D01*
X109639333Y-43249809D01*
X109753619Y-43287904D01*
X109829809Y-43287904D01*
X109944095Y-43249809D01*
X109982190Y-43211714D01*
X109982190Y-42945047D01*
X109829809Y-42945047D01*
X110325047Y-43287904D02*
X110325047Y-42487904D01*
X110629809Y-42487904D01*
X110706000Y-42526000D01*
X110744095Y-42564095D01*
X110782190Y-42640285D01*
X110782190Y-42754571D01*
X110744095Y-42830761D01*
X110706000Y-42868857D01*
X110629809Y-42906952D01*
X110325047Y-42906952D01*
X111125047Y-43287904D02*
X111125047Y-42487904D01*
X111658380Y-42487904D02*
X111810761Y-42487904D01*
X111886952Y-42526000D01*
X111963142Y-42602190D01*
X112001238Y-42754571D01*
X112001238Y-43021238D01*
X111963142Y-43173619D01*
X111886952Y-43249809D01*
X111810761Y-43287904D01*
X111658380Y-43287904D01*
X111582190Y-43249809D01*
X111506000Y-43173619D01*
X111467904Y-43021238D01*
X111467904Y-42754571D01*
X111506000Y-42602190D01*
X111582190Y-42526000D01*
X111658380Y-42487904D01*
X112267904Y-42487904D02*
X112763142Y-42487904D01*
X112496476Y-42792666D01*
X112610761Y-42792666D01*
X112686952Y-42830761D01*
X112725047Y-42868857D01*
X112763142Y-42945047D01*
X112763142Y-43135523D01*
X112725047Y-43211714D01*
X112686952Y-43249809D01*
X112610761Y-43287904D01*
X112382190Y-43287904D01*
X112306000Y-43249809D01*
X112267904Y-43211714D01*
X113067904Y-42564095D02*
X113106000Y-42526000D01*
X113182190Y-42487904D01*
X113372666Y-42487904D01*
X113448857Y-42526000D01*
X113486952Y-42564095D01*
X113525047Y-42640285D01*
X113525047Y-42716476D01*
X113486952Y-42830761D01*
X113029809Y-43287904D01*
X113525047Y-43287904D01*
X109944095Y-45066000D02*
X109867904Y-45027904D01*
X109753619Y-45027904D01*
X109639333Y-45066000D01*
X109563142Y-45142190D01*
X109525047Y-45218380D01*
X109486952Y-45370761D01*
X109486952Y-45485047D01*
X109525047Y-45637428D01*
X109563142Y-45713619D01*
X109639333Y-45789809D01*
X109753619Y-45827904D01*
X109829809Y-45827904D01*
X109944095Y-45789809D01*
X109982190Y-45751714D01*
X109982190Y-45485047D01*
X109829809Y-45485047D01*
X110325047Y-45827904D02*
X110325047Y-45027904D01*
X110629809Y-45027904D01*
X110706000Y-45066000D01*
X110744095Y-45104095D01*
X110782190Y-45180285D01*
X110782190Y-45294571D01*
X110744095Y-45370761D01*
X110706000Y-45408857D01*
X110629809Y-45446952D01*
X110325047Y-45446952D01*
X111125047Y-45827904D02*
X111125047Y-45027904D01*
X111658380Y-45027904D02*
X111810761Y-45027904D01*
X111886952Y-45066000D01*
X111963142Y-45142190D01*
X112001238Y-45294571D01*
X112001238Y-45561238D01*
X111963142Y-45713619D01*
X111886952Y-45789809D01*
X111810761Y-45827904D01*
X111658380Y-45827904D01*
X111582190Y-45789809D01*
X111506000Y-45713619D01*
X111467904Y-45561238D01*
X111467904Y-45294571D01*
X111506000Y-45142190D01*
X111582190Y-45066000D01*
X111658380Y-45027904D01*
X112267904Y-45027904D02*
X112763142Y-45027904D01*
X112496476Y-45332666D01*
X112610761Y-45332666D01*
X112686952Y-45370761D01*
X112725047Y-45408857D01*
X112763142Y-45485047D01*
X112763142Y-45675523D01*
X112725047Y-45751714D01*
X112686952Y-45789809D01*
X112610761Y-45827904D01*
X112382190Y-45827904D01*
X112306000Y-45789809D01*
X112267904Y-45751714D01*
X113029809Y-45027904D02*
X113525047Y-45027904D01*
X113258380Y-45332666D01*
X113372666Y-45332666D01*
X113448857Y-45370761D01*
X113486952Y-45408857D01*
X113525047Y-45485047D01*
X113525047Y-45675523D01*
X113486952Y-45751714D01*
X113448857Y-45789809D01*
X113372666Y-45827904D01*
X113144095Y-45827904D01*
X113067904Y-45789809D01*
X113029809Y-45751714D01*
X109944095Y-47606000D02*
X109867904Y-47567904D01*
X109753619Y-47567904D01*
X109639333Y-47606000D01*
X109563142Y-47682190D01*
X109525047Y-47758380D01*
X109486952Y-47910761D01*
X109486952Y-48025047D01*
X109525047Y-48177428D01*
X109563142Y-48253619D01*
X109639333Y-48329809D01*
X109753619Y-48367904D01*
X109829809Y-48367904D01*
X109944095Y-48329809D01*
X109982190Y-48291714D01*
X109982190Y-48025047D01*
X109829809Y-48025047D01*
X110325047Y-48367904D02*
X110325047Y-47567904D01*
X110629809Y-47567904D01*
X110706000Y-47606000D01*
X110744095Y-47644095D01*
X110782190Y-47720285D01*
X110782190Y-47834571D01*
X110744095Y-47910761D01*
X110706000Y-47948857D01*
X110629809Y-47986952D01*
X110325047Y-47986952D01*
X111125047Y-48367904D02*
X111125047Y-47567904D01*
X111658380Y-47567904D02*
X111810761Y-47567904D01*
X111886952Y-47606000D01*
X111963142Y-47682190D01*
X112001238Y-47834571D01*
X112001238Y-48101238D01*
X111963142Y-48253619D01*
X111886952Y-48329809D01*
X111810761Y-48367904D01*
X111658380Y-48367904D01*
X111582190Y-48329809D01*
X111506000Y-48253619D01*
X111467904Y-48101238D01*
X111467904Y-47834571D01*
X111506000Y-47682190D01*
X111582190Y-47606000D01*
X111658380Y-47567904D01*
X112306000Y-47644095D02*
X112344095Y-47606000D01*
X112420285Y-47567904D01*
X112610761Y-47567904D01*
X112686952Y-47606000D01*
X112725047Y-47644095D01*
X112763142Y-47720285D01*
X112763142Y-47796476D01*
X112725047Y-47910761D01*
X112267904Y-48367904D01*
X112763142Y-48367904D01*
X113486952Y-47567904D02*
X113106000Y-47567904D01*
X113067904Y-47948857D01*
X113106000Y-47910761D01*
X113182190Y-47872666D01*
X113372666Y-47872666D01*
X113448857Y-47910761D01*
X113486952Y-47948857D01*
X113525047Y-48025047D01*
X113525047Y-48215523D01*
X113486952Y-48291714D01*
X113448857Y-48329809D01*
X113372666Y-48367904D01*
X113182190Y-48367904D01*
X113106000Y-48329809D01*
X113067904Y-48291714D01*
X109944095Y-50146000D02*
X109867904Y-50107904D01*
X109753619Y-50107904D01*
X109639333Y-50146000D01*
X109563142Y-50222190D01*
X109525047Y-50298380D01*
X109486952Y-50450761D01*
X109486952Y-50565047D01*
X109525047Y-50717428D01*
X109563142Y-50793619D01*
X109639333Y-50869809D01*
X109753619Y-50907904D01*
X109829809Y-50907904D01*
X109944095Y-50869809D01*
X109982190Y-50831714D01*
X109982190Y-50565047D01*
X109829809Y-50565047D01*
X110325047Y-50907904D02*
X110325047Y-50107904D01*
X110629809Y-50107904D01*
X110706000Y-50146000D01*
X110744095Y-50184095D01*
X110782190Y-50260285D01*
X110782190Y-50374571D01*
X110744095Y-50450761D01*
X110706000Y-50488857D01*
X110629809Y-50526952D01*
X110325047Y-50526952D01*
X111125047Y-50907904D02*
X111125047Y-50107904D01*
X111658380Y-50107904D02*
X111810761Y-50107904D01*
X111886952Y-50146000D01*
X111963142Y-50222190D01*
X112001238Y-50374571D01*
X112001238Y-50641238D01*
X111963142Y-50793619D01*
X111886952Y-50869809D01*
X111810761Y-50907904D01*
X111658380Y-50907904D01*
X111582190Y-50869809D01*
X111506000Y-50793619D01*
X111467904Y-50641238D01*
X111467904Y-50374571D01*
X111506000Y-50222190D01*
X111582190Y-50146000D01*
X111658380Y-50107904D01*
X112306000Y-50184095D02*
X112344095Y-50146000D01*
X112420285Y-50107904D01*
X112610761Y-50107904D01*
X112686952Y-50146000D01*
X112725047Y-50184095D01*
X112763142Y-50260285D01*
X112763142Y-50336476D01*
X112725047Y-50450761D01*
X112267904Y-50907904D01*
X112763142Y-50907904D01*
X113448857Y-50107904D02*
X113296476Y-50107904D01*
X113220285Y-50146000D01*
X113182190Y-50184095D01*
X113106000Y-50298380D01*
X113067904Y-50450761D01*
X113067904Y-50755523D01*
X113106000Y-50831714D01*
X113144095Y-50869809D01*
X113220285Y-50907904D01*
X113372666Y-50907904D01*
X113448857Y-50869809D01*
X113486952Y-50831714D01*
X113525047Y-50755523D01*
X113525047Y-50565047D01*
X113486952Y-50488857D01*
X113448857Y-50450761D01*
X113372666Y-50412666D01*
X113220285Y-50412666D01*
X113144095Y-50450761D01*
X113106000Y-50488857D01*
X113067904Y-50565047D01*
X109944095Y-52686000D02*
X109867904Y-52647904D01*
X109753619Y-52647904D01*
X109639333Y-52686000D01*
X109563142Y-52762190D01*
X109525047Y-52838380D01*
X109486952Y-52990761D01*
X109486952Y-53105047D01*
X109525047Y-53257428D01*
X109563142Y-53333619D01*
X109639333Y-53409809D01*
X109753619Y-53447904D01*
X109829809Y-53447904D01*
X109944095Y-53409809D01*
X109982190Y-53371714D01*
X109982190Y-53105047D01*
X109829809Y-53105047D01*
X110325047Y-53447904D02*
X110325047Y-52647904D01*
X110629809Y-52647904D01*
X110706000Y-52686000D01*
X110744095Y-52724095D01*
X110782190Y-52800285D01*
X110782190Y-52914571D01*
X110744095Y-52990761D01*
X110706000Y-53028857D01*
X110629809Y-53066952D01*
X110325047Y-53066952D01*
X111125047Y-53447904D02*
X111125047Y-52647904D01*
X111658380Y-52647904D02*
X111810761Y-52647904D01*
X111886952Y-52686000D01*
X111963142Y-52762190D01*
X112001238Y-52914571D01*
X112001238Y-53181238D01*
X111963142Y-53333619D01*
X111886952Y-53409809D01*
X111810761Y-53447904D01*
X111658380Y-53447904D01*
X111582190Y-53409809D01*
X111506000Y-53333619D01*
X111467904Y-53181238D01*
X111467904Y-52914571D01*
X111506000Y-52762190D01*
X111582190Y-52686000D01*
X111658380Y-52647904D01*
X112306000Y-52724095D02*
X112344095Y-52686000D01*
X112420285Y-52647904D01*
X112610761Y-52647904D01*
X112686952Y-52686000D01*
X112725047Y-52724095D01*
X112763142Y-52800285D01*
X112763142Y-52876476D01*
X112725047Y-52990761D01*
X112267904Y-53447904D01*
X112763142Y-53447904D01*
X113029809Y-52647904D02*
X113563142Y-52647904D01*
X113220285Y-53447904D01*
X109944095Y-55226000D02*
X109867904Y-55187904D01*
X109753619Y-55187904D01*
X109639333Y-55226000D01*
X109563142Y-55302190D01*
X109525047Y-55378380D01*
X109486952Y-55530761D01*
X109486952Y-55645047D01*
X109525047Y-55797428D01*
X109563142Y-55873619D01*
X109639333Y-55949809D01*
X109753619Y-55987904D01*
X109829809Y-55987904D01*
X109944095Y-55949809D01*
X109982190Y-55911714D01*
X109982190Y-55645047D01*
X109829809Y-55645047D01*
X110325047Y-55987904D02*
X110325047Y-55187904D01*
X110629809Y-55187904D01*
X110706000Y-55226000D01*
X110744095Y-55264095D01*
X110782190Y-55340285D01*
X110782190Y-55454571D01*
X110744095Y-55530761D01*
X110706000Y-55568857D01*
X110629809Y-55606952D01*
X110325047Y-55606952D01*
X111125047Y-55987904D02*
X111125047Y-55187904D01*
X111658380Y-55187904D02*
X111810761Y-55187904D01*
X111886952Y-55226000D01*
X111963142Y-55302190D01*
X112001238Y-55454571D01*
X112001238Y-55721238D01*
X111963142Y-55873619D01*
X111886952Y-55949809D01*
X111810761Y-55987904D01*
X111658380Y-55987904D01*
X111582190Y-55949809D01*
X111506000Y-55873619D01*
X111467904Y-55721238D01*
X111467904Y-55454571D01*
X111506000Y-55302190D01*
X111582190Y-55226000D01*
X111658380Y-55187904D01*
X112763142Y-55987904D02*
X112306000Y-55987904D01*
X112534571Y-55987904D02*
X112534571Y-55187904D01*
X112458380Y-55302190D01*
X112382190Y-55378380D01*
X112306000Y-55416476D01*
X113448857Y-55454571D02*
X113448857Y-55987904D01*
X113258380Y-55149809D02*
X113067904Y-55721238D01*
X113563142Y-55721238D01*
X109944095Y-57766000D02*
X109867904Y-57727904D01*
X109753619Y-57727904D01*
X109639333Y-57766000D01*
X109563142Y-57842190D01*
X109525047Y-57918380D01*
X109486952Y-58070761D01*
X109486952Y-58185047D01*
X109525047Y-58337428D01*
X109563142Y-58413619D01*
X109639333Y-58489809D01*
X109753619Y-58527904D01*
X109829809Y-58527904D01*
X109944095Y-58489809D01*
X109982190Y-58451714D01*
X109982190Y-58185047D01*
X109829809Y-58185047D01*
X110325047Y-58527904D02*
X110325047Y-57727904D01*
X110629809Y-57727904D01*
X110706000Y-57766000D01*
X110744095Y-57804095D01*
X110782190Y-57880285D01*
X110782190Y-57994571D01*
X110744095Y-58070761D01*
X110706000Y-58108857D01*
X110629809Y-58146952D01*
X110325047Y-58146952D01*
X111125047Y-58527904D02*
X111125047Y-57727904D01*
X111658380Y-57727904D02*
X111810761Y-57727904D01*
X111886952Y-57766000D01*
X111963142Y-57842190D01*
X112001238Y-57994571D01*
X112001238Y-58261238D01*
X111963142Y-58413619D01*
X111886952Y-58489809D01*
X111810761Y-58527904D01*
X111658380Y-58527904D01*
X111582190Y-58489809D01*
X111506000Y-58413619D01*
X111467904Y-58261238D01*
X111467904Y-57994571D01*
X111506000Y-57842190D01*
X111582190Y-57766000D01*
X111658380Y-57727904D01*
X112763142Y-58527904D02*
X112306000Y-58527904D01*
X112534571Y-58527904D02*
X112534571Y-57727904D01*
X112458380Y-57842190D01*
X112382190Y-57918380D01*
X112306000Y-57956476D01*
X113067904Y-57804095D02*
X113106000Y-57766000D01*
X113182190Y-57727904D01*
X113372666Y-57727904D01*
X113448857Y-57766000D01*
X113486952Y-57804095D01*
X113525047Y-57880285D01*
X113525047Y-57956476D01*
X113486952Y-58070761D01*
X113029809Y-58527904D01*
X113525047Y-58527904D01*
X110071095Y-60306000D02*
X109994904Y-60267904D01*
X109880619Y-60267904D01*
X109766333Y-60306000D01*
X109690142Y-60382190D01*
X109652047Y-60458380D01*
X109613952Y-60610761D01*
X109613952Y-60725047D01*
X109652047Y-60877428D01*
X109690142Y-60953619D01*
X109766333Y-61029809D01*
X109880619Y-61067904D01*
X109956809Y-61067904D01*
X110071095Y-61029809D01*
X110109190Y-60991714D01*
X110109190Y-60725047D01*
X109956809Y-60725047D01*
X110452047Y-61067904D02*
X110452047Y-60267904D01*
X110756809Y-60267904D01*
X110833000Y-60306000D01*
X110871095Y-60344095D01*
X110909190Y-60420285D01*
X110909190Y-60534571D01*
X110871095Y-60610761D01*
X110833000Y-60648857D01*
X110756809Y-60686952D01*
X110452047Y-60686952D01*
X111252047Y-61067904D02*
X111252047Y-60267904D01*
X111785380Y-60267904D02*
X111937761Y-60267904D01*
X112013952Y-60306000D01*
X112090142Y-60382190D01*
X112128238Y-60534571D01*
X112128238Y-60801238D01*
X112090142Y-60953619D01*
X112013952Y-61029809D01*
X111937761Y-61067904D01*
X111785380Y-61067904D01*
X111709190Y-61029809D01*
X111633000Y-60953619D01*
X111594904Y-60801238D01*
X111594904Y-60534571D01*
X111633000Y-60382190D01*
X111709190Y-60306000D01*
X111785380Y-60267904D01*
X112890142Y-61067904D02*
X112433000Y-61067904D01*
X112661571Y-61067904D02*
X112661571Y-60267904D01*
X112585380Y-60382190D01*
X112509190Y-60458380D01*
X112433000Y-60496476D01*
X113156809Y-60267904D02*
X113652047Y-60267904D01*
X113385380Y-60572666D01*
X113499666Y-60572666D01*
X113575857Y-60610761D01*
X113613952Y-60648857D01*
X113652047Y-60725047D01*
X113652047Y-60915523D01*
X113613952Y-60991714D01*
X113575857Y-61029809D01*
X113499666Y-61067904D01*
X113271095Y-61067904D01*
X113194904Y-61029809D01*
X113156809Y-60991714D01*
X110071095Y-62846000D02*
X109994904Y-62807904D01*
X109880619Y-62807904D01*
X109766333Y-62846000D01*
X109690142Y-62922190D01*
X109652047Y-62998380D01*
X109613952Y-63150761D01*
X109613952Y-63265047D01*
X109652047Y-63417428D01*
X109690142Y-63493619D01*
X109766333Y-63569809D01*
X109880619Y-63607904D01*
X109956809Y-63607904D01*
X110071095Y-63569809D01*
X110109190Y-63531714D01*
X110109190Y-63265047D01*
X109956809Y-63265047D01*
X110452047Y-63607904D02*
X110452047Y-62807904D01*
X110756809Y-62807904D01*
X110833000Y-62846000D01*
X110871095Y-62884095D01*
X110909190Y-62960285D01*
X110909190Y-63074571D01*
X110871095Y-63150761D01*
X110833000Y-63188857D01*
X110756809Y-63226952D01*
X110452047Y-63226952D01*
X111252047Y-63607904D02*
X111252047Y-62807904D01*
X111785380Y-62807904D02*
X111937761Y-62807904D01*
X112013952Y-62846000D01*
X112090142Y-62922190D01*
X112128238Y-63074571D01*
X112128238Y-63341238D01*
X112090142Y-63493619D01*
X112013952Y-63569809D01*
X111937761Y-63607904D01*
X111785380Y-63607904D01*
X111709190Y-63569809D01*
X111633000Y-63493619D01*
X111594904Y-63341238D01*
X111594904Y-63074571D01*
X111633000Y-62922190D01*
X111709190Y-62846000D01*
X111785380Y-62807904D01*
X112433000Y-62884095D02*
X112471095Y-62846000D01*
X112547285Y-62807904D01*
X112737761Y-62807904D01*
X112813952Y-62846000D01*
X112852047Y-62884095D01*
X112890142Y-62960285D01*
X112890142Y-63036476D01*
X112852047Y-63150761D01*
X112394904Y-63607904D01*
X112890142Y-63607904D01*
X113652047Y-63607904D02*
X113194904Y-63607904D01*
X113423476Y-63607904D02*
X113423476Y-62807904D01*
X113347285Y-62922190D01*
X113271095Y-62998380D01*
X113194904Y-63036476D01*
X101525676Y-68492666D02*
X102001866Y-68492666D01*
X101430438Y-68778380D02*
X101763771Y-67778380D01*
X102097104Y-68778380D01*
X102430438Y-68111714D02*
X102430438Y-68778380D01*
X102430438Y-68206952D02*
X102478057Y-68159333D01*
X102573295Y-68111714D01*
X102716152Y-68111714D01*
X102811390Y-68159333D01*
X102859009Y-68254571D01*
X102859009Y-68778380D01*
X103192342Y-68111714D02*
X103573295Y-68111714D01*
X103335200Y-67778380D02*
X103335200Y-68635523D01*
X103382819Y-68730761D01*
X103478057Y-68778380D01*
X103573295Y-68778380D01*
X104287580Y-68730761D02*
X104192342Y-68778380D01*
X104001866Y-68778380D01*
X103906628Y-68730761D01*
X103859009Y-68635523D01*
X103859009Y-68254571D01*
X103906628Y-68159333D01*
X104001866Y-68111714D01*
X104192342Y-68111714D01*
X104287580Y-68159333D01*
X104335200Y-68254571D01*
X104335200Y-68349809D01*
X103859009Y-68445047D01*
X104763771Y-68111714D02*
X104763771Y-68778380D01*
X104763771Y-68206952D02*
X104811390Y-68159333D01*
X104906628Y-68111714D01*
X105049485Y-68111714D01*
X105144723Y-68159333D01*
X105192342Y-68254571D01*
X105192342Y-68778380D01*
X106097104Y-68778380D02*
X106097104Y-68254571D01*
X106049485Y-68159333D01*
X105954247Y-68111714D01*
X105763771Y-68111714D01*
X105668533Y-68159333D01*
X106097104Y-68730761D02*
X106001866Y-68778380D01*
X105763771Y-68778380D01*
X105668533Y-68730761D01*
X105620914Y-68635523D01*
X105620914Y-68540285D01*
X105668533Y-68445047D01*
X105763771Y-68397428D01*
X106001866Y-68397428D01*
X106097104Y-68349809D01*
%TO.C,J3*%
X132076866Y-81113380D02*
X132076866Y-81827666D01*
X132029247Y-81970523D01*
X131934009Y-82065761D01*
X131791152Y-82113380D01*
X131695914Y-82113380D01*
X132457819Y-81113380D02*
X133076866Y-81113380D01*
X132743533Y-81494333D01*
X132886390Y-81494333D01*
X132981628Y-81541952D01*
X133029247Y-81589571D01*
X133076866Y-81684809D01*
X133076866Y-81922904D01*
X133029247Y-82018142D01*
X132981628Y-82065761D01*
X132886390Y-82113380D01*
X132600676Y-82113380D01*
X132505438Y-82065761D01*
X132457819Y-82018142D01*
%TO.C,C1*%
X97191533Y-91492342D02*
X97143914Y-91539961D01*
X97001057Y-91587580D01*
X96905819Y-91587580D01*
X96762961Y-91539961D01*
X96667723Y-91444723D01*
X96620104Y-91349485D01*
X96572485Y-91159009D01*
X96572485Y-91016152D01*
X96620104Y-90825676D01*
X96667723Y-90730438D01*
X96762961Y-90635200D01*
X96905819Y-90587580D01*
X97001057Y-90587580D01*
X97143914Y-90635200D01*
X97191533Y-90682819D01*
X98143914Y-91587580D02*
X97572485Y-91587580D01*
X97858200Y-91587580D02*
X97858200Y-90587580D01*
X97762961Y-90730438D01*
X97667723Y-90825676D01*
X97572485Y-90873295D01*
%TO.C,D1*%
X94127580Y-94464095D02*
X93127580Y-94464095D01*
X93127580Y-94226000D01*
X93175200Y-94083142D01*
X93270438Y-93987904D01*
X93365676Y-93940285D01*
X93556152Y-93892666D01*
X93699009Y-93892666D01*
X93889485Y-93940285D01*
X93984723Y-93987904D01*
X94079961Y-94083142D01*
X94127580Y-94226000D01*
X94127580Y-94464095D01*
X94127580Y-92940285D02*
X94127580Y-93511714D01*
X94127580Y-93226000D02*
X93127580Y-93226000D01*
X93270438Y-93321238D01*
X93365676Y-93416476D01*
X93413295Y-93511714D01*
%TO.C,D3*%
X86507580Y-94464095D02*
X85507580Y-94464095D01*
X85507580Y-94226000D01*
X85555200Y-94083142D01*
X85650438Y-93987904D01*
X85745676Y-93940285D01*
X85936152Y-93892666D01*
X86079009Y-93892666D01*
X86269485Y-93940285D01*
X86364723Y-93987904D01*
X86459961Y-94083142D01*
X86507580Y-94226000D01*
X86507580Y-94464095D01*
X85507580Y-93559333D02*
X85507580Y-92940285D01*
X85888533Y-93273619D01*
X85888533Y-93130761D01*
X85936152Y-93035523D01*
X85983771Y-92987904D01*
X86079009Y-92940285D01*
X86317104Y-92940285D01*
X86412342Y-92987904D01*
X86459961Y-93035523D01*
X86507580Y-93130761D01*
X86507580Y-93416476D01*
X86459961Y-93511714D01*
X86412342Y-93559333D01*
%TO.C,J8*%
X80641866Y-84186780D02*
X80641866Y-84901066D01*
X80594247Y-85043923D01*
X80499009Y-85139161D01*
X80356152Y-85186780D01*
X80260914Y-85186780D01*
X81260914Y-84615352D02*
X81165676Y-84567733D01*
X81118057Y-84520114D01*
X81070438Y-84424876D01*
X81070438Y-84377257D01*
X81118057Y-84282019D01*
X81165676Y-84234400D01*
X81260914Y-84186780D01*
X81451390Y-84186780D01*
X81546628Y-84234400D01*
X81594247Y-84282019D01*
X81641866Y-84377257D01*
X81641866Y-84424876D01*
X81594247Y-84520114D01*
X81546628Y-84567733D01*
X81451390Y-84615352D01*
X81260914Y-84615352D01*
X81165676Y-84662971D01*
X81118057Y-84710590D01*
X81070438Y-84805828D01*
X81070438Y-84996304D01*
X81118057Y-85091542D01*
X81165676Y-85139161D01*
X81260914Y-85186780D01*
X81451390Y-85186780D01*
X81546628Y-85139161D01*
X81594247Y-85091542D01*
X81641866Y-84996304D01*
X81641866Y-84805828D01*
X81594247Y-84710590D01*
X81546628Y-84662971D01*
X81451390Y-84615352D01*
%TO.C,U2*%
X84643980Y-82092704D02*
X85453504Y-82092704D01*
X85548742Y-82045085D01*
X85596361Y-81997466D01*
X85643980Y-81902228D01*
X85643980Y-81711752D01*
X85596361Y-81616514D01*
X85548742Y-81568895D01*
X85453504Y-81521276D01*
X84643980Y-81521276D01*
X84739219Y-81092704D02*
X84691600Y-81045085D01*
X84643980Y-80949847D01*
X84643980Y-80711752D01*
X84691600Y-80616514D01*
X84739219Y-80568895D01*
X84834457Y-80521276D01*
X84929695Y-80521276D01*
X85072552Y-80568895D01*
X85643980Y-81140323D01*
X85643980Y-80521276D01*
%TO.C,J4*%
X108708866Y-90130380D02*
X108708866Y-90844666D01*
X108661247Y-90987523D01*
X108566009Y-91082761D01*
X108423152Y-91130380D01*
X108327914Y-91130380D01*
X109613628Y-90463714D02*
X109613628Y-91130380D01*
X109375533Y-90082761D02*
X109137438Y-90797047D01*
X109756485Y-90797047D01*
%TO.C,C2*%
X90857342Y-72302666D02*
X90904961Y-72350285D01*
X90952580Y-72493142D01*
X90952580Y-72588380D01*
X90904961Y-72731238D01*
X90809723Y-72826476D01*
X90714485Y-72874095D01*
X90524009Y-72921714D01*
X90381152Y-72921714D01*
X90190676Y-72874095D01*
X90095438Y-72826476D01*
X90000200Y-72731238D01*
X89952580Y-72588380D01*
X89952580Y-72493142D01*
X90000200Y-72350285D01*
X90047819Y-72302666D01*
X90047819Y-71921714D02*
X90000200Y-71874095D01*
X89952580Y-71778857D01*
X89952580Y-71540761D01*
X90000200Y-71445523D01*
X90047819Y-71397904D01*
X90143057Y-71350285D01*
X90238295Y-71350285D01*
X90381152Y-71397904D01*
X90952580Y-71969333D01*
X90952580Y-71350285D01*
%TO.C,C4*%
X78903533Y-29313142D02*
X78855914Y-29360761D01*
X78713057Y-29408380D01*
X78617819Y-29408380D01*
X78474961Y-29360761D01*
X78379723Y-29265523D01*
X78332104Y-29170285D01*
X78284485Y-28979809D01*
X78284485Y-28836952D01*
X78332104Y-28646476D01*
X78379723Y-28551238D01*
X78474961Y-28456000D01*
X78617819Y-28408380D01*
X78713057Y-28408380D01*
X78855914Y-28456000D01*
X78903533Y-28503619D01*
X79760676Y-28741714D02*
X79760676Y-29408380D01*
X79522580Y-28360761D02*
X79284485Y-29075047D01*
X79903533Y-29075047D01*
%TO.C,C5*%
X121337342Y-17692666D02*
X121384961Y-17740285D01*
X121432580Y-17883142D01*
X121432580Y-17978380D01*
X121384961Y-18121238D01*
X121289723Y-18216476D01*
X121194485Y-18264095D01*
X121004009Y-18311714D01*
X120861152Y-18311714D01*
X120670676Y-18264095D01*
X120575438Y-18216476D01*
X120480200Y-18121238D01*
X120432580Y-17978380D01*
X120432580Y-17883142D01*
X120480200Y-17740285D01*
X120527819Y-17692666D01*
X120432580Y-16787904D02*
X120432580Y-17264095D01*
X120908771Y-17311714D01*
X120861152Y-17264095D01*
X120813533Y-17168857D01*
X120813533Y-16930761D01*
X120861152Y-16835523D01*
X120908771Y-16787904D01*
X121004009Y-16740285D01*
X121242104Y-16740285D01*
X121337342Y-16787904D01*
X121384961Y-16835523D01*
X121432580Y-16930761D01*
X121432580Y-17168857D01*
X121384961Y-17264095D01*
X121337342Y-17311714D01*
%TO.C,C6*%
X125782342Y-17692666D02*
X125829961Y-17740285D01*
X125877580Y-17883142D01*
X125877580Y-17978380D01*
X125829961Y-18121238D01*
X125734723Y-18216476D01*
X125639485Y-18264095D01*
X125449009Y-18311714D01*
X125306152Y-18311714D01*
X125115676Y-18264095D01*
X125020438Y-18216476D01*
X124925200Y-18121238D01*
X124877580Y-17978380D01*
X124877580Y-17883142D01*
X124925200Y-17740285D01*
X124972819Y-17692666D01*
X124877580Y-16835523D02*
X124877580Y-17026000D01*
X124925200Y-17121238D01*
X124972819Y-17168857D01*
X125115676Y-17264095D01*
X125306152Y-17311714D01*
X125687104Y-17311714D01*
X125782342Y-17264095D01*
X125829961Y-17216476D01*
X125877580Y-17121238D01*
X125877580Y-16930761D01*
X125829961Y-16835523D01*
X125782342Y-16787904D01*
X125687104Y-16740285D01*
X125449009Y-16740285D01*
X125353771Y-16787904D01*
X125306152Y-16835523D01*
X125258533Y-16930761D01*
X125258533Y-17121238D01*
X125306152Y-17216476D01*
X125353771Y-17264095D01*
X125449009Y-17311714D01*
%TO.C,C7*%
X78903533Y-33123142D02*
X78855914Y-33170761D01*
X78713057Y-33218380D01*
X78617819Y-33218380D01*
X78474961Y-33170761D01*
X78379723Y-33075523D01*
X78332104Y-32980285D01*
X78284485Y-32789809D01*
X78284485Y-32646952D01*
X78332104Y-32456476D01*
X78379723Y-32361238D01*
X78474961Y-32266000D01*
X78617819Y-32218380D01*
X78713057Y-32218380D01*
X78855914Y-32266000D01*
X78903533Y-32313619D01*
X79236866Y-32218380D02*
X79903533Y-32218380D01*
X79474961Y-33218380D01*
%TO.C,J12*%
X83975676Y-97668380D02*
X83975676Y-98382666D01*
X83928057Y-98525523D01*
X83832819Y-98620761D01*
X83689961Y-98668380D01*
X83594723Y-98668380D01*
X84975676Y-98668380D02*
X84404247Y-98668380D01*
X84689961Y-98668380D02*
X84689961Y-97668380D01*
X84594723Y-97811238D01*
X84499485Y-97906476D01*
X84404247Y-97954095D01*
X85356628Y-97763619D02*
X85404247Y-97716000D01*
X85499485Y-97668380D01*
X85737580Y-97668380D01*
X85832819Y-97716000D01*
X85880438Y-97763619D01*
X85928057Y-97858857D01*
X85928057Y-97954095D01*
X85880438Y-98096952D01*
X85309009Y-98668380D01*
X85928057Y-98668380D01*
%TO.C,J13*%
X87785676Y-97668380D02*
X87785676Y-98382666D01*
X87738057Y-98525523D01*
X87642819Y-98620761D01*
X87499961Y-98668380D01*
X87404723Y-98668380D01*
X88785676Y-98668380D02*
X88214247Y-98668380D01*
X88499961Y-98668380D02*
X88499961Y-97668380D01*
X88404723Y-97811238D01*
X88309485Y-97906476D01*
X88214247Y-97954095D01*
X89119009Y-97668380D02*
X89738057Y-97668380D01*
X89404723Y-98049333D01*
X89547580Y-98049333D01*
X89642819Y-98096952D01*
X89690438Y-98144571D01*
X89738057Y-98239809D01*
X89738057Y-98477904D01*
X89690438Y-98573142D01*
X89642819Y-98620761D01*
X89547580Y-98668380D01*
X89261866Y-98668380D01*
X89166628Y-98620761D01*
X89119009Y-98573142D01*
%TO.C,J14*%
X91595676Y-97668380D02*
X91595676Y-98382666D01*
X91548057Y-98525523D01*
X91452819Y-98620761D01*
X91309961Y-98668380D01*
X91214723Y-98668380D01*
X92595676Y-98668380D02*
X92024247Y-98668380D01*
X92309961Y-98668380D02*
X92309961Y-97668380D01*
X92214723Y-97811238D01*
X92119485Y-97906476D01*
X92024247Y-97954095D01*
X93452819Y-98001714D02*
X93452819Y-98668380D01*
X93214723Y-97620761D02*
X92976628Y-98335047D01*
X93595676Y-98335047D01*
%TO.C,J15*%
X95405676Y-97668380D02*
X95405676Y-98382666D01*
X95358057Y-98525523D01*
X95262819Y-98620761D01*
X95119961Y-98668380D01*
X95024723Y-98668380D01*
X96405676Y-98668380D02*
X95834247Y-98668380D01*
X96119961Y-98668380D02*
X96119961Y-97668380D01*
X96024723Y-97811238D01*
X95929485Y-97906476D01*
X95834247Y-97954095D01*
X97310438Y-97668380D02*
X96834247Y-97668380D01*
X96786628Y-98144571D01*
X96834247Y-98096952D01*
X96929485Y-98049333D01*
X97167580Y-98049333D01*
X97262819Y-98096952D01*
X97310438Y-98144571D01*
X97358057Y-98239809D01*
X97358057Y-98477904D01*
X97310438Y-98573142D01*
X97262819Y-98620761D01*
X97167580Y-98668380D01*
X96929485Y-98668380D01*
X96834247Y-98620761D01*
X96786628Y-98573142D01*
%TO.C,J16*%
X99215676Y-97668380D02*
X99215676Y-98382666D01*
X99168057Y-98525523D01*
X99072819Y-98620761D01*
X98929961Y-98668380D01*
X98834723Y-98668380D01*
X100215676Y-98668380D02*
X99644247Y-98668380D01*
X99929961Y-98668380D02*
X99929961Y-97668380D01*
X99834723Y-97811238D01*
X99739485Y-97906476D01*
X99644247Y-97954095D01*
X101072819Y-97668380D02*
X100882342Y-97668380D01*
X100787104Y-97716000D01*
X100739485Y-97763619D01*
X100644247Y-97906476D01*
X100596628Y-98096952D01*
X100596628Y-98477904D01*
X100644247Y-98573142D01*
X100691866Y-98620761D01*
X100787104Y-98668380D01*
X100977580Y-98668380D01*
X101072819Y-98620761D01*
X101120438Y-98573142D01*
X101168057Y-98477904D01*
X101168057Y-98239809D01*
X101120438Y-98144571D01*
X101072819Y-98096952D01*
X100977580Y-98049333D01*
X100787104Y-98049333D01*
X100691866Y-98096952D01*
X100644247Y-98144571D01*
X100596628Y-98239809D01*
%TO.C,J17*%
X103025676Y-97668380D02*
X103025676Y-98382666D01*
X102978057Y-98525523D01*
X102882819Y-98620761D01*
X102739961Y-98668380D01*
X102644723Y-98668380D01*
X104025676Y-98668380D02*
X103454247Y-98668380D01*
X103739961Y-98668380D02*
X103739961Y-97668380D01*
X103644723Y-97811238D01*
X103549485Y-97906476D01*
X103454247Y-97954095D01*
X104359009Y-97668380D02*
X105025676Y-97668380D01*
X104597104Y-98668380D01*
%TO.C,J18*%
X106835676Y-97668380D02*
X106835676Y-98382666D01*
X106788057Y-98525523D01*
X106692819Y-98620761D01*
X106549961Y-98668380D01*
X106454723Y-98668380D01*
X107835676Y-98668380D02*
X107264247Y-98668380D01*
X107549961Y-98668380D02*
X107549961Y-97668380D01*
X107454723Y-97811238D01*
X107359485Y-97906476D01*
X107264247Y-97954095D01*
X108407104Y-98096952D02*
X108311866Y-98049333D01*
X108264247Y-98001714D01*
X108216628Y-97906476D01*
X108216628Y-97858857D01*
X108264247Y-97763619D01*
X108311866Y-97716000D01*
X108407104Y-97668380D01*
X108597580Y-97668380D01*
X108692819Y-97716000D01*
X108740438Y-97763619D01*
X108788057Y-97858857D01*
X108788057Y-97906476D01*
X108740438Y-98001714D01*
X108692819Y-98049333D01*
X108597580Y-98096952D01*
X108407104Y-98096952D01*
X108311866Y-98144571D01*
X108264247Y-98192190D01*
X108216628Y-98287428D01*
X108216628Y-98477904D01*
X108264247Y-98573142D01*
X108311866Y-98620761D01*
X108407104Y-98668380D01*
X108597580Y-98668380D01*
X108692819Y-98620761D01*
X108740438Y-98573142D01*
X108788057Y-98477904D01*
X108788057Y-98287428D01*
X108740438Y-98192190D01*
X108692819Y-98144571D01*
X108597580Y-98096952D01*
%TO.C,J19*%
X110645676Y-97668380D02*
X110645676Y-98382666D01*
X110598057Y-98525523D01*
X110502819Y-98620761D01*
X110359961Y-98668380D01*
X110264723Y-98668380D01*
X111645676Y-98668380D02*
X111074247Y-98668380D01*
X111359961Y-98668380D02*
X111359961Y-97668380D01*
X111264723Y-97811238D01*
X111169485Y-97906476D01*
X111074247Y-97954095D01*
X112121866Y-98668380D02*
X112312342Y-98668380D01*
X112407580Y-98620761D01*
X112455200Y-98573142D01*
X112550438Y-98430285D01*
X112598057Y-98239809D01*
X112598057Y-97858857D01*
X112550438Y-97763619D01*
X112502819Y-97716000D01*
X112407580Y-97668380D01*
X112217104Y-97668380D01*
X112121866Y-97716000D01*
X112074247Y-97763619D01*
X112026628Y-97858857D01*
X112026628Y-98096952D01*
X112074247Y-98192190D01*
X112121866Y-98239809D01*
X112217104Y-98287428D01*
X112407580Y-98287428D01*
X112502819Y-98239809D01*
X112550438Y-98192190D01*
X112598057Y-98096952D01*
%TO.C,J20*%
X114455676Y-97668380D02*
X114455676Y-98382666D01*
X114408057Y-98525523D01*
X114312819Y-98620761D01*
X114169961Y-98668380D01*
X114074723Y-98668380D01*
X114884247Y-97763619D02*
X114931866Y-97716000D01*
X115027104Y-97668380D01*
X115265200Y-97668380D01*
X115360438Y-97716000D01*
X115408057Y-97763619D01*
X115455676Y-97858857D01*
X115455676Y-97954095D01*
X115408057Y-98096952D01*
X114836628Y-98668380D01*
X115455676Y-98668380D01*
X116074723Y-97668380D02*
X116169961Y-97668380D01*
X116265200Y-97716000D01*
X116312819Y-97763619D01*
X116360438Y-97858857D01*
X116408057Y-98049333D01*
X116408057Y-98287428D01*
X116360438Y-98477904D01*
X116312819Y-98573142D01*
X116265200Y-98620761D01*
X116169961Y-98668380D01*
X116074723Y-98668380D01*
X115979485Y-98620761D01*
X115931866Y-98573142D01*
X115884247Y-98477904D01*
X115836628Y-98287428D01*
X115836628Y-98049333D01*
X115884247Y-97858857D01*
X115931866Y-97763619D01*
X115979485Y-97716000D01*
X116074723Y-97668380D01*
%TO.C,J21*%
X118265676Y-97668380D02*
X118265676Y-98382666D01*
X118218057Y-98525523D01*
X118122819Y-98620761D01*
X117979961Y-98668380D01*
X117884723Y-98668380D01*
X118694247Y-97763619D02*
X118741866Y-97716000D01*
X118837104Y-97668380D01*
X119075200Y-97668380D01*
X119170438Y-97716000D01*
X119218057Y-97763619D01*
X119265676Y-97858857D01*
X119265676Y-97954095D01*
X119218057Y-98096952D01*
X118646628Y-98668380D01*
X119265676Y-98668380D01*
X120218057Y-98668380D02*
X119646628Y-98668380D01*
X119932342Y-98668380D02*
X119932342Y-97668380D01*
X119837104Y-97811238D01*
X119741866Y-97906476D01*
X119646628Y-97954095D01*
%TO.C,J22*%
X122075676Y-97668380D02*
X122075676Y-98382666D01*
X122028057Y-98525523D01*
X121932819Y-98620761D01*
X121789961Y-98668380D01*
X121694723Y-98668380D01*
X122504247Y-97763619D02*
X122551866Y-97716000D01*
X122647104Y-97668380D01*
X122885200Y-97668380D01*
X122980438Y-97716000D01*
X123028057Y-97763619D01*
X123075676Y-97858857D01*
X123075676Y-97954095D01*
X123028057Y-98096952D01*
X122456628Y-98668380D01*
X123075676Y-98668380D01*
X123456628Y-97763619D02*
X123504247Y-97716000D01*
X123599485Y-97668380D01*
X123837580Y-97668380D01*
X123932819Y-97716000D01*
X123980438Y-97763619D01*
X124028057Y-97858857D01*
X124028057Y-97954095D01*
X123980438Y-98096952D01*
X123409009Y-98668380D01*
X124028057Y-98668380D01*
%TO.C,J23*%
X125885676Y-97668380D02*
X125885676Y-98382666D01*
X125838057Y-98525523D01*
X125742819Y-98620761D01*
X125599961Y-98668380D01*
X125504723Y-98668380D01*
X126314247Y-97763619D02*
X126361866Y-97716000D01*
X126457104Y-97668380D01*
X126695200Y-97668380D01*
X126790438Y-97716000D01*
X126838057Y-97763619D01*
X126885676Y-97858857D01*
X126885676Y-97954095D01*
X126838057Y-98096952D01*
X126266628Y-98668380D01*
X126885676Y-98668380D01*
X127219009Y-97668380D02*
X127838057Y-97668380D01*
X127504723Y-98049333D01*
X127647580Y-98049333D01*
X127742819Y-98096952D01*
X127790438Y-98144571D01*
X127838057Y-98239809D01*
X127838057Y-98477904D01*
X127790438Y-98573142D01*
X127742819Y-98620761D01*
X127647580Y-98668380D01*
X127361866Y-98668380D01*
X127266628Y-98620761D01*
X127219009Y-98573142D01*
%TO.C,J24*%
X129695676Y-97668380D02*
X129695676Y-98382666D01*
X129648057Y-98525523D01*
X129552819Y-98620761D01*
X129409961Y-98668380D01*
X129314723Y-98668380D01*
X130124247Y-97763619D02*
X130171866Y-97716000D01*
X130267104Y-97668380D01*
X130505200Y-97668380D01*
X130600438Y-97716000D01*
X130648057Y-97763619D01*
X130695676Y-97858857D01*
X130695676Y-97954095D01*
X130648057Y-98096952D01*
X130076628Y-98668380D01*
X130695676Y-98668380D01*
X131552819Y-98001714D02*
X131552819Y-98668380D01*
X131314723Y-97620761D02*
X131076628Y-98335047D01*
X131695676Y-98335047D01*
%TO.C,J25*%
X133505676Y-97668380D02*
X133505676Y-98382666D01*
X133458057Y-98525523D01*
X133362819Y-98620761D01*
X133219961Y-98668380D01*
X133124723Y-98668380D01*
X133934247Y-97763619D02*
X133981866Y-97716000D01*
X134077104Y-97668380D01*
X134315200Y-97668380D01*
X134410438Y-97716000D01*
X134458057Y-97763619D01*
X134505676Y-97858857D01*
X134505676Y-97954095D01*
X134458057Y-98096952D01*
X133886628Y-98668380D01*
X134505676Y-98668380D01*
X135410438Y-97668380D02*
X134934247Y-97668380D01*
X134886628Y-98144571D01*
X134934247Y-98096952D01*
X135029485Y-98049333D01*
X135267580Y-98049333D01*
X135362819Y-98096952D01*
X135410438Y-98144571D01*
X135458057Y-98239809D01*
X135458057Y-98477904D01*
X135410438Y-98573142D01*
X135362819Y-98620761D01*
X135267580Y-98668380D01*
X135029485Y-98668380D01*
X134934247Y-98620761D01*
X134886628Y-98573142D01*
%TD*%
M02*
