M48
; DRILL file {KiCad (5.1.9)-1} date 03/10/21 14:29:29
; FORMAT={-:-/ absolute / inch / decimal}
; #@! TF.CreationDate,2021-03-10T14:29:29-04:00
; #@! TF.GenerationSoftware,Kicad,Pcbnew,(5.1.9)-1
; #@! TF.FileFunction,Plated,1,2,PTH
FMAT,2
INCH
T1C0.0157
T2C0.0256
T3C0.0315
T4C0.0354
T5C0.0394
T6C0.0400
T7C0.0433
T8C0.0472
%
G90
G05
T1
X3.488Y-1.59
T2
X4.163Y-3.59
X4.213Y-3.59
T3
X3.188Y-2.34
X3.188Y-2.74
X3.1911Y-1.14
X3.1911Y-1.29
X3.288Y-3.94
X3.288Y-4.04
X3.288Y-4.14
X3.288Y-4.24
X3.288Y-4.34
X3.288Y-4.44
X3.288Y-4.54
X3.288Y-4.64
X3.288Y-4.74
X3.288Y-4.84
X3.288Y-4.94
X3.288Y-5.04
X3.288Y-5.14
X3.338Y-2.34
X3.338Y-2.74
X3.388Y-1.14
X3.388Y-1.29
X3.388Y-3.94
X3.388Y-4.04
X3.388Y-4.14
X3.388Y-4.24
X3.388Y-4.34
X3.388Y-4.44
X3.388Y-4.54
X3.388Y-4.64
X3.388Y-4.74
X3.388Y-4.84
X3.388Y-4.94
X3.388Y-5.04
X3.388Y-5.14
X3.488Y-3.94
X3.488Y-4.04
X3.488Y-4.14
X3.488Y-4.24
X3.488Y-4.34
X3.488Y-4.44
X3.488Y-4.54
X3.488Y-4.64
X3.488Y-4.74
X3.488Y-4.84
X3.488Y-4.94
X3.488Y-5.04
X3.488Y-5.14
X3.588Y-3.94
X3.588Y-4.04
X3.588Y-4.14
X3.588Y-4.24
X3.588Y-4.34
X3.588Y-4.44
X3.588Y-4.54
X3.588Y-4.64
X3.588Y-4.74
X3.588Y-4.84
X3.588Y-4.94
X3.588Y-5.04
X3.588Y-5.14
X3.688Y-2.84
X3.688Y-3.0369
X3.688Y-3.94
X3.688Y-4.04
X3.688Y-4.14
X3.688Y-4.24
X3.688Y-4.34
X3.688Y-4.44
X3.688Y-4.54
X3.688Y-4.64
X3.688Y-4.74
X3.688Y-4.84
X3.688Y-4.94
X3.688Y-5.04
X3.688Y-5.14
X3.788Y-3.94
X3.788Y-4.04
X3.788Y-4.14
X3.788Y-4.24
X3.788Y-4.34
X3.788Y-4.44
X3.788Y-4.54
X3.788Y-4.64
X3.788Y-4.74
X3.788Y-4.84
X3.788Y-4.94
X3.788Y-5.04
X3.788Y-5.14
X3.863Y-2.84
X3.863Y-3.24
X3.863Y-3.44
X3.888Y-3.94
X3.888Y-4.04
X3.888Y-4.14
X3.888Y-4.24
X3.888Y-4.34
X3.888Y-4.44
X3.888Y-4.54
X3.888Y-4.64
X3.888Y-4.74
X3.888Y-4.84
X3.888Y-4.94
X3.888Y-5.04
X3.888Y-5.14
X3.9417Y-3.44
X3.988Y-2.84
X3.988Y-3.24
X3.988Y-3.94
X3.988Y-4.04
X3.988Y-4.14
X3.988Y-4.24
X3.988Y-4.34
X3.988Y-4.44
X3.988Y-4.54
X3.988Y-4.64
X3.988Y-4.74
X3.988Y-4.84
X3.988Y-4.94
X3.988Y-5.04
X3.988Y-5.14
X4.088Y-3.94
X4.088Y-4.04
X4.088Y-4.14
X4.088Y-4.24
X4.088Y-4.34
X4.088Y-4.44
X4.088Y-4.54
X4.088Y-4.64
X4.088Y-4.74
X4.088Y-4.84
X4.088Y-4.94
X4.088Y-5.04
X4.088Y-5.14
X4.188Y-3.94
X4.188Y-4.04
X4.188Y-4.14
X4.188Y-4.24
X4.188Y-4.34
X4.188Y-4.44
X4.188Y-4.54
X4.188Y-4.64
X4.188Y-4.74
X4.188Y-4.84
X4.188Y-4.94
X4.188Y-5.04
X4.188Y-5.14
X4.288Y-3.94
X4.288Y-4.04
X4.288Y-4.14
X4.288Y-4.24
X4.288Y-4.34
X4.288Y-4.44
X4.288Y-4.54
X4.288Y-4.64
X4.288Y-4.74
X4.288Y-4.84
X4.288Y-4.94
X4.288Y-5.04
X4.288Y-5.14
X4.388Y-3.94
X4.388Y-4.04
X4.388Y-4.14
X4.388Y-4.24
X4.388Y-4.34
X4.388Y-4.44
X4.388Y-4.54
X4.388Y-4.64
X4.388Y-4.74
X4.388Y-4.84
X4.388Y-4.94
X4.388Y-5.04
X4.388Y-5.14
X4.488Y-3.94
X4.488Y-4.04
X4.488Y-4.14
X4.488Y-4.24
X4.488Y-4.34
X4.488Y-4.44
X4.488Y-4.54
X4.488Y-4.64
X4.488Y-4.74
X4.488Y-4.84
X4.488Y-4.94
X4.488Y-5.04
X4.488Y-5.14
X4.588Y-3.94
X4.588Y-4.04
X4.588Y-4.14
X4.588Y-4.24
X4.588Y-4.34
X4.588Y-4.44
X4.588Y-4.54
X4.588Y-4.64
X4.588Y-4.74
X4.588Y-4.84
X4.588Y-4.94
X4.588Y-5.04
X4.588Y-5.14
X4.688Y-3.94
X4.688Y-4.04
X4.688Y-4.14
X4.688Y-4.24
X4.688Y-4.34
X4.688Y-4.44
X4.688Y-4.54
X4.688Y-4.64
X4.688Y-4.74
X4.688Y-4.84
X4.688Y-4.94
X4.688Y-5.04
X4.688Y-5.14
X4.763Y-0.79
X4.763Y-0.9869
X4.788Y-3.94
X4.788Y-4.04
X4.788Y-4.14
X4.788Y-4.24
X4.788Y-4.34
X4.788Y-4.44
X4.788Y-4.54
X4.788Y-4.64
X4.788Y-4.74
X4.788Y-4.84
X4.788Y-4.94
X4.788Y-5.04
X4.788Y-5.14
X4.888Y-3.94
X4.888Y-4.04
X4.888Y-4.14
X4.888Y-4.24
X4.888Y-4.34
X4.888Y-4.44
X4.888Y-4.54
X4.888Y-4.64
X4.888Y-4.74
X4.888Y-4.84
X4.888Y-4.94
X4.888Y-5.04
X4.888Y-5.14
X4.938Y-0.7931
X4.938Y-0.99
X4.988Y-3.94
X4.988Y-4.04
X4.988Y-4.14
X4.988Y-4.24
X4.988Y-4.34
X4.988Y-4.44
X4.988Y-4.54
X4.988Y-4.64
X4.988Y-4.74
X4.988Y-4.84
X4.988Y-4.94
X4.988Y-5.04
X4.988Y-5.14
X5.088Y-3.94
X5.088Y-4.04
X5.088Y-4.14
X5.088Y-4.24
X5.088Y-4.34
X5.088Y-4.44
X5.088Y-4.54
X5.088Y-4.64
X5.088Y-4.74
X5.088Y-4.84
X5.088Y-4.94
X5.088Y-5.04
X5.088Y-5.14
X5.188Y-3.94
X5.188Y-4.04
X5.188Y-4.14
X5.188Y-4.24
X5.188Y-4.34
X5.188Y-4.44
X5.188Y-4.54
X5.188Y-4.64
X5.188Y-4.74
X5.188Y-4.84
X5.188Y-4.94
X5.188Y-5.04
X5.188Y-5.14
X5.213Y-3.315
X5.213Y-3.415
T4
X3.338Y-3.79
X3.488Y-3.79
X3.588Y-0.79
X3.588Y-0.89
X3.588Y-0.99
X3.588Y-1.09
X3.588Y-1.19
X3.588Y-1.29
X3.588Y-1.39
X3.588Y-1.49
X3.588Y-1.59
X3.588Y-1.69
X3.588Y-1.79
X3.588Y-1.89
X3.588Y-1.99
X3.588Y-2.09
X3.588Y-2.19
X3.588Y-2.29
X3.588Y-2.39
X3.588Y-2.49
X3.638Y-3.79
X3.788Y-3.79
X3.938Y-3.79
X4.088Y-3.79
X4.238Y-3.79
X4.388Y-3.79
X4.5305Y-0.79
X4.5305Y-0.89
X4.5305Y-0.9875
X4.5305Y-1.0875
X4.5305Y-1.1875
X4.5305Y-1.2875
X4.5305Y-1.3875
X4.5305Y-1.4875
X4.5305Y-1.5875
X4.5305Y-1.69
X4.5305Y-1.79
X4.5305Y-1.89
X4.5305Y-1.99
X4.5305Y-2.09
X4.5305Y-2.19
X4.5305Y-2.29
X4.5305Y-2.39
X4.5305Y-2.49
X4.538Y-3.79
X4.688Y-3.79
X4.838Y-3.79
X4.988Y-3.79
X5.138Y-3.79
X5.288Y-3.79
T5
X3.188Y-3.44
X3.188Y-3.54
X3.188Y-3.64
X3.188Y-3.74
X3.188Y-3.94
X3.188Y-4.04
X3.188Y-4.14
X3.188Y-4.24
X3.188Y-4.34
X3.188Y-4.44
X3.188Y-4.54
X3.188Y-4.64
X3.188Y-4.74
X3.188Y-4.84
X3.188Y-4.94
X3.188Y-5.04
X3.188Y-5.14
X3.188Y-5.24
X3.238Y-0.688
X3.288Y-5.24
X3.338Y-0.688
X3.388Y-5.24
X3.438Y-0.688
X3.488Y-5.24
X3.588Y-5.24
X3.688Y-5.24
X3.788Y-5.24
X3.888Y-5.24
X3.988Y-5.24
X4.088Y-5.24
X4.138Y-3.39
X4.188Y-5.24
X4.238Y-3.39
X4.288Y-5.24
X4.388Y-5.24
X4.488Y-5.24
X4.588Y-5.24
X4.688Y-5.24
X4.788Y-5.24
X4.888Y-5.24
X4.988Y-5.24
X5.088Y-5.24
X5.188Y-5.24
X5.238Y-1.215
X5.238Y-1.315
X5.238Y-1.415
X5.238Y-1.515
X5.238Y-1.615
X5.238Y-1.715
X5.238Y-1.815
X5.238Y-1.915
X5.238Y-2.24
X5.238Y-2.34
X5.238Y-2.44
X5.238Y-2.54
X5.288Y-3.94
X5.288Y-4.04
X5.288Y-4.14
X5.288Y-4.24
X5.288Y-4.34
X5.288Y-4.44
X5.288Y-4.54
X5.288Y-4.64
X5.288Y-4.74
X5.288Y-4.84
X5.288Y-4.94
X5.288Y-5.04
X5.288Y-5.14
X5.288Y-5.24
T6
X3.188Y-1.94
X3.188Y-2.04
X3.188Y-2.14
T7
X3.188Y-2.992
X3.188Y-3.092
X3.188Y-3.192
X3.388Y-3.19
X3.388Y-3.59
X3.538Y-3.19
X3.538Y-3.59
X3.688Y-3.19
X3.688Y-3.59
T8
X3.288Y-1.49
X3.288Y-1.69
T0
M30
