%TF.GenerationSoftware,KiCad,Pcbnew,5.1.5+dfsg1-2build2*%
%TF.CreationDate,2020-11-28T00:18:08-04:00*%
%TF.ProjectId,placa_manutencao_preventiva,706c6163-615f-46d6-916e-7574656e6361,rev?*%
%TF.SameCoordinates,Original*%
%TF.FileFunction,Soldermask,Top*%
%TF.FilePolarity,Negative*%
%FSLAX46Y46*%
G04 Gerber Fmt 4.6, Leading zero omitted, Abs format (unit mm)*
G04 Created by KiCad (PCBNEW 5.1.5+dfsg1-2build2) date 2020-11-28 00:18:08*
%MOMM*%
%LPD*%
G04 APERTURE LIST*
%TA.AperFunction,Profile*%
%ADD10C,0.050000*%
%TD*%
%ADD11C,0.100000*%
G04 APERTURE END LIST*
D10*
X77673200Y-14935200D02*
X77673200Y-15290800D01*
X77876400Y-14935200D02*
X77673200Y-14935200D01*
X136093200Y-14935200D02*
X77876400Y-14935200D01*
X136093200Y-89662000D02*
X136093200Y-14935200D01*
X77673200Y-89662000D02*
X136093200Y-89662000D01*
X77673200Y-15290800D02*
X77673200Y-89662000D01*
D11*
G36*
X92309565Y-85634456D02*
G01*
X92436134Y-85659632D01*
X92645603Y-85746397D01*
X92834120Y-85872360D01*
X92994440Y-86032680D01*
X93120403Y-86221197D01*
X93207168Y-86430666D01*
X93251400Y-86653036D01*
X93251400Y-86879764D01*
X93207168Y-87102134D01*
X93120403Y-87311603D01*
X92994440Y-87500120D01*
X92834120Y-87660440D01*
X92645603Y-87786403D01*
X92436134Y-87873168D01*
X92324949Y-87895284D01*
X92213765Y-87917400D01*
X91987035Y-87917400D01*
X91875851Y-87895284D01*
X91764666Y-87873168D01*
X91555197Y-87786403D01*
X91366680Y-87660440D01*
X91206360Y-87500120D01*
X91080397Y-87311603D01*
X90993632Y-87102134D01*
X90949400Y-86879764D01*
X90949400Y-86653036D01*
X90993632Y-86430666D01*
X91080397Y-86221197D01*
X91206360Y-86032680D01*
X91366680Y-85872360D01*
X91555197Y-85746397D01*
X91764666Y-85659632D01*
X91891235Y-85634456D01*
X91987035Y-85615400D01*
X92213765Y-85615400D01*
X92309565Y-85634456D01*
G37*
G36*
X83091400Y-87917400D02*
G01*
X80789400Y-87917400D01*
X80789400Y-85615400D01*
X83091400Y-85615400D01*
X83091400Y-87917400D01*
G37*
G36*
X98001521Y-85982574D02*
G01*
X98101795Y-86024109D01*
X98101796Y-86024110D01*
X98192042Y-86084410D01*
X98268790Y-86161158D01*
X98268791Y-86161160D01*
X98330868Y-86254064D01*
X98346414Y-86273006D01*
X98365356Y-86288551D01*
X98386967Y-86300102D01*
X98410415Y-86307215D01*
X98434802Y-86309617D01*
X98459188Y-86307215D01*
X98482637Y-86300102D01*
X98504247Y-86288551D01*
X98523189Y-86273005D01*
X98538734Y-86254063D01*
X98550285Y-86232452D01*
X98557398Y-86209004D01*
X98559800Y-86184618D01*
X98559800Y-85961400D01*
X99661800Y-85961400D01*
X99661800Y-87063400D01*
X98559800Y-87063400D01*
X98559800Y-86840182D01*
X98557398Y-86815796D01*
X98550285Y-86792347D01*
X98538734Y-86770736D01*
X98523189Y-86751794D01*
X98504247Y-86736249D01*
X98482636Y-86724698D01*
X98459187Y-86717585D01*
X98434801Y-86715183D01*
X98410415Y-86717585D01*
X98386966Y-86724698D01*
X98365355Y-86736249D01*
X98346413Y-86751794D01*
X98330868Y-86770736D01*
X98289788Y-86832216D01*
X98268790Y-86863642D01*
X98192042Y-86940390D01*
X98146612Y-86970745D01*
X98101795Y-87000691D01*
X98001521Y-87042226D01*
X97895070Y-87063400D01*
X97786530Y-87063400D01*
X97680079Y-87042226D01*
X97579805Y-87000691D01*
X97534988Y-86970745D01*
X97489558Y-86940390D01*
X97412810Y-86863642D01*
X97380841Y-86815796D01*
X97352509Y-86773395D01*
X97310974Y-86673121D01*
X97289800Y-86566670D01*
X97289800Y-86458130D01*
X97310974Y-86351679D01*
X97352509Y-86251405D01*
X97412809Y-86161160D01*
X97412810Y-86161158D01*
X97489558Y-86084410D01*
X97579804Y-86024110D01*
X97579805Y-86024109D01*
X97680079Y-85982574D01*
X97786530Y-85961400D01*
X97895070Y-85961400D01*
X98001521Y-85982574D01*
G37*
G36*
X105599800Y-86753000D02*
G01*
X103797800Y-86753000D01*
X103797800Y-84951000D01*
X105599800Y-84951000D01*
X105599800Y-86753000D01*
G37*
G36*
X107352312Y-84955927D02*
G01*
X107501612Y-84985624D01*
X107665584Y-85053544D01*
X107813154Y-85152147D01*
X107938653Y-85277646D01*
X108037256Y-85425216D01*
X108105176Y-85589188D01*
X108139800Y-85763259D01*
X108139800Y-85940741D01*
X108105176Y-86114812D01*
X108037256Y-86278784D01*
X107938653Y-86426354D01*
X107813154Y-86551853D01*
X107665584Y-86650456D01*
X107501612Y-86718376D01*
X107352312Y-86748073D01*
X107327542Y-86753000D01*
X107150058Y-86753000D01*
X107125288Y-86748073D01*
X106975988Y-86718376D01*
X106812016Y-86650456D01*
X106664446Y-86551853D01*
X106538947Y-86426354D01*
X106440344Y-86278784D01*
X106372424Y-86114812D01*
X106337800Y-85940741D01*
X106337800Y-85763259D01*
X106372424Y-85589188D01*
X106440344Y-85425216D01*
X106538947Y-85277646D01*
X106664446Y-85152147D01*
X106812016Y-85053544D01*
X106975988Y-84985624D01*
X107125288Y-84955927D01*
X107150058Y-84951000D01*
X107327542Y-84951000D01*
X107352312Y-84955927D01*
G37*
G36*
X129043912Y-83939927D02*
G01*
X129193212Y-83969624D01*
X129357184Y-84037544D01*
X129504754Y-84136147D01*
X129630253Y-84261646D01*
X129728856Y-84409216D01*
X129796776Y-84573188D01*
X129831400Y-84747259D01*
X129831400Y-84924741D01*
X129796776Y-85098812D01*
X129728856Y-85262784D01*
X129630253Y-85410354D01*
X129504754Y-85535853D01*
X129357184Y-85634456D01*
X129193212Y-85702376D01*
X129043912Y-85732073D01*
X129019142Y-85737000D01*
X128841658Y-85737000D01*
X128816888Y-85732073D01*
X128667588Y-85702376D01*
X128503616Y-85634456D01*
X128356046Y-85535853D01*
X128230547Y-85410354D01*
X128131944Y-85262784D01*
X128064024Y-85098812D01*
X128029400Y-84924741D01*
X128029400Y-84747259D01*
X128064024Y-84573188D01*
X128131944Y-84409216D01*
X128230547Y-84261646D01*
X128356046Y-84136147D01*
X128503616Y-84037544D01*
X128667588Y-83969624D01*
X128816888Y-83939927D01*
X128841658Y-83935000D01*
X129019142Y-83935000D01*
X129043912Y-83939927D01*
G37*
G36*
X126503912Y-83939927D02*
G01*
X126653212Y-83969624D01*
X126817184Y-84037544D01*
X126964754Y-84136147D01*
X127090253Y-84261646D01*
X127188856Y-84409216D01*
X127256776Y-84573188D01*
X127291400Y-84747259D01*
X127291400Y-84924741D01*
X127256776Y-85098812D01*
X127188856Y-85262784D01*
X127090253Y-85410354D01*
X126964754Y-85535853D01*
X126817184Y-85634456D01*
X126653212Y-85702376D01*
X126503912Y-85732073D01*
X126479142Y-85737000D01*
X126301658Y-85737000D01*
X126276888Y-85732073D01*
X126127588Y-85702376D01*
X125963616Y-85634456D01*
X125816046Y-85535853D01*
X125690547Y-85410354D01*
X125591944Y-85262784D01*
X125524024Y-85098812D01*
X125489400Y-84924741D01*
X125489400Y-84747259D01*
X125524024Y-84573188D01*
X125591944Y-84409216D01*
X125690547Y-84261646D01*
X125816046Y-84136147D01*
X125963616Y-84037544D01*
X126127588Y-83969624D01*
X126276888Y-83939927D01*
X126301658Y-83935000D01*
X126479142Y-83935000D01*
X126503912Y-83939927D01*
G37*
G36*
X124751400Y-85737000D02*
G01*
X122949400Y-85737000D01*
X122949400Y-83935000D01*
X124751400Y-83935000D01*
X124751400Y-85737000D01*
G37*
G36*
X131583912Y-83939927D02*
G01*
X131733212Y-83969624D01*
X131897184Y-84037544D01*
X132044754Y-84136147D01*
X132170253Y-84261646D01*
X132268856Y-84409216D01*
X132336776Y-84573188D01*
X132371400Y-84747259D01*
X132371400Y-84924741D01*
X132336776Y-85098812D01*
X132268856Y-85262784D01*
X132170253Y-85410354D01*
X132044754Y-85535853D01*
X131897184Y-85634456D01*
X131733212Y-85702376D01*
X131583912Y-85732073D01*
X131559142Y-85737000D01*
X131381658Y-85737000D01*
X131356888Y-85732073D01*
X131207588Y-85702376D01*
X131043616Y-85634456D01*
X130896046Y-85535853D01*
X130770547Y-85410354D01*
X130671944Y-85262784D01*
X130604024Y-85098812D01*
X130569400Y-84924741D01*
X130569400Y-84747259D01*
X130604024Y-84573188D01*
X130671944Y-84409216D01*
X130770547Y-84261646D01*
X130896046Y-84136147D01*
X131043616Y-84037544D01*
X131207588Y-83969624D01*
X131356888Y-83939927D01*
X131381658Y-83935000D01*
X131559142Y-83935000D01*
X131583912Y-83939927D01*
G37*
G36*
X81070336Y-80078140D02*
G01*
X81168620Y-80087820D01*
X81357781Y-80145201D01*
X81532112Y-80238383D01*
X81684915Y-80363785D01*
X81810317Y-80516588D01*
X81903499Y-80690919D01*
X81960880Y-80880080D01*
X81980255Y-81076800D01*
X81960880Y-81273520D01*
X81903499Y-81462681D01*
X81810317Y-81637012D01*
X81684915Y-81789815D01*
X81532112Y-81915217D01*
X81357781Y-82008399D01*
X81168620Y-82065780D01*
X81070336Y-82075460D01*
X81021195Y-82080300D01*
X80827605Y-82080300D01*
X80778464Y-82075460D01*
X80680180Y-82065780D01*
X80491019Y-82008399D01*
X80316688Y-81915217D01*
X80163885Y-81789815D01*
X80038483Y-81637012D01*
X79945301Y-81462681D01*
X79887920Y-81273520D01*
X79868545Y-81076800D01*
X79887920Y-80880080D01*
X79945301Y-80690919D01*
X80038483Y-80516588D01*
X80163885Y-80363785D01*
X80316688Y-80238383D01*
X80491019Y-80145201D01*
X80680180Y-80087820D01*
X80778464Y-80078140D01*
X80827605Y-80073300D01*
X81021195Y-80073300D01*
X81070336Y-80078140D01*
G37*
G36*
X100350263Y-78626900D02*
G01*
X100462534Y-78649232D01*
X100610650Y-78710584D01*
X100666019Y-78733518D01*
X100672003Y-78735997D01*
X100860520Y-78861960D01*
X101020840Y-79022280D01*
X101146803Y-79210797D01*
X101232099Y-79416719D01*
X101233568Y-79420267D01*
X101277800Y-79642635D01*
X101277800Y-79869365D01*
X101255684Y-79980549D01*
X101233568Y-80091734D01*
X101146803Y-80301203D01*
X101020840Y-80489720D01*
X100860520Y-80650040D01*
X100672003Y-80776003D01*
X100672002Y-80776004D01*
X100672001Y-80776004D01*
X100610650Y-80801416D01*
X100462534Y-80862768D01*
X100375500Y-80880080D01*
X100240165Y-80907000D01*
X100013435Y-80907000D01*
X99878100Y-80880080D01*
X99791066Y-80862768D01*
X99642950Y-80801416D01*
X99581599Y-80776004D01*
X99581598Y-80776004D01*
X99581597Y-80776003D01*
X99393080Y-80650040D01*
X99232760Y-80489720D01*
X99106797Y-80301203D01*
X99020032Y-80091734D01*
X98997916Y-79980549D01*
X98975800Y-79869365D01*
X98975800Y-79642635D01*
X99020032Y-79420267D01*
X99021502Y-79416719D01*
X99106797Y-79210797D01*
X99232760Y-79022280D01*
X99393080Y-78861960D01*
X99581597Y-78735997D01*
X99587582Y-78733518D01*
X99642950Y-78710584D01*
X99791066Y-78649232D01*
X99903337Y-78626900D01*
X100013435Y-78605000D01*
X100240165Y-78605000D01*
X100350263Y-78626900D01*
G37*
G36*
X88816577Y-78595485D02*
G01*
X88840026Y-78602598D01*
X88864412Y-78605000D01*
X91117800Y-78605000D01*
X91117800Y-80907000D01*
X88815800Y-80907000D01*
X88815800Y-78595070D01*
X88816577Y-78595485D01*
G37*
G36*
X112008228Y-79140903D02*
G01*
X112163100Y-79205053D01*
X112302481Y-79298185D01*
X112421015Y-79416719D01*
X112514147Y-79556100D01*
X112578297Y-79710972D01*
X112611000Y-79875384D01*
X112611000Y-80043016D01*
X112578297Y-80207428D01*
X112514147Y-80362300D01*
X112421015Y-80501681D01*
X112302481Y-80620215D01*
X112163100Y-80713347D01*
X112008228Y-80777497D01*
X111843816Y-80810200D01*
X111676184Y-80810200D01*
X111511772Y-80777497D01*
X111356900Y-80713347D01*
X111217519Y-80620215D01*
X111098985Y-80501681D01*
X111005853Y-80362300D01*
X110941703Y-80207428D01*
X110909000Y-80043016D01*
X110909000Y-79875384D01*
X110941703Y-79710972D01*
X111005853Y-79556100D01*
X111098985Y-79416719D01*
X111217519Y-79298185D01*
X111356900Y-79205053D01*
X111511772Y-79140903D01*
X111676184Y-79108200D01*
X111843816Y-79108200D01*
X112008228Y-79140903D01*
G37*
G36*
X122168228Y-79140903D02*
G01*
X122323100Y-79205053D01*
X122462481Y-79298185D01*
X122581015Y-79416719D01*
X122674147Y-79556100D01*
X122738297Y-79710972D01*
X122771000Y-79875384D01*
X122771000Y-80043016D01*
X122738297Y-80207428D01*
X122674147Y-80362300D01*
X122581015Y-80501681D01*
X122462481Y-80620215D01*
X122323100Y-80713347D01*
X122168228Y-80777497D01*
X122003816Y-80810200D01*
X121836184Y-80810200D01*
X121671772Y-80777497D01*
X121516900Y-80713347D01*
X121377519Y-80620215D01*
X121258985Y-80501681D01*
X121165853Y-80362300D01*
X121101703Y-80207428D01*
X121069000Y-80043016D01*
X121069000Y-79875384D01*
X121101703Y-79710972D01*
X121165853Y-79556100D01*
X121258985Y-79416719D01*
X121377519Y-79298185D01*
X121516900Y-79205053D01*
X121671772Y-79140903D01*
X121836184Y-79108200D01*
X122003816Y-79108200D01*
X122168228Y-79140903D01*
G37*
G36*
X81070336Y-77538140D02*
G01*
X81168620Y-77547820D01*
X81357781Y-77605201D01*
X81532112Y-77698383D01*
X81684915Y-77823785D01*
X81810317Y-77976588D01*
X81903499Y-78150919D01*
X81960880Y-78340080D01*
X81980255Y-78536800D01*
X81960880Y-78733520D01*
X81903499Y-78922681D01*
X81810317Y-79097012D01*
X81684915Y-79249815D01*
X81532112Y-79375217D01*
X81357781Y-79468399D01*
X81168620Y-79525780D01*
X81070336Y-79535460D01*
X81021195Y-79540300D01*
X80827605Y-79540300D01*
X80778464Y-79535460D01*
X80680180Y-79525780D01*
X80491019Y-79468399D01*
X80316688Y-79375217D01*
X80163885Y-79249815D01*
X80038483Y-79097012D01*
X79945301Y-78922681D01*
X79887920Y-78733520D01*
X79868545Y-78536800D01*
X79887920Y-78340080D01*
X79945301Y-78150919D01*
X80038483Y-77976588D01*
X80163885Y-77823785D01*
X80316688Y-77698383D01*
X80491019Y-77605201D01*
X80680180Y-77547820D01*
X80778464Y-77538140D01*
X80827605Y-77533300D01*
X81021195Y-77533300D01*
X81070336Y-77538140D01*
G37*
G36*
X88171280Y-72486465D02*
G01*
X88470737Y-72546031D01*
X89034901Y-72779715D01*
X89542635Y-73118972D01*
X89974428Y-73550765D01*
X90313685Y-74058499D01*
X90547369Y-74622663D01*
X90666500Y-75221577D01*
X90666500Y-75832223D01*
X90547369Y-76431137D01*
X90313685Y-76995301D01*
X89974428Y-77503035D01*
X89542635Y-77934828D01*
X89034901Y-78274085D01*
X88816572Y-78364520D01*
X88794966Y-78376068D01*
X88776024Y-78391613D01*
X88760479Y-78410555D01*
X88748928Y-78432166D01*
X88746379Y-78440568D01*
X88738636Y-78436429D01*
X88715187Y-78429316D01*
X88690801Y-78426914D01*
X88666415Y-78429316D01*
X88642971Y-78436428D01*
X88470737Y-78507769D01*
X88171280Y-78567334D01*
X87871825Y-78626900D01*
X87261175Y-78626900D01*
X86961720Y-78567334D01*
X86662263Y-78507769D01*
X86098099Y-78274085D01*
X85590365Y-77934828D01*
X85158572Y-77503035D01*
X84819315Y-76995301D01*
X84585631Y-76431137D01*
X84466500Y-75832223D01*
X84466500Y-75221577D01*
X84585631Y-74622663D01*
X84819315Y-74058499D01*
X85158572Y-73550765D01*
X85590365Y-73118972D01*
X86098099Y-72779715D01*
X86662263Y-72546031D01*
X86961720Y-72486465D01*
X87261175Y-72426900D01*
X87871825Y-72426900D01*
X88171280Y-72486465D01*
G37*
G36*
X116111280Y-72486465D02*
G01*
X116410737Y-72546031D01*
X116974901Y-72779715D01*
X117482635Y-73118972D01*
X117914428Y-73550765D01*
X118253685Y-74058499D01*
X118487369Y-74622663D01*
X118606500Y-75221577D01*
X118606500Y-75832223D01*
X118487369Y-76431137D01*
X118253685Y-76995301D01*
X117914428Y-77503035D01*
X117482635Y-77934828D01*
X116974901Y-78274085D01*
X116410737Y-78507769D01*
X116111280Y-78567334D01*
X115811825Y-78626900D01*
X115201175Y-78626900D01*
X114901720Y-78567334D01*
X114602263Y-78507769D01*
X114038099Y-78274085D01*
X113530365Y-77934828D01*
X113098572Y-77503035D01*
X112759315Y-76995301D01*
X112525631Y-76431137D01*
X112406500Y-75832223D01*
X112406500Y-75221577D01*
X112525631Y-74622663D01*
X112759315Y-74058499D01*
X113098572Y-73550765D01*
X113530365Y-73118972D01*
X114038099Y-72779715D01*
X114602263Y-72546031D01*
X114901720Y-72486465D01*
X115201175Y-72426900D01*
X115811825Y-72426900D01*
X116111280Y-72486465D01*
G37*
G36*
X81975400Y-77000300D02*
G01*
X79873400Y-77000300D01*
X79873400Y-74993300D01*
X81975400Y-74993300D01*
X81975400Y-77000300D01*
G37*
G36*
X133141028Y-75229303D02*
G01*
X133295900Y-75293453D01*
X133435281Y-75386585D01*
X133553815Y-75505119D01*
X133646947Y-75644500D01*
X133711097Y-75799372D01*
X133743800Y-75963784D01*
X133743800Y-76131416D01*
X133711097Y-76295828D01*
X133646947Y-76450700D01*
X133553815Y-76590081D01*
X133435281Y-76708615D01*
X133295900Y-76801747D01*
X133141028Y-76865897D01*
X132976616Y-76898600D01*
X132808984Y-76898600D01*
X132644572Y-76865897D01*
X132489700Y-76801747D01*
X132350319Y-76708615D01*
X132231785Y-76590081D01*
X132138653Y-76450700D01*
X132074503Y-76295828D01*
X132041800Y-76131416D01*
X132041800Y-75963784D01*
X132074503Y-75799372D01*
X132138653Y-75644500D01*
X132231785Y-75505119D01*
X132350319Y-75386585D01*
X132489700Y-75293453D01*
X132644572Y-75229303D01*
X132808984Y-75196600D01*
X132976616Y-75196600D01*
X133141028Y-75229303D01*
G37*
G36*
X122981028Y-75229303D02*
G01*
X123135900Y-75293453D01*
X123275281Y-75386585D01*
X123393815Y-75505119D01*
X123486947Y-75644500D01*
X123551097Y-75799372D01*
X123583800Y-75963784D01*
X123583800Y-76131416D01*
X123551097Y-76295828D01*
X123486947Y-76450700D01*
X123393815Y-76590081D01*
X123275281Y-76708615D01*
X123135900Y-76801747D01*
X122981028Y-76865897D01*
X122816616Y-76898600D01*
X122648984Y-76898600D01*
X122484572Y-76865897D01*
X122329700Y-76801747D01*
X122190319Y-76708615D01*
X122071785Y-76590081D01*
X121978653Y-76450700D01*
X121914503Y-76295828D01*
X121881800Y-76131416D01*
X121881800Y-75963784D01*
X121914503Y-75799372D01*
X121978653Y-75644500D01*
X122071785Y-75505119D01*
X122190319Y-75386585D01*
X122329700Y-75293453D01*
X122484572Y-75229303D01*
X122648984Y-75196600D01*
X122816616Y-75196600D01*
X122981028Y-75229303D01*
G37*
G36*
X129053349Y-68670316D02*
G01*
X129164534Y-68692432D01*
X129374003Y-68779197D01*
X129562520Y-68905160D01*
X129722840Y-69065480D01*
X129848803Y-69253997D01*
X129935568Y-69463466D01*
X129979800Y-69685836D01*
X129979800Y-69912564D01*
X129935568Y-70134934D01*
X129848803Y-70344403D01*
X129722840Y-70532920D01*
X129562520Y-70693240D01*
X129374003Y-70819203D01*
X129164534Y-70905968D01*
X129053349Y-70928084D01*
X128942165Y-70950200D01*
X128715435Y-70950200D01*
X128604251Y-70928084D01*
X128493066Y-70905968D01*
X128283597Y-70819203D01*
X128095080Y-70693240D01*
X127934760Y-70532920D01*
X127808797Y-70344403D01*
X127722032Y-70134934D01*
X127677800Y-69912564D01*
X127677800Y-69685836D01*
X127722032Y-69463466D01*
X127808797Y-69253997D01*
X127934760Y-69065480D01*
X128095080Y-68905160D01*
X128283597Y-68779197D01*
X128493066Y-68692432D01*
X128604251Y-68670316D01*
X128715435Y-68648200D01*
X128942165Y-68648200D01*
X129053349Y-68670316D01*
G37*
G36*
X119819800Y-70950200D02*
G01*
X117517800Y-70950200D01*
X117517800Y-68648200D01*
X119819800Y-68648200D01*
X119819800Y-70950200D01*
G37*
G36*
X82188628Y-68625303D02*
G01*
X82343500Y-68689453D01*
X82482881Y-68782585D01*
X82601415Y-68901119D01*
X82694547Y-69040500D01*
X82758697Y-69195372D01*
X82791400Y-69359784D01*
X82791400Y-69527416D01*
X82758697Y-69691828D01*
X82694547Y-69846700D01*
X82601415Y-69986081D01*
X82482881Y-70104615D01*
X82343500Y-70197747D01*
X82188628Y-70261897D01*
X82024216Y-70294600D01*
X81856584Y-70294600D01*
X81692172Y-70261897D01*
X81537300Y-70197747D01*
X81397919Y-70104615D01*
X81279385Y-69986081D01*
X81186253Y-69846700D01*
X81122103Y-69691828D01*
X81089400Y-69527416D01*
X81089400Y-69359784D01*
X81122103Y-69195372D01*
X81186253Y-69040500D01*
X81279385Y-68901119D01*
X81397919Y-68782585D01*
X81537300Y-68689453D01*
X81692172Y-68625303D01*
X81856584Y-68592600D01*
X82024216Y-68592600D01*
X82188628Y-68625303D01*
G37*
G36*
X87522628Y-66542503D02*
G01*
X87677500Y-66606653D01*
X87816881Y-66699785D01*
X87935415Y-66818319D01*
X88028547Y-66957700D01*
X88092697Y-67112572D01*
X88125400Y-67276984D01*
X88125400Y-67444616D01*
X88092697Y-67609028D01*
X88028547Y-67763900D01*
X87935415Y-67903281D01*
X87816881Y-68021815D01*
X87677500Y-68114947D01*
X87522628Y-68179097D01*
X87358216Y-68211800D01*
X87190584Y-68211800D01*
X87026172Y-68179097D01*
X86871300Y-68114947D01*
X86731919Y-68021815D01*
X86613385Y-67903281D01*
X86520253Y-67763900D01*
X86456103Y-67609028D01*
X86423400Y-67444616D01*
X86423400Y-67276984D01*
X86456103Y-67112572D01*
X86520253Y-66957700D01*
X86613385Y-66818319D01*
X86731919Y-66699785D01*
X86871300Y-66606653D01*
X87026172Y-66542503D01*
X87190584Y-66509800D01*
X87358216Y-66509800D01*
X87522628Y-66542503D01*
G37*
G36*
X134200200Y-65315400D02*
G01*
X132398200Y-65315400D01*
X132398200Y-63513400D01*
X134200200Y-63513400D01*
X134200200Y-65315400D01*
G37*
G36*
X124120259Y-62676260D02*
G01*
X124244555Y-62727745D01*
X124256932Y-62732872D01*
X124379935Y-62815060D01*
X124484540Y-62919665D01*
X124566728Y-63042668D01*
X124623340Y-63179341D01*
X124652200Y-63324433D01*
X124652200Y-63472367D01*
X124623340Y-63617459D01*
X124566728Y-63754132D01*
X124484540Y-63877135D01*
X124379935Y-63981740D01*
X124256932Y-64063928D01*
X124256931Y-64063929D01*
X124256930Y-64063929D01*
X124120259Y-64120540D01*
X123975168Y-64149400D01*
X123827232Y-64149400D01*
X123682141Y-64120540D01*
X123545470Y-64063929D01*
X123545469Y-64063929D01*
X123545468Y-64063928D01*
X123422465Y-63981740D01*
X123317860Y-63877135D01*
X123235672Y-63754132D01*
X123179060Y-63617459D01*
X123150200Y-63472367D01*
X123150200Y-63324433D01*
X123179060Y-63179341D01*
X123235672Y-63042668D01*
X123317860Y-62919665D01*
X123422465Y-62815060D01*
X123545468Y-62732872D01*
X123557846Y-62727745D01*
X123682141Y-62676260D01*
X123827232Y-62647400D01*
X123975168Y-62647400D01*
X124120259Y-62676260D01*
G37*
G36*
X121580259Y-62676260D02*
G01*
X121704555Y-62727745D01*
X121716932Y-62732872D01*
X121839935Y-62815060D01*
X121944540Y-62919665D01*
X122026728Y-63042668D01*
X122083340Y-63179341D01*
X122112200Y-63324433D01*
X122112200Y-63472367D01*
X122083340Y-63617459D01*
X122026728Y-63754132D01*
X121944540Y-63877135D01*
X121839935Y-63981740D01*
X121716932Y-64063928D01*
X121716931Y-64063929D01*
X121716930Y-64063929D01*
X121580259Y-64120540D01*
X121435168Y-64149400D01*
X121287232Y-64149400D01*
X121142141Y-64120540D01*
X121005470Y-64063929D01*
X121005469Y-64063929D01*
X121005468Y-64063928D01*
X120882465Y-63981740D01*
X120777860Y-63877135D01*
X120695672Y-63754132D01*
X120639060Y-63617459D01*
X120610200Y-63472367D01*
X120610200Y-63324433D01*
X120639060Y-63179341D01*
X120695672Y-63042668D01*
X120777860Y-62919665D01*
X120882465Y-62815060D01*
X121005468Y-62732872D01*
X121017846Y-62727745D01*
X121142141Y-62676260D01*
X121287232Y-62647400D01*
X121435168Y-62647400D01*
X121580259Y-62676260D01*
G37*
G36*
X115311842Y-62464242D02*
G01*
X115459801Y-62525529D01*
X115592955Y-62614499D01*
X115706201Y-62727745D01*
X115795171Y-62860899D01*
X115856458Y-63008858D01*
X115887700Y-63165925D01*
X115887700Y-63326075D01*
X115856458Y-63483142D01*
X115795171Y-63631101D01*
X115706201Y-63764255D01*
X115592955Y-63877501D01*
X115459801Y-63966471D01*
X115311842Y-64027758D01*
X115154775Y-64059000D01*
X114994625Y-64059000D01*
X114837558Y-64027758D01*
X114689599Y-63966471D01*
X114556445Y-63877501D01*
X114443199Y-63764255D01*
X114354229Y-63631101D01*
X114292942Y-63483142D01*
X114261700Y-63326075D01*
X114261700Y-63165925D01*
X114292942Y-63008858D01*
X114354229Y-62860899D01*
X114443199Y-62727745D01*
X114556445Y-62614499D01*
X114689599Y-62525529D01*
X114837558Y-62464242D01*
X114994625Y-62433000D01*
X115154775Y-62433000D01*
X115311842Y-62464242D01*
G37*
G36*
X91372342Y-62464242D02*
G01*
X91520301Y-62525529D01*
X91653455Y-62614499D01*
X91766701Y-62727745D01*
X91855671Y-62860899D01*
X91916958Y-63008858D01*
X91948200Y-63165925D01*
X91948200Y-63326075D01*
X91916958Y-63483142D01*
X91855671Y-63631101D01*
X91766701Y-63764255D01*
X91653455Y-63877501D01*
X91520301Y-63966471D01*
X91372342Y-64027758D01*
X91215275Y-64059000D01*
X91055125Y-64059000D01*
X90898058Y-64027758D01*
X90750099Y-63966471D01*
X90616945Y-63877501D01*
X90503699Y-63764255D01*
X90414729Y-63631101D01*
X90353442Y-63483142D01*
X90322200Y-63326075D01*
X90322200Y-63165925D01*
X90353442Y-63008858D01*
X90414729Y-62860899D01*
X90503699Y-62727745D01*
X90616945Y-62614499D01*
X90750099Y-62525529D01*
X90898058Y-62464242D01*
X91055125Y-62433000D01*
X91215275Y-62433000D01*
X91372342Y-62464242D01*
G37*
G36*
X133412712Y-60978327D02*
G01*
X133562012Y-61008024D01*
X133725984Y-61075944D01*
X133873554Y-61174547D01*
X133999053Y-61300046D01*
X134097656Y-61447616D01*
X134165576Y-61611588D01*
X134200200Y-61785659D01*
X134200200Y-61963141D01*
X134165576Y-62137212D01*
X134097656Y-62301184D01*
X133999053Y-62448754D01*
X133873554Y-62574253D01*
X133725984Y-62672856D01*
X133562012Y-62740776D01*
X133412712Y-62770473D01*
X133387942Y-62775400D01*
X133210458Y-62775400D01*
X133185688Y-62770473D01*
X133036388Y-62740776D01*
X132872416Y-62672856D01*
X132724846Y-62574253D01*
X132599347Y-62448754D01*
X132500744Y-62301184D01*
X132432824Y-62137212D01*
X132398200Y-61963141D01*
X132398200Y-61785659D01*
X132432824Y-61611588D01*
X132500744Y-61447616D01*
X132599347Y-61300046D01*
X132724846Y-61174547D01*
X132872416Y-61075944D01*
X133036388Y-61008024D01*
X133185688Y-60978327D01*
X133210458Y-60973400D01*
X133387942Y-60973400D01*
X133412712Y-60978327D01*
G37*
G36*
X91372342Y-59924242D02*
G01*
X91520301Y-59985529D01*
X91653455Y-60074499D01*
X91766701Y-60187745D01*
X91855671Y-60320899D01*
X91916958Y-60468858D01*
X91948200Y-60625925D01*
X91948200Y-60786075D01*
X91916958Y-60943142D01*
X91855671Y-61091101D01*
X91766701Y-61224255D01*
X91653455Y-61337501D01*
X91520301Y-61426471D01*
X91372342Y-61487758D01*
X91215275Y-61519000D01*
X91055125Y-61519000D01*
X90898058Y-61487758D01*
X90750099Y-61426471D01*
X90616945Y-61337501D01*
X90503699Y-61224255D01*
X90414729Y-61091101D01*
X90353442Y-60943142D01*
X90322200Y-60786075D01*
X90322200Y-60625925D01*
X90353442Y-60468858D01*
X90414729Y-60320899D01*
X90503699Y-60187745D01*
X90616945Y-60074499D01*
X90750099Y-59985529D01*
X90898058Y-59924242D01*
X91055125Y-59893000D01*
X91215275Y-59893000D01*
X91372342Y-59924242D01*
G37*
G36*
X115311842Y-59924242D02*
G01*
X115459801Y-59985529D01*
X115592955Y-60074499D01*
X115706201Y-60187745D01*
X115795171Y-60320899D01*
X115856458Y-60468858D01*
X115887700Y-60625925D01*
X115887700Y-60786075D01*
X115856458Y-60943142D01*
X115795171Y-61091101D01*
X115706201Y-61224255D01*
X115592955Y-61337501D01*
X115459801Y-61426471D01*
X115311842Y-61487758D01*
X115154775Y-61519000D01*
X114994625Y-61519000D01*
X114837558Y-61487758D01*
X114689599Y-61426471D01*
X114556445Y-61337501D01*
X114443199Y-61224255D01*
X114354229Y-61091101D01*
X114292942Y-60943142D01*
X114261700Y-60786075D01*
X114261700Y-60625925D01*
X114292942Y-60468858D01*
X114354229Y-60320899D01*
X114443199Y-60187745D01*
X114556445Y-60074499D01*
X114689599Y-59985529D01*
X114837558Y-59924242D01*
X114994625Y-59893000D01*
X115154775Y-59893000D01*
X115311842Y-59924242D01*
G37*
G36*
X133412712Y-58438327D02*
G01*
X133562012Y-58468024D01*
X133725984Y-58535944D01*
X133873554Y-58634547D01*
X133999053Y-58760046D01*
X134097656Y-58907616D01*
X134165576Y-59071588D01*
X134200200Y-59245659D01*
X134200200Y-59423141D01*
X134165576Y-59597212D01*
X134097656Y-59761184D01*
X133999053Y-59908754D01*
X133873554Y-60034253D01*
X133725984Y-60132856D01*
X133562012Y-60200776D01*
X133412712Y-60230473D01*
X133387942Y-60235400D01*
X133210458Y-60235400D01*
X133185688Y-60230473D01*
X133036388Y-60200776D01*
X132872416Y-60132856D01*
X132724846Y-60034253D01*
X132599347Y-59908754D01*
X132500744Y-59761184D01*
X132432824Y-59597212D01*
X132398200Y-59423141D01*
X132398200Y-59245659D01*
X132432824Y-59071588D01*
X132500744Y-58907616D01*
X132599347Y-58760046D01*
X132724846Y-58634547D01*
X132872416Y-58535944D01*
X133036388Y-58468024D01*
X133185688Y-58438327D01*
X133210458Y-58433400D01*
X133387942Y-58433400D01*
X133412712Y-58438327D01*
G37*
G36*
X82188628Y-58465303D02*
G01*
X82343500Y-58529453D01*
X82482881Y-58622585D01*
X82601415Y-58741119D01*
X82694547Y-58880500D01*
X82758697Y-59035372D01*
X82791400Y-59199784D01*
X82791400Y-59367416D01*
X82758697Y-59531828D01*
X82694547Y-59686700D01*
X82601415Y-59826081D01*
X82482881Y-59944615D01*
X82343500Y-60037747D01*
X82188628Y-60101897D01*
X82024216Y-60134600D01*
X81856584Y-60134600D01*
X81692172Y-60101897D01*
X81537300Y-60037747D01*
X81397919Y-59944615D01*
X81279385Y-59826081D01*
X81186253Y-59686700D01*
X81122103Y-59531828D01*
X81089400Y-59367416D01*
X81089400Y-59199784D01*
X81122103Y-59035372D01*
X81186253Y-58880500D01*
X81279385Y-58741119D01*
X81397919Y-58622585D01*
X81537300Y-58529453D01*
X81692172Y-58465303D01*
X81856584Y-58432600D01*
X82024216Y-58432600D01*
X82188628Y-58465303D01*
G37*
G36*
X91372342Y-57384242D02*
G01*
X91520301Y-57445529D01*
X91653455Y-57534499D01*
X91766701Y-57647745D01*
X91855671Y-57780899D01*
X91916958Y-57928858D01*
X91948200Y-58085925D01*
X91948200Y-58246075D01*
X91916958Y-58403142D01*
X91855671Y-58551101D01*
X91766701Y-58684255D01*
X91653455Y-58797501D01*
X91520301Y-58886471D01*
X91372342Y-58947758D01*
X91215275Y-58979000D01*
X91055125Y-58979000D01*
X90898058Y-58947758D01*
X90750099Y-58886471D01*
X90616945Y-58797501D01*
X90503699Y-58684255D01*
X90414729Y-58551101D01*
X90353442Y-58403142D01*
X90322200Y-58246075D01*
X90322200Y-58085925D01*
X90353442Y-57928858D01*
X90414729Y-57780899D01*
X90503699Y-57647745D01*
X90616945Y-57534499D01*
X90750099Y-57445529D01*
X90898058Y-57384242D01*
X91055125Y-57353000D01*
X91215275Y-57353000D01*
X91372342Y-57384242D01*
G37*
G36*
X115311842Y-57384242D02*
G01*
X115459801Y-57445529D01*
X115592955Y-57534499D01*
X115706201Y-57647745D01*
X115795171Y-57780899D01*
X115856458Y-57928858D01*
X115887700Y-58085925D01*
X115887700Y-58246075D01*
X115856458Y-58403142D01*
X115795171Y-58551101D01*
X115706201Y-58684255D01*
X115592955Y-58797501D01*
X115459801Y-58886471D01*
X115311842Y-58947758D01*
X115154775Y-58979000D01*
X114994625Y-58979000D01*
X114837558Y-58947758D01*
X114689599Y-58886471D01*
X114556445Y-58797501D01*
X114443199Y-58684255D01*
X114354229Y-58551101D01*
X114292942Y-58403142D01*
X114261700Y-58246075D01*
X114261700Y-58085925D01*
X114292942Y-57928858D01*
X114354229Y-57780899D01*
X114443199Y-57647745D01*
X114556445Y-57534499D01*
X114689599Y-57445529D01*
X114837558Y-57384242D01*
X114994625Y-57353000D01*
X115154775Y-57353000D01*
X115311842Y-57384242D01*
G37*
G36*
X87522628Y-56382503D02*
G01*
X87677500Y-56446653D01*
X87816881Y-56539785D01*
X87935415Y-56658319D01*
X88028547Y-56797700D01*
X88092697Y-56952572D01*
X88125400Y-57116984D01*
X88125400Y-57284616D01*
X88092697Y-57449028D01*
X88028547Y-57603900D01*
X87935415Y-57743281D01*
X87816881Y-57861815D01*
X87677500Y-57954947D01*
X87522628Y-58019097D01*
X87358216Y-58051800D01*
X87190584Y-58051800D01*
X87026172Y-58019097D01*
X86871300Y-57954947D01*
X86731919Y-57861815D01*
X86613385Y-57743281D01*
X86520253Y-57603900D01*
X86456103Y-57449028D01*
X86423400Y-57284616D01*
X86423400Y-57116984D01*
X86456103Y-56952572D01*
X86520253Y-56797700D01*
X86613385Y-56658319D01*
X86731919Y-56539785D01*
X86871300Y-56446653D01*
X87026172Y-56382503D01*
X87190584Y-56349800D01*
X87358216Y-56349800D01*
X87522628Y-56382503D01*
G37*
G36*
X133412712Y-55898327D02*
G01*
X133562012Y-55928024D01*
X133725984Y-55995944D01*
X133873554Y-56094547D01*
X133999053Y-56220046D01*
X134097656Y-56367616D01*
X134165576Y-56531588D01*
X134200200Y-56705659D01*
X134200200Y-56883141D01*
X134165576Y-57057212D01*
X134097656Y-57221184D01*
X133999053Y-57368754D01*
X133873554Y-57494253D01*
X133725984Y-57592856D01*
X133562012Y-57660776D01*
X133412712Y-57690473D01*
X133387942Y-57695400D01*
X133210458Y-57695400D01*
X133185688Y-57690473D01*
X133036388Y-57660776D01*
X132872416Y-57592856D01*
X132724846Y-57494253D01*
X132599347Y-57368754D01*
X132500744Y-57221184D01*
X132432824Y-57057212D01*
X132398200Y-56883141D01*
X132398200Y-56705659D01*
X132432824Y-56531588D01*
X132500744Y-56367616D01*
X132599347Y-56220046D01*
X132724846Y-56094547D01*
X132872416Y-55995944D01*
X133036388Y-55928024D01*
X133185688Y-55898327D01*
X133210458Y-55893400D01*
X133387942Y-55893400D01*
X133412712Y-55898327D01*
G37*
G36*
X91372342Y-54844242D02*
G01*
X91520301Y-54905529D01*
X91653455Y-54994499D01*
X91766701Y-55107745D01*
X91855671Y-55240899D01*
X91916958Y-55388858D01*
X91948200Y-55545925D01*
X91948200Y-55706075D01*
X91916958Y-55863142D01*
X91855671Y-56011101D01*
X91766701Y-56144255D01*
X91653455Y-56257501D01*
X91520301Y-56346471D01*
X91372342Y-56407758D01*
X91215275Y-56439000D01*
X91055125Y-56439000D01*
X90898058Y-56407758D01*
X90750099Y-56346471D01*
X90616945Y-56257501D01*
X90503699Y-56144255D01*
X90414729Y-56011101D01*
X90353442Y-55863142D01*
X90322200Y-55706075D01*
X90322200Y-55545925D01*
X90353442Y-55388858D01*
X90414729Y-55240899D01*
X90503699Y-55107745D01*
X90616945Y-54994499D01*
X90750099Y-54905529D01*
X90898058Y-54844242D01*
X91055125Y-54813000D01*
X91215275Y-54813000D01*
X91372342Y-54844242D01*
G37*
G36*
X115311842Y-54844242D02*
G01*
X115459801Y-54905529D01*
X115592955Y-54994499D01*
X115706201Y-55107745D01*
X115795171Y-55240899D01*
X115856458Y-55388858D01*
X115887700Y-55545925D01*
X115887700Y-55706075D01*
X115856458Y-55863142D01*
X115795171Y-56011101D01*
X115706201Y-56144255D01*
X115592955Y-56257501D01*
X115459801Y-56346471D01*
X115311842Y-56407758D01*
X115154775Y-56439000D01*
X114994625Y-56439000D01*
X114837558Y-56407758D01*
X114689599Y-56346471D01*
X114556445Y-56257501D01*
X114443199Y-56144255D01*
X114354229Y-56011101D01*
X114292942Y-55863142D01*
X114261700Y-55706075D01*
X114261700Y-55545925D01*
X114292942Y-55388858D01*
X114354229Y-55240899D01*
X114443199Y-55107745D01*
X114556445Y-54994499D01*
X114689599Y-54905529D01*
X114837558Y-54844242D01*
X114994625Y-54813000D01*
X115154775Y-54813000D01*
X115311842Y-54844242D01*
G37*
G36*
X81766147Y-53648521D02*
G01*
X81845776Y-53656364D01*
X81999027Y-53702852D01*
X81999030Y-53702853D01*
X82140263Y-53778344D01*
X82264059Y-53879941D01*
X82365656Y-54003737D01*
X82441147Y-54144970D01*
X82441148Y-54144973D01*
X82487636Y-54298224D01*
X82503333Y-54457600D01*
X82487636Y-54616976D01*
X82441148Y-54770227D01*
X82441147Y-54770230D01*
X82365656Y-54911463D01*
X82264059Y-55035259D01*
X82140263Y-55136856D01*
X81999030Y-55212347D01*
X81999027Y-55212348D01*
X81845776Y-55258836D01*
X81766147Y-55266679D01*
X81726334Y-55270600D01*
X80122466Y-55270600D01*
X80082653Y-55266679D01*
X80003024Y-55258836D01*
X79849773Y-55212348D01*
X79849770Y-55212347D01*
X79708537Y-55136856D01*
X79584741Y-55035259D01*
X79483144Y-54911463D01*
X79407653Y-54770230D01*
X79407652Y-54770227D01*
X79361164Y-54616976D01*
X79345467Y-54457600D01*
X79361164Y-54298224D01*
X79407652Y-54144973D01*
X79407653Y-54144970D01*
X79483144Y-54003737D01*
X79584741Y-53879941D01*
X79708537Y-53778344D01*
X79849770Y-53702853D01*
X79849773Y-53702852D01*
X80003024Y-53656364D01*
X80082653Y-53648521D01*
X80122466Y-53644600D01*
X81726334Y-53644600D01*
X81766147Y-53648521D01*
G37*
G36*
X115311842Y-52304242D02*
G01*
X115459801Y-52365529D01*
X115592955Y-52454499D01*
X115706201Y-52567745D01*
X115795171Y-52700899D01*
X115856458Y-52848858D01*
X115887700Y-53005925D01*
X115887700Y-53166075D01*
X115856458Y-53323142D01*
X115795171Y-53471101D01*
X115706201Y-53604255D01*
X115592955Y-53717501D01*
X115459801Y-53806471D01*
X115311842Y-53867758D01*
X115154775Y-53899000D01*
X114994625Y-53899000D01*
X114837558Y-53867758D01*
X114689599Y-53806471D01*
X114556445Y-53717501D01*
X114443199Y-53604255D01*
X114354229Y-53471101D01*
X114292942Y-53323142D01*
X114261700Y-53166075D01*
X114261700Y-53005925D01*
X114292942Y-52848858D01*
X114354229Y-52700899D01*
X114443199Y-52567745D01*
X114556445Y-52454499D01*
X114689599Y-52365529D01*
X114837558Y-52304242D01*
X114994625Y-52273000D01*
X115154775Y-52273000D01*
X115311842Y-52304242D01*
G37*
G36*
X91372342Y-52304242D02*
G01*
X91520301Y-52365529D01*
X91653455Y-52454499D01*
X91766701Y-52567745D01*
X91855671Y-52700899D01*
X91916958Y-52848858D01*
X91948200Y-53005925D01*
X91948200Y-53166075D01*
X91916958Y-53323142D01*
X91855671Y-53471101D01*
X91766701Y-53604255D01*
X91653455Y-53717501D01*
X91520301Y-53806471D01*
X91372342Y-53867758D01*
X91215275Y-53899000D01*
X91055125Y-53899000D01*
X90898058Y-53867758D01*
X90750099Y-53806471D01*
X90616945Y-53717501D01*
X90503699Y-53604255D01*
X90414729Y-53471101D01*
X90353442Y-53323142D01*
X90322200Y-53166075D01*
X90322200Y-53005925D01*
X90353442Y-52848858D01*
X90414729Y-52700899D01*
X90503699Y-52567745D01*
X90616945Y-52454499D01*
X90750099Y-52365529D01*
X90898058Y-52304242D01*
X91055125Y-52273000D01*
X91215275Y-52273000D01*
X91372342Y-52304242D01*
G37*
G36*
X81766147Y-51108521D02*
G01*
X81845776Y-51116364D01*
X81999027Y-51162852D01*
X81999030Y-51162853D01*
X82140263Y-51238344D01*
X82264059Y-51339941D01*
X82365656Y-51463737D01*
X82441147Y-51604970D01*
X82441148Y-51604973D01*
X82487636Y-51758224D01*
X82503333Y-51917600D01*
X82487636Y-52076976D01*
X82441148Y-52230227D01*
X82441147Y-52230230D01*
X82365656Y-52371463D01*
X82264059Y-52495259D01*
X82140263Y-52596856D01*
X81999030Y-52672347D01*
X81999027Y-52672348D01*
X81845776Y-52718836D01*
X81766147Y-52726679D01*
X81726334Y-52730600D01*
X80122466Y-52730600D01*
X80082653Y-52726679D01*
X80003024Y-52718836D01*
X79849773Y-52672348D01*
X79849770Y-52672347D01*
X79708537Y-52596856D01*
X79584741Y-52495259D01*
X79483144Y-52371463D01*
X79407653Y-52230230D01*
X79407652Y-52230227D01*
X79361164Y-52076976D01*
X79345467Y-51917600D01*
X79361164Y-51758224D01*
X79407652Y-51604973D01*
X79407653Y-51604970D01*
X79483144Y-51463737D01*
X79584741Y-51339941D01*
X79708537Y-51238344D01*
X79849770Y-51162853D01*
X79849773Y-51162852D01*
X80003024Y-51116364D01*
X80082653Y-51108521D01*
X80122466Y-51104600D01*
X81726334Y-51104600D01*
X81766147Y-51108521D01*
G37*
G36*
X91372342Y-49764242D02*
G01*
X91520301Y-49825529D01*
X91653455Y-49914499D01*
X91766701Y-50027745D01*
X91855671Y-50160899D01*
X91916958Y-50308858D01*
X91948200Y-50465925D01*
X91948200Y-50626075D01*
X91916958Y-50783142D01*
X91855671Y-50931101D01*
X91766701Y-51064255D01*
X91653455Y-51177501D01*
X91520301Y-51266471D01*
X91372342Y-51327758D01*
X91215275Y-51359000D01*
X91055125Y-51359000D01*
X90898058Y-51327758D01*
X90750099Y-51266471D01*
X90616945Y-51177501D01*
X90503699Y-51064255D01*
X90414729Y-50931101D01*
X90353442Y-50783142D01*
X90322200Y-50626075D01*
X90322200Y-50465925D01*
X90353442Y-50308858D01*
X90414729Y-50160899D01*
X90503699Y-50027745D01*
X90616945Y-49914499D01*
X90750099Y-49825529D01*
X90898058Y-49764242D01*
X91055125Y-49733000D01*
X91215275Y-49733000D01*
X91372342Y-49764242D01*
G37*
G36*
X115311842Y-49764242D02*
G01*
X115459801Y-49825529D01*
X115592955Y-49914499D01*
X115706201Y-50027745D01*
X115795171Y-50160899D01*
X115856458Y-50308858D01*
X115887700Y-50465925D01*
X115887700Y-50626075D01*
X115856458Y-50783142D01*
X115795171Y-50931101D01*
X115706201Y-51064255D01*
X115592955Y-51177501D01*
X115459801Y-51266471D01*
X115311842Y-51327758D01*
X115154775Y-51359000D01*
X114994625Y-51359000D01*
X114837558Y-51327758D01*
X114689599Y-51266471D01*
X114556445Y-51177501D01*
X114443199Y-51064255D01*
X114354229Y-50931101D01*
X114292942Y-50783142D01*
X114261700Y-50626075D01*
X114261700Y-50465925D01*
X114292942Y-50308858D01*
X114354229Y-50160899D01*
X114443199Y-50027745D01*
X114556445Y-49914499D01*
X114689599Y-49825529D01*
X114837558Y-49764242D01*
X114994625Y-49733000D01*
X115154775Y-49733000D01*
X115311842Y-49764242D01*
G37*
G36*
X81766147Y-48568521D02*
G01*
X81845776Y-48576364D01*
X81999027Y-48622852D01*
X81999030Y-48622853D01*
X82140263Y-48698344D01*
X82264059Y-48799941D01*
X82365656Y-48923737D01*
X82441147Y-49064970D01*
X82441148Y-49064973D01*
X82487636Y-49218224D01*
X82503333Y-49377600D01*
X82487636Y-49536976D01*
X82441148Y-49690227D01*
X82441147Y-49690230D01*
X82365656Y-49831463D01*
X82264059Y-49955259D01*
X82140263Y-50056856D01*
X81999030Y-50132347D01*
X81999027Y-50132348D01*
X81845776Y-50178836D01*
X81766147Y-50186679D01*
X81726334Y-50190600D01*
X80122466Y-50190600D01*
X80082653Y-50186679D01*
X80003024Y-50178836D01*
X79849773Y-50132348D01*
X79849770Y-50132347D01*
X79708537Y-50056856D01*
X79584741Y-49955259D01*
X79483144Y-49831463D01*
X79407653Y-49690230D01*
X79407652Y-49690227D01*
X79361164Y-49536976D01*
X79345467Y-49377600D01*
X79361164Y-49218224D01*
X79407652Y-49064973D01*
X79407653Y-49064970D01*
X79483144Y-48923737D01*
X79584741Y-48799941D01*
X79708537Y-48698344D01*
X79849770Y-48622853D01*
X79849773Y-48622852D01*
X80003024Y-48576364D01*
X80082653Y-48568521D01*
X80122466Y-48564600D01*
X81726334Y-48564600D01*
X81766147Y-48568521D01*
G37*
G36*
X115311842Y-47224242D02*
G01*
X115459801Y-47285529D01*
X115592955Y-47374499D01*
X115706201Y-47487745D01*
X115795171Y-47620899D01*
X115856458Y-47768858D01*
X115887700Y-47925925D01*
X115887700Y-48086075D01*
X115856458Y-48243142D01*
X115795171Y-48391101D01*
X115706201Y-48524255D01*
X115592955Y-48637501D01*
X115459801Y-48726471D01*
X115311842Y-48787758D01*
X115154775Y-48819000D01*
X114994625Y-48819000D01*
X114837558Y-48787758D01*
X114689599Y-48726471D01*
X114556445Y-48637501D01*
X114443199Y-48524255D01*
X114354229Y-48391101D01*
X114292942Y-48243142D01*
X114261700Y-48086075D01*
X114261700Y-47925925D01*
X114292942Y-47768858D01*
X114354229Y-47620899D01*
X114443199Y-47487745D01*
X114556445Y-47374499D01*
X114689599Y-47285529D01*
X114837558Y-47224242D01*
X114994625Y-47193000D01*
X115154775Y-47193000D01*
X115311842Y-47224242D01*
G37*
G36*
X91372342Y-47224242D02*
G01*
X91520301Y-47285529D01*
X91653455Y-47374499D01*
X91766701Y-47487745D01*
X91855671Y-47620899D01*
X91916958Y-47768858D01*
X91948200Y-47925925D01*
X91948200Y-48086075D01*
X91916958Y-48243142D01*
X91855671Y-48391101D01*
X91766701Y-48524255D01*
X91653455Y-48637501D01*
X91520301Y-48726471D01*
X91372342Y-48787758D01*
X91215275Y-48819000D01*
X91055125Y-48819000D01*
X90898058Y-48787758D01*
X90750099Y-48726471D01*
X90616945Y-48637501D01*
X90503699Y-48524255D01*
X90414729Y-48391101D01*
X90353442Y-48243142D01*
X90322200Y-48086075D01*
X90322200Y-47925925D01*
X90353442Y-47768858D01*
X90414729Y-47620899D01*
X90503699Y-47487745D01*
X90616945Y-47374499D01*
X90750099Y-47285529D01*
X90898058Y-47224242D01*
X91055125Y-47193000D01*
X91215275Y-47193000D01*
X91372342Y-47224242D01*
G37*
G36*
X134149400Y-47687800D02*
G01*
X132347400Y-47687800D01*
X132347400Y-45885800D01*
X134149400Y-45885800D01*
X134149400Y-47687800D01*
G37*
G36*
X115311842Y-44684242D02*
G01*
X115459801Y-44745529D01*
X115592955Y-44834499D01*
X115706201Y-44947745D01*
X115795171Y-45080899D01*
X115856458Y-45228858D01*
X115887700Y-45385925D01*
X115887700Y-45546075D01*
X115856458Y-45703142D01*
X115795171Y-45851101D01*
X115706201Y-45984255D01*
X115592955Y-46097501D01*
X115459801Y-46186471D01*
X115311842Y-46247758D01*
X115154775Y-46279000D01*
X114994625Y-46279000D01*
X114837558Y-46247758D01*
X114689599Y-46186471D01*
X114556445Y-46097501D01*
X114443199Y-45984255D01*
X114354229Y-45851101D01*
X114292942Y-45703142D01*
X114261700Y-45546075D01*
X114261700Y-45385925D01*
X114292942Y-45228858D01*
X114354229Y-45080899D01*
X114443199Y-44947745D01*
X114556445Y-44834499D01*
X114689599Y-44745529D01*
X114837558Y-44684242D01*
X114994625Y-44653000D01*
X115154775Y-44653000D01*
X115311842Y-44684242D01*
G37*
G36*
X91372342Y-44684242D02*
G01*
X91520301Y-44745529D01*
X91653455Y-44834499D01*
X91766701Y-44947745D01*
X91855671Y-45080899D01*
X91916958Y-45228858D01*
X91948200Y-45385925D01*
X91948200Y-45546075D01*
X91916958Y-45703142D01*
X91855671Y-45851101D01*
X91766701Y-45984255D01*
X91653455Y-46097501D01*
X91520301Y-46186471D01*
X91372342Y-46247758D01*
X91215275Y-46279000D01*
X91055125Y-46279000D01*
X90898058Y-46247758D01*
X90750099Y-46186471D01*
X90616945Y-46097501D01*
X90503699Y-45984255D01*
X90414729Y-45851101D01*
X90353442Y-45703142D01*
X90322200Y-45546075D01*
X90322200Y-45385925D01*
X90353442Y-45228858D01*
X90414729Y-45080899D01*
X90503699Y-44947745D01*
X90616945Y-44834499D01*
X90750099Y-44745529D01*
X90898058Y-44684242D01*
X91055125Y-44653000D01*
X91215275Y-44653000D01*
X91372342Y-44684242D01*
G37*
G36*
X133361912Y-43350727D02*
G01*
X133511212Y-43380424D01*
X133675184Y-43448344D01*
X133822754Y-43546947D01*
X133948253Y-43672446D01*
X134046856Y-43820016D01*
X134114776Y-43983988D01*
X134149400Y-44158059D01*
X134149400Y-44335541D01*
X134114776Y-44509612D01*
X134046856Y-44673584D01*
X133948253Y-44821154D01*
X133822754Y-44946653D01*
X133675184Y-45045256D01*
X133511212Y-45113176D01*
X133361912Y-45142873D01*
X133337142Y-45147800D01*
X133159658Y-45147800D01*
X133134888Y-45142873D01*
X132985588Y-45113176D01*
X132821616Y-45045256D01*
X132674046Y-44946653D01*
X132548547Y-44821154D01*
X132449944Y-44673584D01*
X132382024Y-44509612D01*
X132347400Y-44335541D01*
X132347400Y-44158059D01*
X132382024Y-43983988D01*
X132449944Y-43820016D01*
X132548547Y-43672446D01*
X132674046Y-43546947D01*
X132821616Y-43448344D01*
X132985588Y-43380424D01*
X133134888Y-43350727D01*
X133159658Y-43345800D01*
X133337142Y-43345800D01*
X133361912Y-43350727D01*
G37*
G36*
X115311842Y-42144242D02*
G01*
X115459801Y-42205529D01*
X115592955Y-42294499D01*
X115706201Y-42407745D01*
X115795171Y-42540899D01*
X115856458Y-42688858D01*
X115887700Y-42845925D01*
X115887700Y-43006075D01*
X115856458Y-43163142D01*
X115795171Y-43311101D01*
X115706201Y-43444255D01*
X115592955Y-43557501D01*
X115459801Y-43646471D01*
X115311842Y-43707758D01*
X115154775Y-43739000D01*
X114994625Y-43739000D01*
X114837558Y-43707758D01*
X114689599Y-43646471D01*
X114556445Y-43557501D01*
X114443199Y-43444255D01*
X114354229Y-43311101D01*
X114292942Y-43163142D01*
X114261700Y-43006075D01*
X114261700Y-42845925D01*
X114292942Y-42688858D01*
X114354229Y-42540899D01*
X114443199Y-42407745D01*
X114556445Y-42294499D01*
X114689599Y-42205529D01*
X114837558Y-42144242D01*
X114994625Y-42113000D01*
X115154775Y-42113000D01*
X115311842Y-42144242D01*
G37*
G36*
X91372342Y-42144242D02*
G01*
X91520301Y-42205529D01*
X91653455Y-42294499D01*
X91766701Y-42407745D01*
X91855671Y-42540899D01*
X91916958Y-42688858D01*
X91948200Y-42845925D01*
X91948200Y-43006075D01*
X91916958Y-43163142D01*
X91855671Y-43311101D01*
X91766701Y-43444255D01*
X91653455Y-43557501D01*
X91520301Y-43646471D01*
X91372342Y-43707758D01*
X91215275Y-43739000D01*
X91055125Y-43739000D01*
X90898058Y-43707758D01*
X90750099Y-43646471D01*
X90616945Y-43557501D01*
X90503699Y-43444255D01*
X90414729Y-43311101D01*
X90353442Y-43163142D01*
X90322200Y-43006075D01*
X90322200Y-42845925D01*
X90353442Y-42688858D01*
X90414729Y-42540899D01*
X90503699Y-42407745D01*
X90616945Y-42294499D01*
X90750099Y-42205529D01*
X90898058Y-42144242D01*
X91055125Y-42113000D01*
X91215275Y-42113000D01*
X91372342Y-42144242D01*
G37*
G36*
X85632515Y-40861334D02*
G01*
X85665024Y-40871195D01*
X85694982Y-40887209D01*
X85721241Y-40908759D01*
X85742791Y-40935018D01*
X85758805Y-40964976D01*
X85768666Y-40997485D01*
X85772600Y-41037429D01*
X85772600Y-42579371D01*
X85768666Y-42619315D01*
X85758805Y-42651824D01*
X85742791Y-42681782D01*
X85721241Y-42708041D01*
X85694982Y-42729591D01*
X85665024Y-42745605D01*
X85632515Y-42755466D01*
X85592571Y-42759400D01*
X82250629Y-42759400D01*
X82210685Y-42755466D01*
X82178176Y-42745605D01*
X82148218Y-42729591D01*
X82121959Y-42708041D01*
X82100409Y-42681782D01*
X82084395Y-42651824D01*
X82074534Y-42619315D01*
X82070600Y-42579371D01*
X82070600Y-41037429D01*
X82074534Y-40997485D01*
X82084395Y-40964976D01*
X82100409Y-40935018D01*
X82121959Y-40908759D01*
X82148218Y-40887209D01*
X82178176Y-40871195D01*
X82210685Y-40861334D01*
X82250629Y-40857400D01*
X85592571Y-40857400D01*
X85632515Y-40861334D01*
G37*
G36*
X133361912Y-40810727D02*
G01*
X133511212Y-40840424D01*
X133675184Y-40908344D01*
X133822754Y-41006947D01*
X133948253Y-41132446D01*
X134046856Y-41280016D01*
X134114776Y-41443988D01*
X134149400Y-41618059D01*
X134149400Y-41795541D01*
X134114776Y-41969612D01*
X134046856Y-42133584D01*
X133948253Y-42281154D01*
X133822754Y-42406653D01*
X133675184Y-42505256D01*
X133511212Y-42573176D01*
X133361912Y-42602873D01*
X133337142Y-42607800D01*
X133159658Y-42607800D01*
X133134888Y-42602873D01*
X132985588Y-42573176D01*
X132821616Y-42505256D01*
X132674046Y-42406653D01*
X132548547Y-42281154D01*
X132449944Y-42133584D01*
X132382024Y-41969612D01*
X132347400Y-41795541D01*
X132347400Y-41618059D01*
X132382024Y-41443988D01*
X132449944Y-41280016D01*
X132548547Y-41132446D01*
X132674046Y-41006947D01*
X132821616Y-40908344D01*
X132985588Y-40840424D01*
X133134888Y-40810727D01*
X133159658Y-40805800D01*
X133337142Y-40805800D01*
X133361912Y-40810727D01*
G37*
G36*
X91372342Y-39604242D02*
G01*
X91520301Y-39665529D01*
X91653455Y-39754499D01*
X91766701Y-39867745D01*
X91855671Y-40000899D01*
X91916958Y-40148858D01*
X91948200Y-40305925D01*
X91948200Y-40466075D01*
X91916958Y-40623142D01*
X91855671Y-40771101D01*
X91766701Y-40904255D01*
X91653455Y-41017501D01*
X91520301Y-41106471D01*
X91372342Y-41167758D01*
X91215275Y-41199000D01*
X91055125Y-41199000D01*
X90898058Y-41167758D01*
X90750099Y-41106471D01*
X90616945Y-41017501D01*
X90503699Y-40904255D01*
X90414729Y-40771101D01*
X90353442Y-40623142D01*
X90322200Y-40466075D01*
X90322200Y-40305925D01*
X90353442Y-40148858D01*
X90414729Y-40000899D01*
X90503699Y-39867745D01*
X90616945Y-39754499D01*
X90750099Y-39665529D01*
X90898058Y-39604242D01*
X91055125Y-39573000D01*
X91215275Y-39573000D01*
X91372342Y-39604242D01*
G37*
G36*
X115311842Y-39540742D02*
G01*
X115459801Y-39602029D01*
X115592955Y-39690999D01*
X115706201Y-39804245D01*
X115795171Y-39937399D01*
X115856458Y-40085358D01*
X115887700Y-40242425D01*
X115887700Y-40402575D01*
X115856458Y-40559642D01*
X115795171Y-40707601D01*
X115706201Y-40840755D01*
X115592955Y-40954001D01*
X115459801Y-41042971D01*
X115311842Y-41104258D01*
X115154775Y-41135500D01*
X114994625Y-41135500D01*
X114837558Y-41104258D01*
X114689599Y-41042971D01*
X114556445Y-40954001D01*
X114443199Y-40840755D01*
X114354229Y-40707601D01*
X114292942Y-40559642D01*
X114261700Y-40402575D01*
X114261700Y-40242425D01*
X114292942Y-40085358D01*
X114354229Y-39937399D01*
X114443199Y-39804245D01*
X114556445Y-39690999D01*
X114689599Y-39602029D01*
X114837558Y-39540742D01*
X114994625Y-39509500D01*
X115154775Y-39509500D01*
X115311842Y-39540742D01*
G37*
G36*
X133361912Y-38270727D02*
G01*
X133511212Y-38300424D01*
X133675184Y-38368344D01*
X133822754Y-38466947D01*
X133948253Y-38592446D01*
X134046856Y-38740016D01*
X134114776Y-38903988D01*
X134149400Y-39078059D01*
X134149400Y-39255541D01*
X134114776Y-39429612D01*
X134046856Y-39593584D01*
X133948253Y-39741154D01*
X133822754Y-39866653D01*
X133675184Y-39965256D01*
X133511212Y-40033176D01*
X133361912Y-40062873D01*
X133337142Y-40067800D01*
X133159658Y-40067800D01*
X133134888Y-40062873D01*
X132985588Y-40033176D01*
X132821616Y-39965256D01*
X132674046Y-39866653D01*
X132548547Y-39741154D01*
X132449944Y-39593584D01*
X132382024Y-39429612D01*
X132347400Y-39255541D01*
X132347400Y-39078059D01*
X132382024Y-38903988D01*
X132449944Y-38740016D01*
X132548547Y-38592446D01*
X132674046Y-38466947D01*
X132821616Y-38368344D01*
X132985588Y-38300424D01*
X133134888Y-38270727D01*
X133159658Y-38265800D01*
X133337142Y-38265800D01*
X133361912Y-38270727D01*
G37*
G36*
X91372342Y-37064242D02*
G01*
X91520301Y-37125529D01*
X91653455Y-37214499D01*
X91766701Y-37327745D01*
X91855671Y-37460899D01*
X91916958Y-37608858D01*
X91948200Y-37765925D01*
X91948200Y-37926075D01*
X91916958Y-38083142D01*
X91855671Y-38231101D01*
X91766701Y-38364255D01*
X91653455Y-38477501D01*
X91520301Y-38566471D01*
X91372342Y-38627758D01*
X91215275Y-38659000D01*
X91055125Y-38659000D01*
X90898058Y-38627758D01*
X90750099Y-38566471D01*
X90616945Y-38477501D01*
X90503699Y-38364255D01*
X90414729Y-38231101D01*
X90353442Y-38083142D01*
X90322200Y-37926075D01*
X90322200Y-37765925D01*
X90353442Y-37608858D01*
X90414729Y-37460899D01*
X90503699Y-37327745D01*
X90616945Y-37214499D01*
X90750099Y-37125529D01*
X90898058Y-37064242D01*
X91055125Y-37033000D01*
X91215275Y-37033000D01*
X91372342Y-37064242D01*
G37*
G36*
X115311842Y-37000742D02*
G01*
X115459801Y-37062029D01*
X115592955Y-37150999D01*
X115706201Y-37264245D01*
X115795171Y-37397399D01*
X115856458Y-37545358D01*
X115887700Y-37702425D01*
X115887700Y-37862575D01*
X115856458Y-38019642D01*
X115795171Y-38167601D01*
X115706201Y-38300755D01*
X115592955Y-38414001D01*
X115459801Y-38502971D01*
X115311842Y-38564258D01*
X115154775Y-38595500D01*
X114994625Y-38595500D01*
X114837558Y-38564258D01*
X114689599Y-38502971D01*
X114556445Y-38414001D01*
X114443199Y-38300755D01*
X114354229Y-38167601D01*
X114292942Y-38019642D01*
X114261700Y-37862575D01*
X114261700Y-37702425D01*
X114292942Y-37545358D01*
X114354229Y-37397399D01*
X114443199Y-37264245D01*
X114556445Y-37150999D01*
X114689599Y-37062029D01*
X114837558Y-37000742D01*
X114994625Y-36969500D01*
X115154775Y-36969500D01*
X115311842Y-37000742D01*
G37*
G36*
X85008025Y-35791160D02*
G01*
X85008028Y-35791161D01*
X85008029Y-35791161D01*
X85187293Y-35845540D01*
X85187296Y-35845542D01*
X85187297Y-35845542D01*
X85352503Y-35933846D01*
X85497312Y-36052688D01*
X85616154Y-36197497D01*
X85617501Y-36200018D01*
X85704460Y-36362707D01*
X85757652Y-36538058D01*
X85758840Y-36541975D01*
X85777201Y-36728400D01*
X85758840Y-36914825D01*
X85758839Y-36914828D01*
X85758839Y-36914829D01*
X85704460Y-37094093D01*
X85704458Y-37094096D01*
X85704458Y-37094097D01*
X85616154Y-37259303D01*
X85497312Y-37404112D01*
X85352503Y-37522954D01*
X85191789Y-37608857D01*
X85187293Y-37611260D01*
X85008029Y-37665639D01*
X85008028Y-37665639D01*
X85008025Y-37665640D01*
X84868318Y-37679400D01*
X82974882Y-37679400D01*
X82835175Y-37665640D01*
X82835172Y-37665639D01*
X82835171Y-37665639D01*
X82655907Y-37611260D01*
X82651411Y-37608857D01*
X82490697Y-37522954D01*
X82345888Y-37404112D01*
X82227046Y-37259303D01*
X82138742Y-37094097D01*
X82138742Y-37094096D01*
X82138740Y-37094093D01*
X82084361Y-36914829D01*
X82084361Y-36914828D01*
X82084360Y-36914825D01*
X82065999Y-36728400D01*
X82084360Y-36541975D01*
X82085548Y-36538058D01*
X82138740Y-36362707D01*
X82225699Y-36200018D01*
X82227046Y-36197497D01*
X82345888Y-36052688D01*
X82490697Y-35933846D01*
X82655903Y-35845542D01*
X82655904Y-35845542D01*
X82655907Y-35845540D01*
X82835171Y-35791161D01*
X82835172Y-35791161D01*
X82835175Y-35791160D01*
X82974882Y-35777400D01*
X84868318Y-35777400D01*
X85008025Y-35791160D01*
G37*
G36*
X133361912Y-35730727D02*
G01*
X133511212Y-35760424D01*
X133675184Y-35828344D01*
X133822754Y-35926947D01*
X133948253Y-36052446D01*
X134046856Y-36200016D01*
X134114776Y-36363988D01*
X134149400Y-36538059D01*
X134149400Y-36715541D01*
X134114776Y-36889612D01*
X134046856Y-37053584D01*
X133948253Y-37201154D01*
X133822754Y-37326653D01*
X133675184Y-37425256D01*
X133511212Y-37493176D01*
X133361912Y-37522873D01*
X133337142Y-37527800D01*
X133159658Y-37527800D01*
X133134888Y-37522873D01*
X132985588Y-37493176D01*
X132821616Y-37425256D01*
X132674046Y-37326653D01*
X132548547Y-37201154D01*
X132449944Y-37053584D01*
X132382024Y-36889612D01*
X132347400Y-36715541D01*
X132347400Y-36538059D01*
X132382024Y-36363988D01*
X132449944Y-36200016D01*
X132548547Y-36052446D01*
X132674046Y-35926947D01*
X132821616Y-35828344D01*
X132985588Y-35760424D01*
X133134888Y-35730727D01*
X133159658Y-35725800D01*
X133337142Y-35725800D01*
X133361912Y-35730727D01*
G37*
G36*
X91372342Y-34524242D02*
G01*
X91520301Y-34585529D01*
X91653455Y-34674499D01*
X91766701Y-34787745D01*
X91855671Y-34920899D01*
X91916958Y-35068858D01*
X91948200Y-35225925D01*
X91948200Y-35386075D01*
X91916958Y-35543142D01*
X91855671Y-35691101D01*
X91766701Y-35824255D01*
X91653455Y-35937501D01*
X91520301Y-36026471D01*
X91372342Y-36087758D01*
X91215275Y-36119000D01*
X91055125Y-36119000D01*
X90898058Y-36087758D01*
X90750099Y-36026471D01*
X90616945Y-35937501D01*
X90503699Y-35824255D01*
X90414729Y-35691101D01*
X90353442Y-35543142D01*
X90322200Y-35386075D01*
X90322200Y-35225925D01*
X90353442Y-35068858D01*
X90414729Y-34920899D01*
X90503699Y-34787745D01*
X90616945Y-34674499D01*
X90750099Y-34585529D01*
X90898058Y-34524242D01*
X91055125Y-34493000D01*
X91215275Y-34493000D01*
X91372342Y-34524242D01*
G37*
G36*
X115311842Y-34460742D02*
G01*
X115459801Y-34522029D01*
X115592955Y-34610999D01*
X115706201Y-34724245D01*
X115795171Y-34857399D01*
X115856458Y-35005358D01*
X115887700Y-35162425D01*
X115887700Y-35322575D01*
X115856458Y-35479642D01*
X115795171Y-35627601D01*
X115706201Y-35760755D01*
X115592955Y-35874001D01*
X115459801Y-35962971D01*
X115311842Y-36024258D01*
X115154775Y-36055500D01*
X114994625Y-36055500D01*
X114837558Y-36024258D01*
X114689599Y-35962971D01*
X114556445Y-35874001D01*
X114443199Y-35760755D01*
X114354229Y-35627601D01*
X114292942Y-35479642D01*
X114261700Y-35322575D01*
X114261700Y-35162425D01*
X114292942Y-35005358D01*
X114354229Y-34857399D01*
X114443199Y-34724245D01*
X114556445Y-34610999D01*
X114689599Y-34522029D01*
X114837558Y-34460742D01*
X114994625Y-34429500D01*
X115154775Y-34429500D01*
X115311842Y-34460742D01*
G37*
G36*
X133361912Y-33190727D02*
G01*
X133511212Y-33220424D01*
X133675184Y-33288344D01*
X133822754Y-33386947D01*
X133948253Y-33512446D01*
X134046856Y-33660016D01*
X134114776Y-33823988D01*
X134149400Y-33998059D01*
X134149400Y-34175541D01*
X134114776Y-34349612D01*
X134046856Y-34513584D01*
X133948253Y-34661154D01*
X133822754Y-34786653D01*
X133675184Y-34885256D01*
X133511212Y-34953176D01*
X133361912Y-34982873D01*
X133337142Y-34987800D01*
X133159658Y-34987800D01*
X133134888Y-34982873D01*
X132985588Y-34953176D01*
X132821616Y-34885256D01*
X132674046Y-34786653D01*
X132548547Y-34661154D01*
X132449944Y-34513584D01*
X132382024Y-34349612D01*
X132347400Y-34175541D01*
X132347400Y-33998059D01*
X132382024Y-33823988D01*
X132449944Y-33660016D01*
X132548547Y-33512446D01*
X132674046Y-33386947D01*
X132821616Y-33288344D01*
X132985588Y-33220424D01*
X133134888Y-33190727D01*
X133159658Y-33185800D01*
X133337142Y-33185800D01*
X133361912Y-33190727D01*
G37*
G36*
X91372342Y-31984242D02*
G01*
X91520301Y-32045529D01*
X91653455Y-32134499D01*
X91766701Y-32247745D01*
X91855671Y-32380899D01*
X91916958Y-32528858D01*
X91948200Y-32685925D01*
X91948200Y-32846075D01*
X91916958Y-33003142D01*
X91855671Y-33151101D01*
X91766701Y-33284255D01*
X91653455Y-33397501D01*
X91520301Y-33486471D01*
X91372342Y-33547758D01*
X91215275Y-33579000D01*
X91055125Y-33579000D01*
X90898058Y-33547758D01*
X90750099Y-33486471D01*
X90616945Y-33397501D01*
X90503699Y-33284255D01*
X90414729Y-33151101D01*
X90353442Y-33003142D01*
X90322200Y-32846075D01*
X90322200Y-32685925D01*
X90353442Y-32528858D01*
X90414729Y-32380899D01*
X90503699Y-32247745D01*
X90616945Y-32134499D01*
X90750099Y-32045529D01*
X90898058Y-31984242D01*
X91055125Y-31953000D01*
X91215275Y-31953000D01*
X91372342Y-31984242D01*
G37*
G36*
X115311842Y-31920742D02*
G01*
X115459801Y-31982029D01*
X115592955Y-32070999D01*
X115706201Y-32184245D01*
X115795171Y-32317399D01*
X115856458Y-32465358D01*
X115887700Y-32622425D01*
X115887700Y-32782575D01*
X115856458Y-32939642D01*
X115795171Y-33087601D01*
X115706201Y-33220755D01*
X115592955Y-33334001D01*
X115459801Y-33422971D01*
X115311842Y-33484258D01*
X115154775Y-33515500D01*
X114994625Y-33515500D01*
X114837558Y-33484258D01*
X114689599Y-33422971D01*
X114556445Y-33334001D01*
X114443199Y-33220755D01*
X114354229Y-33087601D01*
X114292942Y-32939642D01*
X114261700Y-32782575D01*
X114261700Y-32622425D01*
X114292942Y-32465358D01*
X114354229Y-32317399D01*
X114443199Y-32184245D01*
X114556445Y-32070999D01*
X114689599Y-31982029D01*
X114837558Y-31920742D01*
X114994625Y-31889500D01*
X115154775Y-31889500D01*
X115311842Y-31920742D01*
G37*
G36*
X133361912Y-30650727D02*
G01*
X133511212Y-30680424D01*
X133675184Y-30748344D01*
X133822754Y-30846947D01*
X133948253Y-30972446D01*
X134046856Y-31120016D01*
X134114776Y-31283988D01*
X134149400Y-31458059D01*
X134149400Y-31635541D01*
X134114776Y-31809612D01*
X134046856Y-31973584D01*
X133948253Y-32121154D01*
X133822754Y-32246653D01*
X133675184Y-32345256D01*
X133511212Y-32413176D01*
X133361912Y-32442873D01*
X133337142Y-32447800D01*
X133159658Y-32447800D01*
X133134888Y-32442873D01*
X132985588Y-32413176D01*
X132821616Y-32345256D01*
X132674046Y-32246653D01*
X132548547Y-32121154D01*
X132449944Y-31973584D01*
X132382024Y-31809612D01*
X132347400Y-31635541D01*
X132347400Y-31458059D01*
X132382024Y-31283988D01*
X132449944Y-31120016D01*
X132548547Y-30972446D01*
X132674046Y-30846947D01*
X132821616Y-30748344D01*
X132985588Y-30680424D01*
X133134888Y-30650727D01*
X133159658Y-30645800D01*
X133337142Y-30645800D01*
X133361912Y-30650727D01*
G37*
G36*
X91372342Y-29444242D02*
G01*
X91520301Y-29505529D01*
X91653455Y-29594499D01*
X91766701Y-29707745D01*
X91855671Y-29840899D01*
X91916958Y-29988858D01*
X91948200Y-30145925D01*
X91948200Y-30306075D01*
X91916958Y-30463142D01*
X91855671Y-30611101D01*
X91766701Y-30744255D01*
X91653455Y-30857501D01*
X91520301Y-30946471D01*
X91372342Y-31007758D01*
X91215275Y-31039000D01*
X91055125Y-31039000D01*
X90898058Y-31007758D01*
X90750099Y-30946471D01*
X90616945Y-30857501D01*
X90503699Y-30744255D01*
X90414729Y-30611101D01*
X90353442Y-30463142D01*
X90322200Y-30306075D01*
X90322200Y-30145925D01*
X90353442Y-29988858D01*
X90414729Y-29840899D01*
X90503699Y-29707745D01*
X90616945Y-29594499D01*
X90750099Y-29505529D01*
X90898058Y-29444242D01*
X91055125Y-29413000D01*
X91215275Y-29413000D01*
X91372342Y-29444242D01*
G37*
G36*
X115311842Y-29380742D02*
G01*
X115459801Y-29442029D01*
X115592955Y-29530999D01*
X115706201Y-29644245D01*
X115795171Y-29777399D01*
X115856458Y-29925358D01*
X115887700Y-30082425D01*
X115887700Y-30242575D01*
X115856458Y-30399642D01*
X115795171Y-30547601D01*
X115706201Y-30680755D01*
X115592955Y-30794001D01*
X115459801Y-30882971D01*
X115311842Y-30944258D01*
X115154775Y-30975500D01*
X114994625Y-30975500D01*
X114837558Y-30944258D01*
X114689599Y-30882971D01*
X114556445Y-30794001D01*
X114443199Y-30680755D01*
X114354229Y-30547601D01*
X114292942Y-30399642D01*
X114261700Y-30242575D01*
X114261700Y-30082425D01*
X114292942Y-29925358D01*
X114354229Y-29777399D01*
X114443199Y-29644245D01*
X114556445Y-29530999D01*
X114689599Y-29442029D01*
X114837558Y-29380742D01*
X114994625Y-29349500D01*
X115154775Y-29349500D01*
X115311842Y-29380742D01*
G37*
G36*
X133361912Y-28110727D02*
G01*
X133511212Y-28140424D01*
X133675184Y-28208344D01*
X133822754Y-28306947D01*
X133948253Y-28432446D01*
X134046856Y-28580016D01*
X134114776Y-28743988D01*
X134149400Y-28918059D01*
X134149400Y-29095541D01*
X134114776Y-29269612D01*
X134046856Y-29433584D01*
X133948253Y-29581154D01*
X133822754Y-29706653D01*
X133675184Y-29805256D01*
X133511212Y-29873176D01*
X133361912Y-29902873D01*
X133337142Y-29907800D01*
X133159658Y-29907800D01*
X133134888Y-29902873D01*
X132985588Y-29873176D01*
X132821616Y-29805256D01*
X132674046Y-29706653D01*
X132548547Y-29581154D01*
X132449944Y-29433584D01*
X132382024Y-29269612D01*
X132347400Y-29095541D01*
X132347400Y-28918059D01*
X132382024Y-28743988D01*
X132449944Y-28580016D01*
X132548547Y-28432446D01*
X132674046Y-28306947D01*
X132821616Y-28208344D01*
X132985588Y-28140424D01*
X133134888Y-28110727D01*
X133159658Y-28105800D01*
X133337142Y-28105800D01*
X133361912Y-28110727D01*
G37*
G36*
X91372342Y-26904242D02*
G01*
X91520301Y-26965529D01*
X91653455Y-27054499D01*
X91766701Y-27167745D01*
X91855671Y-27300899D01*
X91916958Y-27448858D01*
X91948200Y-27605925D01*
X91948200Y-27766075D01*
X91916958Y-27923142D01*
X91855671Y-28071101D01*
X91766701Y-28204255D01*
X91653455Y-28317501D01*
X91520301Y-28406471D01*
X91372342Y-28467758D01*
X91215275Y-28499000D01*
X91055125Y-28499000D01*
X90898058Y-28467758D01*
X90750099Y-28406471D01*
X90616945Y-28317501D01*
X90503699Y-28204255D01*
X90414729Y-28071101D01*
X90353442Y-27923142D01*
X90322200Y-27766075D01*
X90322200Y-27605925D01*
X90353442Y-27448858D01*
X90414729Y-27300899D01*
X90503699Y-27167745D01*
X90616945Y-27054499D01*
X90750099Y-26965529D01*
X90898058Y-26904242D01*
X91055125Y-26873000D01*
X91215275Y-26873000D01*
X91372342Y-26904242D01*
G37*
G36*
X115311842Y-26840742D02*
G01*
X115459801Y-26902029D01*
X115592955Y-26990999D01*
X115706201Y-27104245D01*
X115795171Y-27237399D01*
X115856458Y-27385358D01*
X115887700Y-27542425D01*
X115887700Y-27702575D01*
X115856458Y-27859642D01*
X115795171Y-28007601D01*
X115706201Y-28140755D01*
X115592955Y-28254001D01*
X115459801Y-28342971D01*
X115311842Y-28404258D01*
X115154775Y-28435500D01*
X114994625Y-28435500D01*
X114837558Y-28404258D01*
X114689599Y-28342971D01*
X114556445Y-28254001D01*
X114443199Y-28140755D01*
X114354229Y-28007601D01*
X114292942Y-27859642D01*
X114261700Y-27702575D01*
X114261700Y-27542425D01*
X114292942Y-27385358D01*
X114354229Y-27237399D01*
X114443199Y-27104245D01*
X114556445Y-26990999D01*
X114689599Y-26902029D01*
X114837558Y-26840742D01*
X114994625Y-26809500D01*
X115154775Y-26809500D01*
X115311842Y-26840742D01*
G37*
G36*
X131351280Y-21686465D02*
G01*
X131650737Y-21746031D01*
X132214901Y-21979715D01*
X132722635Y-22318972D01*
X133154428Y-22750765D01*
X133493685Y-23258499D01*
X133727369Y-23822663D01*
X133727369Y-23822665D01*
X133846500Y-24421575D01*
X133846500Y-25032225D01*
X133807941Y-25226074D01*
X133727369Y-25631137D01*
X133493685Y-26195301D01*
X133154428Y-26703035D01*
X132722635Y-27134828D01*
X132214901Y-27474085D01*
X131650737Y-27707769D01*
X131357617Y-27766074D01*
X131051825Y-27826900D01*
X130441175Y-27826900D01*
X130135383Y-27766074D01*
X129842263Y-27707769D01*
X129278099Y-27474085D01*
X128770365Y-27134828D01*
X128338572Y-26703035D01*
X127999315Y-26195301D01*
X127765631Y-25631137D01*
X127685059Y-25226074D01*
X127646500Y-25032225D01*
X127646500Y-24421575D01*
X127765631Y-23822665D01*
X127765631Y-23822663D01*
X127999315Y-23258499D01*
X128338572Y-22750765D01*
X128770365Y-22318972D01*
X129278099Y-21979715D01*
X129842263Y-21746031D01*
X130141720Y-21686465D01*
X130441175Y-21626900D01*
X131051825Y-21626900D01*
X131351280Y-21686465D01*
G37*
G36*
X83091280Y-20416465D02*
G01*
X83390737Y-20476031D01*
X83954901Y-20709715D01*
X84462635Y-21048972D01*
X84894428Y-21480765D01*
X85233685Y-21988499D01*
X85467369Y-22552663D01*
X85467369Y-22552665D01*
X85586500Y-23151575D01*
X85586500Y-23762225D01*
X85526935Y-24061680D01*
X85467369Y-24361137D01*
X85233685Y-24925301D01*
X84894428Y-25433035D01*
X84462635Y-25864828D01*
X83954901Y-26204085D01*
X83390737Y-26437769D01*
X83091280Y-26497335D01*
X82791825Y-26556900D01*
X82181175Y-26556900D01*
X81881720Y-26497335D01*
X81582263Y-26437769D01*
X81018099Y-26204085D01*
X80510365Y-25864828D01*
X80078572Y-25433035D01*
X79739315Y-24925301D01*
X79505631Y-24361137D01*
X79446065Y-24061680D01*
X79386500Y-23762225D01*
X79386500Y-23151575D01*
X79505631Y-22552665D01*
X79505631Y-22552663D01*
X79739315Y-21988499D01*
X80078572Y-21480765D01*
X80510365Y-21048972D01*
X81018099Y-20709715D01*
X81582263Y-20476031D01*
X81881720Y-20416465D01*
X82181175Y-20356900D01*
X82791825Y-20356900D01*
X83091280Y-20416465D01*
G37*
G36*
X91372342Y-24364242D02*
G01*
X91520301Y-24425529D01*
X91653455Y-24514499D01*
X91766701Y-24627745D01*
X91855671Y-24760899D01*
X91916958Y-24908858D01*
X91948200Y-25065925D01*
X91948200Y-25226075D01*
X91916958Y-25383142D01*
X91855671Y-25531101D01*
X91766701Y-25664255D01*
X91653455Y-25777501D01*
X91520301Y-25866471D01*
X91372342Y-25927758D01*
X91215275Y-25959000D01*
X91055125Y-25959000D01*
X90898058Y-25927758D01*
X90750099Y-25866471D01*
X90616945Y-25777501D01*
X90503699Y-25664255D01*
X90414729Y-25531101D01*
X90353442Y-25383142D01*
X90322200Y-25226075D01*
X90322200Y-25065925D01*
X90353442Y-24908858D01*
X90414729Y-24760899D01*
X90503699Y-24627745D01*
X90616945Y-24514499D01*
X90750099Y-24425529D01*
X90898058Y-24364242D01*
X91055125Y-24333000D01*
X91215275Y-24333000D01*
X91372342Y-24364242D01*
G37*
G36*
X115311842Y-24300742D02*
G01*
X115459801Y-24362029D01*
X115592955Y-24450999D01*
X115706201Y-24564245D01*
X115795171Y-24697399D01*
X115856458Y-24845358D01*
X115887700Y-25002425D01*
X115887700Y-25162575D01*
X115856458Y-25319642D01*
X115795171Y-25467601D01*
X115706201Y-25600755D01*
X115592955Y-25714001D01*
X115459801Y-25802971D01*
X115311842Y-25864258D01*
X115154775Y-25895500D01*
X114994625Y-25895500D01*
X114837558Y-25864258D01*
X114689599Y-25802971D01*
X114556445Y-25714001D01*
X114443199Y-25600755D01*
X114354229Y-25467601D01*
X114292942Y-25319642D01*
X114261700Y-25162575D01*
X114261700Y-25002425D01*
X114292942Y-24845358D01*
X114354229Y-24697399D01*
X114443199Y-24564245D01*
X114556445Y-24450999D01*
X114689599Y-24362029D01*
X114837558Y-24300742D01*
X114994625Y-24269500D01*
X115154775Y-24269500D01*
X115311842Y-24300742D01*
G37*
G36*
X115311842Y-21824242D02*
G01*
X115459801Y-21885529D01*
X115592955Y-21974499D01*
X115706201Y-22087745D01*
X115795171Y-22220899D01*
X115856458Y-22368858D01*
X115887700Y-22525925D01*
X115887700Y-22686075D01*
X115856458Y-22843142D01*
X115795171Y-22991101D01*
X115706201Y-23124255D01*
X115592955Y-23237501D01*
X115459801Y-23326471D01*
X115311842Y-23387758D01*
X115154775Y-23419000D01*
X114994625Y-23419000D01*
X114837558Y-23387758D01*
X114689599Y-23326471D01*
X114556445Y-23237501D01*
X114443199Y-23124255D01*
X114354229Y-22991101D01*
X114292942Y-22843142D01*
X114261700Y-22686075D01*
X114261700Y-22525925D01*
X114292942Y-22368858D01*
X114354229Y-22220899D01*
X114443199Y-22087745D01*
X114556445Y-21974499D01*
X114689599Y-21885529D01*
X114837558Y-21824242D01*
X114994625Y-21793000D01*
X115154775Y-21793000D01*
X115311842Y-21824242D01*
G37*
G36*
X91372342Y-21824242D02*
G01*
X91520301Y-21885529D01*
X91653455Y-21974499D01*
X91766701Y-22087745D01*
X91855671Y-22220899D01*
X91916958Y-22368858D01*
X91948200Y-22525925D01*
X91948200Y-22686075D01*
X91916958Y-22843142D01*
X91855671Y-22991101D01*
X91766701Y-23124255D01*
X91653455Y-23237501D01*
X91520301Y-23326471D01*
X91372342Y-23387758D01*
X91215275Y-23419000D01*
X91055125Y-23419000D01*
X90898058Y-23387758D01*
X90750099Y-23326471D01*
X90616945Y-23237501D01*
X90503699Y-23124255D01*
X90414729Y-22991101D01*
X90353442Y-22843142D01*
X90322200Y-22686075D01*
X90322200Y-22525925D01*
X90353442Y-22368858D01*
X90414729Y-22220899D01*
X90503699Y-22087745D01*
X90616945Y-21974499D01*
X90750099Y-21885529D01*
X90898058Y-21824242D01*
X91055125Y-21793000D01*
X91215275Y-21793000D01*
X91372342Y-21824242D01*
G37*
G36*
X91372342Y-19284242D02*
G01*
X91520301Y-19345529D01*
X91653455Y-19434499D01*
X91766701Y-19547745D01*
X91855671Y-19680899D01*
X91916958Y-19828858D01*
X91948200Y-19985925D01*
X91948200Y-20146075D01*
X91916958Y-20303142D01*
X91855671Y-20451101D01*
X91766701Y-20584255D01*
X91653455Y-20697501D01*
X91520301Y-20786471D01*
X91372342Y-20847758D01*
X91215275Y-20879000D01*
X91055125Y-20879000D01*
X90898058Y-20847758D01*
X90750099Y-20786471D01*
X90616945Y-20697501D01*
X90503699Y-20584255D01*
X90414729Y-20451101D01*
X90353442Y-20303142D01*
X90322200Y-20146075D01*
X90322200Y-19985925D01*
X90353442Y-19828858D01*
X90414729Y-19680899D01*
X90503699Y-19547745D01*
X90616945Y-19434499D01*
X90750099Y-19345529D01*
X90898058Y-19284242D01*
X91055125Y-19253000D01*
X91215275Y-19253000D01*
X91372342Y-19284242D01*
G37*
G36*
X115311842Y-19284242D02*
G01*
X115459801Y-19345529D01*
X115592955Y-19434499D01*
X115706201Y-19547745D01*
X115795171Y-19680899D01*
X115856458Y-19828858D01*
X115887700Y-19985925D01*
X115887700Y-20146075D01*
X115856458Y-20303142D01*
X115795171Y-20451101D01*
X115706201Y-20584255D01*
X115592955Y-20697501D01*
X115459801Y-20786471D01*
X115311842Y-20847758D01*
X115154775Y-20879000D01*
X114994625Y-20879000D01*
X114837558Y-20847758D01*
X114689599Y-20786471D01*
X114556445Y-20697501D01*
X114443199Y-20584255D01*
X114354229Y-20451101D01*
X114292942Y-20303142D01*
X114261700Y-20146075D01*
X114261700Y-19985925D01*
X114292942Y-19828858D01*
X114354229Y-19680899D01*
X114443199Y-19547745D01*
X114556445Y-19434499D01*
X114689599Y-19345529D01*
X114837558Y-19284242D01*
X114994625Y-19253000D01*
X115154775Y-19253000D01*
X115311842Y-19284242D01*
G37*
G36*
X121196200Y-19291400D02*
G01*
X119494200Y-19291400D01*
X119494200Y-17589400D01*
X121196200Y-17589400D01*
X121196200Y-19291400D01*
G37*
G36*
X122593428Y-17622103D02*
G01*
X122748300Y-17686253D01*
X122887681Y-17779385D01*
X123006215Y-17897919D01*
X123099347Y-18037300D01*
X123163497Y-18192172D01*
X123196200Y-18356584D01*
X123196200Y-18524216D01*
X123163497Y-18688628D01*
X123099347Y-18843500D01*
X123006215Y-18982881D01*
X122887681Y-19101415D01*
X122748300Y-19194547D01*
X122593428Y-19258697D01*
X122429016Y-19291400D01*
X122261384Y-19291400D01*
X122096972Y-19258697D01*
X121942100Y-19194547D01*
X121802719Y-19101415D01*
X121684185Y-18982881D01*
X121591053Y-18843500D01*
X121526903Y-18688628D01*
X121494200Y-18524216D01*
X121494200Y-18356584D01*
X121526903Y-18192172D01*
X121591053Y-18037300D01*
X121684185Y-17897919D01*
X121802719Y-17779385D01*
X121942100Y-17686253D01*
X122096972Y-17622103D01*
X122261384Y-17589400D01*
X122429016Y-17589400D01*
X122593428Y-17622103D01*
G37*
G36*
X132473800Y-19189800D02*
G01*
X130771800Y-19189800D01*
X130771800Y-17487800D01*
X132473800Y-17487800D01*
X132473800Y-19189800D01*
G37*
G36*
X133871028Y-17520503D02*
G01*
X134025900Y-17584653D01*
X134165281Y-17677785D01*
X134283815Y-17796319D01*
X134376947Y-17935700D01*
X134441097Y-18090572D01*
X134473800Y-18254984D01*
X134473800Y-18422616D01*
X134441097Y-18587028D01*
X134376947Y-18741900D01*
X134283815Y-18881281D01*
X134165281Y-18999815D01*
X134025900Y-19092947D01*
X133871028Y-19157097D01*
X133706616Y-19189800D01*
X133538984Y-19189800D01*
X133374572Y-19157097D01*
X133219700Y-19092947D01*
X133080319Y-18999815D01*
X132961785Y-18881281D01*
X132868653Y-18741900D01*
X132804503Y-18587028D01*
X132771800Y-18422616D01*
X132771800Y-18254984D01*
X132804503Y-18090572D01*
X132868653Y-17935700D01*
X132961785Y-17796319D01*
X133080319Y-17677785D01*
X133219700Y-17584653D01*
X133374572Y-17520503D01*
X133538984Y-17487800D01*
X133706616Y-17487800D01*
X133871028Y-17520503D01*
G37*
G36*
X87235512Y-16579127D02*
G01*
X87384812Y-16608824D01*
X87548784Y-16676744D01*
X87696354Y-16775347D01*
X87821853Y-16900846D01*
X87920456Y-17048416D01*
X87988376Y-17212388D01*
X88023000Y-17386459D01*
X88023000Y-17563941D01*
X87988376Y-17738012D01*
X87920456Y-17901984D01*
X87821853Y-18049554D01*
X87696354Y-18175053D01*
X87548784Y-18273656D01*
X87384812Y-18341576D01*
X87235512Y-18371273D01*
X87210742Y-18376200D01*
X87033258Y-18376200D01*
X87008488Y-18371273D01*
X86859188Y-18341576D01*
X86695216Y-18273656D01*
X86547646Y-18175053D01*
X86422147Y-18049554D01*
X86323544Y-17901984D01*
X86255624Y-17738012D01*
X86221000Y-17563941D01*
X86221000Y-17386459D01*
X86255624Y-17212388D01*
X86323544Y-17048416D01*
X86422147Y-16900846D01*
X86547646Y-16775347D01*
X86695216Y-16676744D01*
X86859188Y-16608824D01*
X87008488Y-16579127D01*
X87033258Y-16574200D01*
X87210742Y-16574200D01*
X87235512Y-16579127D01*
G37*
G36*
X84695512Y-16579127D02*
G01*
X84844812Y-16608824D01*
X85008784Y-16676744D01*
X85156354Y-16775347D01*
X85281853Y-16900846D01*
X85380456Y-17048416D01*
X85448376Y-17212388D01*
X85483000Y-17386459D01*
X85483000Y-17563941D01*
X85448376Y-17738012D01*
X85380456Y-17901984D01*
X85281853Y-18049554D01*
X85156354Y-18175053D01*
X85008784Y-18273656D01*
X84844812Y-18341576D01*
X84695512Y-18371273D01*
X84670742Y-18376200D01*
X84493258Y-18376200D01*
X84468488Y-18371273D01*
X84319188Y-18341576D01*
X84155216Y-18273656D01*
X84007646Y-18175053D01*
X83882147Y-18049554D01*
X83783544Y-17901984D01*
X83715624Y-17738012D01*
X83681000Y-17563941D01*
X83681000Y-17386459D01*
X83715624Y-17212388D01*
X83783544Y-17048416D01*
X83882147Y-16900846D01*
X84007646Y-16775347D01*
X84155216Y-16676744D01*
X84319188Y-16608824D01*
X84468488Y-16579127D01*
X84493258Y-16574200D01*
X84670742Y-16574200D01*
X84695512Y-16579127D01*
G37*
G36*
X82943000Y-18376200D02*
G01*
X81141000Y-18376200D01*
X81141000Y-16574200D01*
X82943000Y-16574200D01*
X82943000Y-18376200D01*
G37*
M02*
