G04 #@! TF.GenerationSoftware,KiCad,Pcbnew,5.1.5+dfsg1-2build2*
G04 #@! TF.CreationDate,2020-10-23T17:48:02-04:00*
G04 #@! TF.ProjectId,placa_manutencao_preventiva,706c6163-615f-46d6-916e-7574656e6361,rev?*
G04 #@! TF.SameCoordinates,Original*
G04 #@! TF.FileFunction,Paste,Top*
G04 #@! TF.FilePolarity,Positive*
%FSLAX46Y46*%
G04 Gerber Fmt 4.6, Leading zero omitted, Abs format (unit mm)*
G04 Created by KiCad (PCBNEW 5.1.5+dfsg1-2build2) date 2020-10-23 17:48:02*
%MOMM*%
%LPD*%
G04 APERTURE LIST*
%ADD10C,0.050000*%
%ADD11C,0.100000*%
G04 APERTURE END LIST*
D10*
X77673200Y-14935200D02*
X77673200Y-15290800D01*
X77876400Y-14935200D02*
X77673200Y-14935200D01*
X136093200Y-14935200D02*
X77876400Y-14935200D01*
X136093200Y-89662000D02*
X136093200Y-14935200D01*
X77673200Y-89662000D02*
X136093200Y-89662000D01*
X77673200Y-15290800D02*
X77673200Y-89662000D01*
D11*
G36*
X83492103Y-82290722D02*
G01*
X83506664Y-82292882D01*
X83520943Y-82296459D01*
X83534803Y-82301418D01*
X83548110Y-82307712D01*
X83560736Y-82315280D01*
X83572559Y-82324048D01*
X83583466Y-82333934D01*
X83593352Y-82344841D01*
X83602120Y-82356664D01*
X83609688Y-82369290D01*
X83615982Y-82382597D01*
X83620941Y-82396457D01*
X83624518Y-82410736D01*
X83626678Y-82425297D01*
X83627400Y-82440000D01*
X83627400Y-83840000D01*
X83626678Y-83854703D01*
X83624518Y-83869264D01*
X83620941Y-83883543D01*
X83615982Y-83897403D01*
X83609688Y-83910710D01*
X83602120Y-83923336D01*
X83593352Y-83935159D01*
X83583466Y-83946066D01*
X83572559Y-83955952D01*
X83560736Y-83964720D01*
X83548110Y-83972288D01*
X83534803Y-83978582D01*
X83520943Y-83983541D01*
X83506664Y-83987118D01*
X83492103Y-83989278D01*
X83477400Y-83990000D01*
X83177400Y-83990000D01*
X83162697Y-83989278D01*
X83148136Y-83987118D01*
X83133857Y-83983541D01*
X83119997Y-83978582D01*
X83106690Y-83972288D01*
X83094064Y-83964720D01*
X83082241Y-83955952D01*
X83071334Y-83946066D01*
X83061448Y-83935159D01*
X83052680Y-83923336D01*
X83045112Y-83910710D01*
X83038818Y-83897403D01*
X83033859Y-83883543D01*
X83030282Y-83869264D01*
X83028122Y-83854703D01*
X83027400Y-83840000D01*
X83027400Y-82440000D01*
X83028122Y-82425297D01*
X83030282Y-82410736D01*
X83033859Y-82396457D01*
X83038818Y-82382597D01*
X83045112Y-82369290D01*
X83052680Y-82356664D01*
X83061448Y-82344841D01*
X83071334Y-82333934D01*
X83082241Y-82324048D01*
X83094064Y-82315280D01*
X83106690Y-82307712D01*
X83119997Y-82301418D01*
X83133857Y-82296459D01*
X83148136Y-82292882D01*
X83162697Y-82290722D01*
X83177400Y-82290000D01*
X83477400Y-82290000D01*
X83492103Y-82290722D01*
G37*
G36*
X82242103Y-82290722D02*
G01*
X82256664Y-82292882D01*
X82270943Y-82296459D01*
X82284803Y-82301418D01*
X82298110Y-82307712D01*
X82310736Y-82315280D01*
X82322559Y-82324048D01*
X82333466Y-82333934D01*
X82343352Y-82344841D01*
X82352120Y-82356664D01*
X82359688Y-82369290D01*
X82365982Y-82382597D01*
X82370941Y-82396457D01*
X82374518Y-82410736D01*
X82376678Y-82425297D01*
X82377400Y-82440000D01*
X82377400Y-83840000D01*
X82376678Y-83854703D01*
X82374518Y-83869264D01*
X82370941Y-83883543D01*
X82365982Y-83897403D01*
X82359688Y-83910710D01*
X82352120Y-83923336D01*
X82343352Y-83935159D01*
X82333466Y-83946066D01*
X82322559Y-83955952D01*
X82310736Y-83964720D01*
X82298110Y-83972288D01*
X82284803Y-83978582D01*
X82270943Y-83983541D01*
X82256664Y-83987118D01*
X82242103Y-83989278D01*
X82227400Y-83990000D01*
X81927400Y-83990000D01*
X81912697Y-83989278D01*
X81898136Y-83987118D01*
X81883857Y-83983541D01*
X81869997Y-83978582D01*
X81856690Y-83972288D01*
X81844064Y-83964720D01*
X81832241Y-83955952D01*
X81821334Y-83946066D01*
X81811448Y-83935159D01*
X81802680Y-83923336D01*
X81795112Y-83910710D01*
X81788818Y-83897403D01*
X81783859Y-83883543D01*
X81780282Y-83869264D01*
X81778122Y-83854703D01*
X81777400Y-83840000D01*
X81777400Y-82440000D01*
X81778122Y-82425297D01*
X81780282Y-82410736D01*
X81783859Y-82396457D01*
X81788818Y-82382597D01*
X81795112Y-82369290D01*
X81802680Y-82356664D01*
X81811448Y-82344841D01*
X81821334Y-82333934D01*
X81832241Y-82324048D01*
X81844064Y-82315280D01*
X81856690Y-82307712D01*
X81869997Y-82301418D01*
X81883857Y-82296459D01*
X81898136Y-82292882D01*
X81912697Y-82290722D01*
X81927400Y-82290000D01*
X82227400Y-82290000D01*
X82242103Y-82290722D01*
G37*
G36*
X85451904Y-85091204D02*
G01*
X85476173Y-85094804D01*
X85499971Y-85100765D01*
X85523071Y-85109030D01*
X85545249Y-85119520D01*
X85566293Y-85132133D01*
X85585998Y-85146747D01*
X85604177Y-85163223D01*
X85620653Y-85181402D01*
X85635267Y-85201107D01*
X85647880Y-85222151D01*
X85658370Y-85244329D01*
X85666635Y-85267429D01*
X85672596Y-85291227D01*
X85676196Y-85315496D01*
X85677400Y-85340000D01*
X85677400Y-87640000D01*
X85676196Y-87664504D01*
X85672596Y-87688773D01*
X85666635Y-87712571D01*
X85658370Y-87735671D01*
X85647880Y-87757849D01*
X85635267Y-87778893D01*
X85620653Y-87798598D01*
X85604177Y-87816777D01*
X85585998Y-87833253D01*
X85566293Y-87847867D01*
X85545249Y-87860480D01*
X85523071Y-87870970D01*
X85499971Y-87879235D01*
X85476173Y-87885196D01*
X85451904Y-87888796D01*
X85427400Y-87890000D01*
X84927400Y-87890000D01*
X84902896Y-87888796D01*
X84878627Y-87885196D01*
X84854829Y-87879235D01*
X84831729Y-87870970D01*
X84809551Y-87860480D01*
X84788507Y-87847867D01*
X84768802Y-87833253D01*
X84750623Y-87816777D01*
X84734147Y-87798598D01*
X84719533Y-87778893D01*
X84706920Y-87757849D01*
X84696430Y-87735671D01*
X84688165Y-87712571D01*
X84682204Y-87688773D01*
X84678604Y-87664504D01*
X84677400Y-87640000D01*
X84677400Y-85340000D01*
X84678604Y-85315496D01*
X84682204Y-85291227D01*
X84688165Y-85267429D01*
X84696430Y-85244329D01*
X84706920Y-85222151D01*
X84719533Y-85201107D01*
X84734147Y-85181402D01*
X84750623Y-85163223D01*
X84768802Y-85146747D01*
X84788507Y-85132133D01*
X84809551Y-85119520D01*
X84831729Y-85109030D01*
X84854829Y-85100765D01*
X84878627Y-85094804D01*
X84902896Y-85091204D01*
X84927400Y-85090000D01*
X85427400Y-85090000D01*
X85451904Y-85091204D01*
G37*
G36*
X80501904Y-85091204D02*
G01*
X80526173Y-85094804D01*
X80549971Y-85100765D01*
X80573071Y-85109030D01*
X80595249Y-85119520D01*
X80616293Y-85132133D01*
X80635998Y-85146747D01*
X80654177Y-85163223D01*
X80670653Y-85181402D01*
X80685267Y-85201107D01*
X80697880Y-85222151D01*
X80708370Y-85244329D01*
X80716635Y-85267429D01*
X80722596Y-85291227D01*
X80726196Y-85315496D01*
X80727400Y-85340000D01*
X80727400Y-87640000D01*
X80726196Y-87664504D01*
X80722596Y-87688773D01*
X80716635Y-87712571D01*
X80708370Y-87735671D01*
X80697880Y-87757849D01*
X80685267Y-87778893D01*
X80670653Y-87798598D01*
X80654177Y-87816777D01*
X80635998Y-87833253D01*
X80616293Y-87847867D01*
X80595249Y-87860480D01*
X80573071Y-87870970D01*
X80549971Y-87879235D01*
X80526173Y-87885196D01*
X80501904Y-87888796D01*
X80477400Y-87890000D01*
X79977400Y-87890000D01*
X79952896Y-87888796D01*
X79928627Y-87885196D01*
X79904829Y-87879235D01*
X79881729Y-87870970D01*
X79859551Y-87860480D01*
X79838507Y-87847867D01*
X79818802Y-87833253D01*
X79800623Y-87816777D01*
X79784147Y-87798598D01*
X79769533Y-87778893D01*
X79756920Y-87757849D01*
X79746430Y-87735671D01*
X79738165Y-87712571D01*
X79732204Y-87688773D01*
X79728604Y-87664504D01*
X79727400Y-87640000D01*
X79727400Y-85340000D01*
X79728604Y-85315496D01*
X79732204Y-85291227D01*
X79738165Y-85267429D01*
X79746430Y-85244329D01*
X79756920Y-85222151D01*
X79769533Y-85201107D01*
X79784147Y-85181402D01*
X79800623Y-85163223D01*
X79818802Y-85146747D01*
X79838507Y-85132133D01*
X79859551Y-85119520D01*
X79881729Y-85109030D01*
X79904829Y-85100765D01*
X79928627Y-85094804D01*
X79952896Y-85091204D01*
X79977400Y-85090000D01*
X80477400Y-85090000D01*
X80501904Y-85091204D01*
G37*
M02*
