G04 #@! TF.GenerationSoftware,KiCad,Pcbnew,5.1.5+dfsg1-2build2*
G04 #@! TF.CreationDate,2020-10-23T17:48:02-04:00*
G04 #@! TF.ProjectId,placa_manutencao_preventiva,706c6163-615f-46d6-916e-7574656e6361,rev?*
G04 #@! TF.SameCoordinates,Original*
G04 #@! TF.FileFunction,Legend,Top*
G04 #@! TF.FilePolarity,Positive*
%FSLAX46Y46*%
G04 Gerber Fmt 4.6, Leading zero omitted, Abs format (unit mm)*
G04 Created by KiCad (PCBNEW 5.1.5+dfsg1-2build2) date 2020-10-23 17:48:02*
%MOMM*%
%LPD*%
G04 APERTURE LIST*
%ADD10C,0.100000*%
%ADD11C,0.050000*%
%ADD12C,0.070000*%
%ADD13C,0.150000*%
%ADD14C,0.080000*%
%ADD15C,0.120000*%
%ADD16C,0.127000*%
%ADD17C,0.010000*%
%ADD18C,0.015000*%
G04 APERTURE END LIST*
D10*
X117400276Y-17857904D02*
X117400276Y-17057904D01*
X117666942Y-17629333D01*
X117933609Y-17057904D01*
X117933609Y-17857904D01*
X118428847Y-17857904D02*
X118352657Y-17819809D01*
X118314561Y-17781714D01*
X118276466Y-17705523D01*
X118276466Y-17476952D01*
X118314561Y-17400761D01*
X118352657Y-17362666D01*
X118428847Y-17324571D01*
X118543133Y-17324571D01*
X118619323Y-17362666D01*
X118657419Y-17400761D01*
X118695514Y-17476952D01*
X118695514Y-17705523D01*
X118657419Y-17781714D01*
X118619323Y-17819809D01*
X118543133Y-17857904D01*
X118428847Y-17857904D01*
X119038371Y-17324571D02*
X119038371Y-17857904D01*
X119038371Y-17400761D02*
X119076466Y-17362666D01*
X119152657Y-17324571D01*
X119266942Y-17324571D01*
X119343133Y-17362666D01*
X119381228Y-17438857D01*
X119381228Y-17857904D01*
X119762180Y-17857904D02*
X119762180Y-17324571D01*
X119762180Y-17057904D02*
X119724085Y-17096000D01*
X119762180Y-17134095D01*
X119800276Y-17096000D01*
X119762180Y-17057904D01*
X119762180Y-17134095D01*
X120028847Y-17324571D02*
X120333609Y-17324571D01*
X120143133Y-17057904D02*
X120143133Y-17743619D01*
X120181228Y-17819809D01*
X120257419Y-17857904D01*
X120333609Y-17857904D01*
X120714561Y-17857904D02*
X120638371Y-17819809D01*
X120600276Y-17781714D01*
X120562180Y-17705523D01*
X120562180Y-17476952D01*
X120600276Y-17400761D01*
X120638371Y-17362666D01*
X120714561Y-17324571D01*
X120828847Y-17324571D01*
X120905038Y-17362666D01*
X120943133Y-17400761D01*
X120981228Y-17476952D01*
X120981228Y-17705523D01*
X120943133Y-17781714D01*
X120905038Y-17819809D01*
X120828847Y-17857904D01*
X120714561Y-17857904D01*
X121324085Y-17857904D02*
X121324085Y-17324571D01*
X121324085Y-17476952D02*
X121362180Y-17400761D01*
X121400276Y-17362666D01*
X121476466Y-17324571D01*
X121552657Y-17324571D01*
X122162180Y-17857904D02*
X122162180Y-17438857D01*
X122124085Y-17362666D01*
X122047895Y-17324571D01*
X121895514Y-17324571D01*
X121819323Y-17362666D01*
X122162180Y-17819809D02*
X122085990Y-17857904D01*
X121895514Y-17857904D01*
X121819323Y-17819809D01*
X121781228Y-17743619D01*
X121781228Y-17667428D01*
X121819323Y-17591238D01*
X121895514Y-17553142D01*
X122085990Y-17553142D01*
X122162180Y-17515047D01*
X122543133Y-17857904D02*
X122543133Y-17324571D01*
X122543133Y-17400761D02*
X122581228Y-17362666D01*
X122657419Y-17324571D01*
X122771704Y-17324571D01*
X122847895Y-17362666D01*
X122885990Y-17438857D01*
X122885990Y-17857904D01*
X122885990Y-17438857D02*
X122924085Y-17362666D01*
X123000276Y-17324571D01*
X123114561Y-17324571D01*
X123190752Y-17362666D01*
X123228847Y-17438857D01*
X123228847Y-17857904D01*
X123914561Y-17819809D02*
X123838371Y-17857904D01*
X123685990Y-17857904D01*
X123609800Y-17819809D01*
X123571704Y-17743619D01*
X123571704Y-17438857D01*
X123609800Y-17362666D01*
X123685990Y-17324571D01*
X123838371Y-17324571D01*
X123914561Y-17362666D01*
X123952657Y-17438857D01*
X123952657Y-17515047D01*
X123571704Y-17591238D01*
X124295514Y-17324571D02*
X124295514Y-17857904D01*
X124295514Y-17400761D02*
X124333609Y-17362666D01*
X124409800Y-17324571D01*
X124524085Y-17324571D01*
X124600276Y-17362666D01*
X124638371Y-17438857D01*
X124638371Y-17857904D01*
X124905038Y-17324571D02*
X125209800Y-17324571D01*
X125019323Y-17057904D02*
X125019323Y-17743619D01*
X125057419Y-17819809D01*
X125133609Y-17857904D01*
X125209800Y-17857904D01*
X125590752Y-17857904D02*
X125514561Y-17819809D01*
X125476466Y-17781714D01*
X125438371Y-17705523D01*
X125438371Y-17476952D01*
X125476466Y-17400761D01*
X125514561Y-17362666D01*
X125590752Y-17324571D01*
X125705038Y-17324571D01*
X125781228Y-17362666D01*
X125819323Y-17400761D01*
X125857419Y-17476952D01*
X125857419Y-17705523D01*
X125819323Y-17781714D01*
X125781228Y-17819809D01*
X125705038Y-17857904D01*
X125590752Y-17857904D01*
X127190752Y-17857904D02*
X126809800Y-17857904D01*
X126809800Y-17057904D01*
X127571704Y-17857904D02*
X127495514Y-17819809D01*
X127457419Y-17781714D01*
X127419323Y-17705523D01*
X127419323Y-17476952D01*
X127457419Y-17400761D01*
X127495514Y-17362666D01*
X127571704Y-17324571D01*
X127685990Y-17324571D01*
X127762180Y-17362666D01*
X127800276Y-17400761D01*
X127838371Y-17476952D01*
X127838371Y-17705523D01*
X127800276Y-17781714D01*
X127762180Y-17819809D01*
X127685990Y-17857904D01*
X127571704Y-17857904D01*
X128638371Y-17857904D02*
X128371704Y-17476952D01*
X128181228Y-17857904D02*
X128181228Y-17057904D01*
X128485990Y-17057904D01*
X128562180Y-17096000D01*
X128600276Y-17134095D01*
X128638371Y-17210285D01*
X128638371Y-17324571D01*
X128600276Y-17400761D01*
X128562180Y-17438857D01*
X128485990Y-17476952D01*
X128181228Y-17476952D01*
X129324085Y-17857904D02*
X129324085Y-17438857D01*
X129285990Y-17362666D01*
X129209800Y-17324571D01*
X129057419Y-17324571D01*
X128981228Y-17362666D01*
X129324085Y-17819809D02*
X129247895Y-17857904D01*
X129057419Y-17857904D01*
X128981228Y-17819809D01*
X128943133Y-17743619D01*
X128943133Y-17667428D01*
X128981228Y-17591238D01*
X129057419Y-17553142D01*
X129247895Y-17553142D01*
X129324085Y-17515047D01*
X129628847Y-17057904D02*
X129819323Y-17857904D01*
X129971704Y-17286476D01*
X130124085Y-17857904D01*
X130314561Y-17057904D01*
X130581228Y-17629333D02*
X130962180Y-17629333D01*
X130505038Y-17857904D02*
X130771704Y-17057904D01*
X131038371Y-17857904D01*
X131305038Y-17857904D02*
X131305038Y-17057904D01*
X131762180Y-17857904D01*
X131762180Y-17057904D01*
X117362180Y-18929333D02*
X117743133Y-18929333D01*
X117285990Y-19157904D02*
X117552657Y-18357904D01*
X117819323Y-19157904D01*
X118428847Y-18624571D02*
X118428847Y-19157904D01*
X118085990Y-18624571D02*
X118085990Y-19043619D01*
X118124085Y-19119809D01*
X118200276Y-19157904D01*
X118314561Y-19157904D01*
X118390752Y-19119809D01*
X118428847Y-19081714D01*
X118695514Y-18624571D02*
X119000276Y-18624571D01*
X118809800Y-18357904D02*
X118809800Y-19043619D01*
X118847895Y-19119809D01*
X118924085Y-19157904D01*
X119000276Y-19157904D01*
X119381228Y-19157904D02*
X119305038Y-19119809D01*
X119266942Y-19081714D01*
X119228847Y-19005523D01*
X119228847Y-18776952D01*
X119266942Y-18700761D01*
X119305038Y-18662666D01*
X119381228Y-18624571D01*
X119495514Y-18624571D01*
X119571704Y-18662666D01*
X119609800Y-18700761D01*
X119647895Y-18776952D01*
X119647895Y-19005523D01*
X119609800Y-19081714D01*
X119571704Y-19119809D01*
X119495514Y-19157904D01*
X119381228Y-19157904D01*
X119990752Y-19157904D02*
X119990752Y-18624571D01*
X119990752Y-18776952D02*
X120028847Y-18700761D01*
X120066942Y-18662666D01*
X120143133Y-18624571D01*
X120219323Y-18624571D01*
X120485990Y-19081714D02*
X120524085Y-19119809D01*
X120485990Y-19157904D01*
X120447895Y-19119809D01*
X120485990Y-19081714D01*
X120485990Y-19157904D01*
X120485990Y-18662666D02*
X120524085Y-18700761D01*
X120485990Y-18738857D01*
X120447895Y-18700761D01*
X120485990Y-18662666D01*
X120485990Y-18738857D01*
X121476466Y-19157904D02*
X121476466Y-18357904D01*
X121781228Y-18357904D01*
X121857419Y-18396000D01*
X121895514Y-18434095D01*
X121933609Y-18510285D01*
X121933609Y-18624571D01*
X121895514Y-18700761D01*
X121857419Y-18738857D01*
X121781228Y-18776952D01*
X121476466Y-18776952D01*
X122581228Y-19119809D02*
X122505038Y-19157904D01*
X122352657Y-19157904D01*
X122276466Y-19119809D01*
X122238371Y-19043619D01*
X122238371Y-18738857D01*
X122276466Y-18662666D01*
X122352657Y-18624571D01*
X122505038Y-18624571D01*
X122581228Y-18662666D01*
X122619323Y-18738857D01*
X122619323Y-18815047D01*
X122238371Y-18891238D01*
X123305038Y-19157904D02*
X123305038Y-18357904D01*
X123305038Y-19119809D02*
X123228847Y-19157904D01*
X123076466Y-19157904D01*
X123000276Y-19119809D01*
X122962180Y-19081714D01*
X122924085Y-19005523D01*
X122924085Y-18776952D01*
X122962180Y-18700761D01*
X123000276Y-18662666D01*
X123076466Y-18624571D01*
X123228847Y-18624571D01*
X123305038Y-18662666D01*
X123685990Y-19157904D02*
X123685990Y-18624571D01*
X123685990Y-18776952D02*
X123724085Y-18700761D01*
X123762180Y-18662666D01*
X123838371Y-18624571D01*
X123914561Y-18624571D01*
X124295514Y-19157904D02*
X124219323Y-19119809D01*
X124181228Y-19081714D01*
X124143133Y-19005523D01*
X124143133Y-18776952D01*
X124181228Y-18700761D01*
X124219323Y-18662666D01*
X124295514Y-18624571D01*
X124409800Y-18624571D01*
X124485990Y-18662666D01*
X124524085Y-18700761D01*
X124562180Y-18776952D01*
X124562180Y-19005523D01*
X124524085Y-19081714D01*
X124485990Y-19119809D01*
X124409800Y-19157904D01*
X124295514Y-19157904D01*
X125781228Y-18738857D02*
X125895514Y-18776952D01*
X125933609Y-18815047D01*
X125971704Y-18891238D01*
X125971704Y-19005523D01*
X125933609Y-19081714D01*
X125895514Y-19119809D01*
X125819323Y-19157904D01*
X125514561Y-19157904D01*
X125514561Y-18357904D01*
X125781228Y-18357904D01*
X125857419Y-18396000D01*
X125895514Y-18434095D01*
X125933609Y-18510285D01*
X125933609Y-18586476D01*
X125895514Y-18662666D01*
X125857419Y-18700761D01*
X125781228Y-18738857D01*
X125514561Y-18738857D01*
X126619323Y-19119809D02*
X126543133Y-19157904D01*
X126390752Y-19157904D01*
X126314561Y-19119809D01*
X126276466Y-19043619D01*
X126276466Y-18738857D01*
X126314561Y-18662666D01*
X126390752Y-18624571D01*
X126543133Y-18624571D01*
X126619323Y-18662666D01*
X126657419Y-18738857D01*
X126657419Y-18815047D01*
X126276466Y-18891238D01*
X127000276Y-19157904D02*
X127000276Y-18624571D01*
X127000276Y-18776952D02*
X127038371Y-18700761D01*
X127076466Y-18662666D01*
X127152657Y-18624571D01*
X127228847Y-18624571D01*
X127381228Y-18624571D02*
X127685990Y-18624571D01*
X127495514Y-18357904D02*
X127495514Y-19043619D01*
X127533609Y-19119809D01*
X127609800Y-19157904D01*
X127685990Y-19157904D01*
X128066942Y-19157904D02*
X127990752Y-19119809D01*
X127952657Y-19081714D01*
X127914561Y-19005523D01*
X127914561Y-18776952D01*
X127952657Y-18700761D01*
X127990752Y-18662666D01*
X128066942Y-18624571D01*
X128181228Y-18624571D01*
X128257419Y-18662666D01*
X128295514Y-18700761D01*
X128333609Y-18776952D01*
X128333609Y-19005523D01*
X128295514Y-19081714D01*
X128257419Y-19119809D01*
X128181228Y-19157904D01*
X128066942Y-19157904D01*
X128790752Y-19157904D02*
X128714561Y-19119809D01*
X128676466Y-19043619D01*
X128676466Y-18357904D01*
X129400276Y-19119809D02*
X129324085Y-19157904D01*
X129171704Y-19157904D01*
X129095514Y-19119809D01*
X129057419Y-19043619D01*
X129057419Y-18738857D01*
X129095514Y-18662666D01*
X129171704Y-18624571D01*
X129324085Y-18624571D01*
X129400276Y-18662666D01*
X129438371Y-18738857D01*
X129438371Y-18815047D01*
X129057419Y-18891238D01*
X129666942Y-18624571D02*
X129971704Y-18624571D01*
X129781228Y-18357904D02*
X129781228Y-19043619D01*
X129819323Y-19119809D01*
X129895514Y-19157904D01*
X129971704Y-19157904D01*
X130238371Y-19157904D02*
X130238371Y-18624571D01*
X130238371Y-18357904D02*
X130200276Y-18396000D01*
X130238371Y-18434095D01*
X130276466Y-18396000D01*
X130238371Y-18357904D01*
X130238371Y-18434095D01*
X117324085Y-19924571D02*
X117476466Y-20457904D01*
X117628847Y-20076952D01*
X117781228Y-20457904D01*
X117933609Y-19924571D01*
X118162180Y-19924571D02*
X118314561Y-20457904D01*
X118466942Y-20076952D01*
X118619323Y-20457904D01*
X118771704Y-19924571D01*
X119000276Y-19924571D02*
X119152657Y-20457904D01*
X119305038Y-20076952D01*
X119457419Y-20457904D01*
X119609800Y-19924571D01*
X119914561Y-20381714D02*
X119952657Y-20419809D01*
X119914561Y-20457904D01*
X119876466Y-20419809D01*
X119914561Y-20381714D01*
X119914561Y-20457904D01*
X120295514Y-19924571D02*
X120295514Y-20724571D01*
X120295514Y-19962666D02*
X120371704Y-19924571D01*
X120524085Y-19924571D01*
X120600276Y-19962666D01*
X120638371Y-20000761D01*
X120676466Y-20076952D01*
X120676466Y-20305523D01*
X120638371Y-20381714D01*
X120600276Y-20419809D01*
X120524085Y-20457904D01*
X120371704Y-20457904D01*
X120295514Y-20419809D01*
X121324085Y-20419809D02*
X121247895Y-20457904D01*
X121095514Y-20457904D01*
X121019323Y-20419809D01*
X120981228Y-20343619D01*
X120981228Y-20038857D01*
X121019323Y-19962666D01*
X121095514Y-19924571D01*
X121247895Y-19924571D01*
X121324085Y-19962666D01*
X121362180Y-20038857D01*
X121362180Y-20115047D01*
X120981228Y-20191238D01*
X122047895Y-20457904D02*
X122047895Y-19657904D01*
X122047895Y-20419809D02*
X121971704Y-20457904D01*
X121819323Y-20457904D01*
X121743133Y-20419809D01*
X121705038Y-20381714D01*
X121666942Y-20305523D01*
X121666942Y-20076952D01*
X121705038Y-20000761D01*
X121743133Y-19962666D01*
X121819323Y-19924571D01*
X121971704Y-19924571D01*
X122047895Y-19962666D01*
X122428847Y-20457904D02*
X122428847Y-19924571D01*
X122428847Y-20076952D02*
X122466942Y-20000761D01*
X122505038Y-19962666D01*
X122581228Y-19924571D01*
X122657419Y-19924571D01*
X123038371Y-20457904D02*
X122962180Y-20419809D01*
X122924085Y-20381714D01*
X122885990Y-20305523D01*
X122885990Y-20076952D01*
X122924085Y-20000761D01*
X122962180Y-19962666D01*
X123038371Y-19924571D01*
X123152657Y-19924571D01*
X123228847Y-19962666D01*
X123266942Y-20000761D01*
X123305038Y-20076952D01*
X123305038Y-20305523D01*
X123266942Y-20381714D01*
X123228847Y-20419809D01*
X123152657Y-20457904D01*
X123038371Y-20457904D01*
X123647895Y-20457904D02*
X123647895Y-19657904D01*
X123647895Y-19962666D02*
X123724085Y-19924571D01*
X123876466Y-19924571D01*
X123952657Y-19962666D01*
X123990752Y-20000761D01*
X124028847Y-20076952D01*
X124028847Y-20305523D01*
X123990752Y-20381714D01*
X123952657Y-20419809D01*
X123876466Y-20457904D01*
X123724085Y-20457904D01*
X123647895Y-20419809D01*
X124676466Y-20419809D02*
X124600276Y-20457904D01*
X124447895Y-20457904D01*
X124371704Y-20419809D01*
X124333609Y-20343619D01*
X124333609Y-20038857D01*
X124371704Y-19962666D01*
X124447895Y-19924571D01*
X124600276Y-19924571D01*
X124676466Y-19962666D01*
X124714561Y-20038857D01*
X124714561Y-20115047D01*
X124333609Y-20191238D01*
X125057419Y-20457904D02*
X125057419Y-19924571D01*
X125057419Y-20076952D02*
X125095514Y-20000761D01*
X125133609Y-19962666D01*
X125209800Y-19924571D01*
X125285990Y-19924571D01*
X125438371Y-19924571D02*
X125743133Y-19924571D01*
X125552657Y-19657904D02*
X125552657Y-20343619D01*
X125590752Y-20419809D01*
X125666942Y-20457904D01*
X125743133Y-20457904D01*
X126124085Y-20457904D02*
X126047895Y-20419809D01*
X126009800Y-20381714D01*
X125971704Y-20305523D01*
X125971704Y-20076952D01*
X126009800Y-20000761D01*
X126047895Y-19962666D01*
X126124085Y-19924571D01*
X126238371Y-19924571D01*
X126314561Y-19962666D01*
X126352657Y-20000761D01*
X126390752Y-20076952D01*
X126390752Y-20305523D01*
X126352657Y-20381714D01*
X126314561Y-20419809D01*
X126238371Y-20457904D01*
X126124085Y-20457904D01*
X126847895Y-20457904D02*
X126771704Y-20419809D01*
X126733609Y-20343619D01*
X126733609Y-19657904D01*
X127457419Y-20419809D02*
X127381228Y-20457904D01*
X127228847Y-20457904D01*
X127152657Y-20419809D01*
X127114561Y-20343619D01*
X127114561Y-20038857D01*
X127152657Y-19962666D01*
X127228847Y-19924571D01*
X127381228Y-19924571D01*
X127457419Y-19962666D01*
X127495514Y-20038857D01*
X127495514Y-20115047D01*
X127114561Y-20191238D01*
X127724085Y-19924571D02*
X128028847Y-19924571D01*
X127838371Y-19657904D02*
X127838371Y-20343619D01*
X127876466Y-20419809D01*
X127952657Y-20457904D01*
X128028847Y-20457904D01*
X128295514Y-20457904D02*
X128295514Y-19924571D01*
X128295514Y-19657904D02*
X128257419Y-19696000D01*
X128295514Y-19734095D01*
X128333609Y-19696000D01*
X128295514Y-19657904D01*
X128295514Y-19734095D01*
X128676466Y-20381714D02*
X128714561Y-20419809D01*
X128676466Y-20457904D01*
X128638371Y-20419809D01*
X128676466Y-20381714D01*
X128676466Y-20457904D01*
X129400276Y-20419809D02*
X129324085Y-20457904D01*
X129171704Y-20457904D01*
X129095514Y-20419809D01*
X129057419Y-20381714D01*
X129019323Y-20305523D01*
X129019323Y-20076952D01*
X129057419Y-20000761D01*
X129095514Y-19962666D01*
X129171704Y-19924571D01*
X129324085Y-19924571D01*
X129400276Y-19962666D01*
X129857419Y-20457904D02*
X129781228Y-20419809D01*
X129743133Y-20381714D01*
X129705038Y-20305523D01*
X129705038Y-20076952D01*
X129743133Y-20000761D01*
X129781228Y-19962666D01*
X129857419Y-19924571D01*
X129971704Y-19924571D01*
X130047895Y-19962666D01*
X130085990Y-20000761D01*
X130124085Y-20076952D01*
X130124085Y-20305523D01*
X130085990Y-20381714D01*
X130047895Y-20419809D01*
X129971704Y-20457904D01*
X129857419Y-20457904D01*
X130466942Y-20457904D02*
X130466942Y-19924571D01*
X130466942Y-20000761D02*
X130505038Y-19962666D01*
X130581228Y-19924571D01*
X130695514Y-19924571D01*
X130771704Y-19962666D01*
X130809800Y-20038857D01*
X130809800Y-20457904D01*
X130809800Y-20038857D02*
X130847895Y-19962666D01*
X130924085Y-19924571D01*
X131038371Y-19924571D01*
X131114561Y-19962666D01*
X131152657Y-20038857D01*
X131152657Y-20457904D01*
X131533609Y-20381714D02*
X131571704Y-20419809D01*
X131533609Y-20457904D01*
X131495514Y-20419809D01*
X131533609Y-20381714D01*
X131533609Y-20457904D01*
X131914561Y-20457904D02*
X131914561Y-19657904D01*
X131914561Y-19962666D02*
X131990752Y-19924571D01*
X132143133Y-19924571D01*
X132219323Y-19962666D01*
X132257419Y-20000761D01*
X132295514Y-20076952D01*
X132295514Y-20305523D01*
X132257419Y-20381714D01*
X132219323Y-20419809D01*
X132143133Y-20457904D01*
X131990752Y-20457904D01*
X131914561Y-20419809D01*
X132638371Y-20457904D02*
X132638371Y-19924571D01*
X132638371Y-20076952D02*
X132676466Y-20000761D01*
X132714561Y-19962666D01*
X132790752Y-19924571D01*
X132866942Y-19924571D01*
D11*
X77673200Y-14935200D02*
X77673200Y-15290800D01*
X77876400Y-14935200D02*
X77673200Y-14935200D01*
X136093200Y-14935200D02*
X77876400Y-14935200D01*
X136093200Y-89662000D02*
X136093200Y-14935200D01*
X77673200Y-89662000D02*
X136093200Y-89662000D01*
D12*
X80529600Y-19912800D02*
X81062933Y-19912800D01*
X80796266Y-20179466D02*
X80796266Y-19646133D01*
X81729600Y-19479466D02*
X81396266Y-19479466D01*
X81362933Y-19812800D01*
X81396266Y-19779466D01*
X81462933Y-19746133D01*
X81629600Y-19746133D01*
X81696266Y-19779466D01*
X81729600Y-19812800D01*
X81762933Y-19879466D01*
X81762933Y-20046133D01*
X81729600Y-20112800D01*
X81696266Y-20146133D01*
X81629600Y-20179466D01*
X81462933Y-20179466D01*
X81396266Y-20146133D01*
X81362933Y-20112800D01*
X81962933Y-19479466D02*
X82196266Y-20179466D01*
X82429600Y-19479466D01*
X83196266Y-19912800D02*
X83729600Y-19912800D01*
X83462933Y-20179466D02*
X83462933Y-19646133D01*
X83996266Y-19479466D02*
X84429600Y-19479466D01*
X84196266Y-19746133D01*
X84296266Y-19746133D01*
X84362933Y-19779466D01*
X84396266Y-19812800D01*
X84429600Y-19879466D01*
X84429600Y-20046133D01*
X84396266Y-20112800D01*
X84362933Y-20146133D01*
X84296266Y-20179466D01*
X84096266Y-20179466D01*
X84029600Y-20146133D01*
X83996266Y-20112800D01*
X84629600Y-19479466D02*
X84862933Y-20179466D01*
X85096266Y-19479466D01*
X85262933Y-19479466D02*
X85696266Y-19479466D01*
X85462933Y-19746133D01*
X85562933Y-19746133D01*
X85629600Y-19779466D01*
X85662933Y-19812800D01*
X85696266Y-19879466D01*
X85696266Y-20046133D01*
X85662933Y-20112800D01*
X85629600Y-20146133D01*
X85562933Y-20179466D01*
X85362933Y-20179466D01*
X85296266Y-20146133D01*
X85262933Y-20112800D01*
X86896266Y-19512800D02*
X86829600Y-19479466D01*
X86729600Y-19479466D01*
X86629600Y-19512800D01*
X86562933Y-19579466D01*
X86529600Y-19646133D01*
X86496266Y-19779466D01*
X86496266Y-19879466D01*
X86529600Y-20012800D01*
X86562933Y-20079466D01*
X86629600Y-20146133D01*
X86729600Y-20179466D01*
X86796266Y-20179466D01*
X86896266Y-20146133D01*
X86929600Y-20112800D01*
X86929600Y-19879466D01*
X86796266Y-19879466D01*
X87229600Y-20179466D02*
X87229600Y-19479466D01*
X87629600Y-20179466D01*
X87629600Y-19479466D01*
X87962933Y-20179466D02*
X87962933Y-19479466D01*
X88129600Y-19479466D01*
X88229600Y-19512800D01*
X88296266Y-19579466D01*
X88329600Y-19646133D01*
X88362933Y-19779466D01*
X88362933Y-19879466D01*
X88329600Y-20012800D01*
X88296266Y-20079466D01*
X88229600Y-20146133D01*
X88129600Y-20179466D01*
X87962933Y-20179466D01*
D13*
X88644361Y-43216057D02*
X88691980Y-43073200D01*
X88691980Y-42835104D01*
X88644361Y-42739866D01*
X88596742Y-42692247D01*
X88501504Y-42644628D01*
X88406266Y-42644628D01*
X88311028Y-42692247D01*
X88263409Y-42739866D01*
X88215790Y-42835104D01*
X88168171Y-43025580D01*
X88120552Y-43120819D01*
X88072933Y-43168438D01*
X87977695Y-43216057D01*
X87882457Y-43216057D01*
X87787219Y-43168438D01*
X87739600Y-43120819D01*
X87691980Y-43025580D01*
X87691980Y-42787485D01*
X87739600Y-42644628D01*
X88691980Y-42216057D02*
X88025314Y-42216057D01*
X87691980Y-42216057D02*
X87739600Y-42263676D01*
X87787219Y-42216057D01*
X87739600Y-42168438D01*
X87691980Y-42216057D01*
X87787219Y-42216057D01*
X88025314Y-41311295D02*
X88834838Y-41311295D01*
X88930076Y-41358914D01*
X88977695Y-41406533D01*
X89025314Y-41501771D01*
X89025314Y-41644628D01*
X88977695Y-41739866D01*
X88644361Y-41311295D02*
X88691980Y-41406533D01*
X88691980Y-41597009D01*
X88644361Y-41692247D01*
X88596742Y-41739866D01*
X88501504Y-41787485D01*
X88215790Y-41787485D01*
X88120552Y-41739866D01*
X88072933Y-41692247D01*
X88025314Y-41597009D01*
X88025314Y-41406533D01*
X88072933Y-41311295D01*
X87739600Y-38025580D02*
X87691980Y-38120819D01*
X87691980Y-38263676D01*
X87739600Y-38406533D01*
X87834838Y-38501771D01*
X87930076Y-38549390D01*
X88120552Y-38597009D01*
X88263409Y-38597009D01*
X88453885Y-38549390D01*
X88549123Y-38501771D01*
X88644361Y-38406533D01*
X88691980Y-38263676D01*
X88691980Y-38168438D01*
X88644361Y-38025580D01*
X88596742Y-37977961D01*
X88263409Y-37977961D01*
X88263409Y-38168438D01*
X88691980Y-37549390D02*
X87691980Y-37549390D01*
X88691980Y-36977961D01*
X87691980Y-36977961D01*
X88691980Y-36501771D02*
X87691980Y-36501771D01*
X87691980Y-36263676D01*
X87739600Y-36120819D01*
X87834838Y-36025580D01*
X87930076Y-35977961D01*
X88120552Y-35930342D01*
X88263409Y-35930342D01*
X88453885Y-35977961D01*
X88549123Y-36025580D01*
X88644361Y-36120819D01*
X88691980Y-36263676D01*
X88691980Y-36501771D01*
X80889695Y-88920628D02*
X81651600Y-88920628D01*
X83651600Y-88920628D02*
X84413504Y-88920628D01*
X84032552Y-89301580D02*
X84032552Y-88539676D01*
D11*
X77673200Y-15290800D02*
X77673200Y-89662000D01*
D14*
X121016933Y-67010800D02*
X120950266Y-66977466D01*
X120850266Y-66977466D01*
X120750266Y-67010800D01*
X120683600Y-67077466D01*
X120650266Y-67144133D01*
X120616933Y-67277466D01*
X120616933Y-67377466D01*
X120650266Y-67510800D01*
X120683600Y-67577466D01*
X120750266Y-67644133D01*
X120850266Y-67677466D01*
X120916933Y-67677466D01*
X121016933Y-67644133D01*
X121050266Y-67610800D01*
X121050266Y-67377466D01*
X120916933Y-67377466D01*
X121350266Y-67677466D02*
X121350266Y-66977466D01*
X121750266Y-67677466D01*
X121750266Y-66977466D01*
X122083600Y-67677466D02*
X122083600Y-66977466D01*
X122250266Y-66977466D01*
X122350266Y-67010800D01*
X122416933Y-67077466D01*
X122450266Y-67144133D01*
X122483600Y-67277466D01*
X122483600Y-67377466D01*
X122450266Y-67510800D01*
X122416933Y-67577466D01*
X122350266Y-67644133D01*
X122250266Y-67677466D01*
X122083600Y-67677466D01*
X123250266Y-66977466D02*
X123683600Y-66977466D01*
X123450266Y-67244133D01*
X123550266Y-67244133D01*
X123616933Y-67277466D01*
X123650266Y-67310800D01*
X123683600Y-67377466D01*
X123683600Y-67544133D01*
X123650266Y-67610800D01*
X123616933Y-67644133D01*
X123550266Y-67677466D01*
X123350266Y-67677466D01*
X123283600Y-67644133D01*
X123250266Y-67610800D01*
X123883600Y-66977466D02*
X124116933Y-67677466D01*
X124350266Y-66977466D01*
X124516933Y-66977466D02*
X124950266Y-66977466D01*
X124716933Y-67244133D01*
X124816933Y-67244133D01*
X124883600Y-67277466D01*
X124916933Y-67310800D01*
X124950266Y-67377466D01*
X124950266Y-67544133D01*
X124916933Y-67610800D01*
X124883600Y-67644133D01*
X124816933Y-67677466D01*
X124616933Y-67677466D01*
X124550266Y-67644133D01*
X124516933Y-67610800D01*
X82353276Y-30844609D02*
X82467561Y-30882704D01*
X82658038Y-30882704D01*
X82734228Y-30844609D01*
X82772323Y-30806514D01*
X82810419Y-30730323D01*
X82810419Y-30654133D01*
X82772323Y-30577942D01*
X82734228Y-30539847D01*
X82658038Y-30501752D01*
X82505657Y-30463657D01*
X82429466Y-30425561D01*
X82391371Y-30387466D01*
X82353276Y-30311276D01*
X82353276Y-30235085D01*
X82391371Y-30158895D01*
X82429466Y-30120800D01*
X82505657Y-30082704D01*
X82696133Y-30082704D01*
X82810419Y-30120800D01*
X83153276Y-30882704D02*
X83153276Y-30082704D01*
X83953276Y-30120800D02*
X83877085Y-30082704D01*
X83762800Y-30082704D01*
X83648514Y-30120800D01*
X83572323Y-30196990D01*
X83534228Y-30273180D01*
X83496133Y-30425561D01*
X83496133Y-30539847D01*
X83534228Y-30692228D01*
X83572323Y-30768419D01*
X83648514Y-30844609D01*
X83762800Y-30882704D01*
X83838990Y-30882704D01*
X83953276Y-30844609D01*
X83991371Y-30806514D01*
X83991371Y-30539847D01*
X83838990Y-30539847D01*
X84334228Y-30806514D02*
X84372323Y-30844609D01*
X84334228Y-30882704D01*
X84296133Y-30844609D01*
X84334228Y-30806514D01*
X84334228Y-30882704D01*
X84334228Y-30387466D02*
X84372323Y-30425561D01*
X84334228Y-30463657D01*
X84296133Y-30425561D01*
X84334228Y-30387466D01*
X84334228Y-30463657D01*
X79477085Y-32162704D02*
X79477085Y-31362704D01*
X79743752Y-31934133D01*
X80010419Y-31362704D01*
X80010419Y-32162704D01*
X80353276Y-31934133D02*
X80734228Y-31934133D01*
X80277085Y-32162704D02*
X80543752Y-31362704D01*
X80810419Y-32162704D01*
X81000895Y-31362704D02*
X81534228Y-32162704D01*
X81534228Y-31362704D02*
X81000895Y-32162704D01*
X81838990Y-32086514D02*
X81877085Y-32124609D01*
X81838990Y-32162704D01*
X81800895Y-32124609D01*
X81838990Y-32086514D01*
X81838990Y-32162704D01*
X81838990Y-31667466D02*
X81877085Y-31705561D01*
X81838990Y-31743657D01*
X81800895Y-31705561D01*
X81838990Y-31667466D01*
X81838990Y-31743657D01*
X82829466Y-31857942D02*
X83438990Y-31857942D01*
X83134228Y-32162704D02*
X83134228Y-31553180D01*
X84238990Y-32162704D02*
X83781847Y-32162704D01*
X84010419Y-32162704D02*
X84010419Y-31362704D01*
X83934228Y-31476990D01*
X83858038Y-31553180D01*
X83781847Y-31591276D01*
X84543752Y-31438895D02*
X84581847Y-31400800D01*
X84658038Y-31362704D01*
X84848514Y-31362704D01*
X84924704Y-31400800D01*
X84962800Y-31438895D01*
X85000895Y-31515085D01*
X85000895Y-31591276D01*
X84962800Y-31705561D01*
X84505657Y-32162704D01*
X85000895Y-32162704D01*
X85229466Y-31362704D02*
X85496133Y-32162704D01*
X85762800Y-31362704D01*
X86029466Y-32162704D02*
X86029466Y-31362704D01*
X86219942Y-31362704D01*
X86334228Y-31400800D01*
X86410419Y-31476990D01*
X86448514Y-31553180D01*
X86486609Y-31705561D01*
X86486609Y-31819847D01*
X86448514Y-31972228D01*
X86410419Y-32048419D01*
X86334228Y-32124609D01*
X86219942Y-32162704D01*
X86029466Y-32162704D01*
X87286609Y-32086514D02*
X87248514Y-32124609D01*
X87134228Y-32162704D01*
X87058038Y-32162704D01*
X86943752Y-32124609D01*
X86867561Y-32048419D01*
X86829466Y-31972228D01*
X86791371Y-31819847D01*
X86791371Y-31705561D01*
X86829466Y-31553180D01*
X86867561Y-31476990D01*
X86943752Y-31400800D01*
X87058038Y-31362704D01*
X87134228Y-31362704D01*
X87248514Y-31400800D01*
X87286609Y-31438895D01*
X79400895Y-33442704D02*
X79400895Y-32642704D01*
X79667561Y-33214133D01*
X79934228Y-32642704D01*
X79934228Y-33442704D01*
X80315180Y-33442704D02*
X80315180Y-32642704D01*
X80696133Y-33442704D02*
X80696133Y-32642704D01*
X81153276Y-33442704D01*
X81153276Y-32642704D01*
X81534228Y-33366514D02*
X81572323Y-33404609D01*
X81534228Y-33442704D01*
X81496133Y-33404609D01*
X81534228Y-33366514D01*
X81534228Y-33442704D01*
X81534228Y-32947466D02*
X81572323Y-32985561D01*
X81534228Y-33023657D01*
X81496133Y-32985561D01*
X81534228Y-32947466D01*
X81534228Y-33023657D01*
X82524704Y-33137942D02*
X83134228Y-33137942D01*
X82829466Y-33442704D02*
X82829466Y-32833180D01*
X83438990Y-32642704D02*
X83934228Y-32642704D01*
X83667561Y-32947466D01*
X83781847Y-32947466D01*
X83858038Y-32985561D01*
X83896133Y-33023657D01*
X83934228Y-33099847D01*
X83934228Y-33290323D01*
X83896133Y-33366514D01*
X83858038Y-33404609D01*
X83781847Y-33442704D01*
X83553276Y-33442704D01*
X83477085Y-33404609D01*
X83438990Y-33366514D01*
X84277085Y-33366514D02*
X84315180Y-33404609D01*
X84277085Y-33442704D01*
X84238990Y-33404609D01*
X84277085Y-33366514D01*
X84277085Y-33442704D01*
X84581847Y-32642704D02*
X85077085Y-32642704D01*
X84810419Y-32947466D01*
X84924704Y-32947466D01*
X85000895Y-32985561D01*
X85038990Y-33023657D01*
X85077085Y-33099847D01*
X85077085Y-33290323D01*
X85038990Y-33366514D01*
X85000895Y-33404609D01*
X84924704Y-33442704D01*
X84696133Y-33442704D01*
X84619942Y-33404609D01*
X84581847Y-33366514D01*
X85305657Y-32642704D02*
X85572323Y-33442704D01*
X85838990Y-32642704D01*
X86105657Y-33442704D02*
X86105657Y-32642704D01*
X86296133Y-32642704D01*
X86410419Y-32680800D01*
X86486609Y-32756990D01*
X86524704Y-32833180D01*
X86562800Y-32985561D01*
X86562800Y-33099847D01*
X86524704Y-33252228D01*
X86486609Y-33328419D01*
X86410419Y-33404609D01*
X86296133Y-33442704D01*
X86105657Y-33442704D01*
X87362800Y-33366514D02*
X87324704Y-33404609D01*
X87210419Y-33442704D01*
X87134228Y-33442704D01*
X87019942Y-33404609D01*
X86943752Y-33328419D01*
X86905657Y-33252228D01*
X86867561Y-33099847D01*
X86867561Y-32985561D01*
X86905657Y-32833180D01*
X86943752Y-32756990D01*
X87019942Y-32680800D01*
X87134228Y-32642704D01*
X87210419Y-32642704D01*
X87324704Y-32680800D01*
X87362800Y-32718895D01*
D15*
X86071445Y-41058753D02*
G75*
G03X86071600Y-42558400I1700155J-749647D01*
G01*
X86071445Y-35978753D02*
G75*
G03X86071600Y-37478400I1700155J-749647D01*
G01*
X79461600Y-44458400D02*
X86931600Y-44458400D01*
X86931600Y-44458400D02*
X86931600Y-34078400D01*
X86931600Y-34078400D02*
X79461600Y-34078400D01*
X79461600Y-34078400D02*
X79461600Y-44458400D01*
X86071600Y-42558400D02*
X86071600Y-43308400D01*
X86071600Y-43308400D02*
X81771600Y-43308400D01*
X81771600Y-43308400D02*
X81771600Y-42558400D01*
X81771600Y-42558400D02*
X81421600Y-42558400D01*
X81421600Y-42558400D02*
X81421600Y-43058400D01*
X81421600Y-43058400D02*
X80421600Y-43308400D01*
X80421600Y-43308400D02*
X80421600Y-40308400D01*
X80421600Y-40308400D02*
X81421600Y-40558400D01*
X81421600Y-40558400D02*
X81421600Y-41058400D01*
X81421600Y-41058400D02*
X81771600Y-41058400D01*
X81771600Y-41058400D02*
X81771600Y-40308400D01*
X81771600Y-40308400D02*
X86071600Y-40308400D01*
X86071600Y-40308400D02*
X86071600Y-41058400D01*
X86071600Y-37478400D02*
X86071600Y-38228400D01*
X86071600Y-38228400D02*
X81771600Y-38228400D01*
X81771600Y-38228400D02*
X81771600Y-37478400D01*
X81771600Y-37478400D02*
X81421600Y-37478400D01*
X81421600Y-37478400D02*
X81421600Y-37978400D01*
X81421600Y-37978400D02*
X80421600Y-38228400D01*
X80421600Y-38228400D02*
X80421600Y-35228400D01*
X80421600Y-35228400D02*
X81421600Y-35478400D01*
X81421600Y-35478400D02*
X81421600Y-35978400D01*
X81421600Y-35978400D02*
X81771600Y-35978400D01*
X81771600Y-35978400D02*
X81771600Y-35228400D01*
X81771600Y-35228400D02*
X86071600Y-35228400D01*
X86071600Y-35228400D02*
X86071600Y-35978400D01*
X80321600Y-44848400D02*
X79071600Y-44848400D01*
X79071600Y-44848400D02*
X79071600Y-42848400D01*
X88452000Y-18805200D02*
X88452000Y-16145200D01*
X83312000Y-18805200D02*
X88452000Y-18805200D01*
X83312000Y-16145200D02*
X88452000Y-16145200D01*
X83312000Y-18805200D02*
X83312000Y-16145200D01*
X82042000Y-18805200D02*
X80712000Y-18805200D01*
X80712000Y-18805200D02*
X80712000Y-17475200D01*
X85687400Y-84830000D02*
X85687400Y-83230000D01*
X85687400Y-83230000D02*
X83887400Y-83230000D01*
X83887400Y-83230000D02*
X83887400Y-82290000D01*
X79717400Y-84830000D02*
X79717400Y-83230000D01*
X79717400Y-83230000D02*
X81517400Y-83230000D01*
X84417400Y-87700000D02*
X80987400Y-87700000D01*
X102657600Y-84412000D02*
X107857600Y-84412000D01*
X107857600Y-84412000D02*
X107857600Y-81752000D01*
X107857600Y-81752000D02*
X102657600Y-81752000D01*
X102657600Y-81752000D02*
X102657600Y-84412000D01*
X103607600Y-81752000D02*
X103607600Y-75752000D01*
X103607600Y-75752000D02*
X104367600Y-75752000D01*
X104367600Y-75752000D02*
X104367600Y-81752000D01*
X103667600Y-81752000D02*
X103667600Y-75752000D01*
X103787600Y-81752000D02*
X103787600Y-75752000D01*
X103907600Y-81752000D02*
X103907600Y-75752000D01*
X104027600Y-81752000D02*
X104027600Y-75752000D01*
X104147600Y-81752000D02*
X104147600Y-75752000D01*
X104267600Y-81752000D02*
X104267600Y-75752000D01*
X103607600Y-84742000D02*
X103607600Y-84412000D01*
X104367600Y-84742000D02*
X104367600Y-84412000D01*
X105257600Y-84412000D02*
X105257600Y-81752000D01*
X106147600Y-81752000D02*
X106147600Y-75752000D01*
X106147600Y-75752000D02*
X106907600Y-75752000D01*
X106907600Y-75752000D02*
X106907600Y-81752000D01*
X106147600Y-84809071D02*
X106147600Y-84412000D01*
X106907600Y-84809071D02*
X106907600Y-84412000D01*
X103987600Y-87122000D02*
X102717600Y-87122000D01*
X102717600Y-87122000D02*
X102717600Y-85852000D01*
X132020000Y-32562800D02*
X134680000Y-32562800D01*
X132020000Y-32562800D02*
X132020000Y-50402800D01*
X132020000Y-50402800D02*
X134680000Y-50402800D01*
X134680000Y-32562800D02*
X134680000Y-50402800D01*
X134680000Y-29962800D02*
X134680000Y-31292800D01*
X133350000Y-29962800D02*
X134680000Y-29962800D01*
X134629200Y-63144400D02*
X131969200Y-63144400D01*
X134629200Y-63144400D02*
X134629200Y-55464400D01*
X134629200Y-55464400D02*
X131969200Y-55464400D01*
X131969200Y-63144400D02*
X131969200Y-55464400D01*
X131969200Y-65744400D02*
X131969200Y-64414400D01*
X133299200Y-65744400D02*
X131969200Y-65744400D01*
D16*
X130073400Y-73406000D02*
X132994400Y-73533000D01*
X133248400Y-73787000D02*
X132994400Y-73533000D01*
X133248400Y-73787000D02*
X133248400Y-83185000D01*
X132994400Y-83439000D02*
X133248400Y-83185000D01*
X132994400Y-83439000D02*
X130073400Y-83566000D01*
X132892800Y-82981800D02*
G75*
G03X132892800Y-82981800I-254000J0D01*
G01*
D17*
G36*
X128930400Y-83826440D02*
G01*
X128930400Y-73152000D01*
X129693319Y-73152000D01*
X129693319Y-83826440D01*
X128930400Y-83826440D01*
G37*
X128930400Y-83826440D02*
X128930400Y-73152000D01*
X129693319Y-73152000D01*
X129693319Y-83826440D01*
X128930400Y-83826440D01*
G36*
X129692400Y-83822720D02*
G01*
X129692400Y-81915000D01*
X130201050Y-81915000D01*
X130201050Y-83822720D01*
X129692400Y-83822720D01*
G37*
X129692400Y-83822720D02*
X129692400Y-81915000D01*
X130201050Y-81915000D01*
X130201050Y-83822720D01*
X129692400Y-83822720D01*
G36*
X129692400Y-80139540D02*
G01*
X129692400Y-79375000D01*
X130202360Y-79375000D01*
X130202360Y-80139540D01*
X129692400Y-80139540D01*
G37*
X129692400Y-80139540D02*
X129692400Y-79375000D01*
X130202360Y-79375000D01*
X130202360Y-80139540D01*
X129692400Y-80139540D01*
G36*
X129692400Y-77596303D02*
G01*
X129692400Y-76835000D01*
X130201400Y-76835000D01*
X130201400Y-77596303D01*
X129692400Y-77596303D01*
G37*
X129692400Y-77596303D02*
X129692400Y-76835000D01*
X130201400Y-76835000D01*
X130201400Y-77596303D01*
X129692400Y-77596303D01*
G36*
X129692400Y-75054420D02*
G01*
X129692400Y-73152000D01*
X130201360Y-73152000D01*
X130201360Y-75054420D01*
X129692400Y-75054420D01*
G37*
X129692400Y-75054420D02*
X129692400Y-73152000D01*
X130201360Y-73152000D01*
X130201360Y-75054420D01*
X129692400Y-75054420D01*
G36*
X84023200Y-59514780D02*
G01*
X84023200Y-61417200D01*
X83514240Y-61417200D01*
X83514240Y-59514780D01*
X84023200Y-59514780D01*
G37*
X84023200Y-59514780D02*
X84023200Y-61417200D01*
X83514240Y-61417200D01*
X83514240Y-59514780D01*
X84023200Y-59514780D01*
G36*
X84023200Y-56972897D02*
G01*
X84023200Y-57734200D01*
X83514200Y-57734200D01*
X83514200Y-56972897D01*
X84023200Y-56972897D01*
G37*
X84023200Y-56972897D02*
X84023200Y-57734200D01*
X83514200Y-57734200D01*
X83514200Y-56972897D01*
X84023200Y-56972897D01*
G36*
X84023200Y-54429660D02*
G01*
X84023200Y-55194200D01*
X83513240Y-55194200D01*
X83513240Y-54429660D01*
X84023200Y-54429660D01*
G37*
X84023200Y-54429660D02*
X84023200Y-55194200D01*
X83513240Y-55194200D01*
X83513240Y-54429660D01*
X84023200Y-54429660D01*
G36*
X84023200Y-50746480D02*
G01*
X84023200Y-52654200D01*
X83514550Y-52654200D01*
X83514550Y-50746480D01*
X84023200Y-50746480D01*
G37*
X84023200Y-50746480D02*
X84023200Y-52654200D01*
X83514550Y-52654200D01*
X83514550Y-50746480D01*
X84023200Y-50746480D01*
G36*
X84785200Y-50742760D02*
G01*
X84785200Y-61417200D01*
X84022281Y-61417200D01*
X84022281Y-50742760D01*
X84785200Y-50742760D01*
G37*
X84785200Y-50742760D02*
X84785200Y-61417200D01*
X84022281Y-61417200D01*
X84022281Y-50742760D01*
X84785200Y-50742760D01*
D16*
X81330800Y-51587400D02*
G75*
G03X81330800Y-51587400I-254000J0D01*
G01*
X80721200Y-51130200D02*
X83642200Y-51003200D01*
X80721200Y-51130200D02*
X80467200Y-51384200D01*
X80467200Y-60782200D02*
X80467200Y-51384200D01*
X80467200Y-60782200D02*
X80721200Y-61036200D01*
X83642200Y-61163200D02*
X80721200Y-61036200D01*
D15*
X97605600Y-85647200D02*
X97605600Y-82907200D01*
X97605600Y-82907200D02*
X91065600Y-82907200D01*
X91065600Y-82907200D02*
X91065600Y-85647200D01*
X91065600Y-85647200D02*
X97605600Y-85647200D01*
X98375600Y-84277200D02*
X97605600Y-84277200D01*
X90295600Y-84277200D02*
X91065600Y-84277200D01*
X82397600Y-76785600D02*
X82397600Y-76015600D01*
X82397600Y-68705600D02*
X82397600Y-69475600D01*
X83767600Y-76015600D02*
X83767600Y-69475600D01*
X81027600Y-76015600D02*
X83767600Y-76015600D01*
X81027600Y-69475600D02*
X81027600Y-76015600D01*
X83767600Y-69475600D02*
X81027600Y-69475600D01*
X84736000Y-76117200D02*
X87476000Y-76117200D01*
X87476000Y-76117200D02*
X87476000Y-69577200D01*
X87476000Y-69577200D02*
X84736000Y-69577200D01*
X84736000Y-69577200D02*
X84736000Y-76117200D01*
X86106000Y-76887200D02*
X86106000Y-76117200D01*
X86106000Y-68807200D02*
X86106000Y-69577200D01*
X113792000Y-76986000D02*
X113792000Y-77756000D01*
X113792000Y-85066000D02*
X113792000Y-84296000D01*
X112422000Y-77756000D02*
X112422000Y-84296000D01*
X115162000Y-77756000D02*
X112422000Y-77756000D01*
X115162000Y-84296000D02*
X115162000Y-77756000D01*
X112422000Y-84296000D02*
X115162000Y-84296000D01*
X120021600Y-85447200D02*
X120021600Y-88187200D01*
X120021600Y-88187200D02*
X126561600Y-88187200D01*
X126561600Y-88187200D02*
X126561600Y-85447200D01*
X126561600Y-85447200D02*
X120021600Y-85447200D01*
X119251600Y-86817200D02*
X120021600Y-86817200D01*
X127331600Y-86817200D02*
X126561600Y-86817200D01*
X115074700Y-63246000D02*
X115074700Y-17526000D01*
X91135200Y-17526000D02*
X91135200Y-63246000D01*
X91135200Y-17526000D02*
X115011200Y-17526000D01*
X115074700Y-68199000D02*
X115074700Y-63119000D01*
X95580200Y-70866000D02*
X110820200Y-70866000D01*
X91135200Y-63246000D02*
X91135200Y-68326000D01*
X115074700Y-68199000D02*
X110820200Y-70866000D01*
X95580200Y-70866000D02*
X91135200Y-68326000D01*
D13*
X124431200Y-70038800D02*
X120831200Y-70038800D01*
X120831200Y-70038800D02*
X120331200Y-69538800D01*
X120331200Y-69538800D02*
X120331200Y-68738800D01*
X120331200Y-68738800D02*
X120831200Y-68238800D01*
X120831200Y-68238800D02*
X124431200Y-68238800D01*
X124431200Y-68238800D02*
X124931200Y-68738800D01*
X124931200Y-68738800D02*
X124931200Y-69538800D01*
X124931200Y-69538800D02*
X124431200Y-70038800D01*
X134005580Y-42024133D02*
X133529390Y-42357466D01*
X134005580Y-42595561D02*
X133005580Y-42595561D01*
X133005580Y-42214609D01*
X133053200Y-42119371D01*
X133100819Y-42071752D01*
X133196057Y-42024133D01*
X133338914Y-42024133D01*
X133434152Y-42071752D01*
X133481771Y-42119371D01*
X133529390Y-42214609D01*
X133529390Y-42595561D01*
X133481771Y-41595561D02*
X133481771Y-41262228D01*
X134005580Y-41119371D02*
X134005580Y-41595561D01*
X133005580Y-41595561D01*
X133005580Y-41119371D01*
X133481771Y-40357466D02*
X133481771Y-40690800D01*
X134005580Y-40690800D02*
X133005580Y-40690800D01*
X133005580Y-40214609D01*
X133005580Y-39690800D02*
X133243676Y-39690800D01*
X133148438Y-39928895D02*
X133243676Y-39690800D01*
X133148438Y-39452704D01*
X133434152Y-39833657D02*
X133243676Y-39690800D01*
X133434152Y-39547942D01*
X133005580Y-38928895D02*
X133243676Y-38928895D01*
X133148438Y-39166990D02*
X133243676Y-38928895D01*
X133148438Y-38690800D01*
X133434152Y-39071752D02*
X133243676Y-38928895D01*
X133434152Y-38786038D01*
X78609866Y-44969180D02*
X78609866Y-45683466D01*
X78562247Y-45826323D01*
X78467009Y-45921561D01*
X78324152Y-45969180D01*
X78228914Y-45969180D01*
X79609866Y-45969180D02*
X79038438Y-45969180D01*
X79324152Y-45969180D02*
X79324152Y-44969180D01*
X79228914Y-45112038D01*
X79133676Y-45207276D01*
X79038438Y-45254895D01*
D14*
X80670819Y-45662857D02*
X80937485Y-45662857D01*
X81051771Y-46081904D02*
X80670819Y-46081904D01*
X80670819Y-45281904D01*
X81051771Y-45281904D01*
X81394628Y-46081904D02*
X81394628Y-45281904D01*
X81851771Y-46081904D01*
X81851771Y-45281904D01*
X82118438Y-45281904D02*
X82575580Y-45281904D01*
X82347009Y-46081904D02*
X82347009Y-45281904D01*
X82651771Y-46158095D02*
X83261295Y-46158095D01*
X83451771Y-46081904D02*
X83451771Y-45281904D01*
X83642247Y-45281904D01*
X83756533Y-45320000D01*
X83832723Y-45396190D01*
X83870819Y-45472380D01*
X83908914Y-45624761D01*
X83908914Y-45739047D01*
X83870819Y-45891428D01*
X83832723Y-45967619D01*
X83756533Y-46043809D01*
X83642247Y-46081904D01*
X83451771Y-46081904D01*
X84251771Y-46081904D02*
X84251771Y-45281904D01*
X85051771Y-45320000D02*
X84975580Y-45281904D01*
X84861295Y-45281904D01*
X84747009Y-45320000D01*
X84670819Y-45396190D01*
X84632723Y-45472380D01*
X84594628Y-45624761D01*
X84594628Y-45739047D01*
X84632723Y-45891428D01*
X84670819Y-45967619D01*
X84747009Y-46043809D01*
X84861295Y-46081904D01*
X84937485Y-46081904D01*
X85051771Y-46043809D01*
X85089866Y-46005714D01*
X85089866Y-45739047D01*
X84937485Y-45739047D01*
X85432723Y-46081904D02*
X85432723Y-45281904D01*
X85699390Y-45281904D02*
X86156533Y-45281904D01*
X85927961Y-46081904D02*
X85927961Y-45281904D01*
X86385104Y-45853333D02*
X86766057Y-45853333D01*
X86308914Y-46081904D02*
X86575580Y-45281904D01*
X86842247Y-46081904D01*
X87489866Y-46081904D02*
X87108914Y-46081904D01*
X87108914Y-45281904D01*
D13*
X78863866Y-18299180D02*
X78863866Y-19013466D01*
X78816247Y-19156323D01*
X78721009Y-19251561D01*
X78578152Y-19299180D01*
X78482914Y-19299180D01*
X79292438Y-18394419D02*
X79340057Y-18346800D01*
X79435295Y-18299180D01*
X79673390Y-18299180D01*
X79768628Y-18346800D01*
X79816247Y-18394419D01*
X79863866Y-18489657D01*
X79863866Y-18584895D01*
X79816247Y-18727752D01*
X79244819Y-19299180D01*
X79863866Y-19299180D01*
X82504209Y-21686780D02*
X82504209Y-20686780D01*
X82885161Y-20686780D01*
X82980400Y-20734400D01*
X83028019Y-20782019D01*
X83075638Y-20877257D01*
X83075638Y-21020114D01*
X83028019Y-21115352D01*
X82980400Y-21162971D01*
X82885161Y-21210590D01*
X82504209Y-21210590D01*
X83647066Y-21686780D02*
X83551828Y-21639161D01*
X83504209Y-21591542D01*
X83456590Y-21496304D01*
X83456590Y-21210590D01*
X83504209Y-21115352D01*
X83551828Y-21067733D01*
X83647066Y-21020114D01*
X83789923Y-21020114D01*
X83885161Y-21067733D01*
X83932780Y-21115352D01*
X83980400Y-21210590D01*
X83980400Y-21496304D01*
X83932780Y-21591542D01*
X83885161Y-21639161D01*
X83789923Y-21686780D01*
X83647066Y-21686780D01*
X84313733Y-21020114D02*
X84504209Y-21686780D01*
X84694685Y-21210590D01*
X84885161Y-21686780D01*
X85075638Y-21020114D01*
X85837542Y-21639161D02*
X85742304Y-21686780D01*
X85551828Y-21686780D01*
X85456590Y-21639161D01*
X85408971Y-21543923D01*
X85408971Y-21162971D01*
X85456590Y-21067733D01*
X85551828Y-21020114D01*
X85742304Y-21020114D01*
X85837542Y-21067733D01*
X85885161Y-21162971D01*
X85885161Y-21258209D01*
X85408971Y-21353447D01*
X86313733Y-21686780D02*
X86313733Y-21020114D01*
X86313733Y-21210590D02*
X86361352Y-21115352D01*
X86408971Y-21067733D01*
X86504209Y-21020114D01*
X86599447Y-21020114D01*
X87093466Y-86371180D02*
X87093466Y-87085466D01*
X87045847Y-87228323D01*
X86950609Y-87323561D01*
X86807752Y-87371180D01*
X86712514Y-87371180D01*
X87998228Y-86704514D02*
X87998228Y-87371180D01*
X87760133Y-86323561D02*
X87522038Y-87037847D01*
X88141085Y-87037847D01*
D14*
X78264400Y-80823600D02*
X78364400Y-80856933D01*
X78397733Y-80890266D01*
X78431066Y-80956933D01*
X78431066Y-81056933D01*
X78397733Y-81123600D01*
X78364400Y-81156933D01*
X78297733Y-81190266D01*
X78031066Y-81190266D01*
X78031066Y-80490266D01*
X78264400Y-80490266D01*
X78331066Y-80523600D01*
X78364400Y-80556933D01*
X78397733Y-80623600D01*
X78397733Y-80690266D01*
X78364400Y-80756933D01*
X78331066Y-80790266D01*
X78264400Y-80823600D01*
X78031066Y-80823600D01*
X78697733Y-80990266D02*
X79031066Y-80990266D01*
X78631066Y-81190266D02*
X78864400Y-80490266D01*
X79097733Y-81190266D01*
X79231066Y-80490266D02*
X79631066Y-80490266D01*
X79431066Y-81190266D02*
X79431066Y-80490266D01*
X79697733Y-81256933D02*
X80231066Y-81256933D01*
X80397733Y-80823600D02*
X80631066Y-80823600D01*
X80731066Y-81190266D02*
X80397733Y-81190266D01*
X80397733Y-80490266D01*
X80731066Y-80490266D01*
X80964400Y-80490266D02*
X81431066Y-81190266D01*
X81431066Y-80490266D02*
X80964400Y-81190266D01*
X81597733Y-80490266D02*
X81997733Y-80490266D01*
X81797733Y-81190266D02*
X81797733Y-80490266D01*
X82064400Y-81256933D02*
X82597733Y-81256933D01*
X82964400Y-80490266D02*
X82964400Y-80990266D01*
X82931066Y-81090266D01*
X82864400Y-81156933D01*
X82764400Y-81190266D01*
X82697733Y-81190266D01*
X83264400Y-81156933D02*
X83364400Y-81190266D01*
X83531066Y-81190266D01*
X83597733Y-81156933D01*
X83631066Y-81123600D01*
X83664400Y-81056933D01*
X83664400Y-80990266D01*
X83631066Y-80923600D01*
X83597733Y-80890266D01*
X83531066Y-80856933D01*
X83397733Y-80823600D01*
X83331066Y-80790266D01*
X83297733Y-80756933D01*
X83264400Y-80690266D01*
X83264400Y-80623600D01*
X83297733Y-80556933D01*
X83331066Y-80523600D01*
X83397733Y-80490266D01*
X83564400Y-80490266D01*
X83664400Y-80523600D01*
X83864400Y-80490266D02*
X84264400Y-80490266D01*
X84064400Y-81190266D02*
X84064400Y-80490266D01*
X84331066Y-81256933D02*
X84864400Y-81256933D01*
X85397733Y-81190266D02*
X84997733Y-81190266D01*
X85197733Y-81190266D02*
X85197733Y-80490266D01*
X85131066Y-80590266D01*
X85064400Y-80656933D01*
X84997733Y-80690266D01*
X85697733Y-81123600D02*
X85731066Y-81156933D01*
X85697733Y-81190266D01*
X85664400Y-81156933D01*
X85697733Y-81123600D01*
X85697733Y-81190266D01*
X85997733Y-80556933D02*
X86031066Y-80523600D01*
X86097733Y-80490266D01*
X86264400Y-80490266D01*
X86331066Y-80523600D01*
X86364400Y-80556933D01*
X86397733Y-80623600D01*
X86397733Y-80690266D01*
X86364400Y-80790266D01*
X85964400Y-81190266D01*
X86397733Y-81190266D01*
X87031066Y-80490266D02*
X86697733Y-80490266D01*
X86664400Y-80823600D01*
X86697733Y-80790266D01*
X86764400Y-80756933D01*
X86931066Y-80756933D01*
X86997733Y-80790266D01*
X87031066Y-80823600D01*
X87064400Y-80890266D01*
X87064400Y-81056933D01*
X87031066Y-81123600D01*
X86997733Y-81156933D01*
X86931066Y-81190266D01*
X86764400Y-81190266D01*
X86697733Y-81156933D01*
X86664400Y-81123600D01*
X87364400Y-81190266D02*
X87364400Y-80723600D01*
X87364400Y-80790266D02*
X87397733Y-80756933D01*
X87464400Y-80723600D01*
X87564400Y-80723600D01*
X87631066Y-80756933D01*
X87664400Y-80823600D01*
X87664400Y-81190266D01*
X87664400Y-80823600D02*
X87697733Y-80756933D01*
X87764400Y-80723600D01*
X87864400Y-80723600D01*
X87931066Y-80756933D01*
X87964400Y-80823600D01*
X87964400Y-81190266D01*
X88297733Y-81190266D02*
X88297733Y-80723600D01*
X88297733Y-80790266D02*
X88331066Y-80756933D01*
X88397733Y-80723600D01*
X88497733Y-80723600D01*
X88564400Y-80756933D01*
X88597733Y-80823600D01*
X88597733Y-81190266D01*
X88597733Y-80823600D02*
X88631066Y-80756933D01*
X88697733Y-80723600D01*
X88797733Y-80723600D01*
X88864400Y-80756933D01*
X88897733Y-80823600D01*
X88897733Y-81190266D01*
D13*
X100950780Y-81714933D02*
X101665066Y-81714933D01*
X101807923Y-81762552D01*
X101903161Y-81857790D01*
X101950780Y-82000647D01*
X101950780Y-82095885D01*
X100950780Y-80762552D02*
X100950780Y-81238742D01*
X101426971Y-81286361D01*
X101379352Y-81238742D01*
X101331733Y-81143504D01*
X101331733Y-80905409D01*
X101379352Y-80810171D01*
X101426971Y-80762552D01*
X101522209Y-80714933D01*
X101760304Y-80714933D01*
X101855542Y-80762552D01*
X101903161Y-80810171D01*
X101950780Y-80905409D01*
X101950780Y-81143504D01*
X101903161Y-81238742D01*
X101855542Y-81286361D01*
X109351771Y-87438714D02*
X109399390Y-87295857D01*
X109447009Y-87248238D01*
X109542247Y-87200619D01*
X109685104Y-87200619D01*
X109780342Y-87248238D01*
X109827961Y-87295857D01*
X109875580Y-87391095D01*
X109875580Y-87772047D01*
X108875580Y-87772047D01*
X108875580Y-87438714D01*
X108923200Y-87343476D01*
X108970819Y-87295857D01*
X109066057Y-87248238D01*
X109161295Y-87248238D01*
X109256533Y-87295857D01*
X109304152Y-87343476D01*
X109351771Y-87438714D01*
X109351771Y-87772047D01*
X109589866Y-86819666D02*
X109589866Y-86343476D01*
X109875580Y-86914904D02*
X108875580Y-86581571D01*
X109875580Y-86248238D01*
X108875580Y-86057761D02*
X108875580Y-85486333D01*
X109875580Y-85772047D02*
X108875580Y-85772047D01*
X109970819Y-85391095D02*
X109970819Y-84629190D01*
X109875580Y-84391095D02*
X108875580Y-84391095D01*
X109351771Y-84391095D02*
X109351771Y-83819666D01*
X109875580Y-83819666D02*
X108875580Y-83819666D01*
X109351771Y-83343476D02*
X109351771Y-83010142D01*
X109875580Y-82867285D02*
X109875580Y-83343476D01*
X108875580Y-83343476D01*
X108875580Y-82867285D01*
X109875580Y-81962523D02*
X109875580Y-82438714D01*
X108875580Y-82438714D01*
X108875580Y-81772047D02*
X108875580Y-81200619D01*
X109875580Y-81486333D02*
X108875580Y-81486333D01*
X109351771Y-80867285D02*
X109351771Y-80533952D01*
X109875580Y-80391095D02*
X109875580Y-80867285D01*
X108875580Y-80867285D01*
X108875580Y-80391095D01*
X109780342Y-79391095D02*
X109827961Y-79438714D01*
X109875580Y-79581571D01*
X109875580Y-79676809D01*
X109827961Y-79819666D01*
X109732723Y-79914904D01*
X109637485Y-79962523D01*
X109447009Y-80010142D01*
X109304152Y-80010142D01*
X109113676Y-79962523D01*
X109018438Y-79914904D01*
X108923200Y-79819666D01*
X108875580Y-79676809D01*
X108875580Y-79581571D01*
X108923200Y-79438714D01*
X108970819Y-79391095D01*
X109970819Y-79200619D02*
X109970819Y-78438714D01*
X109780342Y-77629190D02*
X109827961Y-77676809D01*
X109875580Y-77819666D01*
X109875580Y-77914904D01*
X109827961Y-78057761D01*
X109732723Y-78153000D01*
X109637485Y-78200619D01*
X109447009Y-78248238D01*
X109304152Y-78248238D01*
X109113676Y-78200619D01*
X109018438Y-78153000D01*
X108923200Y-78057761D01*
X108875580Y-77914904D01*
X108875580Y-77819666D01*
X108923200Y-77676809D01*
X108970819Y-77629190D01*
X108875580Y-77010142D02*
X108875580Y-76819666D01*
X108923200Y-76724428D01*
X109018438Y-76629190D01*
X109208914Y-76581571D01*
X109542247Y-76581571D01*
X109732723Y-76629190D01*
X109827961Y-76724428D01*
X109875580Y-76819666D01*
X109875580Y-77010142D01*
X109827961Y-77105380D01*
X109732723Y-77200619D01*
X109542247Y-77248238D01*
X109208914Y-77248238D01*
X109018438Y-77200619D01*
X108923200Y-77105380D01*
X108875580Y-77010142D01*
X109875580Y-76153000D02*
X108875580Y-76153000D01*
X109875580Y-75581571D01*
X108875580Y-75581571D01*
X109875580Y-75105380D02*
X108875580Y-75105380D01*
X109875580Y-74533952D01*
X108875580Y-74533952D01*
X133016666Y-27975180D02*
X133016666Y-28689466D01*
X132969047Y-28832323D01*
X132873809Y-28927561D01*
X132730952Y-28975180D01*
X132635714Y-28975180D01*
X133921428Y-27975180D02*
X133730952Y-27975180D01*
X133635714Y-28022800D01*
X133588095Y-28070419D01*
X133492857Y-28213276D01*
X133445238Y-28403752D01*
X133445238Y-28784704D01*
X133492857Y-28879942D01*
X133540476Y-28927561D01*
X133635714Y-28975180D01*
X133826190Y-28975180D01*
X133921428Y-28927561D01*
X133969047Y-28879942D01*
X134016666Y-28784704D01*
X134016666Y-28546609D01*
X133969047Y-28451371D01*
X133921428Y-28403752D01*
X133826190Y-28356133D01*
X133635714Y-28356133D01*
X133540476Y-28403752D01*
X133492857Y-28451371D01*
X133445238Y-28546609D01*
X130282379Y-43270703D02*
X129282379Y-43270703D01*
X129996665Y-42937370D01*
X129282379Y-42604037D01*
X130282379Y-42604037D01*
X130282379Y-42127846D02*
X129282379Y-42127846D01*
X129282379Y-41746894D01*
X129329999Y-41651656D01*
X129377618Y-41604037D01*
X129472856Y-41556418D01*
X129615713Y-41556418D01*
X129710951Y-41604037D01*
X129758570Y-41651656D01*
X129806189Y-41746894D01*
X129806189Y-42127846D01*
X129282379Y-41127846D02*
X130091903Y-41127846D01*
X130187141Y-41080227D01*
X130234760Y-41032608D01*
X130282379Y-40937370D01*
X130282379Y-40746894D01*
X130234760Y-40651656D01*
X130187141Y-40604037D01*
X130091903Y-40556418D01*
X129282379Y-40556418D01*
X129282379Y-39651656D02*
X129282379Y-39842132D01*
X129329999Y-39937370D01*
X129377618Y-39984989D01*
X129520475Y-40080227D01*
X129710951Y-40127846D01*
X130091903Y-40127846D01*
X130187141Y-40080227D01*
X130234760Y-40032608D01*
X130282379Y-39937370D01*
X130282379Y-39746894D01*
X130234760Y-39651656D01*
X130187141Y-39604037D01*
X130091903Y-39556418D01*
X129853808Y-39556418D01*
X129758570Y-39604037D01*
X129710951Y-39651656D01*
X129663332Y-39746894D01*
X129663332Y-39937370D01*
X129710951Y-40032608D01*
X129758570Y-40080227D01*
X129853808Y-40127846D01*
X129282379Y-38937370D02*
X129282379Y-38842132D01*
X129329999Y-38746894D01*
X129377618Y-38699275D01*
X129472856Y-38651656D01*
X129663332Y-38604037D01*
X129901427Y-38604037D01*
X130091903Y-38651656D01*
X130187141Y-38699275D01*
X130234760Y-38746894D01*
X130282379Y-38842132D01*
X130282379Y-38937370D01*
X130234760Y-39032608D01*
X130187141Y-39080227D01*
X130091903Y-39127846D01*
X129901427Y-39175465D01*
X129663332Y-39175465D01*
X129472856Y-39127846D01*
X129377618Y-39080227D01*
X129329999Y-39032608D01*
X129282379Y-38937370D01*
X129282379Y-37699275D02*
X129282379Y-38175465D01*
X129758570Y-38223084D01*
X129710951Y-38175465D01*
X129663332Y-38080227D01*
X129663332Y-37842132D01*
X129710951Y-37746894D01*
X129758570Y-37699275D01*
X129853808Y-37651656D01*
X130091903Y-37651656D01*
X130187141Y-37699275D01*
X130234760Y-37746894D01*
X130282379Y-37842132D01*
X130282379Y-38080227D01*
X130234760Y-38175465D01*
X130187141Y-38223084D01*
X129282379Y-37032608D02*
X129282379Y-36937370D01*
X129329999Y-36842132D01*
X129377618Y-36794513D01*
X129472856Y-36746894D01*
X129663332Y-36699275D01*
X129901427Y-36699275D01*
X130091903Y-36746894D01*
X130187141Y-36794513D01*
X130234760Y-36842132D01*
X130282379Y-36937370D01*
X130282379Y-37032608D01*
X130234760Y-37127846D01*
X130187141Y-37175465D01*
X130091903Y-37223084D01*
X129901427Y-37270703D01*
X129663332Y-37270703D01*
X129472856Y-37223084D01*
X129377618Y-37175465D01*
X129329999Y-37127846D01*
X129282379Y-37032608D01*
X132965866Y-66636780D02*
X132965866Y-67351066D01*
X132918247Y-67493923D01*
X132823009Y-67589161D01*
X132680152Y-67636780D01*
X132584914Y-67636780D01*
X133346819Y-66636780D02*
X134013485Y-66636780D01*
X133584914Y-67636780D01*
X130052771Y-62905971D02*
X130100390Y-62763114D01*
X130148009Y-62715495D01*
X130243247Y-62667876D01*
X130386104Y-62667876D01*
X130481342Y-62715495D01*
X130528961Y-62763114D01*
X130576580Y-62858352D01*
X130576580Y-63239304D01*
X129576580Y-63239304D01*
X129576580Y-62905971D01*
X129624200Y-62810733D01*
X129671819Y-62763114D01*
X129767057Y-62715495D01*
X129862295Y-62715495D01*
X129957533Y-62763114D01*
X130005152Y-62810733D01*
X130052771Y-62905971D01*
X130052771Y-63239304D01*
X130576580Y-62239304D02*
X129576580Y-62239304D01*
X130290866Y-61905971D01*
X129576580Y-61572638D01*
X130576580Y-61572638D01*
X130576580Y-61096447D02*
X129576580Y-61096447D01*
X129576580Y-60715495D01*
X129624200Y-60620257D01*
X129671819Y-60572638D01*
X129767057Y-60525019D01*
X129909914Y-60525019D01*
X130005152Y-60572638D01*
X130052771Y-60620257D01*
X130100390Y-60715495D01*
X130100390Y-61096447D01*
X130576580Y-59572638D02*
X130576580Y-60144066D01*
X130576580Y-59858352D02*
X129576580Y-59858352D01*
X129719438Y-59953590D01*
X129814676Y-60048828D01*
X129862295Y-60144066D01*
X130005152Y-59001209D02*
X129957533Y-59096447D01*
X129909914Y-59144066D01*
X129814676Y-59191685D01*
X129767057Y-59191685D01*
X129671819Y-59144066D01*
X129624200Y-59096447D01*
X129576580Y-59001209D01*
X129576580Y-58810733D01*
X129624200Y-58715495D01*
X129671819Y-58667876D01*
X129767057Y-58620257D01*
X129814676Y-58620257D01*
X129909914Y-58667876D01*
X129957533Y-58715495D01*
X130005152Y-58810733D01*
X130005152Y-59001209D01*
X130052771Y-59096447D01*
X130100390Y-59144066D01*
X130195628Y-59191685D01*
X130386104Y-59191685D01*
X130481342Y-59144066D01*
X130528961Y-59096447D01*
X130576580Y-59001209D01*
X130576580Y-58810733D01*
X130528961Y-58715495D01*
X130481342Y-58667876D01*
X130386104Y-58620257D01*
X130195628Y-58620257D01*
X130100390Y-58667876D01*
X130052771Y-58715495D01*
X130005152Y-58810733D01*
X129576580Y-58001209D02*
X129576580Y-57905971D01*
X129624200Y-57810733D01*
X129671819Y-57763114D01*
X129767057Y-57715495D01*
X129957533Y-57667876D01*
X130195628Y-57667876D01*
X130386104Y-57715495D01*
X130481342Y-57763114D01*
X130528961Y-57810733D01*
X130576580Y-57905971D01*
X130576580Y-58001209D01*
X130528961Y-58096447D01*
X130481342Y-58144066D01*
X130386104Y-58191685D01*
X130195628Y-58239304D01*
X129957533Y-58239304D01*
X129767057Y-58191685D01*
X129671819Y-58144066D01*
X129624200Y-58096447D01*
X129576580Y-58001209D01*
D18*
X134939217Y-82518272D02*
X134891581Y-82613545D01*
X134796308Y-82708817D01*
X134653399Y-82851726D01*
X134605763Y-82946999D01*
X134605763Y-83042271D01*
X134843944Y-82994635D02*
X134796308Y-83089908D01*
X134701035Y-83185180D01*
X134510490Y-83232816D01*
X134177036Y-83232816D01*
X133986491Y-83185180D01*
X133891219Y-83089908D01*
X133843582Y-82994635D01*
X133843582Y-82804090D01*
X133891219Y-82708817D01*
X133986491Y-82613545D01*
X134177036Y-82565908D01*
X134510490Y-82565908D01*
X134701035Y-82613545D01*
X134796308Y-82708817D01*
X134843944Y-82804090D01*
X134843944Y-82994635D01*
X134843944Y-81613183D02*
X134843944Y-82184818D01*
X134843944Y-81899000D02*
X133843582Y-81899000D01*
X133986491Y-81994273D01*
X134081764Y-82089546D01*
X134129400Y-82184818D01*
X134446891Y-79283438D02*
X134446891Y-79617144D01*
X134971286Y-79617144D02*
X133970168Y-79617144D01*
X133970168Y-79140421D01*
X135066631Y-78091631D02*
X135018959Y-78186975D01*
X134923614Y-78282320D01*
X134780597Y-78425337D01*
X134732925Y-78520681D01*
X134732925Y-78616026D01*
X134971286Y-78568354D02*
X134923614Y-78663698D01*
X134828269Y-78759043D01*
X134637580Y-78806715D01*
X134303874Y-78806715D01*
X134113185Y-78759043D01*
X134017841Y-78663698D01*
X133970168Y-78568354D01*
X133970168Y-78377664D01*
X134017841Y-78282320D01*
X134113185Y-78186975D01*
X134303874Y-78139303D01*
X134637580Y-78139303D01*
X134828269Y-78186975D01*
X134923614Y-78282320D01*
X134971286Y-78377664D01*
X134971286Y-78568354D01*
X134971286Y-77710252D02*
X133970168Y-77710252D01*
X133970168Y-77328874D01*
X134017841Y-77233530D01*
X134065513Y-77185857D01*
X134160857Y-77138185D01*
X134303874Y-77138185D01*
X134399219Y-77185857D01*
X134446891Y-77233530D01*
X134494563Y-77328874D01*
X134494563Y-77710252D01*
X133970168Y-76804479D02*
X133970168Y-76184739D01*
X134351547Y-76518445D01*
X134351547Y-76375428D01*
X134399219Y-76280084D01*
X134446891Y-76232412D01*
X134542236Y-76184739D01*
X134780597Y-76184739D01*
X134875942Y-76232412D01*
X134923614Y-76280084D01*
X134971286Y-76375428D01*
X134971286Y-76661462D01*
X134923614Y-76756807D01*
X134875942Y-76804479D01*
X133970168Y-75565000D02*
X133970168Y-75469655D01*
X134017841Y-75374310D01*
X134065513Y-75326638D01*
X134160857Y-75278966D01*
X134351547Y-75231294D01*
X134589908Y-75231294D01*
X134780597Y-75278966D01*
X134875942Y-75326638D01*
X134923614Y-75374310D01*
X134971286Y-75469655D01*
X134971286Y-75565000D01*
X134923614Y-75660344D01*
X134875942Y-75708016D01*
X134780597Y-75755689D01*
X134589908Y-75803361D01*
X134351547Y-75803361D01*
X134160857Y-75755689D01*
X134065513Y-75708016D01*
X134017841Y-75660344D01*
X133970168Y-75565000D01*
X134971286Y-74802243D02*
X133970168Y-74802243D01*
X134971286Y-74230176D01*
X133970168Y-74230176D01*
X133970168Y-73562764D02*
X133970168Y-73467419D01*
X134017841Y-73372074D01*
X134065513Y-73324402D01*
X134160857Y-73276730D01*
X134351547Y-73229058D01*
X134589908Y-73229058D01*
X134780597Y-73276730D01*
X134875942Y-73324402D01*
X134923614Y-73372074D01*
X134971286Y-73467419D01*
X134971286Y-73562764D01*
X134923614Y-73658108D01*
X134875942Y-73705780D01*
X134780597Y-73753453D01*
X134589908Y-73801125D01*
X134351547Y-73801125D01*
X134160857Y-73753453D01*
X134065513Y-73705780D01*
X134017841Y-73658108D01*
X133970168Y-73562764D01*
X133970168Y-72370956D02*
X133970168Y-72561646D01*
X134017841Y-72656990D01*
X134065513Y-72704662D01*
X134208530Y-72800007D01*
X134399219Y-72847679D01*
X134780597Y-72847679D01*
X134875942Y-72800007D01*
X134923614Y-72752335D01*
X134971286Y-72656990D01*
X134971286Y-72466301D01*
X134923614Y-72370956D01*
X134875942Y-72323284D01*
X134780597Y-72275612D01*
X134542236Y-72275612D01*
X134446891Y-72323284D01*
X134399219Y-72370956D01*
X134351547Y-72466301D01*
X134351547Y-72656990D01*
X134399219Y-72752335D01*
X134446891Y-72800007D01*
X134542236Y-72847679D01*
X134971286Y-71369838D02*
X134971286Y-71846561D01*
X133970168Y-71846561D01*
X86755417Y-61766472D02*
X86707781Y-61861745D01*
X86612508Y-61957017D01*
X86469599Y-62099926D01*
X86421963Y-62195199D01*
X86421963Y-62290471D01*
X86660144Y-62242835D02*
X86612508Y-62338108D01*
X86517235Y-62433380D01*
X86326690Y-62481016D01*
X85993236Y-62481016D01*
X85802691Y-62433380D01*
X85707419Y-62338108D01*
X85659782Y-62242835D01*
X85659782Y-62052290D01*
X85707419Y-61957017D01*
X85802691Y-61861745D01*
X85993236Y-61814108D01*
X86326690Y-61814108D01*
X86517235Y-61861745D01*
X86612508Y-61957017D01*
X86660144Y-62052290D01*
X86660144Y-62242835D01*
X85755055Y-61433018D02*
X85707419Y-61385382D01*
X85659782Y-61290109D01*
X85659782Y-61051928D01*
X85707419Y-60956655D01*
X85755055Y-60909019D01*
X85850327Y-60861383D01*
X85945600Y-60861383D01*
X86088509Y-60909019D01*
X86660144Y-61480654D01*
X86660144Y-60861383D01*
X85983691Y-58379238D02*
X85983691Y-58712944D01*
X86508086Y-58712944D02*
X85506968Y-58712944D01*
X85506968Y-58236221D01*
X86603431Y-57187431D02*
X86555759Y-57282775D01*
X86460414Y-57378120D01*
X86317397Y-57521137D01*
X86269725Y-57616481D01*
X86269725Y-57711826D01*
X86508086Y-57664154D02*
X86460414Y-57759498D01*
X86365069Y-57854843D01*
X86174380Y-57902515D01*
X85840674Y-57902515D01*
X85649985Y-57854843D01*
X85554641Y-57759498D01*
X85506968Y-57664154D01*
X85506968Y-57473464D01*
X85554641Y-57378120D01*
X85649985Y-57282775D01*
X85840674Y-57235103D01*
X86174380Y-57235103D01*
X86365069Y-57282775D01*
X86460414Y-57378120D01*
X86508086Y-57473464D01*
X86508086Y-57664154D01*
X86508086Y-56806052D02*
X85506968Y-56806052D01*
X85506968Y-56424674D01*
X85554641Y-56329330D01*
X85602313Y-56281657D01*
X85697657Y-56233985D01*
X85840674Y-56233985D01*
X85936019Y-56281657D01*
X85983691Y-56329330D01*
X86031363Y-56424674D01*
X86031363Y-56806052D01*
X85506968Y-55900279D02*
X85506968Y-55280539D01*
X85888347Y-55614245D01*
X85888347Y-55471228D01*
X85936019Y-55375884D01*
X85983691Y-55328212D01*
X86079036Y-55280539D01*
X86317397Y-55280539D01*
X86412742Y-55328212D01*
X86460414Y-55375884D01*
X86508086Y-55471228D01*
X86508086Y-55757262D01*
X86460414Y-55852607D01*
X86412742Y-55900279D01*
X85506968Y-54660800D02*
X85506968Y-54565455D01*
X85554641Y-54470110D01*
X85602313Y-54422438D01*
X85697657Y-54374766D01*
X85888347Y-54327094D01*
X86126708Y-54327094D01*
X86317397Y-54374766D01*
X86412742Y-54422438D01*
X86460414Y-54470110D01*
X86508086Y-54565455D01*
X86508086Y-54660800D01*
X86460414Y-54756144D01*
X86412742Y-54803816D01*
X86317397Y-54851489D01*
X86126708Y-54899161D01*
X85888347Y-54899161D01*
X85697657Y-54851489D01*
X85602313Y-54803816D01*
X85554641Y-54756144D01*
X85506968Y-54660800D01*
X86508086Y-53898043D02*
X85506968Y-53898043D01*
X86508086Y-53325976D01*
X85506968Y-53325976D01*
X85506968Y-52658564D02*
X85506968Y-52563219D01*
X85554641Y-52467874D01*
X85602313Y-52420202D01*
X85697657Y-52372530D01*
X85888347Y-52324858D01*
X86126708Y-52324858D01*
X86317397Y-52372530D01*
X86412742Y-52420202D01*
X86460414Y-52467874D01*
X86508086Y-52563219D01*
X86508086Y-52658564D01*
X86460414Y-52753908D01*
X86412742Y-52801580D01*
X86317397Y-52849253D01*
X86126708Y-52896925D01*
X85888347Y-52896925D01*
X85697657Y-52849253D01*
X85602313Y-52801580D01*
X85554641Y-52753908D01*
X85506968Y-52658564D01*
X85506968Y-51466756D02*
X85506968Y-51657446D01*
X85554641Y-51752790D01*
X85602313Y-51800462D01*
X85745330Y-51895807D01*
X85936019Y-51943479D01*
X86317397Y-51943479D01*
X86412742Y-51895807D01*
X86460414Y-51848135D01*
X86508086Y-51752790D01*
X86508086Y-51562101D01*
X86460414Y-51466756D01*
X86412742Y-51419084D01*
X86317397Y-51371412D01*
X86079036Y-51371412D01*
X85983691Y-51419084D01*
X85936019Y-51466756D01*
X85888347Y-51562101D01*
X85888347Y-51752790D01*
X85936019Y-51848135D01*
X85983691Y-51895807D01*
X86079036Y-51943479D01*
X86508086Y-50465638D02*
X86508086Y-50942361D01*
X85506968Y-50942361D01*
D13*
X94168933Y-87099580D02*
X93835600Y-86623390D01*
X93597504Y-87099580D02*
X93597504Y-86099580D01*
X93978457Y-86099580D01*
X94073695Y-86147200D01*
X94121314Y-86194819D01*
X94168933Y-86290057D01*
X94168933Y-86432914D01*
X94121314Y-86528152D01*
X94073695Y-86575771D01*
X93978457Y-86623390D01*
X93597504Y-86623390D01*
X95121314Y-87099580D02*
X94549885Y-87099580D01*
X94835600Y-87099580D02*
X94835600Y-86099580D01*
X94740361Y-86242438D01*
X94645123Y-86337676D01*
X94549885Y-86385295D01*
X93264171Y-82359580D02*
X92692742Y-82359580D01*
X92978457Y-82359580D02*
X92978457Y-81359580D01*
X92883219Y-81502438D01*
X92787980Y-81597676D01*
X92692742Y-81645295D01*
X93883219Y-81359580D02*
X93978457Y-81359580D01*
X94073695Y-81407200D01*
X94121314Y-81454819D01*
X94168933Y-81550057D01*
X94216552Y-81740533D01*
X94216552Y-81978628D01*
X94168933Y-82169104D01*
X94121314Y-82264342D01*
X94073695Y-82311961D01*
X93978457Y-82359580D01*
X93883219Y-82359580D01*
X93787980Y-82311961D01*
X93740361Y-82264342D01*
X93692742Y-82169104D01*
X93645123Y-81978628D01*
X93645123Y-81740533D01*
X93692742Y-81550057D01*
X93740361Y-81454819D01*
X93787980Y-81407200D01*
X93883219Y-81359580D01*
X94835600Y-81359580D02*
X94930838Y-81359580D01*
X95026076Y-81407200D01*
X95073695Y-81454819D01*
X95121314Y-81550057D01*
X95168933Y-81740533D01*
X95168933Y-81978628D01*
X95121314Y-82169104D01*
X95073695Y-82264342D01*
X95026076Y-82311961D01*
X94930838Y-82359580D01*
X94835600Y-82359580D01*
X94740361Y-82311961D01*
X94692742Y-82264342D01*
X94645123Y-82169104D01*
X94597504Y-81978628D01*
X94597504Y-81740533D01*
X94645123Y-81550057D01*
X94692742Y-81454819D01*
X94740361Y-81407200D01*
X94835600Y-81359580D01*
X95597504Y-82359580D02*
X95597504Y-81359580D01*
X95692742Y-81978628D02*
X95978457Y-82359580D01*
X95978457Y-81692914D02*
X95597504Y-82073866D01*
X80436980Y-70753266D02*
X79960790Y-71086600D01*
X80436980Y-71324695D02*
X79436980Y-71324695D01*
X79436980Y-70943742D01*
X79484600Y-70848504D01*
X79532219Y-70800885D01*
X79627457Y-70753266D01*
X79770314Y-70753266D01*
X79865552Y-70800885D01*
X79913171Y-70848504D01*
X79960790Y-70943742D01*
X79960790Y-71324695D01*
X79532219Y-70372314D02*
X79484600Y-70324695D01*
X79436980Y-70229457D01*
X79436980Y-69991361D01*
X79484600Y-69896123D01*
X79532219Y-69848504D01*
X79627457Y-69800885D01*
X79722695Y-69800885D01*
X79865552Y-69848504D01*
X80436980Y-70419933D01*
X80436980Y-69800885D01*
X80436980Y-76230028D02*
X80436980Y-76801457D01*
X80436980Y-76515742D02*
X79436980Y-76515742D01*
X79579838Y-76610980D01*
X79675076Y-76706219D01*
X79722695Y-76801457D01*
X79436980Y-75610980D02*
X79436980Y-75515742D01*
X79484600Y-75420504D01*
X79532219Y-75372885D01*
X79627457Y-75325266D01*
X79817933Y-75277647D01*
X80056028Y-75277647D01*
X80246504Y-75325266D01*
X80341742Y-75372885D01*
X80389361Y-75420504D01*
X80436980Y-75515742D01*
X80436980Y-75610980D01*
X80389361Y-75706219D01*
X80341742Y-75753838D01*
X80246504Y-75801457D01*
X80056028Y-75849076D01*
X79817933Y-75849076D01*
X79627457Y-75801457D01*
X79532219Y-75753838D01*
X79484600Y-75706219D01*
X79436980Y-75610980D01*
X79436980Y-74658600D02*
X79436980Y-74563361D01*
X79484600Y-74468123D01*
X79532219Y-74420504D01*
X79627457Y-74372885D01*
X79817933Y-74325266D01*
X80056028Y-74325266D01*
X80246504Y-74372885D01*
X80341742Y-74420504D01*
X80389361Y-74468123D01*
X80436980Y-74563361D01*
X80436980Y-74658600D01*
X80389361Y-74753838D01*
X80341742Y-74801457D01*
X80246504Y-74849076D01*
X80056028Y-74896695D01*
X79817933Y-74896695D01*
X79627457Y-74849076D01*
X79532219Y-74801457D01*
X79484600Y-74753838D01*
X79436980Y-74658600D01*
X80436980Y-73896695D02*
X79436980Y-73896695D01*
X80056028Y-73801457D02*
X80436980Y-73515742D01*
X79770314Y-73515742D02*
X80151266Y-73896695D01*
X88971380Y-75426866D02*
X88495190Y-75760200D01*
X88971380Y-75998295D02*
X87971380Y-75998295D01*
X87971380Y-75617342D01*
X88019000Y-75522104D01*
X88066619Y-75474485D01*
X88161857Y-75426866D01*
X88304714Y-75426866D01*
X88399952Y-75474485D01*
X88447571Y-75522104D01*
X88495190Y-75617342D01*
X88495190Y-75998295D01*
X87971380Y-75093533D02*
X87971380Y-74474485D01*
X88352333Y-74807819D01*
X88352333Y-74664961D01*
X88399952Y-74569723D01*
X88447571Y-74522104D01*
X88542809Y-74474485D01*
X88780904Y-74474485D01*
X88876142Y-74522104D01*
X88923761Y-74569723D01*
X88971380Y-74664961D01*
X88971380Y-74950676D01*
X88923761Y-75045914D01*
X88876142Y-75093533D01*
X88844380Y-71378628D02*
X88844380Y-71950057D01*
X88844380Y-71664342D02*
X87844380Y-71664342D01*
X87987238Y-71759580D01*
X88082476Y-71854819D01*
X88130095Y-71950057D01*
X87844380Y-70759580D02*
X87844380Y-70664342D01*
X87892000Y-70569104D01*
X87939619Y-70521485D01*
X88034857Y-70473866D01*
X88225333Y-70426247D01*
X88463428Y-70426247D01*
X88653904Y-70473866D01*
X88749142Y-70521485D01*
X88796761Y-70569104D01*
X88844380Y-70664342D01*
X88844380Y-70759580D01*
X88796761Y-70854819D01*
X88749142Y-70902438D01*
X88653904Y-70950057D01*
X88463428Y-70997676D01*
X88225333Y-70997676D01*
X88034857Y-70950057D01*
X87939619Y-70902438D01*
X87892000Y-70854819D01*
X87844380Y-70759580D01*
X87844380Y-69807200D02*
X87844380Y-69711961D01*
X87892000Y-69616723D01*
X87939619Y-69569104D01*
X88034857Y-69521485D01*
X88225333Y-69473866D01*
X88463428Y-69473866D01*
X88653904Y-69521485D01*
X88749142Y-69569104D01*
X88796761Y-69616723D01*
X88844380Y-69711961D01*
X88844380Y-69807200D01*
X88796761Y-69902438D01*
X88749142Y-69950057D01*
X88653904Y-69997676D01*
X88463428Y-70045295D01*
X88225333Y-70045295D01*
X88034857Y-69997676D01*
X87939619Y-69950057D01*
X87892000Y-69902438D01*
X87844380Y-69807200D01*
X88844380Y-69045295D02*
X87844380Y-69045295D01*
X88463428Y-68950057D02*
X88844380Y-68664342D01*
X88177714Y-68664342D02*
X88558666Y-69045295D01*
X116784380Y-83478666D02*
X116308190Y-83812000D01*
X116784380Y-84050095D02*
X115784380Y-84050095D01*
X115784380Y-83669142D01*
X115832000Y-83573904D01*
X115879619Y-83526285D01*
X115974857Y-83478666D01*
X116117714Y-83478666D01*
X116212952Y-83526285D01*
X116260571Y-83573904D01*
X116308190Y-83669142D01*
X116308190Y-84050095D01*
X116117714Y-82621523D02*
X116784380Y-82621523D01*
X115736761Y-82859619D02*
X116451047Y-83097714D01*
X116451047Y-82478666D01*
X116117714Y-80541666D02*
X116784380Y-80541666D01*
X115736761Y-80779761D02*
X116451047Y-81017857D01*
X116451047Y-80398809D01*
X115784380Y-80113095D02*
X115784380Y-79446428D01*
X116784380Y-79875000D01*
X115784380Y-78875000D02*
X115784380Y-78779761D01*
X115832000Y-78684523D01*
X115879619Y-78636904D01*
X115974857Y-78589285D01*
X116165333Y-78541666D01*
X116403428Y-78541666D01*
X116593904Y-78589285D01*
X116689142Y-78636904D01*
X116736761Y-78684523D01*
X116784380Y-78779761D01*
X116784380Y-78875000D01*
X116736761Y-78970238D01*
X116689142Y-79017857D01*
X116593904Y-79065476D01*
X116403428Y-79113095D01*
X116165333Y-79113095D01*
X115974857Y-79065476D01*
X115879619Y-79017857D01*
X115832000Y-78970238D01*
X115784380Y-78875000D01*
X116784380Y-78113095D02*
X115784380Y-78113095D01*
X116403428Y-78017857D02*
X116784380Y-77732142D01*
X116117714Y-77732142D02*
X116498666Y-78113095D01*
X125410933Y-84856580D02*
X125077600Y-84380390D01*
X124839504Y-84856580D02*
X124839504Y-83856580D01*
X125220457Y-83856580D01*
X125315695Y-83904200D01*
X125363314Y-83951819D01*
X125410933Y-84047057D01*
X125410933Y-84189914D01*
X125363314Y-84285152D01*
X125315695Y-84332771D01*
X125220457Y-84380390D01*
X124839504Y-84380390D01*
X126315695Y-83856580D02*
X125839504Y-83856580D01*
X125791885Y-84332771D01*
X125839504Y-84285152D01*
X125934742Y-84237533D01*
X126172838Y-84237533D01*
X126268076Y-84285152D01*
X126315695Y-84332771D01*
X126363314Y-84428009D01*
X126363314Y-84666104D01*
X126315695Y-84761342D01*
X126268076Y-84808961D01*
X126172838Y-84856580D01*
X125934742Y-84856580D01*
X125839504Y-84808961D01*
X125791885Y-84761342D01*
X120696171Y-84856580D02*
X120124742Y-84856580D01*
X120410457Y-84856580D02*
X120410457Y-83856580D01*
X120315219Y-83999438D01*
X120219980Y-84094676D01*
X120124742Y-84142295D01*
X121315219Y-83856580D02*
X121410457Y-83856580D01*
X121505695Y-83904200D01*
X121553314Y-83951819D01*
X121600933Y-84047057D01*
X121648552Y-84237533D01*
X121648552Y-84475628D01*
X121600933Y-84666104D01*
X121553314Y-84761342D01*
X121505695Y-84808961D01*
X121410457Y-84856580D01*
X121315219Y-84856580D01*
X121219980Y-84808961D01*
X121172361Y-84761342D01*
X121124742Y-84666104D01*
X121077123Y-84475628D01*
X121077123Y-84237533D01*
X121124742Y-84047057D01*
X121172361Y-83951819D01*
X121219980Y-83904200D01*
X121315219Y-83856580D01*
X122267600Y-83856580D02*
X122362838Y-83856580D01*
X122458076Y-83904200D01*
X122505695Y-83951819D01*
X122553314Y-84047057D01*
X122600933Y-84237533D01*
X122600933Y-84475628D01*
X122553314Y-84666104D01*
X122505695Y-84761342D01*
X122458076Y-84808961D01*
X122362838Y-84856580D01*
X122267600Y-84856580D01*
X122172361Y-84808961D01*
X122124742Y-84761342D01*
X122077123Y-84666104D01*
X122029504Y-84475628D01*
X122029504Y-84237533D01*
X122077123Y-84047057D01*
X122124742Y-83951819D01*
X122172361Y-83904200D01*
X122267600Y-83856580D01*
X123029504Y-84856580D02*
X123029504Y-83856580D01*
X123124742Y-84475628D02*
X123410457Y-84856580D01*
X123410457Y-84189914D02*
X123029504Y-84570866D01*
X103200295Y-71308980D02*
X103200295Y-72118504D01*
X103247914Y-72213742D01*
X103295533Y-72261361D01*
X103390771Y-72308980D01*
X103581247Y-72308980D01*
X103676485Y-72261361D01*
X103724104Y-72213742D01*
X103771723Y-72118504D01*
X103771723Y-71308980D01*
X104771723Y-72308980D02*
X104200295Y-72308980D01*
X104486009Y-72308980D02*
X104486009Y-71308980D01*
X104390771Y-71451838D01*
X104295533Y-71547076D01*
X104200295Y-71594695D01*
X103474780Y-51810323D02*
X102474780Y-51810323D01*
X102950971Y-51810323D02*
X102950971Y-51238895D01*
X103474780Y-51238895D02*
X102474780Y-51238895D01*
X103427161Y-50381752D02*
X103474780Y-50476990D01*
X103474780Y-50667466D01*
X103427161Y-50762704D01*
X103331923Y-50810323D01*
X102950971Y-50810323D01*
X102855733Y-50762704D01*
X102808114Y-50667466D01*
X102808114Y-50476990D01*
X102855733Y-50381752D01*
X102950971Y-50334133D01*
X103046209Y-50334133D01*
X103141447Y-50810323D01*
X103474780Y-49762704D02*
X103427161Y-49857942D01*
X103331923Y-49905561D01*
X102474780Y-49905561D01*
X102808114Y-49524609D02*
X102808114Y-49143657D01*
X102474780Y-49381752D02*
X103331923Y-49381752D01*
X103427161Y-49334133D01*
X103474780Y-49238895D01*
X103474780Y-49143657D01*
X103427161Y-48429371D02*
X103474780Y-48524609D01*
X103474780Y-48715085D01*
X103427161Y-48810323D01*
X103331923Y-48857942D01*
X102950971Y-48857942D01*
X102855733Y-48810323D01*
X102808114Y-48715085D01*
X102808114Y-48524609D01*
X102855733Y-48429371D01*
X102950971Y-48381752D01*
X103046209Y-48381752D01*
X103141447Y-48857942D01*
X103427161Y-47524609D02*
X103474780Y-47619847D01*
X103474780Y-47810323D01*
X103427161Y-47905561D01*
X103379542Y-47953180D01*
X103284304Y-48000800D01*
X102998590Y-48000800D01*
X102903352Y-47953180D01*
X102855733Y-47905561D01*
X102808114Y-47810323D01*
X102808114Y-47619847D01*
X102855733Y-47524609D01*
X103570019Y-47334133D02*
X103570019Y-46572228D01*
X102474780Y-46429371D02*
X103474780Y-46191276D01*
X102760495Y-46000800D01*
X103474780Y-45810323D01*
X102474780Y-45572228D01*
X103474780Y-45191276D02*
X102808114Y-45191276D01*
X102474780Y-45191276D02*
X102522400Y-45238895D01*
X102570019Y-45191276D01*
X102522400Y-45143657D01*
X102474780Y-45191276D01*
X102570019Y-45191276D01*
X102808114Y-44857942D02*
X102808114Y-44476990D01*
X103474780Y-44715085D02*
X102617638Y-44715085D01*
X102522400Y-44667466D01*
X102474780Y-44572228D01*
X102474780Y-44476990D01*
X103474780Y-44143657D02*
X102808114Y-44143657D01*
X102474780Y-44143657D02*
X102522400Y-44191276D01*
X102570019Y-44143657D01*
X102522400Y-44096038D01*
X102474780Y-44143657D01*
X102570019Y-44143657D01*
X103570019Y-43905561D02*
X103570019Y-43143657D01*
X103474780Y-42429371D02*
X103474780Y-42905561D01*
X102474780Y-42905561D01*
X103474780Y-41953180D02*
X103427161Y-42048419D01*
X103379542Y-42096038D01*
X103284304Y-42143657D01*
X102998590Y-42143657D01*
X102903352Y-42096038D01*
X102855733Y-42048419D01*
X102808114Y-41953180D01*
X102808114Y-41810323D01*
X102855733Y-41715085D01*
X102903352Y-41667466D01*
X102998590Y-41619847D01*
X103284304Y-41619847D01*
X103379542Y-41667466D01*
X103427161Y-41715085D01*
X103474780Y-41810323D01*
X103474780Y-41953180D01*
X103474780Y-40619847D02*
X102998590Y-40953180D01*
X103474780Y-41191276D02*
X102474780Y-41191276D01*
X102474780Y-40810323D01*
X102522400Y-40715085D01*
X102570019Y-40667466D01*
X102665257Y-40619847D01*
X102808114Y-40619847D01*
X102903352Y-40667466D01*
X102950971Y-40715085D01*
X102998590Y-40810323D01*
X102998590Y-41191276D01*
X103474780Y-39762704D02*
X102950971Y-39762704D01*
X102855733Y-39810323D01*
X102808114Y-39905561D01*
X102808114Y-40096038D01*
X102855733Y-40191276D01*
X103427161Y-39762704D02*
X103474780Y-39857942D01*
X103474780Y-40096038D01*
X103427161Y-40191276D01*
X103331923Y-40238895D01*
X103236685Y-40238895D01*
X103141447Y-40191276D01*
X103093828Y-40096038D01*
X103093828Y-39857942D01*
X103046209Y-39762704D01*
X103570019Y-39524609D02*
X103570019Y-38762704D01*
X102474780Y-38667466D02*
X103474780Y-38334133D01*
X102474780Y-38000800D01*
X103474780Y-37143657D02*
X103474780Y-37715085D01*
X103474780Y-37429371D02*
X102474780Y-37429371D01*
X102617638Y-37524609D01*
X102712876Y-37619847D01*
X102760495Y-37715085D01*
X93065676Y-19666000D02*
X92989485Y-19627904D01*
X92875200Y-19627904D01*
X92760914Y-19666000D01*
X92684723Y-19742190D01*
X92646628Y-19818380D01*
X92608533Y-19970761D01*
X92608533Y-20085047D01*
X92646628Y-20237428D01*
X92684723Y-20313619D01*
X92760914Y-20389809D01*
X92875200Y-20427904D01*
X92951390Y-20427904D01*
X93065676Y-20389809D01*
X93103771Y-20351714D01*
X93103771Y-20085047D01*
X92951390Y-20085047D01*
X93446628Y-20427904D02*
X93446628Y-19627904D01*
X93903771Y-20427904D01*
X93903771Y-19627904D01*
X94284723Y-20427904D02*
X94284723Y-19627904D01*
X94475200Y-19627904D01*
X94589485Y-19666000D01*
X94665676Y-19742190D01*
X94703771Y-19818380D01*
X94741866Y-19970761D01*
X94741866Y-20085047D01*
X94703771Y-20237428D01*
X94665676Y-20313619D01*
X94589485Y-20389809D01*
X94475200Y-20427904D01*
X94284723Y-20427904D01*
X92684723Y-24707904D02*
X93179961Y-24707904D01*
X92913295Y-25012666D01*
X93027580Y-25012666D01*
X93103771Y-25050761D01*
X93141866Y-25088857D01*
X93179961Y-25165047D01*
X93179961Y-25355523D01*
X93141866Y-25431714D01*
X93103771Y-25469809D01*
X93027580Y-25507904D01*
X92799009Y-25507904D01*
X92722819Y-25469809D01*
X92684723Y-25431714D01*
X93408533Y-24707904D02*
X93675200Y-25507904D01*
X93941866Y-24707904D01*
X94132342Y-24707904D02*
X94627580Y-24707904D01*
X94360914Y-25012666D01*
X94475200Y-25012666D01*
X94551390Y-25050761D01*
X94589485Y-25088857D01*
X94627580Y-25165047D01*
X94627580Y-25355523D01*
X94589485Y-25431714D01*
X94551390Y-25469809D01*
X94475200Y-25507904D01*
X94246628Y-25507904D01*
X94170438Y-25469809D01*
X94132342Y-25431714D01*
X93522819Y-22167904D02*
X93141866Y-22167904D01*
X93103771Y-22548857D01*
X93141866Y-22510761D01*
X93218057Y-22472666D01*
X93408533Y-22472666D01*
X93484723Y-22510761D01*
X93522819Y-22548857D01*
X93560914Y-22625047D01*
X93560914Y-22815523D01*
X93522819Y-22891714D01*
X93484723Y-22929809D01*
X93408533Y-22967904D01*
X93218057Y-22967904D01*
X93141866Y-22929809D01*
X93103771Y-22891714D01*
X93789485Y-22167904D02*
X94056152Y-22967904D01*
X94322819Y-22167904D01*
X93065676Y-27286000D02*
X92989485Y-27247904D01*
X92875200Y-27247904D01*
X92760914Y-27286000D01*
X92684723Y-27362190D01*
X92646628Y-27438380D01*
X92608533Y-27590761D01*
X92608533Y-27705047D01*
X92646628Y-27857428D01*
X92684723Y-27933619D01*
X92760914Y-28009809D01*
X92875200Y-28047904D01*
X92951390Y-28047904D01*
X93065676Y-28009809D01*
X93103771Y-27971714D01*
X93103771Y-27705047D01*
X92951390Y-27705047D01*
X93446628Y-28047904D02*
X93446628Y-27247904D01*
X93903771Y-28047904D01*
X93903771Y-27247904D01*
X94284723Y-28047904D02*
X94284723Y-27247904D01*
X94475200Y-27247904D01*
X94589485Y-27286000D01*
X94665676Y-27362190D01*
X94703771Y-27438380D01*
X94741866Y-27590761D01*
X94741866Y-27705047D01*
X94703771Y-27857428D01*
X94665676Y-27933619D01*
X94589485Y-28009809D01*
X94475200Y-28047904D01*
X94284723Y-28047904D01*
X95034247Y-29826000D02*
X94958057Y-29787904D01*
X94843771Y-29787904D01*
X94729485Y-29826000D01*
X94653295Y-29902190D01*
X94615200Y-29978380D01*
X94577104Y-30130761D01*
X94577104Y-30245047D01*
X94615200Y-30397428D01*
X94653295Y-30473619D01*
X94729485Y-30549809D01*
X94843771Y-30587904D01*
X94919961Y-30587904D01*
X95034247Y-30549809D01*
X95072342Y-30511714D01*
X95072342Y-30245047D01*
X94919961Y-30245047D01*
X95415200Y-30587904D02*
X95415200Y-29787904D01*
X95719961Y-29787904D01*
X95796152Y-29826000D01*
X95834247Y-29864095D01*
X95872342Y-29940285D01*
X95872342Y-30054571D01*
X95834247Y-30130761D01*
X95796152Y-30168857D01*
X95719961Y-30206952D01*
X95415200Y-30206952D01*
X96215200Y-30587904D02*
X96215200Y-29787904D01*
X96748533Y-29787904D02*
X96900914Y-29787904D01*
X96977104Y-29826000D01*
X97053295Y-29902190D01*
X97091390Y-30054571D01*
X97091390Y-30321238D01*
X97053295Y-30473619D01*
X96977104Y-30549809D01*
X96900914Y-30587904D01*
X96748533Y-30587904D01*
X96672342Y-30549809D01*
X96596152Y-30473619D01*
X96558057Y-30321238D01*
X96558057Y-30054571D01*
X96596152Y-29902190D01*
X96672342Y-29826000D01*
X96748533Y-29787904D01*
X97358057Y-29787904D02*
X97853295Y-29787904D01*
X97586628Y-30092666D01*
X97700914Y-30092666D01*
X97777104Y-30130761D01*
X97815200Y-30168857D01*
X97853295Y-30245047D01*
X97853295Y-30435523D01*
X97815200Y-30511714D01*
X97777104Y-30549809D01*
X97700914Y-30587904D01*
X97472342Y-30587904D01*
X97396152Y-30549809D01*
X97358057Y-30511714D01*
X95034247Y-32366000D02*
X94958057Y-32327904D01*
X94843771Y-32327904D01*
X94729485Y-32366000D01*
X94653295Y-32442190D01*
X94615200Y-32518380D01*
X94577104Y-32670761D01*
X94577104Y-32785047D01*
X94615200Y-32937428D01*
X94653295Y-33013619D01*
X94729485Y-33089809D01*
X94843771Y-33127904D01*
X94919961Y-33127904D01*
X95034247Y-33089809D01*
X95072342Y-33051714D01*
X95072342Y-32785047D01*
X94919961Y-32785047D01*
X95415200Y-33127904D02*
X95415200Y-32327904D01*
X95719961Y-32327904D01*
X95796152Y-32366000D01*
X95834247Y-32404095D01*
X95872342Y-32480285D01*
X95872342Y-32594571D01*
X95834247Y-32670761D01*
X95796152Y-32708857D01*
X95719961Y-32746952D01*
X95415200Y-32746952D01*
X96215200Y-33127904D02*
X96215200Y-32327904D01*
X96748533Y-32327904D02*
X96900914Y-32327904D01*
X96977104Y-32366000D01*
X97053295Y-32442190D01*
X97091390Y-32594571D01*
X97091390Y-32861238D01*
X97053295Y-33013619D01*
X96977104Y-33089809D01*
X96900914Y-33127904D01*
X96748533Y-33127904D01*
X96672342Y-33089809D01*
X96596152Y-33013619D01*
X96558057Y-32861238D01*
X96558057Y-32594571D01*
X96596152Y-32442190D01*
X96672342Y-32366000D01*
X96748533Y-32327904D01*
X97853295Y-33127904D02*
X97396152Y-33127904D01*
X97624723Y-33127904D02*
X97624723Y-32327904D01*
X97548533Y-32442190D01*
X97472342Y-32518380D01*
X97396152Y-32556476D01*
X93237104Y-35667904D02*
X92970438Y-35286952D01*
X92779961Y-35667904D02*
X92779961Y-34867904D01*
X93084723Y-34867904D01*
X93160914Y-34906000D01*
X93199009Y-34944095D01*
X93237104Y-35020285D01*
X93237104Y-35134571D01*
X93199009Y-35210761D01*
X93160914Y-35248857D01*
X93084723Y-35286952D01*
X92779961Y-35286952D01*
X93541866Y-35629809D02*
X93656152Y-35667904D01*
X93846628Y-35667904D01*
X93922819Y-35629809D01*
X93960914Y-35591714D01*
X93999009Y-35515523D01*
X93999009Y-35439333D01*
X93960914Y-35363142D01*
X93922819Y-35325047D01*
X93846628Y-35286952D01*
X93694247Y-35248857D01*
X93618057Y-35210761D01*
X93579961Y-35172666D01*
X93541866Y-35096476D01*
X93541866Y-35020285D01*
X93579961Y-34944095D01*
X93618057Y-34906000D01*
X93694247Y-34867904D01*
X93884723Y-34867904D01*
X93999009Y-34906000D01*
X94227580Y-34867904D02*
X94684723Y-34867904D01*
X94456152Y-35667904D02*
X94456152Y-34867904D01*
X95034247Y-37446000D02*
X94958057Y-37407904D01*
X94843771Y-37407904D01*
X94729485Y-37446000D01*
X94653295Y-37522190D01*
X94615200Y-37598380D01*
X94577104Y-37750761D01*
X94577104Y-37865047D01*
X94615200Y-38017428D01*
X94653295Y-38093619D01*
X94729485Y-38169809D01*
X94843771Y-38207904D01*
X94919961Y-38207904D01*
X95034247Y-38169809D01*
X95072342Y-38131714D01*
X95072342Y-37865047D01*
X94919961Y-37865047D01*
X95415200Y-38207904D02*
X95415200Y-37407904D01*
X95719961Y-37407904D01*
X95796152Y-37446000D01*
X95834247Y-37484095D01*
X95872342Y-37560285D01*
X95872342Y-37674571D01*
X95834247Y-37750761D01*
X95796152Y-37788857D01*
X95719961Y-37826952D01*
X95415200Y-37826952D01*
X96215200Y-38207904D02*
X96215200Y-37407904D01*
X96748533Y-37407904D02*
X96900914Y-37407904D01*
X96977104Y-37446000D01*
X97053295Y-37522190D01*
X97091390Y-37674571D01*
X97091390Y-37941238D01*
X97053295Y-38093619D01*
X96977104Y-38169809D01*
X96900914Y-38207904D01*
X96748533Y-38207904D01*
X96672342Y-38169809D01*
X96596152Y-38093619D01*
X96558057Y-37941238D01*
X96558057Y-37674571D01*
X96596152Y-37522190D01*
X96672342Y-37446000D01*
X96748533Y-37407904D01*
X97586628Y-37407904D02*
X97662819Y-37407904D01*
X97739009Y-37446000D01*
X97777104Y-37484095D01*
X97815200Y-37560285D01*
X97853295Y-37712666D01*
X97853295Y-37903142D01*
X97815200Y-38055523D01*
X97777104Y-38131714D01*
X97739009Y-38169809D01*
X97662819Y-38207904D01*
X97586628Y-38207904D01*
X97510438Y-38169809D01*
X97472342Y-38131714D01*
X97434247Y-38055523D01*
X97396152Y-37903142D01*
X97396152Y-37712666D01*
X97434247Y-37560285D01*
X97472342Y-37484095D01*
X97510438Y-37446000D01*
X97586628Y-37407904D01*
X94653295Y-39986000D02*
X94577104Y-39947904D01*
X94462819Y-39947904D01*
X94348533Y-39986000D01*
X94272342Y-40062190D01*
X94234247Y-40138380D01*
X94196152Y-40290761D01*
X94196152Y-40405047D01*
X94234247Y-40557428D01*
X94272342Y-40633619D01*
X94348533Y-40709809D01*
X94462819Y-40747904D01*
X94539009Y-40747904D01*
X94653295Y-40709809D01*
X94691390Y-40671714D01*
X94691390Y-40405047D01*
X94539009Y-40405047D01*
X95034247Y-40747904D02*
X95034247Y-39947904D01*
X95339009Y-39947904D01*
X95415200Y-39986000D01*
X95453295Y-40024095D01*
X95491390Y-40100285D01*
X95491390Y-40214571D01*
X95453295Y-40290761D01*
X95415200Y-40328857D01*
X95339009Y-40366952D01*
X95034247Y-40366952D01*
X95834247Y-40747904D02*
X95834247Y-39947904D01*
X96367580Y-39947904D02*
X96519961Y-39947904D01*
X96596152Y-39986000D01*
X96672342Y-40062190D01*
X96710438Y-40214571D01*
X96710438Y-40481238D01*
X96672342Y-40633619D01*
X96596152Y-40709809D01*
X96519961Y-40747904D01*
X96367580Y-40747904D01*
X96291390Y-40709809D01*
X96215200Y-40633619D01*
X96177104Y-40481238D01*
X96177104Y-40214571D01*
X96215200Y-40062190D01*
X96291390Y-39986000D01*
X96367580Y-39947904D01*
X97015200Y-40024095D02*
X97053295Y-39986000D01*
X97129485Y-39947904D01*
X97319961Y-39947904D01*
X97396152Y-39986000D01*
X97434247Y-40024095D01*
X97472342Y-40100285D01*
X97472342Y-40176476D01*
X97434247Y-40290761D01*
X96977104Y-40747904D01*
X97472342Y-40747904D01*
X97777104Y-40024095D02*
X97815200Y-39986000D01*
X97891390Y-39947904D01*
X98081866Y-39947904D01*
X98158057Y-39986000D01*
X98196152Y-40024095D01*
X98234247Y-40100285D01*
X98234247Y-40176476D01*
X98196152Y-40290761D01*
X97739009Y-40747904D01*
X98234247Y-40747904D01*
X94653295Y-42526000D02*
X94577104Y-42487904D01*
X94462819Y-42487904D01*
X94348533Y-42526000D01*
X94272342Y-42602190D01*
X94234247Y-42678380D01*
X94196152Y-42830761D01*
X94196152Y-42945047D01*
X94234247Y-43097428D01*
X94272342Y-43173619D01*
X94348533Y-43249809D01*
X94462819Y-43287904D01*
X94539009Y-43287904D01*
X94653295Y-43249809D01*
X94691390Y-43211714D01*
X94691390Y-42945047D01*
X94539009Y-42945047D01*
X95034247Y-43287904D02*
X95034247Y-42487904D01*
X95339009Y-42487904D01*
X95415200Y-42526000D01*
X95453295Y-42564095D01*
X95491390Y-42640285D01*
X95491390Y-42754571D01*
X95453295Y-42830761D01*
X95415200Y-42868857D01*
X95339009Y-42906952D01*
X95034247Y-42906952D01*
X95834247Y-43287904D02*
X95834247Y-42487904D01*
X96367580Y-42487904D02*
X96519961Y-42487904D01*
X96596152Y-42526000D01*
X96672342Y-42602190D01*
X96710438Y-42754571D01*
X96710438Y-43021238D01*
X96672342Y-43173619D01*
X96596152Y-43249809D01*
X96519961Y-43287904D01*
X96367580Y-43287904D01*
X96291390Y-43249809D01*
X96215200Y-43173619D01*
X96177104Y-43021238D01*
X96177104Y-42754571D01*
X96215200Y-42602190D01*
X96291390Y-42526000D01*
X96367580Y-42487904D01*
X97472342Y-43287904D02*
X97015200Y-43287904D01*
X97243771Y-43287904D02*
X97243771Y-42487904D01*
X97167580Y-42602190D01*
X97091390Y-42678380D01*
X97015200Y-42716476D01*
X97853295Y-43287904D02*
X98005676Y-43287904D01*
X98081866Y-43249809D01*
X98119961Y-43211714D01*
X98196152Y-43097428D01*
X98234247Y-42945047D01*
X98234247Y-42640285D01*
X98196152Y-42564095D01*
X98158057Y-42526000D01*
X98081866Y-42487904D01*
X97929485Y-42487904D01*
X97853295Y-42526000D01*
X97815200Y-42564095D01*
X97777104Y-42640285D01*
X97777104Y-42830761D01*
X97815200Y-42906952D01*
X97853295Y-42945047D01*
X97929485Y-42983142D01*
X98081866Y-42983142D01*
X98158057Y-42945047D01*
X98196152Y-42906952D01*
X98234247Y-42830761D01*
X94653295Y-45066000D02*
X94577104Y-45027904D01*
X94462819Y-45027904D01*
X94348533Y-45066000D01*
X94272342Y-45142190D01*
X94234247Y-45218380D01*
X94196152Y-45370761D01*
X94196152Y-45485047D01*
X94234247Y-45637428D01*
X94272342Y-45713619D01*
X94348533Y-45789809D01*
X94462819Y-45827904D01*
X94539009Y-45827904D01*
X94653295Y-45789809D01*
X94691390Y-45751714D01*
X94691390Y-45485047D01*
X94539009Y-45485047D01*
X95034247Y-45827904D02*
X95034247Y-45027904D01*
X95339009Y-45027904D01*
X95415200Y-45066000D01*
X95453295Y-45104095D01*
X95491390Y-45180285D01*
X95491390Y-45294571D01*
X95453295Y-45370761D01*
X95415200Y-45408857D01*
X95339009Y-45446952D01*
X95034247Y-45446952D01*
X95834247Y-45827904D02*
X95834247Y-45027904D01*
X96367580Y-45027904D02*
X96519961Y-45027904D01*
X96596152Y-45066000D01*
X96672342Y-45142190D01*
X96710438Y-45294571D01*
X96710438Y-45561238D01*
X96672342Y-45713619D01*
X96596152Y-45789809D01*
X96519961Y-45827904D01*
X96367580Y-45827904D01*
X96291390Y-45789809D01*
X96215200Y-45713619D01*
X96177104Y-45561238D01*
X96177104Y-45294571D01*
X96215200Y-45142190D01*
X96291390Y-45066000D01*
X96367580Y-45027904D01*
X97015200Y-45104095D02*
X97053295Y-45066000D01*
X97129485Y-45027904D01*
X97319961Y-45027904D01*
X97396152Y-45066000D01*
X97434247Y-45104095D01*
X97472342Y-45180285D01*
X97472342Y-45256476D01*
X97434247Y-45370761D01*
X96977104Y-45827904D01*
X97472342Y-45827904D01*
X97739009Y-45027904D02*
X98234247Y-45027904D01*
X97967580Y-45332666D01*
X98081866Y-45332666D01*
X98158057Y-45370761D01*
X98196152Y-45408857D01*
X98234247Y-45485047D01*
X98234247Y-45675523D01*
X98196152Y-45751714D01*
X98158057Y-45789809D01*
X98081866Y-45827904D01*
X97853295Y-45827904D01*
X97777104Y-45789809D01*
X97739009Y-45751714D01*
X94653295Y-47606000D02*
X94577104Y-47567904D01*
X94462819Y-47567904D01*
X94348533Y-47606000D01*
X94272342Y-47682190D01*
X94234247Y-47758380D01*
X94196152Y-47910761D01*
X94196152Y-48025047D01*
X94234247Y-48177428D01*
X94272342Y-48253619D01*
X94348533Y-48329809D01*
X94462819Y-48367904D01*
X94539009Y-48367904D01*
X94653295Y-48329809D01*
X94691390Y-48291714D01*
X94691390Y-48025047D01*
X94539009Y-48025047D01*
X95034247Y-48367904D02*
X95034247Y-47567904D01*
X95339009Y-47567904D01*
X95415200Y-47606000D01*
X95453295Y-47644095D01*
X95491390Y-47720285D01*
X95491390Y-47834571D01*
X95453295Y-47910761D01*
X95415200Y-47948857D01*
X95339009Y-47986952D01*
X95034247Y-47986952D01*
X95834247Y-48367904D02*
X95834247Y-47567904D01*
X96367580Y-47567904D02*
X96519961Y-47567904D01*
X96596152Y-47606000D01*
X96672342Y-47682190D01*
X96710438Y-47834571D01*
X96710438Y-48101238D01*
X96672342Y-48253619D01*
X96596152Y-48329809D01*
X96519961Y-48367904D01*
X96367580Y-48367904D01*
X96291390Y-48329809D01*
X96215200Y-48253619D01*
X96177104Y-48101238D01*
X96177104Y-47834571D01*
X96215200Y-47682190D01*
X96291390Y-47606000D01*
X96367580Y-47567904D01*
X97472342Y-48367904D02*
X97015200Y-48367904D01*
X97243771Y-48367904D02*
X97243771Y-47567904D01*
X97167580Y-47682190D01*
X97091390Y-47758380D01*
X97015200Y-47796476D01*
X97929485Y-47910761D02*
X97853295Y-47872666D01*
X97815200Y-47834571D01*
X97777104Y-47758380D01*
X97777104Y-47720285D01*
X97815200Y-47644095D01*
X97853295Y-47606000D01*
X97929485Y-47567904D01*
X98081866Y-47567904D01*
X98158057Y-47606000D01*
X98196152Y-47644095D01*
X98234247Y-47720285D01*
X98234247Y-47758380D01*
X98196152Y-47834571D01*
X98158057Y-47872666D01*
X98081866Y-47910761D01*
X97929485Y-47910761D01*
X97853295Y-47948857D01*
X97815200Y-47986952D01*
X97777104Y-48063142D01*
X97777104Y-48215523D01*
X97815200Y-48291714D01*
X97853295Y-48329809D01*
X97929485Y-48367904D01*
X98081866Y-48367904D01*
X98158057Y-48329809D01*
X98196152Y-48291714D01*
X98234247Y-48215523D01*
X98234247Y-48063142D01*
X98196152Y-47986952D01*
X98158057Y-47948857D01*
X98081866Y-47910761D01*
X95034247Y-50146000D02*
X94958057Y-50107904D01*
X94843771Y-50107904D01*
X94729485Y-50146000D01*
X94653295Y-50222190D01*
X94615200Y-50298380D01*
X94577104Y-50450761D01*
X94577104Y-50565047D01*
X94615200Y-50717428D01*
X94653295Y-50793619D01*
X94729485Y-50869809D01*
X94843771Y-50907904D01*
X94919961Y-50907904D01*
X95034247Y-50869809D01*
X95072342Y-50831714D01*
X95072342Y-50565047D01*
X94919961Y-50565047D01*
X95415200Y-50907904D02*
X95415200Y-50107904D01*
X95719961Y-50107904D01*
X95796152Y-50146000D01*
X95834247Y-50184095D01*
X95872342Y-50260285D01*
X95872342Y-50374571D01*
X95834247Y-50450761D01*
X95796152Y-50488857D01*
X95719961Y-50526952D01*
X95415200Y-50526952D01*
X96215200Y-50907904D02*
X96215200Y-50107904D01*
X96748533Y-50107904D02*
X96900914Y-50107904D01*
X96977104Y-50146000D01*
X97053295Y-50222190D01*
X97091390Y-50374571D01*
X97091390Y-50641238D01*
X97053295Y-50793619D01*
X96977104Y-50869809D01*
X96900914Y-50907904D01*
X96748533Y-50907904D01*
X96672342Y-50869809D01*
X96596152Y-50793619D01*
X96558057Y-50641238D01*
X96558057Y-50374571D01*
X96596152Y-50222190D01*
X96672342Y-50146000D01*
X96748533Y-50107904D01*
X97815200Y-50107904D02*
X97434247Y-50107904D01*
X97396152Y-50488857D01*
X97434247Y-50450761D01*
X97510438Y-50412666D01*
X97700914Y-50412666D01*
X97777104Y-50450761D01*
X97815200Y-50488857D01*
X97853295Y-50565047D01*
X97853295Y-50755523D01*
X97815200Y-50831714D01*
X97777104Y-50869809D01*
X97700914Y-50907904D01*
X97510438Y-50907904D01*
X97434247Y-50869809D01*
X97396152Y-50831714D01*
X94653295Y-52686000D02*
X94577104Y-52647904D01*
X94462819Y-52647904D01*
X94348533Y-52686000D01*
X94272342Y-52762190D01*
X94234247Y-52838380D01*
X94196152Y-52990761D01*
X94196152Y-53105047D01*
X94234247Y-53257428D01*
X94272342Y-53333619D01*
X94348533Y-53409809D01*
X94462819Y-53447904D01*
X94539009Y-53447904D01*
X94653295Y-53409809D01*
X94691390Y-53371714D01*
X94691390Y-53105047D01*
X94539009Y-53105047D01*
X95034247Y-53447904D02*
X95034247Y-52647904D01*
X95339009Y-52647904D01*
X95415200Y-52686000D01*
X95453295Y-52724095D01*
X95491390Y-52800285D01*
X95491390Y-52914571D01*
X95453295Y-52990761D01*
X95415200Y-53028857D01*
X95339009Y-53066952D01*
X95034247Y-53066952D01*
X95834247Y-53447904D02*
X95834247Y-52647904D01*
X96367580Y-52647904D02*
X96519961Y-52647904D01*
X96596152Y-52686000D01*
X96672342Y-52762190D01*
X96710438Y-52914571D01*
X96710438Y-53181238D01*
X96672342Y-53333619D01*
X96596152Y-53409809D01*
X96519961Y-53447904D01*
X96367580Y-53447904D01*
X96291390Y-53409809D01*
X96215200Y-53333619D01*
X96177104Y-53181238D01*
X96177104Y-52914571D01*
X96215200Y-52762190D01*
X96291390Y-52686000D01*
X96367580Y-52647904D01*
X97472342Y-53447904D02*
X97015200Y-53447904D01*
X97243771Y-53447904D02*
X97243771Y-52647904D01*
X97167580Y-52762190D01*
X97091390Y-52838380D01*
X97015200Y-52876476D01*
X98196152Y-52647904D02*
X97815200Y-52647904D01*
X97777104Y-53028857D01*
X97815200Y-52990761D01*
X97891390Y-52952666D01*
X98081866Y-52952666D01*
X98158057Y-52990761D01*
X98196152Y-53028857D01*
X98234247Y-53105047D01*
X98234247Y-53295523D01*
X98196152Y-53371714D01*
X98158057Y-53409809D01*
X98081866Y-53447904D01*
X97891390Y-53447904D01*
X97815200Y-53409809D01*
X97777104Y-53371714D01*
X95034247Y-55226000D02*
X94958057Y-55187904D01*
X94843771Y-55187904D01*
X94729485Y-55226000D01*
X94653295Y-55302190D01*
X94615200Y-55378380D01*
X94577104Y-55530761D01*
X94577104Y-55645047D01*
X94615200Y-55797428D01*
X94653295Y-55873619D01*
X94729485Y-55949809D01*
X94843771Y-55987904D01*
X94919961Y-55987904D01*
X95034247Y-55949809D01*
X95072342Y-55911714D01*
X95072342Y-55645047D01*
X94919961Y-55645047D01*
X95415200Y-55987904D02*
X95415200Y-55187904D01*
X95719961Y-55187904D01*
X95796152Y-55226000D01*
X95834247Y-55264095D01*
X95872342Y-55340285D01*
X95872342Y-55454571D01*
X95834247Y-55530761D01*
X95796152Y-55568857D01*
X95719961Y-55606952D01*
X95415200Y-55606952D01*
X96215200Y-55987904D02*
X96215200Y-55187904D01*
X96748533Y-55187904D02*
X96900914Y-55187904D01*
X96977104Y-55226000D01*
X97053295Y-55302190D01*
X97091390Y-55454571D01*
X97091390Y-55721238D01*
X97053295Y-55873619D01*
X96977104Y-55949809D01*
X96900914Y-55987904D01*
X96748533Y-55987904D01*
X96672342Y-55949809D01*
X96596152Y-55873619D01*
X96558057Y-55721238D01*
X96558057Y-55454571D01*
X96596152Y-55302190D01*
X96672342Y-55226000D01*
X96748533Y-55187904D01*
X97396152Y-55264095D02*
X97434247Y-55226000D01*
X97510438Y-55187904D01*
X97700914Y-55187904D01*
X97777104Y-55226000D01*
X97815200Y-55264095D01*
X97853295Y-55340285D01*
X97853295Y-55416476D01*
X97815200Y-55530761D01*
X97358057Y-55987904D01*
X97853295Y-55987904D01*
X95034247Y-57766000D02*
X94958057Y-57727904D01*
X94843771Y-57727904D01*
X94729485Y-57766000D01*
X94653295Y-57842190D01*
X94615200Y-57918380D01*
X94577104Y-58070761D01*
X94577104Y-58185047D01*
X94615200Y-58337428D01*
X94653295Y-58413619D01*
X94729485Y-58489809D01*
X94843771Y-58527904D01*
X94919961Y-58527904D01*
X95034247Y-58489809D01*
X95072342Y-58451714D01*
X95072342Y-58185047D01*
X94919961Y-58185047D01*
X95415200Y-58527904D02*
X95415200Y-57727904D01*
X95719961Y-57727904D01*
X95796152Y-57766000D01*
X95834247Y-57804095D01*
X95872342Y-57880285D01*
X95872342Y-57994571D01*
X95834247Y-58070761D01*
X95796152Y-58108857D01*
X95719961Y-58146952D01*
X95415200Y-58146952D01*
X96215200Y-58527904D02*
X96215200Y-57727904D01*
X96748533Y-57727904D02*
X96900914Y-57727904D01*
X96977104Y-57766000D01*
X97053295Y-57842190D01*
X97091390Y-57994571D01*
X97091390Y-58261238D01*
X97053295Y-58413619D01*
X96977104Y-58489809D01*
X96900914Y-58527904D01*
X96748533Y-58527904D01*
X96672342Y-58489809D01*
X96596152Y-58413619D01*
X96558057Y-58261238D01*
X96558057Y-57994571D01*
X96596152Y-57842190D01*
X96672342Y-57766000D01*
X96748533Y-57727904D01*
X97777104Y-57994571D02*
X97777104Y-58527904D01*
X97586628Y-57689809D02*
X97396152Y-58261238D01*
X97891390Y-58261238D01*
X94653295Y-60306000D02*
X94577104Y-60267904D01*
X94462819Y-60267904D01*
X94348533Y-60306000D01*
X94272342Y-60382190D01*
X94234247Y-60458380D01*
X94196152Y-60610761D01*
X94196152Y-60725047D01*
X94234247Y-60877428D01*
X94272342Y-60953619D01*
X94348533Y-61029809D01*
X94462819Y-61067904D01*
X94539009Y-61067904D01*
X94653295Y-61029809D01*
X94691390Y-60991714D01*
X94691390Y-60725047D01*
X94539009Y-60725047D01*
X95034247Y-61067904D02*
X95034247Y-60267904D01*
X95339009Y-60267904D01*
X95415200Y-60306000D01*
X95453295Y-60344095D01*
X95491390Y-60420285D01*
X95491390Y-60534571D01*
X95453295Y-60610761D01*
X95415200Y-60648857D01*
X95339009Y-60686952D01*
X95034247Y-60686952D01*
X95834247Y-61067904D02*
X95834247Y-60267904D01*
X96367580Y-60267904D02*
X96519961Y-60267904D01*
X96596152Y-60306000D01*
X96672342Y-60382190D01*
X96710438Y-60534571D01*
X96710438Y-60801238D01*
X96672342Y-60953619D01*
X96596152Y-61029809D01*
X96519961Y-61067904D01*
X96367580Y-61067904D01*
X96291390Y-61029809D01*
X96215200Y-60953619D01*
X96177104Y-60801238D01*
X96177104Y-60534571D01*
X96215200Y-60382190D01*
X96291390Y-60306000D01*
X96367580Y-60267904D01*
X97472342Y-61067904D02*
X97015200Y-61067904D01*
X97243771Y-61067904D02*
X97243771Y-60267904D01*
X97167580Y-60382190D01*
X97091390Y-60458380D01*
X97015200Y-60496476D01*
X97739009Y-60267904D02*
X98272342Y-60267904D01*
X97929485Y-61067904D01*
X94653295Y-62846000D02*
X94577104Y-62807904D01*
X94462819Y-62807904D01*
X94348533Y-62846000D01*
X94272342Y-62922190D01*
X94234247Y-62998380D01*
X94196152Y-63150761D01*
X94196152Y-63265047D01*
X94234247Y-63417428D01*
X94272342Y-63493619D01*
X94348533Y-63569809D01*
X94462819Y-63607904D01*
X94539009Y-63607904D01*
X94653295Y-63569809D01*
X94691390Y-63531714D01*
X94691390Y-63265047D01*
X94539009Y-63265047D01*
X95034247Y-63607904D02*
X95034247Y-62807904D01*
X95339009Y-62807904D01*
X95415200Y-62846000D01*
X95453295Y-62884095D01*
X95491390Y-62960285D01*
X95491390Y-63074571D01*
X95453295Y-63150761D01*
X95415200Y-63188857D01*
X95339009Y-63226952D01*
X95034247Y-63226952D01*
X95834247Y-63607904D02*
X95834247Y-62807904D01*
X96367580Y-62807904D02*
X96519961Y-62807904D01*
X96596152Y-62846000D01*
X96672342Y-62922190D01*
X96710438Y-63074571D01*
X96710438Y-63341238D01*
X96672342Y-63493619D01*
X96596152Y-63569809D01*
X96519961Y-63607904D01*
X96367580Y-63607904D01*
X96291390Y-63569809D01*
X96215200Y-63493619D01*
X96177104Y-63341238D01*
X96177104Y-63074571D01*
X96215200Y-62922190D01*
X96291390Y-62846000D01*
X96367580Y-62807904D01*
X97472342Y-63607904D02*
X97015200Y-63607904D01*
X97243771Y-63607904D02*
X97243771Y-62807904D01*
X97167580Y-62922190D01*
X97091390Y-62998380D01*
X97015200Y-63036476D01*
X98158057Y-62807904D02*
X98005676Y-62807904D01*
X97929485Y-62846000D01*
X97891390Y-62884095D01*
X97815200Y-62998380D01*
X97777104Y-63150761D01*
X97777104Y-63455523D01*
X97815200Y-63531714D01*
X97853295Y-63569809D01*
X97929485Y-63607904D01*
X98081866Y-63607904D01*
X98158057Y-63569809D01*
X98196152Y-63531714D01*
X98234247Y-63455523D01*
X98234247Y-63265047D01*
X98196152Y-63188857D01*
X98158057Y-63150761D01*
X98081866Y-63112666D01*
X97929485Y-63112666D01*
X97853295Y-63150761D01*
X97815200Y-63188857D01*
X97777104Y-63265047D01*
X111925176Y-19793000D02*
X111848985Y-19754904D01*
X111734700Y-19754904D01*
X111620414Y-19793000D01*
X111544223Y-19869190D01*
X111506128Y-19945380D01*
X111468033Y-20097761D01*
X111468033Y-20212047D01*
X111506128Y-20364428D01*
X111544223Y-20440619D01*
X111620414Y-20516809D01*
X111734700Y-20554904D01*
X111810890Y-20554904D01*
X111925176Y-20516809D01*
X111963271Y-20478714D01*
X111963271Y-20212047D01*
X111810890Y-20212047D01*
X112306128Y-20554904D02*
X112306128Y-19754904D01*
X112763271Y-20554904D01*
X112763271Y-19754904D01*
X113144223Y-20554904D02*
X113144223Y-19754904D01*
X113334700Y-19754904D01*
X113448985Y-19793000D01*
X113525176Y-19869190D01*
X113563271Y-19945380D01*
X113601366Y-20097761D01*
X113601366Y-20212047D01*
X113563271Y-20364428D01*
X113525176Y-20440619D01*
X113448985Y-20516809D01*
X113334700Y-20554904D01*
X113144223Y-20554904D01*
X112826819Y-22104404D02*
X112445866Y-22104404D01*
X112407771Y-22485357D01*
X112445866Y-22447261D01*
X112522057Y-22409166D01*
X112712533Y-22409166D01*
X112788723Y-22447261D01*
X112826819Y-22485357D01*
X112864914Y-22561547D01*
X112864914Y-22752023D01*
X112826819Y-22828214D01*
X112788723Y-22866309D01*
X112712533Y-22904404D01*
X112522057Y-22904404D01*
X112445866Y-22866309D01*
X112407771Y-22828214D01*
X113093485Y-22104404D02*
X113360152Y-22904404D01*
X113626819Y-22104404D01*
X111798223Y-24644404D02*
X112293461Y-24644404D01*
X112026795Y-24949166D01*
X112141080Y-24949166D01*
X112217271Y-24987261D01*
X112255366Y-25025357D01*
X112293461Y-25101547D01*
X112293461Y-25292023D01*
X112255366Y-25368214D01*
X112217271Y-25406309D01*
X112141080Y-25444404D01*
X111912509Y-25444404D01*
X111836319Y-25406309D01*
X111798223Y-25368214D01*
X112522033Y-24644404D02*
X112788700Y-25444404D01*
X113055366Y-24644404D01*
X113245842Y-24644404D02*
X113741080Y-24644404D01*
X113474414Y-24949166D01*
X113588700Y-24949166D01*
X113664890Y-24987261D01*
X113702985Y-25025357D01*
X113741080Y-25101547D01*
X113741080Y-25292023D01*
X113702985Y-25368214D01*
X113664890Y-25406309D01*
X113588700Y-25444404D01*
X113360128Y-25444404D01*
X113283938Y-25406309D01*
X113245842Y-25368214D01*
X108369295Y-27286000D02*
X108293104Y-27247904D01*
X108178819Y-27247904D01*
X108064533Y-27286000D01*
X107988342Y-27362190D01*
X107950247Y-27438380D01*
X107912152Y-27590761D01*
X107912152Y-27705047D01*
X107950247Y-27857428D01*
X107988342Y-27933619D01*
X108064533Y-28009809D01*
X108178819Y-28047904D01*
X108255009Y-28047904D01*
X108369295Y-28009809D01*
X108407390Y-27971714D01*
X108407390Y-27705047D01*
X108255009Y-27705047D01*
X108750247Y-28047904D02*
X108750247Y-27247904D01*
X109055009Y-27247904D01*
X109131200Y-27286000D01*
X109169295Y-27324095D01*
X109207390Y-27400285D01*
X109207390Y-27514571D01*
X109169295Y-27590761D01*
X109131200Y-27628857D01*
X109055009Y-27666952D01*
X108750247Y-27666952D01*
X109550247Y-28047904D02*
X109550247Y-27247904D01*
X110083580Y-27247904D02*
X110235961Y-27247904D01*
X110312152Y-27286000D01*
X110388342Y-27362190D01*
X110426438Y-27514571D01*
X110426438Y-27781238D01*
X110388342Y-27933619D01*
X110312152Y-28009809D01*
X110235961Y-28047904D01*
X110083580Y-28047904D01*
X110007390Y-28009809D01*
X109931200Y-27933619D01*
X109893104Y-27781238D01*
X109893104Y-27514571D01*
X109931200Y-27362190D01*
X110007390Y-27286000D01*
X110083580Y-27247904D01*
X110693104Y-27247904D02*
X111188342Y-27247904D01*
X110921676Y-27552666D01*
X111035961Y-27552666D01*
X111112152Y-27590761D01*
X111150247Y-27628857D01*
X111188342Y-27705047D01*
X111188342Y-27895523D01*
X111150247Y-27971714D01*
X111112152Y-28009809D01*
X111035961Y-28047904D01*
X110807390Y-28047904D01*
X110731200Y-28009809D01*
X110693104Y-27971714D01*
X111874057Y-27247904D02*
X111721676Y-27247904D01*
X111645485Y-27286000D01*
X111607390Y-27324095D01*
X111531200Y-27438380D01*
X111493104Y-27590761D01*
X111493104Y-27895523D01*
X111531200Y-27971714D01*
X111569295Y-28009809D01*
X111645485Y-28047904D01*
X111797866Y-28047904D01*
X111874057Y-28009809D01*
X111912152Y-27971714D01*
X111950247Y-27895523D01*
X111950247Y-27705047D01*
X111912152Y-27628857D01*
X111874057Y-27590761D01*
X111797866Y-27552666D01*
X111645485Y-27552666D01*
X111569295Y-27590761D01*
X111531200Y-27628857D01*
X111493104Y-27705047D01*
X108305795Y-29826000D02*
X108229604Y-29787904D01*
X108115319Y-29787904D01*
X108001033Y-29826000D01*
X107924842Y-29902190D01*
X107886747Y-29978380D01*
X107848652Y-30130761D01*
X107848652Y-30245047D01*
X107886747Y-30397428D01*
X107924842Y-30473619D01*
X108001033Y-30549809D01*
X108115319Y-30587904D01*
X108191509Y-30587904D01*
X108305795Y-30549809D01*
X108343890Y-30511714D01*
X108343890Y-30245047D01*
X108191509Y-30245047D01*
X108686747Y-30587904D02*
X108686747Y-29787904D01*
X108991509Y-29787904D01*
X109067700Y-29826000D01*
X109105795Y-29864095D01*
X109143890Y-29940285D01*
X109143890Y-30054571D01*
X109105795Y-30130761D01*
X109067700Y-30168857D01*
X108991509Y-30206952D01*
X108686747Y-30206952D01*
X109486747Y-30587904D02*
X109486747Y-29787904D01*
X110020080Y-29787904D02*
X110172461Y-29787904D01*
X110248652Y-29826000D01*
X110324842Y-29902190D01*
X110362938Y-30054571D01*
X110362938Y-30321238D01*
X110324842Y-30473619D01*
X110248652Y-30549809D01*
X110172461Y-30587904D01*
X110020080Y-30587904D01*
X109943890Y-30549809D01*
X109867700Y-30473619D01*
X109829604Y-30321238D01*
X109829604Y-30054571D01*
X109867700Y-29902190D01*
X109943890Y-29826000D01*
X110020080Y-29787904D01*
X110629604Y-29787904D02*
X111124842Y-29787904D01*
X110858176Y-30092666D01*
X110972461Y-30092666D01*
X111048652Y-30130761D01*
X111086747Y-30168857D01*
X111124842Y-30245047D01*
X111124842Y-30435523D01*
X111086747Y-30511714D01*
X111048652Y-30549809D01*
X110972461Y-30587904D01*
X110743890Y-30587904D01*
X110667700Y-30549809D01*
X110629604Y-30511714D01*
X111391509Y-29787904D02*
X111924842Y-29787904D01*
X111581985Y-30587904D01*
X108305795Y-32366000D02*
X108229604Y-32327904D01*
X108115319Y-32327904D01*
X108001033Y-32366000D01*
X107924842Y-32442190D01*
X107886747Y-32518380D01*
X107848652Y-32670761D01*
X107848652Y-32785047D01*
X107886747Y-32937428D01*
X107924842Y-33013619D01*
X108001033Y-33089809D01*
X108115319Y-33127904D01*
X108191509Y-33127904D01*
X108305795Y-33089809D01*
X108343890Y-33051714D01*
X108343890Y-32785047D01*
X108191509Y-32785047D01*
X108686747Y-33127904D02*
X108686747Y-32327904D01*
X108991509Y-32327904D01*
X109067700Y-32366000D01*
X109105795Y-32404095D01*
X109143890Y-32480285D01*
X109143890Y-32594571D01*
X109105795Y-32670761D01*
X109067700Y-32708857D01*
X108991509Y-32746952D01*
X108686747Y-32746952D01*
X109486747Y-33127904D02*
X109486747Y-32327904D01*
X110020080Y-32327904D02*
X110172461Y-32327904D01*
X110248652Y-32366000D01*
X110324842Y-32442190D01*
X110362938Y-32594571D01*
X110362938Y-32861238D01*
X110324842Y-33013619D01*
X110248652Y-33089809D01*
X110172461Y-33127904D01*
X110020080Y-33127904D01*
X109943890Y-33089809D01*
X109867700Y-33013619D01*
X109829604Y-32861238D01*
X109829604Y-32594571D01*
X109867700Y-32442190D01*
X109943890Y-32366000D01*
X110020080Y-32327904D01*
X110629604Y-32327904D02*
X111124842Y-32327904D01*
X110858176Y-32632666D01*
X110972461Y-32632666D01*
X111048652Y-32670761D01*
X111086747Y-32708857D01*
X111124842Y-32785047D01*
X111124842Y-32975523D01*
X111086747Y-33051714D01*
X111048652Y-33089809D01*
X110972461Y-33127904D01*
X110743890Y-33127904D01*
X110667700Y-33089809D01*
X110629604Y-33051714D01*
X111581985Y-32670761D02*
X111505795Y-32632666D01*
X111467700Y-32594571D01*
X111429604Y-32518380D01*
X111429604Y-32480285D01*
X111467700Y-32404095D01*
X111505795Y-32366000D01*
X111581985Y-32327904D01*
X111734366Y-32327904D01*
X111810557Y-32366000D01*
X111848652Y-32404095D01*
X111886747Y-32480285D01*
X111886747Y-32518380D01*
X111848652Y-32594571D01*
X111810557Y-32632666D01*
X111734366Y-32670761D01*
X111581985Y-32670761D01*
X111505795Y-32708857D01*
X111467700Y-32746952D01*
X111429604Y-32823142D01*
X111429604Y-32975523D01*
X111467700Y-33051714D01*
X111505795Y-33089809D01*
X111581985Y-33127904D01*
X111734366Y-33127904D01*
X111810557Y-33089809D01*
X111848652Y-33051714D01*
X111886747Y-32975523D01*
X111886747Y-32823142D01*
X111848652Y-32746952D01*
X111810557Y-32708857D01*
X111734366Y-32670761D01*
X108305795Y-34906000D02*
X108229604Y-34867904D01*
X108115319Y-34867904D01*
X108001033Y-34906000D01*
X107924842Y-34982190D01*
X107886747Y-35058380D01*
X107848652Y-35210761D01*
X107848652Y-35325047D01*
X107886747Y-35477428D01*
X107924842Y-35553619D01*
X108001033Y-35629809D01*
X108115319Y-35667904D01*
X108191509Y-35667904D01*
X108305795Y-35629809D01*
X108343890Y-35591714D01*
X108343890Y-35325047D01*
X108191509Y-35325047D01*
X108686747Y-35667904D02*
X108686747Y-34867904D01*
X108991509Y-34867904D01*
X109067700Y-34906000D01*
X109105795Y-34944095D01*
X109143890Y-35020285D01*
X109143890Y-35134571D01*
X109105795Y-35210761D01*
X109067700Y-35248857D01*
X108991509Y-35286952D01*
X108686747Y-35286952D01*
X109486747Y-35667904D02*
X109486747Y-34867904D01*
X110020080Y-34867904D02*
X110172461Y-34867904D01*
X110248652Y-34906000D01*
X110324842Y-34982190D01*
X110362938Y-35134571D01*
X110362938Y-35401238D01*
X110324842Y-35553619D01*
X110248652Y-35629809D01*
X110172461Y-35667904D01*
X110020080Y-35667904D01*
X109943890Y-35629809D01*
X109867700Y-35553619D01*
X109829604Y-35401238D01*
X109829604Y-35134571D01*
X109867700Y-34982190D01*
X109943890Y-34906000D01*
X110020080Y-34867904D01*
X110629604Y-34867904D02*
X111124842Y-34867904D01*
X110858176Y-35172666D01*
X110972461Y-35172666D01*
X111048652Y-35210761D01*
X111086747Y-35248857D01*
X111124842Y-35325047D01*
X111124842Y-35515523D01*
X111086747Y-35591714D01*
X111048652Y-35629809D01*
X110972461Y-35667904D01*
X110743890Y-35667904D01*
X110667700Y-35629809D01*
X110629604Y-35591714D01*
X111505795Y-35667904D02*
X111658176Y-35667904D01*
X111734366Y-35629809D01*
X111772461Y-35591714D01*
X111848652Y-35477428D01*
X111886747Y-35325047D01*
X111886747Y-35020285D01*
X111848652Y-34944095D01*
X111810557Y-34906000D01*
X111734366Y-34867904D01*
X111581985Y-34867904D01*
X111505795Y-34906000D01*
X111467700Y-34944095D01*
X111429604Y-35020285D01*
X111429604Y-35210761D01*
X111467700Y-35286952D01*
X111505795Y-35325047D01*
X111581985Y-35363142D01*
X111734366Y-35363142D01*
X111810557Y-35325047D01*
X111848652Y-35286952D01*
X111886747Y-35210761D01*
X108305795Y-37446000D02*
X108229604Y-37407904D01*
X108115319Y-37407904D01*
X108001033Y-37446000D01*
X107924842Y-37522190D01*
X107886747Y-37598380D01*
X107848652Y-37750761D01*
X107848652Y-37865047D01*
X107886747Y-38017428D01*
X107924842Y-38093619D01*
X108001033Y-38169809D01*
X108115319Y-38207904D01*
X108191509Y-38207904D01*
X108305795Y-38169809D01*
X108343890Y-38131714D01*
X108343890Y-37865047D01*
X108191509Y-37865047D01*
X108686747Y-38207904D02*
X108686747Y-37407904D01*
X108991509Y-37407904D01*
X109067700Y-37446000D01*
X109105795Y-37484095D01*
X109143890Y-37560285D01*
X109143890Y-37674571D01*
X109105795Y-37750761D01*
X109067700Y-37788857D01*
X108991509Y-37826952D01*
X108686747Y-37826952D01*
X109486747Y-38207904D02*
X109486747Y-37407904D01*
X110020080Y-37407904D02*
X110172461Y-37407904D01*
X110248652Y-37446000D01*
X110324842Y-37522190D01*
X110362938Y-37674571D01*
X110362938Y-37941238D01*
X110324842Y-38093619D01*
X110248652Y-38169809D01*
X110172461Y-38207904D01*
X110020080Y-38207904D01*
X109943890Y-38169809D01*
X109867700Y-38093619D01*
X109829604Y-37941238D01*
X109829604Y-37674571D01*
X109867700Y-37522190D01*
X109943890Y-37446000D01*
X110020080Y-37407904D01*
X110629604Y-37407904D02*
X111124842Y-37407904D01*
X110858176Y-37712666D01*
X110972461Y-37712666D01*
X111048652Y-37750761D01*
X111086747Y-37788857D01*
X111124842Y-37865047D01*
X111124842Y-38055523D01*
X111086747Y-38131714D01*
X111048652Y-38169809D01*
X110972461Y-38207904D01*
X110743890Y-38207904D01*
X110667700Y-38169809D01*
X110629604Y-38131714D01*
X111810557Y-37674571D02*
X111810557Y-38207904D01*
X111620080Y-37369809D02*
X111429604Y-37941238D01*
X111924842Y-37941238D01*
X108305795Y-39986000D02*
X108229604Y-39947904D01*
X108115319Y-39947904D01*
X108001033Y-39986000D01*
X107924842Y-40062190D01*
X107886747Y-40138380D01*
X107848652Y-40290761D01*
X107848652Y-40405047D01*
X107886747Y-40557428D01*
X107924842Y-40633619D01*
X108001033Y-40709809D01*
X108115319Y-40747904D01*
X108191509Y-40747904D01*
X108305795Y-40709809D01*
X108343890Y-40671714D01*
X108343890Y-40405047D01*
X108191509Y-40405047D01*
X108686747Y-40747904D02*
X108686747Y-39947904D01*
X108991509Y-39947904D01*
X109067700Y-39986000D01*
X109105795Y-40024095D01*
X109143890Y-40100285D01*
X109143890Y-40214571D01*
X109105795Y-40290761D01*
X109067700Y-40328857D01*
X108991509Y-40366952D01*
X108686747Y-40366952D01*
X109486747Y-40747904D02*
X109486747Y-39947904D01*
X110020080Y-39947904D02*
X110172461Y-39947904D01*
X110248652Y-39986000D01*
X110324842Y-40062190D01*
X110362938Y-40214571D01*
X110362938Y-40481238D01*
X110324842Y-40633619D01*
X110248652Y-40709809D01*
X110172461Y-40747904D01*
X110020080Y-40747904D01*
X109943890Y-40709809D01*
X109867700Y-40633619D01*
X109829604Y-40481238D01*
X109829604Y-40214571D01*
X109867700Y-40062190D01*
X109943890Y-39986000D01*
X110020080Y-39947904D01*
X110629604Y-39947904D02*
X111124842Y-39947904D01*
X110858176Y-40252666D01*
X110972461Y-40252666D01*
X111048652Y-40290761D01*
X111086747Y-40328857D01*
X111124842Y-40405047D01*
X111124842Y-40595523D01*
X111086747Y-40671714D01*
X111048652Y-40709809D01*
X110972461Y-40747904D01*
X110743890Y-40747904D01*
X110667700Y-40709809D01*
X110629604Y-40671714D01*
X111848652Y-39947904D02*
X111467700Y-39947904D01*
X111429604Y-40328857D01*
X111467700Y-40290761D01*
X111543890Y-40252666D01*
X111734366Y-40252666D01*
X111810557Y-40290761D01*
X111848652Y-40328857D01*
X111886747Y-40405047D01*
X111886747Y-40595523D01*
X111848652Y-40671714D01*
X111810557Y-40709809D01*
X111734366Y-40747904D01*
X111543890Y-40747904D01*
X111467700Y-40709809D01*
X111429604Y-40671714D01*
X108305795Y-42526000D02*
X108229604Y-42487904D01*
X108115319Y-42487904D01*
X108001033Y-42526000D01*
X107924842Y-42602190D01*
X107886747Y-42678380D01*
X107848652Y-42830761D01*
X107848652Y-42945047D01*
X107886747Y-43097428D01*
X107924842Y-43173619D01*
X108001033Y-43249809D01*
X108115319Y-43287904D01*
X108191509Y-43287904D01*
X108305795Y-43249809D01*
X108343890Y-43211714D01*
X108343890Y-42945047D01*
X108191509Y-42945047D01*
X108686747Y-43287904D02*
X108686747Y-42487904D01*
X108991509Y-42487904D01*
X109067700Y-42526000D01*
X109105795Y-42564095D01*
X109143890Y-42640285D01*
X109143890Y-42754571D01*
X109105795Y-42830761D01*
X109067700Y-42868857D01*
X108991509Y-42906952D01*
X108686747Y-42906952D01*
X109486747Y-43287904D02*
X109486747Y-42487904D01*
X110020080Y-42487904D02*
X110172461Y-42487904D01*
X110248652Y-42526000D01*
X110324842Y-42602190D01*
X110362938Y-42754571D01*
X110362938Y-43021238D01*
X110324842Y-43173619D01*
X110248652Y-43249809D01*
X110172461Y-43287904D01*
X110020080Y-43287904D01*
X109943890Y-43249809D01*
X109867700Y-43173619D01*
X109829604Y-43021238D01*
X109829604Y-42754571D01*
X109867700Y-42602190D01*
X109943890Y-42526000D01*
X110020080Y-42487904D01*
X110629604Y-42487904D02*
X111124842Y-42487904D01*
X110858176Y-42792666D01*
X110972461Y-42792666D01*
X111048652Y-42830761D01*
X111086747Y-42868857D01*
X111124842Y-42945047D01*
X111124842Y-43135523D01*
X111086747Y-43211714D01*
X111048652Y-43249809D01*
X110972461Y-43287904D01*
X110743890Y-43287904D01*
X110667700Y-43249809D01*
X110629604Y-43211714D01*
X111429604Y-42564095D02*
X111467700Y-42526000D01*
X111543890Y-42487904D01*
X111734366Y-42487904D01*
X111810557Y-42526000D01*
X111848652Y-42564095D01*
X111886747Y-42640285D01*
X111886747Y-42716476D01*
X111848652Y-42830761D01*
X111391509Y-43287904D01*
X111886747Y-43287904D01*
X108305795Y-45066000D02*
X108229604Y-45027904D01*
X108115319Y-45027904D01*
X108001033Y-45066000D01*
X107924842Y-45142190D01*
X107886747Y-45218380D01*
X107848652Y-45370761D01*
X107848652Y-45485047D01*
X107886747Y-45637428D01*
X107924842Y-45713619D01*
X108001033Y-45789809D01*
X108115319Y-45827904D01*
X108191509Y-45827904D01*
X108305795Y-45789809D01*
X108343890Y-45751714D01*
X108343890Y-45485047D01*
X108191509Y-45485047D01*
X108686747Y-45827904D02*
X108686747Y-45027904D01*
X108991509Y-45027904D01*
X109067700Y-45066000D01*
X109105795Y-45104095D01*
X109143890Y-45180285D01*
X109143890Y-45294571D01*
X109105795Y-45370761D01*
X109067700Y-45408857D01*
X108991509Y-45446952D01*
X108686747Y-45446952D01*
X109486747Y-45827904D02*
X109486747Y-45027904D01*
X110020080Y-45027904D02*
X110172461Y-45027904D01*
X110248652Y-45066000D01*
X110324842Y-45142190D01*
X110362938Y-45294571D01*
X110362938Y-45561238D01*
X110324842Y-45713619D01*
X110248652Y-45789809D01*
X110172461Y-45827904D01*
X110020080Y-45827904D01*
X109943890Y-45789809D01*
X109867700Y-45713619D01*
X109829604Y-45561238D01*
X109829604Y-45294571D01*
X109867700Y-45142190D01*
X109943890Y-45066000D01*
X110020080Y-45027904D01*
X110629604Y-45027904D02*
X111124842Y-45027904D01*
X110858176Y-45332666D01*
X110972461Y-45332666D01*
X111048652Y-45370761D01*
X111086747Y-45408857D01*
X111124842Y-45485047D01*
X111124842Y-45675523D01*
X111086747Y-45751714D01*
X111048652Y-45789809D01*
X110972461Y-45827904D01*
X110743890Y-45827904D01*
X110667700Y-45789809D01*
X110629604Y-45751714D01*
X111391509Y-45027904D02*
X111886747Y-45027904D01*
X111620080Y-45332666D01*
X111734366Y-45332666D01*
X111810557Y-45370761D01*
X111848652Y-45408857D01*
X111886747Y-45485047D01*
X111886747Y-45675523D01*
X111848652Y-45751714D01*
X111810557Y-45789809D01*
X111734366Y-45827904D01*
X111505795Y-45827904D01*
X111429604Y-45789809D01*
X111391509Y-45751714D01*
X108305795Y-47606000D02*
X108229604Y-47567904D01*
X108115319Y-47567904D01*
X108001033Y-47606000D01*
X107924842Y-47682190D01*
X107886747Y-47758380D01*
X107848652Y-47910761D01*
X107848652Y-48025047D01*
X107886747Y-48177428D01*
X107924842Y-48253619D01*
X108001033Y-48329809D01*
X108115319Y-48367904D01*
X108191509Y-48367904D01*
X108305795Y-48329809D01*
X108343890Y-48291714D01*
X108343890Y-48025047D01*
X108191509Y-48025047D01*
X108686747Y-48367904D02*
X108686747Y-47567904D01*
X108991509Y-47567904D01*
X109067700Y-47606000D01*
X109105795Y-47644095D01*
X109143890Y-47720285D01*
X109143890Y-47834571D01*
X109105795Y-47910761D01*
X109067700Y-47948857D01*
X108991509Y-47986952D01*
X108686747Y-47986952D01*
X109486747Y-48367904D02*
X109486747Y-47567904D01*
X110020080Y-47567904D02*
X110172461Y-47567904D01*
X110248652Y-47606000D01*
X110324842Y-47682190D01*
X110362938Y-47834571D01*
X110362938Y-48101238D01*
X110324842Y-48253619D01*
X110248652Y-48329809D01*
X110172461Y-48367904D01*
X110020080Y-48367904D01*
X109943890Y-48329809D01*
X109867700Y-48253619D01*
X109829604Y-48101238D01*
X109829604Y-47834571D01*
X109867700Y-47682190D01*
X109943890Y-47606000D01*
X110020080Y-47567904D01*
X110667700Y-47644095D02*
X110705795Y-47606000D01*
X110781985Y-47567904D01*
X110972461Y-47567904D01*
X111048652Y-47606000D01*
X111086747Y-47644095D01*
X111124842Y-47720285D01*
X111124842Y-47796476D01*
X111086747Y-47910761D01*
X110629604Y-48367904D01*
X111124842Y-48367904D01*
X111848652Y-47567904D02*
X111467700Y-47567904D01*
X111429604Y-47948857D01*
X111467700Y-47910761D01*
X111543890Y-47872666D01*
X111734366Y-47872666D01*
X111810557Y-47910761D01*
X111848652Y-47948857D01*
X111886747Y-48025047D01*
X111886747Y-48215523D01*
X111848652Y-48291714D01*
X111810557Y-48329809D01*
X111734366Y-48367904D01*
X111543890Y-48367904D01*
X111467700Y-48329809D01*
X111429604Y-48291714D01*
X108305795Y-50146000D02*
X108229604Y-50107904D01*
X108115319Y-50107904D01*
X108001033Y-50146000D01*
X107924842Y-50222190D01*
X107886747Y-50298380D01*
X107848652Y-50450761D01*
X107848652Y-50565047D01*
X107886747Y-50717428D01*
X107924842Y-50793619D01*
X108001033Y-50869809D01*
X108115319Y-50907904D01*
X108191509Y-50907904D01*
X108305795Y-50869809D01*
X108343890Y-50831714D01*
X108343890Y-50565047D01*
X108191509Y-50565047D01*
X108686747Y-50907904D02*
X108686747Y-50107904D01*
X108991509Y-50107904D01*
X109067700Y-50146000D01*
X109105795Y-50184095D01*
X109143890Y-50260285D01*
X109143890Y-50374571D01*
X109105795Y-50450761D01*
X109067700Y-50488857D01*
X108991509Y-50526952D01*
X108686747Y-50526952D01*
X109486747Y-50907904D02*
X109486747Y-50107904D01*
X110020080Y-50107904D02*
X110172461Y-50107904D01*
X110248652Y-50146000D01*
X110324842Y-50222190D01*
X110362938Y-50374571D01*
X110362938Y-50641238D01*
X110324842Y-50793619D01*
X110248652Y-50869809D01*
X110172461Y-50907904D01*
X110020080Y-50907904D01*
X109943890Y-50869809D01*
X109867700Y-50793619D01*
X109829604Y-50641238D01*
X109829604Y-50374571D01*
X109867700Y-50222190D01*
X109943890Y-50146000D01*
X110020080Y-50107904D01*
X110667700Y-50184095D02*
X110705795Y-50146000D01*
X110781985Y-50107904D01*
X110972461Y-50107904D01*
X111048652Y-50146000D01*
X111086747Y-50184095D01*
X111124842Y-50260285D01*
X111124842Y-50336476D01*
X111086747Y-50450761D01*
X110629604Y-50907904D01*
X111124842Y-50907904D01*
X111810557Y-50107904D02*
X111658176Y-50107904D01*
X111581985Y-50146000D01*
X111543890Y-50184095D01*
X111467700Y-50298380D01*
X111429604Y-50450761D01*
X111429604Y-50755523D01*
X111467700Y-50831714D01*
X111505795Y-50869809D01*
X111581985Y-50907904D01*
X111734366Y-50907904D01*
X111810557Y-50869809D01*
X111848652Y-50831714D01*
X111886747Y-50755523D01*
X111886747Y-50565047D01*
X111848652Y-50488857D01*
X111810557Y-50450761D01*
X111734366Y-50412666D01*
X111581985Y-50412666D01*
X111505795Y-50450761D01*
X111467700Y-50488857D01*
X111429604Y-50565047D01*
X108305795Y-52686000D02*
X108229604Y-52647904D01*
X108115319Y-52647904D01*
X108001033Y-52686000D01*
X107924842Y-52762190D01*
X107886747Y-52838380D01*
X107848652Y-52990761D01*
X107848652Y-53105047D01*
X107886747Y-53257428D01*
X107924842Y-53333619D01*
X108001033Y-53409809D01*
X108115319Y-53447904D01*
X108191509Y-53447904D01*
X108305795Y-53409809D01*
X108343890Y-53371714D01*
X108343890Y-53105047D01*
X108191509Y-53105047D01*
X108686747Y-53447904D02*
X108686747Y-52647904D01*
X108991509Y-52647904D01*
X109067700Y-52686000D01*
X109105795Y-52724095D01*
X109143890Y-52800285D01*
X109143890Y-52914571D01*
X109105795Y-52990761D01*
X109067700Y-53028857D01*
X108991509Y-53066952D01*
X108686747Y-53066952D01*
X109486747Y-53447904D02*
X109486747Y-52647904D01*
X110020080Y-52647904D02*
X110172461Y-52647904D01*
X110248652Y-52686000D01*
X110324842Y-52762190D01*
X110362938Y-52914571D01*
X110362938Y-53181238D01*
X110324842Y-53333619D01*
X110248652Y-53409809D01*
X110172461Y-53447904D01*
X110020080Y-53447904D01*
X109943890Y-53409809D01*
X109867700Y-53333619D01*
X109829604Y-53181238D01*
X109829604Y-52914571D01*
X109867700Y-52762190D01*
X109943890Y-52686000D01*
X110020080Y-52647904D01*
X110667700Y-52724095D02*
X110705795Y-52686000D01*
X110781985Y-52647904D01*
X110972461Y-52647904D01*
X111048652Y-52686000D01*
X111086747Y-52724095D01*
X111124842Y-52800285D01*
X111124842Y-52876476D01*
X111086747Y-52990761D01*
X110629604Y-53447904D01*
X111124842Y-53447904D01*
X111391509Y-52647904D02*
X111924842Y-52647904D01*
X111581985Y-53447904D01*
X108305795Y-55226000D02*
X108229604Y-55187904D01*
X108115319Y-55187904D01*
X108001033Y-55226000D01*
X107924842Y-55302190D01*
X107886747Y-55378380D01*
X107848652Y-55530761D01*
X107848652Y-55645047D01*
X107886747Y-55797428D01*
X107924842Y-55873619D01*
X108001033Y-55949809D01*
X108115319Y-55987904D01*
X108191509Y-55987904D01*
X108305795Y-55949809D01*
X108343890Y-55911714D01*
X108343890Y-55645047D01*
X108191509Y-55645047D01*
X108686747Y-55987904D02*
X108686747Y-55187904D01*
X108991509Y-55187904D01*
X109067700Y-55226000D01*
X109105795Y-55264095D01*
X109143890Y-55340285D01*
X109143890Y-55454571D01*
X109105795Y-55530761D01*
X109067700Y-55568857D01*
X108991509Y-55606952D01*
X108686747Y-55606952D01*
X109486747Y-55987904D02*
X109486747Y-55187904D01*
X110020080Y-55187904D02*
X110172461Y-55187904D01*
X110248652Y-55226000D01*
X110324842Y-55302190D01*
X110362938Y-55454571D01*
X110362938Y-55721238D01*
X110324842Y-55873619D01*
X110248652Y-55949809D01*
X110172461Y-55987904D01*
X110020080Y-55987904D01*
X109943890Y-55949809D01*
X109867700Y-55873619D01*
X109829604Y-55721238D01*
X109829604Y-55454571D01*
X109867700Y-55302190D01*
X109943890Y-55226000D01*
X110020080Y-55187904D01*
X111124842Y-55987904D02*
X110667700Y-55987904D01*
X110896271Y-55987904D02*
X110896271Y-55187904D01*
X110820080Y-55302190D01*
X110743890Y-55378380D01*
X110667700Y-55416476D01*
X111810557Y-55454571D02*
X111810557Y-55987904D01*
X111620080Y-55149809D02*
X111429604Y-55721238D01*
X111924842Y-55721238D01*
X108305795Y-57766000D02*
X108229604Y-57727904D01*
X108115319Y-57727904D01*
X108001033Y-57766000D01*
X107924842Y-57842190D01*
X107886747Y-57918380D01*
X107848652Y-58070761D01*
X107848652Y-58185047D01*
X107886747Y-58337428D01*
X107924842Y-58413619D01*
X108001033Y-58489809D01*
X108115319Y-58527904D01*
X108191509Y-58527904D01*
X108305795Y-58489809D01*
X108343890Y-58451714D01*
X108343890Y-58185047D01*
X108191509Y-58185047D01*
X108686747Y-58527904D02*
X108686747Y-57727904D01*
X108991509Y-57727904D01*
X109067700Y-57766000D01*
X109105795Y-57804095D01*
X109143890Y-57880285D01*
X109143890Y-57994571D01*
X109105795Y-58070761D01*
X109067700Y-58108857D01*
X108991509Y-58146952D01*
X108686747Y-58146952D01*
X109486747Y-58527904D02*
X109486747Y-57727904D01*
X110020080Y-57727904D02*
X110172461Y-57727904D01*
X110248652Y-57766000D01*
X110324842Y-57842190D01*
X110362938Y-57994571D01*
X110362938Y-58261238D01*
X110324842Y-58413619D01*
X110248652Y-58489809D01*
X110172461Y-58527904D01*
X110020080Y-58527904D01*
X109943890Y-58489809D01*
X109867700Y-58413619D01*
X109829604Y-58261238D01*
X109829604Y-57994571D01*
X109867700Y-57842190D01*
X109943890Y-57766000D01*
X110020080Y-57727904D01*
X111124842Y-58527904D02*
X110667700Y-58527904D01*
X110896271Y-58527904D02*
X110896271Y-57727904D01*
X110820080Y-57842190D01*
X110743890Y-57918380D01*
X110667700Y-57956476D01*
X111429604Y-57804095D02*
X111467700Y-57766000D01*
X111543890Y-57727904D01*
X111734366Y-57727904D01*
X111810557Y-57766000D01*
X111848652Y-57804095D01*
X111886747Y-57880285D01*
X111886747Y-57956476D01*
X111848652Y-58070761D01*
X111391509Y-58527904D01*
X111886747Y-58527904D01*
X108305795Y-60306000D02*
X108229604Y-60267904D01*
X108115319Y-60267904D01*
X108001033Y-60306000D01*
X107924842Y-60382190D01*
X107886747Y-60458380D01*
X107848652Y-60610761D01*
X107848652Y-60725047D01*
X107886747Y-60877428D01*
X107924842Y-60953619D01*
X108001033Y-61029809D01*
X108115319Y-61067904D01*
X108191509Y-61067904D01*
X108305795Y-61029809D01*
X108343890Y-60991714D01*
X108343890Y-60725047D01*
X108191509Y-60725047D01*
X108686747Y-61067904D02*
X108686747Y-60267904D01*
X108991509Y-60267904D01*
X109067700Y-60306000D01*
X109105795Y-60344095D01*
X109143890Y-60420285D01*
X109143890Y-60534571D01*
X109105795Y-60610761D01*
X109067700Y-60648857D01*
X108991509Y-60686952D01*
X108686747Y-60686952D01*
X109486747Y-61067904D02*
X109486747Y-60267904D01*
X110020080Y-60267904D02*
X110172461Y-60267904D01*
X110248652Y-60306000D01*
X110324842Y-60382190D01*
X110362938Y-60534571D01*
X110362938Y-60801238D01*
X110324842Y-60953619D01*
X110248652Y-61029809D01*
X110172461Y-61067904D01*
X110020080Y-61067904D01*
X109943890Y-61029809D01*
X109867700Y-60953619D01*
X109829604Y-60801238D01*
X109829604Y-60534571D01*
X109867700Y-60382190D01*
X109943890Y-60306000D01*
X110020080Y-60267904D01*
X111124842Y-61067904D02*
X110667700Y-61067904D01*
X110896271Y-61067904D02*
X110896271Y-60267904D01*
X110820080Y-60382190D01*
X110743890Y-60458380D01*
X110667700Y-60496476D01*
X111391509Y-60267904D02*
X111886747Y-60267904D01*
X111620080Y-60572666D01*
X111734366Y-60572666D01*
X111810557Y-60610761D01*
X111848652Y-60648857D01*
X111886747Y-60725047D01*
X111886747Y-60915523D01*
X111848652Y-60991714D01*
X111810557Y-61029809D01*
X111734366Y-61067904D01*
X111505795Y-61067904D01*
X111429604Y-61029809D01*
X111391509Y-60991714D01*
X108305795Y-62846000D02*
X108229604Y-62807904D01*
X108115319Y-62807904D01*
X108001033Y-62846000D01*
X107924842Y-62922190D01*
X107886747Y-62998380D01*
X107848652Y-63150761D01*
X107848652Y-63265047D01*
X107886747Y-63417428D01*
X107924842Y-63493619D01*
X108001033Y-63569809D01*
X108115319Y-63607904D01*
X108191509Y-63607904D01*
X108305795Y-63569809D01*
X108343890Y-63531714D01*
X108343890Y-63265047D01*
X108191509Y-63265047D01*
X108686747Y-63607904D02*
X108686747Y-62807904D01*
X108991509Y-62807904D01*
X109067700Y-62846000D01*
X109105795Y-62884095D01*
X109143890Y-62960285D01*
X109143890Y-63074571D01*
X109105795Y-63150761D01*
X109067700Y-63188857D01*
X108991509Y-63226952D01*
X108686747Y-63226952D01*
X109486747Y-63607904D02*
X109486747Y-62807904D01*
X110020080Y-62807904D02*
X110172461Y-62807904D01*
X110248652Y-62846000D01*
X110324842Y-62922190D01*
X110362938Y-63074571D01*
X110362938Y-63341238D01*
X110324842Y-63493619D01*
X110248652Y-63569809D01*
X110172461Y-63607904D01*
X110020080Y-63607904D01*
X109943890Y-63569809D01*
X109867700Y-63493619D01*
X109829604Y-63341238D01*
X109829604Y-63074571D01*
X109867700Y-62922190D01*
X109943890Y-62846000D01*
X110020080Y-62807904D01*
X110667700Y-62884095D02*
X110705795Y-62846000D01*
X110781985Y-62807904D01*
X110972461Y-62807904D01*
X111048652Y-62846000D01*
X111086747Y-62884095D01*
X111124842Y-62960285D01*
X111124842Y-63036476D01*
X111086747Y-63150761D01*
X110629604Y-63607904D01*
X111124842Y-63607904D01*
X111886747Y-63607904D02*
X111429604Y-63607904D01*
X111658176Y-63607904D02*
X111658176Y-62807904D01*
X111581985Y-62922190D01*
X111505795Y-62998380D01*
X111429604Y-63036476D01*
X101525676Y-68492666D02*
X102001866Y-68492666D01*
X101430438Y-68778380D02*
X101763771Y-67778380D01*
X102097104Y-68778380D01*
X102430438Y-68111714D02*
X102430438Y-68778380D01*
X102430438Y-68206952D02*
X102478057Y-68159333D01*
X102573295Y-68111714D01*
X102716152Y-68111714D01*
X102811390Y-68159333D01*
X102859009Y-68254571D01*
X102859009Y-68778380D01*
X103192342Y-68111714D02*
X103573295Y-68111714D01*
X103335200Y-67778380D02*
X103335200Y-68635523D01*
X103382819Y-68730761D01*
X103478057Y-68778380D01*
X103573295Y-68778380D01*
X104287580Y-68730761D02*
X104192342Y-68778380D01*
X104001866Y-68778380D01*
X103906628Y-68730761D01*
X103859009Y-68635523D01*
X103859009Y-68254571D01*
X103906628Y-68159333D01*
X104001866Y-68111714D01*
X104192342Y-68111714D01*
X104287580Y-68159333D01*
X104335200Y-68254571D01*
X104335200Y-68349809D01*
X103859009Y-68445047D01*
X104763771Y-68111714D02*
X104763771Y-68778380D01*
X104763771Y-68206952D02*
X104811390Y-68159333D01*
X104906628Y-68111714D01*
X105049485Y-68111714D01*
X105144723Y-68159333D01*
X105192342Y-68254571D01*
X105192342Y-68778380D01*
X106097104Y-68778380D02*
X106097104Y-68254571D01*
X106049485Y-68159333D01*
X105954247Y-68111714D01*
X105763771Y-68111714D01*
X105668533Y-68159333D01*
X106097104Y-68730761D02*
X106001866Y-68778380D01*
X105763771Y-68778380D01*
X105668533Y-68730761D01*
X105620914Y-68635523D01*
X105620914Y-68540285D01*
X105668533Y-68445047D01*
X105763771Y-68397428D01*
X106001866Y-68397428D01*
X106097104Y-68349809D01*
X122267866Y-70591180D02*
X122267866Y-71305466D01*
X122220247Y-71448323D01*
X122125009Y-71543561D01*
X121982152Y-71591180D01*
X121886914Y-71591180D01*
X122648819Y-70591180D02*
X123267866Y-70591180D01*
X122934533Y-70972133D01*
X123077390Y-70972133D01*
X123172628Y-71019752D01*
X123220247Y-71067371D01*
X123267866Y-71162609D01*
X123267866Y-71400704D01*
X123220247Y-71495942D01*
X123172628Y-71543561D01*
X123077390Y-71591180D01*
X122791676Y-71591180D01*
X122696438Y-71543561D01*
X122648819Y-71495942D01*
D14*
X118251066Y-65758266D02*
X118651066Y-65758266D01*
X118451066Y-66458266D02*
X118451066Y-65758266D01*
X118884400Y-66091600D02*
X119117733Y-66091600D01*
X119217733Y-66458266D02*
X118884400Y-66458266D01*
X118884400Y-65758266D01*
X119217733Y-65758266D01*
X119484400Y-66424933D02*
X119584400Y-66458266D01*
X119751066Y-66458266D01*
X119817733Y-66424933D01*
X119851066Y-66391600D01*
X119884400Y-66324933D01*
X119884400Y-66258266D01*
X119851066Y-66191600D01*
X119817733Y-66158266D01*
X119751066Y-66124933D01*
X119617733Y-66091600D01*
X119551066Y-66058266D01*
X119517733Y-66024933D01*
X119484400Y-65958266D01*
X119484400Y-65891600D01*
X119517733Y-65824933D01*
X119551066Y-65791600D01*
X119617733Y-65758266D01*
X119784400Y-65758266D01*
X119884400Y-65791600D01*
X120084400Y-65758266D02*
X120484400Y-65758266D01*
X120284400Y-66458266D02*
X120284400Y-65758266D01*
X120717733Y-66091600D02*
X120951066Y-66091600D01*
X121051066Y-66458266D02*
X120717733Y-66458266D01*
X120717733Y-65758266D01*
X121051066Y-65758266D01*
X121884400Y-66458266D02*
X121884400Y-65758266D01*
X122051066Y-65758266D01*
X122151066Y-65791600D01*
X122217733Y-65858266D01*
X122251066Y-65924933D01*
X122284400Y-66058266D01*
X122284400Y-66158266D01*
X122251066Y-66291600D01*
X122217733Y-66358266D01*
X122151066Y-66424933D01*
X122051066Y-66458266D01*
X121884400Y-66458266D01*
X122584400Y-66091600D02*
X122817733Y-66091600D01*
X122917733Y-66458266D02*
X122584400Y-66458266D01*
X122584400Y-65758266D01*
X122917733Y-65758266D01*
X123651066Y-65758266D02*
X124051066Y-65758266D01*
X123851066Y-66458266D02*
X123851066Y-65758266D01*
X124284400Y-66091600D02*
X124517733Y-66091600D01*
X124617733Y-66458266D02*
X124284400Y-66458266D01*
X124284400Y-65758266D01*
X124617733Y-65758266D01*
X124917733Y-66458266D02*
X124917733Y-65758266D01*
X125317733Y-66458266D01*
X125317733Y-65758266D01*
X125617733Y-66424933D02*
X125717733Y-66458266D01*
X125884400Y-66458266D01*
X125951066Y-66424933D01*
X125984400Y-66391600D01*
X126017733Y-66324933D01*
X126017733Y-66258266D01*
X125984400Y-66191600D01*
X125951066Y-66158266D01*
X125884400Y-66124933D01*
X125751066Y-66091600D01*
X125684400Y-66058266D01*
X125651066Y-66024933D01*
X125617733Y-65958266D01*
X125617733Y-65891600D01*
X125651066Y-65824933D01*
X125684400Y-65791600D01*
X125751066Y-65758266D01*
X125917733Y-65758266D01*
X126017733Y-65791600D01*
X126284400Y-66258266D02*
X126617733Y-66258266D01*
X126217733Y-66458266D02*
X126451066Y-65758266D01*
X126684400Y-66458266D01*
X127051066Y-65758266D02*
X127184400Y-65758266D01*
X127251066Y-65791600D01*
X127317733Y-65858266D01*
X127351066Y-65991600D01*
X127351066Y-66224933D01*
X127317733Y-66358266D01*
X127251066Y-66424933D01*
X127184400Y-66458266D01*
X127051066Y-66458266D01*
X126984400Y-66424933D01*
X126917733Y-66358266D01*
X126884400Y-66224933D01*
X126884400Y-65991600D01*
X126917733Y-65858266D01*
X126984400Y-65791600D01*
X127051066Y-65758266D01*
M02*
