G04 #@! TF.GenerationSoftware,KiCad,Pcbnew,5.1.5+dfsg1-2build2*
G04 #@! TF.CreationDate,2020-10-23T17:48:02-04:00*
G04 #@! TF.ProjectId,placa_manutencao_preventiva,706c6163-615f-46d6-916e-7574656e6361,rev?*
G04 #@! TF.SameCoordinates,Original*
G04 #@! TF.FileFunction,Soldermask,Bot*
G04 #@! TF.FilePolarity,Negative*
%FSLAX46Y46*%
G04 Gerber Fmt 4.6, Leading zero omitted, Abs format (unit mm)*
G04 Created by KiCad (PCBNEW 5.1.5+dfsg1-2build2) date 2020-10-23 17:48:02*
%MOMM*%
%LPD*%
G04 APERTURE LIST*
%ADD10C,0.050000*%
%ADD11C,0.100000*%
G04 APERTURE END LIST*
D10*
X77673200Y-14935200D02*
X77673200Y-15290800D01*
X77876400Y-14935200D02*
X77673200Y-14935200D01*
X136093200Y-14935200D02*
X77876400Y-14935200D01*
X136093200Y-89662000D02*
X136093200Y-14935200D01*
X77673200Y-89662000D02*
X136093200Y-89662000D01*
X77673200Y-15290800D02*
X77673200Y-89662000D01*
D11*
G36*
X128619828Y-85998903D02*
G01*
X128774700Y-86063053D01*
X128914081Y-86156185D01*
X129032615Y-86274719D01*
X129125747Y-86414100D01*
X129189897Y-86568972D01*
X129222600Y-86733384D01*
X129222600Y-86901016D01*
X129189897Y-87065428D01*
X129125747Y-87220300D01*
X129032615Y-87359681D01*
X128914081Y-87478215D01*
X128774700Y-87571347D01*
X128619828Y-87635497D01*
X128455416Y-87668200D01*
X128287784Y-87668200D01*
X128123372Y-87635497D01*
X127968500Y-87571347D01*
X127829119Y-87478215D01*
X127710585Y-87359681D01*
X127617453Y-87220300D01*
X127553303Y-87065428D01*
X127520600Y-86901016D01*
X127520600Y-86733384D01*
X127553303Y-86568972D01*
X127617453Y-86414100D01*
X127710585Y-86274719D01*
X127829119Y-86156185D01*
X127968500Y-86063053D01*
X128123372Y-85998903D01*
X128287784Y-85966200D01*
X128455416Y-85966200D01*
X128619828Y-85998903D01*
G37*
G36*
X118459828Y-85998903D02*
G01*
X118614700Y-86063053D01*
X118754081Y-86156185D01*
X118872615Y-86274719D01*
X118965747Y-86414100D01*
X119029897Y-86568972D01*
X119062600Y-86733384D01*
X119062600Y-86901016D01*
X119029897Y-87065428D01*
X118965747Y-87220300D01*
X118872615Y-87359681D01*
X118754081Y-87478215D01*
X118614700Y-87571347D01*
X118459828Y-87635497D01*
X118295416Y-87668200D01*
X118127784Y-87668200D01*
X117963372Y-87635497D01*
X117808500Y-87571347D01*
X117669119Y-87478215D01*
X117550585Y-87359681D01*
X117457453Y-87220300D01*
X117393303Y-87065428D01*
X117360600Y-86901016D01*
X117360600Y-86733384D01*
X117393303Y-86568972D01*
X117457453Y-86414100D01*
X117550585Y-86274719D01*
X117669119Y-86156185D01*
X117808500Y-86063053D01*
X117963372Y-85998903D01*
X118127784Y-85966200D01*
X118295416Y-85966200D01*
X118459828Y-85998903D01*
G37*
G36*
X114040228Y-85287703D02*
G01*
X114195100Y-85351853D01*
X114334481Y-85444985D01*
X114453015Y-85563519D01*
X114546147Y-85702900D01*
X114610297Y-85857772D01*
X114643000Y-86022184D01*
X114643000Y-86189816D01*
X114610297Y-86354228D01*
X114546147Y-86509100D01*
X114453015Y-86648481D01*
X114334481Y-86767015D01*
X114195100Y-86860147D01*
X114040228Y-86924297D01*
X113875816Y-86957000D01*
X113708184Y-86957000D01*
X113543772Y-86924297D01*
X113388900Y-86860147D01*
X113249519Y-86767015D01*
X113130985Y-86648481D01*
X113037853Y-86509100D01*
X112973703Y-86354228D01*
X112941000Y-86189816D01*
X112941000Y-86022184D01*
X112973703Y-85857772D01*
X113037853Y-85702900D01*
X113130985Y-85563519D01*
X113249519Y-85444985D01*
X113388900Y-85351853D01*
X113543772Y-85287703D01*
X113708184Y-85255000D01*
X113875816Y-85255000D01*
X114040228Y-85287703D01*
G37*
G36*
X106641112Y-84955927D02*
G01*
X106790412Y-84985624D01*
X106954384Y-85053544D01*
X107101954Y-85152147D01*
X107227453Y-85277646D01*
X107326056Y-85425216D01*
X107393976Y-85589188D01*
X107428600Y-85763259D01*
X107428600Y-85940741D01*
X107393976Y-86114812D01*
X107326056Y-86278784D01*
X107227453Y-86426354D01*
X107101954Y-86551853D01*
X106954384Y-86650456D01*
X106790412Y-86718376D01*
X106641112Y-86748073D01*
X106616342Y-86753000D01*
X106438858Y-86753000D01*
X106414088Y-86748073D01*
X106264788Y-86718376D01*
X106100816Y-86650456D01*
X105953246Y-86551853D01*
X105827747Y-86426354D01*
X105729144Y-86278784D01*
X105661224Y-86114812D01*
X105626600Y-85940741D01*
X105626600Y-85763259D01*
X105661224Y-85589188D01*
X105729144Y-85425216D01*
X105827747Y-85277646D01*
X105953246Y-85152147D01*
X106100816Y-85053544D01*
X106264788Y-84985624D01*
X106414088Y-84955927D01*
X106438858Y-84951000D01*
X106616342Y-84951000D01*
X106641112Y-84955927D01*
G37*
G36*
X104888600Y-86753000D02*
G01*
X103086600Y-86753000D01*
X103086600Y-84951000D01*
X104888600Y-84951000D01*
X104888600Y-86753000D01*
G37*
G36*
X99663828Y-83458903D02*
G01*
X99818700Y-83523053D01*
X99958081Y-83616185D01*
X100076615Y-83734719D01*
X100169747Y-83874100D01*
X100233897Y-84028972D01*
X100266600Y-84193384D01*
X100266600Y-84361016D01*
X100233897Y-84525428D01*
X100169747Y-84680300D01*
X100076615Y-84819681D01*
X99958081Y-84938215D01*
X99818700Y-85031347D01*
X99663828Y-85095497D01*
X99499416Y-85128200D01*
X99331784Y-85128200D01*
X99167372Y-85095497D01*
X99012500Y-85031347D01*
X98873119Y-84938215D01*
X98754585Y-84819681D01*
X98661453Y-84680300D01*
X98597303Y-84525428D01*
X98564600Y-84361016D01*
X98564600Y-84193384D01*
X98597303Y-84028972D01*
X98661453Y-83874100D01*
X98754585Y-83734719D01*
X98873119Y-83616185D01*
X99012500Y-83523053D01*
X99167372Y-83458903D01*
X99331784Y-83426200D01*
X99499416Y-83426200D01*
X99663828Y-83458903D01*
G37*
G36*
X89503828Y-83458903D02*
G01*
X89658700Y-83523053D01*
X89798081Y-83616185D01*
X89916615Y-83734719D01*
X90009747Y-83874100D01*
X90073897Y-84028972D01*
X90106600Y-84193384D01*
X90106600Y-84361016D01*
X90073897Y-84525428D01*
X90009747Y-84680300D01*
X89916615Y-84819681D01*
X89798081Y-84938215D01*
X89658700Y-85031347D01*
X89503828Y-85095497D01*
X89339416Y-85128200D01*
X89171784Y-85128200D01*
X89007372Y-85095497D01*
X88852500Y-85031347D01*
X88713119Y-84938215D01*
X88594585Y-84819681D01*
X88501453Y-84680300D01*
X88437303Y-84525428D01*
X88404600Y-84361016D01*
X88404600Y-84193384D01*
X88437303Y-84028972D01*
X88501453Y-83874100D01*
X88594585Y-83734719D01*
X88713119Y-83616185D01*
X88852500Y-83523053D01*
X89007372Y-83458903D01*
X89171784Y-83426200D01*
X89339416Y-83426200D01*
X89503828Y-83458903D01*
G37*
G36*
X132312147Y-80216921D02*
G01*
X132391776Y-80224764D01*
X132534257Y-80267985D01*
X132545030Y-80271253D01*
X132686263Y-80346744D01*
X132810059Y-80448341D01*
X132911656Y-80572137D01*
X132987147Y-80713370D01*
X132987148Y-80713373D01*
X133033636Y-80866624D01*
X133049333Y-81026000D01*
X133033636Y-81185376D01*
X132987148Y-81338627D01*
X132987147Y-81338630D01*
X132911656Y-81479863D01*
X132810059Y-81603659D01*
X132686263Y-81705256D01*
X132545030Y-81780747D01*
X132545027Y-81780748D01*
X132391776Y-81827236D01*
X132312147Y-81835079D01*
X132272334Y-81839000D01*
X130668466Y-81839000D01*
X130628653Y-81835079D01*
X130549024Y-81827236D01*
X130395773Y-81780748D01*
X130395770Y-81780747D01*
X130254537Y-81705256D01*
X130130741Y-81603659D01*
X130029144Y-81479863D01*
X129953653Y-81338630D01*
X129953652Y-81338627D01*
X129907164Y-81185376D01*
X129891467Y-81026000D01*
X129907164Y-80866624D01*
X129953652Y-80713373D01*
X129953653Y-80713370D01*
X130029144Y-80572137D01*
X130130741Y-80448341D01*
X130254537Y-80346744D01*
X130395770Y-80271253D01*
X130406543Y-80267985D01*
X130549024Y-80224764D01*
X130628653Y-80216921D01*
X130668466Y-80213000D01*
X132272334Y-80213000D01*
X132312147Y-80216921D01*
G37*
G36*
X125267980Y-74480365D02*
G01*
X125567437Y-74539931D01*
X126131601Y-74773615D01*
X126639335Y-75112872D01*
X127071128Y-75544665D01*
X127410385Y-76052399D01*
X127644069Y-76616563D01*
X127673455Y-76764297D01*
X127763200Y-77215475D01*
X127763200Y-77826125D01*
X127713929Y-78073828D01*
X127644069Y-78425037D01*
X127410385Y-78989201D01*
X127071128Y-79496935D01*
X126639335Y-79928728D01*
X126131601Y-80267985D01*
X125567437Y-80501669D01*
X125267980Y-80561235D01*
X124968525Y-80620800D01*
X124357875Y-80620800D01*
X124058420Y-80561235D01*
X123758963Y-80501669D01*
X123194799Y-80267985D01*
X122687065Y-79928728D01*
X122255272Y-79496935D01*
X121916015Y-78989201D01*
X121682331Y-78425037D01*
X121612471Y-78073828D01*
X121563200Y-77826125D01*
X121563200Y-77215475D01*
X121652945Y-76764297D01*
X121682331Y-76616563D01*
X121916015Y-76052399D01*
X122255272Y-75544665D01*
X122687065Y-75112872D01*
X123194799Y-74773615D01*
X123758963Y-74539931D01*
X124058420Y-74480365D01*
X124357875Y-74420800D01*
X124968525Y-74420800D01*
X125267980Y-74480365D01*
G37*
G36*
X97327980Y-74480365D02*
G01*
X97627437Y-74539931D01*
X98191601Y-74773615D01*
X98699335Y-75112872D01*
X99131128Y-75544665D01*
X99470385Y-76052399D01*
X99704069Y-76616563D01*
X99733455Y-76764297D01*
X99823200Y-77215475D01*
X99823200Y-77826125D01*
X99773929Y-78073828D01*
X99704069Y-78425037D01*
X99470385Y-78989201D01*
X99131128Y-79496935D01*
X98699335Y-79928728D01*
X98191601Y-80267985D01*
X97627437Y-80501669D01*
X97327980Y-80561235D01*
X97028525Y-80620800D01*
X96417875Y-80620800D01*
X96118420Y-80561235D01*
X95818963Y-80501669D01*
X95254799Y-80267985D01*
X94747065Y-79928728D01*
X94315272Y-79496935D01*
X93976015Y-78989201D01*
X93742331Y-78425037D01*
X93672471Y-78073828D01*
X93623200Y-77826125D01*
X93623200Y-77215475D01*
X93712945Y-76764297D01*
X93742331Y-76616563D01*
X93976015Y-76052399D01*
X94315272Y-75544665D01*
X94747065Y-75112872D01*
X95254799Y-74773615D01*
X95818963Y-74539931D01*
X96118420Y-74480365D01*
X96417875Y-74420800D01*
X97028525Y-74420800D01*
X97327980Y-74480365D01*
G37*
G36*
X132312147Y-77676921D02*
G01*
X132391776Y-77684764D01*
X132545027Y-77731252D01*
X132545030Y-77731253D01*
X132686263Y-77806744D01*
X132810059Y-77908341D01*
X132911656Y-78032137D01*
X132987147Y-78173370D01*
X132987148Y-78173373D01*
X133033636Y-78326624D01*
X133049333Y-78486000D01*
X133033636Y-78645376D01*
X132993344Y-78778200D01*
X132987147Y-78798630D01*
X132911656Y-78939863D01*
X132810059Y-79063659D01*
X132686263Y-79165256D01*
X132545030Y-79240747D01*
X132545027Y-79240748D01*
X132391776Y-79287236D01*
X132312147Y-79295079D01*
X132272334Y-79299000D01*
X130668466Y-79299000D01*
X130628653Y-79295079D01*
X130549024Y-79287236D01*
X130395773Y-79240748D01*
X130395770Y-79240747D01*
X130254537Y-79165256D01*
X130130741Y-79063659D01*
X130029144Y-78939863D01*
X129953653Y-78798630D01*
X129947456Y-78778200D01*
X129907164Y-78645376D01*
X129891467Y-78486000D01*
X129907164Y-78326624D01*
X129953652Y-78173373D01*
X129953653Y-78173370D01*
X130029144Y-78032137D01*
X130130741Y-77908341D01*
X130254537Y-77806744D01*
X130395770Y-77731253D01*
X130395773Y-77731252D01*
X130549024Y-77684764D01*
X130628653Y-77676921D01*
X130668466Y-77673000D01*
X132272334Y-77673000D01*
X132312147Y-77676921D01*
G37*
G36*
X86354228Y-77108903D02*
G01*
X86509100Y-77173053D01*
X86648481Y-77266185D01*
X86767015Y-77384719D01*
X86860147Y-77524100D01*
X86924297Y-77678972D01*
X86957000Y-77843384D01*
X86957000Y-78011016D01*
X86924297Y-78175428D01*
X86860147Y-78330300D01*
X86767015Y-78469681D01*
X86648481Y-78588215D01*
X86509100Y-78681347D01*
X86354228Y-78745497D01*
X86189816Y-78778200D01*
X86022184Y-78778200D01*
X85857772Y-78745497D01*
X85702900Y-78681347D01*
X85563519Y-78588215D01*
X85444985Y-78469681D01*
X85351853Y-78330300D01*
X85287703Y-78175428D01*
X85255000Y-78011016D01*
X85255000Y-77843384D01*
X85287703Y-77678972D01*
X85351853Y-77524100D01*
X85444985Y-77384719D01*
X85563519Y-77266185D01*
X85702900Y-77173053D01*
X85857772Y-77108903D01*
X86022184Y-77076200D01*
X86189816Y-77076200D01*
X86354228Y-77108903D01*
G37*
G36*
X82645828Y-77007303D02*
G01*
X82800700Y-77071453D01*
X82940081Y-77164585D01*
X83058615Y-77283119D01*
X83151747Y-77422500D01*
X83215897Y-77577372D01*
X83248600Y-77741784D01*
X83248600Y-77909416D01*
X83215897Y-78073828D01*
X83151747Y-78228700D01*
X83058615Y-78368081D01*
X82940081Y-78486615D01*
X82800700Y-78579747D01*
X82645828Y-78643897D01*
X82481416Y-78676600D01*
X82313784Y-78676600D01*
X82149372Y-78643897D01*
X81994500Y-78579747D01*
X81855119Y-78486615D01*
X81736585Y-78368081D01*
X81643453Y-78228700D01*
X81579303Y-78073828D01*
X81546600Y-77909416D01*
X81546600Y-77741784D01*
X81579303Y-77577372D01*
X81643453Y-77422500D01*
X81736585Y-77283119D01*
X81855119Y-77164585D01*
X81994500Y-77071453D01*
X82149372Y-77007303D01*
X82313784Y-76974600D01*
X82481416Y-76974600D01*
X82645828Y-77007303D01*
G37*
G36*
X114040228Y-75127703D02*
G01*
X114195100Y-75191853D01*
X114334481Y-75284985D01*
X114453015Y-75403519D01*
X114546147Y-75542900D01*
X114610297Y-75697772D01*
X114643000Y-75862184D01*
X114643000Y-76029816D01*
X114610297Y-76194228D01*
X114546147Y-76349100D01*
X114453015Y-76488481D01*
X114334481Y-76607015D01*
X114195100Y-76700147D01*
X114040228Y-76764297D01*
X113875816Y-76797000D01*
X113708184Y-76797000D01*
X113543772Y-76764297D01*
X113388900Y-76700147D01*
X113249519Y-76607015D01*
X113130985Y-76488481D01*
X113037853Y-76349100D01*
X112973703Y-76194228D01*
X112941000Y-76029816D01*
X112941000Y-75862184D01*
X112973703Y-75697772D01*
X113037853Y-75542900D01*
X113130985Y-75403519D01*
X113249519Y-75284985D01*
X113388900Y-75191853D01*
X113543772Y-75127703D01*
X113708184Y-75095000D01*
X113875816Y-75095000D01*
X114040228Y-75127703D01*
G37*
G36*
X132312147Y-75136921D02*
G01*
X132391776Y-75144764D01*
X132545027Y-75191252D01*
X132545030Y-75191253D01*
X132686263Y-75266744D01*
X132810059Y-75368341D01*
X132911656Y-75492137D01*
X132987147Y-75633370D01*
X132987148Y-75633373D01*
X133033636Y-75786624D01*
X133049333Y-75946000D01*
X133033636Y-76105376D01*
X133006683Y-76194228D01*
X132987147Y-76258630D01*
X132911656Y-76399863D01*
X132810059Y-76523659D01*
X132686263Y-76625256D01*
X132545030Y-76700747D01*
X132545027Y-76700748D01*
X132391776Y-76747236D01*
X132312147Y-76755079D01*
X132272334Y-76759000D01*
X130668466Y-76759000D01*
X130628653Y-76755079D01*
X130549024Y-76747236D01*
X130395773Y-76700748D01*
X130395770Y-76700747D01*
X130254537Y-76625256D01*
X130130741Y-76523659D01*
X130029144Y-76399863D01*
X129953653Y-76258630D01*
X129934117Y-76194228D01*
X129907164Y-76105376D01*
X129891467Y-75946000D01*
X129907164Y-75786624D01*
X129953652Y-75633373D01*
X129953653Y-75633370D01*
X130029144Y-75492137D01*
X130130741Y-75368341D01*
X130254537Y-75266744D01*
X130395770Y-75191253D01*
X130395773Y-75191252D01*
X130549024Y-75144764D01*
X130628653Y-75136921D01*
X130668466Y-75133000D01*
X132272334Y-75133000D01*
X132312147Y-75136921D01*
G37*
G36*
X124120259Y-68416660D02*
G01*
X124256932Y-68473272D01*
X124379935Y-68555460D01*
X124484540Y-68660065D01*
X124566728Y-68783068D01*
X124623340Y-68919741D01*
X124652200Y-69064833D01*
X124652200Y-69212767D01*
X124623340Y-69357859D01*
X124566728Y-69494532D01*
X124484540Y-69617535D01*
X124379935Y-69722140D01*
X124256932Y-69804328D01*
X124256931Y-69804329D01*
X124256930Y-69804329D01*
X124120259Y-69860940D01*
X123975168Y-69889800D01*
X123827232Y-69889800D01*
X123682141Y-69860940D01*
X123545470Y-69804329D01*
X123545469Y-69804329D01*
X123545468Y-69804328D01*
X123422465Y-69722140D01*
X123317860Y-69617535D01*
X123235672Y-69494532D01*
X123179060Y-69357859D01*
X123150200Y-69212767D01*
X123150200Y-69064833D01*
X123179060Y-68919741D01*
X123235672Y-68783068D01*
X123317860Y-68660065D01*
X123422465Y-68555460D01*
X123545468Y-68473272D01*
X123682141Y-68416660D01*
X123827232Y-68387800D01*
X123975168Y-68387800D01*
X124120259Y-68416660D01*
G37*
G36*
X121580259Y-68416660D02*
G01*
X121716932Y-68473272D01*
X121839935Y-68555460D01*
X121944540Y-68660065D01*
X122026728Y-68783068D01*
X122083340Y-68919741D01*
X122112200Y-69064833D01*
X122112200Y-69212767D01*
X122083340Y-69357859D01*
X122026728Y-69494532D01*
X121944540Y-69617535D01*
X121839935Y-69722140D01*
X121716932Y-69804328D01*
X121716931Y-69804329D01*
X121716930Y-69804329D01*
X121580259Y-69860940D01*
X121435168Y-69889800D01*
X121287232Y-69889800D01*
X121142141Y-69860940D01*
X121005470Y-69804329D01*
X121005469Y-69804329D01*
X121005468Y-69804328D01*
X120882465Y-69722140D01*
X120777860Y-69617535D01*
X120695672Y-69494532D01*
X120639060Y-69357859D01*
X120610200Y-69212767D01*
X120610200Y-69064833D01*
X120639060Y-68919741D01*
X120695672Y-68783068D01*
X120777860Y-68660065D01*
X120882465Y-68555460D01*
X121005468Y-68473272D01*
X121142141Y-68416660D01*
X121287232Y-68387800D01*
X121435168Y-68387800D01*
X121580259Y-68416660D01*
G37*
G36*
X86354228Y-66948903D02*
G01*
X86509100Y-67013053D01*
X86648481Y-67106185D01*
X86767015Y-67224719D01*
X86860147Y-67364100D01*
X86924297Y-67518972D01*
X86957000Y-67683384D01*
X86957000Y-67851016D01*
X86924297Y-68015428D01*
X86860147Y-68170300D01*
X86767015Y-68309681D01*
X86648481Y-68428215D01*
X86509100Y-68521347D01*
X86354228Y-68585497D01*
X86189816Y-68618200D01*
X86022184Y-68618200D01*
X85857772Y-68585497D01*
X85702900Y-68521347D01*
X85563519Y-68428215D01*
X85444985Y-68309681D01*
X85351853Y-68170300D01*
X85287703Y-68015428D01*
X85255000Y-67851016D01*
X85255000Y-67683384D01*
X85287703Y-67518972D01*
X85351853Y-67364100D01*
X85444985Y-67224719D01*
X85563519Y-67106185D01*
X85702900Y-67013053D01*
X85857772Y-66948903D01*
X86022184Y-66916200D01*
X86189816Y-66916200D01*
X86354228Y-66948903D01*
G37*
G36*
X82645828Y-66847303D02*
G01*
X82800700Y-66911453D01*
X82940081Y-67004585D01*
X83058615Y-67123119D01*
X83151747Y-67262500D01*
X83215897Y-67417372D01*
X83248600Y-67581784D01*
X83248600Y-67749416D01*
X83215897Y-67913828D01*
X83151747Y-68068700D01*
X83058615Y-68208081D01*
X82940081Y-68326615D01*
X82800700Y-68419747D01*
X82645828Y-68483897D01*
X82481416Y-68516600D01*
X82313784Y-68516600D01*
X82149372Y-68483897D01*
X81994500Y-68419747D01*
X81855119Y-68326615D01*
X81736585Y-68208081D01*
X81643453Y-68068700D01*
X81579303Y-67913828D01*
X81546600Y-67749416D01*
X81546600Y-67581784D01*
X81579303Y-67417372D01*
X81643453Y-67262500D01*
X81736585Y-67123119D01*
X81855119Y-67004585D01*
X81994500Y-66911453D01*
X82149372Y-66847303D01*
X82313784Y-66814600D01*
X82481416Y-66814600D01*
X82645828Y-66847303D01*
G37*
G36*
X134200200Y-65315400D02*
G01*
X132398200Y-65315400D01*
X132398200Y-63513400D01*
X134200200Y-63513400D01*
X134200200Y-65315400D01*
G37*
G36*
X115311842Y-62464242D02*
G01*
X115459801Y-62525529D01*
X115592955Y-62614499D01*
X115706201Y-62727745D01*
X115795171Y-62860899D01*
X115856458Y-63008858D01*
X115887700Y-63165925D01*
X115887700Y-63326075D01*
X115856458Y-63483142D01*
X115795171Y-63631101D01*
X115706201Y-63764255D01*
X115592955Y-63877501D01*
X115459801Y-63966471D01*
X115311842Y-64027758D01*
X115154775Y-64059000D01*
X114994625Y-64059000D01*
X114837558Y-64027758D01*
X114689599Y-63966471D01*
X114556445Y-63877501D01*
X114443199Y-63764255D01*
X114354229Y-63631101D01*
X114292942Y-63483142D01*
X114261700Y-63326075D01*
X114261700Y-63165925D01*
X114292942Y-63008858D01*
X114354229Y-62860899D01*
X114443199Y-62727745D01*
X114556445Y-62614499D01*
X114689599Y-62525529D01*
X114837558Y-62464242D01*
X114994625Y-62433000D01*
X115154775Y-62433000D01*
X115311842Y-62464242D01*
G37*
G36*
X91372342Y-62464242D02*
G01*
X91520301Y-62525529D01*
X91653455Y-62614499D01*
X91766701Y-62727745D01*
X91855671Y-62860899D01*
X91916958Y-63008858D01*
X91948200Y-63165925D01*
X91948200Y-63326075D01*
X91916958Y-63483142D01*
X91855671Y-63631101D01*
X91766701Y-63764255D01*
X91653455Y-63877501D01*
X91520301Y-63966471D01*
X91372342Y-64027758D01*
X91215275Y-64059000D01*
X91055125Y-64059000D01*
X90898058Y-64027758D01*
X90750099Y-63966471D01*
X90616945Y-63877501D01*
X90503699Y-63764255D01*
X90414729Y-63631101D01*
X90353442Y-63483142D01*
X90322200Y-63326075D01*
X90322200Y-63165925D01*
X90353442Y-63008858D01*
X90414729Y-62860899D01*
X90503699Y-62727745D01*
X90616945Y-62614499D01*
X90750099Y-62525529D01*
X90898058Y-62464242D01*
X91055125Y-62433000D01*
X91215275Y-62433000D01*
X91372342Y-62464242D01*
G37*
G36*
X133412712Y-60978327D02*
G01*
X133562012Y-61008024D01*
X133725984Y-61075944D01*
X133873554Y-61174547D01*
X133999053Y-61300046D01*
X134097656Y-61447616D01*
X134165576Y-61611588D01*
X134200200Y-61785659D01*
X134200200Y-61963141D01*
X134165576Y-62137212D01*
X134097656Y-62301184D01*
X133999053Y-62448754D01*
X133873554Y-62574253D01*
X133725984Y-62672856D01*
X133562012Y-62740776D01*
X133412712Y-62770473D01*
X133387942Y-62775400D01*
X133210458Y-62775400D01*
X133185688Y-62770473D01*
X133036388Y-62740776D01*
X132872416Y-62672856D01*
X132724846Y-62574253D01*
X132599347Y-62448754D01*
X132500744Y-62301184D01*
X132432824Y-62137212D01*
X132398200Y-61963141D01*
X132398200Y-61785659D01*
X132432824Y-61611588D01*
X132500744Y-61447616D01*
X132599347Y-61300046D01*
X132724846Y-61174547D01*
X132872416Y-61075944D01*
X133036388Y-61008024D01*
X133185688Y-60978327D01*
X133210458Y-60973400D01*
X133387942Y-60973400D01*
X133412712Y-60978327D01*
G37*
G36*
X91372342Y-59924242D02*
G01*
X91520301Y-59985529D01*
X91653455Y-60074499D01*
X91766701Y-60187745D01*
X91855671Y-60320899D01*
X91916958Y-60468858D01*
X91948200Y-60625925D01*
X91948200Y-60786075D01*
X91916958Y-60943142D01*
X91855671Y-61091101D01*
X91766701Y-61224255D01*
X91653455Y-61337501D01*
X91520301Y-61426471D01*
X91372342Y-61487758D01*
X91215275Y-61519000D01*
X91055125Y-61519000D01*
X90898058Y-61487758D01*
X90750099Y-61426471D01*
X90616945Y-61337501D01*
X90503699Y-61224255D01*
X90414729Y-61091101D01*
X90353442Y-60943142D01*
X90322200Y-60786075D01*
X90322200Y-60625925D01*
X90353442Y-60468858D01*
X90414729Y-60320899D01*
X90503699Y-60187745D01*
X90616945Y-60074499D01*
X90750099Y-59985529D01*
X90898058Y-59924242D01*
X91055125Y-59893000D01*
X91215275Y-59893000D01*
X91372342Y-59924242D01*
G37*
G36*
X115311842Y-59924242D02*
G01*
X115459801Y-59985529D01*
X115592955Y-60074499D01*
X115706201Y-60187745D01*
X115795171Y-60320899D01*
X115856458Y-60468858D01*
X115887700Y-60625925D01*
X115887700Y-60786075D01*
X115856458Y-60943142D01*
X115795171Y-61091101D01*
X115706201Y-61224255D01*
X115592955Y-61337501D01*
X115459801Y-61426471D01*
X115311842Y-61487758D01*
X115154775Y-61519000D01*
X114994625Y-61519000D01*
X114837558Y-61487758D01*
X114689599Y-61426471D01*
X114556445Y-61337501D01*
X114443199Y-61224255D01*
X114354229Y-61091101D01*
X114292942Y-60943142D01*
X114261700Y-60786075D01*
X114261700Y-60625925D01*
X114292942Y-60468858D01*
X114354229Y-60320899D01*
X114443199Y-60187745D01*
X114556445Y-60074499D01*
X114689599Y-59985529D01*
X114837558Y-59924242D01*
X114994625Y-59893000D01*
X115154775Y-59893000D01*
X115311842Y-59924242D01*
G37*
G36*
X133412712Y-58438327D02*
G01*
X133562012Y-58468024D01*
X133725984Y-58535944D01*
X133873554Y-58634547D01*
X133999053Y-58760046D01*
X134097656Y-58907616D01*
X134165576Y-59071588D01*
X134191289Y-59200859D01*
X134200200Y-59245658D01*
X134200200Y-59423142D01*
X134195273Y-59447912D01*
X134165576Y-59597212D01*
X134097656Y-59761184D01*
X133999053Y-59908754D01*
X133873554Y-60034253D01*
X133725984Y-60132856D01*
X133562012Y-60200776D01*
X133412712Y-60230473D01*
X133387942Y-60235400D01*
X133210458Y-60235400D01*
X133185688Y-60230473D01*
X133036388Y-60200776D01*
X132872416Y-60132856D01*
X132724846Y-60034253D01*
X132599347Y-59908754D01*
X132500744Y-59761184D01*
X132432824Y-59597212D01*
X132403127Y-59447912D01*
X132398200Y-59423142D01*
X132398200Y-59245658D01*
X132407111Y-59200859D01*
X132432824Y-59071588D01*
X132500744Y-58907616D01*
X132599347Y-58760046D01*
X132724846Y-58634547D01*
X132872416Y-58535944D01*
X133036388Y-58468024D01*
X133185688Y-58438327D01*
X133210458Y-58433400D01*
X133387942Y-58433400D01*
X133412712Y-58438327D01*
G37*
G36*
X83086947Y-57814121D02*
G01*
X83166576Y-57821964D01*
X83319827Y-57868452D01*
X83319830Y-57868453D01*
X83461063Y-57943944D01*
X83584859Y-58045541D01*
X83686456Y-58169337D01*
X83761947Y-58310570D01*
X83761948Y-58310573D01*
X83808436Y-58463824D01*
X83824133Y-58623200D01*
X83808436Y-58782576D01*
X83770505Y-58907618D01*
X83761947Y-58935830D01*
X83686456Y-59077063D01*
X83584859Y-59200859D01*
X83461063Y-59302456D01*
X83319830Y-59377947D01*
X83319827Y-59377948D01*
X83166576Y-59424436D01*
X83086947Y-59432279D01*
X83047134Y-59436200D01*
X81443266Y-59436200D01*
X81403453Y-59432279D01*
X81323824Y-59424436D01*
X81170573Y-59377948D01*
X81170570Y-59377947D01*
X81029337Y-59302456D01*
X80905541Y-59200859D01*
X80803944Y-59077063D01*
X80728453Y-58935830D01*
X80719895Y-58907618D01*
X80681964Y-58782576D01*
X80666267Y-58623200D01*
X80681964Y-58463824D01*
X80728452Y-58310573D01*
X80728453Y-58310570D01*
X80803944Y-58169337D01*
X80905541Y-58045541D01*
X81029337Y-57943944D01*
X81170570Y-57868453D01*
X81170573Y-57868452D01*
X81323824Y-57821964D01*
X81403453Y-57814121D01*
X81443266Y-57810200D01*
X83047134Y-57810200D01*
X83086947Y-57814121D01*
G37*
G36*
X115311842Y-57384242D02*
G01*
X115459801Y-57445529D01*
X115592955Y-57534499D01*
X115706201Y-57647745D01*
X115795171Y-57780899D01*
X115856458Y-57928858D01*
X115887700Y-58085925D01*
X115887700Y-58246075D01*
X115856458Y-58403142D01*
X115795171Y-58551101D01*
X115706201Y-58684255D01*
X115592955Y-58797501D01*
X115459801Y-58886471D01*
X115311842Y-58947758D01*
X115154775Y-58979000D01*
X114994625Y-58979000D01*
X114837558Y-58947758D01*
X114689599Y-58886471D01*
X114556445Y-58797501D01*
X114443199Y-58684255D01*
X114354229Y-58551101D01*
X114292942Y-58403142D01*
X114261700Y-58246075D01*
X114261700Y-58085925D01*
X114292942Y-57928858D01*
X114354229Y-57780899D01*
X114443199Y-57647745D01*
X114556445Y-57534499D01*
X114689599Y-57445529D01*
X114837558Y-57384242D01*
X114994625Y-57353000D01*
X115154775Y-57353000D01*
X115311842Y-57384242D01*
G37*
G36*
X91372342Y-57384242D02*
G01*
X91520301Y-57445529D01*
X91653455Y-57534499D01*
X91766701Y-57647745D01*
X91855671Y-57780899D01*
X91916958Y-57928858D01*
X91948200Y-58085925D01*
X91948200Y-58246075D01*
X91916958Y-58403142D01*
X91855671Y-58551101D01*
X91766701Y-58684255D01*
X91653455Y-58797501D01*
X91520301Y-58886471D01*
X91372342Y-58947758D01*
X91215275Y-58979000D01*
X91055125Y-58979000D01*
X90898058Y-58947758D01*
X90750099Y-58886471D01*
X90616945Y-58797501D01*
X90503699Y-58684255D01*
X90414729Y-58551101D01*
X90353442Y-58403142D01*
X90322200Y-58246075D01*
X90322200Y-58085925D01*
X90353442Y-57928858D01*
X90414729Y-57780899D01*
X90503699Y-57647745D01*
X90616945Y-57534499D01*
X90750099Y-57445529D01*
X90898058Y-57384242D01*
X91055125Y-57353000D01*
X91215275Y-57353000D01*
X91372342Y-57384242D01*
G37*
G36*
X133412712Y-55898327D02*
G01*
X133562012Y-55928024D01*
X133725984Y-55995944D01*
X133873554Y-56094547D01*
X133999053Y-56220046D01*
X134097656Y-56367616D01*
X134165576Y-56531588D01*
X134191289Y-56660859D01*
X134200200Y-56705658D01*
X134200200Y-56883142D01*
X134195273Y-56907912D01*
X134165576Y-57057212D01*
X134097656Y-57221184D01*
X133999053Y-57368754D01*
X133873554Y-57494253D01*
X133725984Y-57592856D01*
X133562012Y-57660776D01*
X133412712Y-57690473D01*
X133387942Y-57695400D01*
X133210458Y-57695400D01*
X133185688Y-57690473D01*
X133036388Y-57660776D01*
X132872416Y-57592856D01*
X132724846Y-57494253D01*
X132599347Y-57368754D01*
X132500744Y-57221184D01*
X132432824Y-57057212D01*
X132403127Y-56907912D01*
X132398200Y-56883142D01*
X132398200Y-56705658D01*
X132407111Y-56660859D01*
X132432824Y-56531588D01*
X132500744Y-56367616D01*
X132599347Y-56220046D01*
X132724846Y-56094547D01*
X132872416Y-55995944D01*
X133036388Y-55928024D01*
X133185688Y-55898327D01*
X133210458Y-55893400D01*
X133387942Y-55893400D01*
X133412712Y-55898327D01*
G37*
G36*
X83086947Y-55274121D02*
G01*
X83166576Y-55281964D01*
X83319827Y-55328452D01*
X83319830Y-55328453D01*
X83461063Y-55403944D01*
X83584859Y-55505541D01*
X83686456Y-55629337D01*
X83761947Y-55770570D01*
X83761948Y-55770573D01*
X83808436Y-55923824D01*
X83824133Y-56083200D01*
X83808436Y-56242576D01*
X83770505Y-56367618D01*
X83761947Y-56395830D01*
X83686456Y-56537063D01*
X83584859Y-56660859D01*
X83461063Y-56762456D01*
X83319830Y-56837947D01*
X83319827Y-56837948D01*
X83166576Y-56884436D01*
X83086947Y-56892279D01*
X83047134Y-56896200D01*
X81443266Y-56896200D01*
X81403453Y-56892279D01*
X81323824Y-56884436D01*
X81170573Y-56837948D01*
X81170570Y-56837947D01*
X81029337Y-56762456D01*
X80905541Y-56660859D01*
X80803944Y-56537063D01*
X80728453Y-56395830D01*
X80719895Y-56367618D01*
X80681964Y-56242576D01*
X80666267Y-56083200D01*
X80681964Y-55923824D01*
X80728452Y-55770573D01*
X80728453Y-55770570D01*
X80803944Y-55629337D01*
X80905541Y-55505541D01*
X81029337Y-55403944D01*
X81170570Y-55328453D01*
X81170573Y-55328452D01*
X81323824Y-55281964D01*
X81403453Y-55274121D01*
X81443266Y-55270200D01*
X83047134Y-55270200D01*
X83086947Y-55274121D01*
G37*
G36*
X115311842Y-54844242D02*
G01*
X115459801Y-54905529D01*
X115592955Y-54994499D01*
X115706201Y-55107745D01*
X115795171Y-55240899D01*
X115856458Y-55388858D01*
X115887700Y-55545925D01*
X115887700Y-55706075D01*
X115856458Y-55863142D01*
X115795171Y-56011101D01*
X115706201Y-56144255D01*
X115592955Y-56257501D01*
X115459801Y-56346471D01*
X115311842Y-56407758D01*
X115154775Y-56439000D01*
X114994625Y-56439000D01*
X114837558Y-56407758D01*
X114689599Y-56346471D01*
X114556445Y-56257501D01*
X114443199Y-56144255D01*
X114354229Y-56011101D01*
X114292942Y-55863142D01*
X114261700Y-55706075D01*
X114261700Y-55545925D01*
X114292942Y-55388858D01*
X114354229Y-55240899D01*
X114443199Y-55107745D01*
X114556445Y-54994499D01*
X114689599Y-54905529D01*
X114837558Y-54844242D01*
X114994625Y-54813000D01*
X115154775Y-54813000D01*
X115311842Y-54844242D01*
G37*
G36*
X91372342Y-54844242D02*
G01*
X91520301Y-54905529D01*
X91653455Y-54994499D01*
X91766701Y-55107745D01*
X91855671Y-55240899D01*
X91916958Y-55388858D01*
X91948200Y-55545925D01*
X91948200Y-55706075D01*
X91916958Y-55863142D01*
X91855671Y-56011101D01*
X91766701Y-56144255D01*
X91653455Y-56257501D01*
X91520301Y-56346471D01*
X91372342Y-56407758D01*
X91215275Y-56439000D01*
X91055125Y-56439000D01*
X90898058Y-56407758D01*
X90750099Y-56346471D01*
X90616945Y-56257501D01*
X90503699Y-56144255D01*
X90414729Y-56011101D01*
X90353442Y-55863142D01*
X90322200Y-55706075D01*
X90322200Y-55545925D01*
X90353442Y-55388858D01*
X90414729Y-55240899D01*
X90503699Y-55107745D01*
X90616945Y-54994499D01*
X90750099Y-54905529D01*
X90898058Y-54844242D01*
X91055125Y-54813000D01*
X91215275Y-54813000D01*
X91372342Y-54844242D01*
G37*
G36*
X83086947Y-52734121D02*
G01*
X83166576Y-52741964D01*
X83319827Y-52788452D01*
X83319830Y-52788453D01*
X83461063Y-52863944D01*
X83584859Y-52965541D01*
X83686456Y-53089337D01*
X83761947Y-53230570D01*
X83761948Y-53230573D01*
X83808436Y-53383824D01*
X83824133Y-53543200D01*
X83808436Y-53702576D01*
X83776920Y-53806471D01*
X83761947Y-53855830D01*
X83686456Y-53997063D01*
X83584859Y-54120859D01*
X83461063Y-54222456D01*
X83319830Y-54297947D01*
X83319827Y-54297948D01*
X83166576Y-54344436D01*
X83086947Y-54352279D01*
X83047134Y-54356200D01*
X81443266Y-54356200D01*
X81403453Y-54352279D01*
X81323824Y-54344436D01*
X81170573Y-54297948D01*
X81170570Y-54297947D01*
X81029337Y-54222456D01*
X80905541Y-54120859D01*
X80803944Y-53997063D01*
X80728453Y-53855830D01*
X80713480Y-53806471D01*
X80681964Y-53702576D01*
X80666267Y-53543200D01*
X80681964Y-53383824D01*
X80728452Y-53230573D01*
X80728453Y-53230570D01*
X80803944Y-53089337D01*
X80905541Y-52965541D01*
X81029337Y-52863944D01*
X81170570Y-52788453D01*
X81170573Y-52788452D01*
X81323824Y-52741964D01*
X81403453Y-52734121D01*
X81443266Y-52730200D01*
X83047134Y-52730200D01*
X83086947Y-52734121D01*
G37*
G36*
X91372342Y-52304242D02*
G01*
X91520301Y-52365529D01*
X91653455Y-52454499D01*
X91766701Y-52567745D01*
X91855671Y-52700899D01*
X91916958Y-52848858D01*
X91948200Y-53005925D01*
X91948200Y-53166075D01*
X91916958Y-53323142D01*
X91855671Y-53471101D01*
X91766701Y-53604255D01*
X91653455Y-53717501D01*
X91520301Y-53806471D01*
X91372342Y-53867758D01*
X91215275Y-53899000D01*
X91055125Y-53899000D01*
X90898058Y-53867758D01*
X90750099Y-53806471D01*
X90616945Y-53717501D01*
X90503699Y-53604255D01*
X90414729Y-53471101D01*
X90353442Y-53323142D01*
X90322200Y-53166075D01*
X90322200Y-53005925D01*
X90353442Y-52848858D01*
X90414729Y-52700899D01*
X90503699Y-52567745D01*
X90616945Y-52454499D01*
X90750099Y-52365529D01*
X90898058Y-52304242D01*
X91055125Y-52273000D01*
X91215275Y-52273000D01*
X91372342Y-52304242D01*
G37*
G36*
X115311842Y-52304242D02*
G01*
X115459801Y-52365529D01*
X115592955Y-52454499D01*
X115706201Y-52567745D01*
X115795171Y-52700899D01*
X115856458Y-52848858D01*
X115887700Y-53005925D01*
X115887700Y-53166075D01*
X115856458Y-53323142D01*
X115795171Y-53471101D01*
X115706201Y-53604255D01*
X115592955Y-53717501D01*
X115459801Y-53806471D01*
X115311842Y-53867758D01*
X115154775Y-53899000D01*
X114994625Y-53899000D01*
X114837558Y-53867758D01*
X114689599Y-53806471D01*
X114556445Y-53717501D01*
X114443199Y-53604255D01*
X114354229Y-53471101D01*
X114292942Y-53323142D01*
X114261700Y-53166075D01*
X114261700Y-53005925D01*
X114292942Y-52848858D01*
X114354229Y-52700899D01*
X114443199Y-52567745D01*
X114556445Y-52454499D01*
X114689599Y-52365529D01*
X114837558Y-52304242D01*
X114994625Y-52273000D01*
X115154775Y-52273000D01*
X115311842Y-52304242D01*
G37*
G36*
X115311842Y-49764242D02*
G01*
X115459801Y-49825529D01*
X115592955Y-49914499D01*
X115706201Y-50027745D01*
X115795171Y-50160899D01*
X115856458Y-50308858D01*
X115887700Y-50465925D01*
X115887700Y-50626075D01*
X115856458Y-50783142D01*
X115795171Y-50931101D01*
X115706201Y-51064255D01*
X115592955Y-51177501D01*
X115459801Y-51266471D01*
X115311842Y-51327758D01*
X115154775Y-51359000D01*
X114994625Y-51359000D01*
X114837558Y-51327758D01*
X114689599Y-51266471D01*
X114556445Y-51177501D01*
X114443199Y-51064255D01*
X114354229Y-50931101D01*
X114292942Y-50783142D01*
X114261700Y-50626075D01*
X114261700Y-50465925D01*
X114292942Y-50308858D01*
X114354229Y-50160899D01*
X114443199Y-50027745D01*
X114556445Y-49914499D01*
X114689599Y-49825529D01*
X114837558Y-49764242D01*
X114994625Y-49733000D01*
X115154775Y-49733000D01*
X115311842Y-49764242D01*
G37*
G36*
X91372342Y-49764242D02*
G01*
X91520301Y-49825529D01*
X91653455Y-49914499D01*
X91766701Y-50027745D01*
X91855671Y-50160899D01*
X91916958Y-50308858D01*
X91948200Y-50465925D01*
X91948200Y-50626075D01*
X91916958Y-50783142D01*
X91855671Y-50931101D01*
X91766701Y-51064255D01*
X91653455Y-51177501D01*
X91520301Y-51266471D01*
X91372342Y-51327758D01*
X91215275Y-51359000D01*
X91055125Y-51359000D01*
X90898058Y-51327758D01*
X90750099Y-51266471D01*
X90616945Y-51177501D01*
X90503699Y-51064255D01*
X90414729Y-50931101D01*
X90353442Y-50783142D01*
X90322200Y-50626075D01*
X90322200Y-50465925D01*
X90353442Y-50308858D01*
X90414729Y-50160899D01*
X90503699Y-50027745D01*
X90616945Y-49914499D01*
X90750099Y-49825529D01*
X90898058Y-49764242D01*
X91055125Y-49733000D01*
X91215275Y-49733000D01*
X91372342Y-49764242D01*
G37*
G36*
X133463512Y-48176727D02*
G01*
X133612812Y-48206424D01*
X133776784Y-48274344D01*
X133924354Y-48372947D01*
X134049853Y-48498446D01*
X134148456Y-48646016D01*
X134216376Y-48809988D01*
X134251000Y-48984059D01*
X134251000Y-49161541D01*
X134216376Y-49335612D01*
X134148456Y-49499584D01*
X134049853Y-49647154D01*
X133924354Y-49772653D01*
X133776784Y-49871256D01*
X133612812Y-49939176D01*
X133463512Y-49968873D01*
X133438742Y-49973800D01*
X133261258Y-49973800D01*
X133236488Y-49968873D01*
X133087188Y-49939176D01*
X132923216Y-49871256D01*
X132775646Y-49772653D01*
X132650147Y-49647154D01*
X132551544Y-49499584D01*
X132483624Y-49335612D01*
X132449000Y-49161541D01*
X132449000Y-48984059D01*
X132483624Y-48809988D01*
X132551544Y-48646016D01*
X132650147Y-48498446D01*
X132775646Y-48372947D01*
X132923216Y-48274344D01*
X133087188Y-48206424D01*
X133236488Y-48176727D01*
X133261258Y-48171800D01*
X133438742Y-48171800D01*
X133463512Y-48176727D01*
G37*
G36*
X91372342Y-47224242D02*
G01*
X91520301Y-47285529D01*
X91653455Y-47374499D01*
X91766701Y-47487745D01*
X91855671Y-47620899D01*
X91916958Y-47768858D01*
X91948200Y-47925925D01*
X91948200Y-48086075D01*
X91916958Y-48243142D01*
X91855671Y-48391101D01*
X91766701Y-48524255D01*
X91653455Y-48637501D01*
X91520301Y-48726471D01*
X91372342Y-48787758D01*
X91215275Y-48819000D01*
X91055125Y-48819000D01*
X90898058Y-48787758D01*
X90750099Y-48726471D01*
X90616945Y-48637501D01*
X90503699Y-48524255D01*
X90414729Y-48391101D01*
X90353442Y-48243142D01*
X90322200Y-48086075D01*
X90322200Y-47925925D01*
X90353442Y-47768858D01*
X90414729Y-47620899D01*
X90503699Y-47487745D01*
X90616945Y-47374499D01*
X90750099Y-47285529D01*
X90898058Y-47224242D01*
X91055125Y-47193000D01*
X91215275Y-47193000D01*
X91372342Y-47224242D01*
G37*
G36*
X115311842Y-47224242D02*
G01*
X115459801Y-47285529D01*
X115592955Y-47374499D01*
X115706201Y-47487745D01*
X115795171Y-47620899D01*
X115856458Y-47768858D01*
X115887700Y-47925925D01*
X115887700Y-48086075D01*
X115856458Y-48243142D01*
X115795171Y-48391101D01*
X115706201Y-48524255D01*
X115592955Y-48637501D01*
X115459801Y-48726471D01*
X115311842Y-48787758D01*
X115154775Y-48819000D01*
X114994625Y-48819000D01*
X114837558Y-48787758D01*
X114689599Y-48726471D01*
X114556445Y-48637501D01*
X114443199Y-48524255D01*
X114354229Y-48391101D01*
X114292942Y-48243142D01*
X114261700Y-48086075D01*
X114261700Y-47925925D01*
X114292942Y-47768858D01*
X114354229Y-47620899D01*
X114443199Y-47487745D01*
X114556445Y-47374499D01*
X114689599Y-47285529D01*
X114837558Y-47224242D01*
X114994625Y-47193000D01*
X115154775Y-47193000D01*
X115311842Y-47224242D01*
G37*
G36*
X133463512Y-45636727D02*
G01*
X133612812Y-45666424D01*
X133776784Y-45734344D01*
X133924354Y-45832947D01*
X134049853Y-45958446D01*
X134148456Y-46106016D01*
X134216376Y-46269988D01*
X134251000Y-46444059D01*
X134251000Y-46621541D01*
X134216376Y-46795612D01*
X134148456Y-46959584D01*
X134049853Y-47107154D01*
X133924354Y-47232653D01*
X133776784Y-47331256D01*
X133612812Y-47399176D01*
X133463512Y-47428873D01*
X133438742Y-47433800D01*
X133261258Y-47433800D01*
X133236488Y-47428873D01*
X133087188Y-47399176D01*
X132923216Y-47331256D01*
X132775646Y-47232653D01*
X132650147Y-47107154D01*
X132551544Y-46959584D01*
X132483624Y-46795612D01*
X132449000Y-46621541D01*
X132449000Y-46444059D01*
X132483624Y-46269988D01*
X132551544Y-46106016D01*
X132650147Y-45958446D01*
X132775646Y-45832947D01*
X132923216Y-45734344D01*
X133087188Y-45666424D01*
X133236488Y-45636727D01*
X133261258Y-45631800D01*
X133438742Y-45631800D01*
X133463512Y-45636727D01*
G37*
G36*
X91372342Y-44684242D02*
G01*
X91520301Y-44745529D01*
X91653455Y-44834499D01*
X91766701Y-44947745D01*
X91855671Y-45080899D01*
X91916958Y-45228858D01*
X91948200Y-45385925D01*
X91948200Y-45546075D01*
X91916958Y-45703142D01*
X91855671Y-45851101D01*
X91766701Y-45984255D01*
X91653455Y-46097501D01*
X91520301Y-46186471D01*
X91372342Y-46247758D01*
X91215275Y-46279000D01*
X91055125Y-46279000D01*
X90898058Y-46247758D01*
X90750099Y-46186471D01*
X90616945Y-46097501D01*
X90503699Y-45984255D01*
X90414729Y-45851101D01*
X90353442Y-45703142D01*
X90322200Y-45546075D01*
X90322200Y-45385925D01*
X90353442Y-45228858D01*
X90414729Y-45080899D01*
X90503699Y-44947745D01*
X90616945Y-44834499D01*
X90750099Y-44745529D01*
X90898058Y-44684242D01*
X91055125Y-44653000D01*
X91215275Y-44653000D01*
X91372342Y-44684242D01*
G37*
G36*
X115311842Y-44684242D02*
G01*
X115459801Y-44745529D01*
X115592955Y-44834499D01*
X115706201Y-44947745D01*
X115795171Y-45080899D01*
X115856458Y-45228858D01*
X115887700Y-45385925D01*
X115887700Y-45546075D01*
X115856458Y-45703142D01*
X115795171Y-45851101D01*
X115706201Y-45984255D01*
X115592955Y-46097501D01*
X115459801Y-46186471D01*
X115311842Y-46247758D01*
X115154775Y-46279000D01*
X114994625Y-46279000D01*
X114837558Y-46247758D01*
X114689599Y-46186471D01*
X114556445Y-46097501D01*
X114443199Y-45984255D01*
X114354229Y-45851101D01*
X114292942Y-45703142D01*
X114261700Y-45546075D01*
X114261700Y-45385925D01*
X114292942Y-45228858D01*
X114354229Y-45080899D01*
X114443199Y-44947745D01*
X114556445Y-44834499D01*
X114689599Y-44745529D01*
X114837558Y-44684242D01*
X114994625Y-44653000D01*
X115154775Y-44653000D01*
X115311842Y-44684242D01*
G37*
G36*
X133463512Y-43096727D02*
G01*
X133612812Y-43126424D01*
X133776784Y-43194344D01*
X133924354Y-43292947D01*
X134049853Y-43418446D01*
X134148456Y-43566016D01*
X134216376Y-43729988D01*
X134251000Y-43904059D01*
X134251000Y-44081541D01*
X134216376Y-44255612D01*
X134148456Y-44419584D01*
X134049853Y-44567154D01*
X133924354Y-44692653D01*
X133776784Y-44791256D01*
X133612812Y-44859176D01*
X133463512Y-44888873D01*
X133438742Y-44893800D01*
X133261258Y-44893800D01*
X133236488Y-44888873D01*
X133087188Y-44859176D01*
X132923216Y-44791256D01*
X132775646Y-44692653D01*
X132650147Y-44567154D01*
X132551544Y-44419584D01*
X132483624Y-44255612D01*
X132449000Y-44081541D01*
X132449000Y-43904059D01*
X132483624Y-43729988D01*
X132551544Y-43566016D01*
X132650147Y-43418446D01*
X132775646Y-43292947D01*
X132923216Y-43194344D01*
X133087188Y-43126424D01*
X133236488Y-43096727D01*
X133261258Y-43091800D01*
X133438742Y-43091800D01*
X133463512Y-43096727D01*
G37*
G36*
X115311842Y-42144242D02*
G01*
X115459801Y-42205529D01*
X115592955Y-42294499D01*
X115706201Y-42407745D01*
X115795171Y-42540899D01*
X115856458Y-42688858D01*
X115887700Y-42845925D01*
X115887700Y-43006075D01*
X115856458Y-43163142D01*
X115795171Y-43311101D01*
X115706201Y-43444255D01*
X115592955Y-43557501D01*
X115459801Y-43646471D01*
X115311842Y-43707758D01*
X115154775Y-43739000D01*
X114994625Y-43739000D01*
X114837558Y-43707758D01*
X114689599Y-43646471D01*
X114556445Y-43557501D01*
X114443199Y-43444255D01*
X114354229Y-43311101D01*
X114292942Y-43163142D01*
X114261700Y-43006075D01*
X114261700Y-42845925D01*
X114292942Y-42688858D01*
X114354229Y-42540899D01*
X114443199Y-42407745D01*
X114556445Y-42294499D01*
X114689599Y-42205529D01*
X114837558Y-42144242D01*
X114994625Y-42113000D01*
X115154775Y-42113000D01*
X115311842Y-42144242D01*
G37*
G36*
X91372342Y-42144242D02*
G01*
X91520301Y-42205529D01*
X91653455Y-42294499D01*
X91766701Y-42407745D01*
X91855671Y-42540899D01*
X91916958Y-42688858D01*
X91948200Y-42845925D01*
X91948200Y-43006075D01*
X91916958Y-43163142D01*
X91855671Y-43311101D01*
X91766701Y-43444255D01*
X91653455Y-43557501D01*
X91520301Y-43646471D01*
X91372342Y-43707758D01*
X91215275Y-43739000D01*
X91055125Y-43739000D01*
X90898058Y-43707758D01*
X90750099Y-43646471D01*
X90616945Y-43557501D01*
X90503699Y-43444255D01*
X90414729Y-43311101D01*
X90353442Y-43163142D01*
X90322200Y-43006075D01*
X90322200Y-42845925D01*
X90353442Y-42688858D01*
X90414729Y-42540899D01*
X90503699Y-42407745D01*
X90616945Y-42294499D01*
X90750099Y-42205529D01*
X90898058Y-42144242D01*
X91055125Y-42113000D01*
X91215275Y-42113000D01*
X91372342Y-42144242D01*
G37*
G36*
X85632515Y-40861334D02*
G01*
X85665024Y-40871195D01*
X85694982Y-40887209D01*
X85721241Y-40908759D01*
X85742791Y-40935018D01*
X85758805Y-40964976D01*
X85768666Y-40997485D01*
X85772600Y-41037429D01*
X85772600Y-42579371D01*
X85768666Y-42619315D01*
X85758805Y-42651824D01*
X85742791Y-42681782D01*
X85721241Y-42708041D01*
X85694982Y-42729591D01*
X85665024Y-42745605D01*
X85632515Y-42755466D01*
X85592571Y-42759400D01*
X82250629Y-42759400D01*
X82210685Y-42755466D01*
X82178176Y-42745605D01*
X82148218Y-42729591D01*
X82121959Y-42708041D01*
X82100409Y-42681782D01*
X82084395Y-42651824D01*
X82074534Y-42619315D01*
X82070600Y-42579371D01*
X82070600Y-41037429D01*
X82074534Y-40997485D01*
X82084395Y-40964976D01*
X82100409Y-40935018D01*
X82121959Y-40908759D01*
X82148218Y-40887209D01*
X82178176Y-40871195D01*
X82210685Y-40861334D01*
X82250629Y-40857400D01*
X85592571Y-40857400D01*
X85632515Y-40861334D01*
G37*
G36*
X133463512Y-40556727D02*
G01*
X133612812Y-40586424D01*
X133776784Y-40654344D01*
X133924354Y-40752947D01*
X134049853Y-40878446D01*
X134148456Y-41026016D01*
X134216376Y-41189988D01*
X134251000Y-41364059D01*
X134251000Y-41541541D01*
X134216376Y-41715612D01*
X134148456Y-41879584D01*
X134049853Y-42027154D01*
X133924354Y-42152653D01*
X133776784Y-42251256D01*
X133612812Y-42319176D01*
X133463512Y-42348873D01*
X133438742Y-42353800D01*
X133261258Y-42353800D01*
X133236488Y-42348873D01*
X133087188Y-42319176D01*
X132923216Y-42251256D01*
X132775646Y-42152653D01*
X132650147Y-42027154D01*
X132551544Y-41879584D01*
X132483624Y-41715612D01*
X132449000Y-41541541D01*
X132449000Y-41364059D01*
X132483624Y-41189988D01*
X132551544Y-41026016D01*
X132650147Y-40878446D01*
X132775646Y-40752947D01*
X132923216Y-40654344D01*
X133087188Y-40586424D01*
X133236488Y-40556727D01*
X133261258Y-40551800D01*
X133438742Y-40551800D01*
X133463512Y-40556727D01*
G37*
G36*
X91372342Y-39604242D02*
G01*
X91520301Y-39665529D01*
X91653455Y-39754499D01*
X91766701Y-39867745D01*
X91855671Y-40000899D01*
X91916958Y-40148858D01*
X91948200Y-40305925D01*
X91948200Y-40466075D01*
X91916958Y-40623142D01*
X91855671Y-40771101D01*
X91766701Y-40904255D01*
X91653455Y-41017501D01*
X91520301Y-41106471D01*
X91372342Y-41167758D01*
X91215275Y-41199000D01*
X91055125Y-41199000D01*
X90898058Y-41167758D01*
X90750099Y-41106471D01*
X90616945Y-41017501D01*
X90503699Y-40904255D01*
X90414729Y-40771101D01*
X90353442Y-40623142D01*
X90322200Y-40466075D01*
X90322200Y-40305925D01*
X90353442Y-40148858D01*
X90414729Y-40000899D01*
X90503699Y-39867745D01*
X90616945Y-39754499D01*
X90750099Y-39665529D01*
X90898058Y-39604242D01*
X91055125Y-39573000D01*
X91215275Y-39573000D01*
X91372342Y-39604242D01*
G37*
G36*
X115311842Y-39540742D02*
G01*
X115459801Y-39602029D01*
X115592955Y-39690999D01*
X115706201Y-39804245D01*
X115795171Y-39937399D01*
X115856458Y-40085358D01*
X115887700Y-40242425D01*
X115887700Y-40402575D01*
X115856458Y-40559642D01*
X115795171Y-40707601D01*
X115706201Y-40840755D01*
X115592955Y-40954001D01*
X115459801Y-41042971D01*
X115311842Y-41104258D01*
X115154775Y-41135500D01*
X114994625Y-41135500D01*
X114837558Y-41104258D01*
X114689599Y-41042971D01*
X114556445Y-40954001D01*
X114443199Y-40840755D01*
X114354229Y-40707601D01*
X114292942Y-40559642D01*
X114261700Y-40402575D01*
X114261700Y-40242425D01*
X114292942Y-40085358D01*
X114354229Y-39937399D01*
X114443199Y-39804245D01*
X114556445Y-39690999D01*
X114689599Y-39602029D01*
X114837558Y-39540742D01*
X114994625Y-39509500D01*
X115154775Y-39509500D01*
X115311842Y-39540742D01*
G37*
G36*
X133463512Y-38016727D02*
G01*
X133612812Y-38046424D01*
X133776784Y-38114344D01*
X133924354Y-38212947D01*
X134049853Y-38338446D01*
X134148456Y-38486016D01*
X134216376Y-38649988D01*
X134251000Y-38824059D01*
X134251000Y-39001541D01*
X134216376Y-39175612D01*
X134148456Y-39339584D01*
X134049853Y-39487154D01*
X133924354Y-39612653D01*
X133776784Y-39711256D01*
X133612812Y-39779176D01*
X133486788Y-39804243D01*
X133438742Y-39813800D01*
X133261258Y-39813800D01*
X133213212Y-39804243D01*
X133087188Y-39779176D01*
X132923216Y-39711256D01*
X132775646Y-39612653D01*
X132650147Y-39487154D01*
X132551544Y-39339584D01*
X132483624Y-39175612D01*
X132449000Y-39001541D01*
X132449000Y-38824059D01*
X132483624Y-38649988D01*
X132551544Y-38486016D01*
X132650147Y-38338446D01*
X132775646Y-38212947D01*
X132923216Y-38114344D01*
X133087188Y-38046424D01*
X133236488Y-38016727D01*
X133261258Y-38011800D01*
X133438742Y-38011800D01*
X133463512Y-38016727D01*
G37*
G36*
X91372342Y-37064242D02*
G01*
X91520301Y-37125529D01*
X91653455Y-37214499D01*
X91766701Y-37327745D01*
X91855671Y-37460899D01*
X91916958Y-37608858D01*
X91948200Y-37765925D01*
X91948200Y-37926075D01*
X91916958Y-38083142D01*
X91855671Y-38231101D01*
X91766701Y-38364255D01*
X91653455Y-38477501D01*
X91520301Y-38566471D01*
X91372342Y-38627758D01*
X91215275Y-38659000D01*
X91055125Y-38659000D01*
X90898058Y-38627758D01*
X90750099Y-38566471D01*
X90616945Y-38477501D01*
X90503699Y-38364255D01*
X90414729Y-38231101D01*
X90353442Y-38083142D01*
X90322200Y-37926075D01*
X90322200Y-37765925D01*
X90353442Y-37608858D01*
X90414729Y-37460899D01*
X90503699Y-37327745D01*
X90616945Y-37214499D01*
X90750099Y-37125529D01*
X90898058Y-37064242D01*
X91055125Y-37033000D01*
X91215275Y-37033000D01*
X91372342Y-37064242D01*
G37*
G36*
X115311842Y-37000742D02*
G01*
X115459801Y-37062029D01*
X115592955Y-37150999D01*
X115706201Y-37264245D01*
X115795171Y-37397399D01*
X115856458Y-37545358D01*
X115887700Y-37702425D01*
X115887700Y-37862575D01*
X115856458Y-38019642D01*
X115795171Y-38167601D01*
X115706201Y-38300755D01*
X115592955Y-38414001D01*
X115459801Y-38502971D01*
X115311842Y-38564258D01*
X115154775Y-38595500D01*
X114994625Y-38595500D01*
X114837558Y-38564258D01*
X114689599Y-38502971D01*
X114556445Y-38414001D01*
X114443199Y-38300755D01*
X114354229Y-38167601D01*
X114292942Y-38019642D01*
X114261700Y-37862575D01*
X114261700Y-37702425D01*
X114292942Y-37545358D01*
X114354229Y-37397399D01*
X114443199Y-37264245D01*
X114556445Y-37150999D01*
X114689599Y-37062029D01*
X114837558Y-37000742D01*
X114994625Y-36969500D01*
X115154775Y-36969500D01*
X115311842Y-37000742D01*
G37*
G36*
X85008025Y-35791160D02*
G01*
X85008028Y-35791161D01*
X85008029Y-35791161D01*
X85187293Y-35845540D01*
X85187296Y-35845542D01*
X85187297Y-35845542D01*
X85352503Y-35933846D01*
X85497312Y-36052688D01*
X85616154Y-36197497D01*
X85662422Y-36284059D01*
X85704460Y-36362707D01*
X85734441Y-36461542D01*
X85758840Y-36541975D01*
X85777201Y-36728400D01*
X85758840Y-36914825D01*
X85758839Y-36914828D01*
X85758839Y-36914829D01*
X85704460Y-37094093D01*
X85704458Y-37094096D01*
X85704458Y-37094097D01*
X85616154Y-37259303D01*
X85497312Y-37404112D01*
X85352503Y-37522954D01*
X85191789Y-37608857D01*
X85187293Y-37611260D01*
X85008029Y-37665639D01*
X85008028Y-37665639D01*
X85008025Y-37665640D01*
X84868318Y-37679400D01*
X82974882Y-37679400D01*
X82835175Y-37665640D01*
X82835172Y-37665639D01*
X82835171Y-37665639D01*
X82655907Y-37611260D01*
X82651411Y-37608857D01*
X82490697Y-37522954D01*
X82345888Y-37404112D01*
X82227046Y-37259303D01*
X82138742Y-37094097D01*
X82138742Y-37094096D01*
X82138740Y-37094093D01*
X82084361Y-36914829D01*
X82084361Y-36914828D01*
X82084360Y-36914825D01*
X82065999Y-36728400D01*
X82084360Y-36541975D01*
X82108759Y-36461542D01*
X82138740Y-36362707D01*
X82180778Y-36284059D01*
X82227046Y-36197497D01*
X82345888Y-36052688D01*
X82490697Y-35933846D01*
X82655903Y-35845542D01*
X82655904Y-35845542D01*
X82655907Y-35845540D01*
X82835171Y-35791161D01*
X82835172Y-35791161D01*
X82835175Y-35791160D01*
X82974882Y-35777400D01*
X84868318Y-35777400D01*
X85008025Y-35791160D01*
G37*
G36*
X133463512Y-35476727D02*
G01*
X133612812Y-35506424D01*
X133776784Y-35574344D01*
X133924354Y-35672947D01*
X134049853Y-35798446D01*
X134148456Y-35946016D01*
X134216376Y-36109988D01*
X134251000Y-36284059D01*
X134251000Y-36461541D01*
X134216376Y-36635612D01*
X134148456Y-36799584D01*
X134049853Y-36947154D01*
X133924354Y-37072653D01*
X133776784Y-37171256D01*
X133612812Y-37239176D01*
X133486788Y-37264243D01*
X133438742Y-37273800D01*
X133261258Y-37273800D01*
X133213212Y-37264243D01*
X133087188Y-37239176D01*
X132923216Y-37171256D01*
X132775646Y-37072653D01*
X132650147Y-36947154D01*
X132551544Y-36799584D01*
X132483624Y-36635612D01*
X132449000Y-36461541D01*
X132449000Y-36284059D01*
X132483624Y-36109988D01*
X132551544Y-35946016D01*
X132650147Y-35798446D01*
X132775646Y-35672947D01*
X132923216Y-35574344D01*
X133087188Y-35506424D01*
X133236488Y-35476727D01*
X133261258Y-35471800D01*
X133438742Y-35471800D01*
X133463512Y-35476727D01*
G37*
G36*
X91372342Y-34524242D02*
G01*
X91520301Y-34585529D01*
X91653455Y-34674499D01*
X91766701Y-34787745D01*
X91855671Y-34920899D01*
X91916958Y-35068858D01*
X91948200Y-35225925D01*
X91948200Y-35386075D01*
X91916958Y-35543142D01*
X91855671Y-35691101D01*
X91766701Y-35824255D01*
X91653455Y-35937501D01*
X91520301Y-36026471D01*
X91372342Y-36087758D01*
X91215275Y-36119000D01*
X91055125Y-36119000D01*
X90898058Y-36087758D01*
X90750099Y-36026471D01*
X90616945Y-35937501D01*
X90503699Y-35824255D01*
X90414729Y-35691101D01*
X90353442Y-35543142D01*
X90322200Y-35386075D01*
X90322200Y-35225925D01*
X90353442Y-35068858D01*
X90414729Y-34920899D01*
X90503699Y-34787745D01*
X90616945Y-34674499D01*
X90750099Y-34585529D01*
X90898058Y-34524242D01*
X91055125Y-34493000D01*
X91215275Y-34493000D01*
X91372342Y-34524242D01*
G37*
G36*
X115311842Y-34460742D02*
G01*
X115459801Y-34522029D01*
X115592955Y-34610999D01*
X115706201Y-34724245D01*
X115795171Y-34857399D01*
X115856458Y-35005358D01*
X115887700Y-35162425D01*
X115887700Y-35322575D01*
X115856458Y-35479642D01*
X115795171Y-35627601D01*
X115706201Y-35760755D01*
X115592955Y-35874001D01*
X115459801Y-35962971D01*
X115311842Y-36024258D01*
X115154775Y-36055500D01*
X114994625Y-36055500D01*
X114837558Y-36024258D01*
X114689599Y-35962971D01*
X114556445Y-35874001D01*
X114443199Y-35760755D01*
X114354229Y-35627601D01*
X114292942Y-35479642D01*
X114261700Y-35322575D01*
X114261700Y-35162425D01*
X114292942Y-35005358D01*
X114354229Y-34857399D01*
X114443199Y-34724245D01*
X114556445Y-34610999D01*
X114689599Y-34522029D01*
X114837558Y-34460742D01*
X114994625Y-34429500D01*
X115154775Y-34429500D01*
X115311842Y-34460742D01*
G37*
G36*
X133463512Y-32936727D02*
G01*
X133612812Y-32966424D01*
X133776784Y-33034344D01*
X133924354Y-33132947D01*
X134049853Y-33258446D01*
X134148456Y-33406016D01*
X134216376Y-33569988D01*
X134251000Y-33744059D01*
X134251000Y-33921541D01*
X134216376Y-34095612D01*
X134148456Y-34259584D01*
X134049853Y-34407154D01*
X133924354Y-34532653D01*
X133776784Y-34631256D01*
X133612812Y-34699176D01*
X133486788Y-34724243D01*
X133438742Y-34733800D01*
X133261258Y-34733800D01*
X133213212Y-34724243D01*
X133087188Y-34699176D01*
X132923216Y-34631256D01*
X132775646Y-34532653D01*
X132650147Y-34407154D01*
X132551544Y-34259584D01*
X132483624Y-34095612D01*
X132449000Y-33921541D01*
X132449000Y-33744059D01*
X132483624Y-33569988D01*
X132551544Y-33406016D01*
X132650147Y-33258446D01*
X132775646Y-33132947D01*
X132923216Y-33034344D01*
X133087188Y-32966424D01*
X133236488Y-32936727D01*
X133261258Y-32931800D01*
X133438742Y-32931800D01*
X133463512Y-32936727D01*
G37*
G36*
X91372342Y-31984242D02*
G01*
X91520301Y-32045529D01*
X91653455Y-32134499D01*
X91766701Y-32247745D01*
X91855671Y-32380899D01*
X91916958Y-32528858D01*
X91948200Y-32685925D01*
X91948200Y-32846075D01*
X91916958Y-33003142D01*
X91855671Y-33151101D01*
X91766701Y-33284255D01*
X91653455Y-33397501D01*
X91520301Y-33486471D01*
X91372342Y-33547758D01*
X91215275Y-33579000D01*
X91055125Y-33579000D01*
X90898058Y-33547758D01*
X90750099Y-33486471D01*
X90616945Y-33397501D01*
X90503699Y-33284255D01*
X90414729Y-33151101D01*
X90353442Y-33003142D01*
X90322200Y-32846075D01*
X90322200Y-32685925D01*
X90353442Y-32528858D01*
X90414729Y-32380899D01*
X90503699Y-32247745D01*
X90616945Y-32134499D01*
X90750099Y-32045529D01*
X90898058Y-31984242D01*
X91055125Y-31953000D01*
X91215275Y-31953000D01*
X91372342Y-31984242D01*
G37*
G36*
X115311842Y-31920742D02*
G01*
X115459801Y-31982029D01*
X115592955Y-32070999D01*
X115706201Y-32184245D01*
X115795171Y-32317399D01*
X115856458Y-32465358D01*
X115887700Y-32622425D01*
X115887700Y-32782575D01*
X115856458Y-32939642D01*
X115795171Y-33087601D01*
X115706201Y-33220755D01*
X115592955Y-33334001D01*
X115459801Y-33422971D01*
X115311842Y-33484258D01*
X115154775Y-33515500D01*
X114994625Y-33515500D01*
X114837558Y-33484258D01*
X114689599Y-33422971D01*
X114556445Y-33334001D01*
X114443199Y-33220755D01*
X114354229Y-33087601D01*
X114292942Y-32939642D01*
X114261700Y-32782575D01*
X114261700Y-32622425D01*
X114292942Y-32465358D01*
X114354229Y-32317399D01*
X114443199Y-32184245D01*
X114556445Y-32070999D01*
X114689599Y-31982029D01*
X114837558Y-31920742D01*
X114994625Y-31889500D01*
X115154775Y-31889500D01*
X115311842Y-31920742D01*
G37*
G36*
X134251000Y-32193800D02*
G01*
X132449000Y-32193800D01*
X132449000Y-30391800D01*
X134251000Y-30391800D01*
X134251000Y-32193800D01*
G37*
G36*
X91372342Y-29444242D02*
G01*
X91520301Y-29505529D01*
X91653455Y-29594499D01*
X91766701Y-29707745D01*
X91855671Y-29840899D01*
X91916958Y-29988858D01*
X91948200Y-30145925D01*
X91948200Y-30306075D01*
X91916958Y-30463142D01*
X91855671Y-30611101D01*
X91766701Y-30744255D01*
X91653455Y-30857501D01*
X91520301Y-30946471D01*
X91372342Y-31007758D01*
X91215275Y-31039000D01*
X91055125Y-31039000D01*
X90898058Y-31007758D01*
X90750099Y-30946471D01*
X90616945Y-30857501D01*
X90503699Y-30744255D01*
X90414729Y-30611101D01*
X90353442Y-30463142D01*
X90322200Y-30306075D01*
X90322200Y-30145925D01*
X90353442Y-29988858D01*
X90414729Y-29840899D01*
X90503699Y-29707745D01*
X90616945Y-29594499D01*
X90750099Y-29505529D01*
X90898058Y-29444242D01*
X91055125Y-29413000D01*
X91215275Y-29413000D01*
X91372342Y-29444242D01*
G37*
G36*
X115311842Y-29380742D02*
G01*
X115459801Y-29442029D01*
X115592955Y-29530999D01*
X115706201Y-29644245D01*
X115795171Y-29777399D01*
X115856458Y-29925358D01*
X115887700Y-30082425D01*
X115887700Y-30242575D01*
X115856458Y-30399642D01*
X115795171Y-30547601D01*
X115706201Y-30680755D01*
X115592955Y-30794001D01*
X115459801Y-30882971D01*
X115311842Y-30944258D01*
X115154775Y-30975500D01*
X114994625Y-30975500D01*
X114837558Y-30944258D01*
X114689599Y-30882971D01*
X114556445Y-30794001D01*
X114443199Y-30680755D01*
X114354229Y-30547601D01*
X114292942Y-30399642D01*
X114261700Y-30242575D01*
X114261700Y-30082425D01*
X114292942Y-29925358D01*
X114354229Y-29777399D01*
X114443199Y-29644245D01*
X114556445Y-29530999D01*
X114689599Y-29442029D01*
X114837558Y-29380742D01*
X114994625Y-29349500D01*
X115154775Y-29349500D01*
X115311842Y-29380742D01*
G37*
G36*
X82087980Y-23680365D02*
G01*
X82387437Y-23739931D01*
X82951601Y-23973615D01*
X83459335Y-24312872D01*
X83891128Y-24744665D01*
X84230385Y-25252399D01*
X84464069Y-25816563D01*
X84464069Y-25816565D01*
X84583200Y-26415475D01*
X84583200Y-27026125D01*
X84567661Y-27104243D01*
X84464069Y-27625037D01*
X84230385Y-28189201D01*
X83891128Y-28696935D01*
X83459335Y-29128728D01*
X82951601Y-29467985D01*
X82387437Y-29701669D01*
X82087980Y-29761234D01*
X81788525Y-29820800D01*
X81177875Y-29820800D01*
X80878420Y-29761234D01*
X80578963Y-29701669D01*
X80014799Y-29467985D01*
X79507065Y-29128728D01*
X79075272Y-28696935D01*
X78736015Y-28189201D01*
X78502331Y-27625037D01*
X78398739Y-27104243D01*
X78383200Y-27026125D01*
X78383200Y-26415475D01*
X78502331Y-25816565D01*
X78502331Y-25816563D01*
X78736015Y-25252399D01*
X79075272Y-24744665D01*
X79507065Y-24312872D01*
X80014799Y-23973615D01*
X80578963Y-23739931D01*
X80878420Y-23680366D01*
X81177875Y-23620800D01*
X81788525Y-23620800D01*
X82087980Y-23680365D01*
G37*
G36*
X130347980Y-22410366D02*
G01*
X130647437Y-22469931D01*
X131211601Y-22703615D01*
X131719335Y-23042872D01*
X132151128Y-23474665D01*
X132490385Y-23982399D01*
X132724069Y-24546563D01*
X132740217Y-24627745D01*
X132843200Y-25145475D01*
X132843200Y-25756125D01*
X132783635Y-26055580D01*
X132724069Y-26355037D01*
X132490385Y-26919201D01*
X132151128Y-27426935D01*
X131719335Y-27858728D01*
X131211601Y-28197985D01*
X130647437Y-28431669D01*
X130347980Y-28491235D01*
X130048525Y-28550800D01*
X129437875Y-28550800D01*
X129138420Y-28491235D01*
X128838963Y-28431669D01*
X128274799Y-28197985D01*
X127767065Y-27858728D01*
X127335272Y-27426935D01*
X126996015Y-26919201D01*
X126762331Y-26355037D01*
X126702766Y-26055580D01*
X126643200Y-25756125D01*
X126643200Y-25145475D01*
X126746183Y-24627745D01*
X126762331Y-24546563D01*
X126996015Y-23982399D01*
X127335272Y-23474665D01*
X127767065Y-23042872D01*
X128274799Y-22703615D01*
X128838963Y-22469931D01*
X129138420Y-22410365D01*
X129437875Y-22350800D01*
X130048525Y-22350800D01*
X130347980Y-22410366D01*
G37*
G36*
X91372342Y-26904242D02*
G01*
X91520301Y-26965529D01*
X91653455Y-27054499D01*
X91766701Y-27167745D01*
X91855671Y-27300899D01*
X91916958Y-27448858D01*
X91948200Y-27605925D01*
X91948200Y-27766075D01*
X91916958Y-27923142D01*
X91855671Y-28071101D01*
X91766701Y-28204255D01*
X91653455Y-28317501D01*
X91520301Y-28406471D01*
X91372342Y-28467758D01*
X91215275Y-28499000D01*
X91055125Y-28499000D01*
X90898058Y-28467758D01*
X90750099Y-28406471D01*
X90616945Y-28317501D01*
X90503699Y-28204255D01*
X90414729Y-28071101D01*
X90353442Y-27923142D01*
X90322200Y-27766075D01*
X90322200Y-27605925D01*
X90353442Y-27448858D01*
X90414729Y-27300899D01*
X90503699Y-27167745D01*
X90616945Y-27054499D01*
X90750099Y-26965529D01*
X90898058Y-26904242D01*
X91055125Y-26873000D01*
X91215275Y-26873000D01*
X91372342Y-26904242D01*
G37*
G36*
X115311842Y-26840742D02*
G01*
X115459801Y-26902029D01*
X115592955Y-26990999D01*
X115706201Y-27104245D01*
X115795171Y-27237399D01*
X115856458Y-27385358D01*
X115887700Y-27542425D01*
X115887700Y-27702575D01*
X115856458Y-27859642D01*
X115795171Y-28007601D01*
X115706201Y-28140755D01*
X115592955Y-28254001D01*
X115459801Y-28342971D01*
X115311842Y-28404258D01*
X115154775Y-28435500D01*
X114994625Y-28435500D01*
X114837558Y-28404258D01*
X114689599Y-28342971D01*
X114556445Y-28254001D01*
X114443199Y-28140755D01*
X114354229Y-28007601D01*
X114292942Y-27859642D01*
X114261700Y-27702575D01*
X114261700Y-27542425D01*
X114292942Y-27385358D01*
X114354229Y-27237399D01*
X114443199Y-27104245D01*
X114556445Y-26990999D01*
X114689599Y-26902029D01*
X114837558Y-26840742D01*
X114994625Y-26809500D01*
X115154775Y-26809500D01*
X115311842Y-26840742D01*
G37*
G36*
X91372342Y-24364242D02*
G01*
X91520301Y-24425529D01*
X91653455Y-24514499D01*
X91766701Y-24627745D01*
X91855671Y-24760899D01*
X91916958Y-24908858D01*
X91948200Y-25065925D01*
X91948200Y-25226075D01*
X91916958Y-25383142D01*
X91855671Y-25531101D01*
X91766701Y-25664255D01*
X91653455Y-25777501D01*
X91520301Y-25866471D01*
X91372342Y-25927758D01*
X91215275Y-25959000D01*
X91055125Y-25959000D01*
X90898058Y-25927758D01*
X90750099Y-25866471D01*
X90616945Y-25777501D01*
X90503699Y-25664255D01*
X90414729Y-25531101D01*
X90353442Y-25383142D01*
X90322200Y-25226075D01*
X90322200Y-25065925D01*
X90353442Y-24908858D01*
X90414729Y-24760899D01*
X90503699Y-24627745D01*
X90616945Y-24514499D01*
X90750099Y-24425529D01*
X90898058Y-24364242D01*
X91055125Y-24333000D01*
X91215275Y-24333000D01*
X91372342Y-24364242D01*
G37*
G36*
X115311842Y-24300742D02*
G01*
X115459801Y-24362029D01*
X115592955Y-24450999D01*
X115706201Y-24564245D01*
X115795171Y-24697399D01*
X115856458Y-24845358D01*
X115887700Y-25002425D01*
X115887700Y-25162575D01*
X115856458Y-25319642D01*
X115795171Y-25467601D01*
X115706201Y-25600755D01*
X115592955Y-25714001D01*
X115459801Y-25802971D01*
X115311842Y-25864258D01*
X115154775Y-25895500D01*
X114994625Y-25895500D01*
X114837558Y-25864258D01*
X114689599Y-25802971D01*
X114556445Y-25714001D01*
X114443199Y-25600755D01*
X114354229Y-25467601D01*
X114292942Y-25319642D01*
X114261700Y-25162575D01*
X114261700Y-25002425D01*
X114292942Y-24845358D01*
X114354229Y-24697399D01*
X114443199Y-24564245D01*
X114556445Y-24450999D01*
X114689599Y-24362029D01*
X114837558Y-24300742D01*
X114994625Y-24269500D01*
X115154775Y-24269500D01*
X115311842Y-24300742D01*
G37*
G36*
X115311842Y-21824242D02*
G01*
X115459801Y-21885529D01*
X115592955Y-21974499D01*
X115706201Y-22087745D01*
X115795171Y-22220899D01*
X115856458Y-22368858D01*
X115887700Y-22525925D01*
X115887700Y-22686075D01*
X115856458Y-22843142D01*
X115795171Y-22991101D01*
X115706201Y-23124255D01*
X115592955Y-23237501D01*
X115459801Y-23326471D01*
X115311842Y-23387758D01*
X115154775Y-23419000D01*
X114994625Y-23419000D01*
X114837558Y-23387758D01*
X114689599Y-23326471D01*
X114556445Y-23237501D01*
X114443199Y-23124255D01*
X114354229Y-22991101D01*
X114292942Y-22843142D01*
X114261700Y-22686075D01*
X114261700Y-22525925D01*
X114292942Y-22368858D01*
X114354229Y-22220899D01*
X114443199Y-22087745D01*
X114556445Y-21974499D01*
X114689599Y-21885529D01*
X114837558Y-21824242D01*
X114994625Y-21793000D01*
X115154775Y-21793000D01*
X115311842Y-21824242D01*
G37*
G36*
X91372342Y-21824242D02*
G01*
X91520301Y-21885529D01*
X91653455Y-21974499D01*
X91766701Y-22087745D01*
X91855671Y-22220899D01*
X91916958Y-22368858D01*
X91948200Y-22525925D01*
X91948200Y-22686075D01*
X91916958Y-22843142D01*
X91855671Y-22991101D01*
X91766701Y-23124255D01*
X91653455Y-23237501D01*
X91520301Y-23326471D01*
X91372342Y-23387758D01*
X91215275Y-23419000D01*
X91055125Y-23419000D01*
X90898058Y-23387758D01*
X90750099Y-23326471D01*
X90616945Y-23237501D01*
X90503699Y-23124255D01*
X90414729Y-22991101D01*
X90353442Y-22843142D01*
X90322200Y-22686075D01*
X90322200Y-22525925D01*
X90353442Y-22368858D01*
X90414729Y-22220899D01*
X90503699Y-22087745D01*
X90616945Y-21974499D01*
X90750099Y-21885529D01*
X90898058Y-21824242D01*
X91055125Y-21793000D01*
X91215275Y-21793000D01*
X91372342Y-21824242D01*
G37*
G36*
X115311842Y-19284242D02*
G01*
X115459801Y-19345529D01*
X115592955Y-19434499D01*
X115706201Y-19547745D01*
X115795171Y-19680899D01*
X115856458Y-19828858D01*
X115887700Y-19985925D01*
X115887700Y-20146075D01*
X115856458Y-20303142D01*
X115795171Y-20451101D01*
X115706201Y-20584255D01*
X115592955Y-20697501D01*
X115459801Y-20786471D01*
X115311842Y-20847758D01*
X115154775Y-20879000D01*
X114994625Y-20879000D01*
X114837558Y-20847758D01*
X114689599Y-20786471D01*
X114556445Y-20697501D01*
X114443199Y-20584255D01*
X114354229Y-20451101D01*
X114292942Y-20303142D01*
X114261700Y-20146075D01*
X114261700Y-19985925D01*
X114292942Y-19828858D01*
X114354229Y-19680899D01*
X114443199Y-19547745D01*
X114556445Y-19434499D01*
X114689599Y-19345529D01*
X114837558Y-19284242D01*
X114994625Y-19253000D01*
X115154775Y-19253000D01*
X115311842Y-19284242D01*
G37*
G36*
X91372342Y-19284242D02*
G01*
X91520301Y-19345529D01*
X91653455Y-19434499D01*
X91766701Y-19547745D01*
X91855671Y-19680899D01*
X91916958Y-19828858D01*
X91948200Y-19985925D01*
X91948200Y-20146075D01*
X91916958Y-20303142D01*
X91855671Y-20451101D01*
X91766701Y-20584255D01*
X91653455Y-20697501D01*
X91520301Y-20786471D01*
X91372342Y-20847758D01*
X91215275Y-20879000D01*
X91055125Y-20879000D01*
X90898058Y-20847758D01*
X90750099Y-20786471D01*
X90616945Y-20697501D01*
X90503699Y-20584255D01*
X90414729Y-20451101D01*
X90353442Y-20303142D01*
X90322200Y-20146075D01*
X90322200Y-19985925D01*
X90353442Y-19828858D01*
X90414729Y-19680899D01*
X90503699Y-19547745D01*
X90616945Y-19434499D01*
X90750099Y-19345529D01*
X90898058Y-19284242D01*
X91055125Y-19253000D01*
X91215275Y-19253000D01*
X91372342Y-19284242D01*
G37*
G36*
X87235512Y-16579127D02*
G01*
X87384812Y-16608824D01*
X87548784Y-16676744D01*
X87696354Y-16775347D01*
X87821853Y-16900846D01*
X87920456Y-17048416D01*
X87988376Y-17212388D01*
X88023000Y-17386459D01*
X88023000Y-17563941D01*
X87988376Y-17738012D01*
X87920456Y-17901984D01*
X87821853Y-18049554D01*
X87696354Y-18175053D01*
X87548784Y-18273656D01*
X87384812Y-18341576D01*
X87235512Y-18371273D01*
X87210742Y-18376200D01*
X87033258Y-18376200D01*
X87008488Y-18371273D01*
X86859188Y-18341576D01*
X86695216Y-18273656D01*
X86547646Y-18175053D01*
X86422147Y-18049554D01*
X86323544Y-17901984D01*
X86255624Y-17738012D01*
X86221000Y-17563941D01*
X86221000Y-17386459D01*
X86255624Y-17212388D01*
X86323544Y-17048416D01*
X86422147Y-16900846D01*
X86547646Y-16775347D01*
X86695216Y-16676744D01*
X86859188Y-16608824D01*
X87008488Y-16579127D01*
X87033258Y-16574200D01*
X87210742Y-16574200D01*
X87235512Y-16579127D01*
G37*
G36*
X84695512Y-16579127D02*
G01*
X84844812Y-16608824D01*
X85008784Y-16676744D01*
X85156354Y-16775347D01*
X85281853Y-16900846D01*
X85380456Y-17048416D01*
X85448376Y-17212388D01*
X85483000Y-17386459D01*
X85483000Y-17563941D01*
X85448376Y-17738012D01*
X85380456Y-17901984D01*
X85281853Y-18049554D01*
X85156354Y-18175053D01*
X85008784Y-18273656D01*
X84844812Y-18341576D01*
X84695512Y-18371273D01*
X84670742Y-18376200D01*
X84493258Y-18376200D01*
X84468488Y-18371273D01*
X84319188Y-18341576D01*
X84155216Y-18273656D01*
X84007646Y-18175053D01*
X83882147Y-18049554D01*
X83783544Y-17901984D01*
X83715624Y-17738012D01*
X83681000Y-17563941D01*
X83681000Y-17386459D01*
X83715624Y-17212388D01*
X83783544Y-17048416D01*
X83882147Y-16900846D01*
X84007646Y-16775347D01*
X84155216Y-16676744D01*
X84319188Y-16608824D01*
X84468488Y-16579127D01*
X84493258Y-16574200D01*
X84670742Y-16574200D01*
X84695512Y-16579127D01*
G37*
G36*
X82943000Y-18376200D02*
G01*
X81141000Y-18376200D01*
X81141000Y-16574200D01*
X82943000Y-16574200D01*
X82943000Y-18376200D01*
G37*
M02*
